<svg version="1.1" xmlns="http://www.w3.org/2000/svg" viewBox="0 0 543.7903346489743 418.4467673734913" width="543.7903346489743" height="418.4467673734913" filter="invert(93%) hue-rotate(180deg)" class="excalidraw-svg"><!-- svg-source:excalidraw --><metadata></metadata><defs><style class="style-fonts">
      </style></defs><rect x="0" y="0" width="543.7903346489743" height="418.4467673734913" fill="transparent"></rect><g stroke-linecap="round" transform="translate(24.01690394076519 22.419033279232735) rotate(0 195 191.5)"><path d="M238.78 4.2 C255.7 4.76, 272.75 13.8, 287.96 22.22 C303.16 30.64, 317.61 42.53, 330.02 54.72 C342.44 66.91, 353.62 80.57, 362.46 95.36 C371.3 110.16, 378.35 127.01, 383.09 143.48 C387.83 159.95, 391.12 176.85, 390.92 194.17 C390.73 211.49, 387.13 230.74, 381.92 247.4 C376.72 264.05, 369.17 279.77, 359.71 294.1 C350.25 308.43, 338.28 321.97, 325.14 333.36 C312.01 344.76, 296.6 354.7, 280.89 362.47 C265.18 370.25, 247.91 376.79, 230.87 380.02 C213.84 383.25, 196 383.52, 178.69 381.87 C161.37 380.22, 143.45 376.27, 126.98 370.13 C110.5 363.98, 93.97 355.09, 79.81 344.98 C65.66 334.88, 52.73 322.77, 42.06 309.49 C31.38 296.2, 22.5 280.99, 15.76 265.27 C9.01 249.56, 3.99 232.25, 1.59 215.18 C-0.8 198.11, -1.29 180.17, 1.39 162.87 C4.08 145.57, 10.2 127.07, 17.71 111.38 C25.23 95.68, 35.31 81.86, 46.5 68.68 C57.68 55.49, 70.29 41.91, 84.82 32.25 C99.35 22.58, 116.83 16, 133.68 10.68 C150.54 5.36, 167.13 0.89, 185.92 0.33 C204.72 -0.23, 234.94 5.18, 246.47 7.32 C258 9.46, 255.78 10.15, 255.1 13.18 M119.16 13.46 C133.13 4.46, 154.01 2.68, 171.37 0.58 C188.72 -1.52, 206.18 -1.82, 223.29 0.87 C240.41 3.56, 257.64 9.62, 274.05 16.71 C290.47 23.81, 308.1 32.5, 321.78 43.45 C335.46 54.39, 346.54 67.71, 356.13 82.38 C365.72 97.06, 373.75 115.12, 379.34 131.48 C384.92 147.83, 388.83 163.29, 389.64 180.51 C390.44 197.74, 388.06 217.65, 384.19 234.83 C380.31 252.02, 374.31 268.82, 366.38 283.63 C358.45 298.43, 348.76 311.34, 336.58 323.68 C324.4 336.02, 308.6 348.98, 293.3 357.66 C278 366.34, 261.66 371.39, 244.77 375.78 C227.89 380.17, 209.42 384.36, 192.01 384 C174.59 383.65, 157.09 378.91, 140.27 373.63 C123.45 368.35, 106.02 361.34, 91.09 352.31 C76.15 343.28, 62.69 332.16, 50.68 319.48 C38.66 306.79, 26.73 291.53, 18.98 276.22 C11.24 260.91, 7.39 244.58, 4.22 227.6 C1.05 210.63, -1.31 191.61, -0.05 174.38 C1.2 157.14, 5.5 140.37, 11.76 124.21 C18.03 108.05, 27.29 91.26, 37.54 77.4 C47.79 63.54, 59.45 51.48, 73.28 41.05 C87.1 30.62, 112.48 18.49, 120.48 14.82 C128.47 11.14, 120.14 16.06, 121.27 19" stroke="#1e1e1e" stroke-width="0.5" fill="none"></path></g><g stroke-linecap="round"><g transform="translate(18.01690394076519 10.419033279232735) rotate(0 -0.5 197)"><path d="M0.53 0.41 C0.08 66.3, -1.32 329.24, -1.69 394.88 M-0.64 -0.42 C-0.79 65.18, 1.01 327.2, 0.66 393.21" stroke="#1e1e1e" stroke-width="0.5" fill="none"></path></g></g><mask></mask><g stroke-linecap="round"><g transform="translate(532.6368497554213 407.20345254353253) rotate(0 -261 0.4999999999999858)"><path d="M-0.69 0.88 C-87.88 1.01, -435.58 1.32, -522.64 1.23 M1.15 0.29 C-85.69 0, -433.29 -0.94, -520.26 -0.78" stroke="#1e1e1e" stroke-width="0.5" fill="none"></path></g></g><mask></mask><g transform="translate(221.0169039407652 212.41903327923274) rotate(0 -1.5 4)" stroke="none"><path fill="#1e1e1e" d="M 0.32,0.65 Q 0.32,0.65 -0.14,1.09 -0.61,1.53 -0.97,2.07 -1.33,2.62 -1.29,3.58 -1.25,4.54 -1.23,5.15 -1.20,5.75 -0.85,5.08 -0.50,4.40 -0.37,3.72 -0.24,3.03 -0.16,2.47 -0.08,1.91 -0.27,2.69 -0.46,3.48 0.27,3.42 1.00,3.37 1.11,3.42 1.22,3.47 1.32,3.54 1.41,3.62 1.49,3.71 1.56,3.81 1.62,3.92 1.67,4.03 1.69,4.15 1.71,4.26 1.70,4.39 1.70,4.51 1.66,4.62 1.63,4.74 1.57,4.84 1.50,4.95 1.42,5.03 1.33,5.12 1.23,5.18 1.13,5.25 1.01,5.28 0.90,5.32 0.78,5.33 0.66,5.34 0.54,5.32 0.42,5.29 -0.32,4.77 -1.07,4.25 -0.61,4.53 -0.15,4.81 -0.34,4.15 -0.53,3.49 -1.12,4.24 -1.72,4.98 -1.47,5.68 -1.23,6.38 -0.75,5.32 -0.27,4.27 -0.16,3.71 -0.04,3.16 -0.75,3.87 -1.45,4.58 -1.40,5.21 -1.35,5.84 -0.82,5.46 -0.29,5.08 -0.93,4.31 -1.58,3.53 -2.17,3.54 -2.75,3.55 -2.53,4.10 -2.31,4.65 -1.42,3.75 -0.52,2.86 -0.66,2.21 -0.79,1.57 -1.24,2.33 -1.68,3.08 -1.25,4.62 -0.82,6.16 -0.77,6.25 -0.72,6.35 -0.70,6.45 -0.68,6.56 -0.69,6.66 -0.71,6.77 -0.75,6.86 -0.80,6.96 -0.88,7.03 -0.95,7.11 -1.05,7.15 -1.14,7.20 -1.25,7.21 -1.35,7.23 -1.46,7.21 -1.56,7.19 -1.65,7.13 -1.75,7.08 -1.82,7.00 -1.89,6.92 -1.93,6.83 -1.97,6.73 -1.98,6.62 -1.99,6.52 -1.96,6.41 -1.94,6.31 -1.88,6.22 -1.82,6.13 -1.74,6.06 -1.66,6.00 -1.56,5.96 -1.46,5.93 -1.35,5.92 -1.24,5.92 -1.14,5.95 -1.04,5.98 -0.95,6.05 -0.87,6.11 -0.81,6.19 -0.74,6.28 -0.71,6.38 -0.68,6.48 -0.69,6.59 -0.69,6.70 -0.73,6.80 -0.76,6.90 -0.83,6.98 -0.90,7.06 -0.99,7.12 -1.08,7.18 -1.18,7.20 -1.28,7.23 -1.39,7.22 -1.49,7.21 -1.59,7.17 -1.69,7.12 -1.77,7.05 -1.85,6.98 -1.85,6.98 -1.85,6.98 -2.78,4.78 -3.72,2.57 -3.41,1.58 -3.10,0.59 -2.40,0.01 -1.70,-0.55 -0.73,-0.33 0.22,-0.11 0.67,0.52 1.11,1.16 1.20,2.37 1.28,3.57 0.85,4.45 0.42,5.33 -0.09,6.06 -0.62,6.78 -1.77,6.83 -2.93,6.88 -3.59,6.03 -4.25,5.18 -4.40,4.17 -4.55,3.16 -4.11,2.51 -3.67,1.86 -2.82,1.61 -1.97,1.37 -1.19,1.64 -0.42,1.92 0.39,2.58 1.20,3.25 1.48,4.02 1.75,4.80 1.56,5.50 1.36,6.21 0.88,6.80 0.40,7.39 -0.46,7.74 -1.32,8.09 -2.28,7.33 -3.24,6.58 -3.44,5.77 -3.65,4.97 -3.38,4.20 -3.12,3.42 -2.47,2.60 -1.83,1.78 -1.08,1.51 -0.33,1.24 0.36,1.50 1.06,1.75 1.43,2.34 1.79,2.93 1.73,3.80 1.67,4.66 1.32,5.88 0.96,7.10 0.23,7.57 -0.49,8.05 -1.18,8.01 -1.86,7.97 -2.55,7.18 -3.25,6.39 -3.46,5.52 -3.67,4.65 -3.36,3.63 -3.05,2.60 -2.33,1.99 -1.60,1.38 -0.71,1.52 0.18,1.66 0.73,2.18 1.27,2.70 1.56,3.70 1.86,4.71 1.69,5.33 1.53,5.94 1.10,6.30 0.67,6.66 -0.16,6.64 -1.01,6.62 -1.59,6.26 -2.17,5.89 -2.50,5.14 -2.83,4.39 -2.27,3.41 -1.70,2.43 -0.35,2.90 1.00,3.37 1.11,3.42 1.22,3.47 1.32,3.54 1.41,3.62 1.49,3.71 1.56,3.81 1.62,3.92 1.67,4.03 1.69,4.15 1.71,4.26 1.70,4.39 1.70,4.51 1.66,4.62 1.63,4.74 1.57,4.84 1.50,4.95 1.42,5.03 1.33,5.12 1.23,5.18 1.13,5.25 1.01,5.28 0.90,5.32 0.78,5.33 0.66,5.34 0.54,5.32 0.42,5.29 0.54,5.43 0.67,5.57 -0.26,5.44 -1.19,5.31 -1.74,4.78 -2.28,4.26 -2.57,3.24 -2.87,2.22 -2.74,1.61 -2.61,0.99 -2.22,0.44 -1.82,-0.10 -1.04,-0.32 -0.25,-0.53 0.47,-0.09 1.20,0.34 1.52,1.17 1.83,2.00 1.74,2.74 1.66,3.48 1.39,4.49 1.11,5.50 0.46,6.31 -0.18,7.12 -0.88,7.28 -1.57,7.45 -2.30,6.90 -3.03,6.35 -3.16,5.68 -3.30,5.02 -3.49,3.93 -3.69,2.85 -3.39,2.08 -3.09,1.31 -2.38,0.46 -1.68,-0.38 -1.00,-0.51 -0.32,-0.65 -0.24,-0.68 -0.16,-0.71 -0.07,-0.72 0.01,-0.73 0.10,-0.72 0.18,-0.70 0.27,-0.67 0.35,-0.64 0.42,-0.59 0.49,-0.53 0.55,-0.47 0.61,-0.40 0.65,-0.32 0.69,-0.24 0.70,-0.16 0.72,-0.07 0.72,0.01 0.72,0.10 0.70,0.18 0.67,0.27 0.63,0.35 0.59,0.42 0.53,0.49 0.47,0.55 0.40,0.60 0.32,0.65 0.32,0.65 L 0.32,0.65 Z"></path></g><g transform="translate(226.0169039407652 227.41903327923274) rotate(0 -5.5 15.5)" stroke="none"><path fill="#1e1e1e" d="M 0.30,0.61 Q 0.30,0.61 -0.59,1.66 -1.50,2.71 -2.96,3.99 -4.43,5.27 -5.60,6.63 -6.78,7.98 -7.48,9.55 -8.18,11.12 -8.80,12.64 -9.41,14.16 -9.08,16.48 -8.74,18.81 -8.10,20.95 -7.45,23.10 -6.47,24.78 -5.49,26.47 -4.45,27.50 -3.42,28.54 -1.62,28.89 0.17,29.24 0.27,29.27 0.37,29.30 0.46,29.36 0.55,29.42 0.61,29.50 0.67,29.59 0.71,29.69 0.74,29.79 0.74,29.89 0.74,30.00 0.70,30.10 0.67,30.20 0.60,30.29 0.54,30.37 0.45,30.43 0.36,30.49 0.26,30.52 0.16,30.54 0.05,30.54 -0.04,30.53 -0.14,30.49 -0.24,30.45 -0.32,30.38 -0.40,30.31 -0.46,30.22 -0.51,30.13 -0.53,30.02 -0.55,29.92 -0.54,29.82 -0.53,29.71 -0.49,29.61 -0.44,29.52 -0.37,29.44 -0.29,29.36 -0.20,29.32 -0.10,29.27 -0.00,29.25 0.10,29.23 0.20,29.25 0.31,29.27 0.40,29.32 0.49,29.37 0.56,29.45 0.64,29.53 0.68,29.62 0.72,29.72 0.74,29.82 0.75,29.93 0.72,30.03 0.70,30.14 0.64,30.23 0.59,30.32 0.51,30.39 0.43,30.46 0.33,30.49 0.23,30.53 0.12,30.54 0.02,30.54 0.02,30.54 0.02,30.54 -2.28,30.42 -4.58,30.29 -6.26,29.19 -7.94,28.09 -9.28,26.09 -10.62,24.10 -11.38,21.65 -12.14,19.20 -12.42,16.13 -12.69,13.06 -12.02,11.35 -11.36,9.64 -10.40,7.67 -9.45,5.70 -8.08,4.15 -6.72,2.59 -4.90,1.09 -3.09,-0.41 -1.70,-0.51 -0.30,-0.61 -0.22,-0.63 -0.15,-0.66 -0.06,-0.67 0.01,-0.68 0.09,-0.67 0.17,-0.65 0.25,-0.62 0.32,-0.59 0.39,-0.54 0.46,-0.50 0.51,-0.43 0.56,-0.37 0.60,-0.30 0.64,-0.22 0.66,-0.14 0.67,-0.06 0.67,0.01 0.67,0.09 0.65,0.17 0.63,0.25 0.59,0.32 0.55,0.39 0.49,0.45 0.44,0.51 0.37,0.56 0.30,0.61 0.30,0.61 L 0.30,0.61 Z"></path></g><g transform="translate(251.0169039407652 237.41903327923274) rotate(0 -3.5 11)" stroke="none"><path fill="#1e1e1e" d="M -0.33,0.66 Q -0.33,0.66 -1.06,0.70 -1.79,0.74 -2.58,0.93 -3.38,1.12 -4.20,1.49 -5.03,1.86 -5.95,2.29 -6.86,2.72 -7.33,3.32 -7.80,3.92 -8.30,4.71 -8.80,5.50 -9.25,7.11 -9.70,8.72 -9.61,10.41 -9.52,12.10 -9.22,13.97 -8.92,15.83 -8.33,17.29 -7.75,18.74 -6.33,19.49 -4.90,20.25 -3.61,20.43 -2.31,20.62 0.56,19.75 3.43,18.89 3.54,18.86 3.64,18.84 3.75,18.86 3.85,18.87 3.95,18.92 4.04,18.96 4.12,19.04 4.19,19.11 4.24,19.21 4.29,19.30 4.31,19.41 4.32,19.51 4.30,19.61 4.28,19.72 4.23,19.81 4.18,19.91 4.10,19.98 4.02,20.05 3.93,20.09 3.83,20.13 3.72,20.14 3.62,20.15 3.51,20.13 3.41,20.10 3.32,20.05 3.23,19.99 3.16,19.91 3.10,19.83 3.06,19.73 3.02,19.63 3.02,19.52 3.01,19.42 3.04,19.32 3.07,19.21 3.13,19.13 3.20,19.04 3.28,18.98 3.37,18.91 3.47,18.88 3.57,18.85 3.68,18.85 3.78,18.85 3.88,18.89 3.98,18.92 4.07,18.99 4.15,19.06 4.21,19.14 4.26,19.23 4.29,19.34 4.32,19.44 4.31,19.55 4.30,19.65 4.26,19.75 4.22,19.85 4.15,19.93 4.08,20.01 3.99,20.06 3.90,20.11 3.90,20.11 3.90,20.11 0.74,21.53 -2.41,22.95 -4.32,22.85 -6.23,22.76 -8.28,21.49 -10.33,20.23 -11.17,18.29 -12.00,16.34 -12.32,14.27 -12.65,12.20 -12.68,10.04 -12.71,7.89 -12.08,5.86 -11.46,3.83 -10.80,2.81 -10.13,1.80 -9.20,0.87 -8.28,-0.06 -7.26,-0.53 -6.25,-1.01 -5.25,-1.41 -4.25,-1.82 -3.11,-2.05 -1.97,-2.29 -1.23,-2.09 -0.50,-1.89 -0.08,-1.28 0.33,-0.66 0.40,-0.61 0.48,-0.56 0.54,-0.50 0.60,-0.43 0.64,-0.35 0.69,-0.27 0.71,-0.19 0.73,-0.10 0.74,-0.01 0.74,0.07 0.72,0.16 0.70,0.25 0.66,0.33 0.62,0.41 0.56,0.48 0.50,0.54 0.43,0.60 0.36,0.65 0.27,0.68 0.19,0.72 0.10,0.73 0.01,0.74 -0.07,0.73 -0.16,0.72 -0.24,0.69 -0.33,0.66 -0.33,0.66 L -0.33,0.66 Z"></path></g><g transform="translate(263.0169039407652 238.41903327923274) rotate(0 4.5 9.5)" stroke="none"><path fill="#1e1e1e" d="M 0.77,-0.15 Q 0.77,-0.15 1.32,1.22 1.87,2.61 2.28,4.66 2.69,6.71 2.88,9.39 3.07,12.07 3.14,14.05 3.22,16.04 3.24,17.17 3.27,18.30 3.26,18.49 3.26,18.68 3.24,18.83 3.23,18.99 3.18,19.13 3.13,19.28 3.04,19.41 2.96,19.54 2.85,19.64 2.73,19.75 2.60,19.82 2.46,19.90 2.31,19.94 2.17,19.98 2.01,19.99 1.86,19.99 1.71,19.96 1.55,19.93 1.42,19.86 1.28,19.79 1.16,19.69 1.04,19.59 0.95,19.47 0.86,19.34 0.80,19.20 0.74,19.06 0.72,18.90 0.69,18.75 0.72,17.95 0.74,17.14 0.75,15.64 0.76,14.13 1.39,12.69 2.03,11.24 2.56,10.15 3.10,9.06 3.84,8.13 4.58,7.20 5.57,7.08 6.55,6.96 7.39,7.68 8.23,8.41 8.58,9.77 8.93,11.13 9.03,12.83 9.14,14.53 9.06,15.92 8.98,17.31 9.08,17.35 9.17,17.40 9.25,17.47 9.33,17.54 9.38,17.64 9.43,17.73 9.44,17.84 9.46,17.94 9.44,18.05 9.43,18.15 9.38,18.24 9.33,18.34 9.25,18.41 9.17,18.49 9.08,18.53 8.98,18.57 8.88,18.59 8.77,18.60 8.67,18.58 8.56,18.55 8.47,18.50 8.38,18.44 8.31,18.36 8.24,18.28 8.20,18.18 8.16,18.08 8.16,17.98 8.15,17.87 8.18,17.77 8.21,17.67 8.27,17.58 8.33,17.49 8.41,17.43 8.50,17.36 8.60,17.33 8.70,17.29 8.80,17.29 8.91,17.29 9.01,17.33 9.11,17.36 9.20,17.43 9.28,17.49 9.34,17.58 9.40,17.67 9.43,17.77 9.46,17.87 9.45,17.98 9.45,18.08 9.41,18.18 9.37,18.28 9.30,18.36 9.23,18.44 9.14,18.50 9.05,18.55 8.94,18.58 8.84,18.60 8.73,18.59 8.63,18.58 8.63,18.58 8.63,18.58 7.61,16.63 6.58,14.67 6.51,13.14 6.43,11.61 6.16,10.31 5.89,9.01 5.61,9.58 5.32,10.15 4.79,11.23 4.26,12.31 3.74,13.28 3.22,14.24 3.23,15.70 3.23,17.16 3.24,17.92 3.26,18.68 3.24,18.83 3.23,18.99 3.18,19.13 3.13,19.28 3.04,19.41 2.96,19.54 2.85,19.64 2.73,19.75 2.60,19.82 2.46,19.90 2.31,19.94 2.17,19.98 2.01,19.99 1.86,19.99 1.71,19.96 1.55,19.93 1.42,19.86 1.28,19.79 1.16,19.69 1.04,19.59 0.95,19.47 0.86,19.34 0.80,19.20 0.74,19.06 0.72,18.90 0.69,18.75 0.66,18.56 0.62,18.37 0.59,17.26 0.56,16.14 0.48,14.19 0.41,12.25 0.25,9.74 0.09,7.23 -0.31,5.18 -0.72,3.13 -0.75,1.64 -0.77,0.15 -0.78,0.06 -0.79,-0.03 -0.77,-0.12 -0.75,-0.22 -0.72,-0.31 -0.68,-0.39 -0.62,-0.47 -0.56,-0.55 -0.49,-0.61 -0.42,-0.67 -0.33,-0.71 -0.24,-0.75 -0.15,-0.77 -0.06,-0.78 0.03,-0.78 0.13,-0.78 0.22,-0.75 0.31,-0.72 0.39,-0.67 0.47,-0.63 0.54,-0.56 0.61,-0.49 0.66,-0.41 0.71,-0.33 0.74,-0.24 0.77,-0.15 0.77,-0.15 L 0.77,-0.15 Z"></path></g><g transform="translate(280.0169039407652 255.41903327923274) rotate(0 -2.5 7)" stroke="none"><path fill="#1e1e1e" d="M 0.75,0.25 Q 0.75,0.25 0.17,2.93 -0.39,5.61 -1.06,7.32 -1.73,9.03 -2.87,11.13 -4.02,13.23 -4.07,13.32 -4.12,13.41 -4.20,13.49 -4.28,13.56 -4.38,13.60 -4.48,13.64 -4.58,13.65 -4.69,13.66 -4.79,13.64 -4.89,13.61 -4.98,13.55 -5.07,13.50 -5.14,13.42 -5.21,13.33 -5.25,13.23 -5.28,13.13 -5.29,13.03 -5.29,12.92 -5.26,12.82 -5.23,12.72 -5.17,12.63 -5.11,12.54 -5.02,12.48 -4.94,12.42 -4.83,12.39 -4.73,12.36 -4.63,12.36 -4.52,12.36 -4.42,12.40 -4.32,12.43 -4.24,12.50 -4.15,12.56 -4.10,12.65 -4.04,12.74 -4.01,12.85 -3.99,12.95 -3.99,13.05 -4.00,13.16 -4.04,13.26 -4.08,13.36 -4.15,13.44 -4.22,13.51 -4.32,13.57 -4.41,13.62 -4.51,13.64 -4.62,13.66 -4.72,13.65 -4.83,13.64 -4.92,13.59 -5.02,13.54 -5.09,13.47 -5.17,13.39 -5.22,13.30 -5.27,13.20 -5.28,13.10 -5.30,12.99 -5.28,12.89 -5.26,12.78 -5.26,12.78 -5.26,12.78 -4.79,10.40 -4.33,8.01 -3.69,6.37 -3.05,4.73 -1.90,2.24 -0.75,-0.25 -0.71,-0.33 -0.67,-0.42 -0.61,-0.49 -0.55,-0.57 -0.47,-0.63 -0.39,-0.68 -0.30,-0.72 -0.22,-0.76 -0.12,-0.77 -0.03,-0.79 0.06,-0.78 0.15,-0.77 0.24,-0.74 0.34,-0.71 0.42,-0.66 0.50,-0.61 0.56,-0.54 0.63,-0.47 0.68,-0.39 0.73,-0.31 0.75,-0.22 0.78,-0.12 0.78,-0.03 0.79,0.06 0.77,0.15 0.75,0.25 0.75,0.25 L 0.75,0.25 Z"></path></g><g transform="translate(286.0169039407652 235.41903327923274) rotate(0 1 12)" stroke="none"><path fill="#1e1e1e" d="M 0.82,-0.16 Q 0.82,-0.16 1.31,1.23 1.81,2.62 1.95,4.46 2.09,6.30 2.43,8.73 2.76,11.16 2.91,13.41 3.06,15.66 3.11,17.48 3.17,19.29 2.91,21.41 2.64,23.52 2.63,23.63 2.61,23.73 2.57,23.83 2.52,23.92 2.44,24.00 2.36,24.07 2.27,24.12 2.17,24.16 2.07,24.18 1.96,24.19 1.86,24.17 1.75,24.15 1.66,24.09 1.57,24.04 1.50,23.96 1.43,23.88 1.39,23.78 1.35,23.68 1.34,23.58 1.33,23.47 1.36,23.37 1.39,23.27 1.45,23.18 1.50,23.09 1.59,23.02 1.67,22.96 1.77,22.92 1.87,22.89 1.98,22.89 2.08,22.88 2.19,22.92 2.29,22.95 2.37,23.01 2.46,23.07 2.52,23.16 2.58,23.25 2.61,23.35 2.64,23.45 2.64,23.56 2.63,23.67 2.59,23.76 2.56,23.86 2.49,23.95 2.42,24.03 2.33,24.08 2.24,24.14 2.14,24.16 2.03,24.19 1.93,24.18 1.82,24.17 1.72,24.13 1.63,24.08 1.55,24.01 1.47,23.94 1.42,23.85 1.37,23.75 1.35,23.65 1.33,23.54 1.33,23.54 1.33,23.54 0.99,21.46 0.64,19.38 0.57,17.60 0.50,15.82 0.36,13.67 0.22,11.51 -0.11,9.00 -0.45,6.48 -0.56,4.80 -0.66,3.12 -0.74,1.64 -0.82,0.16 -0.82,0.06 -0.83,-0.03 -0.82,-0.13 -0.80,-0.23 -0.76,-0.32 -0.72,-0.42 -0.66,-0.50 -0.60,-0.58 -0.52,-0.64 -0.44,-0.70 -0.35,-0.75 -0.26,-0.79 -0.16,-0.81 -0.06,-0.83 0.03,-0.83 0.13,-0.82 0.23,-0.79 0.33,-0.76 0.41,-0.71 0.50,-0.66 0.57,-0.59 0.65,-0.52 0.70,-0.44 0.75,-0.35 0.78,-0.26 0.82,-0.16 0.82,-0.16 L 0.82,-0.16 Z"></path></g><g transform="translate(291.0169039407652 245.41903327923274) rotate(0 2.5 5)" stroke="none"><path fill="#1e1e1e" d="M -0.58,-0.58 Q -0.58,-0.58 0.25,-1.32 1.09,-2.07 2.18,-1.80 3.27,-1.54 4.11,-0.68 4.95,0.16 5.34,1.00 5.72,1.84 5.58,2.72 5.43,3.59 4.96,4.30 4.50,5.00 3.28,5.68 2.05,6.37 1.24,6.62 0.42,6.88 -0.17,6.97 -0.76,7.05 -0.91,7.08 -1.06,7.11 -1.21,7.09 -1.36,7.08 -1.50,7.04 -1.64,6.99 -1.77,6.91 -1.90,6.83 -2.00,6.73 -2.11,6.62 -2.18,6.49 -2.26,6.36 -2.30,6.21 -2.35,6.07 -2.35,5.92 -2.36,5.77 -2.33,5.62 -2.30,5.48 -2.24,5.34 -2.18,5.20 -2.08,5.09 -1.99,4.97 -1.87,4.88 -1.75,4.79 -1.61,4.73 -1.48,4.67 -0.79,4.90 -0.11,5.14 0.29,6.18 0.71,7.23 1.27,7.65 1.84,8.08 2.62,8.57 3.41,9.07 4.11,9.63 4.82,10.19 5.52,10.00 6.22,9.81 6.31,9.75 6.40,9.69 6.50,9.67 6.61,9.64 6.71,9.65 6.82,9.66 6.92,9.70 7.01,9.74 7.09,9.81 7.17,9.88 7.23,9.97 7.28,10.07 7.30,10.17 7.32,10.27 7.31,10.38 7.29,10.49 7.24,10.58 7.20,10.68 7.12,10.75 7.05,10.83 6.95,10.88 6.86,10.92 6.75,10.94 6.65,10.95 6.54,10.93 6.44,10.91 6.35,10.86 6.25,10.81 6.18,10.73 6.11,10.65 6.07,10.56 6.03,10.46 6.02,10.35 6.01,10.25 6.03,10.14 6.06,10.04 6.12,9.95 6.17,9.86 6.25,9.79 6.34,9.73 6.44,9.69 6.54,9.65 6.64,9.65 6.75,9.65 6.85,9.68 6.95,9.71 7.04,9.77 7.12,9.83 7.19,9.92 7.25,10.00 7.28,10.10 7.31,10.20 7.31,10.31 7.31,10.42 7.27,10.52 7.24,10.62 7.17,10.70 7.10,10.78 7.10,10.78 7.10,10.78 5.16,11.51 3.22,12.23 2.61,11.74 2.00,11.24 1.04,10.60 0.07,9.96 -0.76,9.06 -1.60,8.17 -1.79,7.45 -1.99,6.74 -1.37,6.90 -0.76,7.05 -0.91,7.08 -1.06,7.11 -1.21,7.09 -1.36,7.08 -1.50,7.04 -1.64,6.99 -1.77,6.91 -1.90,6.83 -2.00,6.73 -2.11,6.62 -2.18,6.49 -2.26,6.36 -2.30,6.21 -2.35,6.07 -2.35,5.92 -2.36,5.77 -2.33,5.62 -2.30,5.48 -2.24,5.34 -2.18,5.20 -2.08,5.09 -1.99,4.97 -1.87,4.88 -1.75,4.79 -1.61,4.73 -1.48,4.67 -0.88,4.57 -0.29,4.47 0.32,4.30 0.94,4.12 2.01,3.46 3.07,2.80 3.12,2.26 3.16,1.71 2.73,1.14 2.30,0.56 1.75,0.16 1.20,-0.22 0.89,0.17 0.58,0.58 0.50,0.64 0.42,0.70 0.33,0.74 0.24,0.78 0.14,0.80 0.04,0.82 -0.04,0.81 -0.14,0.80 -0.24,0.77 -0.33,0.74 -0.42,0.69 -0.50,0.64 -0.57,0.57 -0.64,0.50 -0.69,0.42 -0.74,0.33 -0.77,0.24 -0.80,0.14 -0.81,0.04 -0.82,-0.04 -0.80,-0.14 -0.78,-0.24 -0.74,-0.33 -0.70,-0.42 -0.64,-0.50 -0.58,-0.58 -0.58,-0.58 L -0.58,-0.58 Z"></path></g><g transform="translate(300.0169039407652 229.41903327923274) rotate(0 8 19)" stroke="none"><path fill="#1e1e1e" d="M 0.48,-0.73 Q 0.48,-0.73 2.31,0.26 4.14,1.26 5.81,2.63 7.49,3.99 9.06,5.44 10.64,6.88 12.20,8.38 13.75,9.88 14.85,12.75 15.95,15.63 16.39,18.61 16.82,21.59 16.71,24.66 16.60,27.72 15.94,30.28 15.29,32.84 13.91,34.65 12.53,36.45 10.27,36.92 8.02,37.38 7.92,37.39 7.81,37.41 7.71,37.38 7.60,37.36 7.51,37.31 7.42,37.26 7.35,37.18 7.28,37.10 7.24,37.00 7.20,36.90 7.19,36.79 7.18,36.69 7.21,36.58 7.24,36.48 7.30,36.39 7.36,36.30 7.44,36.24 7.52,36.17 7.62,36.14 7.72,36.10 7.83,36.10 7.94,36.10 8.04,36.13 8.14,36.17 8.22,36.23 8.31,36.29 8.37,36.38 8.43,36.47 8.46,36.57 8.49,36.67 8.49,36.78 8.48,36.88 8.44,36.98 8.40,37.08 8.34,37.16 8.27,37.25 8.18,37.30 8.09,37.36 7.98,37.38 7.88,37.41 7.78,37.40 7.67,37.38 7.57,37.34 7.48,37.30 7.40,37.23 7.32,37.15 7.27,37.06 7.22,36.97 7.20,36.86 7.18,36.76 7.20,36.65 7.21,36.55 7.26,36.45 7.31,36.36 7.39,36.28 7.46,36.21 7.56,36.17 7.66,36.12 7.66,36.12 7.65,36.12 9.23,35.47 10.80,34.82 11.68,33.44 12.55,32.06 13.15,29.83 13.74,27.59 13.87,24.79 14.00,21.98 13.64,19.27 13.28,16.56 12.52,14.16 11.75,11.75 10.27,10.31 8.79,8.86 7.29,7.43 5.79,6.00 4.27,4.66 2.75,3.33 1.13,2.03 -0.48,0.73 -0.56,0.66 -0.64,0.59 -0.70,0.50 -0.77,0.42 -0.81,0.32 -0.84,0.22 -0.86,0.11 -0.87,0.01 -0.86,-0.09 -0.85,-0.19 -0.82,-0.29 -0.78,-0.39 -0.72,-0.48 -0.66,-0.57 -0.58,-0.64 -0.51,-0.71 -0.41,-0.76 -0.32,-0.81 -0.22,-0.84 -0.11,-0.87 -0.01,-0.87 0.09,-0.87 0.19,-0.84 0.29,-0.82 0.39,-0.77 0.48,-0.73 0.48,-0.73 L 0.48,-0.73 Z"></path></g><g transform="translate(325.0169039407652 48.419033279232735) rotate(0 -1.5 4)" stroke="none"><path fill="#1e1e1e" d="M 0,0.72 Q 0,0.72 -0.83,1.14 -1.67,1.55 -2.61,2.53 -3.56,3.51 -3.81,4.27 -4.07,5.03 -4.20,5.64 -4.34,6.25 -3.35,6.38 -2.36,6.50 -1.74,6.05 -1.12,5.60 -0.86,4.73 -0.59,3.87 -1.46,3.83 -2.33,3.80 -2.71,4.22 -3.08,4.64 -3.24,4.68 -3.39,4.71 -3.55,4.71 -3.71,4.70 -3.86,4.66 -4.01,4.62 -4.15,4.54 -4.29,4.46 -4.40,4.35 -4.52,4.25 -4.61,4.11 -4.69,3.98 -4.74,3.83 -4.80,3.68 -4.81,3.52 -4.83,3.37 -4.80,3.21 -4.78,3.05 -4.72,2.91 -4.66,2.76 -4.56,2.63 -4.47,2.50 -4.35,2.40 -4.23,2.30 -4.09,2.23 -3.94,2.16 -3.07,2.35 -2.19,2.55 -1.47,2.20 -0.75,1.85 -0.25,2.12 0.23,2.39 -0.11,2.80 -0.46,3.20 0.92,3.34 2.30,3.48 2.41,3.47 2.52,3.47 2.62,3.49 2.72,3.52 2.81,3.58 2.90,3.64 2.96,3.72 3.03,3.81 3.07,3.91 3.10,4.01 3.10,4.11 3.10,4.22 3.07,4.32 3.04,4.42 2.97,4.51 2.91,4.59 2.82,4.65 2.74,4.71 2.63,4.74 2.53,4.77 2.43,4.77 2.32,4.76 2.22,4.73 2.12,4.69 2.04,4.62 1.96,4.55 1.90,4.46 1.85,4.37 1.82,4.27 1.80,4.16 1.81,4.06 1.82,3.95 1.86,3.86 1.91,3.76 1.98,3.68 2.05,3.60 2.14,3.55 2.24,3.50 2.34,3.48 2.45,3.46 2.55,3.48 2.66,3.50 2.75,3.54 2.84,3.59 2.92,3.67 2.99,3.75 3.04,3.84 3.08,3.94 3.10,4.04 3.11,4.15 3.09,4.25 3.07,4.36 3.01,4.45 2.96,4.54 2.88,4.61 2.80,4.68 2.70,4.72 2.60,4.76 2.60,4.76 2.60,4.76 0.16,4.92 -2.27,5.09 -2.68,4.14 -3.08,3.20 -2.86,2.41 -2.64,1.63 -2.07,1.03 -1.49,0.44 -0.40,0.16 0.68,-0.11 1.29,0.22 1.90,0.55 2.08,1.31 2.25,2.06 1.60,2.91 0.94,3.75 0.00,4.41 -0.93,5.06 -2.01,4.85 -3.08,4.64 -3.24,4.68 -3.39,4.71 -3.55,4.71 -3.71,4.70 -3.86,4.66 -4.01,4.62 -4.15,4.54 -4.29,4.46 -4.40,4.35 -4.52,4.25 -4.61,4.11 -4.69,3.98 -4.74,3.83 -4.80,3.68 -4.81,3.52 -4.83,3.37 -4.80,3.21 -4.78,3.05 -4.72,2.91 -4.66,2.76 -4.56,2.63 -4.47,2.50 -4.35,2.40 -4.23,2.30 -4.09,2.23 -3.94,2.16 -3.66,1.78 -3.39,1.40 -2.31,1.06 -1.23,0.72 -0.64,0.78 -0.04,0.84 0.62,1.11 1.28,1.38 1.70,2.02 2.12,2.67 2.10,3.57 2.08,4.46 1.78,5.51 1.48,6.56 0.87,7.26 0.25,7.96 -1.06,8.57 -2.38,9.18 -3.50,9.06 -4.62,8.95 -5.55,8.58 -6.48,8.20 -6.84,6.92 -7.19,5.64 -7.02,4.83 -6.85,4.02 -6.38,2.79 -5.91,1.57 -4.81,0.37 -3.71,-0.81 -2.74,-1.18 -1.77,-1.55 -0.88,-1.14 0,-0.72 0.08,-0.71 0.17,-0.70 0.25,-0.67 0.33,-0.64 0.40,-0.59 0.48,-0.54 0.53,-0.47 0.59,-0.41 0.63,-0.33 0.67,-0.25 0.69,-0.17 0.71,-0.08 0.71,0.00 0.71,0.08 0.69,0.17 0.67,0.25 0.63,0.33 0.59,0.41 0.53,0.47 0.48,0.54 0.40,0.59 0.33,0.64 0.25,0.67 0.17,0.70 0.08,0.71 -0.00,0.72 -0.00,0.72 L 0,0.72 Z"></path></g><g transform="translate(224.0169039407652 206.41903327923274) rotate(0 47 -74)" stroke="none"><path fill="#e03131" d="M -0.70,-0.23 Q -0.70,-0.23 -0.52,-1.13 -0.34,-2.03 0.07,-3.02 0.48,-4.01 1.29,-5.09 2.09,-6.16 2.97,-7.42 3.85,-8.68 5.39,-10.68 6.94,-12.68 8.72,-15.23 10.51,-17.78 12.45,-20.06 14.40,-22.34 16.06,-24.43 17.73,-26.52 19.32,-28.29 20.91,-30.07 22.11,-31.91 23.31,-33.75 24.74,-35.46 26.16,-37.18 27.31,-38.72 28.46,-40.27 29.80,-42.35 31.14,-44.43 32.61,-46.23 34.09,-48.04 35.23,-49.88 36.38,-51.73 37.45,-53.66 38.52,-55.59 39.84,-57.87 41.17,-60.15 42.32,-61.99 43.46,-63.83 44.52,-65.47 45.59,-67.12 46.61,-68.68 47.64,-70.24 48.63,-72.02 49.62,-73.80 50.92,-76.02 52.22,-78.24 53.35,-80.05 54.48,-81.86 55.22,-83.44 55.95,-85.02 56.55,-86.54 57.15,-88.07 58.00,-89.90 58.85,-91.74 59.82,-93.16 60.79,-94.58 61.44,-95.94 62.08,-97.31 62.66,-98.50 63.24,-99.69 63.77,-100.77 64.31,-101.85 65.13,-103.21 65.95,-104.56 66.57,-105.68 67.19,-106.80 67.74,-107.85 68.29,-108.90 69.44,-110.30 70.60,-111.70 71.32,-112.79 72.04,-113.88 72.64,-114.91 73.24,-115.95 73.89,-116.52 74.54,-117.09 75.24,-118.31 75.94,-119.53 76.25,-120.32 76.56,-121.10 77.04,-121.85 77.52,-122.59 78.32,-123.49 79.12,-124.40 79.69,-125.28 80.25,-126.16 80.83,-126.88 81.40,-127.61 81.88,-128.42 82.37,-129.23 82.86,-130.15 83.36,-131.08 83.90,-131.81 84.43,-132.54 84.57,-133.26 84.72,-133.98 85.45,-135.07 86.19,-136.17 86.42,-136.77 86.65,-137.36 87.11,-138.03 87.57,-138.70 88.10,-139.76 88.64,-140.81 89.07,-141.58 89.50,-142.34 90.08,-142.80 90.67,-143.26 90.78,-143.89 90.89,-144.51 92.08,-146.21 93.26,-147.91 93.32,-148.00 93.37,-148.09 93.45,-148.16 93.53,-148.23 93.62,-148.28 93.72,-148.32 93.83,-148.33 93.93,-148.34 94.04,-148.31 94.14,-148.29 94.23,-148.23 94.32,-148.17 94.39,-148.09 94.45,-148.01 94.49,-147.91 94.53,-147.81 94.53,-147.70 94.53,-147.60 94.50,-147.49 94.47,-147.39 94.41,-147.31 94.35,-147.22 94.26,-147.16 94.18,-147.10 94.07,-147.06 93.97,-147.03 93.87,-147.03 93.76,-147.04 93.66,-147.07 93.56,-147.11 93.48,-147.18 93.39,-147.24 93.34,-147.33 93.28,-147.42 93.25,-147.52 93.23,-147.63 93.24,-147.73 93.24,-147.84 93.29,-147.94 93.33,-148.03 93.40,-148.11 93.47,-148.19 93.56,-148.25 93.65,-148.30 93.76,-148.32 93.86,-148.34 93.97,-148.32 94.07,-148.31 94.17,-148.26 94.26,-148.22 94.34,-148.14 94.41,-148.07 94.46,-147.97 94.51,-147.88 94.52,-147.77 94.54,-147.67 94.52,-147.56 94.50,-147.46 94.50,-147.46 94.50,-147.46 93.67,-145.77 92.84,-144.09 92.73,-143.51 92.61,-142.94 91.90,-142.12 91.19,-141.30 90.44,-140.09 89.69,-138.88 89.45,-138.23 89.22,-137.57 88.86,-137.08 88.50,-136.59 88.17,-135.81 87.83,-135.03 87.24,-134.24 86.64,-133.45 86.36,-132.43 86.07,-131.41 85.60,-130.77 85.13,-130.12 84.61,-129.16 84.09,-128.20 83.53,-127.28 82.97,-126.36 82.45,-125.71 81.93,-125.06 81.28,-124.07 80.62,-123.07 79.91,-122.27 79.19,-121.48 78.80,-120.91 78.42,-120.35 78.04,-119.42 77.66,-118.50 76.75,-117.03 75.84,-115.57 75.39,-115.24 74.95,-114.92 74.33,-113.84 73.72,-112.76 72.93,-111.59 72.14,-110.41 71.10,-109.19 70.06,-107.96 69.50,-106.90 68.95,-105.83 68.31,-104.68 67.67,-103.52 66.89,-102.24 66.11,-100.96 65.58,-99.88 65.04,-98.80 64.47,-97.62 63.89,-96.44 63.17,-94.94 62.45,-93.44 61.56,-92.17 60.67,-90.89 59.85,-89.11 59.02,-87.33 58.40,-85.74 57.77,-84.16 56.98,-82.48 56.19,-80.80 55.07,-79.01 53.95,-77.22 52.67,-75.02 51.38,-72.83 50.35,-70.98 49.32,-69.14 48.30,-67.58 47.28,-66.03 46.22,-64.40 45.17,-62.76 44.04,-60.95 42.91,-59.13 41.60,-56.88 40.28,-54.62 39.19,-52.64 38.10,-50.66 36.87,-48.71 35.65,-46.76 34.24,-45.05 32.84,-43.33 31.46,-41.20 30.08,-39.07 28.90,-37.48 27.71,-35.88 26.36,-34.26 25.00,-32.64 23.71,-30.68 22.42,-28.73 20.86,-26.99 19.31,-25.26 17.62,-23.14 15.93,-21.03 14.04,-18.82 12.16,-16.62 10.34,-14.04 8.53,-11.45 7.01,-9.49 5.50,-7.53 4.59,-6.24 3.68,-4.94 2.99,-4.07 2.30,-3.20 1.89,-2.31 1.49,-1.41 1.09,-0.59 0.70,0.23 0.66,0.31 0.62,0.39 0.56,0.46 0.51,0.53 0.44,0.58 0.36,0.63 0.28,0.67 0.20,0.70 0.11,0.72 0.03,0.73 -0.05,0.73 -0.14,0.72 -0.23,0.69 -0.31,0.66 -0.39,0.61 -0.46,0.57 -0.52,0.50 -0.59,0.44 -0.63,0.36 -0.67,0.28 -0.70,0.20 -0.72,0.11 -0.73,0.02 -0.73,-0.05 -0.71,-0.14 -0.70,-0.23 -0.70,-0.23 L -0.70,-0.23 Z"></path></g><g transform="translate(283.0169039407652 136.41903327923274) rotate(0 5.5 6)" stroke="none"><path fill="#e03131" d="M 0.84,-0.16 Q 0.84,-0.16 1.55,1.18 2.27,2.53 2.68,4.27 3.08,6.00 3.28,8.01 3.47,10.03 3.81,11.27 4.15,12.51 4.32,13.78 4.49,15.04 4.55,15.25 4.60,15.46 4.61,15.67 4.61,15.88 4.56,16.08 4.51,16.28 4.42,16.47 4.32,16.65 4.19,16.81 4.05,16.96 3.88,17.08 3.71,17.20 3.52,17.28 3.33,17.35 3.12,17.38 2.92,17.41 2.71,17.39 2.50,17.36 2.31,17.29 2.12,17.22 1.94,17.10 1.77,16.99 1.63,16.83 1.49,16.68 1.40,16.50 1.30,16.32 1.25,16.12 1.19,15.91 0.68,14.11 0.17,12.30 -0.08,9.60 -0.34,6.90 -0.15,4.52 0.03,2.14 0.74,0.12 1.45,-1.89 2.12,-3.11 2.79,-4.33 3.96,-5.08 5.14,-5.83 6.75,-5.81 8.36,-5.80 10.36,-4.21 12.35,-2.61 12.40,-2.52 12.45,-2.43 12.47,-2.32 12.48,-2.22 12.47,-2.11 12.45,-2.01 12.40,-1.91 12.35,-1.82 12.28,-1.75 12.20,-1.67 12.10,-1.63 12.01,-1.58 11.90,-1.57 11.80,-1.56 11.69,-1.58 11.59,-1.60 11.50,-1.66 11.41,-1.71 11.34,-1.79 11.27,-1.87 11.23,-1.97 11.19,-2.07 11.18,-2.17 11.17,-2.28 11.20,-2.38 11.23,-2.49 11.29,-2.57 11.35,-2.66 11.43,-2.73 11.52,-2.79 11.62,-2.83 11.72,-2.86 11.82,-2.86 11.93,-2.86 12.03,-2.83 12.13,-2.79 12.22,-2.73 12.30,-2.67 12.36,-2.58 12.42,-2.49 12.45,-2.39 12.48,-2.29 12.47,-2.18 12.47,-2.08 12.43,-1.98 12.39,-1.88 12.32,-1.80 12.26,-1.71 12.16,-1.66 12.07,-1.60 11.97,-1.58 11.87,-1.56 11.76,-1.57 11.66,-1.58 11.56,-1.62 11.46,-1.67 11.38,-1.74 11.31,-1.81 11.31,-1.81 11.31,-1.81 9.68,-2.15 8.05,-2.48 6.79,-2.51 5.53,-2.53 5.07,-1.64 4.61,-0.74 4.00,0.85 3.40,2.45 3.21,4.53 3.03,6.60 3.23,8.99 3.44,11.38 4.02,13.42 4.60,15.46 4.61,15.67 4.61,15.88 4.56,16.08 4.51,16.28 4.42,16.47 4.32,16.65 4.19,16.81 4.05,16.96 3.88,17.08 3.71,17.20 3.52,17.28 3.33,17.35 3.12,17.38 2.92,17.41 2.71,17.39 2.50,17.36 2.31,17.29 2.12,17.22 1.94,17.10 1.77,16.99 1.63,16.84 1.49,16.68 1.40,16.50 1.30,16.32 1.25,16.12 1.19,15.92 1.12,15.71 1.04,15.51 0.91,14.45 0.77,13.39 0.39,11.87 0.00,10.35 -0.14,8.57 -0.30,6.78 -0.71,5.00 -1.12,3.21 -0.98,1.69 -0.84,0.16 -0.85,0.06 -0.85,-0.03 -0.84,-0.14 -0.82,-0.24 -0.78,-0.33 -0.74,-0.43 -0.68,-0.51 -0.61,-0.59 -0.53,-0.66 -0.45,-0.72 -0.36,-0.77 -0.26,-0.81 -0.16,-0.83 -0.06,-0.85 0.03,-0.85 0.14,-0.84 0.24,-0.81 0.34,-0.79 0.43,-0.73 0.51,-0.68 0.59,-0.61 0.66,-0.54 0.72,-0.45 0.77,-0.36 0.81,-0.26 0.84,-0.16 0.84,-0.16 L 0.84,-0.16 Z"></path></g><g transform="translate(334.0169039407652 25.419033279232735) rotate(0 -0.5 13)" stroke="none"><path fill="#1e1e1e" d="M 0.80,0 Q 0.80,0 1.24,1.72 1.67,3.44 1.67,5.62 1.68,7.79 1.39,10.80 1.09,13.82 0.98,17.03 0.86,20.24 0.80,21.91 0.73,23.58 0.55,23.71 0.37,23.84 0.34,23.99 0.32,24.15 0.25,24.30 0.19,24.45 0.10,24.58 0.00,24.71 -0.11,24.82 -0.24,24.92 -0.38,24.99 -0.53,25.06 -0.68,25.09 -0.84,25.13 -1.00,25.12 -1.16,25.12 -1.32,25.07 -1.48,25.03 -1.62,24.95 -1.76,24.87 -1.87,24.76 -1.99,24.65 -2.08,24.51 -2.17,24.38 -2.22,24.23 -2.27,24.07 -2.29,23.91 -2.30,23.75 -2.11,22.40 -1.92,21.04 -1.78,18.97 -1.65,16.91 -1.63,16.80 -1.62,16.70 -1.57,16.60 -1.52,16.51 -1.44,16.44 -1.36,16.36 -1.27,16.32 -1.17,16.27 -1.06,16.26 -0.96,16.25 -0.85,16.27 -0.75,16.29 -0.66,16.35 -0.57,16.40 -0.50,16.48 -0.43,16.57 -0.39,16.66 -0.35,16.76 -0.35,16.87 -0.34,16.97 -0.37,17.08 -0.40,17.18 -0.46,17.27 -0.51,17.36 -0.60,17.42 -0.68,17.48 -0.78,17.52 -0.88,17.55 -0.99,17.55 -1.10,17.55 -1.20,17.52 -1.30,17.49 -1.38,17.42 -1.47,17.36 -1.53,17.27 -1.59,17.18 -1.62,17.08 -1.65,16.98 -1.64,16.87 -1.63,16.77 -1.60,16.67 -1.56,16.57 -1.49,16.49 -1.42,16.41 -1.33,16.35 -1.24,16.30 -1.13,16.27 -1.03,16.25 -0.92,16.26 -0.82,16.27 -0.72,16.32 -0.63,16.36 -0.55,16.43 -0.47,16.51 -0.42,16.60 -0.37,16.69 -0.35,16.80 -0.34,16.90 -0.34,16.90 -0.34,16.90 -0.19,18.97 -0.05,21.03 0.15,22.43 0.37,23.84 0.34,23.99 0.32,24.15 0.25,24.30 0.19,24.45 0.10,24.58 0.00,24.71 -0.11,24.82 -0.24,24.92 -0.38,24.99 -0.53,25.06 -0.68,25.09 -0.84,25.13 -1.00,25.12 -1.16,25.12 -1.32,25.07 -1.48,25.03 -1.62,24.95 -1.76,24.87 -1.87,24.76 -1.99,24.65 -2.08,24.51 -2.17,24.38 -2.22,24.23 -2.27,24.07 -2.29,23.91 -2.30,23.75 -2.44,23.61 -2.58,23.47 -2.54,21.79 -2.50,20.11 -2.37,16.80 -2.24,13.49 -1.96,10.64 -1.68,7.79 -1.67,5.62 -1.67,3.44 -1.24,1.72 -0.80,0 -0.79,-0.09 -0.78,-0.19 -0.74,-0.28 -0.71,-0.37 -0.65,-0.45 -0.60,-0.53 -0.53,-0.59 -0.45,-0.66 -0.37,-0.70 -0.28,-0.75 -0.19,-0.77 -0.09,-0.79 0.00,-0.79 0.09,-0.79 0.19,-0.77 0.28,-0.75 0.37,-0.70 0.45,-0.66 0.53,-0.59 0.60,-0.53 0.65,-0.45 0.71,-0.37 0.74,-0.28 0.78,-0.19 0.79,-0.09 0.80,0.00 0.80,0.00 L 0.80,0 Z"></path></g><g transform="translate(334.0169039407652 26.419033279232735) rotate(0 4 4)" stroke="none"><path fill="#1e1e1e" d="M -0.74,0 Q -0.74,0 -1.01,-0.61 -1.29,-1.22 -0.93,-2.06 -0.57,-2.89 0.32,-3.62 1.22,-4.35 2.64,-4.68 4.06,-5.02 5.41,-4.80 6.76,-4.59 7.84,-3.73 8.92,-2.87 9.46,-1.14 10.01,0.58 9.89,2.30 9.77,4.03 9.04,5.51 8.32,6.99 7.33,7.98 6.33,8.98 5.30,9.69 4.26,10.39 2.46,11.10 0.65,11.80 0.64,11.90 0.62,12.01 0.57,12.10 0.52,12.19 0.44,12.26 0.36,12.34 0.26,12.38 0.16,12.42 0.06,12.43 -0.04,12.44 -0.14,12.42 -0.24,12.39 -0.33,12.34 -0.42,12.28 -0.49,12.20 -0.56,12.12 -0.60,12.02 -0.64,11.92 -0.64,11.81 -0.64,11.71 -0.61,11.61 -0.58,11.50 -0.52,11.42 -0.46,11.33 -0.38,11.27 -0.29,11.20 -0.19,11.17 -0.09,11.14 0.01,11.14 0.11,11.14 0.21,11.18 0.31,11.21 0.40,11.28 0.48,11.34 0.54,11.43 0.60,11.52 0.62,11.62 0.65,11.73 0.64,11.83 0.64,11.94 0.60,12.04 0.56,12.13 0.49,12.21 0.42,12.29 0.32,12.35 0.23,12.40 0.13,12.42 0.02,12.44 -0.07,12.43 -0.18,12.42 -0.27,12.37 -0.37,12.33 -0.44,12.25 -0.52,12.18 -0.57,12.08 -0.62,11.99 -0.63,11.88 -0.65,11.78 -0.65,11.78 -0.65,11.78 0.92,9.76 2.49,7.74 3.33,7.20 4.16,6.66 4.86,6.06 5.56,5.45 6.12,4.54 6.68,3.62 6.87,2.40 7.05,1.18 6.97,0.06 6.88,-1.06 6.48,-1.52 6.07,-1.97 5.29,-2.15 4.50,-2.33 3.61,-2.23 2.71,-2.12 2.00,-1.60 1.29,-1.07 1.01,-0.53 0.74,0 0.73,0.08 0.71,0.17 0.68,0.26 0.65,0.34 0.60,0.41 0.55,0.49 0.48,0.55 0.42,0.61 0.34,0.65 0.26,0.69 0.17,0.71 0.08,0.73 -0.00,0.73 -0.08,0.73 -0.17,0.71 -0.26,0.69 -0.34,0.65 -0.42,0.61 -0.48,0.55 -0.55,0.49 -0.60,0.41 -0.65,0.34 -0.68,0.26 -0.71,0.17 -0.73,0.08 -0.74,-0.00 -0.74,-0.00 L -0.74,0 Z"></path></g><g transform="translate(356.0169039407652 39.419033279232735) rotate(0 -4.5 6.5)" stroke="none"><path fill="#1e1e1e" d="M -0.52,0.52 Q -0.52,0.52 -1.38,0.25 -2.24,-0.00 -2.80,-0.09 -3.36,-0.19 -4.19,0.36 -5.03,0.93 -5.68,1.74 -6.33,2.55 -6.56,3.56 -6.78,4.56 -7.24,5.99 -7.70,7.42 -7.87,8.68 -8.04,9.94 -7.63,10.75 -7.21,11.55 -6.66,12.12 -6.10,12.69 -4.64,12.57 -3.19,12.46 -1.59,11.62 -0.00,10.79 0.09,10.75 0.19,10.72 0.30,10.72 0.40,10.72 0.50,10.75 0.61,10.79 0.69,10.85 0.77,10.91 0.83,11.00 0.90,11.09 0.92,11.19 0.95,11.29 0.95,11.40 0.94,11.51 0.90,11.60 0.86,11.70 0.80,11.78 0.73,11.87 0.64,11.92 0.55,11.98 0.44,12.00 0.34,12.02 0.23,12.01 0.13,12.00 0.03,11.96 -0.06,11.91 -0.13,11.84 -0.21,11.77 -0.26,11.67 -0.31,11.58 -0.33,11.48 -0.35,11.37 -0.33,11.27 -0.31,11.16 -0.26,11.07 -0.21,10.97 -0.14,10.90 -0.06,10.83 0.03,10.78 0.12,10.74 0.23,10.72 0.33,10.71 0.44,10.73 0.54,10.76 0.63,10.81 0.72,10.87 0.79,10.95 0.86,11.03 0.90,11.12 0.94,11.22 0.95,11.33 0.95,11.44 0.93,11.54 0.90,11.64 0.84,11.73 0.78,11.82 0.69,11.88 0.61,11.95 0.61,11.95 0.61,11.95 -0.94,12.80 -2.50,13.66 -3.94,14.68 -5.39,15.70 -6.80,15.32 -8.21,14.95 -9.22,13.92 -10.23,12.90 -10.81,11.31 -11.39,9.73 -11.17,8.06 -10.96,6.39 -10.51,4.99 -10.06,3.58 -9.52,1.99 -8.97,0.40 -7.80,-0.84 -6.63,-2.09 -5.81,-2.50 -4.99,-2.91 -4.05,-3.20 -3.12,-3.49 -2.32,-3.32 -1.52,-3.15 -0.78,-2.72 -0.05,-2.29 0.23,-1.40 0.52,-0.52 0.57,-0.45 0.63,-0.38 0.66,-0.30 0.70,-0.21 0.72,-0.13 0.73,-0.04 0.73,0.04 0.72,0.13 0.69,0.21 0.67,0.30 0.62,0.37 0.58,0.45 0.51,0.51 0.45,0.58 0.37,0.62 0.30,0.67 0.21,0.69 0.13,0.72 0.04,0.73 -0.04,0.73 -0.13,0.72 -0.21,0.70 -0.30,0.66 -0.38,0.63 -0.45,0.57 -0.52,0.52 -0.52,0.52 L -0.52,0.52 Z"></path></g><g transform="translate(362.0169039407652 41.419033279232735) rotate(0 1.5 5)" stroke="none"><path fill="#1e1e1e" d="M -0.27,-0.81 Q -0.27,-0.81 0.52,-1.29 1.32,-1.78 2.17,-1.91 3.03,-2.03 4.23,-1.43 5.43,-0.83 5.99,-0.13 6.55,0.57 6.83,2.19 7.11,3.82 7.16,5.11 7.21,6.40 6.57,7.53 5.93,8.66 4.98,9.43 4.03,10.21 2.34,10.86 0.64,11.52 -0.19,10.20 -1.02,8.87 -1.10,8.89 -1.18,8.91 -1.26,8.91 -1.34,8.91 -1.41,8.89 -1.49,8.87 -1.56,8.83 -1.63,8.80 -1.69,8.74 -1.75,8.69 -1.79,8.62 -1.84,8.56 -1.86,8.48 -1.89,8.41 -1.90,8.33 -1.91,8.25 -1.90,8.17 -1.89,8.10 -1.86,8.02 -1.83,7.95 -1.78,7.88 -1.74,7.82 -1.68,7.77 -1.62,7.71 -1.55,7.68 -1.48,7.64 -1.51,7.66 -1.55,7.67 -1.45,7.64 -1.35,7.61 -1.24,7.61 -1.14,7.61 -1.04,7.65 -0.94,7.68 -0.85,7.75 -0.77,7.81 -0.71,7.90 -0.65,7.99 -0.62,8.09 -0.60,8.20 -0.61,8.30 -0.61,8.41 -0.65,8.51 -0.69,8.60 -0.76,8.68 -0.83,8.76 -0.93,8.82 -1.02,8.87 -1.12,8.89 -1.23,8.91 -1.33,8.90 -1.44,8.89 -1.53,8.84 -1.63,8.80 -1.70,8.72 -1.78,8.65 -1.83,8.55 -1.88,8.46 -1.89,8.35 -1.91,8.25 -1.89,8.14 -1.87,8.04 -1.82,7.95 -1.77,7.85 -1.69,7.78 -1.61,7.71 -1.52,7.67 -1.42,7.62 -1.31,7.61 -1.21,7.60 -1.10,7.63 -1.00,7.65 -0.91,7.71 -0.82,7.76 -0.75,7.85 -0.68,7.93 -0.65,8.03 -0.61,8.13 -0.60,8.23 -0.60,8.34 -0.63,8.44 -0.66,8.54 -0.72,8.63 -0.78,8.72 -0.90,8.80 -1.02,8.87 -1.10,8.89 -1.18,8.91 -1.26,8.91 -1.34,8.91 -1.41,8.89 -1.49,8.87 -1.56,8.83 -1.63,8.80 -1.69,8.74 -1.75,8.69 -1.79,8.62 -1.84,8.56 -1.86,8.48 -1.89,8.41 -1.90,8.33 -1.91,8.25 -1.90,8.17 -1.89,8.10 -1.86,8.02 -1.83,7.95 -1.78,7.88 -1.74,7.82 -1.68,7.77 -1.62,7.71 -1.55,7.68 -1.48,7.64 -0.85,8.24 -0.23,8.85 1.06,8.40 2.35,7.95 3.02,7.49 3.68,7.03 4.13,6.60 4.58,6.18 4.51,5.15 4.43,4.13 4.23,2.71 4.03,1.29 3.08,0.96 2.12,0.63 1.19,0.72 0.27,0.81 0.16,0.83 0.06,0.85 -0.03,0.85 -0.13,0.84 -0.23,0.81 -0.33,0.78 -0.42,0.73 -0.51,0.68 -0.58,0.61 -0.66,0.54 -0.71,0.45 -0.77,0.36 -0.80,0.26 -0.84,0.17 -0.84,0.06 -0.85,-0.03 -0.84,-0.13 -0.82,-0.23 -0.78,-0.33 -0.74,-0.42 -0.68,-0.51 -0.61,-0.59 -0.53,-0.65 -0.45,-0.72 -0.36,-0.76 -0.27,-0.81 -0.27,-0.81 L -0.27,-0.81 Z"></path></g><g transform="translate(373.0169039407652 46.419033279232735) rotate(0 -1 1)" stroke="none"><path fill="#1e1e1e" d="M -0.51,0.51 Q -0.51,0.51 -1.34,0.22 -2.18,-0.07 -2.61,0.34 -3.05,0.76 -3.31,1.31 -3.57,1.86 -2.72,2.16 -1.86,2.45 0.21,2.49 2.30,2.52 2.40,2.51 2.51,2.49 2.61,2.51 2.72,2.53 2.81,2.59 2.90,2.64 2.97,2.72 3.04,2.80 3.09,2.89 3.13,2.99 3.14,3.10 3.15,3.20 3.12,3.31 3.10,3.41 3.04,3.50 2.98,3.59 2.90,3.65 2.82,3.72 2.72,3.76 2.62,3.80 2.51,3.80 2.41,3.80 2.30,3.77 2.20,3.74 2.12,3.68 2.03,3.62 1.97,3.53 1.91,3.44 1.87,3.34 1.84,3.24 1.84,3.14 1.85,3.03 1.88,2.93 1.92,2.83 1.99,2.75 2.05,2.66 2.14,2.61 2.23,2.55 2.33,2.52 2.44,2.50 2.54,2.50 2.65,2.51 2.75,2.55 2.84,2.60 2.92,2.67 3.00,2.74 3.06,2.83 3.11,2.92 3.13,3.03 3.15,3.13 3.13,3.24 3.12,3.34 3.07,3.44 3.03,3.53 2.95,3.61 2.88,3.68 2.78,3.73 2.69,3.78 2.69,3.78 2.69,3.78 0.08,4.34 -2.51,4.89 -3.62,4.62 -4.73,4.34 -5.47,3.45 -6.21,2.55 -6.24,1.64 -6.26,0.72 -6.04,-0.01 -5.82,-0.76 -5.34,-1.58 -4.86,-2.41 -4.26,-2.78 -3.66,-3.15 -2.61,-3.10 -1.57,-3.05 -0.84,-2.64 -0.11,-2.22 0.19,-1.37 0.51,-0.51 0.57,-0.44 0.62,-0.37 0.66,-0.29 0.69,-0.21 0.71,-0.13 0.72,-0.04 0.72,0.04 0.71,0.13 0.69,0.21 0.66,0.29 0.62,0.37 0.57,0.45 0.51,0.51 0.45,0.57 0.37,0.62 0.29,0.66 0.21,0.69 0.13,0.71 0.04,0.72 -0.04,0.72 -0.13,0.71 -0.21,0.69 -0.29,0.66 -0.37,0.62 -0.44,0.57 -0.51,0.51 -0.51,0.51 L -0.51,0.51 Z"></path></g><g transform="translate(385.0169039407652 48.419033279232735) rotate(0 -3 6)" stroke="none"><path fill="#1e1e1e" d="M 0.68,0.22 Q 0.68,0.22 0.48,2.08 0.29,3.93 -0.57,5.63 -1.44,7.33 -3.29,9.67 -5.14,12.01 -5.23,12.08 -5.31,12.15 -5.41,12.19 -5.50,12.23 -5.61,12.23 -5.72,12.24 -5.82,12.21 -5.92,12.18 -6.01,12.12 -6.10,12.06 -6.16,11.98 -6.23,11.89 -6.26,11.79 -6.29,11.69 -6.29,11.58 -6.29,11.48 -6.26,11.38 -6.22,11.28 -6.16,11.19 -6.10,11.11 -6.01,11.05 -5.92,10.99 -5.82,10.96 -5.71,10.93 -5.61,10.94 -5.50,10.94 -5.40,10.98 -5.31,11.02 -5.22,11.09 -5.14,11.16 -5.09,11.25 -5.03,11.34 -5.01,11.45 -4.99,11.55 -5.00,11.65 -5.01,11.76 -5.06,11.86 -5.10,11.95 -5.17,12.03 -5.25,12.11 -5.34,12.16 -5.44,12.21 -5.54,12.22 -5.65,12.24 -5.75,12.22 -5.86,12.21 -5.95,12.16 -6.04,12.11 -6.12,12.03 -6.19,11.95 -6.23,11.85 -6.28,11.76 -6.29,11.65 -6.30,11.55 -6.28,11.44 -6.25,11.34 -6.20,11.25 -6.14,11.16 -6.14,11.16 -6.14,11.16 -5.14,8.55 -4.13,5.95 -3.36,4.45 -2.59,2.96 -1.63,1.36 -0.68,-0.22 -0.64,-0.30 -0.60,-0.38 -0.55,-0.45 -0.49,-0.51 -0.42,-0.57 -0.36,-0.62 -0.28,-0.65 -0.20,-0.69 -0.11,-0.70 -0.02,-0.71 0.05,-0.71 0.14,-0.70 0.22,-0.67 0.30,-0.65 0.38,-0.60 0.45,-0.55 0.51,-0.49 0.57,-0.43 0.61,-0.35 0.66,-0.28 0.68,-0.19 0.71,-0.11 0.71,-0.02 0.71,0.05 0.70,0.14 0.68,0.22 0.68,0.22 L 0.68,0.22 Z"></path></g><g transform="translate(393.0169039407652 39.419033279232735) rotate(0 4 12.5)" stroke="none"><path fill="#1e1e1e" d="M 0.72,0 Q 0.72,0 0.98,0.84 1.24,1.69 1.78,2.99 2.31,4.28 2.94,4.99 3.57,5.69 4.40,5.48 5.24,5.27 5.62,4.49 6.00,3.72 6.54,2.78 7.08,1.83 7.64,1.07 8.21,0.30 8.43,-0.29 8.65,-0.89 8.75,-1.00 8.86,-1.11 8.99,-1.19 9.12,-1.27 9.26,-1.32 9.41,-1.37 9.56,-1.38 9.71,-1.40 9.86,-1.37 10.01,-1.35 10.15,-1.29 10.29,-1.23 10.42,-1.14 10.54,-1.05 10.64,-0.93 10.73,-0.81 10.80,-0.67 10.87,-0.53 10.90,-0.38 10.93,-0.23 10.92,-0.08 10.92,0.06 10.88,0.21 10.83,0.36 10.76,0.49 10.68,0.62 11.01,1.24 11.34,1.86 11.36,3.06 11.38,4.25 11.39,5.90 11.40,7.55 11.68,9.30 11.96,11.04 12.09,12.45 12.22,13.86 12.28,15.04 12.33,16.23 12.36,17.31 12.38,18.39 12.39,19.45 12.40,20.50 12.07,21.48 11.74,22.45 11.25,23.20 10.76,23.95 9.85,24.65 8.94,25.36 7.97,25.92 7.00,26.48 5.49,26.71 3.98,26.94 2.36,26.28 0.74,25.61 -0.89,24.76 -2.52,23.91 -2.61,23.85 -2.70,23.80 -2.76,23.71 -2.83,23.63 -2.87,23.53 -2.91,23.43 -2.91,23.33 -2.91,23.22 -2.88,23.12 -2.85,23.02 -2.79,22.93 -2.73,22.84 -2.64,22.78 -2.56,22.72 -2.46,22.69 -2.36,22.65 -2.25,22.66 -2.14,22.66 -2.04,22.69 -1.94,22.73 -1.86,22.80 -1.78,22.86 -1.72,22.95 -1.66,23.04 -1.63,23.14 -1.61,23.25 -1.62,23.35 -1.62,23.46 -1.67,23.56 -1.71,23.65 -1.78,23.73 -1.85,23.81 -1.94,23.87 -2.03,23.92 -2.14,23.94 -2.24,23.96 -2.35,23.95 -2.45,23.93 -2.55,23.89 -2.64,23.84 -2.72,23.77 -2.79,23.69 -2.84,23.60 -2.89,23.50 -2.90,23.40 -2.92,23.29 -2.90,23.19 -2.88,23.08 -2.83,22.99 -2.78,22.90 -2.70,22.82 -2.62,22.75 -2.52,22.71 -2.43,22.67 -2.32,22.66 -2.21,22.65 -2.11,22.67 -2.01,22.70 -2.01,22.70 -2.01,22.70 -0.32,23.25 1.36,23.80 2.53,24.10 3.69,24.40 4.66,24.19 5.63,23.98 6.44,23.51 7.26,23.03 7.85,22.66 8.44,22.28 9.00,21.37 9.56,20.45 9.55,19.45 9.54,18.45 9.52,17.40 9.50,16.35 9.45,15.23 9.40,14.11 9.28,12.80 9.17,11.48 8.87,9.53 8.57,7.57 8.56,5.93 8.56,4.29 8.54,3.16 8.53,2.02 8.51,1.46 8.50,0.90 8.57,0.00 8.65,-0.89 8.75,-1.00 8.86,-1.11 8.99,-1.19 9.12,-1.27 9.26,-1.32 9.41,-1.37 9.56,-1.38 9.71,-1.40 9.86,-1.37 10.01,-1.35 10.15,-1.29 10.29,-1.23 10.42,-1.14 10.54,-1.05 10.64,-0.93 10.73,-0.81 10.80,-0.67 10.87,-0.53 10.90,-0.38 10.93,-0.23 10.92,-0.08 10.92,0.06 10.88,0.21 10.83,0.36 10.76,0.49 10.68,0.62 10.45,1.20 10.23,1.78 9.74,2.42 9.25,3.07 8.67,4.10 8.08,5.12 7.17,6.28 6.26,7.44 5.08,7.75 3.90,8.07 2.95,7.80 2.00,7.54 0.99,6.38 -0.01,5.22 -0.63,3.49 -1.24,1.75 -0.98,0.87 -0.72,0 -0.71,-0.08 -0.70,-0.17 -0.67,-0.25 -0.64,-0.33 -0.59,-0.40 -0.54,-0.47 -0.47,-0.53 -0.41,-0.59 -0.33,-0.63 -0.25,-0.67 -0.17,-0.69 -0.08,-0.71 0.00,-0.71 0.08,-0.71 0.17,-0.69 0.25,-0.67 0.33,-0.63 0.41,-0.59 0.47,-0.53 0.54,-0.47 0.59,-0.40 0.64,-0.33 0.67,-0.25 0.70,-0.17 0.71,-0.08 0.72,0.00 0.72,0.00 L 0.72,0 Z"></path></g></svg>