<svg version="1.1" xmlns="http://www.w3.org/2000/svg" viewBox="0 0 520 362" width="520" height="362" filter="invert(93%) hue-rotate(180deg)" class="excalidraw-svg"><!-- svg-source:excalidraw --><metadata></metadata><defs><style class="style-fonts">
      </style></defs><rect x="0" y="0" width="520" height="362" fill="transparent"></rect><g stroke-linecap="round"><g transform="translate(14 25) rotate(0 246 -2.5)"><path d="M0 0 C82 -0.83, 410 -4.17, 492 -5 M0 0 C82 -0.83, 410 -4.17, 492 -5" stroke="#000000" stroke-width="0.5" fill="none"></path></g><g transform="translate(14 25) rotate(0 246 -2.5)"><path d="M0 0 L13.53 -6.48 L13.66 6.2 L0 0" stroke="none" stroke-width="0" fill="#000000" fill-rule="evenodd"></path><path d="M0 0 C4.67 -2.24, 9.35 -4.48, 13.53 -6.48 M0 0 C4.32 -2.07, 8.64 -4.14, 13.53 -6.48 M13.53 -6.48 C13.56 -3.83, 13.58 -1.18, 13.66 6.2 M13.53 -6.48 C13.58 -1.78, 13.62 2.91, 13.66 6.2 M13.66 6.2 C10.1 4.58, 6.53 2.97, 0 0 M13.66 6.2 C9.98 4.53, 6.3 2.86, 0 0 M0 0 C0 0, 0 0, 0 0 M0 0 C0 0, 0 0, 0 0" stroke="#000000" stroke-width="0.5" fill="none"></path></g><g transform="translate(14 25) rotate(0 246 -2.5)"><path d="M492 -5 L478.47 1.48 L478.34 -11.2 L492 -5" stroke="none" stroke-width="0" fill="#000000" fill-rule="evenodd"></path><path d="M492 -5 C487.33 -2.76, 482.65 -0.52, 478.47 1.48 M492 -5 C487.68 -2.93, 483.36 -0.86, 478.47 1.48 M478.47 1.48 C478.44 -1.17, 478.42 -3.82, 478.34 -11.2 M478.47 1.48 C478.42 -3.22, 478.38 -7.91, 478.34 -11.2 M478.34 -11.2 C481.9 -9.58, 485.47 -7.97, 492 -5 M478.34 -11.2 C482.02 -9.53, 485.7 -7.86, 492 -5 M492 -5 C492 -5, 492 -5, 492 -5 M492 -5 C492 -5, 492 -5, 492 -5" stroke="#000000" stroke-width="0.5" fill="none"></path></g></g><mask></mask><g stroke-linecap="round"><g transform="translate(10 172.5) rotate(0 246 -2.5)"><path d="M0 0 C82 -0.83, 410 -4.17, 492 -5 M0 0 C82 -0.83, 410 -4.17, 492 -5" stroke="#000000" stroke-width="0.5" fill="none"></path></g><g transform="translate(10 172.5) rotate(0 246 -2.5)"><path d="M0 0 L13.53 -6.48 L13.66 6.2 L0 0" stroke="none" stroke-width="0" fill="#000000" fill-rule="evenodd"></path><path d="M0 0 C4.26 -2.04, 8.53 -4.08, 13.53 -6.48 M0 0 C4.03 -1.93, 8.07 -3.86, 13.53 -6.48 M13.53 -6.48 C13.58 -1.88, 13.62 2.71, 13.66 6.2 M13.53 -6.48 C13.58 -1.42, 13.63 3.64, 13.66 6.2 M13.66 6.2 C9.46 4.3, 5.27 2.39, 0 0 M13.66 6.2 C8.85 4.02, 4.03 1.83, 0 0 M0 0 C0 0, 0 0, 0 0 M0 0 C0 0, 0 0, 0 0" stroke="#000000" stroke-width="0.5" fill="none"></path></g><g transform="translate(10 172.5) rotate(0 246 -2.5)"><path d="M492 -5 L478.47 1.48 L478.34 -11.2 L492 -5" stroke="none" stroke-width="0" fill="#000000" fill-rule="evenodd"></path><path d="M492 -5 C487.74 -2.96, 483.47 -0.92, 478.47 1.48 M492 -5 C487.97 -3.07, 483.93 -1.14, 478.47 1.48 M478.47 1.48 C478.42 -3.12, 478.38 -7.71, 478.34 -11.2 M478.47 1.48 C478.42 -3.58, 478.37 -8.64, 478.34 -11.2 M478.34 -11.2 C482.54 -9.3, 486.73 -7.39, 492 -5 M478.34 -11.2 C483.15 -9.02, 487.97 -6.83, 492 -5 M492 -5 C492 -5, 492 -5, 492 -5 M492 -5 C492 -5, 492 -5, 492 -5" stroke="#000000" stroke-width="0.5" fill="none"></path></g></g><mask></mask><g stroke-linecap="round"><g transform="translate(18 324.5) rotate(0 246 -2.5)"><path d="M0 0 C82 -0.83, 410 -4.17, 492 -5 M0 0 C82 -0.83, 410 -4.17, 492 -5" stroke="#000000" stroke-width="0.5" fill="none"></path></g><g transform="translate(18 324.5) rotate(0 246 -2.5)"><path d="M0 0 L13.53 -6.48 L13.66 6.2 L0 0" stroke="none" stroke-width="0" fill="#000000" fill-rule="evenodd"></path><path d="M0 0 C3.48 -1.67, 6.96 -3.33, 13.53 -6.48 M0 0 C3.36 -1.61, 6.73 -3.22, 13.53 -6.48 M13.53 -6.48 C13.57 -2.08, 13.62 2.32, 13.66 6.2 M13.53 -6.48 C13.57 -2.28, 13.61 1.91, 13.66 6.2 M13.66 6.2 C9.32 4.23, 4.98 2.26, 0 0 M13.66 6.2 C8.81 4, 3.96 1.8, 0 0 M0 0 C0 0, 0 0, 0 0 M0 0 C0 0, 0 0, 0 0" stroke="#000000" stroke-width="0.5" fill="none"></path></g><g transform="translate(18 324.5) rotate(0 246 -2.5)"><path d="M492 -5 L478.47 1.48 L478.34 -11.2 L492 -5" stroke="none" stroke-width="0" fill="#000000" fill-rule="evenodd"></path><path d="M492 -5 C488.52 -3.33, 485.04 -1.67, 478.47 1.48 M492 -5 C488.64 -3.39, 485.27 -1.78, 478.47 1.48 M478.47 1.48 C478.43 -2.92, 478.38 -7.32, 478.34 -11.2 M478.47 1.48 C478.43 -2.72, 478.39 -6.91, 478.34 -11.2 M478.34 -11.2 C482.68 -9.23, 487.02 -7.26, 492 -5 M478.34 -11.2 C483.19 -9, 488.04 -6.8, 492 -5 M492 -5 C492 -5, 492 -5, 492 -5 M492 -5 C492 -5, 492 -5, 492 -5" stroke="#000000" stroke-width="0.5" fill="none"></path></g></g><mask></mask><g transform="translate(248 10) rotate(0 -0.5 9)" stroke="none"><path fill="#000000" d="M 0.67,0 Q 0.67,0 0.95,2.01 1.23,4.02 0.94,6.39 0.64,8.76 0.19,12.54 -0.26,16.33 -0.28,16.43 -0.31,16.54 -0.36,16.63 -0.41,16.72 -0.49,16.79 -0.57,16.86 -0.67,16.90 -0.77,16.94 -0.88,16.95 -0.98,16.95 -1.09,16.92 -1.19,16.90 -1.28,16.84 -1.37,16.78 -1.43,16.70 -1.50,16.61 -1.53,16.51 -1.57,16.41 -1.57,16.30 -1.57,16.20 -1.53,16.10 -1.50,16.00 -1.44,15.91 -1.37,15.83 -1.29,15.77 -1.20,15.71 -1.10,15.68 -0.99,15.65 -0.89,15.65 -0.78,15.66 -0.68,15.69 -0.58,15.73 -0.50,15.80 -0.42,15.87 -0.37,15.96 -0.31,16.05 -0.29,16.15 -0.26,16.26 -0.27,16.36 -0.28,16.47 -0.33,16.57 -0.37,16.66 -0.44,16.74 -0.52,16.82 -0.61,16.87 -0.70,16.92 -0.81,16.94 -0.91,16.96 -1.02,16.94 -1.12,16.92 -1.22,16.87 -1.31,16.83 -1.38,16.75 -1.46,16.67 -1.50,16.58 -1.55,16.48 -1.56,16.37 -1.57,16.27 -1.57,16.27 -1.57,16.27 -1.68,12.36 -1.79,8.45 -1.51,6.24 -1.23,4.02 -0.95,2.01 -0.67,0 -0.66,-0.08 -0.65,-0.16 -0.63,-0.23 -0.60,-0.31 -0.55,-0.38 -0.50,-0.45 -0.44,-0.50 -0.38,-0.55 -0.31,-0.59 -0.24,-0.63 -0.16,-0.65 -0.08,-0.67 0.00,-0.67 0.08,-0.67 0.16,-0.65 0.24,-0.63 0.31,-0.59 0.38,-0.55 0.44,-0.50 0.50,-0.45 0.55,-0.38 0.60,-0.31 0.63,-0.23 0.65,-0.16 0.66,-0.08 0.67,0.00 0.67,0.00 L 0.67,0 Z"></path></g><g transform="translate(257 161) rotate(0 -1 9)" stroke="none"><path fill="#000000" d="M 0.84,0.14 Q 0.84,0.14 0.84,1.91 0.83,3.68 0.69,6.34 0.55,9.00 0.31,11.01 0.08,13.02 -0.53,15.13 -1.16,17.23 -1.20,17.33 -1.24,17.43 -1.30,17.51 -1.37,17.59 -1.46,17.65 -1.55,17.70 -1.66,17.72 -1.76,17.75 -1.87,17.74 -1.97,17.73 -2.07,17.68 -2.17,17.64 -2.24,17.56 -2.32,17.49 -2.37,17.40 -2.42,17.30 -2.44,17.20 -2.46,17.09 -2.44,16.99 -2.42,16.88 -2.37,16.79 -2.33,16.70 -2.25,16.62 -2.17,16.55 -2.08,16.50 -1.98,16.46 -1.87,16.45 -1.77,16.44 -1.66,16.46 -1.56,16.48 -1.47,16.54 -1.38,16.59 -1.31,16.67 -1.24,16.75 -1.20,16.85 -1.16,16.95 -1.15,17.05 -1.15,17.16 -1.18,17.26 -1.20,17.37 -1.26,17.45 -1.32,17.54 -1.41,17.61 -1.49,17.67 -1.59,17.71 -1.69,17.74 -1.80,17.74 -1.90,17.74 -2.00,17.71 -2.11,17.67 -2.19,17.61 -2.28,17.55 -2.34,17.46 -2.40,17.37 -2.42,17.27 -2.45,17.17 -2.45,17.06 -2.44,16.95 -2.44,16.95 -2.44,16.95 -2.18,14.96 -1.93,12.97 -2.06,10.92 -2.19,8.88 -2.08,6.04 -1.98,3.21 -1.41,1.53 -0.84,-0.14 -0.82,-0.24 -0.79,-0.34 -0.73,-0.43 -0.68,-0.52 -0.61,-0.59 -0.54,-0.66 -0.45,-0.72 -0.36,-0.77 -0.26,-0.81 -0.16,-0.84 -0.06,-0.85 0.03,-0.86 0.14,-0.84 0.24,-0.82 0.33,-0.78 0.43,-0.74 0.51,-0.68 0.59,-0.61 0.66,-0.53 0.72,-0.45 0.77,-0.36 0.81,-0.26 0.83,-0.16 0.85,-0.06 0.85,0.03 0.84,0.14 0.84,0.14 L 0.84,0.14 Z"></path></g><g transform="translate(258 188) rotate(0 0 5)" stroke="none"><path fill="#000000" d="M 0,0.73 Q 0,0.73 -0.84,0.99 -1.68,1.24 -2.04,1.84 -2.41,2.43 -2.79,3.80 -3.18,5.17 -3.05,6.42 -2.92,7.68 -2.37,8.65 -1.82,9.62 -1.10,10.26 -0.38,10.90 0.46,11.03 1.31,11.17 1.69,10.42 2.07,9.68 2.60,8.77 3.14,7.85 3.31,6.77 3.48,5.69 3.29,4.76 3.09,3.84 2.73,2.59 2.37,1.34 1.75,0.72 1.12,0.10 -0.14,-0.77 -1.41,-1.65 -1.49,-1.59 -1.58,-1.53 -1.68,-1.50 -1.79,-1.47 -1.89,-1.48 -2.00,-1.48 -2.10,-1.52 -2.20,-1.56 -2.28,-1.63 -2.36,-1.70 -2.41,-1.79 -2.47,-1.88 -2.49,-1.99 -2.51,-2.09 -2.50,-2.20 -2.49,-2.30 -2.44,-2.40 -2.40,-2.50 -2.33,-2.57 -2.25,-2.65 -2.16,-2.70 -2.07,-2.75 -1.96,-2.77 -1.86,-2.78 -1.75,-2.76 -1.65,-2.75 -1.55,-2.70 -1.46,-2.65 -1.39,-2.57 -1.31,-2.49 -1.27,-2.40 -1.22,-2.30 -1.21,-2.19 -1.20,-2.09 -1.22,-1.98 -1.25,-1.88 -1.30,-1.79 -1.36,-1.70 -1.44,-1.63 -1.52,-1.56 -1.62,-1.52 -1.72,-1.48 -1.82,-1.48 -1.93,-1.47 -2.03,-1.50 -2.13,-1.53 -2.22,-1.59 -2.31,-1.65 -2.37,-1.73 -2.44,-1.82 -2.47,-1.92 -2.50,-2.02 -2.50,-2.13 -2.50,-2.23 -2.47,-2.33 -2.44,-2.43 -2.37,-2.52 -2.31,-2.60 -2.31,-2.60 -2.31,-2.60 -0.38,-2.58 1.55,-2.55 2.29,-2.06 3.03,-1.57 3.87,-0.48 4.70,0.60 5.07,2.02 5.45,3.45 5.62,4.76 5.80,6.07 5.49,7.53 5.19,9.00 4.60,10.02 4.00,11.04 3.09,12.14 2.17,13.25 0.90,13.43 -0.36,13.61 -1.23,13.17 -2.09,12.73 -3.05,11.77 -4.02,10.81 -4.71,9.38 -5.41,7.95 -5.51,6.24 -5.61,4.54 -5.19,3.02 -4.76,1.50 -4.24,0.56 -3.72,-0.37 -2.74,-0.81 -1.76,-1.24 -0.88,-0.99 0,-0.73 0.08,-0.72 0.17,-0.71 0.25,-0.68 0.34,-0.65 0.41,-0.60 0.48,-0.55 0.54,-0.48 0.60,-0.41 0.64,-0.34 0.68,-0.26 0.71,-0.17 0.73,-0.08 0.73,0.00 0.73,0.08 0.71,0.17 0.68,0.26 0.64,0.34 0.60,0.41 0.54,0.48 0.48,0.55 0.41,0.60 0.34,0.65 0.25,0.68 0.17,0.71 0.08,0.72 -0.00,0.73 -0.00,0.73 L 0,0.73 Z"></path></g><g transform="translate(264 315) rotate(0 -1 4.5)" stroke="none"><path fill="#000000" d="M -0.54,0.54 Q -0.54,0.54 -1.34,0.19 -2.13,-0.16 -2.23,-0.29 -2.34,-0.42 -2.41,-0.58 -2.48,-0.73 -2.51,-0.90 -2.54,-1.06 -2.53,-1.23 -2.52,-1.40 -2.47,-1.56 -2.42,-1.72 -2.33,-1.86 -2.24,-2.00 -2.12,-2.12 -2.00,-2.24 -1.86,-2.33 -1.72,-2.42 -1.56,-2.47 -1.40,-2.52 -1.23,-2.53 -1.06,-2.54 -0.90,-2.51 -0.73,-2.48 -0.58,-2.41 -0.42,-2.34 -0.29,-2.23 -0.16,-2.13 -0.22,-0.76 -0.28,0.60 -0.34,1.53 -0.39,2.47 -0.44,4.05 -0.49,5.63 -0.91,7.83 -1.33,10.03 -1.35,10.13 -1.36,10.24 -1.41,10.33 -1.47,10.42 -1.54,10.49 -1.62,10.57 -1.72,10.61 -1.82,10.65 -1.92,10.66 -2.03,10.67 -2.13,10.65 -2.23,10.63 -2.32,10.57 -2.41,10.51 -2.48,10.43 -2.55,10.35 -2.59,10.25 -2.63,10.15 -2.63,10.05 -2.64,9.94 -2.61,9.84 -2.58,9.74 -2.52,9.65 -2.45,9.56 -2.37,9.50 -2.28,9.43 -2.18,9.40 -2.08,9.37 -1.98,9.37 -1.87,9.37 -1.77,9.41 -1.67,9.44 -1.58,9.51 -1.50,9.57 -1.44,9.66 -1.38,9.75 -1.36,9.85 -1.33,9.96 -1.34,10.06 -1.34,10.17 -1.38,10.27 -1.42,10.36 -1.49,10.44 -1.56,10.52 -1.66,10.58 -1.75,10.63 -1.85,10.65 -1.96,10.67 -2.06,10.66 -2.17,10.65 -2.26,10.60 -2.36,10.56 -2.43,10.48 -2.51,10.41 -2.56,10.31 -2.61,10.22 -2.62,10.12 -2.64,10.01 -2.64,10.01 -2.64,10.01 -3.00,7.78 -3.37,5.55 -3.33,3.87 -3.29,2.20 -2.71,1.01 -2.13,-0.16 -2.23,-0.29 -2.34,-0.42 -2.41,-0.58 -2.48,-0.73 -2.51,-0.90 -2.54,-1.06 -2.53,-1.23 -2.52,-1.40 -2.47,-1.56 -2.42,-1.72 -2.33,-1.86 -2.24,-2.00 -2.12,-2.12 -2.00,-2.24 -1.86,-2.33 -1.72,-2.42 -1.56,-2.47 -1.40,-2.52 -1.23,-2.53 -1.06,-2.54 -0.90,-2.51 -0.73,-2.48 -0.58,-2.41 -0.42,-2.34 -0.29,-2.23 -0.16,-2.13 0.19,-1.34 0.54,-0.54 0.60,-0.47 0.66,-0.39 0.69,-0.31 0.73,-0.22 0.75,-0.13 0.77,-0.04 0.76,0.04 0.75,0.13 0.73,0.22 0.70,0.31 0.65,0.39 0.60,0.47 0.54,0.54 0.47,0.60 0.39,0.65 0.31,0.70 0.22,0.73 0.13,0.75 0.04,0.76 -0.04,0.77 -0.13,0.75 -0.22,0.73 -0.31,0.69 -0.39,0.66 -0.47,0.60 -0.54,0.54 -0.54,0.54 L -0.54,0.54 Z"></path></g><g transform="translate(264 334) rotate(0 0.5 8.5)" stroke="none"><path fill="#000000" d="M 0,0.76 Q 0,0.76 -0.76,0.92 -1.53,1.08 -1.88,1.55 -2.22,2.01 -2.66,2.94 -3.09,3.87 -3.27,5.87 -3.45,7.88 -3.27,9.84 -3.08,11.81 -2.76,13.16 -2.43,14.51 -2.07,15.11 -1.72,15.71 -0.83,15.41 0.04,15.12 0.91,14.54 1.77,13.96 2.38,13.23 2.99,12.49 3.49,11.14 3.99,9.79 4.21,8.67 4.44,7.55 4.54,6.57 4.64,5.60 4.15,4.85 3.65,4.11 3.18,3.47 2.72,2.82 1.51,1.71 0.30,0.60 0.19,0.61 0.09,0.61 -0.00,0.58 -0.11,0.55 -0.19,0.49 -0.28,0.43 -0.35,0.35 -0.41,0.26 -0.44,0.16 -0.48,0.06 -0.48,-0.03 -0.48,-0.14 -0.44,-0.24 -0.41,-0.34 -0.34,-0.42 -0.28,-0.51 -0.19,-0.57 -0.10,-0.63 -0.00,-0.66 0.09,-0.68 0.20,-0.68 0.31,-0.67 0.40,-0.63 0.50,-0.59 0.58,-0.52 0.66,-0.45 0.72,-0.36 0.77,-0.27 0.80,-0.17 0.82,-0.06 0.81,0.03 0.79,0.14 0.75,0.23 0.70,0.33 0.63,0.41 0.56,0.48 0.46,0.53 0.37,0.58 0.26,0.60 0.16,0.62 0.05,0.60 -0.04,0.58 -0.13,0.53 -0.23,0.48 -0.30,0.40 -0.37,0.33 -0.42,0.23 -0.46,0.13 -0.47,0.03 -0.48,-0.07 -0.46,-0.17 -0.44,-0.28 -0.38,-0.37 -0.33,-0.46 -0.25,-0.53 -0.16,-0.59 -0.07,-0.63 0.02,-0.67 0.02,-0.67 0.02,-0.67 2.41,0.32 4.79,1.32 5.35,2.14 5.90,2.96 6.46,4.29 7.02,5.62 6.91,6.83 6.79,8.04 6.50,9.36 6.22,10.67 5.51,12.35 4.81,14.02 3.92,15.00 3.04,15.97 1.76,16.70 0.48,17.43 -0.97,17.51 -2.43,17.60 -3.54,16.38 -4.64,15.16 -5.05,13.59 -5.45,12.02 -5.64,9.82 -5.83,7.62 -5.53,5.23 -5.23,2.84 -4.53,1.56 -3.83,0.28 -2.87,-0.40 -1.91,-1.08 -0.95,-0.92 0,-0.76 0.09,-0.75 0.18,-0.73 0.26,-0.70 0.35,-0.67 0.42,-0.62 0.50,-0.57 0.56,-0.50 0.62,-0.43 0.66,-0.35 0.71,-0.27 0.73,-0.18 0.75,-0.09 0.75,0.00 0.75,0.09 0.73,0.18 0.71,0.27 0.66,0.35 0.62,0.43 0.56,0.50 0.50,0.57 0.42,0.62 0.35,0.67 0.26,0.70 0.18,0.73 0.09,0.75 -0.00,0.76 -0.00,0.76 L 0,0.76 Z"></path></g><g transform="translate(252 37) rotate(0 -1 7.5)" stroke="none"><path fill="#000000" d="M -0.16,0.67 Q -0.16,0.67 -1.32,0.63 -2.48,0.59 -3.51,1.01 -4.53,1.43 -5.44,2.60 -6.35,3.76 -6.72,5.27 -7.10,6.78 -7.29,8.56 -7.48,10.34 -7.29,11.87 -7.10,13.39 -7.07,14.34 -7.03,15.28 -5.11,15.40 -3.18,15.51 -1.95,14.81 -0.73,14.11 0.62,12.74 1.99,11.37 3.13,9.68 4.27,7.99 4.72,6.77 5.17,5.55 5.37,4.79 5.56,4.02 5.35,3.32 5.15,2.62 5.06,1.90 4.98,1.18 4.34,0.35 3.70,-0.47 3.27,-0.95 2.85,-1.42 1.74,-1.10 0.64,-0.79 0.60,-0.85 0.55,-0.91 0.52,-0.99 0.49,-1.06 0.48,-1.14 0.47,-1.22 0.48,-1.30 0.49,-1.38 0.51,-1.45 0.54,-1.53 0.59,-1.59 0.63,-1.66 0.69,-1.71 0.75,-1.76 0.82,-1.80 0.89,-1.84 0.96,-1.86 1.04,-1.88 1.12,-1.88 1.20,-1.88 1.27,-1.86 1.35,-1.84 1.42,-1.81 1.49,-1.77 1.55,-1.72 1.61,-1.67 1.59,-1.20 1.56,-0.74 1.48,-0.68 1.39,-0.62 1.28,-0.60 1.18,-0.57 1.07,-0.58 0.97,-0.59 0.87,-0.63 0.77,-0.67 0.69,-0.75 0.61,-0.82 0.56,-0.91 0.51,-1.00 0.49,-1.11 0.47,-1.21 0.49,-1.32 0.50,-1.42 0.55,-1.52 0.59,-1.61 0.67,-1.69 0.74,-1.76 0.84,-1.81 0.94,-1.86 1.04,-1.87 1.15,-1.88 1.25,-1.86 1.35,-1.84 1.45,-1.79 1.54,-1.74 1.61,-1.66 1.68,-1.58 1.72,-1.48 1.76,-1.38 1.77,-1.28 1.78,-1.17 1.76,-1.07 1.73,-0.97 1.67,-0.88 1.61,-0.79 1.53,-0.72 1.45,-0.66 1.35,-0.62 1.25,-0.58 1.14,-0.58 1.04,-0.58 0.94,-0.61 0.83,-0.64 0.75,-0.70 0.66,-0.76 0.60,-0.85 0.54,-0.94 0.51,-1.04 0.48,-1.14 0.48,-1.25 0.48,-1.35 0.52,-1.45 0.56,-1.55 0.60,-1.17 0.64,-0.79 0.60,-0.85 0.55,-0.91 0.52,-0.99 0.49,-1.06 0.48,-1.14 0.47,-1.22 0.48,-1.30 0.49,-1.38 0.51,-1.45 0.54,-1.52 0.59,-1.59 0.63,-1.66 0.69,-1.71 0.75,-1.76 0.82,-1.80 0.89,-1.84 0.96,-1.86 1.04,-1.88 1.12,-1.88 1.20,-1.88 1.27,-1.86 1.35,-1.84 1.42,-1.81 1.49,-1.77 1.55,-1.72 1.61,-1.67 3.07,-2.36 4.53,-3.05 5.04,-2.50 5.54,-1.94 6.02,-1.32 6.49,-0.71 6.87,0.06 7.26,0.84 7.34,1.49 7.42,2.15 7.60,3.32 7.78,4.49 7.54,5.43 7.30,6.37 6.72,7.81 6.14,9.25 4.86,11.11 3.57,12.97 1.94,14.54 0.30,16.11 -1.46,16.91 -3.23,17.72 -5.64,17.32 -8.06,16.92 -8.77,15.30 -9.47,13.68 -9.69,11.89 -9.90,10.09 -9.67,8.10 -9.45,6.12 -8.85,4.19 -8.25,2.26 -6.85,0.74 -5.46,-0.77 -3.79,-1.26 -2.11,-1.74 -0.97,-1.21 0.16,-0.67 0.24,-0.64 0.32,-0.61 0.39,-0.56 0.46,-0.52 0.51,-0.45 0.57,-0.39 0.61,-0.31 0.65,-0.24 0.67,-0.16 0.69,-0.08 0.69,0.00 0.69,0.08 0.67,0.16 0.65,0.24 0.61,0.32 0.57,0.39 0.51,0.46 0.46,0.52 0.39,0.57 0.32,0.61 0.24,0.64 0.16,0.67 0.08,0.68 -0.00,0.69 -0.08,0.68 -0.16,0.67 -0.16,0.67 L -0.16,0.67 Z"></path></g><g transform="translate(382 16) rotate(0 -0.5 6)" stroke="none"><path fill="#1971c2" d="M 0.25,0.76 Q 0.25,0.76 -0.47,1.20 -1.19,1.64 -1.60,2.43 -2.00,3.22 -2.54,4.17 -3.09,5.11 -3.27,6.21 -3.45,7.32 -3.60,8.29 -3.75,9.26 -3.39,9.71 -3.02,10.16 -2.19,10.33 -1.35,10.51 -0.55,10.38 0.23,10.24 0.74,9.71 1.25,9.19 1.76,8.43 2.28,7.68 2.45,6.89 2.62,6.11 2.70,5.52 2.79,4.93 2.23,4.20 1.67,3.47 1.15,3.11 0.63,2.75 0.02,3.13 -0.57,3.51 -0.92,4.06 -1.27,4.61 -1.40,5.29 -1.54,5.98 -1.69,6.96 -1.85,7.94 -1.30,8.31 -0.74,8.68 -0.24,8.24 0.25,7.80 0.75,7.15 1.25,6.49 1.73,5.41 2.22,4.32 2.44,3.72 2.66,3.11 2.19,2.75 1.73,2.39 1.19,3.04 0.65,3.68 0.70,4.90 0.75,6.11 1.27,6.44 1.79,6.78 2.26,6.04 2.74,5.30 2.80,4.69 2.86,4.08 2.35,3.29 1.83,2.49 1.20,2.81 0.57,3.14 0.14,3.79 -0.28,4.43 -0.43,5.42 -0.58,6.41 -0.42,7.28 -0.26,8.15 0.40,7.41 1.07,6.67 1.33,6.11 1.58,5.55 1.69,4.91 1.80,4.28 1.10,5.47 0.41,6.65 1.64,7.45 2.88,8.24 2.97,8.29 3.06,8.35 3.13,8.43 3.19,8.51 3.23,8.61 3.27,8.71 3.28,8.82 3.28,8.92 3.25,9.02 3.23,9.13 3.17,9.21 3.11,9.30 3.02,9.37 2.94,9.43 2.83,9.46 2.73,9.50 2.63,9.50 2.52,9.50 2.42,9.46 2.32,9.43 2.24,9.36 2.15,9.30 2.09,9.21 2.03,9.12 2.01,9.02 1.98,8.92 1.98,8.81 1.99,8.70 2.03,8.61 2.07,8.51 2.14,8.43 2.21,8.35 2.30,8.29 2.39,8.24 2.49,8.21 2.60,8.19 2.70,8.20 2.81,8.22 2.91,8.26 3.00,8.31 3.08,8.38 3.16,8.45 3.20,8.55 3.25,8.64 3.27,8.75 3.29,8.85 3.27,8.96 3.25,9.06 3.20,9.15 3.15,9.25 3.07,9.32 3.00,9.39 2.90,9.44 2.80,9.48 2.70,9.49 2.59,9.50 2.49,9.48 2.38,9.46 2.38,9.46 2.38,9.46 0.59,8.48 -1.20,7.51 -0.82,5.66 -0.43,3.81 0.10,3.31 0.64,2.81 1.58,2.74 2.52,2.67 3.15,3.46 3.79,4.25 3.62,5.34 3.45,6.42 3.05,7.21 2.66,7.99 1.67,9.04 0.68,10.09 -0.05,10.14 -0.80,10.19 -1.54,9.41 -2.29,8.64 -2.51,7.34 -2.72,6.05 -2.41,4.65 -2.10,3.26 -1.44,2.35 -0.79,1.45 0.09,0.92 0.98,0.39 2.15,0.76 3.31,1.13 3.80,1.84 4.29,2.54 4.55,3.39 4.81,4.23 4.65,5.19 4.50,6.16 4.13,6.81 3.76,7.46 2.89,8.04 2.03,8.62 0.87,8.33 -0.27,8.03 -0.81,7.32 -1.34,6.61 -1.55,5.23 -1.77,3.84 -1.48,3.09 -1.20,2.34 -0.51,1.51 0.17,0.68 0.99,0.44 1.81,0.20 2.58,0.54 3.34,0.87 3.78,1.42 4.22,1.96 4.43,2.60 4.64,3.23 4.38,4.21 4.13,5.20 3.51,6.50 2.90,7.80 2.15,8.71 1.40,9.61 0.31,10.13 -0.77,10.65 -1.65,10.33 -2.54,10.02 -3.20,9.21 -3.86,8.40 -3.83,6.91 -3.80,5.42 -3.49,4.35 -3.19,3.29 -2.50,2.41 -1.81,1.54 -1.04,1.15 -0.28,0.75 0.63,0.75 1.55,0.76 2.51,1.43 3.47,2.10 3.92,2.76 4.36,3.42 4.62,4.25 4.88,5.09 4.75,5.87 4.62,6.65 4.28,7.73 3.95,8.81 3.27,9.75 2.59,10.69 1.64,11.44 0.69,12.19 -0.58,12.36 -1.86,12.52 -3.20,12.05 -4.54,11.57 -5.24,10.49 -5.94,9.41 -5.88,8.14 -5.83,6.87 -5.53,5.41 -5.23,3.94 -4.64,2.90 -4.06,1.86 -3.15,0.68 -2.25,-0.49 -1.25,-0.62 -0.25,-0.76 -0.15,-0.78 -0.06,-0.79 0.03,-0.79 0.12,-0.79 0.22,-0.76 0.31,-0.73 0.39,-0.68 0.48,-0.64 0.55,-0.57 0.62,-0.50 0.67,-0.42 0.72,-0.34 0.75,-0.25 0.78,-0.16 0.79,-0.06 0.80,0.03 0.78,0.12 0.77,0.22 0.73,0.31 0.69,0.40 0.63,0.47 0.57,0.55 0.50,0.61 0.42,0.67 0.34,0.71 0.25,0.76 0.25,0.76 L 0.25,0.76 Z"></path></g><g transform="translate(362 44) rotate(0 1 6.5)" stroke="none"><path fill="#1971c2" d="M 0,-0.72 Q 0,-0.72 0.86,-0.91 1.72,-1.09 2.37,-1.10 3.03,-1.10 3.72,-1.04 4.42,-0.98 5.23,-0.29 6.04,0.40 6.63,1.30 7.22,2.20 7.51,3.30 7.80,4.41 7.62,5.60 7.43,6.80 7.35,7.48 7.26,8.16 6.53,9.31 5.80,10.45 4.76,10.99 3.71,11.54 2.80,11.98 1.89,12.42 0.92,12.90 -0.04,13.38 -1.17,13.63 -2.29,13.88 -3.01,13.94 -3.72,13.99 -3.86,14.01 -3.99,14.02 -4.13,14.00 -4.27,13.97 -4.40,13.92 -4.52,13.86 -4.64,13.78 -4.75,13.70 -4.83,13.59 -4.92,13.48 -4.98,13.36 -5.04,13.23 -5.07,13.10 -5.10,12.96 -5.09,12.82 -5.09,12.68 -5.05,12.55 -5.01,12.42 -4.94,12.30 -4.87,12.18 -4.77,12.08 -4.68,11.98 -4.56,11.90 -4.44,11.83 -4.31,11.78 -4.18,11.74 -3.47,10.83 -2.77,9.91 -2.69,9.84 -2.61,9.77 -2.51,9.73 -2.42,9.68 -2.31,9.67 -2.20,9.66 -2.10,9.69 -2.00,9.71 -1.91,9.77 -1.82,9.82 -1.75,9.91 -1.68,9.99 -1.64,10.09 -1.61,10.19 -1.60,10.29 -1.60,10.40 -1.63,10.50 -1.66,10.60 -1.72,10.69 -1.78,10.78 -1.86,10.84 -1.95,10.90 -2.05,10.94 -2.15,10.97 -2.26,10.97 -2.36,10.97 -2.46,10.93 -2.56,10.90 -2.65,10.83 -2.73,10.76 -2.79,10.68 -2.85,10.59 -2.88,10.48 -2.90,10.38 -2.90,10.28 -2.89,10.17 -2.85,10.07 -2.81,9.97 -2.74,9.89 -2.67,9.81 -2.57,9.76 -2.48,9.71 -2.38,9.68 -2.28,9.66 -2.17,9.68 -2.06,9.69 -1.97,9.74 -1.87,9.78 -1.80,9.86 -1.72,9.93 -1.67,10.02 -1.62,10.12 -1.61,10.22 -1.59,10.33 -1.61,10.43 -1.63,10.54 -1.68,10.63 -1.73,10.72 -1.73,10.72 -1.73,10.72 -2.73,12.36 -3.72,13.99 -3.86,14.01 -3.99,14.02 -4.13,14.00 -4.27,13.97 -4.40,13.92 -4.52,13.86 -4.63,13.78 -4.75,13.70 -4.83,13.59 -4.92,13.48 -4.98,13.36 -5.04,13.23 -5.07,13.10 -5.10,12.96 -5.09,12.82 -5.09,12.68 -5.05,12.55 -5.01,12.42 -4.94,12.30 -4.87,12.18 -4.77,12.08 -4.68,11.98 -4.56,11.90 -4.44,11.83 -4.31,11.78 -4.18,11.74 -3.48,11.63 -2.78,11.51 -1.93,11.36 -1.08,11.21 -0.11,10.73 0.85,10.26 1.80,9.81 2.74,9.36 3.37,9.16 3.99,8.97 4.48,8.36 4.97,7.76 5.05,7.05 5.13,6.33 5.34,5.59 5.54,4.85 5.40,4.11 5.26,3.37 4.83,2.63 4.39,1.89 3.71,1.50 3.03,1.10 2.37,1.10 1.72,1.09 0.86,0.91 0,0.72 -0.08,0.71 -0.17,0.70 -0.25,0.67 -0.33,0.64 -0.40,0.59 -0.47,0.54 -0.53,0.47 -0.59,0.41 -0.63,0.33 -0.67,0.25 -0.69,0.17 -0.71,0.08 -0.71,-0.00 -0.71,-0.08 -0.69,-0.17 -0.67,-0.25 -0.63,-0.33 -0.59,-0.41 -0.53,-0.47 -0.47,-0.54 -0.40,-0.59 -0.33,-0.64 -0.25,-0.67 -0.17,-0.70 -0.08,-0.71 0.00,-0.72 0.00,-0.72 L 0,-0.72 Z"></path></g><g transform="translate(377 47) rotate(0 -5 3.5)" stroke="none"><path fill="#1971c2" d="M -0.33,0.66 Q -0.33,0.66 -1.60,0.34 -2.88,0.02 -3.41,-0.18 -3.95,-0.40 -4.46,0.02 -4.97,0.44 -5.99,2.16 -7.01,3.88 -7.49,5.02 -7.96,6.16 -5.14,6.72 -2.33,7.28 -2.22,7.31 -2.12,7.33 -2.03,7.38 -1.93,7.43 -1.86,7.51 -1.79,7.59 -1.75,7.69 -1.71,7.79 -1.71,7.90 -1.70,8.00 -1.73,8.11 -1.75,8.21 -1.81,8.30 -1.87,8.39 -1.95,8.45 -2.04,8.52 -2.14,8.55 -2.24,8.59 -2.34,8.59 -2.45,8.59 -2.55,8.56 -2.65,8.53 -2.74,8.46 -2.82,8.40 -2.88,8.31 -2.94,8.22 -2.97,8.12 -3.00,8.02 -3.00,7.91 -3.00,7.81 -2.96,7.71 -2.92,7.61 -2.85,7.53 -2.78,7.45 -2.69,7.39 -2.60,7.33 -2.50,7.31 -2.40,7.29 -2.29,7.30 -2.19,7.31 -2.09,7.35 -1.99,7.39 -1.91,7.46 -1.84,7.54 -1.78,7.63 -1.73,7.72 -1.71,7.83 -1.70,7.93 -1.71,8.04 -1.73,8.14 -1.78,8.24 -1.82,8.33 -1.90,8.40 -1.98,8.48 -2.07,8.53 -2.17,8.57 -2.27,8.58 -2.38,8.60 -2.38,8.60 -2.38,8.60 -5.70,8.61 -9.02,8.63 -9.74,7.17 -10.46,5.71 -9.88,4.07 -9.29,2.42 -7.82,0.29 -6.35,-1.83 -5.05,-2.35 -3.75,-2.87 -2.73,-2.59 -1.71,-2.32 -0.69,-1.49 0.33,-0.66 0.40,-0.61 0.48,-0.56 0.54,-0.49 0.60,-0.43 0.64,-0.35 0.68,-0.27 0.71,-0.18 0.73,-0.10 0.73,-0.01 0.73,0.07 0.71,0.16 0.69,0.24 0.65,0.32 0.61,0.40 0.55,0.47 0.50,0.54 0.42,0.59 0.35,0.64 0.27,0.68 0.19,0.71 0.10,0.72 0.01,0.74 -0.07,0.73 -0.16,0.72 -0.24,0.69 -0.33,0.66 -0.33,0.66 L -0.33,0.66 Z"></path></g><g transform="translate(384 47) rotate(0 5 -0.5)" stroke="none"><path fill="#1971c2" d="M -0.20,-0.80 Q -0.20,-0.80 0.89,-1.29 2.00,-1.77 3.14,-1.91 4.28,-2.04 6.90,-1.42 9.53,-0.80 9.62,-0.75 9.72,-0.71 9.80,-0.64 9.88,-0.57 9.93,-0.47 9.98,-0.38 10.00,-0.28 10.02,-0.17 10.00,-0.07 9.98,0.03 9.94,0.12 9.89,0.22 9.81,0.29 9.74,0.37 9.64,0.41 9.54,0.46 9.44,0.47 9.33,0.48 9.23,0.46 9.13,0.44 9.03,0.39 8.94,0.33 8.87,0.25 8.80,0.17 8.76,0.08 8.72,-0.01 8.71,-0.12 8.71,-0.22 8.73,-0.33 8.76,-0.43 8.82,-0.52 8.88,-0.61 8.96,-0.67 9.04,-0.74 9.14,-0.77 9.24,-0.81 9.35,-0.81 9.46,-0.81 9.56,-0.78 9.66,-0.75 9.74,-0.68 9.83,-0.62 9.89,-0.53 9.95,-0.45 9.98,-0.34 10.01,-0.24 10.01,-0.14 10.00,-0.03 9.96,0.06 9.93,0.16 9.86,0.24 9.79,0.32 9.70,0.38 9.61,0.43 9.51,0.46 9.40,0.48 9.30,0.47 9.19,0.46 9.19,0.46 9.19,0.46 6.88,0.43 4.56,0.40 3.58,0.51 2.59,0.62 1.40,0.71 0.20,0.80 0.10,0.81 0.00,0.83 -0.09,0.81 -0.19,0.80 -0.29,0.77 -0.38,0.73 -0.46,0.68 -0.54,0.62 -0.61,0.54 -0.68,0.47 -0.72,0.38 -0.77,0.29 -0.80,0.20 -0.82,0.10 -0.82,0.00 -0.82,-0.09 -0.80,-0.19 -0.77,-0.29 -0.73,-0.38 -0.68,-0.46 -0.61,-0.54 -0.55,-0.62 -0.47,-0.67 -0.38,-0.73 -0.29,-0.77 -0.20,-0.80 -0.20,-0.80 L -0.20,-0.80 Z"></path></g><g transform="translate(384 58) rotate(0 4 -1)" stroke="none"><path fill="#1971c2" d="M -0.36,-0.72 Q -0.36,-0.72 0.12,-1.18 0.61,-1.63 1.44,-2.05 2.26,-2.46 4.80,-2.53 7.34,-2.60 7.44,-2.59 7.55,-2.58 7.65,-2.54 7.74,-2.50 7.82,-2.43 7.90,-2.36 7.95,-2.26 8.00,-2.17 8.02,-2.07 8.04,-1.96 8.03,-1.86 8.01,-1.75 7.97,-1.66 7.92,-1.56 7.84,-1.49 7.77,-1.41 7.67,-1.37 7.58,-1.32 7.47,-1.31 7.37,-1.29 7.26,-1.31 7.16,-1.33 7.07,-1.39 6.97,-1.44 6.90,-1.52 6.83,-1.60 6.79,-1.70 6.75,-1.79 6.74,-1.90 6.73,-2.01 6.76,-2.11 6.79,-2.21 6.84,-2.30 6.90,-2.39 6.98,-2.46 7.07,-2.52 7.17,-2.56 7.27,-2.59 7.37,-2.60 7.48,-2.60 7.58,-2.57 7.68,-2.54 7.77,-2.47 7.85,-2.41 7.92,-2.32 7.98,-2.24 8.01,-2.14 8.04,-2.03 8.03,-1.93 8.03,-1.82 7.99,-1.72 7.96,-1.62 7.89,-1.54 7.82,-1.46 7.73,-1.40 7.64,-1.34 7.54,-1.32 7.44,-1.29 7.44,-1.29 7.44,-1.29 5.37,-0.81 3.30,-0.32 2.49,0.08 1.68,0.48 1.02,0.60 0.36,0.72 0.27,0.76 0.17,0.79 0.08,0.80 -0.01,0.81 -0.11,0.80 -0.21,0.78 -0.30,0.75 -0.39,0.71 -0.47,0.65 -0.55,0.60 -0.61,0.52 -0.68,0.45 -0.72,0.36 -0.76,0.27 -0.79,0.17 -0.81,0.08 -0.80,-0.01 -0.80,-0.11 -0.78,-0.20 -0.75,-0.30 -0.70,-0.39 -0.66,-0.47 -0.59,-0.54 -0.52,-0.62 -0.44,-0.67 -0.36,-0.72 -0.36,-0.72 L -0.36,-0.72 Z"></path></g><g transform="translate(404 46) rotate(0 0.5 7.5)" stroke="none"><path fill="#1971c2" d="M -0.33,-0.67 Q -0.33,-0.67 0.17,-1.10 0.69,-1.52 1.65,-1.71 2.62,-1.89 3.45,-1.91 4.27,-1.93 4.81,-1.59 5.34,-1.25 5.80,-1.14 6.26,-1.04 6.36,-0.92 6.45,-0.81 6.51,-0.67 6.57,-0.54 6.60,-0.39 6.63,-0.25 6.62,-0.10 6.61,0.04 6.57,0.18 6.53,0.32 6.45,0.45 6.38,0.58 6.27,0.68 6.17,0.79 6.04,0.87 5.92,0.95 5.77,0.99 5.63,1.04 5.48,1.05 5.34,1.06 5.19,1.03 5.04,1.01 4.91,0.95 4.77,0.89 4.66,0.80 4.54,0.71 5.33,0.93 6.12,1.16 5.55,1.55 4.98,1.94 4.30,2.28 3.61,2.62 2.50,3.31 1.39,4.01 0.67,4.56 -0.05,5.11 -0.41,5.64 -0.76,6.17 -0.89,6.24 -1.02,6.32 -1.16,6.36 -1.30,6.40 -1.45,6.41 -1.60,6.41 -1.74,6.39 -1.88,6.36 -2.02,6.29 -2.15,6.23 -2.27,6.14 -2.38,6.05 -2.47,5.93 -2.56,5.81 -2.62,5.68 -2.67,5.54 -2.70,5.40 -2.72,5.25 -2.71,5.10 -2.70,4.96 -2.65,4.82 -2.61,4.68 -2.53,4.55 -2.45,4.43 -2.35,4.33 -2.24,4.22 -1.16,4.40 -0.08,4.57 1.12,4.97 2.33,5.38 3.08,5.88 3.82,6.39 4.26,7.04 4.69,7.69 5.08,8.30 5.48,8.91 5.45,9.74 5.41,10.56 5.03,11.48 4.64,12.39 3.77,13.23 2.89,14.06 1.58,14.71 0.28,15.35 -1.99,15.92 -4.27,16.49 -4.37,16.50 -4.48,16.51 -4.58,16.48 -4.69,16.46 -4.78,16.40 -4.87,16.34 -4.93,16.26 -5.00,16.18 -5.03,16.08 -5.07,15.98 -5.07,15.87 -5.07,15.76 -5.04,15.66 -5.01,15.56 -4.95,15.48 -4.89,15.39 -4.80,15.33 -4.71,15.27 -4.61,15.24 -4.51,15.20 -4.40,15.21 -4.30,15.21 -4.20,15.25 -4.10,15.29 -4.02,15.35 -3.93,15.42 -3.88,15.51 -3.82,15.60 -3.79,15.70 -3.77,15.81 -3.78,15.91 -3.79,16.02 -3.83,16.11 -3.87,16.21 -3.94,16.29 -4.02,16.37 -4.11,16.42 -4.20,16.47 -4.31,16.49 -4.41,16.51 -4.51,16.50 -4.62,16.48 -4.71,16.43 -4.81,16.39 -4.88,16.31 -4.96,16.24 -5.01,16.14 -5.05,16.05 -5.07,15.94 -5.08,15.83 -5.06,15.73 -5.04,15.63 -4.99,15.53 -4.93,15.44 -4.86,15.37 -4.78,15.30 -4.68,15.26 -4.58,15.22 -4.58,15.22 -4.58,15.22 -2.70,14.11 -0.82,13.01 0.19,12.55 1.22,12.09 1.78,11.69 2.35,11.28 2.84,10.46 3.33,9.64 2.84,8.99 2.34,8.33 1.85,7.99 1.36,7.64 0.70,7.35 0.04,7.05 -0.35,6.61 -0.76,6.17 -0.89,6.24 -1.02,6.32 -1.16,6.36 -1.30,6.40 -1.45,6.41 -1.60,6.41 -1.74,6.39 -1.88,6.36 -2.02,6.29 -2.15,6.23 -2.27,6.14 -2.38,6.05 -2.47,5.93 -2.56,5.81 -2.62,5.68 -2.67,5.54 -2.70,5.40 -2.72,5.25 -2.71,5.10 -2.70,4.96 -2.65,4.82 -2.61,4.68 -2.53,4.55 -2.45,4.43 -2.35,4.33 -2.24,4.22 -1.93,3.67 -1.63,3.13 -0.78,2.49 0.05,1.85 1.28,1.09 2.50,0.34 3.36,0.09 4.21,-0.15 5.24,-0.59 6.26,-1.04 6.36,-0.92 6.45,-0.81 6.51,-0.67 6.57,-0.54 6.60,-0.39 6.63,-0.25 6.62,-0.10 6.61,0.04 6.57,0.18 6.53,0.32 6.45,0.45 6.38,0.58 6.27,0.68 6.17,0.79 6.04,0.87 5.92,0.95 5.77,0.99 5.63,1.04 5.48,1.05 5.34,1.06 5.19,1.03 5.04,1.01 4.91,0.95 4.77,0.89 4.66,0.80 4.54,0.71 3.74,0.48 2.94,0.25 2.27,0.31 1.60,0.37 0.97,0.52 0.33,0.67 0.25,0.70 0.16,0.73 0.07,0.74 -0.01,0.75 -0.10,0.73 -0.19,0.72 -0.27,0.69 -0.36,0.65 -0.43,0.60 -0.50,0.55 -0.56,0.48 -0.62,0.41 -0.66,0.33 -0.70,0.25 -0.72,0.16 -0.74,0.07 -0.74,-0.01 -0.74,-0.10 -0.72,-0.19 -0.69,-0.28 -0.65,-0.35 -0.60,-0.43 -0.54,-0.50 -0.48,-0.57 -0.41,-0.62 -0.33,-0.67 -0.33,-0.67 L -0.33,-0.67 Z"></path></g><g transform="translate(168 170) rotate(0 -2 2)" stroke="none"><path fill="#1971c2" d="M -0.32,0.64 Q -0.32,0.64 -0.54,0.59 -0.77,0.55 -1.30,1.24 -1.82,1.93 -2.32,2.92 -2.82,3.92 -3.10,4.70 -3.38,5.49 -3.48,5.62 -3.57,5.76 -3.70,5.87 -3.83,5.97 -3.97,6.05 -4.12,6.13 -4.28,6.16 -4.45,6.20 -4.61,6.20 -4.78,6.20 -4.94,6.16 -5.10,6.11 -5.25,6.04 -5.39,5.96 -5.52,5.84 -5.64,5.73 -5.73,5.59 -5.82,5.46 -5.88,5.30 -5.94,5.14 -5.96,4.98 -5.97,4.81 -5.95,4.65 -5.93,4.48 -5.87,4.33 -5.81,4.17 -4.01,4.21 -2.21,4.25 -1.40,3.85 -0.59,3.45 -0.70,2.88 -0.81,2.30 -1.34,1.89 -1.88,1.48 -2.26,1.08 -2.64,0.67 -2.53,1.30 -2.41,1.93 -2.50,2.55 -2.59,3.16 -2.77,3.70 -2.95,4.23 -2.30,3.72 -1.65,3.21 -1.19,2.44 -0.73,1.67 -0.58,0.93 -0.43,0.19 -0.12,1.71 0.18,3.22 0.12,3.27 0.05,3.31 -0.01,3.34 -0.09,3.37 -0.16,3.38 -0.24,3.39 -0.32,3.38 -0.40,3.37 -0.47,3.34 -0.55,3.31 -0.61,3.27 -0.68,3.22 -0.73,3.16 -0.78,3.11 -0.82,3.04 -0.86,2.97 -0.88,2.89 -0.89,2.81 -0.89,2.73 -0.89,2.65 -0.88,2.58 -0.86,2.50 -0.82,2.43 -0.78,2.36 -0.73,2.30 -0.68,2.24 -0.16,2.35 0.34,2.46 0.37,2.56 0.40,2.66 0.39,2.77 0.39,2.87 0.35,2.97 0.31,3.07 0.24,3.15 0.17,3.23 0.08,3.29 -0.00,3.34 -0.10,3.37 -0.21,3.39 -0.31,3.38 -0.42,3.36 -0.52,3.32 -0.61,3.27 -0.69,3.20 -0.77,3.13 -0.82,3.03 -0.87,2.94 -0.88,2.84 -0.90,2.73 -0.88,2.63 -0.86,2.52 -0.81,2.43 -0.76,2.33 -0.69,2.26 -0.61,2.19 -0.51,2.14 -0.42,2.10 -0.31,2.09 -0.21,2.08 -0.10,2.10 -0.00,2.12 0.08,2.18 0.17,2.23 0.24,2.31 0.31,2.40 0.35,2.49 0.39,2.59 0.39,2.70 0.40,2.80 0.37,2.91 0.34,3.01 0.28,3.10 0.22,3.18 0.14,3.25 0.05,3.31 -0.04,3.35 -0.14,3.38 -0.24,3.38 -0.35,3.38 -0.45,3.35 -0.55,3.31 -0.64,3.25 -0.72,3.18 -0.26,3.20 0.18,3.22 0.12,3.27 0.05,3.31 -0.01,3.34 -0.09,3.37 -0.16,3.38 -0.24,3.39 -0.32,3.38 -0.40,3.37 -0.47,3.34 -0.55,3.31 -0.61,3.27 -0.68,3.22 -0.73,3.16 -0.78,3.11 -0.82,3.04 -0.86,2.97 -0.88,2.89 -0.89,2.81 -0.89,2.73 -0.89,2.65 -0.88,2.58 -0.86,2.50 -0.82,2.43 -0.78,2.36 -0.73,2.30 -0.68,2.24 -1.03,0.46 -1.37,-1.31 -0.34,-1.61 0.68,-1.92 1.24,-0.67 1.80,0.56 1.52,1.69 1.24,2.81 0.69,3.73 0.14,4.65 -0.60,5.47 -1.35,6.28 -2.27,6.42 -3.19,6.56 -4.06,5.88 -4.93,5.21 -5.03,4.02 -5.14,2.83 -5.05,2.09 -4.96,1.35 -4.53,0.21 -4.11,-0.92 -3.02,-1.24 -1.93,-1.56 -1.35,-1.21 -0.77,-0.86 -0.10,-0.49 0.55,-0.12 1.04,0.50 1.52,1.13 1.80,1.96 2.08,2.79 1.92,3.53 1.75,4.28 1.29,4.92 0.83,5.57 0.01,6.03 -0.79,6.48 -1.82,6.61 -2.84,6.75 -3.11,6.12 -3.38,5.49 -3.48,5.62 -3.57,5.76 -3.70,5.87 -3.83,5.97 -3.97,6.05 -4.12,6.13 -4.28,6.16 -4.45,6.20 -4.61,6.20 -4.78,6.20 -4.94,6.16 -5.10,6.11 -5.25,6.04 -5.39,5.96 -5.52,5.84 -5.64,5.73 -5.73,5.59 -5.82,5.46 -5.88,5.30 -5.94,5.14 -5.96,4.98 -5.97,4.81 -5.95,4.65 -5.93,4.48 -5.87,4.33 -5.81,4.17 -5.55,3.38 -5.29,2.59 -4.52,1.23 -3.75,-0.11 -2.63,-0.91 -1.52,-1.70 -0.60,-1.17 0.32,-0.64 0.39,-0.59 0.46,-0.54 0.52,-0.48 0.58,-0.41 0.62,-0.34 0.66,-0.26 0.68,-0.18 0.71,-0.10 0.71,-0.01 0.71,0.07 0.69,0.15 0.67,0.24 0.63,0.31 0.59,0.39 0.54,0.46 0.48,0.52 0.41,0.57 0.34,0.62 0.26,0.66 0.18,0.69 0.09,0.70 0.01,0.71 -0.07,0.70 -0.15,0.70 -0.23,0.67 -0.32,0.64 -0.32,0.64 L -0.32,0.64 Z"></path></g><g transform="translate(147 191) rotate(0 3 6)" stroke="none"><path fill="#1971c2" d="M -0.18,-0.75 Q -0.18,-0.75 0.90,-1.25 2.00,-1.74 3.14,-1.88 4.28,-2.01 5.41,-2.05 6.53,-2.10 7.26,-1.75 7.98,-1.41 8.54,-0.94 9.10,-0.46 9.46,0.27 9.82,1.00 9.65,2.09 9.47,3.18 8.76,4.51 8.04,5.83 7.14,7.00 6.23,8.16 5.62,9.14 5.00,10.13 4.37,10.93 3.73,11.74 2.68,12.22 1.64,12.70 -0.34,13.03 -2.33,13.36 -2.43,13.40 -2.53,13.44 -2.63,13.45 -2.74,13.45 -2.84,13.42 -2.94,13.39 -3.03,13.33 -3.12,13.27 -3.18,13.19 -3.25,13.10 -3.28,13.00 -3.31,12.90 -3.31,12.80 -3.31,12.69 -3.28,12.59 -3.24,12.49 -3.18,12.40 -3.11,12.32 -3.03,12.26 -2.94,12.20 -2.84,12.17 -2.73,12.15 -2.63,12.15 -2.52,12.16 -2.42,12.20 -2.32,12.24 -2.24,12.31 -2.16,12.38 -2.11,12.47 -2.05,12.56 -2.03,12.66 -2.01,12.77 -2.02,12.87 -2.03,12.98 -2.08,13.08 -2.12,13.17 -2.20,13.25 -2.27,13.32 -2.37,13.37 -2.46,13.42 -2.56,13.44 -2.67,13.46 -2.77,13.44 -2.88,13.42 -2.97,13.37 -3.07,13.32 -3.14,13.24 -3.21,13.16 -3.26,13.07 -3.30,12.97 -3.31,12.87 -3.32,12.76 -3.30,12.66 -3.27,12.55 -3.22,12.46 -3.16,12.37 -3.08,12.30 -3.00,12.23 -3.00,12.23 -3.00,12.23 -1.11,11.31 0.76,10.38 1.35,10.24 1.93,10.10 2.42,9.45 2.91,8.81 3.60,7.72 4.29,6.63 5.10,5.64 5.90,4.64 6.51,3.59 7.12,2.54 7.30,1.91 7.49,1.28 6.95,0.76 6.42,0.25 5.49,0.31 4.56,0.38 3.57,0.48 2.59,0.59 1.39,0.67 0.18,0.75 0.09,0.77 0.00,0.78 -0.09,0.77 -0.18,0.76 -0.27,0.72 -0.36,0.69 -0.43,0.64 -0.51,0.58 -0.58,0.51 -0.64,0.44 -0.68,0.36 -0.73,0.28 -0.75,0.18 -0.77,0.09 -0.77,0.00 -0.77,-0.09 -0.75,-0.18 -0.73,-0.27 -0.68,-0.35 -0.64,-0.44 -0.58,-0.51 -0.52,-0.58 -0.44,-0.63 -0.36,-0.69 -0.27,-0.72 -0.18,-0.75 -0.18,-0.75 L -0.18,-0.75 Z"></path></g><g transform="translate(163 192) rotate(0 -3.5 5)" stroke="none"><path fill="#1971c2" d="M -0.31,0.63 Q -0.31,0.63 -1.03,0.64 -1.74,0.64 -2.56,0.56 -3.38,0.48 -3.70,0.97 -4.02,1.46 -4.47,2.59 -4.93,3.73 -5.41,5.06 -5.90,6.39 -5.80,7.28 -5.69,8.16 -4.88,8.73 -4.08,9.30 -1.88,9.40 0.30,9.50 0.40,9.49 0.51,9.48 0.61,9.51 0.72,9.53 0.81,9.58 0.90,9.64 0.97,9.72 1.04,9.80 1.07,9.90 1.11,10.00 1.12,10.11 1.12,10.21 1.09,10.31 1.07,10.42 1.01,10.50 0.95,10.59 0.86,10.66 0.78,10.72 0.67,10.75 0.57,10.79 0.47,10.79 0.36,10.79 0.26,10.75 0.16,10.72 0.08,10.65 -0.00,10.59 -0.06,10.50 -0.12,10.41 -0.14,10.31 -0.17,10.21 -0.17,10.10 -0.16,9.99 -0.12,9.90 -0.08,9.80 -0.01,9.72 0.05,9.64 0.14,9.58 0.23,9.53 0.33,9.50 0.44,9.48 0.54,9.49 0.65,9.51 0.75,9.55 0.84,9.60 0.92,9.67 1.00,9.74 1.04,9.84 1.09,9.93 1.11,10.04 1.13,10.14 1.11,10.25 1.09,10.35 1.04,10.44 0.99,10.54 0.91,10.61 0.84,10.68 0.74,10.73 0.64,10.77 0.64,10.77 0.64,10.77 -2.11,11.24 -4.86,11.70 -6.17,11.18 -7.47,10.65 -8.00,9.52 -8.52,8.39 -8.57,6.95 -8.61,5.51 -8.10,4.08 -7.58,2.64 -7.03,1.33 -6.49,0.01 -5.68,-1.00 -4.87,-2.01 -3.98,-2.17 -3.09,-2.33 -2.50,-2.25 -1.90,-2.17 -1.22,-1.98 -0.55,-1.79 -0.11,-1.21 0.31,-0.63 0.38,-0.58 0.46,-0.54 0.51,-0.47 0.57,-0.41 0.61,-0.34 0.65,-0.26 0.68,-0.18 0.70,-0.09 0.70,-0.01 0.70,0.07 0.68,0.15 0.66,0.23 0.63,0.31 0.59,0.39 0.53,0.45 0.48,0.52 0.41,0.57 0.34,0.62 0.26,0.65 0.18,0.68 0.09,0.69 0.01,0.71 -0.07,0.70 -0.15,0.69 -0.23,0.66 -0.31,0.63 -0.31,0.63 L -0.31,0.63 Z"></path></g><g transform="translate(171 193) rotate(0 4.5 -2)" stroke="none"><path fill="#1971c2" d="M -0.65,-0.43 Q -0.65,-0.43 -0.31,-1.48 0.01,-2.52 0.71,-3.07 1.42,-3.61 2.64,-4.11 3.87,-4.61 4.78,-4.77 5.70,-4.93 7.43,-3.38 9.16,-1.83 9.21,-1.74 9.27,-1.64 9.29,-1.54 9.31,-1.44 9.30,-1.33 9.28,-1.23 9.24,-1.13 9.19,-1.03 9.12,-0.96 9.04,-0.88 8.95,-0.83 8.85,-0.79 8.75,-0.77 8.64,-0.76 8.54,-0.77 8.43,-0.79 8.34,-0.84 8.25,-0.90 8.17,-0.97 8.10,-1.05 8.06,-1.15 8.02,-1.25 8.01,-1.35 8.00,-1.46 8.02,-1.56 8.05,-1.66 8.10,-1.75 8.16,-1.84 8.24,-1.91 8.32,-1.98 8.42,-2.02 8.52,-2.06 8.63,-2.06 8.73,-2.06 8.84,-2.03 8.94,-2.00 9.02,-1.94 9.11,-1.88 9.17,-1.80 9.24,-1.71 9.27,-1.61 9.30,-1.51 9.30,-1.40 9.30,-1.29 9.26,-1.19 9.23,-1.09 9.16,-1.01 9.10,-0.93 9.01,-0.87 8.92,-0.81 8.82,-0.78 8.71,-0.76 8.61,-0.77 8.50,-0.77 8.40,-0.81 8.30,-0.85 8.22,-0.92 8.15,-0.99 8.15,-0.99 8.15,-0.99 7.11,-1.75 6.08,-2.51 5.49,-2.29 4.90,-2.07 3.59,-1.49 2.28,-0.92 1.46,-0.24 0.65,0.43 0.59,0.50 0.52,0.57 0.45,0.63 0.37,0.68 0.28,0.72 0.19,0.75 0.10,0.77 0.01,0.78 -0.08,0.77 -0.17,0.76 -0.26,0.73 -0.35,0.70 -0.43,0.64 -0.51,0.59 -0.57,0.52 -0.63,0.45 -0.68,0.37 -0.72,0.28 -0.75,0.19 -0.77,0.10 -0.77,0.01 -0.77,-0.08 -0.75,-0.17 -0.73,-0.26 -0.69,-0.35 -0.65,-0.43 -0.65,-0.43 L -0.65,-0.43 Z"></path></g><g transform="translate(170 202) rotate(0 4.5 -1)" stroke="none"><path fill="#1971c2" d="M -0.20,-0.70 Q -0.20,-0.70 1.77,-1.43 3.75,-2.16 6.25,-1.48 8.75,-0.80 8.84,-0.74 8.93,-0.69 9.00,-0.61 9.07,-0.53 9.11,-0.43 9.15,-0.33 9.16,-0.22 9.16,-0.12 9.13,-0.02 9.11,0.08 9.05,0.17 8.99,0.25 8.90,0.32 8.82,0.38 8.72,0.42 8.62,0.45 8.51,0.45 8.40,0.45 8.30,0.42 8.20,0.38 8.12,0.32 8.03,0.26 7.97,0.17 7.91,0.08 7.89,-0.01 7.86,-0.11 7.86,-0.22 7.87,-0.33 7.91,-0.43 7.95,-0.52 8.01,-0.61 8.08,-0.69 8.17,-0.74 8.26,-0.80 8.37,-0.82 8.47,-0.84 8.58,-0.83 8.68,-0.82 8.78,-0.78 8.88,-0.73 8.95,-0.66 9.03,-0.59 9.08,-0.49 9.13,-0.40 9.15,-0.29 9.17,-0.19 9.15,-0.08 9.13,0.01 9.08,0.11 9.03,0.20 8.96,0.27 8.88,0.35 8.78,0.39 8.69,0.44 8.58,0.45 8.48,0.46 8.37,0.44 8.27,0.41 8.27,0.41 8.27,0.41 6.28,0.13 4.29,-0.13 2.24,0.28 0.20,0.70 0.11,0.72 0.02,0.73 -0.06,0.72 -0.15,0.72 -0.23,0.69 -0.31,0.66 -0.39,0.61 -0.46,0.56 -0.52,0.50 -0.59,0.44 -0.63,0.36 -0.67,0.28 -0.70,0.20 -0.72,0.11 -0.73,0.02 -0.73,-0.06 -0.71,-0.14 -0.69,-0.23 -0.65,-0.31 -0.62,-0.39 -0.56,-0.46 -0.50,-0.53 -0.43,-0.58 -0.36,-0.63 -0.28,-0.67 -0.20,-0.70 -0.20,-0.70 L -0.20,-0.70 Z"></path></g><g transform="translate(190 188) rotate(0 2.5 -0.5)" stroke="none"><path fill="#1971c2" d="M -0.39,0.78 Q -0.39,0.78 -1.10,0.77 -1.81,0.76 -1.96,0.66 -2.11,0.56 -2.24,0.42 -2.36,0.29 -2.44,0.13 -2.53,-0.01 -2.58,-0.19 -2.62,-0.36 -2.63,-0.54 -2.63,-0.72 -2.59,-0.90 -2.55,-1.07 -2.47,-1.23 -2.39,-1.39 -2.27,-1.53 -2.16,-1.67 -2.01,-1.77 -1.86,-1.88 -1.70,-1.95 -1.53,-2.01 -1.35,-2.04 -1.17,-2.06 -1.00,-2.05 -0.82,-2.03 -0.65,-1.97 -0.48,-1.91 0.17,-2.13 0.83,-2.35 1.75,-2.24 2.67,-2.14 4.44,-1.89 6.21,-1.65 6.32,-1.63 6.42,-1.61 6.52,-1.56 6.61,-1.51 6.69,-1.44 6.76,-1.36 6.80,-1.27 6.85,-1.17 6.86,-1.06 6.87,-0.96 6.85,-0.85 6.83,-0.75 6.78,-0.66 6.72,-0.57 6.64,-0.50 6.56,-0.43 6.46,-0.39 6.36,-0.35 6.26,-0.34 6.15,-0.34 6.05,-0.36 5.95,-0.39 5.86,-0.45 5.77,-0.51 5.71,-0.59 5.64,-0.68 5.61,-0.78 5.57,-0.88 5.57,-0.98 5.57,-1.09 5.60,-1.19 5.64,-1.29 5.70,-1.38 5.76,-1.46 5.85,-1.52 5.94,-1.58 6.04,-1.61 6.14,-1.64 6.25,-1.64 6.35,-1.63 6.45,-1.59 6.55,-1.55 6.63,-1.49 6.72,-1.42 6.77,-1.33 6.83,-1.24 6.85,-1.13 6.87,-1.03 6.86,-0.92 6.85,-0.82 6.81,-0.72 6.76,-0.62 6.69,-0.55 6.62,-0.47 6.53,-0.42 6.43,-0.37 6.33,-0.35 6.22,-0.33 6.22,-0.33 6.22,-0.33 4.47,-0.06 2.73,0.21 1.37,0.39 0.00,0.57 -0.90,0.66 -1.81,0.76 -1.96,0.66 -2.11,0.56 -2.24,0.42 -2.36,0.29 -2.44,0.13 -2.53,-0.01 -2.58,-0.19 -2.62,-0.36 -2.63,-0.54 -2.63,-0.72 -2.59,-0.90 -2.55,-1.07 -2.47,-1.23 -2.39,-1.39 -2.27,-1.53 -2.16,-1.67 -2.01,-1.77 -1.87,-1.88 -1.70,-1.95 -1.53,-2.01 -1.35,-2.04 -1.17,-2.06 -1.00,-2.05 -0.82,-2.03 -0.65,-1.97 -0.48,-1.91 -0.04,-1.34 0.39,-0.78 0.48,-0.72 0.56,-0.66 0.63,-0.58 0.71,-0.51 0.76,-0.41 0.81,-0.32 0.84,-0.22 0.86,-0.12 0.86,-0.01 0.87,0.08 0.84,0.19 0.82,0.29 0.77,0.38 0.73,0.48 0.66,0.56 0.59,0.64 0.50,0.70 0.42,0.76 0.32,0.80 0.22,0.84 0.12,0.86 0.01,0.87 -0.08,0.86 -0.19,0.85 -0.29,0.81 -0.39,0.78 -0.39,0.78 L -0.39,0.78 Z"></path></g><g transform="translate(205 188) rotate(0 -1.5 6.5)" stroke="none"><path fill="#1971c2" d="M -0.50,-0.50 Q -0.50,-0.50 0.07,-1.29 0.65,-2.08 1.67,-2.03 2.69,-1.97 3.48,-0.92 4.26,0.11 4.54,1.22 4.82,2.33 4.93,3.38 5.04,4.44 5.07,5.79 5.11,7.14 4.50,8.51 3.89,9.88 3.32,10.71 2.76,11.55 2.17,12.23 1.59,12.92 0.56,13.33 -0.45,13.75 -1.48,13.88 -2.50,14.01 -3.28,14.04 -4.06,14.06 -5.21,13.43 -6.36,12.80 -7.14,12.04 -7.92,11.27 -7.73,10.02 -7.55,8.76 -6.86,8.44 -6.16,8.12 -5.55,8.03 -4.93,7.94 -3.77,7.90 -2.61,7.86 -1.65,8.17 -0.70,8.47 0.23,8.89 1.17,9.31 1.93,9.81 2.70,10.31 3.98,12.30 5.27,14.28 5.32,14.37 5.37,14.46 5.39,14.57 5.41,14.67 5.39,14.78 5.38,14.88 5.33,14.98 5.28,15.07 5.20,15.15 5.13,15.22 5.03,15.27 4.94,15.31 4.83,15.33 4.72,15.34 4.62,15.32 4.52,15.30 4.42,15.24 4.33,15.19 4.26,15.11 4.19,15.03 4.15,14.93 4.11,14.83 4.10,14.73 4.10,14.62 4.12,14.52 4.15,14.42 4.21,14.33 4.27,14.24 4.35,14.17 4.43,14.11 4.53,14.07 4.63,14.04 4.74,14.03 4.85,14.03 4.95,14.07 5.05,14.10 5.13,14.16 5.22,14.22 5.28,14.31 5.34,14.40 5.37,14.50 5.40,14.60 5.40,14.71 5.39,14.81 5.36,14.91 5.32,15.01 5.25,15.09 5.18,15.18 5.09,15.23 5.00,15.29 4.90,15.31 4.80,15.34 4.69,15.33 4.58,15.32 4.49,15.28 4.39,15.23 4.31,15.16 4.23,15.09 4.23,15.09 4.23,15.09 2.78,13.70 1.32,12.32 0.75,11.90 0.18,11.49 -0.66,11.09 -1.51,10.70 -2.06,10.46 -2.60,10.21 -3.62,10.23 -4.63,10.25 -5.39,10.26 -6.14,10.26 -5.61,10.55 -5.09,10.83 -4.51,11.31 -3.94,11.79 -3.36,11.72 -2.79,11.65 -1.99,11.56 -1.19,11.47 -0.64,11.37 -0.08,11.26 0.35,10.73 0.79,10.19 1.27,9.50 1.75,8.81 2.26,7.94 2.76,7.07 2.72,5.87 2.68,4.66 2.60,3.76 2.52,2.86 2.37,2.06 2.21,1.27 1.93,0.53 1.64,-0.21 1.07,0.14 0.50,0.50 0.44,0.56 0.37,0.61 0.29,0.65 0.21,0.68 0.12,0.70 0.04,0.71 -0.04,0.71 -0.12,0.70 -0.21,0.68 -0.29,0.65 -0.36,0.61 -0.44,0.56 -0.50,0.50 -0.56,0.44 -0.61,0.36 -0.65,0.29 -0.68,0.21 -0.70,0.12 -0.71,0.04 -0.71,-0.04 -0.70,-0.12 -0.68,-0.21 -0.65,-0.29 -0.61,-0.37 -0.56,-0.44 -0.50,-0.50 -0.50,-0.50 L -0.50,-0.50 Z"></path></g><g transform="translate(266 318) rotate(0 -2 3.5)" stroke="none"><path fill="#1971c2" d="M -0.31,0.62 Q -0.31,0.62 -0.98,0.54 -1.66,0.47 -2.19,0.61 -2.72,0.76 -3.14,1.31 -3.57,1.86 -4.00,2.42 -4.44,2.97 -4.50,3.78 -4.56,4.60 -4.20,5.16 -3.84,5.71 -3.08,4.97 -2.32,4.23 -1.67,3.42 -1.03,2.60 -0.41,1.91 0.20,1.21 0.17,0.67 0.14,0.13 -0.55,0.37 -1.25,0.60 -1.75,1.93 -2.24,3.25 -2.37,4.02 -2.51,4.79 -2.33,5.51 -2.16,6.22 -1.39,6.25 -0.62,6.28 -0.27,5.52 0.08,4.76 0.28,4.18 0.48,3.60 0.61,2.69 0.74,1.78 0.47,1.27 0.21,0.75 -0.18,1.14 -0.58,1.54 -0.91,2.08 -1.24,2.62 -1.36,3.30 -1.49,3.98 -1.07,4.32 -0.65,4.65 -0.47,3.66 -0.29,2.66 -0.84,2.28 -1.39,1.89 -1.74,2.62 -2.10,3.36 -2.62,4.21 -3.14,5.05 -3.10,5.65 -3.06,6.24 -2.38,5.66 -1.69,5.08 -1.39,4.57 -1.10,4.06 -1.89,3.98 -2.69,3.91 -3.13,4.54 -3.57,5.17 -2.78,6.16 -1.98,7.15 -1.92,7.23 -1.85,7.31 -1.80,7.41 -1.76,7.51 -1.76,7.61 -1.75,7.72 -1.78,7.82 -1.80,7.92 -1.86,8.01 -1.92,8.10 -2.01,8.17 -2.09,8.23 -2.19,8.27 -2.29,8.30 -2.40,8.30 -2.50,8.31 -2.60,8.27 -2.70,8.24 -2.79,8.18 -2.88,8.11 -2.94,8.03 -3.00,7.94 -3.03,7.84 -3.06,7.73 -3.05,7.63 -3.05,7.52 -3.01,7.42 -2.97,7.32 -2.90,7.24 -2.83,7.16 -2.74,7.10 -2.65,7.05 -2.55,7.02 -2.45,7.00 -2.34,7.01 -2.24,7.02 -2.14,7.06 -2.04,7.11 -1.96,7.18 -1.89,7.25 -1.84,7.35 -1.78,7.44 -1.77,7.54 -1.75,7.65 -1.76,7.75 -1.78,7.86 -1.83,7.95 -1.88,8.05 -1.95,8.12 -2.03,8.20 -2.13,8.24 -2.22,8.29 -2.33,8.30 -2.43,8.31 -2.54,8.29 -2.64,8.27 -2.73,8.22 -2.82,8.16 -2.82,8.16 -2.82,8.16 -4.24,6.43 -5.66,4.69 -5.22,3.68 -4.78,2.66 -3.95,2.18 -3.11,1.71 -2.07,1.67 -1.03,1.63 -0.45,2.05 0.12,2.47 0.45,2.97 0.78,3.46 0.72,4.36 0.66,5.26 0.31,5.96 -0.04,6.66 -0.91,7.39 -1.78,8.13 -2.81,8.08 -3.84,8.03 -4.53,7.06 -5.21,6.09 -5.21,5.10 -5.21,4.11 -4.61,3.06 -4.02,2.00 -3.11,0.94 -2.20,-0.10 -0.93,-0.15 0.32,-0.20 1.15,0.65 1.97,1.50 2.00,2.27 2.02,3.03 1.91,3.69 1.80,4.35 1.38,5.28 0.96,6.20 0.04,6.59 -0.86,6.98 -1.60,6.82 -2.34,6.66 -2.99,6.17 -3.65,5.68 -3.76,4.55 -3.88,3.42 -3.59,2.34 -3.30,1.27 -2.64,0.39 -1.99,-0.48 -1.27,-0.89 -0.56,-1.31 0.20,-1.28 0.97,-1.25 1.72,-0.53 2.48,0.19 2.79,0.99 3.11,1.79 3.06,2.43 3.02,3.08 2.88,3.76 2.74,4.44 2.42,5.24 2.10,6.05 1.23,7.19 0.36,8.34 -0.79,8.60 -1.95,8.87 -2.67,8.55 -3.40,8.23 -3.93,7.56 -4.45,6.88 -4.70,5.65 -4.95,4.41 -4.72,3.29 -4.49,2.18 -4.07,1.31 -3.65,0.45 -3.08,-0.45 -2.51,-1.36 -1.37,-1.74 -0.24,-2.12 0.39,-1.99 1.02,-1.86 1.64,-1.08 2.27,-0.31 2.46,0.21 2.66,0.73 2.33,1.76 2.00,2.78 1.41,3.44 0.81,4.11 -0.03,5.12 -0.88,6.14 -2.28,7.01 -3.68,7.88 -4.54,7.73 -5.39,7.57 -6.06,7.01 -6.74,6.46 -6.85,5.35 -6.95,4.24 -6.37,2.52 -5.79,0.79 -5.41,0.14 -5.04,-0.50 -4.39,-0.97 -3.75,-1.45 -2.93,-1.72 -2.10,-1.98 -1.36,-1.80 -0.63,-1.62 -0.16,-1.12 0.31,-0.62 0.38,-0.57 0.45,-0.53 0.51,-0.47 0.56,-0.40 0.60,-0.33 0.64,-0.26 0.67,-0.17 0.69,-0.09 0.69,-0.01 0.69,0.07 0.67,0.15 0.65,0.23 0.62,0.31 0.58,0.38 0.52,0.45 0.47,0.51 0.40,0.56 0.33,0.61 0.25,0.64 0.18,0.67 0.09,0.68 0.01,0.70 -0.07,0.69 -0.15,0.68 -0.23,0.65 -0.31,0.62 -0.31,0.62 L -0.31,0.62 Z"></path></g><g transform="translate(253 289) rotate(0 3.5 4)" stroke="none"><path fill="#1971c2" d="M -0.61,0.30 Q -0.61,0.30 -1.06,-0.45 -1.51,-1.22 -1.32,-1.75 -1.13,-2.29 -0.33,-2.84 0.45,-3.39 1.38,-3.87 2.31,-4.36 3.55,-4.32 4.78,-4.27 5.98,-3.58 7.18,-2.90 7.96,-2.28 8.74,-1.66 9.21,-0.63 9.67,0.38 10.04,0.91 10.40,1.43 10.67,2.49 10.93,3.55 10.72,4.72 10.51,5.90 10.07,6.75 9.62,7.61 8.47,8.64 7.32,9.67 6.23,10.38 5.15,11.10 3.66,11.46 2.17,11.83 0.77,12.22 -0.62,12.62 -1.56,12.40 -2.50,12.18 -2.94,11.36 -3.38,10.54 -2.63,8.95 -1.88,7.35 -1.82,7.26 -1.76,7.17 -1.68,7.11 -1.60,7.05 -1.49,7.01 -1.39,6.98 -1.29,6.98 -1.18,6.98 -1.08,7.01 -0.98,7.05 -0.90,7.11 -0.81,7.18 -0.75,7.26 -0.69,7.35 -0.66,7.45 -0.64,7.56 -0.64,7.66 -0.65,7.77 -0.69,7.87 -0.73,7.97 -0.79,8.05 -0.86,8.13 -0.95,8.18 -1.05,8.24 -1.15,8.26 -1.25,8.28 -1.36,8.27 -1.46,8.26 -1.56,8.21 -1.66,8.17 -1.73,8.10 -1.81,8.02 -1.86,7.93 -1.91,7.84 -1.93,7.73 -1.94,7.63 -1.93,7.52 -1.91,7.42 -1.86,7.32 -1.81,7.23 -1.73,7.16 -1.66,7.08 -1.56,7.04 -1.46,6.99 -1.36,6.98 -1.25,6.97 -1.15,6.99 -1.04,7.02 -0.95,7.07 -0.86,7.13 -0.79,7.21 -0.73,7.29 -0.69,7.39 -0.65,7.49 -0.64,7.59 -0.64,7.70 -0.66,7.80 -0.69,7.90 -0.69,7.90 -0.69,7.90 -0.94,9.04 -1.20,10.17 0.22,9.76 1.64,9.34 2.73,9.15 3.83,8.96 4.76,8.36 5.70,7.76 6.59,7.06 7.48,6.36 7.80,5.84 8.11,5.33 8.32,4.64 8.54,3.95 8.45,3.32 8.36,2.70 7.90,1.96 7.44,1.22 7.31,0.63 7.18,0.03 6.55,-0.44 5.93,-0.91 5.19,-1.45 4.44,-2.00 3.81,-2.14 3.17,-2.29 2.40,-1.87 1.63,-1.45 1.00,-1.26 0.36,-1.07 0.48,-0.69 0.61,-0.30 0.64,-0.22 0.66,-0.15 0.67,-0.06 0.68,0.01 0.67,0.09 0.66,0.17 0.63,0.25 0.60,0.33 0.55,0.39 0.50,0.46 0.44,0.51 0.37,0.57 0.30,0.60 0.23,0.64 0.14,0.66 0.06,0.68 -0.01,0.68 -0.09,0.67 -0.17,0.65 -0.25,0.63 -0.32,0.59 -0.40,0.55 -0.46,0.50 -0.52,0.44 -0.56,0.37 -0.61,0.30 -0.61,0.30 L -0.61,0.30 Z"></path></g><g transform="translate(269 290) rotate(0 -3 4)" stroke="none"><path fill="#1971c2" d="M -0.46,0.46 Q -0.46,0.46 -1.30,0.18 -2.14,-0.10 -3.15,0.32 -4.16,0.76 -4.54,1.29 -4.93,1.83 -5.06,2.47 -5.19,3.11 -5.60,4.34 -6.00,5.57 -5.92,6.57 -5.83,7.58 -4.87,7.98 -3.91,8.38 -1.55,8.42 0.80,8.46 0.91,8.46 1.01,8.47 1.11,8.51 1.21,8.55 1.29,8.62 1.37,8.69 1.43,8.78 1.48,8.87 1.50,8.97 1.52,9.08 1.51,9.18 1.50,9.29 1.45,9.39 1.41,9.48 1.33,9.56 1.26,9.63 1.17,9.68 1.07,9.73 0.97,9.75 0.86,9.77 0.76,9.75 0.65,9.73 0.56,9.68 0.47,9.63 0.39,9.55 0.32,9.47 0.28,9.38 0.23,9.28 0.22,9.17 0.21,9.07 0.24,8.96 0.26,8.86 0.31,8.77 0.37,8.68 0.45,8.61 0.53,8.54 0.63,8.50 0.73,8.47 0.84,8.46 0.94,8.46 1.05,8.49 1.15,8.51 1.24,8.58 1.32,8.64 1.39,8.72 1.45,8.81 1.48,8.91 1.52,9.01 1.52,9.11 1.51,9.22 1.48,9.32 1.45,9.42 1.38,9.50 1.32,9.59 1.23,9.65 1.14,9.71 1.04,9.73 0.93,9.76 0.93,9.76 0.93,9.76 -1.81,10.31 -4.57,10.87 -5.71,10.53 -6.84,10.20 -7.67,9.25 -8.51,8.30 -8.66,6.53 -8.80,4.76 -8.41,3.51 -8.01,2.26 -7.62,1.13 -7.22,0.00 -6.35,-0.91 -5.48,-1.84 -4.61,-2.24 -3.73,-2.65 -2.82,-2.81 -1.91,-2.98 -1.03,-2.58 -0.15,-2.19 0.15,-1.33 0.46,-0.46 0.51,-0.40 0.56,-0.34 0.60,-0.27 0.63,-0.19 0.64,-0.11 0.66,-0.04 0.65,0.03 0.65,0.11 0.62,0.19 0.60,0.27 0.56,0.34 0.52,0.40 0.46,0.46 0.40,0.52 0.34,0.56 0.27,0.60 0.19,0.62 0.11,0.65 0.03,0.65 -0.04,0.66 -0.11,0.64 -0.19,0.63 -0.27,0.60 -0.34,0.56 -0.40,0.51 -0.46,0.46 -0.46,0.46 L -0.46,0.46 Z"></path></g><g transform="translate(278 293) rotate(0 5.5 -0.5)" stroke="none"><path fill="#1971c2" d="M 0,-0.85 Q 0,-0.85 1.15,-1.13 2.3,-1.41 3.36,-1.41 4.42,-1.41 5.60,-1.59 6.79,-1.78 8.80,-1.27 10.81,-0.76 10.91,-0.71 11.00,-0.66 11.07,-0.58 11.14,-0.50 11.18,-0.40 11.23,-0.30 11.23,-0.20 11.24,-0.09 11.22,0.00 11.19,0.10 11.14,0.19 11.08,0.28 11.00,0.35 10.91,0.42 10.81,0.45 10.71,0.49 10.61,0.49 10.50,0.50 10.40,0.47 10.30,0.44 10.21,0.37 10.13,0.31 10.06,0.23 10.00,0.14 9.97,0.04 9.94,-0.05 9.94,-0.16 9.94,-0.26 9.98,-0.36 10.02,-0.46 10.08,-0.55 10.15,-0.63 10.24,-0.69 10.33,-0.75 10.43,-0.77 10.53,-0.80 10.64,-0.79 10.75,-0.78 10.84,-0.74 10.94,-0.70 11.02,-0.63 11.10,-0.56 11.15,-0.46 11.20,-0.37 11.22,-0.27 11.24,-0.16 11.23,-0.06 11.22,0.04 11.17,0.13 11.12,0.23 11.05,0.30 10.97,0.38 10.88,0.43 10.78,0.47 10.68,0.49 10.57,0.50 10.47,0.48 10.36,0.46 10.36,0.46 10.36,0.46 8.84,0.55 7.32,0.63 5.87,1.02 4.43,1.41 3.36,1.41 2.3,1.41 1.15,1.13 0,0.85 -0.10,0.84 -0.20,0.83 -0.30,0.79 -0.39,0.76 -0.48,0.70 -0.56,0.64 -0.63,0.56 -0.70,0.48 -0.75,0.39 -0.80,0.30 -0.82,0.20 -0.85,0.10 -0.85,-0.00 -0.85,-0.10 -0.82,-0.20 -0.80,-0.30 -0.75,-0.39 -0.70,-0.48 -0.63,-0.56 -0.56,-0.64 -0.48,-0.70 -0.39,-0.76 -0.30,-0.79 -0.20,-0.83 -0.10,-0.84 0.00,-0.85 0.00,-0.85 L 0,-0.85 Z"></path></g><g transform="translate(279 299) rotate(0 5 1)" stroke="none"><path fill="#1971c2" d="M 0,-0.77 Q 0,-0.77 2.31,-0.88 4.62,-1.00 6.93,0.01 9.25,1.02 9.34,1.07 9.43,1.12 9.50,1.20 9.57,1.28 9.62,1.38 9.66,1.48 9.67,1.58 9.67,1.69 9.65,1.79 9.62,1.89 9.56,1.98 9.51,2.07 9.42,2.14 9.34,2.21 9.24,2.24 9.14,2.28 9.04,2.28 8.93,2.28 8.83,2.25 8.73,2.22 8.64,2.16 8.55,2.10 8.49,2.01 8.43,1.92 8.40,1.82 8.37,1.72 8.37,1.61 8.38,1.51 8.41,1.41 8.45,1.31 8.52,1.23 8.58,1.14 8.67,1.09 8.76,1.03 8.87,1.00 8.97,0.98 9.07,0.99 9.18,1.00 9.28,1.04 9.37,1.08 9.45,1.15 9.53,1.22 9.58,1.32 9.64,1.41 9.66,1.51 9.68,1.62 9.66,1.72 9.65,1.83 9.60,1.92 9.55,2.02 9.48,2.09 9.40,2.17 9.31,2.22 9.21,2.26 9.11,2.28 9.00,2.29 8.90,2.27 8.79,2.25 8.79,2.25 8.79,2.25 6.68,1.62 4.57,1.00 2.28,0.88 0,0.77 -0.09,0.76 -0.18,0.75 -0.27,0.72 -0.36,0.68 -0.43,0.63 -0.51,0.58 -0.57,0.51 -0.63,0.44 -0.68,0.35 -0.72,0.27 -0.74,0.18 -0.77,0.09 -0.77,-0.00 -0.77,-0.09 -0.74,-0.18 -0.72,-0.27 -0.68,-0.35 -0.63,-0.44 -0.57,-0.51 -0.51,-0.58 -0.43,-0.63 -0.36,-0.68 -0.27,-0.72 -0.18,-0.75 -0.09,-0.76 0.00,-0.77 0.00,-0.77 L 0,-0.77 Z"></path></g><g transform="translate(306 291) rotate(0 -1.5 6)" stroke="none"><path fill="#1971c2" d="M 0,0.77 Q 0,0.77 -0.83,1.10 -1.67,1.42 -2.47,1.96 -3.27,2.50 -3.60,3.30 -3.93,4.11 -4.40,5.60 -4.88,7.08 -5.08,8.22 -5.28,9.36 -5.17,10.11 -5.06,10.86 -3.89,11.46 -2.71,12.06 -1.86,11.96 -1.01,11.86 -0.49,11.37 0.02,10.87 0.83,9.87 1.64,8.86 1.93,7.99 2.22,7.12 2.34,5.67 2.46,4.22 2.55,3.39 2.64,2.56 2.19,2.20 1.73,1.84 1.45,1.16 1.17,0.48 0.12,-0.39 -0.91,-1.27 -1.00,-1.32 -1.10,-1.37 -1.17,-1.45 -1.24,-1.53 -1.28,-1.62 -1.33,-1.72 -1.34,-1.83 -1.35,-1.93 -1.33,-2.04 -1.30,-2.14 -1.25,-2.23 -1.19,-2.32 -1.11,-2.39 -1.03,-2.46 -0.93,-2.49 -0.83,-2.53 -0.72,-2.54 -0.62,-2.54 -0.51,-2.51 -0.41,-2.48 -0.32,-2.42 -0.24,-2.36 -0.17,-2.28 -0.11,-2.19 -0.08,-2.09 -0.04,-1.99 -0.05,-1.88 -0.05,-1.78 -0.08,-1.68 -0.12,-1.58 -0.18,-1.49 -0.25,-1.41 -0.34,-1.35 -0.42,-1.29 -0.53,-1.26 -0.63,-1.24 -0.74,-1.24 -0.84,-1.25 -0.94,-1.29 -1.04,-1.33 -1.12,-1.40 -1.20,-1.47 -1.25,-1.56 -1.31,-1.65 -1.33,-1.76 -1.35,-1.86 -1.34,-1.97 -1.32,-2.07 -1.28,-2.17 -1.23,-2.26 -1.16,-2.34 -1.09,-2.42 -0.99,-2.47 -0.90,-2.51 -0.79,-2.53 -0.69,-2.55 -0.58,-2.53 -0.48,-2.51 -0.48,-2.51 -0.48,-2.51 1.69,-1.15 3.87,0.21 4.51,1.25 5.14,2.28 5.09,3.39 5.04,4.49 4.83,6.24 4.62,7.98 4.13,9.21 3.63,10.44 2.61,11.68 1.58,12.92 0.48,13.64 -0.61,14.37 -2.21,14.43 -3.81,14.49 -4.79,13.96 -5.77,13.43 -6.64,12.64 -7.50,11.86 -7.78,10.40 -8.07,8.93 -7.83,7.57 -7.60,6.21 -7.05,4.51 -6.50,2.81 -5.77,1.55 -5.05,0.28 -4.33,-0.22 -3.61,-0.73 -2.69,-1.07 -1.77,-1.42 -0.88,-1.10 0,-0.77 0.09,-0.76 0.18,-0.75 0.27,-0.72 0.36,-0.69 0.43,-0.63 0.51,-0.58 0.57,-0.51 0.64,-0.44 0.68,-0.35 0.72,-0.27 0.75,-0.18 0.77,-0.09 0.77,0.00 0.77,0.09 0.75,0.18 0.72,0.27 0.68,0.35 0.64,0.44 0.57,0.51 0.51,0.58 0.43,0.63 0.36,0.69 0.27,0.72 0.18,0.75 0.09,0.76 -0.00,0.77 -0.00,0.77 L 0,0.77 Z"></path></g></svg>