<svg version="1.1" xmlns="http://www.w3.org/2000/svg" viewBox="0 0 882.1154174804688 590.7269134521484" width="882.1154174804688" height="590.7269134521484" filter="invert(93%) hue-rotate(180deg)" class="excalidraw-svg"><!-- svg-source:excalidraw --><metadata></metadata><defs><style class="style-fonts">
      </style></defs><rect x="0" y="0" width="882.1154174804688" height="590.7269134521484" fill="transparent"></rect><g transform="translate(15.47723388671875 66.96315002441406) rotate(0 8.21588134765625 2.738616943359375)" stroke="none"><path fill="#000000" d="M 0.16,-0.96 Q 0.16,-0.96 2.13,-1.16 4.11,-1.36 5.77,-1.24 7.42,-1.11 9.38,-1.06 11.34,-1.00 13.34,-0.45 15.35,0.08 16.21,2.57 17.08,5.06 17.06,5.16 17.05,5.27 17.00,5.36 16.95,5.46 16.87,5.53 16.80,5.61 16.70,5.65 16.61,5.70 16.50,5.71 16.39,5.72 16.29,5.70 16.19,5.68 16.09,5.63 16.00,5.57 15.93,5.49 15.86,5.41 15.82,5.32 15.78,5.22 15.77,5.11 15.77,5.01 15.79,4.90 15.82,4.80 15.88,4.71 15.94,4.62 16.02,4.56 16.10,4.49 16.20,4.46 16.31,4.42 16.41,4.42 16.52,4.42 16.62,4.45 16.72,4.48 16.81,4.55 16.89,4.61 16.95,4.70 17.01,4.78 17.04,4.89 17.07,4.99 17.07,5.09 17.06,5.20 17.03,5.30 16.99,5.40 16.92,5.48 16.85,5.56 16.76,5.62 16.67,5.67 16.57,5.70 16.47,5.72 16.36,5.71 16.25,5.70 16.16,5.66 16.06,5.62 15.98,5.54 15.90,5.47 15.85,5.38 15.80,5.29 15.78,5.18 15.76,5.08 15.76,5.08 15.76,5.08 15.08,4.18 14.39,3.28 12.80,3.16 11.21,3.03 9.16,2.97 7.12,2.91 5.28,2.76 3.44,2.62 1.64,1.79 -0.16,0.96 -0.27,0.93 -0.38,0.89 -0.48,0.83 -0.59,0.77 -0.67,0.69 -0.75,0.61 -0.82,0.51 -0.88,0.41 -0.92,0.30 -0.95,0.19 -0.96,0.07 -0.97,-0.04 -0.95,-0.15 -0.93,-0.27 -0.89,-0.38 -0.84,-0.49 -0.77,-0.58 -0.70,-0.68 -0.61,-0.75 -0.51,-0.82 -0.41,-0.87 -0.30,-0.92 -0.19,-0.95 -0.07,-0.97 0.04,-0.96 0.16,-0.96 0.16,-0.96 L 0.16,-0.96 Z"></path></g><g transform="translate(10 89.96751403808594) rotate(0 10.9544677734375 -4.3817901611328125)" stroke="none"><path fill="#000000" d="M -0.46,-0.93 Q -0.46,-0.93 0.61,-1.92 1.69,-2.91 3.46,-3.85 5.23,-4.80 7.89,-6.11 10.55,-7.42 12.81,-8.17 15.06,-8.93 17.95,-8.15 20.85,-7.38 20.95,-7.35 21.05,-7.32 21.14,-7.25 21.22,-7.19 21.28,-7.10 21.35,-7.02 21.38,-6.92 21.41,-6.81 21.40,-6.71 21.40,-6.60 21.36,-6.50 21.33,-6.40 21.26,-6.32 21.19,-6.24 21.10,-6.18 21.01,-6.12 20.91,-6.10 20.81,-6.07 20.70,-6.08 20.60,-6.09 20.50,-6.13 20.40,-6.18 20.32,-6.25 20.24,-6.32 20.19,-6.41 20.14,-6.51 20.12,-6.61 20.10,-6.71 20.12,-6.82 20.13,-6.92 20.18,-7.02 20.23,-7.11 20.30,-7.19 20.38,-7.26 20.47,-7.31 20.57,-7.36 20.67,-7.37 20.78,-7.39 20.88,-7.36 20.99,-7.34 21.08,-7.29 21.17,-7.24 21.24,-7.16 21.31,-7.08 21.35,-6.98 21.39,-6.88 21.40,-6.78 21.41,-6.67 21.39,-6.57 21.36,-6.47 21.30,-6.38 21.24,-6.29 21.16,-6.22 21.08,-6.16 20.98,-6.12 20.88,-6.08 20.77,-6.08 20.67,-6.08 20.67,-6.08 20.67,-6.08 18.36,-6.04 16.05,-5.99 14.16,-4.99 12.27,-3.99 9.62,-2.65 6.98,-1.30 5.16,-0.45 3.34,0.39 1.90,0.66 0.46,0.93 0.35,0.98 0.23,1.02 0.10,1.03 -0.02,1.05 -0.14,1.03 -0.27,1.01 -0.38,0.96 -0.50,0.92 -0.60,0.84 -0.71,0.77 -0.79,0.67 -0.87,0.57 -0.93,0.46 -0.98,0.35 -1.01,0.22 -1.04,0.10 -1.04,-0.02 -1.04,-0.14 -1.00,-0.26 -0.97,-0.39 -0.91,-0.50 -0.85,-0.61 -0.76,-0.70 -0.68,-0.80 -0.57,-0.87 -0.46,-0.93 -0.46,-0.93 L -0.46,-0.93 Z"></path></g><g transform="translate(56.00872802734375 69.15403747558594) rotate(0 7.668121337890625 -0.5477142333984375)" stroke="none"><path fill="#000000" d="M 0.19,-0.99 Q 0.19,-0.99 1.87,-1.17 3.54,-1.35 5.03,-1.23 6.52,-1.11 7.56,-1.35 8.61,-1.59 11.27,-1.96 13.94,-2.33 14.04,-2.35 14.15,-2.38 14.25,-2.37 14.36,-2.36 14.46,-2.31 14.55,-2.27 14.63,-2.19 14.71,-2.12 14.76,-2.03 14.81,-1.94 14.83,-1.83 14.85,-1.73 14.83,-1.62 14.81,-1.52 14.76,-1.42 14.71,-1.33 14.64,-1.25 14.56,-1.18 14.46,-1.14 14.37,-1.09 14.26,-1.08 14.16,-1.07 14.05,-1.09 13.95,-1.11 13.86,-1.16 13.77,-1.22 13.70,-1.30 13.63,-1.38 13.59,-1.48 13.55,-1.58 13.54,-1.68 13.54,-1.79 13.56,-1.89 13.59,-1.99 13.65,-2.08 13.71,-2.17 13.79,-2.23 13.88,-2.30 13.98,-2.33 14.08,-2.37 14.18,-2.37 14.29,-2.37 14.39,-2.34 14.49,-2.30 14.58,-2.24 14.66,-2.18 14.72,-2.09 14.78,-2.00 14.81,-1.90 14.84,-1.80 14.84,-1.69 14.83,-1.58 14.79,-1.49 14.75,-1.39 14.69,-1.31 14.62,-1.22 14.53,-1.17 14.44,-1.11 14.44,-1.11 14.44,-1.11 11.92,0.62 9.40,2.36 7.81,2.63 6.23,2.91 4.49,2.76 2.75,2.61 1.27,1.80 -0.19,0.99 -0.31,0.95 -0.42,0.91 -0.53,0.84 -0.63,0.78 -0.72,0.69 -0.80,0.60 -0.86,0.50 -0.92,0.39 -0.96,0.28 -0.99,0.16 -1.00,0.04 -1.00,-0.07 -0.98,-0.19 -0.95,-0.31 -0.90,-0.42 -0.85,-0.53 -0.77,-0.63 -0.70,-0.72 -0.60,-0.79 -0.50,-0.87 -0.39,-0.92 -0.28,-0.96 -0.16,-0.98 -0.04,-1.00 0.07,-0.99 0.19,-0.99 0.19,-0.99 L 0.19,-0.99 Z"></path></g><g transform="translate(98.7310791015625 56.00871276855469) rotate(0 -4.92950439453125 17.527114868164062)" stroke="none"><path fill="#000000" d="M 0.46,0.69 Q 0.46,0.69 -0.15,1.81 -0.76,2.94 -1.69,3.75 -2.62,4.57 -3.56,5.76 -4.50,6.95 -5.18,8.49 -5.86,10.03 -5.84,11.06 -5.81,12.08 -5.31,12.92 -4.80,13.76 -4.09,14.36 -3.38,14.97 -2.35,15.97 -1.33,16.97 -0.55,17.74 0.21,18.52 0.73,19.81 1.26,21.11 1.12,22.84 0.98,24.57 0.20,26.35 -0.57,28.12 -2.24,30.22 -3.92,32.32 -5.27,33.40 -6.61,34.48 -6.76,34.62 -6.91,34.76 -7.09,34.87 -7.27,34.97 -7.47,35.03 -7.67,35.09 -7.88,35.09 -8.08,35.10 -8.29,35.06 -8.49,35.02 -8.68,34.93 -8.86,34.84 -9.03,34.71 -9.19,34.58 -9.31,34.41 -9.43,34.25 -9.52,34.05 -9.60,33.86 -9.63,33.66 -9.66,33.45 -9.65,33.25 -9.63,33.04 -9.56,32.84 -9.50,32.65 -9.38,32.47 -9.27,32.30 -8.61,31.86 -7.95,31.42 -6.69,29.63 -5.43,27.84 -5.36,27.76 -5.29,27.68 -5.20,27.62 -5.11,27.57 -5.01,27.55 -4.90,27.53 -4.80,27.54 -4.69,27.55 -4.60,27.60 -4.50,27.65 -4.42,27.72 -4.35,27.79 -4.30,27.89 -4.25,27.98 -4.24,28.09 -4.22,28.19 -4.24,28.30 -4.26,28.40 -4.31,28.50 -4.36,28.59 -4.44,28.66 -4.52,28.73 -4.62,28.78 -4.71,28.82 -4.82,28.83 -4.92,28.84 -5.03,28.81 -5.13,28.79 -5.22,28.73 -5.31,28.68 -5.38,28.59 -5.45,28.51 -5.48,28.41 -5.52,28.31 -5.53,28.21 -5.53,28.10 -5.50,28.00 -5.47,27.90 -5.41,27.81 -5.35,27.72 -5.26,27.66 -5.18,27.60 -5.07,27.57 -4.97,27.53 -4.87,27.54 -4.76,27.54 -4.66,27.57 -4.56,27.61 -4.48,27.67 -4.39,27.74 -4.34,27.83 -4.28,27.92 -4.25,28.02 -4.22,28.12 -4.23,28.23 -4.24,28.34 -4.28,28.43 -4.32,28.53 -4.32,28.53 -4.32,28.53 -5.34,30.38 -6.36,32.23 -6.48,33.35 -6.61,34.48 -6.76,34.62 -6.91,34.76 -7.09,34.87 -7.27,34.97 -7.47,35.03 -7.67,35.09 -7.88,35.09 -8.08,35.10 -8.29,35.06 -8.49,35.02 -8.68,34.93 -8.86,34.84 -9.03,34.71 -9.19,34.58 -9.31,34.41 -9.43,34.25 -9.52,34.05 -9.60,33.86 -9.63,33.66 -9.66,33.45 -9.65,33.25 -9.63,33.04 -9.56,32.84 -9.50,32.65 -9.38,32.47 -9.27,32.30 -8.03,31.13 -6.79,29.96 -5.35,28.25 -3.91,26.54 -3.27,25.28 -2.63,24.03 -2.41,23.07 -2.19,22.10 -2.30,21.52 -2.41,20.93 -3.12,20.24 -3.84,19.54 -4.84,18.57 -5.83,17.60 -6.91,16.53 -7.99,15.47 -8.74,13.85 -9.48,12.24 -9.43,10.45 -9.38,8.67 -8.53,6.56 -7.67,4.45 -6.47,2.99 -5.28,1.53 -4.14,0.55 -3.01,-0.42 -1.73,-0.55 -0.46,-0.69 -0.37,-0.73 -0.28,-0.78 -0.18,-0.80 -0.08,-0.82 0.01,-0.82 0.11,-0.82 0.21,-0.80 0.30,-0.77 0.39,-0.72 0.48,-0.67 0.55,-0.61 0.63,-0.54 0.68,-0.45 0.74,-0.37 0.77,-0.28 0.81,-0.18 0.82,-0.08 0.83,0.01 0.81,0.11 0.80,0.21 0.76,0.30 0.73,0.39 0.67,0.48 0.61,0.56 0.53,0.62 0.46,0.69 0.46,0.69 L 0.46,0.69 Z"></path></g><g transform="translate(110.781005859375 65.86772155761719) rotate(0 0 10.406723022460938)" stroke="none"><path fill="#000000" d="M 0.84,0 Q 0.84,0 1.31,1.57 1.77,3.14 1.78,5.07 1.79,7.00 1.78,10.03 1.77,13.05 1.21,16.33 0.65,19.61 0.63,19.71 0.62,19.82 0.57,19.91 0.52,20.01 0.44,20.08 0.36,20.15 0.27,20.20 0.17,20.24 0.07,20.25 -0.03,20.27 -0.13,20.24 -0.24,20.22 -0.33,20.16 -0.42,20.11 -0.49,20.03 -0.56,19.95 -0.60,19.85 -0.64,19.75 -0.64,19.64 -0.65,19.54 -0.62,19.44 -0.59,19.33 -0.53,19.25 -0.47,19.16 -0.39,19.09 -0.30,19.03 -0.20,19.00 -0.10,18.96 0.00,18.96 0.10,18.96 0.20,19.00 0.30,19.03 0.39,19.09 0.47,19.16 0.53,19.25 0.59,19.33 0.62,19.44 0.65,19.54 0.64,19.64 0.64,19.75 0.60,19.85 0.56,19.95 0.49,20.03 0.42,20.11 0.33,20.16 0.24,20.22 0.13,20.24 0.03,20.27 -0.07,20.25 -0.17,20.24 -0.27,20.20 -0.36,20.15 -0.44,20.08 -0.52,20.01 -0.57,19.91 -0.62,19.82 -0.63,19.71 -0.65,19.61 -0.65,19.61 -0.65,19.61 -1.21,16.33 -1.77,13.05 -1.78,10.03 -1.79,7.00 -1.78,5.07 -1.77,3.14 -1.31,1.57 -0.84,0 -0.83,-0.10 -0.82,-0.20 -0.78,-0.29 -0.74,-0.39 -0.69,-0.47 -0.63,-0.56 -0.55,-0.62 -0.48,-0.69 -0.39,-0.74 -0.29,-0.79 -0.20,-0.81 -0.10,-0.83 0.00,-0.83 0.10,-0.83 0.20,-0.81 0.29,-0.79 0.39,-0.74 0.48,-0.69 0.55,-0.62 0.63,-0.56 0.69,-0.47 0.74,-0.39 0.78,-0.29 0.82,-0.20 0.83,-0.10 0.84,0.00 0.84,0.00 L 0.84,0 Z"></path></g><g transform="translate(109.685546875 52.72236633300781) rotate(0 1.095428466796875 0.5477294921875)" stroke="none"><path fill="#000000" d="M 0.46,-0.93 Q 0.46,-0.93 1.01,-0.44 1.55,0.04 1.63,0.10 1.72,0.16 1.78,0.25 1.84,0.34 1.87,0.44 1.91,0.54 1.90,0.64 1.90,0.75 1.86,0.85 1.83,0.95 1.76,1.03 1.69,1.12 1.60,1.17 1.51,1.23 1.41,1.25 1.31,1.28 1.20,1.27 1.09,1.26 1.00,1.22 0.90,1.18 0.82,1.11 0.74,1.03 0.69,0.94 0.64,0.85 0.62,0.74 0.60,0.64 0.61,0.54 0.63,0.43 0.68,0.33 0.72,0.24 0.80,0.17 0.87,0.09 0.97,0.04 1.06,0.00 1.17,-0.01 1.27,-0.02 1.38,-0.00 1.48,0.01 1.58,0.06 1.67,0.11 1.74,0.19 1.81,0.27 1.85,0.37 1.89,0.47 1.90,0.57 1.91,0.68 1.88,0.78 1.86,0.89 1.80,0.98 1.74,1.07 1.66,1.13 1.58,1.20 1.48,1.23 1.38,1.27 1.27,1.27 1.16,1.28 1.06,1.24 0.96,1.21 0.96,1.21 0.96,1.21 0.24,1.07 -0.46,0.93 -0.57,0.86 -0.68,0.79 -0.76,0.70 -0.85,0.61 -0.91,0.50 -0.97,0.39 -1.00,0.26 -1.03,0.14 -1.04,0.02 -1.04,-0.10 -1.01,-0.22 -0.98,-0.35 -0.93,-0.46 -0.87,-0.57 -0.79,-0.67 -0.71,-0.77 -0.60,-0.84 -0.50,-0.92 -0.38,-0.96 -0.27,-1.01 -0.14,-1.03 -0.02,-1.05 0.10,-1.03 0.23,-1.02 0.35,-0.98 0.46,-0.93 0.46,-0.93 L 0.46,-0.93 Z"></path></g><g transform="translate(119.5445556640625 57.10414123535156) rotate(0 7.668121337890625 15.883956909179688)" stroke="none"><path fill="#000000" d="M 0.94,0 Q 0.94,0 1.23,1.88 1.52,3.77 1.89,6.04 2.26,8.31 2.42,11.60 2.57,14.89 2.63,17.53 2.69,20.17 3.01,21.78 3.33,23.38 3.44,24.45 3.55,25.51 3.57,25.71 3.58,25.90 3.55,26.09 3.51,26.28 3.44,26.46 3.36,26.64 3.24,26.79 3.12,26.94 2.97,27.07 2.82,27.19 2.64,27.27 2.47,27.35 2.28,27.39 2.09,27.42 1.89,27.41 1.70,27.40 1.51,27.35 1.33,27.29 1.16,27.19 0.99,27.10 0.86,26.96 0.72,26.82 0.61,26.66 0.51,26.49 0.45,26.31 0.39,26.13 0.53,25.55 0.67,24.97 1.37,23.03 2.08,21.08 3.00,18.65 3.93,16.21 4.98,14.17 6.03,12.13 7.21,10.51 8.40,8.89 10.17,8.45 11.93,8.00 13.11,8.94 14.29,9.88 14.82,11.80 15.35,13.73 15.52,16.10 15.69,18.46 15.76,21.03 15.82,23.60 15.79,27.27 15.75,30.93 15.77,31.04 15.78,31.14 15.77,31.25 15.75,31.35 15.70,31.45 15.65,31.54 15.57,31.61 15.49,31.69 15.39,31.73 15.30,31.77 15.19,31.78 15.09,31.79 14.98,31.77 14.88,31.75 14.79,31.69 14.70,31.64 14.63,31.55 14.56,31.47 14.52,31.37 14.48,31.27 14.48,31.17 14.47,31.06 14.50,30.96 14.53,30.86 14.59,30.77 14.65,30.68 14.74,30.62 14.82,30.56 14.92,30.52 15.03,30.49 15.13,30.49 15.24,30.49 15.34,30.53 15.44,30.56 15.52,30.63 15.61,30.69 15.67,30.78 15.72,30.87 15.75,30.97 15.78,31.07 15.77,31.18 15.77,31.29 15.73,31.38 15.69,31.48 15.62,31.56 15.55,31.64 15.46,31.70 15.36,31.75 15.26,31.77 15.16,31.79 15.05,31.78 14.95,31.77 14.85,31.72 14.75,31.68 14.68,31.61 14.60,31.53 14.55,31.44 14.50,31.34 14.50,31.34 14.50,31.34 13.49,27.51 12.47,23.67 12.42,21.17 12.36,18.67 12.25,16.53 12.14,14.38 12.02,13.09 11.89,11.81 11.13,11.29 10.36,10.77 9.42,12.09 8.49,13.40 7.50,15.30 6.52,17.19 5.63,19.58 4.74,21.97 4.15,23.74 3.55,25.51 3.57,25.71 3.58,25.90 3.55,26.09 3.51,26.28 3.44,26.46 3.36,26.64 3.24,26.79 3.12,26.94 2.97,27.07 2.82,27.19 2.64,27.27 2.47,27.35 2.28,27.39 2.09,27.42 1.89,27.41 1.70,27.40 1.51,27.35 1.33,27.29 1.16,27.19 0.99,27.10 0.86,26.96 0.72,26.82 0.61,26.66 0.51,26.49 0.45,26.31 0.39,26.13 0.21,25.07 0.04,24.02 -0.31,22.14 -0.66,20.25 -0.72,17.64 -0.78,15.03 -0.89,11.89 -1.00,8.75 -1.26,6.26 -1.52,3.78 -1.23,1.89 -0.94,0 -0.93,-0.11 -0.92,-0.22 -0.88,-0.33 -0.84,-0.44 -0.77,-0.53 -0.71,-0.62 -0.62,-0.70 -0.53,-0.78 -0.43,-0.83 -0.33,-0.88 -0.22,-0.91 -0.11,-0.94 0.00,-0.94 0.11,-0.94 0.22,-0.91 0.33,-0.88 0.43,-0.83 0.53,-0.78 0.62,-0.70 0.71,-0.62 0.77,-0.53 0.84,-0.44 0.88,-0.33 0.92,-0.22 0.93,-0.11 0.94,0.00 0.94,0.00 L 0.94,0 Z"></path></g><g transform="translate(169.93499755859375 22.049911499023438) rotate(0 -8.7635498046875 47.10414123535156)" stroke="none"><path fill="#000000" d="M 0.73,0.73 Q 0.73,0.73 0.03,1.91 -0.65,3.10 -1.53,4.63 -2.42,6.16 -3.44,8.09 -4.45,10.02 -5.46,13.22 -6.47,16.42 -7.53,21.84 -8.59,27.25 -10.29,36.52 -11.99,45.79 -13.02,53.16 -14.05,60.52 -14.48,65.51 -14.92,70.50 -14.81,74.09 -14.70,77.69 -14.19,80.70 -13.68,83.71 -11.96,87.89 -10.25,92.06 -10.21,92.16 -10.18,92.26 -10.18,92.37 -10.18,92.48 -10.21,92.58 -10.25,92.68 -10.31,92.76 -10.38,92.85 -10.46,92.91 -10.55,92.97 -10.65,93.00 -10.76,93.02 -10.86,93.02 -10.97,93.01 -11.07,92.97 -11.17,92.93 -11.25,92.87 -11.33,92.80 -11.38,92.71 -11.44,92.62 -11.46,92.51 -11.48,92.41 -11.47,92.30 -11.46,92.20 -11.42,92.10 -11.37,92.00 -11.30,91.93 -11.23,91.85 -11.13,91.80 -11.04,91.75 -10.93,91.73 -10.83,91.72 -10.72,91.73 -10.62,91.75 -10.53,91.80 -10.43,91.85 -10.36,91.93 -10.28,92.00 -10.24,92.10 -10.20,92.20 -10.18,92.30 -10.17,92.41 -10.19,92.51 -10.22,92.61 -10.27,92.71 -10.33,92.80 -10.41,92.87 -10.49,92.93 -10.59,92.97 -10.69,93.01 -10.79,93.02 -10.90,93.02 -11.00,93.00 -11.10,92.97 -11.19,92.91 -11.28,92.85 -11.34,92.76 -11.41,92.68 -11.41,92.68 -11.41,92.68 -14.11,88.55 -16.82,84.42 -17.67,81.12 -18.52,77.83 -18.67,73.99 -18.81,70.15 -18.35,65.07 -17.90,59.98 -16.83,52.53 -15.77,45.09 -14.02,35.81 -12.27,26.53 -11.15,20.90 -10.03,15.27 -8.87,11.77 -7.71,8.26 -6.60,6.26 -5.48,4.26 -4.30,2.46 -3.12,0.67 -1.92,-0.02 -0.73,-0.73 -0.63,-0.80 -0.53,-0.88 -0.42,-0.93 -0.30,-0.98 -0.18,-1.00 -0.06,-1.03 0.06,-1.02 0.18,-1.01 0.30,-0.97 0.42,-0.94 0.53,-0.87 0.63,-0.81 0.72,-0.72 0.81,-0.63 0.87,-0.53 0.94,-0.42 0.97,-0.30 1.01,-0.18 1.02,-0.06 1.03,0.06 1.00,0.18 0.98,0.30 0.93,0.42 0.88,0.53 0.80,0.63 0.73,0.73 0.73,0.73 L 0.73,0.73 Z"></path></g><g transform="translate(180.88946533203125 40.67247009277344) rotate(0 16.431671142578125 -7.668113708496094)" stroke="none"><path fill="#000000" d="M -0.67,-0.67 Q -0.67,-0.67 -0.19,-1.45 0.28,-2.23 2.17,-3.80 4.06,-5.37 6.18,-6.71 8.29,-8.04 10.18,-8.95 12.06,-9.85 13.93,-10.27 15.79,-10.68 17.22,-10.86 18.64,-11.03 20.21,-11.10 21.78,-11.18 23.59,-11.51 25.40,-11.85 26.75,-12.26 28.11,-12.67 30.06,-13.99 32.01,-15.32 32.09,-15.39 32.17,-15.46 32.27,-15.51 32.36,-15.55 32.47,-15.56 32.58,-15.57 32.68,-15.54 32.78,-15.52 32.87,-15.46 32.96,-15.40 33.03,-15.32 33.10,-15.24 33.13,-15.14 33.17,-15.04 33.17,-14.93 33.18,-14.83 33.15,-14.73 33.12,-14.63 33.06,-14.54 32.99,-14.45 32.91,-14.39 32.82,-14.33 32.72,-14.29 32.62,-14.26 32.51,-14.27 32.41,-14.27 32.31,-14.30 32.21,-14.34 32.12,-14.41 32.04,-14.47 31.98,-14.56 31.93,-14.65 31.90,-14.75 31.87,-14.86 31.88,-14.96 31.89,-15.07 31.93,-15.17 31.97,-15.26 32.04,-15.34 32.11,-15.42 32.20,-15.47 32.30,-15.53 32.40,-15.55 32.50,-15.57 32.61,-15.56 32.72,-15.54 32.81,-15.50 32.91,-15.45 32.98,-15.37 33.06,-15.30 33.11,-15.20 33.15,-15.11 33.17,-15.00 33.18,-14.90 33.16,-14.79 33.14,-14.69 33.09,-14.60 33.04,-14.50 33.04,-14.50 33.04,-14.50 31.01,-12.28 28.97,-10.06 27.44,-9.55 25.91,-9.04 23.91,-8.69 21.91,-8.34 20.43,-8.28 18.96,-8.22 17.67,-8.08 16.37,-7.94 14.81,-7.63 13.24,-7.32 11.50,-6.51 9.76,-5.69 7.79,-4.47 5.82,-3.25 4.02,-1.76 2.23,-0.28 1.45,0.19 0.67,0.67 0.58,0.74 0.49,0.81 0.38,0.85 0.28,0.90 0.16,0.92 0.05,0.94 -0.05,0.94 -0.17,0.93 -0.28,0.89 -0.38,0.86 -0.48,0.80 -0.58,0.74 -0.66,0.66 -0.74,0.58 -0.80,0.48 -0.86,0.38 -0.89,0.28 -0.93,0.17 -0.94,0.05 -0.94,-0.05 -0.92,-0.16 -0.90,-0.28 -0.85,-0.38 -0.81,-0.49 -0.74,-0.58 -0.67,-0.67 -0.67,-0.67 L -0.67,-0.67 Z"></path></g><g transform="translate(192.93939208984375 31.908905029296875) rotate(0 -2.190887451171875 14.788505554199219)" stroke="none"><path fill="#000000" d="M 0.98,0 Q 0.98,0 1.34,2.20 1.71,4.41 1.40,7.33 1.09,10.25 0.31,13.45 -0.46,16.66 -1.19,20.41 -1.91,24.16 -2.78,25.30 -3.66,26.44 -3.68,26.51 -3.70,26.59 -3.74,26.66 -3.78,26.73 -3.84,26.78 -3.89,26.84 -3.96,26.88 -4.03,26.92 -4.10,26.95 -4.18,26.97 -4.25,26.98 -4.33,26.99 -4.41,26.97 -4.49,26.96 -4.56,26.93 -4.63,26.90 -4.70,26.85 -4.76,26.80 -4.81,26.74 -4.86,26.68 -4.89,26.61 -4.93,26.54 -4.94,26.46 -4.96,26.38 -4.96,26.30 -4.95,26.22 -4.88,26.49 -4.81,26.75 -4.86,26.66 -4.92,26.57 -4.94,26.46 -4.96,26.36 -4.95,26.25 -4.93,26.15 -4.89,26.05 -4.84,25.96 -4.77,25.88 -4.70,25.80 -4.60,25.75 -4.51,25.71 -4.40,25.69 -4.30,25.67 -4.19,25.69 -4.09,25.71 -3.99,25.76 -3.90,25.81 -3.83,25.89 -3.76,25.97 -3.71,26.07 -3.67,26.16 -3.66,26.27 -3.65,26.37 -3.67,26.48 -3.70,26.58 -3.75,26.67 -3.81,26.76 -3.89,26.83 -3.97,26.90 -4.07,26.94 -4.17,26.97 -4.28,26.98 -4.38,26.98 -4.48,26.95 -4.59,26.92 -4.67,26.86 -4.76,26.80 -4.82,26.72 -4.89,26.63 -4.92,26.53 -4.95,26.43 -4.95,26.32 -4.95,26.22 -4.92,26.12 -4.88,26.02 -4.82,25.93 -4.75,25.85 -4.66,25.79 -4.57,25.73 -4.47,25.70 -4.37,25.68 -4.26,25.68 -4.16,25.69 -4.06,25.73 -3.96,25.77 -3.81,26.11 -3.66,26.44 -3.68,26.51 -3.70,26.59 -3.74,26.66 -3.78,26.73 -3.84,26.78 -3.89,26.84 -3.96,26.88 -4.03,26.92 -4.10,26.95 -4.18,26.97 -4.25,26.98 -4.33,26.99 -4.41,26.97 -4.49,26.96 -4.56,26.93 -4.63,26.90 -4.70,26.85 -4.76,26.80 -4.81,26.74 -4.86,26.68 -4.89,26.61 -4.93,26.54 -4.94,26.46 -4.96,26.38 -4.96,26.30 -4.95,26.22 -4.95,24.94 -4.95,23.65 -4.40,19.74 -3.84,15.82 -3.10,12.84 -2.35,9.86 -2.03,7.13 -1.71,4.40 -1.34,2.20 -0.98,0 -0.96,-0.11 -0.95,-0.23 -0.90,-0.34 -0.86,-0.45 -0.80,-0.55 -0.73,-0.65 -0.64,-0.72 -0.55,-0.80 -0.45,-0.86 -0.34,-0.91 -0.23,-0.94 -0.11,-0.97 0.00,-0.97 0.11,-0.97 0.23,-0.94 0.34,-0.91 0.45,-0.86 0.55,-0.80 0.64,-0.72 0.73,-0.64 0.80,-0.55 0.86,-0.45 0.90,-0.34 0.95,-0.23 0.96,-0.11 0.98,0.00 0.98,0.00 L 0.98,0 Z"></path></g><g transform="translate(204.9892578125 29.718017578125) rotate(0 -3.83404541015625 18.074851989746094)" stroke="none"><path fill="#000000" d="M 0.98,0 Q 0.98,0 1.33,0.94 1.69,1.88 1.70,3.55 1.71,5.21 1.08,8.90 0.44,12.59 -0.46,16.35 -1.38,20.11 -2.15,23.53 -2.92,26.95 -3.89,29.31 -4.87,31.68 -5.78,33.62 -6.70,35.56 -6.76,35.65 -6.81,35.74 -6.90,35.81 -6.98,35.87 -7.08,35.91 -7.18,35.95 -7.28,35.95 -7.39,35.95 -7.49,35.92 -7.59,35.89 -7.68,35.83 -7.77,35.77 -7.83,35.68 -7.89,35.59 -7.92,35.49 -7.95,35.39 -7.95,35.28 -7.95,35.18 -7.91,35.08 -7.87,34.98 -7.81,34.90 -7.74,34.81 -7.65,34.76 -7.56,34.70 -7.46,34.67 -7.36,34.65 -7.25,34.66 -7.14,34.66 -7.05,34.71 -6.95,34.75 -6.87,34.82 -6.79,34.89 -6.74,34.98 -6.69,35.07 -6.67,35.18 -6.65,35.28 -6.66,35.39 -6.67,35.49 -6.72,35.59 -6.77,35.68 -6.84,35.76 -6.92,35.83 -7.01,35.88 -7.11,35.93 -7.21,35.94 -7.32,35.96 -7.42,35.94 -7.53,35.92 -7.62,35.87 -7.71,35.81 -7.78,35.73 -7.85,35.66 -7.90,35.56 -7.94,35.46 -7.95,35.35 -7.96,35.25 -7.93,35.15 -7.91,35.04 -7.91,35.04 -7.91,35.04 -7.18,33.16 -6.46,31.27 -6.22,28.80 -5.97,26.33 -5.35,22.82 -4.72,19.30 -3.84,15.64 -2.96,11.99 -2.34,8.59 -1.71,5.20 -1.70,3.54 -1.69,1.88 -1.33,0.94 -0.98,0 -0.97,-0.11 -0.95,-0.23 -0.91,-0.34 -0.87,-0.45 -0.80,-0.55 -0.73,-0.65 -0.65,-0.73 -0.56,-0.81 -0.45,-0.86 -0.35,-0.92 -0.23,-0.95 -0.11,-0.98 0.00,-0.98 0.11,-0.98 0.23,-0.95 0.35,-0.92 0.45,-0.86 0.56,-0.81 0.65,-0.73 0.73,-0.65 0.80,-0.55 0.87,-0.45 0.91,-0.34 0.95,-0.23 0.97,-0.11 0.98,0.00 0.98,0.00 L 0.98,0 Z"></path></g><g transform="translate(175.4122314453125 80.10850524902344) rotate(0 21.361175537109375 -9.311294555664062)" stroke="none"><path fill="#000000" d="M 0.99,0 Q 0.99,0 0.65,-0.39 0.31,-0.78 1.48,-0.75 2.66,-0.73 4.81,-1.31 6.97,-1.89 10.39,-3.35 13.81,-4.81 17.82,-6.66 21.83,-8.51 26.45,-10.94 31.07,-13.36 34.68,-15.27 38.29,-17.19 39.78,-18.07 41.27,-18.96 41.37,-19.00 41.47,-19.04 41.58,-19.05 41.68,-19.05 41.79,-19.02 41.89,-18.99 41.98,-18.93 42.06,-18.87 42.13,-18.79 42.19,-18.70 42.22,-18.60 42.26,-18.50 42.26,-18.40 42.26,-18.29 42.22,-18.19 42.19,-18.09 42.12,-18.01 42.06,-17.92 41.97,-17.86 41.88,-17.80 41.78,-17.77 41.68,-17.75 41.57,-17.75 41.47,-17.76 41.37,-17.80 41.27,-17.84 41.19,-17.91 41.11,-17.98 41.05,-18.07 41.00,-18.16 40.98,-18.26 40.95,-18.37 40.97,-18.47 40.98,-18.58 41.02,-18.67 41.07,-18.77 41.14,-18.85 41.21,-18.92 41.31,-18.97 41.40,-19.02 41.51,-19.04 41.61,-19.06 41.72,-19.04 41.82,-19.02 41.92,-18.97 42.01,-18.92 42.08,-18.84 42.15,-18.77 42.20,-18.67 42.24,-18.57 42.25,-18.47 42.27,-18.36 42.24,-18.26 42.22,-18.15 42.16,-18.06 42.11,-17.97 42.03,-17.90 41.95,-17.84 41.95,-17.84 41.95,-17.84 40.46,-16.95 38.96,-16.06 35.56,-13.79 32.16,-11.52 27.69,-8.55 23.21,-5.58 19.17,-3.64 15.12,-1.69 11.44,-0.15 7.76,1.39 5.06,1.96 2.37,2.53 1.02,2.28 -0.31,2.03 -0.65,1.01 -0.99,0 -0.98,-0.11 -0.96,-0.23 -0.92,-0.35 -0.88,-0.46 -0.81,-0.56 -0.74,-0.66 -0.65,-0.74 -0.56,-0.82 -0.46,-0.87 -0.35,-0.93 -0.23,-0.96 -0.12,-0.99 0.00,-0.99 0.12,-0.99 0.23,-0.96 0.35,-0.93 0.46,-0.87 0.56,-0.82 0.65,-0.74 0.74,-0.66 0.81,-0.56 0.88,-0.46 0.92,-0.35 0.96,-0.23 0.98,-0.11 0.99,0.00 0.99,0.00 L 0.99,0 Z"></path></g><g transform="translate(194.0347900390625 84.49028015136719) rotate(0 3.286376953125 10.406723022460938)" stroke="none"><path fill="#000000" d="M 0.77,0.25 Q 0.77,0.25 0.91,1.35 1.05,2.45 0.29,4.47 -0.46,6.49 -0.74,7.83 -1.02,9.17 -1.47,11.07 -1.93,12.97 -2.45,14.76 -2.97,16.55 -3.19,17.41 -3.41,18.27 -1.00,17.10 1.40,15.93 3.31,14.64 5.23,13.35 7.83,10.45 10.43,7.55 10.51,7.48 10.59,7.41 10.69,7.36 10.78,7.32 10.89,7.31 10.99,7.30 11.10,7.33 11.20,7.35 11.29,7.41 11.38,7.46 11.45,7.55 11.51,7.63 11.55,7.73 11.59,7.83 11.59,7.93 11.60,8.04 11.57,8.14 11.54,8.24 11.48,8.33 11.41,8.42 11.33,8.48 11.24,8.54 11.14,8.58 11.04,8.61 10.93,8.60 10.83,8.60 10.73,8.57 10.63,8.53 10.54,8.47 10.46,8.40 10.40,8.31 10.34,8.22 10.32,8.12 10.29,8.02 10.30,7.91 10.31,7.80 10.35,7.71 10.39,7.61 10.46,7.53 10.53,7.45 10.62,7.40 10.71,7.34 10.82,7.32 10.92,7.30 11.03,7.31 11.13,7.33 11.23,7.37 11.32,7.42 11.40,7.50 11.48,7.57 11.52,7.66 11.57,7.76 11.59,7.86 11.60,7.97 11.58,8.07 11.56,8.18 11.51,8.27 11.46,8.36 11.46,8.36 11.46,8.36 9.08,11.77 6.69,15.17 4.82,16.88 2.95,18.58 0.47,20.09 -2.01,21.59 -3.26,21.54 -4.52,21.50 -5.42,20.68 -6.32,19.86 -6.61,18.95 -6.90,18.04 -6.69,16.78 -6.48,15.53 -5.98,13.82 -5.48,12.12 -5.03,10.25 -4.58,8.38 -4.22,6.78 -3.85,5.18 -3.08,3.25 -2.31,1.32 -1.54,0.53 -0.77,-0.25 -0.73,-0.34 -0.68,-0.43 -0.62,-0.51 -0.56,-0.58 -0.48,-0.64 -0.40,-0.70 -0.31,-0.74 -0.22,-0.78 -0.13,-0.79 -0.03,-0.81 0.06,-0.80 0.16,-0.79 0.25,-0.76 0.34,-0.73 0.43,-0.68 0.51,-0.63 0.58,-0.56 0.65,-0.49 0.70,-0.40 0.75,-0.32 0.77,-0.22 0.80,-0.13 0.80,-0.03 0.81,0.06 0.79,0.16 0.77,0.25 0.77,0.25 L 0.77,0.25 Z"></path></g><g transform="translate(203.893798828125 83.39482116699219) rotate(0 -2.190887451171875 13.693069458007812)" stroke="none"><path fill="#000000" d="M 0.69,0.69 Q 0.69,0.69 -0.00,1.87 -0.71,3.06 -1.28,3.99 -1.85,4.93 -2.02,5.75 -2.18,6.57 -2.26,8.42 -2.33,10.26 -2.38,13.28 -2.44,16.31 -2.49,18.86 -2.54,21.42 -2.68,22.38 -2.82,23.34 -2.83,23.42 -2.84,23.49 -2.87,23.57 -2.90,23.64 -2.94,23.71 -2.99,23.77 -3.05,23.82 -3.11,23.88 -3.18,23.91 -3.25,23.95 -3.33,23.97 -3.40,23.98 -3.48,23.98 -3.56,23.98 -3.64,23.96 -3.72,23.94 -3.78,23.91 -3.85,23.87 -3.91,23.82 -3.97,23.76 -4.02,23.70 -4.06,23.63 -4.09,23.56 -4.12,23.48 -4.12,23.40 -4.13,23.33 -4.02,23.08 -3.91,22.84 -3.82,22.78 -3.73,22.72 -3.62,22.70 -3.52,22.68 -3.41,22.69 -3.31,22.70 -3.21,22.74 -3.11,22.78 -3.04,22.86 -2.96,22.93 -2.91,23.02 -2.86,23.12 -2.84,23.22 -2.82,23.32 -2.84,23.43 -2.85,23.53 -2.90,23.63 -2.95,23.72 -3.03,23.80 -3.10,23.87 -3.20,23.92 -3.29,23.96 -3.40,23.98 -3.51,23.99 -3.61,23.97 -3.71,23.94 -3.80,23.89 -3.90,23.84 -3.97,23.76 -4.04,23.68 -4.08,23.58 -4.12,23.48 -4.12,23.37 -4.13,23.27 -4.10,23.16 -4.08,23.06 -4.02,22.97 -3.96,22.89 -3.87,22.82 -3.79,22.75 -3.69,22.72 -3.59,22.68 -3.48,22.68 -3.38,22.68 -3.28,22.72 -3.17,22.75 -3.09,22.81 -3.00,22.88 -2.94,22.96 -2.88,23.05 -2.85,23.15 -2.82,23.25 -2.83,23.36 -2.83,23.47 -2.87,23.57 -2.91,23.66 -2.87,23.50 -2.82,23.34 -2.83,23.42 -2.84,23.49 -2.87,23.57 -2.90,23.64 -2.94,23.71 -2.99,23.77 -3.05,23.82 -3.11,23.88 -3.18,23.91 -3.25,23.95 -3.33,23.97 -3.40,23.98 -3.48,23.98 -3.56,23.98 -3.64,23.96 -3.71,23.94 -3.78,23.91 -3.85,23.87 -3.91,23.82 -3.97,23.76 -4.02,23.70 -4.06,23.63 -4.09,23.56 -4.12,23.48 -4.12,23.40 -4.13,23.33 -5.14,22.36 -6.15,21.38 -6.15,18.81 -6.15,16.24 -6.10,13.13 -6.04,10.02 -5.85,7.81 -5.67,5.60 -5.23,4.28 -4.78,2.97 -3.92,1.84 -3.06,0.71 -1.88,0.01 -0.69,-0.69 -0.60,-0.76 -0.50,-0.84 -0.40,-0.89 -0.29,-0.93 -0.17,-0.96 -0.05,-0.98 0.05,-0.97 0.17,-0.96 0.29,-0.93 0.40,-0.89 0.50,-0.83 0.60,-0.77 0.69,-0.69 0.77,-0.60 0.83,-0.50 0.89,-0.40 0.93,-0.29 0.96,-0.17 0.97,-0.05 0.98,0.05 0.96,0.17 0.93,0.29 0.89,0.40 0.84,0.50 0.76,0.60 0.69,0.69 0.69,0.69 L 0.69,0.69 Z"></path></g><g transform="translate(237.85260009765625 29.718017578125) rotate(0 1.6431884765625 41.079200744628906)" stroke="none"><path fill="#000000" d="M 0.79,-0.53 Q 0.79,-0.53 1.65,0.25 2.51,1.05 3.17,2.10 3.82,3.16 4.73,4.87 5.65,6.58 6.65,8.19 7.65,9.81 8.81,13.20 9.96,16.59 10.47,20.00 10.98,23.41 11.51,26.99 12.03,30.58 12.26,34.39 12.49,38.19 12.27,42.09 12.05,45.99 11.97,50.40 11.89,54.81 11.53,58.35 11.17,61.90 10.36,64.79 9.54,67.68 8.52,69.93 7.49,72.18 5.33,74.54 3.16,76.91 1.26,78.48 -0.63,80.06 -2.19,81.01 -3.75,81.96 -5.78,81.31 -7.80,80.67 -7.88,80.59 -7.95,80.52 -8.00,80.43 -8.05,80.33 -8.06,80.23 -8.08,80.12 -8.06,80.02 -8.04,79.91 -7.99,79.82 -7.94,79.73 -7.86,79.65 -7.78,79.58 -7.68,79.54 -7.58,79.50 -7.48,79.49 -7.37,79.48 -7.27,79.50 -7.17,79.53 -7.08,79.59 -6.99,79.64 -6.92,79.73 -6.85,79.81 -6.81,79.91 -6.78,80.01 -6.77,80.11 -6.77,80.22 -6.80,80.32 -6.83,80.42 -6.89,80.51 -6.95,80.60 -7.04,80.66 -7.13,80.72 -7.23,80.75 -7.33,80.78 -7.44,80.78 -7.54,80.78 -7.64,80.74 -7.74,80.71 -7.82,80.64 -7.91,80.58 -7.97,80.49 -8.02,80.40 -8.05,80.29 -8.08,80.19 -8.07,80.08 -8.06,79.98 -8.02,79.88 -7.98,79.78 -7.91,79.70 -7.84,79.62 -7.74,79.57 -7.65,79.52 -7.55,79.50 -7.44,79.48 -7.34,79.49 -7.23,79.51 -7.14,79.55 -7.04,79.60 -7.04,79.60 -7.04,79.60 -6.16,79.54 -5.27,79.48 -4.06,78.48 -2.84,77.49 -1.17,75.97 0.50,74.45 2.30,72.51 4.10,70.57 5.00,68.60 5.90,66.64 6.65,64.07 7.40,61.50 7.75,58.11 8.10,54.73 8.21,50.25 8.31,45.77 8.54,42.09 8.77,38.40 8.57,34.75 8.38,31.09 7.89,27.50 7.40,23.90 7.01,20.79 6.62,17.67 5.67,14.61 4.72,11.55 3.71,9.83 2.70,8.11 1.86,6.42 1.02,4.74 0.51,3.73 0.00,2.72 -0.39,1.63 -0.79,0.53 -0.85,0.42 -0.90,0.32 -0.92,0.21 -0.95,0.10 -0.95,-0.01 -0.95,-0.13 -0.92,-0.24 -0.89,-0.35 -0.83,-0.45 -0.78,-0.55 -0.70,-0.64 -0.62,-0.72 -0.52,-0.79 -0.43,-0.85 -0.32,-0.89 -0.21,-0.93 -0.09,-0.94 0.01,-0.96 0.13,-0.94 0.24,-0.92 0.35,-0.88 0.46,-0.84 0.55,-0.77 0.64,-0.70 0.72,-0.62 0.79,-0.53 0.79,-0.53 L 0.79,-0.53 Z"></path></g><g transform="translate(269.62054443359375 69.15403747558594) rotate(0 11.502166748046875 1.6431732177734375)" stroke="none"><path fill="#000000" d="M 0.20,-1.22 Q 0.20,-1.22 2.15,-1.24 4.09,-1.26 7.08,-0.79 10.07,-0.32 12.52,0.01 14.98,0.34 17.03,1.11 19.08,1.87 20.71,2.20 22.35,2.53 22.46,2.56 22.56,2.59 22.64,2.65 22.73,2.71 22.79,2.80 22.85,2.89 22.88,2.99 22.91,3.09 22.91,3.20 22.91,3.30 22.87,3.40 22.83,3.50 22.76,3.59 22.70,3.67 22.61,3.72 22.52,3.78 22.41,3.81 22.31,3.83 22.20,3.82 22.10,3.81 22.00,3.77 21.90,3.73 21.83,3.65 21.75,3.58 21.69,3.49 21.64,3.40 21.62,3.29 21.60,3.19 21.62,3.08 21.63,2.98 21.68,2.88 21.73,2.79 21.81,2.71 21.88,2.64 21.98,2.59 22.07,2.55 22.18,2.53 22.28,2.52 22.39,2.54 22.49,2.56 22.58,2.61 22.68,2.67 22.75,2.75 22.82,2.83 22.86,2.92 22.90,3.02 22.91,3.13 22.92,3.23 22.89,3.34 22.86,3.44 22.80,3.53 22.75,3.62 22.66,3.68 22.58,3.75 22.48,3.79 22.38,3.82 22.27,3.82 22.17,3.83 22.17,3.83 22.17,3.83 20.46,3.68 18.75,3.53 16.75,3.49 14.75,3.46 12.13,3.42 9.51,3.37 6.49,2.95 3.46,2.52 1.62,1.87 -0.20,1.22 -0.34,1.18 -0.49,1.14 -0.62,1.06 -0.75,0.99 -0.86,0.88 -0.96,0.78 -1.04,0.65 -1.12,0.52 -1.17,0.38 -1.22,0.24 -1.23,0.09 -1.24,-0.05 -1.21,-0.20 -1.19,-0.35 -1.13,-0.48 -1.07,-0.62 -0.98,-0.74 -0.89,-0.86 -0.77,-0.96 -0.66,-1.05 -0.52,-1.11 -0.38,-1.18 -0.24,-1.21 -0.09,-1.24 0.05,-1.23 0.20,-1.22 0.20,-1.22 L 0.20,-1.22 Z"></path></g><g transform="translate(278.38409423828125 79.01304626464844) rotate(0 9.8590087890625 3.2863311767578125)" stroke="none"><path fill="#000000" d="M 0,-0.72 Q 0,-0.72 1.89,-1.13 3.78,-1.55 5.95,-1.20 8.13,-0.85 10.37,0.03 12.62,0.93 15.65,3.06 18.68,5.20 18.76,5.27 18.85,5.34 18.90,5.43 18.96,5.52 18.98,5.62 19.01,5.73 19.00,5.83 18.99,5.94 18.94,6.04 18.90,6.13 18.83,6.21 18.75,6.29 18.66,6.34 18.57,6.39 18.46,6.41 18.36,6.43 18.25,6.41 18.15,6.39 18.05,6.35 17.96,6.30 17.89,6.22 17.81,6.15 17.77,6.05 17.72,5.95 17.71,5.85 17.70,5.74 17.72,5.64 17.74,5.53 17.79,5.44 17.85,5.35 17.93,5.28 18.01,5.21 18.10,5.17 18.20,5.13 18.31,5.12 18.41,5.12 18.52,5.14 18.62,5.17 18.71,5.23 18.80,5.29 18.86,5.37 18.93,5.46 18.96,5.56 19.00,5.66 19.00,5.76 19.00,5.87 18.97,5.97 18.93,6.07 18.87,6.16 18.81,6.24 18.72,6.30 18.63,6.36 18.53,6.39 18.43,6.42 18.32,6.42 18.22,6.41 18.12,6.37 18.02,6.34 18.02,6.34 18.02,6.34 14.87,4.86 11.73,3.38 9.70,2.75 7.67,2.11 5.72,1.83 3.77,1.55 1.88,1.13 0,0.72 -0.08,0.71 -0.17,0.70 -0.25,0.67 -0.33,0.64 -0.40,0.59 -0.47,0.54 -0.53,0.47 -0.59,0.41 -0.63,0.33 -0.67,0.25 -0.69,0.17 -0.71,0.08 -0.71,-0.00 -0.71,-0.08 -0.69,-0.17 -0.67,-0.25 -0.63,-0.33 -0.59,-0.41 -0.53,-0.47 -0.47,-0.54 -0.40,-0.59 -0.33,-0.64 -0.25,-0.67 -0.17,-0.70 -0.08,-0.71 0.00,-0.72 0.00,-0.72 L 0,-0.72 Z"></path></g><g transform="translate(315.62921142578125 74.63127136230469) rotate(0 10.40673828125 -1.6431732177734375)" stroke="none"><path fill="#000000" d="M 0,-1.11 Q 0,-1.11 1.25,-1.57 2.51,-2.02 4.81,-2.32 7.10,-2.63 9.33,-3.07 11.56,-3.51 13.24,-3.64 14.93,-3.78 17.28,-3.72 19.63,-3.67 19.74,-3.68 19.84,-3.69 19.95,-3.66 20.05,-3.63 20.14,-3.58 20.23,-3.52 20.29,-3.44 20.36,-3.35 20.40,-3.25 20.43,-3.15 20.43,-3.05 20.44,-2.94 20.41,-2.84 20.37,-2.74 20.31,-2.65 20.25,-2.57 20.16,-2.50 20.08,-2.44 19.97,-2.41 19.87,-2.38 19.77,-2.38 19.66,-2.39 19.56,-2.43 19.46,-2.46 19.38,-2.53 19.30,-2.60 19.24,-2.69 19.18,-2.78 19.16,-2.88 19.13,-2.98 19.14,-3.09 19.15,-3.19 19.19,-3.29 19.24,-3.39 19.31,-3.47 19.38,-3.55 19.47,-3.60 19.56,-3.65 19.67,-3.67 19.77,-3.69 19.88,-3.67 19.98,-3.66 20.08,-3.61 20.17,-3.56 20.25,-3.49 20.32,-3.41 20.37,-3.32 20.42,-3.22 20.43,-3.12 20.44,-3.01 20.42,-2.91 20.40,-2.80 20.35,-2.71 20.30,-2.62 20.22,-2.55 20.14,-2.48 20.04,-2.44 19.94,-2.39 19.94,-2.39 19.94,-2.39 17.66,-1.21 15.38,-0.03 13.85,0.20 12.33,0.45 9.98,0.91 7.63,1.37 5.07,1.69 2.52,2.02 1.26,1.57 0,1.11 -0.13,1.10 -0.26,1.08 -0.39,1.03 -0.52,0.99 -0.63,0.91 -0.74,0.83 -0.83,0.73 -0.92,0.63 -0.98,0.51 -1.04,0.39 -1.07,0.26 -1.11,0.13 -1.11,-0.00 -1.11,-0.13 -1.07,-0.26 -1.04,-0.39 -0.98,-0.51 -0.92,-0.63 -0.83,-0.73 -0.74,-0.83 -0.63,-0.91 -0.52,-0.99 -0.39,-1.03 -0.26,-1.08 -0.13,-1.10 0.00,-1.11 0.00,-1.11 L 0,-1.11 Z"></path></g><g transform="translate(374.78326416015625 10) rotate(0 -0.5477294921875 17.527122497558594)" stroke="none"><path fill="#000000" d="M 1.10,0 Q 1.10,0 1.53,1.57 1.95,3.14 2.29,6.23 2.64,9.32 2.77,12.63 2.91,15.93 2.92,18.91 2.94,21.90 1.37,25.76 -0.19,29.62 -0.58,31.23 -0.97,32.83 -1.01,32.93 -1.05,33.03 -1.12,33.11 -1.19,33.19 -1.29,33.24 -1.38,33.29 -1.48,33.31 -1.59,33.33 -1.69,33.32 -1.80,33.31 -1.89,33.26 -1.99,33.21 -2.06,33.14 -2.14,33.06 -2.19,32.97 -2.23,32.87 -2.25,32.77 -2.26,32.66 -2.24,32.56 -2.22,32.45 -2.17,32.36 -2.12,32.27 -2.04,32.20 -1.96,32.13 -1.87,32.08 -1.77,32.04 -1.66,32.03 -1.56,32.02 -1.45,32.05 -1.35,32.07 -1.26,32.13 -1.17,32.19 -1.10,32.27 -1.04,32.35 -1.00,32.45 -0.96,32.55 -0.96,32.66 -0.96,32.76 -0.99,32.87 -1.02,32.97 -1.08,33.05 -1.14,33.14 -1.23,33.20 -1.31,33.26 -1.41,33.30 -1.52,33.33 -1.62,33.33 -1.73,33.32 -1.83,33.29 -1.93,33.25 -2.01,33.18 -2.09,33.12 -2.15,33.03 -2.21,32.94 -2.24,32.84 -2.26,32.73 -2.25,32.63 -2.25,32.52 -2.25,32.52 -2.25,32.52 -1.85,30.92 -1.46,29.31 -1.19,25.63 -0.92,21.94 -1.02,19.02 -1.12,16.09 -1.25,12.91 -1.38,9.72 -1.66,6.43 -1.95,3.15 -1.53,1.57 -1.10,0 -1.08,-0.13 -1.07,-0.26 -1.02,-0.38 -0.97,-0.51 -0.90,-0.62 -0.82,-0.73 -0.72,-0.82 -0.62,-0.90 -0.51,-0.97 -0.39,-1.03 -0.26,-1.06 -0.13,-1.09 0.00,-1.09 0.13,-1.09 0.26,-1.06 0.39,-1.03 0.51,-0.97 0.62,-0.90 0.72,-0.82 0.82,-0.73 0.90,-0.62 0.97,-0.51 1.02,-0.38 1.07,-0.26 1.08,-0.13 1.10,0.00 1.10,0.00 L 1.10,0 Z"></path></g><g transform="translate(343.015380859375 71.34492492675781) rotate(0 25.742950439453125 -2.7386016845703125)" stroke="none"><path fill="#000000" d="M 0,-1.06 Q 0,-1.06 1.88,-1.43 3.77,-1.81 7.97,-2.19 12.16,-2.58 16.39,-3.36 20.62,-4.14 25.01,-4.79 29.40,-5.43 33.23,-5.60 37.05,-5.77 40.26,-5.62 43.47,-5.47 46.70,-5.68 49.94,-5.89 50.05,-5.89 50.15,-5.89 50.25,-5.86 50.35,-5.82 50.44,-5.76 50.52,-5.69 50.58,-5.60 50.64,-5.52 50.67,-5.41 50.70,-5.31 50.69,-5.21 50.68,-5.10 50.64,-5.00 50.60,-4.90 50.53,-4.82 50.46,-4.74 50.37,-4.69 50.28,-4.63 50.18,-4.61 50.07,-4.59 49.97,-4.60 49.86,-4.61 49.77,-4.66 49.67,-4.70 49.59,-4.78 49.52,-4.85 49.47,-4.94 49.42,-5.04 49.40,-5.14 49.39,-5.25 49.40,-5.35 49.42,-5.46 49.47,-5.55 49.52,-5.64 49.60,-5.72 49.68,-5.79 49.77,-5.83 49.87,-5.88 49.98,-5.89 50.08,-5.90 50.18,-5.88 50.29,-5.85 50.38,-5.80 50.47,-5.74 50.54,-5.66 50.61,-5.58 50.65,-5.48 50.68,-5.38 50.69,-5.28 50.69,-5.17 50.67,-5.07 50.64,-4.96 50.58,-4.88 50.52,-4.79 50.43,-4.73 50.35,-4.66 50.25,-4.63 50.14,-4.59 50.15,-4.59 50.15,-4.59 46.85,-3.77 43.56,-2.94 40.44,-2.56 37.31,-2.18 33.65,-1.80 29.99,-1.43 25.66,-0.80 21.33,-0.16 16.89,0.57 12.45,1.32 8.11,1.56 3.77,1.81 1.88,1.43 0,1.06 -0.12,1.04 -0.25,1.03 -0.37,0.98 -0.49,0.94 -0.59,0.86 -0.70,0.79 -0.79,0.69 -0.87,0.60 -0.93,0.49 -0.99,0.37 -1.02,0.25 -1.05,0.12 -1.05,-0.00 -1.05,-0.12 -1.02,-0.25 -0.99,-0.37 -0.93,-0.49 -0.87,-0.60 -0.79,-0.70 -0.70,-0.79 -0.59,-0.86 -0.49,-0.94 -0.37,-0.98 -0.25,-1.03 -0.12,-1.04 0.00,-1.06 0.00,-1.06 L 0,-1.06 Z"></path></g><g transform="translate(345.20623779296875 95.44471740722656) rotate(0 25.19525146484375 -2.1908721923828125)" stroke="none"><path fill="#000000" d="M 0.54,-0.40 Q 0.54,-0.40 1.98,0.48 3.42,1.36 4.52,3.25 5.62,5.15 6.45,7.31 7.28,9.47 7.94,11.65 8.59,13.82 9.10,14.87 9.60,15.91 9.85,16.15 10.11,16.40 10.18,16.61 10.26,16.83 10.28,17.06 10.30,17.29 10.26,17.52 10.23,17.74 10.14,17.96 10.05,18.17 9.91,18.35 9.77,18.54 9.60,18.68 9.42,18.83 9.21,18.93 9.00,19.03 8.78,19.08 8.55,19.12 8.32,19.12 8.10,19.11 7.87,19.05 7.65,18.98 7.45,18.87 7.25,18.75 7.09,18.60 6.92,18.44 6.80,18.24 6.67,18.05 6.71,15.16 6.75,12.28 7.12,8.67 7.50,5.06 7.65,1.72 7.80,-1.62 8.19,-4.41 8.58,-7.21 9.06,-9.67 9.55,-12.13 10.08,-13.88 10.61,-15.63 10.82,-16.63 11.04,-17.64 11.72,-18.56 12.40,-19.49 13.97,-19.91 15.54,-20.34 17.72,-20.43 19.89,-20.52 22.56,-20.86 25.24,-21.20 29.26,-21.67 33.27,-22.13 36.51,-22.64 39.75,-23.14 42.02,-23.66 44.29,-24.18 46.59,-23.88 48.89,-23.58 49.00,-23.58 49.10,-23.59 49.21,-23.57 49.31,-23.54 49.40,-23.49 49.49,-23.43 49.56,-23.35 49.62,-23.27 49.66,-23.17 49.70,-23.07 49.70,-22.96 49.71,-22.85 49.68,-22.75 49.64,-22.65 49.58,-22.56 49.52,-22.48 49.44,-22.42 49.35,-22.35 49.25,-22.32 49.15,-22.29 49.04,-22.29 48.94,-22.29 48.84,-22.33 48.74,-22.37 48.65,-22.43 48.57,-22.50 48.51,-22.59 48.45,-22.68 48.43,-22.78 48.40,-22.88 48.41,-22.99 48.42,-23.09 48.46,-23.19 48.50,-23.29 48.57,-23.37 48.64,-23.45 48.73,-23.50 48.82,-23.55 48.93,-23.57 49.03,-23.60 49.14,-23.58 49.24,-23.57 49.34,-23.52 49.43,-23.47 49.51,-23.40 49.59,-23.33 49.63,-23.23 49.68,-23.14 49.70,-23.03 49.71,-22.93 49.69,-22.82 49.67,-22.72 49.62,-22.62 49.57,-22.53 49.49,-22.46 49.41,-22.39 49.31,-22.35 49.22,-22.30 49.22,-22.30 49.22,-22.30 47.20,-21.27 45.19,-20.24 42.78,-19.70 40.37,-19.15 37.06,-18.63 33.74,-18.12 29.74,-17.65 25.74,-17.19 22.90,-16.84 20.05,-16.48 18.12,-16.42 16.19,-16.35 15.39,-16.47 14.59,-16.59 14.37,-15.56 14.14,-14.53 13.64,-12.97 13.13,-11.41 12.66,-9.06 12.20,-6.70 11.82,-4.08 11.45,-1.46 11.30,1.98 11.14,5.43 10.80,8.93 10.46,12.44 10.28,14.42 10.11,16.40 10.18,16.61 10.26,16.83 10.28,17.06 10.30,17.29 10.26,17.52 10.23,17.74 10.14,17.96 10.05,18.17 9.91,18.35 9.77,18.54 9.60,18.68 9.42,18.83 9.21,18.93 9.00,19.03 8.78,19.08 8.55,19.12 8.33,19.12 8.10,19.11 7.87,19.05 7.65,18.98 7.45,18.87 7.25,18.75 7.09,18.60 6.92,18.44 6.80,18.24 6.67,18.05 6.43,17.89 6.19,17.73 5.52,16.34 4.85,14.95 4.24,12.89 3.63,10.83 2.95,8.95 2.27,7.06 1.31,5.36 0.35,3.67 -0.09,2.03 -0.54,0.40 -0.58,0.33 -0.62,0.26 -0.64,0.18 -0.66,0.10 -0.67,0.02 -0.67,-0.05 -0.65,-0.13 -0.64,-0.21 -0.60,-0.28 -0.57,-0.36 -0.51,-0.42 -0.46,-0.48 -0.40,-0.53 -0.33,-0.58 -0.26,-0.61 -0.18,-0.64 -0.10,-0.66 -0.02,-0.67 0.05,-0.66 0.13,-0.66 0.21,-0.63 0.29,-0.61 0.35,-0.56 0.42,-0.52 0.48,-0.46 0.54,-0.40 0.54,-0.40 L 0.54,-0.40 Z"></path></g><g transform="translate(372.59234619140625 88.87205505371094) rotate(0 6.024993896484375 9.311279296875)" stroke="none"><path fill="#000000" d="M 0.21,-0.87 Q 0.21,-0.87 1.58,-1.00 2.95,-1.13 4.00,-1.02 5.05,-0.92 6.51,-0.85 7.96,-0.78 9.35,0.06 10.75,0.90 11.42,2.41 12.08,3.91 11.29,6.07 10.50,8.24 8.14,11.02 5.78,13.81 4.13,15.31 2.47,16.81 1.53,17.65 0.60,18.48 0.09,17.39 -0.42,16.30 0.14,16.45 0.71,16.59 2.64,16.63 4.56,16.66 6.24,16.40 7.93,16.13 10.67,16.09 13.42,16.05 13.52,16.02 13.62,16.00 13.73,16.01 13.83,16.02 13.93,16.07 14.03,16.11 14.10,16.19 14.18,16.26 14.23,16.35 14.28,16.45 14.30,16.55 14.32,16.66 14.30,16.76 14.28,16.87 14.23,16.96 14.18,17.05 14.11,17.13 14.03,17.20 13.93,17.24 13.84,17.29 13.73,17.30 13.62,17.31 13.52,17.29 13.42,17.27 13.33,17.21 13.23,17.16 13.17,17.08 13.10,17.00 13.06,16.90 13.02,16.80 13.01,16.69 13.01,16.59 13.03,16.48 13.06,16.38 13.12,16.29 13.18,16.21 13.27,16.14 13.35,16.08 13.45,16.04 13.55,16.01 13.66,16.01 13.77,16.01 13.87,16.04 13.97,16.08 14.05,16.14 14.14,16.21 14.20,16.29 14.26,16.38 14.28,16.48 14.31,16.59 14.31,16.69 14.30,16.80 14.26,16.90 14.22,17.00 14.15,17.08 14.08,17.16 13.99,17.21 13.90,17.27 13.90,17.27 13.90,17.27 11.20,18.51 8.49,19.76 6.47,20.06 4.45,20.36 2.09,20.26 -0.26,20.16 -0.86,19.97 -1.46,19.78 -1.77,17.91 -2.07,16.05 -1.04,15.05 -0.01,14.05 1.47,12.72 2.96,11.39 5.04,9.00 7.13,6.61 7.77,5.17 8.41,3.73 7.95,3.26 7.49,2.80 6.06,2.76 4.64,2.72 3.36,2.55 2.08,2.39 0.93,1.63 -0.21,0.87 -0.31,0.83 -0.42,0.79 -0.50,0.73 -0.59,0.67 -0.67,0.58 -0.74,0.50 -0.79,0.41 -0.84,0.31 -0.86,0.21 -0.89,0.10 -0.89,-0.00 -0.89,-0.11 -0.86,-0.21 -0.83,-0.32 -0.78,-0.41 -0.73,-0.51 -0.66,-0.59 -0.59,-0.67 -0.50,-0.73 -0.41,-0.79 -0.31,-0.83 -0.21,-0.87 -0.10,-0.88 0.00,-0.89 0.11,-0.88 0.21,-0.87 0.21,-0.87 L 0.21,-0.87 Z"></path></g><g stroke-linecap="round"><g transform="translate(620.1630249023438 108.59007263183594) rotate(0 2.73858642578125 236.06842041015625)"><path d="M0 0 C0.91 78.69, 4.56 393.45, 5.48 472.14 M0 0 C0.91 78.69, 4.56 393.45, 5.48 472.14" stroke="#000000" stroke-width="0.5" fill="none"></path></g></g><mask></mask><g stroke-linecap="round"><g transform="translate(361.637939453125 349.58799743652344) rotate(0 255.23873901367188 1.6431884765625)"><path d="M0 0 C85.08 0.55, 425.4 2.74, 510.48 3.29 M0 0 C85.08 0.55, 425.4 2.74, 510.48 3.29" stroke="#000000" stroke-width="0.5" fill="none"></path></g></g><mask></mask><g stroke-linecap="round" transform="translate(450.3690185546875 185.27125549316406) rotate(0 178.00979614257812 167.0553741455078)"><path d="M356.02 167.06 C356.02 171.22, 355.85 175.39, 355.52 179.54 C355.19 183.69, 354.69 187.84, 354.03 191.95 C353.37 196.07, 352.54 200.17, 351.56 204.23 C350.57 208.29, 349.42 212.32, 348.11 216.3 C346.8 220.27, 345.33 224.21, 343.71 228.09 C342.09 231.96, 340.32 235.79, 338.39 239.54 C336.47 243.29, 334.39 246.98, 332.17 250.58 C329.95 254.19, 327.59 257.72, 325.09 261.16 C322.59 264.6, 319.95 267.96, 317.18 271.21 C314.42 274.47, 311.52 277.63, 308.5 280.68 C305.48 283.73, 302.34 286.69, 299.09 289.52 C295.84 292.35, 292.46 295.07, 289 297.66 C285.53 300.26, 281.95 302.74, 278.29 305.08 C274.62 307.43, 270.85 309.65, 267.01 311.73 C263.17 313.81, 259.24 315.76, 255.25 317.57 C251.25 319.37, 247.17 321.04, 243.04 322.56 C238.92 324.08, 234.72 325.46, 230.48 326.69 C226.24 327.92, 221.94 329, 217.62 329.92 C213.3 330.85, 208.93 331.62, 204.54 332.24 C200.16 332.87, 195.73 333.33, 191.31 333.64 C186.89 333.95, 182.44 334.11, 178.01 334.11 C173.58 334.11, 169.13 333.95, 164.71 333.64 C160.29 333.33, 155.86 332.87, 151.48 332.24 C147.09 331.62, 142.72 330.85, 138.4 329.92 C134.08 329, 129.78 327.92, 125.54 326.69 C121.3 325.46, 117.1 324.08, 112.98 322.56 C108.85 321.04, 104.77 319.37, 100.77 317.57 C96.78 315.76, 92.85 313.81, 89 311.73 C85.16 309.65, 81.4 307.43, 77.73 305.08 C74.07 302.74, 70.49 300.26, 67.02 297.66 C63.56 295.07, 60.18 292.35, 56.93 289.52 C53.68 286.69, 50.54 283.73, 47.52 280.68 C44.5 277.63, 41.6 274.47, 38.84 271.21 C36.07 267.96, 33.43 264.6, 30.93 261.16 C28.43 257.72, 26.07 254.19, 23.85 250.58 C21.63 246.98, 19.55 243.29, 17.63 239.54 C15.7 235.79, 13.93 231.96, 12.31 228.09 C10.69 224.21, 9.22 220.27, 7.91 216.3 C6.6 212.32, 5.45 208.29, 4.46 204.23 C3.48 200.17, 2.65 196.07, 1.99 191.95 C1.33 187.84, 0.83 183.69, 0.5 179.54 C0.17 175.39, 0 171.22, 0 167.06 C0 162.89, 0.17 158.72, 0.5 154.57 C0.83 150.42, 1.33 146.27, 1.99 142.16 C2.65 138.04, 3.48 133.94, 4.46 129.88 C5.45 125.83, 6.6 121.79, 7.91 117.81 C9.22 113.84, 10.69 109.9, 12.31 106.02 C13.93 102.15, 15.7 98.32, 17.63 94.57 C19.55 90.82, 21.63 87.13, 23.85 83.53 C26.07 79.92, 28.43 76.39, 30.93 72.95 C33.43 69.51, 36.07 66.15, 38.84 62.9 C41.6 59.64, 44.5 56.48, 47.52 53.43 C50.54 50.38, 53.68 47.43, 56.93 44.6 C60.18 41.76, 63.56 39.04, 67.02 36.45 C70.49 33.85, 74.07 31.37, 77.73 29.03 C81.4 26.68, 85.16 24.46, 89 22.38 C92.85 20.3, 96.78 18.35, 100.77 16.54 C104.77 14.74, 108.85 13.07, 112.98 11.55 C117.1 10.03, 121.3 8.65, 125.54 7.42 C129.78 6.2, 134.08 5.11, 138.4 4.19 C142.72 3.26, 147.09 2.49, 151.48 1.87 C155.86 1.25, 160.29 0.78, 164.71 0.47 C169.13 0.16, 173.58 0, 178.01 0 C182.44 0, 186.89 0.16, 191.31 0.47 C195.73 0.78, 200.16 1.25, 204.54 1.87 C208.93 2.49, 213.3 3.26, 217.62 4.19 C221.94 5.11, 226.24 6.2, 230.48 7.42 C234.72 8.65, 238.92 10.03, 243.04 11.55 C247.17 13.07, 251.25 14.74, 255.25 16.54 C259.24 18.35, 263.17 20.3, 267.01 22.38 C270.85 24.46, 274.62 26.68, 278.29 29.03 C281.95 31.37, 285.53 33.85, 289 36.45 C292.46 39.04, 295.84 41.76, 299.09 44.6 C302.34 47.43, 305.48 50.38, 308.5 53.43 C311.52 56.48, 314.42 59.64, 317.18 62.9 C319.95 66.15, 322.59 69.51, 325.09 72.95 C327.59 76.39, 329.95 79.92, 332.17 83.53 C334.39 87.13, 336.47 90.82, 338.39 94.57 C340.32 98.32, 342.09 102.15, 343.71 106.02 C345.33 109.9, 346.8 113.84, 348.11 117.81 C349.42 121.79, 350.57 125.83, 351.56 129.88 C352.54 133.94, 353.37 138.04, 354.03 142.16 C354.69 146.27, 355.19 150.42, 355.52 154.57 C355.85 158.72, 356.02 162.89, 356.02 167.06" stroke="#000000" stroke-width="0.5" fill="none"></path></g><g transform="translate(479.94598388671875 447.08262634277344) rotate(0 71.75164794921875 -47.104156494140625)" stroke="none"><path fill="#000000" d="M -0.34,-0.68 Q -0.34,-0.68 0.16,-1.24 0.66,-1.80 1.14,-2.20 1.62,-2.60 2.36,-2.89 3.11,-3.19 3.91,-3.56 4.72,-3.93 5.70,-4.41 6.68,-4.89 7.61,-5.65 8.54,-6.42 10.06,-7.17 11.57,-7.92 12.68,-8.77 13.78,-9.62 14.90,-10.61 16.01,-11.61 17.33,-12.16 18.64,-12.71 19.58,-13.44 20.53,-14.16 21.96,-15.15 23.40,-16.14 24.67,-16.90 25.94,-17.65 27.11,-18.29 28.29,-18.93 29.31,-19.76 30.32,-20.58 31.78,-21.62 33.23,-22.65 34.50,-23.43 35.78,-24.21 36.96,-24.86 38.14,-25.51 39.82,-26.69 41.51,-27.87 43.03,-28.46 44.55,-29.06 45.61,-29.82 46.67,-30.59 48.14,-31.59 49.61,-32.59 51.27,-33.38 52.93,-34.17 54.11,-35.05 55.28,-35.93 57.44,-37.31 59.60,-38.69 61.16,-39.60 62.71,-40.50 63.61,-41.16 64.52,-41.82 65.61,-42.47 66.71,-43.12 68.36,-44.29 70.00,-45.46 71.01,-46.26 72.01,-47.06 73.15,-47.78 74.29,-48.49 75.41,-49.11 76.53,-49.73 77.51,-50.54 78.49,-51.35 79.94,-52.39 81.38,-53.42 82.66,-54.19 83.93,-54.97 85.00,-55.85 86.07,-56.74 87.64,-57.55 89.21,-58.35 90.33,-59.22 91.44,-60.09 92.93,-61.14 94.42,-62.19 95.72,-62.98 97.02,-63.76 98.21,-64.42 99.40,-65.07 100.79,-65.95 102.19,-66.84 103.46,-67.55 104.73,-68.27 106.07,-69.44 107.42,-70.60 108.74,-71.50 110.06,-72.40 111.27,-73.10 112.48,-73.81 113.50,-74.65 114.52,-75.50 116.09,-76.30 117.67,-77.10 118.90,-77.72 120.13,-78.33 121.28,-78.91 122.43,-79.48 123.14,-79.98 123.84,-80.48 124.74,-81.29 125.63,-82.09 126.66,-83.07 127.68,-84.06 128.85,-84.88 130.03,-85.70 130.74,-86.29 131.46,-86.88 132.51,-87.53 133.56,-88.18 134.20,-88.69 134.85,-89.19 135.44,-89.72 136.03,-90.25 136.79,-90.59 137.54,-90.94 137.81,-91.45 138.08,-91.96 139.10,-92.73 140.12,-93.50 140.12,-93.10 140.13,-92.69 140.18,-92.76 140.23,-92.82 140.29,-92.86 140.35,-92.91 140.43,-92.94 140.50,-92.97 140.58,-92.99 140.65,-93.00 140.73,-92.99 140.81,-92.99 140.89,-92.96 140.96,-92.93 141.03,-92.89 141.10,-92.85 141.15,-92.79 141.21,-92.74 141.24,-92.67 141.28,-92.60 141.31,-92.52 141.33,-92.45 141.33,-92.37 141.33,-92.29 141.32,-92.21 141.30,-92.13 141.27,-92.06 141.23,-91.99 141.05,-91.85 140.87,-91.71 140.76,-91.70 140.66,-91.69 140.55,-91.71 140.45,-91.73 140.36,-91.78 140.26,-91.83 140.19,-91.91 140.12,-91.99 140.08,-92.09 140.04,-92.19 140.03,-92.30 140.03,-92.40 140.05,-92.50 140.08,-92.61 140.14,-92.70 140.19,-92.78 140.28,-92.85 140.36,-92.92 140.46,-92.95 140.56,-92.99 140.67,-92.99 140.77,-92.99 140.88,-92.96 140.98,-92.93 141.06,-92.87 141.15,-92.80 141.21,-92.72 141.27,-92.63 141.30,-92.53 141.33,-92.43 141.33,-92.32 141.32,-92.21 141.29,-92.11 141.25,-92.01 141.18,-91.93 141.11,-91.85 141.02,-91.79 140.93,-91.74 140.83,-91.71 140.73,-91.69 140.62,-91.70 140.52,-91.71 140.42,-91.75 140.32,-91.79 140.24,-91.86 140.16,-91.94 140.11,-92.03 140.06,-92.12 140.04,-92.23 140.02,-92.33 140.04,-92.44 140.05,-92.54 140.10,-92.64 140.15,-92.73 140.23,-92.80 140.30,-92.88 140.21,-92.79 140.13,-92.69 140.18,-92.76 140.23,-92.82 140.29,-92.86 140.35,-92.91 140.43,-92.94 140.50,-92.97 140.58,-92.99 140.65,-93.00 140.73,-92.99 140.81,-92.99 140.89,-92.96 140.96,-92.93 141.03,-92.89 141.10,-92.85 141.15,-92.79 141.21,-92.74 141.24,-92.67 141.28,-92.60 141.31,-92.52 141.33,-92.45 141.33,-92.37 141.33,-92.29 141.32,-92.21 141.30,-92.13 141.27,-92.06 141.23,-91.99 142.21,-92.18 143.18,-92.37 142.65,-91.62 142.12,-90.87 141.40,-90.39 140.69,-89.91 139.43,-88.83 138.17,-87.75 137.52,-87.17 136.87,-86.60 136.07,-85.98 135.27,-85.36 134.40,-84.85 133.54,-84.33 132.71,-83.66 131.89,-83.00 130.92,-82.34 129.94,-81.68 128.88,-80.66 127.82,-79.65 126.77,-78.72 125.72,-77.79 124.81,-77.17 123.90,-76.55 122.75,-75.97 121.59,-75.40 120.35,-74.78 119.12,-74.17 117.84,-73.56 116.57,-72.95 115.34,-71.97 114.12,-70.98 113.00,-70.34 111.88,-69.70 110.69,-68.91 109.50,-68.13 107.90,-66.81 106.30,-65.49 105.09,-64.81 103.87,-64.14 102.39,-63.22 100.91,-62.31 99.77,-61.69 98.63,-61.08 97.42,-60.36 96.21,-59.64 94.75,-58.64 93.30,-57.63 91.94,-56.63 90.58,-55.64 89.28,-55.01 87.98,-54.38 86.74,-53.38 85.51,-52.37 84.32,-51.66 83.14,-50.95 81.77,-49.97 80.40,-49.00 79.20,-48.04 78.00,-47.08 76.94,-46.50 75.89,-45.93 74.89,-45.31 73.89,-44.69 72.82,-43.84 71.74,-42.99 69.99,-41.76 68.23,-40.52 67.24,-39.95 66.26,-39.38 65.23,-38.65 64.20,-37.93 62.69,-37.06 61.18,-36.20 59.09,-34.89 57.00,-33.57 55.58,-32.57 54.17,-31.56 52.70,-30.88 51.23,-30.20 49.77,-29.22 48.32,-28.23 46.95,-27.30 45.58,-26.37 44.36,-25.94 43.13,-25.50 41.32,-24.25 39.50,-23.01 38.37,-22.40 37.24,-21.78 36.05,-21.07 34.86,-20.36 33.47,-19.37 32.08,-18.39 30.86,-17.42 29.64,-16.46 28.50,-15.85 27.37,-15.23 26.18,-14.53 24.99,-13.83 23.60,-12.86 22.20,-11.90 20.94,-11.00 19.67,-10.10 18.75,-9.79 17.82,-9.47 16.64,-8.43 15.46,-7.38 14.12,-6.40 12.78,-5.42 11.51,-4.84 10.24,-4.25 9.06,-3.34 7.88,-2.44 6.86,-1.95 5.85,-1.46 4.53,-0.95 3.22,-0.45 2.53,0.04 1.85,0.54 1.09,0.61 0.34,0.68 0.25,0.71 0.16,0.74 0.07,0.75 -0.01,0.76 -0.10,0.75 -0.19,0.74 -0.28,0.70 -0.36,0.67 -0.44,0.61 -0.51,0.56 -0.57,0.49 -0.63,0.42 -0.68,0.34 -0.72,0.25 -0.74,0.16 -0.76,0.07 -0.76,-0.01 -0.75,-0.10 -0.73,-0.19 -0.71,-0.28 -0.66,-0.36 -0.62,-0.44 -0.55,-0.51 -0.49,-0.58 -0.41,-0.63 -0.34,-0.68 -0.34,-0.68 L -0.34,-0.68 Z"></path></g><g transform="translate(798.7205810546875 350.68345642089844) rotate(0 -156.648681640625 -38.340576171875)" stroke="none"><path fill="#000000" d="M -0.67,0.33 Q -0.67,0.33 -1.20,-0.19 -1.74,-0.73 -1.96,-2.13 -2.17,-3.54 -2.24,-4.72 -2.31,-5.91 -2.35,-7.04 -2.39,-8.17 -2.42,-9.29 -2.45,-10.40 -2.47,-12.13 -2.50,-13.87 -2.51,-15.23 -2.52,-16.60 -2.53,-18.12 -2.54,-19.64 -2.85,-20.74 -3.17,-21.85 -3.35,-23.11 -3.53,-24.37 -3.90,-25.71 -4.28,-27.04 -4.73,-28.19 -5.18,-29.34 -5.92,-30.32 -6.66,-31.29 -7.37,-32.47 -8.09,-33.65 -9.29,-35.32 -10.49,-37.00 -11.60,-38.31 -12.72,-39.62 -13.81,-40.80 -14.91,-41.98 -15.78,-43.21 -16.64,-44.45 -17.56,-45.49 -18.47,-46.54 -19.26,-47.73 -20.06,-48.92 -21.24,-50.23 -22.42,-51.55 -23.34,-52.86 -24.25,-54.17 -25.19,-55.25 -26.13,-56.33 -27.22,-57.81 -28.31,-59.30 -29.34,-60.48 -30.38,-61.66 -31.51,-63.19 -32.64,-64.71 -33.74,-66.30 -34.85,-67.89 -36.82,-70.05 -38.79,-72.20 -40.63,-74.45 -42.47,-76.70 -44.46,-78.86 -46.46,-81.02 -48.57,-83.20 -50.68,-85.38 -53.10,-87.53 -55.53,-89.68 -58.50,-92.52 -61.46,-95.37 -64.21,-97.45 -66.96,-99.53 -69.47,-101.74 -71.98,-103.95 -74.20,-105.43 -76.42,-106.92 -79.28,-108.84 -82.15,-110.76 -84.38,-112.56 -86.61,-114.37 -88.71,-115.69 -90.81,-117.01 -92.76,-118.60 -94.72,-120.19 -96.75,-121.77 -98.79,-123.35 -100.92,-124.97 -103.04,-126.59 -106.14,-128.84 -109.24,-131.09 -111.83,-133.00 -114.41,-134.91 -116.98,-136.29 -119.55,-137.66 -122.56,-139.21 -125.58,-140.76 -127.84,-142.07 -130.11,-143.38 -132.20,-144.19 -134.29,-145.00 -136.53,-146.02 -138.76,-147.04 -140.88,-147.75 -142.99,-148.45 -144.87,-149.08 -146.74,-149.71 -149.05,-150.28 -151.35,-150.84 -153.34,-151.41 -155.32,-151.98 -156.97,-152.20 -158.63,-152.41 -160.88,-152.51 -163.13,-152.61 -165.05,-152.65 -166.97,-152.70 -168.72,-152.71 -170.48,-152.73 -172.17,-152.74 -173.86,-152.75 -175.37,-152.45 -176.87,-152.15 -179.15,-151.71 -181.43,-151.27 -183.63,-150.78 -185.84,-150.28 -188.04,-149.76 -190.24,-149.23 -192.08,-148.70 -193.93,-148.17 -196.25,-147.33 -198.58,-146.49 -200.54,-145.81 -202.50,-145.13 -203.92,-144.54 -205.34,-143.95 -207.29,-143.36 -209.25,-142.76 -211.58,-141.91 -213.91,-141.06 -216.13,-140.08 -218.35,-139.10 -220.48,-137.78 -222.61,-136.47 -224.58,-135.53 -226.54,-134.59 -227.97,-133.89 -229.39,-133.20 -230.50,-132.36 -231.61,-131.51 -233.40,-130.17 -235.18,-128.83 -236.53,-127.67 -237.87,-126.50 -239.17,-125.62 -240.46,-124.74 -241.84,-123.51 -243.22,-122.28 -244.15,-121.42 -245.07,-120.57 -246.40,-119.28 -247.72,-117.98 -248.86,-116.55 -249.99,-115.12 -251.55,-113.75 -253.10,-112.38 -254.26,-110.98 -255.43,-109.58 -256.99,-108.23 -258.56,-106.87 -259.79,-105.73 -261.03,-104.59 -262.18,-103.47 -263.33,-102.36 -264.76,-100.94 -266.20,-99.52 -267.75,-97.98 -269.30,-96.43 -270.54,-94.89 -271.77,-93.36 -272.92,-91.76 -274.08,-90.17 -275.20,-88.55 -276.32,-86.93 -277.39,-85.03 -278.46,-83.14 -279.88,-80.72 -281.31,-78.31 -282.55,-76.32 -283.79,-74.33 -284.96,-72.54 -286.12,-70.75 -287.57,-68.71 -289.03,-66.66 -290.23,-64.60 -291.43,-62.55 -292.60,-60.69 -293.77,-58.82 -294.51,-56.91 -295.25,-55.00 -296.26,-53.10 -297.27,-51.20 -298.31,-49.18 -299.35,-47.17 -300.08,-45.42 -300.81,-43.66 -301.10,-42.66 -301.40,-41.66 -302.18,-39.57 -302.97,-37.48 -303.58,-35.12 -304.20,-32.76 -304.82,-31.30 -305.45,-29.84 -305.64,-28.51 -305.84,-27.17 -305.94,-25.96 -306.04,-24.75 -306.40,-21.96 -306.76,-19.18 -307.26,-17.56 -307.76,-15.94 -308.26,-14.08 -308.77,-12.22 -308.96,-10.59 -309.16,-8.95 -309.24,-7.32 -309.33,-5.69 -309.37,-3.74 -309.40,-1.79 -309.42,-0.32 -309.43,1.14 -309.78,2.58 -310.12,4.03 -310.24,5.08 -310.36,6.14 -310.41,7.21 -310.46,8.28 -310.49,9.36 -310.51,10.44 -310.52,11.53 -310.53,12.61 -310.25,13.48 -309.97,14.36 -309.81,15.58 -309.65,16.80 -309.59,18.28 -309.52,19.75 -309.50,21.00 -309.47,22.25 -309.46,23.41 -309.45,24.57 -309.44,25.69 -309.44,26.81 -309.14,28.05 -308.84,29.30 -308.69,30.62 -308.54,31.95 -308.48,33.15 -308.42,34.35 -308.10,35.64 -307.78,36.93 -307.62,38.59 -307.46,40.26 -307.10,41.75 -306.74,43.25 -306.29,44.47 -305.84,45.69 -305.60,47.02 -305.36,48.35 -305.27,49.56 -305.17,50.77 -304.84,52.06 -304.51,53.35 -304.34,54.34 -304.18,55.32 -303.84,56.19 -303.50,57.05 -303.30,57.92 -303.11,58.78 -303.02,59.50 -302.94,60.22 -302.92,60.81 -302.90,61.40 -302.45,62.38 -302.00,63.36 -301.23,64.59 -300.45,65.81 -299.99,66.40 -299.54,66.99 -299.21,67.80 -298.88,68.61 -298.12,69.49 -297.37,70.38 -297.10,71.08 -296.83,71.78 -296.30,72.38 -295.77,72.98 -295.11,73.65 -294.44,74.32 -293.96,75.28 -293.49,76.23 -293.00,76.58 -292.51,76.93 -292.47,77.13 -292.43,77.34 -292.44,77.54 -292.46,77.75 -292.52,77.95 -292.58,78.14 -292.68,78.32 -292.79,78.50 -292.94,78.64 -293.08,78.79 -293.26,78.90 -293.43,79.01 -293.63,79.07 -293.83,79.13 -294.03,79.14 -294.24,79.16 -294.44,79.12 -294.65,79.08 -294.84,79.00 -295.02,78.91 -295.19,78.79 -295.35,78.66 -295.48,78.50 -295.61,78.34 -295.69,78.15 -295.78,77.96 -294.96,78.62 -294.14,79.28 -295.33,79.06 -296.53,78.83 -298.14,78.05 -299.76,77.27 -301.20,76.24 -302.63,75.20 -303.88,74.12 -305.12,73.03 -306.06,71.83 -307.00,70.63 -307.63,69.90 -308.26,69.17 -308.83,68.56 -309.40,67.94 -309.96,67.37 -310.51,66.80 -311.06,66.24 -311.61,65.68 -312.17,65.10 -312.73,64.53 -313.15,63.71 -313.57,62.90 -313.93,62.24 -314.29,61.59 -314.23,60.52 -314.16,59.44 -313.32,58.26 -312.47,57.08 -311.18,55.70 -309.89,54.33 -307.95,53.01 -306.01,51.69 -304.39,50.30 -302.76,48.91 -300.58,47.85 -298.39,46.80 -296.93,46.09 -295.46,45.38 -293.45,45.44 -291.43,45.50 -290.85,46.45 -290.27,47.41 -290.33,49.43 -290.40,51.46 -290.46,53.35 -290.52,55.24 -290.87,57.16 -291.23,59.08 -291.36,60.68 -291.49,62.28 -291.89,64.07 -292.28,65.86 -292.43,67.11 -292.57,68.35 -292.99,69.72 -293.41,71.09 -294.78,72.40 -296.14,73.71 -296.18,73.78 -296.21,73.86 -296.26,73.92 -296.31,73.98 -296.37,74.03 -296.43,74.08 -296.51,74.11 -296.58,74.14 -296.66,74.15 -296.73,74.17 -296.81,74.16 -296.89,74.16 -296.97,74.13 -297.04,74.11 -297.11,74.07 -297.18,74.03 -297.23,73.97 -297.29,73.91 -297.33,73.85 -297.37,73.78 -297.39,73.70 -297.42,73.63 -297.42,73.55 -297.42,73.47 -297.41,73.39 -297.39,73.31 -297.39,73.52 -297.39,73.72 -297.41,73.61 -297.43,73.51 -297.41,73.40 -297.39,73.30 -297.34,73.21 -297.29,73.11 -297.21,73.04 -297.13,72.97 -297.04,72.92 -296.94,72.88 -296.84,72.87 -296.73,72.86 -296.63,72.88 -296.52,72.90 -296.43,72.96 -296.34,73.01 -296.27,73.10 -296.20,73.18 -296.17,73.28 -296.13,73.37 -296.12,73.48 -296.12,73.59 -296.15,73.69 -296.17,73.79 -296.23,73.88 -296.29,73.97 -296.38,74.03 -296.46,74.09 -296.57,74.13 -296.67,74.16 -296.77,74.16 -296.88,74.16 -296.98,74.13 -297.08,74.09 -297.16,74.03 -297.25,73.96 -297.31,73.87 -297.37,73.78 -297.39,73.68 -297.42,73.58 -297.42,73.47 -297.41,73.37 -297.37,73.27 -297.33,73.17 -297.26,73.09 -297.19,73.01 -297.10,72.95 -297.01,72.90 -296.90,72.88 -296.80,72.86 -296.69,72.87 -296.59,72.88 -296.49,72.93 -296.40,72.97 -296.32,73.04 -296.24,73.12 -296.19,73.41 -296.14,73.71 -296.18,73.78 -296.21,73.86 -296.26,73.92 -296.31,73.98 -296.37,74.03 -296.43,74.08 -296.51,74.11 -296.58,74.14 -296.66,74.15 -296.73,74.17 -296.81,74.16 -296.89,74.16 -296.97,74.13 -297.04,74.11 -297.11,74.07 -297.18,74.03 -297.23,73.97 -297.29,73.91 -297.33,73.85 -297.37,73.78 -297.39,73.70 -297.42,73.63 -297.42,73.55 -297.42,73.47 -297.41,73.39 -297.39,73.31 -297.19,71.63 -296.99,69.95 -296.64,68.92 -296.29,67.90 -296.12,66.47 -295.94,65.04 -295.59,63.50 -295.23,61.96 -295.07,60.16 -294.91,58.37 -294.58,56.74 -294.26,55.12 -294.20,53.12 -294.13,51.13 -293.90,49.94 -293.68,48.76 -293.90,48.08 -294.12,47.40 -293.99,48.07 -293.85,48.73 -295.33,49.44 -296.81,50.16 -298.60,50.96 -300.38,51.76 -302.16,53.27 -303.95,54.79 -305.58,55.84 -307.21,56.89 -308.39,58.14 -309.58,59.39 -310.32,59.96 -311.07,60.52 -310.55,61.25 -310.03,61.98 -309.49,62.52 -308.95,63.05 -308.38,63.62 -307.82,64.19 -307.24,64.80 -306.66,65.40 -306.04,66.07 -305.42,66.73 -304.72,67.54 -304.03,68.36 -303.33,69.29 -302.64,70.23 -301.53,71.21 -300.42,72.19 -299.27,73.04 -298.13,73.90 -296.44,74.94 -294.76,75.98 -293.63,76.46 -292.51,76.93 -292.47,77.13 -292.43,77.34 -292.44,77.54 -292.46,77.75 -292.52,77.95 -292.58,78.14 -292.68,78.32 -292.79,78.50 -292.94,78.64 -293.08,78.79 -293.26,78.90 -293.43,79.01 -293.63,79.07 -293.83,79.13 -294.03,79.14 -294.24,79.16 -294.44,79.12 -294.65,79.08 -294.84,79.00 -295.02,78.91 -295.19,78.79 -295.35,78.66 -295.48,78.50 -295.61,78.34 -295.69,78.15 -295.78,77.96 -296.19,77.48 -296.59,77.00 -296.93,76.27 -297.28,75.55 -297.87,74.95 -298.46,74.35 -299.22,73.46 -299.98,72.56 -300.51,71.95 -301.04,71.35 -301.66,70.18 -302.28,69.01 -302.86,68.23 -303.44,67.46 -303.87,66.66 -304.30,65.86 -304.85,64.70 -305.39,63.54 -305.82,62.64 -306.24,61.74 -306.28,61.16 -306.32,60.59 -306.37,60.04 -306.43,59.49 -306.55,58.86 -306.68,58.22 -307.09,57.05 -307.51,55.87 -307.65,55.01 -307.78,54.16 -308.15,52.59 -308.52,51.03 -308.60,49.97 -308.67,48.91 -308.84,47.87 -309.00,46.82 -309.50,45.42 -310.00,44.01 -310.40,42.29 -310.79,40.58 -310.92,39.13 -311.04,37.69 -311.40,36.11 -311.76,34.53 -311.81,33.42 -311.87,32.31 -311.99,31.17 -312.10,30.03 -312.44,28.43 -312.78,26.84 -312.78,25.72 -312.78,24.60 -312.79,23.45 -312.80,22.31 -312.82,21.10 -312.84,19.88 -312.89,18.54 -312.94,17.19 -313.05,16.22 -313.15,15.25 -313.49,13.93 -313.83,12.61 -313.82,11.49 -313.81,10.37 -313.78,9.24 -313.76,8.11 -313.70,6.93 -313.63,5.75 -313.47,4.48 -313.32,3.21 -313.02,2.14 -312.72,1.08 -312.70,-0.38 -312.69,-1.85 -312.64,-3.86 -312.60,-5.87 -312.50,-7.61 -312.40,-9.35 -312.16,-11.21 -311.92,-13.07 -311.39,-15.00 -310.87,-16.92 -310.43,-18.26 -309.99,-19.61 -309.64,-22.31 -309.28,-25.02 -309.17,-26.36 -309.05,-27.70 -308.75,-29.41 -308.44,-31.11 -307.90,-32.35 -307.35,-33.60 -306.68,-36.11 -306.02,-38.63 -305.27,-40.61 -304.52,-42.59 -304.17,-43.76 -303.82,-44.92 -303.03,-46.79 -302.25,-48.65 -301.20,-50.70 -300.15,-52.74 -299.21,-54.47 -298.28,-56.20 -297.41,-58.37 -296.54,-60.55 -295.39,-62.37 -294.25,-64.20 -292.97,-66.38 -291.69,-68.55 -290.27,-70.54 -288.86,-72.53 -287.71,-74.30 -286.57,-76.07 -285.35,-78.02 -284.13,-79.97 -282.71,-82.36 -281.30,-84.76 -280.16,-86.77 -279.01,-88.79 -277.87,-90.44 -276.72,-92.09 -275.52,-93.75 -274.32,-95.41 -272.97,-97.08 -271.62,-98.75 -270.06,-100.30 -268.50,-101.85 -267.05,-103.28 -265.60,-104.71 -264.43,-105.85 -263.25,-106.98 -261.97,-108.17 -260.69,-109.36 -259.31,-110.53 -257.92,-111.69 -256.59,-113.26 -255.25,-114.84 -253.90,-116.00 -252.54,-117.17 -251.28,-118.74 -250.01,-120.32 -248.65,-121.65 -247.29,-122.98 -246.34,-123.85 -245.39,-124.73 -243.84,-126.09 -242.30,-127.45 -241.15,-128.22 -240.01,-128.98 -238.58,-130.22 -237.14,-131.45 -235.36,-132.79 -233.57,-134.13 -232.20,-135.13 -230.83,-136.13 -229.39,-136.84 -227.95,-137.54 -226.13,-138.39 -224.32,-139.25 -222.00,-140.67 -219.68,-142.09 -217.36,-143.12 -215.05,-144.14 -212.63,-145.03 -210.21,-145.93 -208.41,-146.47 -206.60,-147.02 -205.10,-147.64 -203.60,-148.26 -201.65,-148.94 -199.71,-149.62 -197.28,-150.50 -194.85,-151.38 -192.93,-151.93 -191.01,-152.47 -188.80,-153.01 -186.58,-153.55 -184.33,-154.06 -182.07,-154.57 -179.79,-155.03 -177.50,-155.48 -175.68,-155.81 -173.85,-156.14 -172.15,-156.13 -170.45,-156.12 -168.67,-156.10 -166.89,-156.08 -164.94,-156.04 -162.99,-155.99 -160.58,-155.89 -158.17,-155.79 -156.28,-155.52 -154.38,-155.26 -152.46,-154.71 -150.54,-154.15 -148.10,-153.55 -145.66,-152.95 -143.78,-152.32 -141.90,-151.70 -139.63,-150.93 -137.35,-150.16 -135.19,-149.18 -133.04,-148.20 -130.71,-147.29 -128.38,-146.37 -126.19,-145.10 -124.00,-143.83 -120.96,-142.26 -117.92,-140.70 -115.14,-139.19 -112.37,-137.68 -109.79,-135.78 -107.21,-133.87 -104.09,-131.60 -100.96,-129.32 -98.82,-127.69 -96.69,-126.06 -94.61,-124.46 -92.54,-122.85 -90.75,-121.38 -88.97,-119.91 -86.70,-118.47 -84.44,-117.03 -82.34,-115.32 -80.24,-113.60 -77.37,-111.68 -74.50,-109.76 -72.11,-108.14 -69.71,-106.52 -67.30,-104.39 -64.89,-102.26 -61.99,-100.05 -59.09,-97.84 -56.17,-95.05 -53.25,-92.25 -50.73,-90.01 -48.20,-87.77 -46.07,-85.56 -43.93,-83.35 -41.87,-81.11 -39.81,-78.88 -38.02,-76.70 -36.24,-74.52 -34.13,-72.19 -32.02,-69.86 -30.94,-68.31 -29.87,-66.76 -28.82,-65.34 -27.78,-63.92 -26.66,-62.63 -25.53,-61.33 -24.53,-59.95 -23.52,-58.56 -22.48,-57.34 -21.43,-56.11 -20.65,-54.96 -19.87,-53.80 -18.55,-52.29 -17.23,-50.78 -16.57,-49.76 -15.91,-48.74 -14.89,-47.55 -13.87,-46.37 -13.16,-45.31 -12.44,-44.26 -11.30,-43.01 -10.16,-41.77 -8.97,-40.35 -7.78,-38.92 -6.52,-37.12 -5.26,-35.33 -4.64,-34.26 -4.02,-33.19 -3.09,-31.85 -2.17,-30.51 -1.68,-29.18 -1.18,-27.84 -0.82,-26.28 -0.45,-24.73 -0.36,-23.65 -0.27,-22.56 0.04,-21.11 0.35,-19.66 0.35,-18.13 0.34,-16.60 0.33,-15.24 0.32,-13.87 0.30,-12.15 0.29,-10.43 0.28,-9.33 0.27,-8.23 0.28,-7.13 0.29,-6.04 0.33,-4.93 0.38,-3.82 0.43,-2.80 0.48,-1.78 0.57,-1.06 0.67,-0.33 0.70,-0.25 0.73,-0.16 0.73,-0.07 0.74,0.01 0.73,0.10 0.72,0.19 0.69,0.27 0.65,0.36 0.60,0.43 0.55,0.50 0.48,0.56 0.41,0.62 0.33,0.66 0.25,0.70 0.16,0.72 0.07,0.74 -0.01,0.74 -0.10,0.74 -0.19,0.71 -0.27,0.69 -0.35,0.65 -0.43,0.60 -0.50,0.54 -0.57,0.48 -0.62,0.41 -0.67,0.33 -0.67,0.33 L -0.67,0.33 Z"></path></g><g transform="translate(477.755126953125 442.7008514404297) rotate(0 1.095428466796875 7.120391845703125)" stroke="none"><path fill="#000000" d="M 0.78,0.39 Q 0.78,0.39 0.75,1.16 0.73,1.94 0.28,2.82 -0.15,3.71 -0.27,4.81 -0.39,5.92 -0.49,6.72 -0.60,7.52 0.24,6.64 1.09,5.76 1.68,4.61 2.26,3.45 1.85,2.60 1.45,1.74 1.07,2.18 0.70,2.62 0.60,3.71 0.51,4.80 0.74,5.71 0.96,6.63 1.30,6.19 1.63,5.74 1.46,4.97 1.29,4.19 0.97,4.96 0.64,5.73 0.84,6.32 1.04,6.90 1.59,7.32 2.13,7.74 2.10,8.88 2.07,10.03 2.78,11.74 3.49,13.46 3.54,13.55 3.60,13.64 3.62,13.74 3.64,13.85 3.63,13.95 3.61,14.06 3.57,14.15 3.52,14.25 3.45,14.33 3.37,14.40 3.28,14.45 3.18,14.50 3.08,14.51 2.97,14.53 2.87,14.51 2.76,14.49 2.67,14.44 2.58,14.39 2.51,14.31 2.43,14.23 2.39,14.14 2.35,14.04 2.34,13.93 2.33,13.83 2.35,13.72 2.38,13.62 2.43,13.53 2.49,13.44 2.57,13.37 2.65,13.30 2.75,13.27 2.85,13.23 2.96,13.23 3.06,13.22 3.17,13.25 3.27,13.28 3.36,13.34 3.44,13.40 3.51,13.49 3.57,13.57 3.60,13.68 3.63,13.78 3.63,13.88 3.63,13.99 3.59,14.09 3.56,14.19 3.49,14.27 3.43,14.36 3.34,14.42 3.25,14.47 3.15,14.50 3.04,14.53 2.94,14.52 2.83,14.51 2.73,14.47 2.64,14.43 2.56,14.36 2.48,14.29 2.48,14.29 2.48,14.29 0.96,12.80 -0.54,11.31 -0.71,10.20 -0.88,9.10 -0.49,8.17 -0.11,7.24 0.39,6.21 0.89,5.17 1.96,4.81 3.03,4.44 3.94,4.95 4.86,5.45 5.22,6.41 5.58,7.36 5.40,8.17 5.23,8.97 4.68,9.61 4.14,10.25 3.08,10.48 2.02,10.71 1.06,10.27 0.10,9.83 -0.79,8.80 -1.69,7.77 -1.93,6.44 -2.17,5.10 -1.72,3.97 -1.27,2.83 -0.41,2.28 0.44,1.72 1.30,1.76 2.17,1.80 3.02,2.62 3.87,3.44 4.20,4.35 4.52,5.26 4.40,6.03 4.27,6.81 3.90,7.56 3.53,8.32 2.71,8.93 1.89,9.54 0.66,9.27 -0.56,9.00 -1.16,8.22 -1.77,7.44 -2.09,6.03 -2.42,4.61 -2.32,3.18 -2.22,1.75 -1.73,0.68 -1.24,-0.38 -0.18,-0.83 0.86,-1.28 1.70,-1.08 2.54,-0.88 3.24,-0.32 3.93,0.22 4.34,1.19 4.75,2.16 4.74,3.31 4.73,4.47 4.12,5.71 3.51,6.96 2.57,8.53 1.62,10.10 0.28,10.35 -1.05,10.61 -1.89,10.04 -2.72,9.48 -3.13,8.44 -3.53,7.40 -3.48,6.44 -3.42,5.48 -3.16,3.94 -2.90,2.39 -2.44,1.48 -1.99,0.57 -1.38,0.09 -0.78,-0.39 -0.72,-0.48 -0.66,-0.57 -0.59,-0.64 -0.51,-0.71 -0.42,-0.76 -0.32,-0.81 -0.22,-0.84 -0.12,-0.87 -0.01,-0.87 0.08,-0.87 0.19,-0.85 0.29,-0.82 0.39,-0.78 0.48,-0.73 0.56,-0.66 0.64,-0.59 0.70,-0.51 0.77,-0.42 0.81,-0.32 0.85,-0.22 0.86,-0.12 0.87,-0.01 0.86,0.08 0.85,0.19 0.82,0.29 0.78,0.39 0.78,0.39 L 0.78,0.39 Z"></path></g><g transform="translate(409.8375244140625 448.17808532714844) rotate(0 7.6680908203125 6.5726318359375)" stroke="none"><path fill="#000000" d="M -0.30,-0.61 Q -0.30,-0.61 0.88,-1.38 2.07,-2.14 2.85,-2.73 3.63,-3.31 4.87,-3.64 6.11,-3.98 7.20,-3.00 8.29,-2.03 7.87,-0.95 7.44,0.13 7.24,0.85 7.04,1.57 6.48,2.15 5.92,2.73 6.81,2.60 7.71,2.47 9.08,2.95 10.46,3.43 11.49,4.01 12.53,4.59 13.41,5.60 14.29,6.60 14.95,7.40 15.61,8.20 15.65,9.59 15.69,10.98 14.90,12.05 14.10,13.11 12.77,14.15 11.44,15.18 9.74,15.71 8.04,16.23 6.50,16.71 4.96,17.19 3.66,17.38 2.35,17.56 2.18,17.60 2.00,17.63 1.82,17.62 1.63,17.60 1.46,17.55 1.29,17.50 1.13,17.40 0.98,17.31 0.85,17.18 0.72,17.05 0.63,16.89 0.53,16.74 0.48,16.56 0.43,16.39 0.42,16.21 0.41,16.03 0.44,15.85 0.47,15.67 0.55,15.51 0.62,15.34 0.74,15.20 0.85,15.05 0.99,14.94 1.14,14.83 1.30,14.76 1.47,14.68 1.95,13.02 2.44,11.36 2.49,11.26 2.54,11.17 2.62,11.10 2.70,11.03 2.80,10.98 2.89,10.94 3.00,10.93 3.11,10.92 3.21,10.94 3.31,10.97 3.40,11.02 3.49,11.08 3.56,11.16 3.63,11.24 3.67,11.34 3.71,11.44 3.71,11.55 3.71,11.65 3.68,11.76 3.65,11.86 3.59,11.94 3.53,12.03 3.45,12.09 3.36,12.16 3.26,12.19 3.16,12.22 3.05,12.22 2.95,12.22 2.85,12.19 2.75,12.15 2.66,12.09 2.58,12.02 2.52,11.93 2.46,11.84 2.44,11.74 2.41,11.64 2.42,11.53 2.42,11.43 2.46,11.33 2.50,11.23 2.57,11.15 2.64,11.07 2.74,11.01 2.83,10.96 2.93,10.94 3.03,10.92 3.14,10.93 3.25,10.94 3.34,10.99 3.44,11.04 3.51,11.11 3.59,11.18 3.64,11.28 3.69,11.37 3.70,11.48 3.72,11.58 3.70,11.69 3.68,11.79 3.68,11.79 3.68,11.79 3.24,13.14 2.80,14.48 2.58,16.02 2.35,17.56 2.18,17.60 2.00,17.63 1.82,17.62 1.63,17.60 1.46,17.55 1.29,17.50 1.13,17.40 0.98,17.31 0.85,17.18 0.72,17.05 0.63,16.89 0.53,16.74 0.48,16.56 0.43,16.39 0.42,16.21 0.41,16.03 0.44,15.85 0.47,15.67 0.55,15.51 0.62,15.34 0.74,15.20 0.85,15.05 0.99,14.94 1.14,14.83 1.30,14.76 1.47,14.68 2.76,14.46 4.05,14.23 5.64,13.75 7.24,13.26 8.46,13.00 9.69,12.73 10.80,11.91 11.92,11.08 12.58,10.29 13.24,9.51 12.68,8.95 12.11,8.40 11.59,7.70 11.07,7.00 10.30,6.54 9.52,6.09 8.12,5.60 6.71,5.11 5.48,4.61 4.26,4.12 3.94,3.68 3.61,3.24 4.04,1.90 4.47,0.57 4.66,-0.21 4.84,-0.99 5.31,-1.98 5.79,-2.97 6.03,-2.41 6.28,-1.86 5.54,-1.69 4.80,-1.53 3.88,-0.95 2.96,-0.37 1.63,0.12 0.30,0.61 0.22,0.64 0.15,0.66 0.06,0.67 -0.01,0.68 -0.09,0.67 -0.17,0.66 -0.25,0.63 -0.33,0.59 -0.39,0.55 -0.46,0.50 -0.51,0.44 -0.57,0.37 -0.60,0.30 -0.64,0.23 -0.66,0.14 -0.68,0.06 -0.67,-0.01 -0.67,-0.09 -0.65,-0.17 -0.63,-0.25 -0.59,-0.32 -0.55,-0.39 -0.49,-0.46 -0.44,-0.52 -0.37,-0.56 -0.30,-0.61 -0.30,-0.61 L -0.30,-0.61 Z"></path></g><g transform="translate(432.84185791015625 448.17808532714844) rotate(0 5.477203369140625 -3.286376953125)" stroke="none"><path fill="#000000" d="M 0.36,0.72 Q 0.36,0.72 -0.49,1.27 -1.35,1.82 -1.20,1.79 -1.05,1.75 -1.23,1.82 -1.42,1.89 -1.62,1.91 -1.82,1.93 -2.02,1.90 -2.22,1.87 -2.41,1.80 -2.59,1.72 -2.76,1.60 -2.92,1.49 -3.05,1.33 -3.18,1.18 -3.27,1.00 -3.36,0.82 -3.40,0.63 -3.45,0.43 -3.44,0.23 -3.44,0.03 -3.39,-0.15 -3.33,-0.35 -3.24,-0.52 -3.14,-0.70 -3.01,-0.85 -2.87,-0.99 -2.70,-1.11 -2.53,-1.22 -1.69,-1.62 -0.84,-2.02 1.02,-3.10 2.89,-4.18 4.63,-5.25 6.38,-6.33 7.81,-7.09 9.24,-7.85 10.53,-7.52 11.82,-7.19 11.89,-7.22 11.96,-7.25 12.04,-7.26 12.12,-7.27 12.20,-7.26 12.28,-7.26 12.35,-7.23 12.43,-7.21 12.49,-7.16 12.56,-7.12 12.61,-7.06 12.67,-7.00 12.71,-6.94 12.75,-6.87 12.77,-6.79 12.79,-6.71 12.79,-6.64 12.79,-6.56 12.78,-6.48 12.76,-6.40 12.73,-6.33 12.69,-6.26 12.64,-6.20 12.59,-6.14 12.53,-6.09 12.46,-6.04 12.34,-6.00 12.22,-5.96 12.12,-5.97 12.01,-5.97 11.91,-6.01 11.81,-6.05 11.73,-6.11 11.65,-6.18 11.59,-6.27 11.53,-6.36 11.51,-6.46 11.49,-6.57 11.50,-6.67 11.50,-6.78 11.55,-6.88 11.59,-6.97 11.66,-7.05 11.73,-7.13 11.83,-7.18 11.92,-7.23 12.02,-7.25 12.13,-7.27 12.23,-7.26 12.34,-7.24 12.43,-7.19 12.53,-7.14 12.60,-7.07 12.68,-6.99 12.72,-6.90 12.77,-6.80 12.78,-6.70 12.80,-6.59 12.78,-6.49 12.75,-6.38 12.70,-6.29 12.65,-6.20 12.57,-6.13 12.49,-6.06 12.39,-6.02 12.29,-5.98 12.19,-5.97 12.08,-5.96 11.98,-5.99 11.88,-6.01 11.79,-6.07 11.70,-6.13 11.63,-6.21 11.57,-6.30 11.53,-6.40 11.49,-6.50 11.49,-6.60 11.49,-6.71 11.52,-6.81 11.55,-6.91 11.62,-7.00 11.68,-7.08 11.77,-7.14 11.85,-7.21 11.84,-7.20 11.82,-7.18 11.89,-7.22 11.96,-7.25 12.04,-7.26 12.12,-7.27 12.20,-7.26 12.28,-7.26 12.35,-7.23 12.43,-7.21 12.49,-7.16 12.56,-7.12 12.61,-7.06 12.67,-7.00 12.71,-6.94 12.75,-6.87 12.77,-6.79 12.79,-6.71 12.79,-6.64 12.79,-6.56 12.78,-6.48 12.76,-6.40 12.73,-6.33 12.69,-6.26 12.64,-6.20 12.59,-6.14 12.53,-6.09 12.46,-6.04 11.62,-5.60 10.77,-5.16 9.44,-4.35 8.12,-3.55 6.33,-2.42 4.55,-1.29 2.56,-0.15 0.57,0.98 -0.23,1.37 -1.05,1.75 -1.23,1.82 -1.42,1.89 -1.62,1.91 -1.82,1.93 -2.02,1.90 -2.22,1.87 -2.41,1.80 -2.59,1.72 -2.76,1.60 -2.92,1.49 -3.05,1.33 -3.18,1.18 -3.27,1.00 -3.36,0.82 -3.40,0.63 -3.45,0.43 -3.44,0.23 -3.44,0.03 -3.39,-0.15 -3.33,-0.35 -3.24,-0.52 -3.14,-0.70 -3.01,-0.85 -2.87,-0.99 -2.70,-1.11 -2.53,-1.22 -1.85,-0.89 -1.16,-0.57 -0.76,-0.64 -0.36,-0.72 -0.27,-0.76 -0.17,-0.79 -0.08,-0.80 0.01,-0.81 0.11,-0.80 0.21,-0.78 0.30,-0.74 0.39,-0.71 0.47,-0.65 0.55,-0.59 0.61,-0.52 0.67,-0.44 0.72,-0.36 0.76,-0.27 0.78,-0.17 0.80,-0.08 0.80,0.01 0.80,0.11 0.78,0.20 0.75,0.30 0.70,0.38 0.66,0.47 0.59,0.54 0.52,0.61 0.44,0.67 0.36,0.72 0.36,0.72 L 0.36,0.72 Z"></path></g><g transform="translate(438.319091796875 444.89170837402344) rotate(0 -4.38177490234375 8.76361083984375)" stroke="none"><path fill="#000000" d="M 0.68,0.45 Q 0.68,0.45 0.34,1.57 0.00,2.68 -0.13,3.78 -0.28,4.88 -0.68,7.33 -1.08,9.77 -1.25,11.71 -1.42,13.64 -1.85,14.98 -2.27,16.33 -2.90,17.35 -3.53,18.38 -4.79,18.94 -6.05,19.50 -7.43,18.73 -8.81,17.97 -8.57,15.84 -8.33,13.71 -8.31,13.61 -8.29,13.51 -8.24,13.41 -8.19,13.32 -8.11,13.25 -8.03,13.17 -7.94,13.13 -7.84,13.09 -7.73,13.08 -7.63,13.07 -7.52,13.09 -7.42,13.12 -7.33,13.17 -7.24,13.23 -7.17,13.31 -7.10,13.39 -7.07,13.49 -7.03,13.59 -7.02,13.70 -7.02,13.80 -7.05,13.91 -7.08,14.01 -7.14,14.09 -7.20,14.18 -7.29,14.24 -7.37,14.31 -7.47,14.34 -7.57,14.37 -7.68,14.37 -7.79,14.37 -7.89,14.33 -7.99,14.30 -8.07,14.23 -8.15,14.17 -8.21,14.08 -8.27,13.99 -8.30,13.89 -8.32,13.79 -8.32,13.68 -8.31,13.57 -8.27,13.48 -8.23,13.38 -8.16,13.30 -8.09,13.22 -8.00,13.16 -7.91,13.11 -7.80,13.09 -7.70,13.07 -7.59,13.08 -7.49,13.09 -7.39,13.14 -7.30,13.19 -7.22,13.26 -7.14,13.33 -7.09,13.43 -7.05,13.52 -7.03,13.63 -7.01,13.73 -7.01,13.73 -7.01,13.73 -6.87,15.65 -6.73,17.57 -6.36,17.02 -5.99,16.46 -5.66,15.87 -5.32,15.28 -4.96,14.31 -4.60,13.33 -4.41,11.28 -4.21,9.23 -3.76,6.75 -3.30,4.28 -2.91,2.68 -2.52,1.09 -1.60,0.31 -0.68,-0.45 -0.62,-0.53 -0.55,-0.61 -0.47,-0.66 -0.39,-0.72 -0.30,-0.76 -0.21,-0.79 -0.11,-0.81 -0.01,-0.82 0.08,-0.81 0.18,-0.80 0.27,-0.77 0.37,-0.73 0.45,-0.68 0.53,-0.62 0.60,-0.55 0.67,-0.48 0.72,-0.39 0.76,-0.30 0.79,-0.20 0.81,-0.11 0.82,-0.01 0.82,0.08 0.80,0.18 0.77,0.28 0.73,0.36 0.68,0.45 0.68,0.45 L 0.68,0.45 Z"></path></g><g transform="translate(442.70086669921875 444.89170837402344) rotate(0 1.095428466796875 11.502197265625)" stroke="none"><path fill="#000000" d="M 0.81,0 Q 0.81,0 1.23,0.94 1.66,1.88 1.67,3.23 1.68,4.58 1.36,6.85 1.05,9.12 0.92,11.53 0.79,13.94 0.74,15.92 0.68,17.90 0.61,19.33 0.54,20.76 0.66,21.42 0.79,22.09 0.77,22.24 0.75,22.39 0.69,22.53 0.64,22.67 0.55,22.79 0.46,22.91 0.35,23.01 0.23,23.10 0.10,23.17 -0.02,23.24 -0.17,23.27 -0.32,23.31 -0.47,23.30 -0.62,23.30 -0.76,23.26 -0.91,23.22 -1.04,23.15 -1.17,23.08 -1.28,22.98 -1.39,22.88 -1.47,22.75 -1.56,22.63 -1.61,22.49 -1.66,22.35 -1.67,22.20 -1.69,22.05 0.28,20.82 2.26,19.58 2.35,19.54 2.45,19.50 2.56,19.49 2.66,19.48 2.77,19.51 2.87,19.54 2.96,19.59 3.05,19.65 3.11,19.74 3.18,19.82 3.22,19.92 3.25,20.02 3.25,20.13 3.26,20.23 3.22,20.33 3.19,20.43 3.13,20.52 3.07,20.61 2.98,20.67 2.89,20.73 2.79,20.76 2.69,20.79 2.58,20.79 2.48,20.78 2.38,20.75 2.28,20.71 2.20,20.64 2.11,20.57 2.06,20.48 2.00,20.39 1.98,20.29 1.95,20.19 1.96,20.08 1.97,19.98 2.01,19.88 2.06,19.78 2.13,19.70 2.20,19.62 2.29,19.57 2.38,19.52 2.49,19.50 2.59,19.48 2.70,19.50 2.80,19.51 2.90,19.56 2.99,19.61 3.07,19.68 3.14,19.76 3.19,19.85 3.24,19.95 3.25,20.06 3.26,20.16 3.24,20.26 3.22,20.37 3.17,20.46 3.12,20.55 3.04,20.62 2.96,20.69 2.96,20.69 2.96,20.69 1.87,21.39 0.79,22.09 0.77,22.24 0.75,22.39 0.69,22.53 0.64,22.67 0.55,22.79 0.46,22.91 0.35,23.01 0.23,23.10 0.10,23.17 -0.02,23.24 -0.17,23.27 -0.32,23.31 -0.47,23.30 -0.62,23.30 -0.76,23.26 -0.91,23.22 -1.04,23.15 -1.17,23.08 -1.28,22.98 -1.39,22.88 -1.47,22.75 -1.56,22.63 -1.61,22.49 -1.66,22.35 -1.67,22.20 -1.69,22.05 -2.17,21.46 -2.66,20.86 -2.68,19.33 -2.70,17.80 -2.64,15.78 -2.59,13.75 -2.45,11.19 -2.31,8.63 -1.99,6.60 -1.68,4.57 -1.67,3.23 -1.66,1.88 -1.23,0.94 -0.81,0 -0.79,-0.09 -0.78,-0.19 -0.75,-0.28 -0.71,-0.37 -0.66,-0.45 -0.60,-0.53 -0.53,-0.60 -0.46,-0.66 -0.37,-0.71 -0.28,-0.75 -0.19,-0.78 -0.09,-0.80 0.00,-0.80 0.09,-0.80 0.19,-0.78 0.28,-0.75 0.37,-0.71 0.46,-0.66 0.53,-0.60 0.60,-0.53 0.66,-0.45 0.71,-0.37 0.75,-0.28 0.78,-0.19 0.79,-0.09 0.81,0.00 0.81,0.00 L 0.81,0 Z"></path></g><g transform="translate(403.26483154296875 476.65965270996094) rotate(0 30.124725341796875 -2.738616943359375)" stroke="none"><path fill="#000000" d="M -0.09,-0.92 Q -0.09,-0.92 3.02,-1.56 6.14,-2.19 11.21,-2.99 16.29,-3.78 21.95,-4.43 27.62,-5.09 32.86,-5.64 38.09,-6.19 42.57,-6.30 47.05,-6.42 50.53,-6.26 54.01,-6.11 56.56,-6.11 59.11,-6.10 59.21,-6.09 59.32,-6.07 59.41,-6.02 59.51,-5.98 59.58,-5.90 59.66,-5.83 59.70,-5.73 59.75,-5.64 59.77,-5.53 59.78,-5.42 59.76,-5.32 59.74,-5.22 59.69,-5.12 59.63,-5.03 59.56,-4.96 59.48,-4.89 59.38,-4.85 59.28,-4.81 59.17,-4.80 59.07,-4.79 58.97,-4.82 58.86,-4.84 58.77,-4.90 58.68,-4.96 58.62,-5.04 58.55,-5.12 58.51,-5.22 58.48,-5.32 58.48,-5.43 58.47,-5.53 58.50,-5.64 58.54,-5.74 58.60,-5.82 58.66,-5.91 58.75,-5.97 58.83,-6.03 58.93,-6.06 59.04,-6.09 59.14,-6.09 59.25,-6.09 59.35,-6.05 59.45,-6.01 59.53,-5.95 59.61,-5.88 59.67,-5.79 59.73,-5.70 59.75,-5.60 59.78,-5.50 59.77,-5.39 59.76,-5.28 59.72,-5.19 59.68,-5.09 59.61,-5.01 59.53,-4.93 59.44,-4.88 59.35,-4.83 59.24,-4.81 59.14,-4.79 59.14,-4.79 59.14,-4.79 56.60,-4.65 54.06,-4.52 50.63,-4.16 47.20,-3.79 42.82,-3.41 38.45,-3.02 33.22,-2.40 28.00,-1.78 22.38,-1.15 16.77,-0.52 11.61,0.20 6.45,0.93 3.27,0.93 0.09,0.92 -0.01,0.92 -0.13,0.92 -0.24,0.89 -0.34,0.86 -0.44,0.80 -0.54,0.75 -0.62,0.67 -0.71,0.60 -0.77,0.50 -0.83,0.41 -0.87,0.30 -0.90,0.20 -0.92,0.09 -0.93,-0.01 -0.91,-0.13 -0.89,-0.24 -0.85,-0.34 -0.81,-0.45 -0.74,-0.54 -0.68,-0.63 -0.59,-0.70 -0.51,-0.77 -0.41,-0.82 -0.31,-0.87 -0.20,-0.90 -0.09,-0.92 -0.09,-0.92 L -0.09,-0.92 Z"></path></g><g transform="translate(424.07830810546875 482.1368865966797) rotate(0 9.858978271484375 13.14532470703125)" stroke="none"><path fill="#000000" d="M 0.71,0 Q 0.71,0 1.21,0.94 1.71,1.89 1.39,3.43 1.07,4.97 0.97,6.67 0.87,8.37 0.82,10.37 0.77,12.37 0.43,15.21 0.09,18.05 -0.38,19.96 -0.86,21.88 -1.04,23.12 -1.23,24.36 -0.69,24.26 -0.16,24.17 2.08,23.40 4.33,22.63 7.26,21.18 10.19,19.73 12.80,18.31 15.41,16.89 18.36,14.73 21.31,12.56 21.41,12.51 21.50,12.46 21.60,12.44 21.71,12.42 21.81,12.43 21.92,12.45 22.01,12.49 22.11,12.54 22.18,12.61 22.26,12.69 22.31,12.78 22.35,12.88 22.37,12.98 22.38,13.09 22.36,13.19 22.34,13.30 22.29,13.39 22.24,13.48 22.16,13.56 22.08,13.63 21.99,13.67 21.89,13.71 21.78,13.72 21.68,13.73 21.57,13.70 21.47,13.68 21.38,13.62 21.29,13.56 21.22,13.48 21.16,13.40 21.12,13.30 21.08,13.20 21.08,13.09 21.08,12.99 21.11,12.89 21.14,12.78 21.20,12.70 21.26,12.61 21.35,12.55 21.43,12.49 21.54,12.46 21.64,12.42 21.74,12.43 21.85,12.43 21.95,12.47 22.05,12.50 22.13,12.57 22.21,12.63 22.27,12.72 22.33,12.81 22.36,12.92 22.38,13.02 22.37,13.12 22.36,13.23 22.32,13.33 22.28,13.43 22.21,13.51 22.14,13.58 22.14,13.58 22.14,13.58 19.32,16.09 16.50,18.59 14.03,20.44 11.56,22.28 8.46,24.06 5.36,25.85 2.31,26.75 -0.72,27.65 -2.20,27.09 -3.67,26.53 -4.21,25.31 -4.76,24.09 -4.55,22.54 -4.35,20.99 -3.91,19.30 -3.47,17.61 -3.13,14.94 -2.79,12.27 -2.73,10.19 -2.66,8.11 -2.50,6.15 -2.33,4.18 -2.02,3.03 -1.71,1.87 -1.21,0.93 -0.71,0 -0.70,-0.08 -0.68,-0.17 -0.65,-0.25 -0.62,-0.33 -0.58,-0.40 -0.53,-0.47 -0.46,-0.52 -0.40,-0.58 -0.32,-0.62 -0.25,-0.66 -0.16,-0.68 -0.08,-0.70 0.00,-0.70 0.08,-0.70 0.16,-0.68 0.25,-0.66 0.32,-0.62 0.40,-0.58 0.46,-0.52 0.53,-0.47 0.58,-0.40 0.62,-0.33 0.65,-0.25 0.68,-0.16 0.70,-0.08 0.71,0.00 0.71,0.00 L 0.71,0 Z"></path></g><g transform="translate(436.128173828125 482.1368865966797) rotate(0 1.095458984375 16.979400634765625)" stroke="none"><path fill="#000000" d="M 0.98,0 Q 0.98,0 1.31,0.94 1.63,1.88 1.75,4.17 1.87,6.47 2.21,8.90 2.56,11.33 2.74,14.05 2.91,16.78 3.20,21.03 3.50,25.28 3.58,27.43 3.67,29.58 2.76,31.76 1.85,33.94 1.78,34.03 1.71,34.11 1.63,34.17 1.54,34.23 1.43,34.25 1.33,34.28 1.22,34.27 1.12,34.27 1.02,34.23 0.92,34.18 0.84,34.11 0.76,34.04 0.71,33.95 0.66,33.86 0.64,33.76 0.61,33.65 0.63,33.55 0.64,33.44 0.69,33.35 0.73,33.25 0.81,33.17 0.88,33.10 0.98,33.05 1.07,33.00 1.18,32.99 1.28,32.97 1.39,32.99 1.49,33.01 1.58,33.06 1.68,33.11 1.75,33.19 1.82,33.27 1.86,33.37 1.91,33.46 1.92,33.57 1.93,33.67 1.90,33.78 1.88,33.88 1.82,33.97 1.76,34.06 1.68,34.13 1.60,34.20 1.50,34.23 1.40,34.27 1.29,34.28 1.19,34.28 1.09,34.25 0.98,34.22 0.90,34.16 0.81,34.10 0.75,34.01 0.69,33.93 0.65,33.82 0.62,33.72 0.62,33.62 0.62,33.51 0.66,33.41 0.70,33.31 0.70,33.31 0.70,33.31 0.47,31.57 0.24,29.83 0.01,27.72 -0.22,25.60 -0.67,21.29 -1.12,16.98 -1.21,14.39 -1.30,11.80 -1.58,9.14 -1.87,6.47 -1.75,4.18 -1.63,1.88 -1.31,0.94 -0.98,0 -0.97,-0.11 -0.95,-0.23 -0.91,-0.34 -0.87,-0.45 -0.80,-0.55 -0.73,-0.65 -0.65,-0.73 -0.56,-0.81 -0.45,-0.86 -0.35,-0.92 -0.23,-0.95 -0.11,-0.98 0.00,-0.98 0.11,-0.98 0.23,-0.95 0.35,-0.92 0.45,-0.86 0.56,-0.81 0.65,-0.73 0.73,-0.65 0.80,-0.55 0.87,-0.45 0.91,-0.34 0.95,-0.23 0.97,-0.11 0.98,0.00 0.98,0.00 L 0.98,0 Z"></path></g><g transform="translate(538.0045776367188 346.3016815185547) rotate(0 -3.28631591796875 29.5770263671875)" stroke="none"><path fill="#000000" d="M 0.38,0.76 Q 0.38,0.76 -0.00,1.40 -0.38,2.05 -0.83,2.85 -1.28,3.66 -1.64,4.61 -1.99,5.56 -2.49,6.95 -2.98,8.35 -3.15,9.72 -3.32,11.10 -3.74,13.08 -4.16,15.06 -4.32,17.03 -4.48,18.99 -4.87,21.81 -5.26,24.63 -5.10,26.56 -4.94,28.49 -4.88,30.69 -4.81,32.89 -4.49,34.62 -4.16,36.34 -3.40,38.93 -2.64,41.53 -2.29,43.72 -1.94,45.92 -1.50,47.67 -1.06,49.42 -0.56,51.11 -0.06,52.79 0.17,54.26 0.41,55.73 0.92,55.92 1.43,56.11 1.44,56.19 1.44,56.27 1.42,56.35 1.41,56.43 1.37,56.50 1.34,56.57 1.29,56.63 1.24,56.69 1.17,56.74 1.11,56.79 1.04,56.82 0.96,56.85 0.89,56.86 0.81,56.87 0.73,56.87 0.65,56.86 0.58,56.84 0.50,56.81 0.43,56.77 0.37,56.72 0.31,56.67 0.26,56.61 0.22,56.54 0.18,56.47 0.16,56.40 0.14,56.32 0.29,55.99 0.45,55.65 0.55,55.61 0.65,55.58 0.75,55.57 0.86,55.57 0.96,55.59 1.06,55.62 1.15,55.68 1.24,55.74 1.30,55.83 1.37,55.91 1.40,56.02 1.43,56.12 1.43,56.22 1.43,56.33 1.40,56.43 1.36,56.53 1.30,56.61 1.23,56.70 1.14,56.76 1.05,56.82 0.95,56.84 0.85,56.87 0.74,56.86 0.64,56.86 0.54,56.82 0.44,56.78 0.36,56.71 0.28,56.64 0.23,56.55 0.17,56.46 0.15,56.35 0.13,56.25 0.14,56.14 0.15,56.04 0.20,55.94 0.24,55.84 0.32,55.77 0.39,55.69 0.49,55.64 0.58,55.59 0.68,55.58 0.79,55.56 0.89,55.58 1.00,55.60 1.09,55.65 1.19,55.70 1.26,55.78 1.33,55.85 1.37,55.95 1.42,56.05 1.43,56.15 1.44,56.26 1.42,56.36 1.39,56.47 1.34,56.56 1.28,56.65 1.36,56.38 1.43,56.11 1.44,56.19 1.44,56.27 1.42,56.35 1.41,56.43 1.37,56.50 1.34,56.57 1.29,56.63 1.24,56.69 1.17,56.74 1.11,56.79 1.04,56.82 0.96,56.85 0.89,56.86 0.81,56.87 0.73,56.87 0.65,56.86 0.58,56.84 0.50,56.81 0.43,56.77 0.37,56.72 0.31,56.67 0.26,56.61 0.22,56.54 0.18,56.47 0.16,56.40 0.14,56.32 -1.55,56.33 -3.24,56.35 -3.43,55.09 -3.62,53.84 -4.14,52.08 -4.66,50.32 -5.13,48.41 -5.60,46.50 -5.91,44.53 -6.21,42.55 -7.00,39.78 -7.80,37.01 -8.15,35.01 -8.51,33.01 -8.57,30.88 -8.64,28.75 -8.78,26.44 -8.92,24.13 -8.53,21.41 -8.14,18.68 -7.95,16.49 -7.76,14.30 -7.36,12.44 -6.96,10.58 -6.68,8.85 -6.40,7.11 -5.85,5.63 -5.29,4.14 -4.65,2.78 -4.01,1.41 -3.65,1.01 -3.29,0.62 -2.71,-0.08 -2.13,-0.79 -1.25,-0.77 -0.38,-0.76 -0.28,-0.80 -0.18,-0.83 -0.08,-0.84 0.01,-0.85 0.11,-0.84 0.22,-0.82 0.31,-0.79 0.41,-0.75 0.49,-0.69 0.58,-0.63 0.64,-0.55 0.71,-0.47 0.76,-0.38 0.80,-0.28 0.83,-0.18 0.85,-0.08 0.85,0.01 0.85,0.12 0.82,0.22 0.79,0.32 0.74,0.41 0.69,0.50 0.62,0.57 0.55,0.65 0.47,0.71 0.38,0.76 0.38,0.76 L 0.38,0.76 Z"></path></g><g transform="translate(543.4818115234375 369.30601501464844) rotate(0 10.40673828125 -7.668121337890625)" stroke="none"><path fill="#000000" d="M -0.83,-0.41 Q -0.83,-0.41 -0.60,-1.89 -0.38,-3.38 1.00,-4.78 2.39,-6.19 4.22,-7.69 6.05,-9.18 7.40,-10.39 8.76,-11.61 10.46,-12.56 12.17,-13.52 13.47,-14.20 14.77,-14.87 17.85,-14.90 20.93,-14.93 21.01,-14.86 21.09,-14.79 21.15,-14.70 21.20,-14.61 21.22,-14.51 21.25,-14.40 21.24,-14.30 21.22,-14.19 21.18,-14.10 21.14,-14.00 21.06,-13.92 20.99,-13.84 20.90,-13.79 20.80,-13.74 20.70,-13.73 20.59,-13.71 20.49,-13.73 20.38,-13.74 20.29,-13.79 20.20,-13.84 20.12,-13.92 20.05,-13.99 20.00,-14.09 19.96,-14.19 19.95,-14.29 19.94,-14.40 19.96,-14.50 19.98,-14.61 20.03,-14.70 20.09,-14.79 20.17,-14.86 20.25,-14.93 20.35,-14.97 20.45,-15.01 20.55,-15.01 20.66,-15.02 20.76,-14.99 20.86,-14.96 20.95,-14.90 21.04,-14.84 21.11,-14.76 21.17,-14.68 21.20,-14.57 21.24,-14.47 21.24,-14.37 21.24,-14.26 21.21,-14.16 21.17,-14.06 21.11,-13.98 21.04,-13.89 20.96,-13.83 20.87,-13.77 20.77,-13.74 20.66,-13.71 20.56,-13.72 20.45,-13.72 20.35,-13.76 20.25,-13.80 20.25,-13.80 20.25,-13.80 18.37,-12.71 16.48,-11.61 15.22,-10.94 13.96,-10.27 12.60,-9.54 11.24,-8.81 9.82,-7.54 8.41,-6.27 6.69,-4.89 4.97,-3.50 3.94,-2.58 2.90,-1.65 1.86,-0.62 0.83,0.41 0.76,0.50 0.70,0.60 0.62,0.67 0.54,0.75 0.44,0.80 0.34,0.86 0.23,0.89 0.13,0.91 0.01,0.92 -0.09,0.92 -0.20,0.89 -0.31,0.87 -0.41,0.82 -0.51,0.77 -0.59,0.70 -0.68,0.62 -0.74,0.53 -0.81,0.44 -0.85,0.34 -0.89,0.23 -0.91,0.12 -0.92,0.01 -0.91,-0.09 -0.90,-0.20 -0.86,-0.31 -0.83,-0.41 -0.83,-0.41 L -0.83,-0.41 Z"></path></g><g transform="translate(548.9590454101562 360.54246520996094) rotate(0 1.643157958984375 7.120391845703125)" stroke="none"><path fill="#000000" d="M 0.85,0 Q 0.85,0 1.28,1.57 1.72,3.14 2.04,5.60 2.37,8.05 2.50,9.47 2.63,10.90 2.58,11.74 2.54,12.59 2.77,13.08 3.00,13.58 2.99,13.74 2.98,13.90 2.93,14.05 2.88,14.20 2.80,14.34 2.72,14.47 2.61,14.58 2.50,14.70 2.36,14.78 2.23,14.86 2.07,14.91 1.92,14.95 1.77,14.96 1.61,14.97 1.45,14.95 1.30,14.92 1.15,14.85 1.01,14.79 0.88,14.69 0.76,14.59 0.66,14.47 0.56,14.34 0.50,14.20 0.43,14.06 0.40,13.90 0.37,13.75 1.38,12.02 2.39,10.29 2.44,10.20 2.50,10.11 2.58,10.04 2.66,9.97 2.76,9.94 2.86,9.90 2.97,9.89 3.08,9.89 3.18,9.92 3.28,9.95 3.37,10.01 3.45,10.07 3.52,10.16 3.58,10.24 3.61,10.35 3.64,10.45 3.64,10.55 3.64,10.66 3.60,10.76 3.57,10.86 3.50,10.94 3.44,11.03 3.35,11.08 3.26,11.14 3.16,11.17 3.05,11.20 2.95,11.19 2.84,11.18 2.74,11.14 2.64,11.10 2.56,11.03 2.48,10.96 2.43,10.87 2.38,10.77 2.36,10.67 2.34,10.57 2.35,10.46 2.36,10.36 2.41,10.26 2.46,10.16 2.53,10.09 2.60,10.01 2.70,9.96 2.79,9.92 2.90,9.90 3.00,9.89 3.11,9.90 3.21,9.92 3.31,9.98 3.40,10.03 3.47,10.10 3.54,10.18 3.59,10.28 3.63,10.38 3.64,10.48 3.65,10.59 3.62,10.69 3.60,10.80 3.60,10.80 3.60,10.80 3.30,12.19 3.00,13.58 2.99,13.74 2.98,13.90 2.93,14.05 2.88,14.20 2.80,14.34 2.72,14.47 2.61,14.58 2.50,14.70 2.36,14.78 2.23,14.86 2.07,14.91 1.92,14.95 1.77,14.96 1.61,14.97 1.45,14.95 1.30,14.92 1.15,14.85 1.01,14.79 0.88,14.69 0.76,14.59 0.66,14.47 0.56,14.34 0.50,14.20 0.43,14.06 0.40,13.90 0.37,13.75 -0.06,13.47 -0.51,13.19 -0.67,12.21 -0.83,11.23 -0.97,9.85 -1.11,8.48 -1.41,5.81 -1.72,3.15 -1.28,1.57 -0.85,0 -0.83,-0.10 -0.82,-0.20 -0.78,-0.29 -0.75,-0.39 -0.69,-0.47 -0.63,-0.56 -0.56,-0.63 -0.48,-0.70 -0.39,-0.74 -0.30,-0.79 -0.20,-0.82 -0.10,-0.84 0.00,-0.84 0.10,-0.84 0.20,-0.82 0.30,-0.79 0.39,-0.74 0.48,-0.70 0.56,-0.63 0.63,-0.56 0.69,-0.47 0.75,-0.39 0.78,-0.29 0.82,-0.20 0.83,-0.10 0.85,0.00 0.85,0.00 L 0.85,0 Z"></path></g><g transform="translate(558.8180541992188 355.0652313232422) rotate(0 0.5477294921875 8.215850830078125)" stroke="none"><path fill="#000000" d="M 0.68,0 Q 0.68,0 1.22,1.25 1.76,2.51 2.06,3.81 2.36,5.11 2.51,7.12 2.66,9.13 2.70,10.59 2.73,12.05 1.79,13.16 0.84,14.27 0.84,14.35 0.83,14.43 0.80,14.51 0.78,14.58 0.74,14.65 0.69,14.72 0.64,14.77 0.58,14.83 0.51,14.87 0.44,14.91 0.37,14.93 0.29,14.95 0.21,14.95 0.13,14.96 0.06,14.94 -0.01,14.92 -0.08,14.89 -0.15,14.86 -0.22,14.81 -0.28,14.76 -0.32,14.69 -0.37,14.63 -0.40,14.56 -0.43,14.48 -0.45,14.40 -0.46,14.33 -0.33,14.57 -0.20,14.82 -0.28,14.75 -0.35,14.67 -0.39,14.57 -0.44,14.47 -0.45,14.37 -0.46,14.26 -0.44,14.16 -0.41,14.06 -0.36,13.97 -0.30,13.87 -0.22,13.81 -0.14,13.74 -0.04,13.70 0.05,13.66 0.15,13.65 0.26,13.65 0.36,13.68 0.46,13.71 0.55,13.77 0.64,13.83 0.70,13.91 0.77,13.99 0.80,14.10 0.83,14.20 0.83,14.30 0.83,14.41 0.80,14.51 0.77,14.61 0.70,14.69 0.64,14.78 0.55,14.84 0.46,14.90 0.36,14.93 0.26,14.95 0.15,14.95 0.04,14.94 -0.04,14.90 -0.14,14.86 -0.22,14.79 -0.31,14.72 -0.36,14.63 -0.41,14.54 -0.44,14.44 -0.46,14.33 -0.45,14.23 -0.44,14.12 -0.39,14.03 -0.35,13.93 -0.27,13.85 -0.20,13.78 -0.11,13.73 -0.01,13.68 0.08,13.66 0.19,13.64 0.29,13.66 0.40,13.68 0.62,13.98 0.84,14.27 0.84,14.35 0.83,14.43 0.80,14.51 0.78,14.58 0.74,14.65 0.69,14.72 0.64,14.77 0.58,14.83 0.51,14.87 0.44,14.91 0.37,14.93 0.29,14.95 0.21,14.95 0.13,14.96 0.06,14.94 -0.01,14.92 -0.08,14.89 -0.15,14.86 -0.22,14.81 -0.28,14.76 -0.32,14.69 -0.37,14.63 -0.40,14.56 -0.43,14.48 -0.45,14.40 -0.46,14.33 -0.58,13.26 -0.71,12.19 -0.79,10.78 -0.87,9.38 -0.98,7.61 -1.10,5.84 -1.43,4.18 -1.76,2.52 -1.22,1.26 -0.68,0 -0.67,-0.08 -0.66,-0.16 -0.63,-0.24 -0.60,-0.31 -0.56,-0.38 -0.51,-0.45 -0.45,-0.51 -0.39,-0.56 -0.31,-0.60 -0.24,-0.64 -0.16,-0.66 -0.08,-0.68 0.00,-0.68 0.08,-0.68 0.16,-0.66 0.24,-0.64 0.31,-0.60 0.39,-0.56 0.45,-0.51 0.51,-0.45 0.56,-0.38 0.60,-0.31 0.63,-0.24 0.66,-0.16 0.67,-0.08 0.68,0.00 0.68,0.00 L 0.68,0 Z"></path></g><g transform="translate(552.245361328125 381.35594177246094) rotate(0 10.9544677734375 -9.311309814453125)" stroke="none"><path fill="#000000" d="M -0.28,-0.86 Q -0.28,-0.86 0.50,-1.56 1.29,-2.27 2.67,-3.53 4.05,-4.79 5.98,-6.61 7.90,-8.43 9.99,-10.46 12.08,-12.49 14.35,-14.26 16.62,-16.03 18.86,-17.45 21.10,-18.88 21.20,-18.92 21.30,-18.96 21.40,-18.97 21.51,-18.98 21.61,-18.96 21.71,-18.93 21.80,-18.88 21.89,-18.82 21.96,-18.74 22.03,-18.66 22.07,-18.56 22.11,-18.46 22.11,-18.35 22.11,-18.25 22.08,-18.14 22.05,-18.04 21.99,-17.96 21.93,-17.87 21.85,-17.81 21.76,-17.74 21.66,-17.71 21.56,-17.68 21.45,-17.68 21.35,-17.68 21.25,-17.72 21.15,-17.75 21.06,-17.82 20.98,-17.88 20.92,-17.97 20.86,-18.06 20.84,-18.16 20.81,-18.27 20.82,-18.37 20.82,-18.48 20.86,-18.58 20.90,-18.67 20.97,-18.75 21.04,-18.83 21.14,-18.89 21.23,-18.94 21.33,-18.96 21.44,-18.98 21.54,-18.97 21.65,-18.96 21.74,-18.91 21.84,-18.87 21.91,-18.79 21.99,-18.72 22.04,-18.62 22.09,-18.53 22.10,-18.42 22.12,-18.32 22.10,-18.21 22.08,-18.11 22.03,-18.02 21.98,-17.92 21.90,-17.85 21.82,-17.78 21.82,-17.78 21.82,-17.78 20.23,-15.72 18.64,-13.65 16.61,-11.79 14.58,-9.93 12.48,-7.87 10.37,-5.81 8.37,-3.92 6.36,-2.04 4.42,-0.51 2.48,1.01 1.38,0.93 0.28,0.86 0.18,0.88 0.07,0.90 -0.03,0.90 -0.14,0.89 -0.25,0.86 -0.35,0.83 -0.45,0.78 -0.54,0.72 -0.62,0.65 -0.70,0.57 -0.76,0.48 -0.82,0.39 -0.85,0.28 -0.89,0.18 -0.90,0.07 -0.91,-0.03 -0.89,-0.14 -0.87,-0.25 -0.83,-0.35 -0.78,-0.45 -0.72,-0.54 -0.65,-0.63 -0.57,-0.70 -0.48,-0.77 -0.38,-0.81 -0.28,-0.86 -0.28,-0.86 L -0.28,-0.86 Z"></path></g><g transform="translate(565.3906860351562 373.6877899169922) rotate(0 5.477264404296875 6.02496337890625)" stroke="none"><path fill="#000000" d="M 0.91,0 Q 0.91,0 1.19,1.25 1.48,2.51 1.51,3.69 1.53,4.86 1.20,6.19 0.87,7.51 0.76,8.47 0.65,9.44 1.12,9.76 1.58,10.08 2.10,9.88 2.61,9.69 4.00,8.55 5.39,7.41 6.73,6.06 8.06,4.71 9.51,3.11 10.95,1.52 11.02,1.44 11.10,1.36 11.19,1.31 11.29,1.27 11.39,1.25 11.50,1.23 11.60,1.25 11.71,1.27 11.80,1.32 11.89,1.37 11.97,1.45 12.04,1.53 12.08,1.62 12.12,1.72 12.14,1.83 12.15,1.93 12.12,2.04 12.10,2.14 12.04,2.23 11.99,2.32 11.90,2.39 11.82,2.46 11.72,2.49 11.62,2.53 11.52,2.54 11.41,2.54 11.31,2.51 11.21,2.48 11.12,2.42 11.03,2.36 10.97,2.28 10.91,2.19 10.87,2.09 10.84,1.99 10.84,1.88 10.84,1.78 10.88,1.68 10.91,1.58 10.98,1.49 11.04,1.41 11.13,1.35 11.22,1.29 11.32,1.26 11.43,1.24 11.53,1.24 11.64,1.25 11.74,1.29 11.84,1.33 11.92,1.40 12.00,1.47 12.05,1.56 12.10,1.65 12.12,1.76 12.15,1.86 12.13,1.97 12.12,2.07 12.08,2.17 12.03,2.26 12.03,2.26 12.03,2.26 10.96,4.29 9.89,6.32 8.55,7.99 7.21,9.66 5.28,11.19 3.35,12.72 1.98,12.87 0.60,13.02 -0.49,12.35 -1.60,11.68 -2.02,10.43 -2.45,9.19 -2.29,7.93 -2.13,6.68 -1.83,5.75 -1.53,4.83 -1.51,3.67 -1.48,2.51 -1.19,1.25 -0.91,0 -0.90,-0.10 -0.88,-0.21 -0.85,-0.32 -0.81,-0.42 -0.74,-0.51 -0.68,-0.60 -0.60,-0.68 -0.52,-0.75 -0.42,-0.80 -0.32,-0.85 -0.21,-0.88 -0.11,-0.90 0.00,-0.90 0.11,-0.90 0.21,-0.88 0.32,-0.85 0.42,-0.80 0.52,-0.75 0.60,-0.68 0.68,-0.60 0.74,-0.51 0.81,-0.42 0.85,-0.32 0.88,-0.21 0.90,-0.10 0.91,0.00 0.91,0.00 L 0.91,0 Z"></path></g><g transform="translate(570.867919921875 370.40147399902344) rotate(0 -1.643157958984375 14.24078369140625)" stroke="none"><path fill="#000000" d="M 0.92,-0.18 Q 0.92,-0.18 1.60,1.31 2.28,2.81 2.44,4.85 2.60,6.88 2.66,9.64 2.72,12.39 2.34,14.92 1.96,17.44 0.46,20.08 -1.04,22.72 -2.17,25.18 -3.29,27.65 -3.35,27.74 -3.41,27.83 -3.49,27.90 -3.58,27.96 -3.68,28.00 -3.78,28.03 -3.88,28.03 -3.99,28.04 -4.09,28.00 -4.19,27.97 -4.28,27.91 -4.36,27.85 -4.42,27.76 -4.49,27.67 -4.52,27.57 -4.55,27.47 -4.54,27.36 -4.54,27.26 -4.50,27.16 -4.46,27.06 -4.39,26.98 -4.33,26.89 -4.24,26.84 -4.15,26.78 -4.04,26.76 -3.94,26.73 -3.83,26.74 -3.73,26.75 -3.63,26.79 -3.53,26.84 -3.46,26.91 -3.38,26.98 -3.33,27.07 -3.27,27.17 -3.26,27.27 -3.24,27.38 -3.25,27.48 -3.27,27.59 -3.32,27.68 -3.36,27.78 -3.44,27.85 -3.52,27.92 -3.61,27.97 -3.71,28.02 -3.81,28.03 -3.92,28.04 -4.02,28.02 -4.13,28.00 -4.22,27.95 -4.31,27.89 -4.38,27.81 -4.45,27.73 -4.49,27.64 -4.53,27.54 -4.54,27.43 -4.55,27.33 -4.52,27.22 -4.49,27.12 -4.49,27.12 -4.49,27.12 -3.43,24.65 -2.36,22.17 -1.73,19.61 -1.10,17.04 -0.90,14.75 -0.70,12.45 -0.75,9.79 -0.81,7.12 -0.91,5.30 -1.02,3.47 -0.97,1.83 -0.92,0.18 -0.93,0.07 -0.94,-0.04 -0.92,-0.15 -0.90,-0.26 -0.86,-0.37 -0.81,-0.47 -0.74,-0.56 -0.67,-0.65 -0.59,-0.72 -0.50,-0.80 -0.39,-0.84 -0.29,-0.89 -0.18,-0.91 -0.07,-0.94 0.04,-0.93 0.15,-0.93 0.26,-0.89 0.37,-0.86 0.47,-0.81 0.57,-0.75 0.65,-0.67 0.73,-0.59 0.79,-0.49 0.85,-0.40 0.89,-0.29 0.92,-0.18 0.92,-0.18 L 0.92,-0.18 Z"></path></g></svg>