<svg version="1.1" xmlns="http://www.w3.org/2000/svg" viewBox="0 0 400.1195068359375 441.74639892578125" width="400.1195068359375" height="441.74639892578125" filter="invert(93%) hue-rotate(180deg)" class="excalidraw-svg"><!-- svg-source:excalidraw --><metadata></metadata><defs><style class="style-fonts">
      </style></defs><rect x="0" y="0" width="400.1195068359375" height="441.74639892578125" fill="transparent"></rect><g stroke-linecap="round"><g transform="translate(337.53814697265625 10) rotate(0 4.38177490234375 188.41656494140625)"><path d="M0 0 C1.46 62.81, 7.3 314.03, 8.76 376.83 M0 0 C1.46 62.81, 7.3 314.03, 8.76 376.83" stroke="#000000" stroke-width="0.5" fill="none"></path></g></g><mask></mask><g stroke-linecap="round"><g transform="translate(339.72900390625 13.286346435546875) rotate(0 -164.864501953125 185.13023376464844)"><path d="M0 0 C-54.95 61.71, -274.77 308.55, -329.73 370.26 M0 0 C-54.95 61.71, -274.77 308.55, -329.73 370.26" stroke="#000000" stroke-width="0.5" fill="none"></path></g></g><mask></mask><g stroke-linecap="round"><g transform="translate(346.30169677734375 383.54681396484375) rotate(0 -167.60311889648438 0.547698974609375)"><path d="M0 0 C-55.87 0.18, -279.34 0.91, -335.21 1.1 M0 0 C-55.87 0.18, -279.34 0.91, -335.21 1.1" stroke="#000000" stroke-width="0.5" fill="none"></path></g></g><mask></mask><g transform="translate(309.0565185546875 347.3970947265625) rotate(0 0.5477294921875 17.527130126953125)" stroke="none"><path fill="#000000" d="M 0.83,-0.20 Q 0.83,-0.20 1.45,0.97 2.08,2.15 2.25,4.40 2.41,6.64 2.47,9.14 2.53,11.64 2.24,14.68 1.94,17.71 1.82,20.49 1.70,23.27 1.59,26.34 1.47,29.41 1.06,31.16 0.65,32.92 0.62,33.02 0.58,33.12 0.52,33.21 0.46,33.29 0.37,33.35 0.28,33.41 0.18,33.44 0.08,33.47 -0.02,33.47 -0.12,33.46 -0.22,33.42 -0.32,33.39 -0.40,33.32 -0.48,33.25 -0.54,33.16 -0.60,33.07 -0.62,32.97 -0.64,32.86 -0.63,32.76 -0.62,32.65 -0.58,32.55 -0.54,32.46 -0.46,32.38 -0.39,32.30 -0.30,32.25 -0.21,32.20 -0.10,32.18 -0.00,32.16 0.10,32.18 0.20,32.19 0.30,32.24 0.39,32.29 0.47,32.37 0.54,32.45 0.59,32.54 0.63,32.64 0.64,32.74 0.66,32.85 0.64,32.95 0.61,33.06 0.56,33.15 0.51,33.24 0.43,33.31 0.35,33.38 0.25,33.42 0.15,33.46 0.04,33.47 -0.05,33.47 -0.16,33.45 -0.26,33.42 -0.35,33.36 -0.44,33.30 -0.50,33.22 -0.57,33.13 -0.60,33.03 -0.64,32.93 -0.64,32.83 -0.64,32.72 -0.64,32.72 -0.64,32.72 -0.98,31.04 -1.32,29.36 -1.33,26.25 -1.33,23.14 -1.21,20.27 -1.08,17.41 -0.80,14.56 -0.51,11.71 -0.56,9.27 -0.62,6.83 -0.72,4.85 -0.82,2.87 -0.83,1.54 -0.83,0.20 -0.84,0.10 -0.85,0.00 -0.84,-0.09 -0.83,-0.20 -0.79,-0.29 -0.76,-0.39 -0.70,-0.48 -0.64,-0.56 -0.56,-0.63 -0.49,-0.70 -0.39,-0.75 -0.30,-0.80 -0.20,-0.82 -0.10,-0.85 -0.00,-0.85 0.10,-0.85 0.20,-0.82 0.30,-0.80 0.39,-0.75 0.48,-0.70 0.56,-0.64 0.64,-0.57 0.70,-0.48 0.75,-0.40 0.79,-0.30 0.83,-0.20 0.83,-0.20 L 0.83,-0.20 Z"></path></g><g transform="translate(311.2474365234375 352.87432861328125) rotate(0 17.527130126953125 -1.643157958984375)" stroke="none"><path fill="#000000" d="M -0.37,-0.86 Q -0.37,-0.86 1.75,-2.02 3.87,-3.17 7.51,-3.64 11.15,-4.10 13.60,-4.28 16.05,-4.46 19.07,-4.22 22.09,-3.98 25.19,-3.87 28.28,-3.76 30.97,-3.31 33.65,-2.85 33.76,-2.83 33.86,-2.81 33.95,-2.76 34.04,-2.71 34.11,-2.63 34.18,-2.55 34.23,-2.45 34.27,-2.35 34.27,-2.24 34.28,-2.14 34.26,-2.04 34.23,-1.93 34.17,-1.84 34.11,-1.75 34.03,-1.69 33.95,-1.62 33.85,-1.59 33.75,-1.55 33.64,-1.55 33.53,-1.55 33.43,-1.58 33.33,-1.61 33.25,-1.67 33.16,-1.74 33.10,-1.82 33.04,-1.91 33.01,-2.01 32.98,-2.11 32.98,-2.22 32.98,-2.33 33.02,-2.43 33.06,-2.53 33.13,-2.61 33.19,-2.69 33.28,-2.75 33.37,-2.80 33.48,-2.83 33.58,-2.85 33.69,-2.84 33.79,-2.83 33.89,-2.79 33.99,-2.75 34.07,-2.68 34.14,-2.60 34.20,-2.51 34.25,-2.42 34.27,-2.31 34.28,-2.21 34.27,-2.10 34.25,-2.00 34.21,-1.90 34.16,-1.81 34.08,-1.74 34.01,-1.66 33.91,-1.61 33.82,-1.57 33.71,-1.55 33.60,-1.54 33.60,-1.54 33.60,-1.54 30.90,-1.23 28.19,-0.92 25.02,-1.02 21.86,-1.11 19.05,-1.36 16.24,-1.60 13.86,-1.44 11.48,-1.27 8.21,-0.94 4.94,-0.60 2.65,0.13 0.37,0.86 0.26,0.89 0.15,0.92 0.03,0.93 -0.07,0.93 -0.18,0.91 -0.29,0.89 -0.39,0.84 -0.50,0.79 -0.58,0.72 -0.67,0.65 -0.74,0.56 -0.81,0.47 -0.85,0.36 -0.90,0.26 -0.92,0.15 -0.94,0.03 -0.93,-0.07 -0.92,-0.18 -0.88,-0.29 -0.85,-0.40 -0.79,-0.49 -0.73,-0.59 -0.64,-0.67 -0.56,-0.75 -0.46,-0.80 -0.37,-0.86 -0.37,-0.86 L -0.37,-0.86 Z"></path></g><g transform="translate(210.46649169921875 407.6466064453125) rotate(0 -2.738616943359375 12.049896240234375)" stroke="none"><path fill="#000000" d="M 0.92,0.46 Q 0.92,0.46 0.66,1.90 0.40,3.34 -0.10,5.29 -0.61,7.23 -1.15,9.96 -1.70,12.68 -2.32,15.13 -2.94,17.58 -3.81,20.25 -4.67,22.93 -4.70,23.03 -4.73,23.13 -4.79,23.22 -4.85,23.30 -4.94,23.37 -5.02,23.43 -5.12,23.46 -5.22,23.50 -5.33,23.50 -5.44,23.50 -5.54,23.46 -5.64,23.43 -5.72,23.36 -5.81,23.30 -5.86,23.21 -5.92,23.12 -5.95,23.02 -5.98,22.91 -5.97,22.81 -5.96,22.70 -5.92,22.60 -5.88,22.50 -5.81,22.42 -5.74,22.34 -5.65,22.29 -5.56,22.24 -5.46,22.21 -5.35,22.19 -5.25,22.21 -5.14,22.22 -5.05,22.26 -4.95,22.31 -4.87,22.38 -4.80,22.46 -4.75,22.55 -4.70,22.65 -4.68,22.75 -4.67,22.86 -4.69,22.96 -4.70,23.06 -4.75,23.16 -4.81,23.25 -4.88,23.32 -4.96,23.40 -5.06,23.44 -5.16,23.48 -5.26,23.49 -5.37,23.50 -5.47,23.48 -5.57,23.46 -5.66,23.40 -5.75,23.34 -5.82,23.26 -5.89,23.18 -5.93,23.08 -5.97,22.98 -5.97,22.88 -5.98,22.77 -5.98,22.77 -5.98,22.77 -6.17,19.79 -6.37,16.81 -5.88,14.37 -5.39,11.93 -4.81,9.08 -4.23,6.23 -3.58,3.96 -2.92,1.69 -1.92,0.61 -0.92,-0.46 -0.85,-0.56 -0.78,-0.67 -0.69,-0.75 -0.60,-0.83 -0.49,-0.89 -0.38,-0.96 -0.26,-0.99 -0.14,-1.02 -0.02,-1.02 0.10,-1.02 0.22,-1.00 0.34,-0.97 0.45,-0.91 0.57,-0.86 0.66,-0.78 0.76,-0.70 0.83,-0.59 0.90,-0.49 0.95,-0.38 0.99,-0.26 1.01,-0.14 1.03,-0.02 1.02,0.10 1.00,0.22 0.96,0.34 0.92,0.46 0.92,0.46 L 0.92,0.46 Z"></path></g><g transform="translate(390.1195068359375 213.7528076171875) rotate(0 -1.095458984375 12.049896240234375)" stroke="none"><path fill="#000000" d="M 0.71,0.71 Q 0.71,0.71 0.45,1.30 0.19,1.90 0.71,3.92 1.23,5.94 1.38,8.32 1.54,10.70 1.59,12.34 1.64,13.97 1.52,15.64 1.40,17.30 0.11,20.18 -1.17,23.07 -1.22,23.16 -1.27,23.26 -1.34,23.33 -1.42,23.40 -1.51,23.45 -1.61,23.50 -1.72,23.51 -1.82,23.52 -1.93,23.50 -2.03,23.48 -2.12,23.43 -2.21,23.38 -2.28,23.30 -2.35,23.22 -2.40,23.12 -2.44,23.02 -2.44,22.92 -2.45,22.81 -2.43,22.71 -2.40,22.60 -2.34,22.51 -2.28,22.43 -2.20,22.36 -2.12,22.29 -2.02,22.26 -1.92,22.22 -1.81,22.22 -1.70,22.22 -1.60,22.25 -1.50,22.28 -1.41,22.35 -1.33,22.41 -1.27,22.49 -1.21,22.58 -1.18,22.68 -1.15,22.79 -1.15,22.89 -1.15,23.00 -1.19,23.10 -1.23,23.20 -1.30,23.28 -1.36,23.36 -1.45,23.42 -1.54,23.47 -1.65,23.50 -1.75,23.52 -1.86,23.51 -1.96,23.50 -2.06,23.46 -2.16,23.42 -2.23,23.35 -2.31,23.27 -2.36,23.18 -2.42,23.09 -2.44,22.98 -2.45,22.88 -2.44,22.77 -2.42,22.67 -2.42,22.67 -2.42,22.67 -1.95,19.99 -1.48,17.30 -1.66,15.71 -1.83,14.11 -1.91,12.53 -1.99,10.94 -2.15,8.70 -2.30,6.46 -2.50,3.53 -2.71,0.61 -1.71,-0.04 -0.71,-0.71 -0.61,-0.78 -0.52,-0.86 -0.41,-0.91 -0.30,-0.96 -0.18,-0.98 -0.06,-1.00 0.06,-1.00 0.18,-0.99 0.29,-0.95 0.41,-0.92 0.51,-0.85 0.62,-0.79 0.70,-0.70 0.79,-0.62 0.85,-0.51 0.92,-0.41 0.95,-0.29 0.99,-0.18 1.00,-0.06 1.00,0.06 0.98,0.18 0.96,0.30 0.91,0.41 0.86,0.52 0.78,0.61 0.71,0.71 0.71,0.71 L 0.71,0.71 Z"></path></g><g transform="translate(89.967529296875 183.080322265625) rotate(0 25.742950439453125 -6.572662353515625)" stroke="none"><path fill="#000000" d="M 0.94,-0.47 Q 0.94,-0.47 2.15,1.28 3.35,3.04 4.39,5.10 5.42,7.16 6.49,9.30 7.56,11.43 8.36,13.34 9.15,15.24 9.21,16.31 9.27,17.38 8.68,17.84 8.10,18.29 8.10,16.83 8.10,15.37 7.86,11.34 7.62,7.31 7.51,3.00 7.41,-1.30 7.68,-5.08 7.95,-8.86 8.38,-11.46 8.82,-14.05 9.00,-16.02 9.18,-18.00 9.95,-19.73 10.71,-21.46 11.33,-22.75 11.94,-24.04 12.97,-25.12 14.00,-26.19 15.11,-26.97 16.21,-27.74 17.96,-28.71 19.71,-29.68 22.15,-30.46 24.59,-31.23 27.45,-32.16 30.30,-33.09 33.56,-33.52 36.82,-33.95 39.68,-34.43 42.54,-34.90 46.61,-34.18 50.68,-33.45 50.76,-33.38 50.83,-33.30 50.88,-33.21 50.93,-33.11 50.94,-33.01 50.96,-32.90 50.94,-32.80 50.92,-32.69 50.86,-32.60 50.81,-32.51 50.73,-32.44 50.65,-32.37 50.56,-32.32 50.46,-32.28 50.35,-32.27 50.25,-32.26 50.14,-32.29 50.04,-32.32 49.95,-32.37 49.86,-32.43 49.80,-32.51 49.73,-32.60 49.69,-32.70 49.66,-32.80 49.65,-32.90 49.65,-33.01 49.68,-33.11 49.71,-33.21 49.77,-33.30 49.84,-33.38 49.92,-33.45 50.01,-33.51 50.11,-33.54 50.21,-33.57 50.32,-33.57 50.42,-33.56 50.52,-33.53 50.62,-33.49 50.71,-33.42 50.79,-33.36 50.85,-33.27 50.90,-33.18 50.93,-33.08 50.96,-32.97 50.95,-32.87 50.94,-32.76 50.90,-32.66 50.85,-32.57 50.78,-32.49 50.71,-32.41 50.62,-32.36 50.53,-32.30 50.42,-32.28 50.32,-32.26 50.21,-32.28 50.11,-32.29 50.01,-32.34 49.92,-32.39 49.92,-32.39 49.92,-32.39 46.51,-31.98 43.10,-31.58 40.17,-31.09 37.24,-30.60 34.29,-30.24 31.33,-29.88 28.46,-28.95 25.58,-28.02 23.44,-27.38 21.29,-26.75 19.67,-25.88 18.04,-25.02 17.13,-24.44 16.22,-23.86 15.46,-23.24 14.71,-22.61 14.09,-21.38 13.48,-20.14 12.83,-18.90 12.18,-17.66 12.00,-15.60 11.81,-13.54 11.39,-11.09 10.97,-8.64 10.71,-5.01 10.44,-1.38 10.56,2.86 10.68,7.11 10.97,11.35 11.26,15.60 11.03,17.31 10.80,19.03 9.67,19.54 8.54,20.04 7.32,18.28 6.09,16.51 5.35,14.71 4.61,12.91 3.54,10.77 2.47,8.64 1.44,6.57 0.42,4.51 -0.26,2.49 -0.94,0.47 -0.98,0.35 -1.03,0.23 -1.04,0.10 -1.05,-0.02 -1.03,-0.14 -1.02,-0.27 -0.97,-0.39 -0.92,-0.50 -0.85,-0.61 -0.77,-0.71 -0.68,-0.79 -0.58,-0.88 -0.46,-0.93 -0.35,-0.99 -0.23,-1.02 -0.10,-1.05 0.02,-1.04 0.14,-1.04 0.27,-1.01 0.39,-0.98 0.50,-0.91 0.61,-0.85 0.71,-0.77 0.80,-0.68 0.87,-0.57 0.94,-0.47 0.94,-0.47 L 0.94,-0.47 Z"></path></g><g transform="translate(117.3536376953125 173.2213134765625) rotate(0 13.145355224609375 7.1204071044921875)" stroke="none"><path fill="#000000" d="M -0.26,-0.79 Q -0.26,-0.79 0.60,-1.33 1.47,-1.87 3.83,-2.39 6.20,-2.91 7.87,-3.11 9.54,-3.32 10.82,-3.07 12.11,-2.82 12.95,-1.84 13.79,-0.85 13.42,0.94 13.06,2.73 11.82,4.50 10.59,6.27 9.11,7.94 7.63,9.61 6.10,10.49 4.56,11.37 5.13,11.74 5.69,12.11 6.94,12.52 8.19,12.92 11.17,13.62 14.16,14.32 17.59,14.55 21.02,14.79 22.53,14.75 24.04,14.72 24.15,14.74 24.25,14.75 24.35,14.80 24.44,14.85 24.52,14.92 24.59,15.00 24.64,15.09 24.68,15.19 24.70,15.30 24.71,15.40 24.69,15.50 24.67,15.61 24.62,15.70 24.56,15.79 24.49,15.86 24.41,15.93 24.31,15.98 24.21,16.02 24.10,16.03 24.00,16.03 23.90,16.01 23.79,15.98 23.70,15.92 23.61,15.87 23.55,15.78 23.48,15.70 23.45,15.60 23.41,15.50 23.41,15.39 23.41,15.29 23.44,15.19 23.47,15.08 23.53,15.00 23.59,14.91 23.68,14.85 23.77,14.79 23.87,14.76 23.97,14.73 24.08,14.73 24.18,14.73 24.28,14.77 24.38,14.81 24.46,14.88 24.55,14.94 24.60,15.03 24.66,15.12 24.68,15.23 24.71,15.33 24.70,15.44 24.69,15.54 24.65,15.64 24.61,15.74 24.53,15.81 24.46,15.89 24.37,15.94 24.28,16.00 24.17,16.02 24.07,16.04 24.07,16.04 24.07,16.04 22.56,16.07 21.05,16.10 17.38,16.49 13.71,16.87 10.37,16.45 7.02,16.02 5.22,15.26 3.43,14.50 2.63,13.43 1.83,12.37 2.02,11.07 2.20,9.77 3.78,8.66 5.35,7.54 6.72,6.00 8.10,4.45 9.13,3.11 10.17,1.77 10.70,0.86 11.23,-0.05 10.52,-0.27 9.81,-0.49 8.28,-0.31 6.74,-0.14 4.52,0.23 2.30,0.61 1.28,0.70 0.26,0.79 0.16,0.81 0.06,0.83 -0.03,0.83 -0.13,0.82 -0.23,0.80 -0.32,0.77 -0.41,0.72 -0.50,0.67 -0.57,0.60 -0.65,0.53 -0.70,0.44 -0.75,0.35 -0.79,0.26 -0.82,0.16 -0.83,0.06 -0.83,-0.03 -0.82,-0.13 -0.80,-0.23 -0.76,-0.32 -0.72,-0.42 -0.66,-0.50 -0.60,-0.58 -0.52,-0.64 -0.44,-0.71 -0.35,-0.75 -0.26,-0.79 -0.26,-0.79 L -0.26,-0.79 Z"></path></g><g transform="translate(85.58575439453125 304.67474365234375) rotate(0 13.69305419921875 35.601959228515625)" stroke="none"><path fill="#000000" d="M 0.23,-0.70 Q 0.23,-0.70 1.27,-0.67 2.31,-0.64 3.95,-0.22 5.58,0.18 7.72,1.37 9.86,2.55 12.71,5.00 15.56,7.44 17.78,10.45 20.00,13.46 21.88,16.64 23.76,19.82 24.92,22.83 26.08,25.85 26.90,29.05 27.72,32.26 28.08,36.54 28.45,40.82 28.59,44.51 28.74,48.20 28.81,51.35 28.88,54.49 28.91,57.41 28.94,60.32 28.96,62.82 28.97,65.32 28.61,66.87 28.25,68.41 26.55,69.97 24.85,71.53 24.75,71.57 24.65,71.60 24.54,71.61 24.43,71.61 24.33,71.58 24.23,71.55 24.14,71.48 24.06,71.42 24.00,71.33 23.94,71.25 23.91,71.15 23.87,71.04 23.88,70.94 23.88,70.83 23.92,70.73 23.96,70.63 24.02,70.55 24.09,70.47 24.18,70.41 24.27,70.35 24.37,70.33 24.48,70.30 24.58,70.31 24.69,70.32 24.79,70.37 24.88,70.41 24.96,70.48 25.04,70.55 25.09,70.64 25.14,70.74 25.16,70.84 25.18,70.95 25.17,71.05 25.15,71.16 25.10,71.25 25.06,71.35 24.98,71.42 24.91,71.49 24.81,71.54 24.71,71.59 24.61,71.60 24.50,71.62 24.40,71.59 24.30,71.57 24.20,71.52 24.11,71.47 24.04,71.39 23.97,71.31 23.93,71.21 23.89,71.11 23.88,71.01 23.87,70.90 23.90,70.80 23.92,70.70 23.98,70.61 24.04,70.52 24.12,70.45 24.21,70.39 24.21,70.39 24.21,70.39 24.72,69.06 25.24,67.73 25.50,66.53 25.76,65.32 25.75,62.83 25.74,60.35 25.72,57.45 25.71,54.55 25.65,51.44 25.60,48.32 25.47,44.70 25.34,41.07 25.04,37.03 24.74,32.99 23.99,29.95 23.25,26.91 22.22,24.12 21.19,21.33 19.39,18.27 17.60,15.20 15.61,12.42 13.62,9.64 11.02,7.34 8.42,5.03 6.63,3.95 4.83,2.86 3.15,2.38 1.46,1.90 0.61,1.30 -0.23,0.70 -0.31,0.66 -0.39,0.62 -0.46,0.57 -0.53,0.51 -0.58,0.44 -0.64,0.37 -0.67,0.28 -0.71,0.20 -0.72,0.11 -0.74,0.03 -0.73,-0.05 -0.72,-0.14 -0.69,-0.23 -0.67,-0.31 -0.62,-0.39 -0.57,-0.46 -0.51,-0.53 -0.44,-0.59 -0.36,-0.63 -0.29,-0.68 -0.20,-0.70 -0.11,-0.73 -0.02,-0.73 0.05,-0.73 0.14,-0.72 0.23,-0.70 0.23,-0.70 L 0.23,-0.70 Z"></path></g><g transform="translate(63.67681884765625 343.01531982421875) rotate(0 6.572662353515625 12.597625732421875)" stroke="none"><path fill="#000000" d="M -0.84,0.42 Q -0.84,0.42 -0.59,0.28 -0.34,0.13 0.13,0.49 0.61,0.86 0.60,5.00 0.58,9.15 0.57,12.50 0.56,15.85 0.56,18.22 0.56,20.59 0.54,22.16 0.52,23.73 0.79,24.22 1.07,24.71 1.80,24.64 2.54,24.56 3.65,23.83 4.76,23.11 6.41,22.27 8.07,21.42 10.47,20.08 12.86,18.73 12.96,18.69 13.06,18.65 13.16,18.64 13.27,18.63 13.37,18.65 13.48,18.68 13.57,18.73 13.66,18.79 13.72,18.87 13.79,18.95 13.83,19.05 13.87,19.15 13.87,19.26 13.88,19.36 13.85,19.47 13.82,19.57 13.76,19.65 13.69,19.74 13.61,19.80 13.52,19.87 13.42,19.90 13.32,19.93 13.22,19.93 13.11,19.93 13.01,19.89 12.91,19.86 12.82,19.79 12.74,19.73 12.68,19.64 12.62,19.55 12.60,19.45 12.57,19.35 12.58,19.24 12.58,19.13 12.63,19.03 12.67,18.94 12.74,18.86 12.81,18.78 12.90,18.72 12.99,18.67 13.09,18.65 13.20,18.63 13.30,18.64 13.41,18.65 13.50,18.70 13.60,18.74 13.68,18.82 13.75,18.89 13.80,18.99 13.85,19.08 13.87,19.19 13.88,19.29 13.86,19.40 13.84,19.50 13.79,19.59 13.74,19.69 13.66,19.76 13.59,19.83 13.59,19.83 13.59,19.83 11.39,21.51 9.20,23.18 7.73,24.36 6.25,25.54 4.44,26.61 2.63,27.67 0.94,27.37 -0.74,27.06 -1.72,25.53 -2.70,24.00 -2.72,22.29 -2.73,20.59 -2.73,18.22 -2.73,15.84 -2.71,12.49 -2.70,9.13 -2.67,4.90 -2.63,0.66 -2.36,-0.57 -2.08,-1.81 -1.50,-2.23 -0.91,-2.65 -0.03,-1.53 0.84,-0.42 0.88,-0.31 0.92,-0.20 0.93,-0.09 0.94,0.01 0.92,0.13 0.91,0.24 0.87,0.34 0.82,0.45 0.76,0.54 0.69,0.64 0.60,0.71 0.52,0.78 0.41,0.83 0.31,0.89 0.20,0.91 0.09,0.94 -0.01,0.93 -0.13,0.93 -0.24,0.90 -0.35,0.87 -0.45,0.82 -0.55,0.76 -0.63,0.68 -0.71,0.61 -0.78,0.51 -0.84,0.42 -0.84,0.42 L -0.84,0.42 Z"></path></g><g transform="translate(73.53582763671875 344.11077880859375) rotate(0 1.095458984375 13.69305419921875)" stroke="none"><path fill="#000000" d="M 0.91,0 Q 0.91,0 1.29,1.57 1.67,3.14 2.01,6.57 2.34,10.00 2.48,13.10 2.62,16.20 2.67,18.78 2.72,21.37 2.74,22.81 2.76,24.25 2.75,24.33 2.74,24.41 2.71,24.48 2.69,24.56 2.64,24.62 2.60,24.69 2.54,24.74 2.48,24.80 2.41,24.84 2.35,24.87 2.27,24.90 2.19,24.92 2.11,24.92 2.03,24.92 1.96,24.90 1.88,24.88 1.81,24.85 1.74,24.81 1.68,24.76 1.62,24.71 1.57,24.65 1.52,24.58 1.49,24.51 1.47,24.44 1.45,24.36 1.44,24.28 1.54,24.04 1.64,23.80 1.73,23.74 1.81,23.67 1.91,23.64 2.02,23.61 2.12,23.62 2.23,23.62 2.33,23.66 2.43,23.70 2.51,23.76 2.59,23.83 2.65,23.92 2.70,24.01 2.73,24.12 2.75,24.22 2.74,24.32 2.73,24.43 2.69,24.53 2.65,24.62 2.58,24.70 2.51,24.78 2.41,24.83 2.32,24.88 2.22,24.90 2.11,24.92 2.01,24.91 1.90,24.89 1.81,24.84 1.71,24.80 1.64,24.72 1.56,24.64 1.52,24.55 1.47,24.45 1.46,24.35 1.44,24.24 1.46,24.14 1.48,24.03 1.54,23.94 1.59,23.85 1.67,23.78 1.75,23.71 1.85,23.67 1.95,23.63 2.05,23.62 2.16,23.61 2.26,23.64 2.36,23.67 2.45,23.72 2.54,23.78 2.61,23.86 2.67,23.95 2.71,24.05 2.75,24.15 2.75,24.25 2.75,24.36 2.72,24.46 2.68,24.56 2.72,24.41 2.76,24.25 2.75,24.33 2.74,24.41 2.71,24.48 2.69,24.56 2.64,24.62 2.60,24.69 2.54,24.74 2.48,24.80 2.41,24.84 2.35,24.87 2.27,24.90 2.19,24.92 2.11,24.92 2.03,24.92 1.96,24.90 1.88,24.88 1.81,24.85 1.74,24.81 1.68,24.76 1.62,24.71 1.57,24.65 1.52,24.58 1.49,24.51 1.47,24.44 1.45,24.36 1.44,24.28 0.37,22.86 -0.69,21.44 -0.76,18.90 -0.83,16.35 -0.96,13.33 -1.08,10.31 -1.38,6.73 -1.67,3.15 -1.29,1.57 -0.91,0 -0.90,-0.10 -0.88,-0.21 -0.84,-0.32 -0.80,-0.42 -0.74,-0.51 -0.68,-0.60 -0.60,-0.67 -0.51,-0.75 -0.42,-0.80 -0.32,-0.85 -0.21,-0.88 -0.11,-0.90 0.00,-0.90 0.11,-0.90 0.21,-0.88 0.32,-0.85 0.42,-0.80 0.51,-0.75 0.60,-0.67 0.68,-0.60 0.74,-0.51 0.80,-0.42 0.84,-0.32 0.88,-0.21 0.90,-0.10 0.91,0.00 0.91,0.00 L 0.91,0 Z"></path></g><g transform="translate(97.6356201171875 343.01531982421875) rotate(0 -11.502166748046875 14.78851318359375)" stroke="none"><path fill="#000000" d="M -0.44,0.88 Q -0.44,0.88 -1.88,0.61 -3.32,0.35 -4.04,0.15 -4.76,-0.05 -5.60,-0.13 -6.44,-0.21 -7.31,-0.64 -8.18,-1.07 -8.02,-0.16 -7.87,0.73 -7.91,2.40 -7.96,4.06 -7.98,6.04 -8.00,8.02 -8.00,9.81 -8.01,11.59 -8.68,11.91 -9.36,12.23 -8.56,12.28 -7.76,12.34 -7.03,12.10 -6.30,11.87 -5.12,11.74 -3.93,11.62 -2.67,11.61 -1.40,11.61 -0.14,12.44 1.10,13.28 1.67,14.85 2.24,16.43 2.11,18.49 1.98,20.55 1.58,22.38 1.18,24.21 -0.05,26.17 -1.29,28.12 -3.90,29.98 -6.51,31.83 -9.37,32.52 -12.24,33.22 -15.05,33.29 -17.86,33.35 -20.46,32.94 -23.06,32.53 -23.16,32.51 -23.26,32.48 -23.35,32.42 -23.44,32.36 -23.50,32.27 -23.57,32.19 -23.60,32.09 -23.63,31.99 -23.63,31.88 -23.63,31.78 -23.60,31.68 -23.57,31.57 -23.50,31.49 -23.44,31.41 -23.35,31.35 -23.26,31.29 -23.16,31.26 -23.06,31.23 -22.95,31.23 -22.85,31.24 -22.75,31.28 -22.65,31.32 -22.57,31.39 -22.49,31.45 -22.43,31.55 -22.38,31.64 -22.35,31.74 -22.33,31.84 -22.34,31.95 -22.35,32.06 -22.40,32.15 -22.44,32.25 -22.51,32.33 -22.59,32.40 -22.68,32.45 -22.78,32.50 -22.88,32.52 -22.98,32.54 -23.09,32.52 -23.19,32.50 -23.29,32.45 -23.38,32.40 -23.46,32.33 -23.53,32.25 -23.57,32.15 -23.62,32.06 -23.63,31.95 -23.64,31.85 -23.62,31.74 -23.60,31.64 -23.54,31.55 -23.49,31.46 -23.41,31.39 -23.33,31.32 -23.23,31.28 -23.13,31.24 -23.02,31.23 -22.92,31.23 -22.92,31.23 -22.92,31.23 -20.49,31.36 -18.06,31.48 -15.52,30.95 -12.99,30.42 -10.70,29.71 -8.41,29.00 -6.29,27.55 -4.18,26.09 -3.20,24.72 -2.22,23.34 -1.84,21.78 -1.47,20.21 -1.25,18.73 -1.03,17.24 -1.41,16.03 -1.79,14.81 -2.69,14.90 -3.59,14.98 -4.55,15.07 -5.50,15.16 -6.83,15.44 -8.17,15.71 -9.25,15.48 -10.34,15.25 -11.01,13.42 -11.67,11.58 -11.66,9.78 -11.65,7.98 -11.63,5.97 -11.61,3.96 -11.56,2.16 -11.50,0.36 -11.25,-1.11 -11.00,-2.59 -10.31,-3.30 -9.63,-4.01 -8.40,-4.21 -7.16,-4.42 -6.56,-4.12 -5.95,-3.82 -4.81,-3.67 -3.68,-3.53 -2.69,-3.20 -1.71,-2.87 -0.63,-1.87 0.44,-0.88 0.53,-0.81 0.63,-0.74 0.71,-0.66 0.79,-0.57 0.85,-0.47 0.91,-0.36 0.94,-0.25 0.97,-0.13 0.97,-0.01 0.97,0.09 0.95,0.21 0.92,0.33 0.87,0.43 0.82,0.54 0.74,0.63 0.66,0.72 0.57,0.79 0.47,0.86 0.36,0.90 0.25,0.95 0.13,0.96 0.01,0.98 -0.09,0.97 -0.21,0.95 -0.32,0.92 -0.44,0.88 -0.44,0.88 L -0.44,0.88 Z"></path></g></svg>