<svg version="1.1" xmlns="http://www.w3.org/2000/svg" viewBox="0 0 332.20184326171875 473.5143127441406" width="332.20184326171875" height="473.5143127441406" filter="invert(93%) hue-rotate(180deg)" class="excalidraw-svg"><!-- svg-source:excalidraw --><metadata></metadata><defs><style class="style-fonts">
      </style></defs><rect x="0" y="0" width="332.20184326171875" height="473.5143127441406" fill="transparent"></rect><g stroke-linecap="round"><g transform="translate(295.37547821789127 10) rotate(0 -142.68773910894564 201.0141709327724)"><path d="M0 0 C-47.56 67, -237.81 335.02, -285.38 402.03 M0 0 C-47.56 67, -237.81 335.02, -285.38 402.03" stroke="#000000" stroke-width="0.5" fill="none"></path></g></g><mask></mask><g stroke-linecap="round"><g transform="translate(292.82745055376625 12.512673855424225) rotate(0 3.1849990883512636 199.75783400506032)"><path d="M0 0 C1.06 66.59, 5.31 332.93, 6.37 399.52 M0 0 C1.06 66.59, 5.31 332.93, 6.37 399.52" stroke="#000000" stroke-width="0.5" fill="none"></path></g></g><mask></mask><g stroke-linecap="round"><g transform="translate(13.821970512577536 412.0283418655448) rotate(0 142.68773910894564 0.000034999844757521714)"><path d="M0 0 C47.56 0, 237.81 0, 285.38 0 M0 0 C47.56 0, 237.81 0, 285.38 0" stroke="#000000" stroke-width="0.5" fill="none"></path></g></g><mask></mask><g transform="translate(263.04779052734375 372.5923767089844) rotate(0 0 18.62255859375)" stroke="none"><path fill="#000000" d="M 0.84,0 Q 0.84,0 1.11,1.57 1.38,3.14 1.39,5.39 1.39,7.63 1.39,10.16 1.39,12.69 1.39,16.28 1.39,19.88 1.39,22.98 1.39,26.08 1.39,28.66 1.39,31.24 1.02,33.56 0.65,35.88 0.63,35.99 0.62,36.09 0.57,36.19 0.52,36.28 0.44,36.35 0.36,36.43 0.27,36.47 0.17,36.51 0.07,36.53 -0.03,36.54 -0.13,36.51 -0.24,36.49 -0.33,36.44 -0.42,36.38 -0.49,36.30 -0.56,36.22 -0.60,36.12 -0.64,36.02 -0.64,35.92 -0.65,35.81 -0.62,35.71 -0.59,35.61 -0.53,35.52 -0.47,35.43 -0.39,35.37 -0.30,35.30 -0.20,35.27 -0.10,35.23 0.00,35.23 0.10,35.23 0.20,35.27 0.30,35.30 0.39,35.37 0.47,35.43 0.53,35.52 0.59,35.61 0.62,35.71 0.65,35.81 0.64,35.92 0.64,36.02 0.60,36.12 0.56,36.22 0.49,36.30 0.42,36.38 0.33,36.44 0.24,36.49 0.13,36.51 0.03,36.54 -0.07,36.53 -0.17,36.51 -0.27,36.47 -0.36,36.43 -0.44,36.35 -0.52,36.28 -0.57,36.19 -0.62,36.09 -0.63,35.99 -0.65,35.88 -0.65,35.88 -0.65,35.88 -1.02,33.56 -1.39,31.24 -1.39,28.66 -1.39,26.08 -1.39,22.98 -1.39,19.88 -1.39,16.28 -1.39,12.69 -1.39,10.16 -1.39,7.63 -1.39,5.39 -1.38,3.14 -1.11,1.57 -0.84,0 -0.83,-0.10 -0.82,-0.20 -0.78,-0.29 -0.75,-0.39 -0.69,-0.47 -0.63,-0.56 -0.55,-0.62 -0.48,-0.69 -0.39,-0.74 -0.30,-0.79 -0.20,-0.81 -0.10,-0.84 0.00,-0.84 0.10,-0.84 0.20,-0.81 0.30,-0.79 0.39,-0.74 0.48,-0.69 0.55,-0.62 0.63,-0.56 0.69,-0.47 0.75,-0.39 0.78,-0.29 0.82,-0.20 0.83,-0.10 0.84,0.00 0.84,0.00 L 0.84,0 Z"></path></g><g transform="translate(261.95233154296875 373.6878356933594) rotate(0 20.8134765625 -1.095458984375)" stroke="none"><path fill="#000000" d="M -0.16,-0.66 Q -0.16,-0.66 1.04,-1.19 2.24,-1.72 4.13,-1.89 6.02,-2.06 9.60,-2.44 13.18,-2.83 15.35,-2.98 17.53,-3.14 19.10,-3.21 20.66,-3.28 23.23,-3.32 25.79,-3.35 27.82,-3.37 29.85,-3.38 31.66,-3.39 33.47,-3.40 35.18,-3.40 36.90,-3.40 38.70,-3.12 40.51,-2.84 40.61,-2.83 40.72,-2.81 40.81,-2.77 40.91,-2.72 40.98,-2.64 41.06,-2.57 41.10,-2.47 41.15,-2.38 41.16,-2.27 41.18,-2.17 41.16,-2.06 41.14,-1.96 41.08,-1.86 41.03,-1.77 40.95,-1.70 40.87,-1.63 40.78,-1.59 40.68,-1.55 40.57,-1.54 40.47,-1.53 40.36,-1.56 40.26,-1.58 40.17,-1.64 40.08,-1.70 40.02,-1.78 39.95,-1.86 39.91,-1.96 39.88,-2.06 39.87,-2.17 39.87,-2.28 39.90,-2.38 39.93,-2.48 40.00,-2.57 40.06,-2.65 40.15,-2.71 40.23,-2.78 40.33,-2.81 40.44,-2.84 40.54,-2.83 40.65,-2.83 40.75,-2.79 40.85,-2.76 40.93,-2.69 41.01,-2.62 41.07,-2.53 41.13,-2.44 41.15,-2.34 41.18,-2.24 41.17,-2.13 41.16,-2.02 41.12,-1.93 41.07,-1.83 41.00,-1.75 40.93,-1.67 40.84,-1.62 40.75,-1.57 40.64,-1.55 40.54,-1.53 40.54,-1.53 40.54,-1.53 38.72,-1.25 36.90,-0.96 35.19,-0.96 33.48,-0.96 31.67,-0.96 29.87,-0.96 27.84,-0.95 25.82,-0.94 23.29,-0.91 20.76,-0.89 19.23,-0.83 17.70,-0.76 15.56,-0.60 13.42,-0.45 9.81,-0.09 6.19,0.26 4.49,0.36 2.79,0.46 1.47,0.56 0.16,0.66 0.08,0.67 0.00,0.68 -0.07,0.67 -0.16,0.66 -0.23,0.63 -0.31,0.60 -0.38,0.56 -0.45,0.51 -0.50,0.45 -0.56,0.39 -0.60,0.31 -0.63,0.24 -0.65,0.16 -0.67,0.08 -0.67,0.00 -0.68,-0.08 -0.66,-0.16 -0.64,-0.24 -0.60,-0.31 -0.56,-0.38 -0.51,-0.44 -0.45,-0.51 -0.38,-0.55 -0.32,-0.60 -0.24,-0.63 -0.16,-0.66 -0.16,-0.66 L -0.16,-0.66 Z"></path></g><g transform="translate(79.01300048828125 167.744140625) rotate(0 27.933868408203125 -1.0954437255859375)" stroke="none"><path fill="#000000" d="M 0.85,-0.42 Q 0.85,-0.42 1.72,0.71 2.59,1.85 3.47,3.27 4.35,4.69 5.38,6.61 6.42,8.54 7.53,11.65 8.63,14.76 9.10,16.74 9.58,18.73 10.01,19.68 10.44,20.64 10.69,20.84 10.93,21.03 10.99,21.21 11.04,21.39 11.05,21.57 11.07,21.76 11.03,21.94 11.00,22.12 10.92,22.29 10.85,22.46 10.73,22.60 10.62,22.75 10.47,22.86 10.33,22.97 10.16,23.05 9.99,23.13 9.81,23.16 9.63,23.19 9.44,23.18 9.26,23.17 9.08,23.11 8.91,23.06 8.75,22.96 8.59,22.87 8.46,22.74 8.33,22.61 8.23,22.45 8.14,22.29 8.16,20.73 8.18,19.16 8.22,16.50 8.25,13.84 8.59,10.42 8.92,7.00 9.07,3.72 9.21,0.45 9.59,-2.59 9.97,-5.63 10.44,-8.51 10.92,-11.38 11.45,-13.31 11.98,-15.23 12.56,-16.48 13.15,-17.72 14.16,-18.74 15.18,-19.75 16.92,-20.82 18.67,-21.89 20.75,-22.69 22.83,-23.49 25.31,-24.15 27.79,-24.80 30.74,-25.40 33.70,-26.00 36.60,-26.26 39.51,-26.52 43.27,-26.63 47.04,-26.74 49.37,-26.45 51.71,-26.17 53.30,-24.51 54.90,-22.85 54.98,-22.83 55.06,-22.81 55.13,-22.78 55.20,-22.74 55.26,-22.69 55.31,-22.63 55.36,-22.57 55.40,-22.50 55.43,-22.43 55.46,-22.36 55.47,-22.28 55.48,-22.20 55.47,-22.12 55.46,-22.04 55.43,-21.97 55.40,-21.89 55.36,-21.83 55.31,-21.76 55.25,-21.71 55.20,-21.66 55.13,-21.62 55.06,-21.58 54.98,-21.57 54.90,-21.55 54.82,-21.55 54.74,-21.55 55.07,-21.71 55.40,-21.88 55.33,-21.79 55.26,-21.71 55.17,-21.65 55.08,-21.60 54.98,-21.57 54.88,-21.54 54.77,-21.55 54.67,-21.56 54.57,-21.60 54.47,-21.64 54.39,-21.72 54.31,-21.79 54.26,-21.88 54.21,-21.97 54.19,-22.07 54.17,-22.18 54.18,-22.28 54.19,-22.39 54.24,-22.48 54.29,-22.58 54.36,-22.66 54.44,-22.73 54.53,-22.78 54.63,-22.83 54.73,-22.84 54.84,-22.86 54.94,-22.84 55.05,-22.82 55.14,-22.76 55.23,-22.71 55.30,-22.63 55.38,-22.55 55.42,-22.46 55.46,-22.36 55.47,-22.25 55.48,-22.15 55.45,-22.04 55.43,-21.94 55.37,-21.85 55.31,-21.76 55.23,-21.70 55.15,-21.63 55.05,-21.59 54.95,-21.55 54.84,-21.55 54.74,-21.55 54.63,-21.58 54.53,-21.61 54.45,-21.67 54.36,-21.73 54.30,-21.82 54.24,-21.91 54.20,-22.01 54.17,-22.11 54.18,-22.21 54.18,-22.32 54.54,-22.59 54.90,-22.85 54.98,-22.83 55.06,-22.81 55.13,-22.78 55.20,-22.74 55.26,-22.69 55.31,-22.63 55.36,-22.57 55.40,-22.50 55.43,-22.43 55.46,-22.36 55.47,-22.28 55.48,-22.20 55.47,-22.12 55.46,-22.04 55.43,-21.97 55.40,-21.89 55.36,-21.83 55.31,-21.76 55.25,-21.71 55.20,-21.66 55.13,-21.62 55.06,-21.58 54.98,-21.57 54.90,-21.55 54.82,-21.55 54.74,-21.55 53.02,-22.18 51.30,-22.82 49.21,-23.08 47.13,-23.33 43.47,-23.23 39.80,-23.13 37.08,-22.90 34.36,-22.66 31.50,-22.11 28.63,-21.55 26.31,-20.96 23.98,-20.37 22.16,-19.72 20.33,-19.07 18.83,-18.22 17.33,-17.36 16.64,-16.82 15.94,-16.27 15.45,-15.33 14.97,-14.38 14.46,-12.63 13.96,-10.87 13.49,-8.06 13.02,-5.25 12.65,-2.33 12.28,0.58 12.14,3.94 11.99,7.30 11.67,10.59 11.34,13.88 11.30,16.64 11.26,19.40 11.10,20.22 10.93,21.03 10.99,21.21 11.04,21.39 11.05,21.57 11.07,21.75 11.03,21.94 11.00,22.12 10.92,22.29 10.85,22.46 10.73,22.60 10.62,22.75 10.47,22.86 10.33,22.97 10.16,23.05 9.99,23.13 9.81,23.16 9.63,23.19 9.44,23.18 9.26,23.17 9.08,23.11 8.91,23.06 8.75,22.96 8.59,22.87 8.46,22.74 8.33,22.61 8.23,22.45 8.14,22.29 7.96,22.16 7.77,22.03 7.19,20.74 6.61,19.44 6.18,17.61 5.75,15.77 4.74,12.87 3.73,9.97 2.74,8.12 1.75,6.26 0.84,4.72 -0.07,3.18 -0.46,1.80 -0.85,0.42 -0.89,0.31 -0.93,0.21 -0.94,0.09 -0.95,-0.01 -0.94,-0.13 -0.92,-0.24 -0.88,-0.35 -0.83,-0.46 -0.77,-0.55 -0.70,-0.64 -0.61,-0.72 -0.52,-0.79 -0.42,-0.85 -0.32,-0.90 -0.20,-0.92 -0.09,-0.95 0.01,-0.95 0.13,-0.94 0.24,-0.91 0.35,-0.88 0.45,-0.83 0.55,-0.77 0.64,-0.69 0.72,-0.62 0.79,-0.52 0.85,-0.42 0.85,-0.42 L 0.85,-0.42 Z"></path></g><g transform="translate(108.59002685546875 163.36236572265625) rotate(0 10.40673828125 14.24078369140625)" stroke="none"><path fill="#000000" d="M 0.12,-0.88 Q 0.12,-0.88 2.37,-0.83 4.62,-0.79 7.63,0.29 10.64,1.37 12.47,3.08 14.31,4.80 14.49,7.09 14.66,9.38 13.64,11.46 12.61,13.53 11.13,15.08 9.65,16.62 7.62,17.66 5.58,18.71 4.31,19.25 3.03,19.80 3.70,20.69 4.37,21.57 5.81,22.48 7.24,23.38 10.19,24.59 13.15,25.80 16.32,26.67 19.49,27.54 19.59,27.58 19.69,27.62 19.77,27.69 19.85,27.75 19.91,27.84 19.96,27.93 19.99,28.04 20.01,28.14 20.00,28.24 20.00,28.35 19.95,28.45 19.91,28.55 19.84,28.62 19.77,28.70 19.67,28.75 19.58,28.81 19.48,28.82 19.37,28.84 19.27,28.83 19.16,28.81 19.07,28.77 18.97,28.72 18.90,28.64 18.82,28.57 18.78,28.47 18.73,28.38 18.72,28.27 18.70,28.16 18.72,28.06 18.74,27.96 18.80,27.86 18.85,27.77 18.93,27.70 19.01,27.63 19.11,27.59 19.21,27.55 19.31,27.54 19.42,27.53 19.52,27.56 19.62,27.59 19.71,27.64 19.80,27.70 19.87,27.79 19.93,27.87 19.97,27.97 20.01,28.07 20.01,28.17 20.01,28.28 19.98,28.38 19.95,28.48 19.88,28.57 19.82,28.66 19.73,28.72 19.65,28.78 19.54,28.81 19.44,28.84 19.34,28.84 19.23,28.83 19.23,28.83 19.23,28.83 15.83,28.39 12.42,27.95 8.97,27.00 5.52,26.04 3.73,24.81 1.94,23.59 1.03,22.15 0.12,20.71 0.62,19.14 1.12,17.57 2.66,16.72 4.20,15.88 5.83,15.13 7.46,14.38 8.66,13.19 9.87,12.01 10.72,10.61 11.57,9.22 11.72,7.80 11.87,6.38 10.67,5.29 9.47,4.20 6.83,3.12 4.19,2.05 2.03,1.46 -0.12,0.88 -0.23,0.85 -0.33,0.82 -0.42,0.77 -0.52,0.72 -0.60,0.65 -0.68,0.57 -0.74,0.48 -0.80,0.39 -0.83,0.29 -0.87,0.19 -0.88,0.08 -0.89,-0.01 -0.87,-0.12 -0.86,-0.23 -0.82,-0.33 -0.78,-0.43 -0.71,-0.51 -0.65,-0.60 -0.57,-0.67 -0.49,-0.74 -0.39,-0.79 -0.29,-0.84 -0.19,-0.86 -0.08,-0.88 0.01,-0.88 0.12,-0.88 0.12,-0.88 L 0.12,-0.88 Z"></path></g><g transform="translate(317.820068359375 163.36236572265625) rotate(0 2.190887451171875 15.336227416992188)" stroke="none"><path fill="#000000" d="M 0,-0.95 Q 0,-0.95 1.27,-1.13 2.54,-1.31 3.37,-0.47 4.20,0.36 4.82,3.77 5.44,7.19 5.32,10.87 5.21,14.56 4.67,17.99 4.13,21.43 3.08,25.70 2.03,29.97 2.00,30.07 1.97,30.17 1.90,30.26 1.84,30.34 1.75,30.40 1.67,30.46 1.56,30.49 1.46,30.52 1.35,30.52 1.25,30.51 1.15,30.47 1.05,30.43 0.97,30.37 0.89,30.30 0.83,30.21 0.78,30.12 0.75,30.01 0.73,29.91 0.74,29.80 0.75,29.70 0.79,29.60 0.84,29.51 0.91,29.43 0.98,29.35 1.08,29.30 1.17,29.25 1.27,29.23 1.38,29.21 1.48,29.23 1.59,29.25 1.68,29.29 1.78,29.34 1.85,29.42 1.93,29.50 1.97,29.59 2.02,29.69 2.03,29.79 2.04,29.90 2.02,30.00 2.00,30.11 1.94,30.20 1.89,30.29 1.81,30.36 1.73,30.43 1.63,30.47 1.53,30.51 1.42,30.52 1.32,30.52 1.22,30.50 1.11,30.47 1.03,30.41 0.94,30.35 0.87,30.27 0.81,30.18 0.77,30.08 0.74,29.98 0.74,29.87 0.74,29.77 0.74,29.77 0.74,29.77 1.02,25.45 1.31,21.13 1.49,17.79 1.68,14.45 1.78,11.09 1.88,7.73 1.56,4.52 1.23,1.31 0.61,1.13 0,0.95 -0.11,0.94 -0.22,0.92 -0.33,0.88 -0.44,0.84 -0.53,0.78 -0.63,0.71 -0.71,0.62 -0.78,0.54 -0.84,0.44 -0.89,0.33 -0.92,0.22 -0.94,0.11 -0.94,-0.00 -0.94,-0.11 -0.92,-0.22 -0.89,-0.33 -0.84,-0.44 -0.78,-0.54 -0.71,-0.62 -0.63,-0.71 -0.53,-0.78 -0.44,-0.84 -0.33,-0.88 -0.22,-0.92 -0.11,-0.94 0.00,-0.95 0.00,-0.95 L 0,-0.95 Z"></path></g><g transform="translate(177.60308837890625 436.1282043457031) rotate(0 -1.6431884765625 13.69305419921875)" stroke="none"><path fill="#000000" d="M 0.74,0.29 Q 0.74,0.29 0.51,2.02 0.29,3.75 -0.23,7.70 -0.77,11.64 -1.05,14.00 -1.34,16.35 -1.74,18.88 -2.14,21.40 -2.37,23.86 -2.60,26.31 -2.62,26.42 -2.64,26.52 -2.69,26.61 -2.74,26.70 -2.82,26.78 -2.90,26.85 -3.00,26.89 -3.09,26.93 -3.20,26.94 -3.31,26.95 -3.41,26.92 -3.51,26.90 -3.60,26.84 -3.69,26.78 -3.76,26.70 -3.82,26.62 -3.86,26.52 -3.90,26.42 -3.90,26.31 -3.90,26.21 -3.87,26.10 -3.84,26.00 -3.78,25.92 -3.72,25.83 -3.63,25.77 -3.55,25.71 -3.44,25.67 -3.34,25.64 -3.24,25.65 -3.13,25.65 -3.03,25.69 -2.93,25.72 -2.85,25.79 -2.76,25.86 -2.71,25.94 -2.65,26.03 -2.62,26.14 -2.60,26.24 -2.61,26.35 -2.62,26.45 -2.66,26.55 -2.70,26.65 -2.77,26.73 -2.84,26.81 -2.93,26.86 -3.03,26.91 -3.13,26.93 -3.23,26.95 -3.34,26.94 -3.45,26.92 -3.54,26.87 -3.64,26.83 -3.71,26.75 -3.79,26.68 -3.83,26.58 -3.88,26.49 -3.90,26.38 -3.91,26.28 -3.91,26.28 -3.91,26.28 -4.01,23.80 -4.11,21.32 -4.30,18.67 -4.49,16.02 -4.28,13.60 -4.07,11.18 -3.44,6.86 -2.81,2.53 -1.77,1.12 -0.74,-0.29 -0.69,-0.38 -0.64,-0.46 -0.58,-0.53 -0.51,-0.60 -0.43,-0.66 -0.35,-0.71 -0.26,-0.74 -0.17,-0.77 -0.08,-0.78 0.01,-0.79 0.10,-0.78 0.20,-0.77 0.29,-0.73 0.38,-0.70 0.46,-0.64 0.54,-0.58 0.60,-0.51 0.66,-0.44 0.70,-0.35 0.75,-0.26 0.77,-0.17 0.79,-0.08 0.79,0.01 0.79,0.11 0.76,0.20 0.74,0.29 0.74,0.29 L 0.74,0.29 Z"></path></g><g transform="translate(65.86767578125 334.2518005371094) rotate(0 14.78851318359375 40.531463623046875)" stroke="none"><path fill="#000000" d="M 0,-0.91 Q 0,-0.91 1.26,-1.13 2.53,-1.34 3.87,-1.01 5.21,-0.69 7.43,0.42 9.65,1.53 11.32,3.04 12.98,4.55 14.36,6.52 15.73,8.49 16.91,10.22 18.09,11.96 19.25,14.00 20.41,16.05 21.26,18.25 22.11,20.46 22.77,22.31 23.44,24.16 24.06,25.89 24.67,27.62 25.25,29.30 25.83,30.97 26.11,32.43 26.39,33.88 26.81,35.67 27.22,37.46 27.67,38.40 28.11,39.35 28.64,40.43 29.16,41.51 29.44,42.79 29.73,44.06 30.11,45.04 30.48,46.02 30.70,47.26 30.92,48.51 31.00,49.68 31.08,50.85 31.12,51.97 31.15,53.10 31.16,54.53 31.18,55.95 31.18,56.87 31.19,57.79 31.19,58.81 31.19,59.83 31.19,60.89 31.20,61.96 31.20,62.73 31.20,63.49 31.20,64.13 31.20,64.77 31.20,65.68 31.20,66.58 31.20,67.60 31.20,68.62 30.85,69.91 30.50,71.19 30.40,72.14 30.29,73.09 29.88,74.34 29.47,75.59 29.35,76.55 29.22,77.51 27.52,79.46 25.81,81.42 25.72,81.47 25.62,81.51 25.52,81.53 25.41,81.54 25.31,81.52 25.20,81.50 25.11,81.45 25.02,81.40 24.95,81.32 24.88,81.24 24.84,81.14 24.79,81.04 24.79,80.94 24.78,80.83 24.80,80.73 24.83,80.62 24.89,80.54 24.94,80.45 25.03,80.38 25.11,80.31 25.21,80.28 25.31,80.24 25.42,80.24 25.52,80.23 25.62,80.27 25.72,80.30 25.81,80.36 25.90,80.42 25.96,80.51 26.02,80.59 26.05,80.70 26.08,80.80 26.08,80.90 26.08,81.01 26.04,81.11 26.00,81.21 25.94,81.29 25.87,81.38 25.78,81.43 25.69,81.49 25.59,81.51 25.48,81.54 25.38,81.53 25.27,81.52 25.17,81.48 25.08,81.44 25.00,81.37 24.92,81.30 24.87,81.20 24.81,81.11 24.79,81.01 24.78,80.90 24.79,80.80 24.80,80.69 24.85,80.60 24.90,80.50 24.97,80.43 25.05,80.35 25.05,80.35 25.05,80.35 25.53,78.67 26.01,77.00 26.20,75.77 26.39,74.55 26.73,73.61 27.06,72.68 27.22,71.47 27.38,70.27 27.66,69.43 27.95,68.59 27.95,67.58 27.95,66.58 27.95,65.68 27.95,64.78 27.95,64.13 27.95,63.49 27.95,62.73 27.95,61.96 27.94,60.90 27.94,59.84 27.94,58.82 27.94,57.81 27.93,56.90 27.93,55.98 27.92,54.59 27.90,53.19 27.87,52.13 27.84,51.07 27.78,50.04 27.71,49.02 27.58,48.08 27.45,47.14 27.01,45.92 26.56,44.71 26.40,43.79 26.25,42.88 25.72,41.77 25.19,40.66 24.65,39.42 24.12,38.18 23.70,36.31 23.28,34.44 23.08,33.20 22.87,31.97 22.32,30.29 21.77,28.61 21.20,26.89 20.63,25.16 19.99,23.33 19.35,21.50 18.61,19.49 17.88,17.47 16.78,15.53 15.69,13.58 14.52,11.85 13.36,10.11 12.19,8.37 11.03,6.63 9.67,5.33 8.32,4.03 6.40,2.99 4.48,1.95 3.49,1.64 2.50,1.34 1.25,1.13 0,0.91 -0.10,0.90 -0.21,0.89 -0.32,0.85 -0.42,0.81 -0.51,0.75 -0.60,0.68 -0.68,0.60 -0.75,0.52 -0.80,0.42 -0.85,0.32 -0.88,0.21 -0.91,0.11 -0.91,-0.00 -0.91,-0.11 -0.88,-0.21 -0.85,-0.32 -0.80,-0.42 -0.75,-0.52 -0.68,-0.60 -0.60,-0.68 -0.51,-0.75 -0.42,-0.81 -0.32,-0.85 -0.21,-0.89 -0.10,-0.90 0.00,-0.91 0.00,-0.91 L 0,-0.91 Z"></path></g><g transform="translate(40.67242431640625 383.5468444824219) rotate(0 13.14532470703125 -8.7635498046875)" stroke="none"><path fill="#000000" d="M -0.81,-0.27 Q -0.81,-0.27 -0.98,-1.38 -1.15,-2.49 -0.32,-4.00 0.50,-5.52 2.10,-8.03 3.71,-10.54 5.06,-12.29 6.41,-14.03 7.66,-15.43 8.91,-16.83 10.31,-17.61 11.71,-18.38 12.87,-18.66 14.04,-18.94 15.50,-18.37 16.97,-17.79 18.04,-17.67 19.12,-17.54 20.46,-17.07 21.81,-16.60 22.76,-16.40 23.72,-16.20 25.13,-16.01 26.54,-15.82 26.65,-15.83 26.75,-15.83 26.86,-15.80 26.96,-15.77 27.05,-15.71 27.13,-15.65 27.20,-15.57 27.26,-15.49 27.30,-15.38 27.33,-15.28 27.33,-15.18 27.33,-15.07 27.29,-14.97 27.26,-14.87 27.19,-14.79 27.13,-14.70 27.04,-14.64 26.95,-14.58 26.85,-14.55 26.75,-14.53 26.64,-14.53 26.54,-14.54 26.44,-14.58 26.34,-14.62 26.26,-14.69 26.18,-14.76 26.12,-14.85 26.07,-14.94 26.05,-15.04 26.02,-15.15 26.04,-15.25 26.05,-15.36 26.09,-15.45 26.14,-15.55 26.21,-15.63 26.29,-15.70 26.38,-15.75 26.47,-15.80 26.58,-15.82 26.68,-15.84 26.79,-15.82 26.89,-15.80 26.99,-15.75 27.08,-15.70 27.15,-15.62 27.23,-15.55 27.27,-15.45 27.31,-15.35 27.32,-15.25 27.34,-15.14 27.31,-15.04 27.29,-14.93 27.23,-14.84 27.18,-14.75 27.10,-14.68 27.02,-14.62 26.92,-14.58 26.82,-14.54 26.82,-14.54 26.82,-14.54 25.05,-13.66 23.28,-12.79 21.95,-12.94 20.62,-13.09 19.56,-13.44 18.49,-13.79 16.85,-14.11 15.21,-14.43 14.31,-14.70 13.41,-14.98 12.55,-14.61 11.68,-14.25 10.56,-12.96 9.44,-11.67 8.19,-10.07 6.94,-8.46 5.37,-6.05 3.81,-3.64 3.11,-2.46 2.41,-1.28 1.61,-0.50 0.81,0.27 0.76,0.36 0.72,0.45 0.65,0.53 0.59,0.61 0.50,0.67 0.42,0.73 0.33,0.78 0.23,0.82 0.13,0.83 0.03,0.85 -0.06,0.84 -0.17,0.83 -0.26,0.80 -0.36,0.77 -0.45,0.71 -0.54,0.66 -0.61,0.58 -0.68,0.51 -0.73,0.42 -0.78,0.33 -0.81,0.23 -0.84,0.13 -0.84,0.03 -0.85,-0.06 -0.83,-0.16 -0.81,-0.27 -0.81,-0.27 L -0.81,-0.27 Z"></path></g><g transform="translate(51.62689208984375 371.4969177246094) rotate(0 0.547698974609375 9.8590087890625)" stroke="none"><path fill="#000000" d="M 0.93,0 Q 0.93,0 1.41,1.57 1.88,3.14 1.89,5.07 1.89,7.00 1.88,9.40 1.87,11.80 1.48,13.88 1.09,15.97 1.74,15.94 2.39,15.92 2.37,16.00 2.35,16.07 2.31,16.14 2.27,16.21 2.21,16.27 2.16,16.32 2.09,16.37 2.02,16.41 1.95,16.43 1.87,16.46 1.80,16.47 1.72,16.47 1.64,16.46 1.56,16.45 1.49,16.42 1.41,16.39 1.35,16.34 1.29,16.29 1.24,16.23 1.19,16.17 1.15,16.10 1.12,16.03 1.10,15.95 1.09,15.87 1.09,15.79 1.09,15.71 1.26,15.48 1.42,15.24 1.52,15.21 1.62,15.17 1.73,15.17 1.84,15.17 1.94,15.20 2.04,15.23 2.13,15.29 2.21,15.36 2.27,15.44 2.33,15.53 2.36,15.63 2.39,15.73 2.39,15.84 2.39,15.95 2.35,16.05 2.31,16.15 2.24,16.23 2.18,16.31 2.08,16.37 1.99,16.42 1.89,16.45 1.79,16.47 1.68,16.46 1.58,16.45 1.48,16.41 1.38,16.37 1.30,16.29 1.23,16.22 1.17,16.13 1.12,16.04 1.10,15.93 1.09,15.83 1.10,15.72 1.12,15.62 1.16,15.52 1.21,15.43 1.29,15.35 1.36,15.28 1.46,15.23 1.56,15.19 1.66,15.17 1.77,15.16 1.87,15.18 1.97,15.20 2.07,15.26 2.16,15.31 2.23,15.39 2.30,15.47 2.34,15.57 2.38,15.66 2.39,15.77 2.40,15.88 2.37,15.98 2.34,16.08 2.28,16.17 2.23,16.26 2.31,16.09 2.39,15.92 2.37,16.00 2.35,16.07 2.31,16.14 2.27,16.21 2.21,16.27 2.16,16.32 2.09,16.37 2.02,16.41 1.95,16.43 1.87,16.46 1.80,16.47 1.72,16.47 1.64,16.46 1.56,16.45 1.49,16.42 1.41,16.39 1.35,16.34 1.29,16.29 1.24,16.23 1.19,16.17 1.15,16.10 1.12,16.03 1.10,15.95 1.09,15.87 1.09,15.79 1.09,15.71 -0.62,15.59 -2.35,15.47 -2.11,13.63 -1.87,11.79 -1.88,9.40 -1.89,7.00 -1.89,5.07 -1.88,3.14 -1.41,1.57 -0.93,0 -0.92,-0.11 -0.91,-0.22 -0.87,-0.33 -0.83,-0.43 -0.76,-0.52 -0.70,-0.62 -0.61,-0.69 -0.53,-0.77 -0.43,-0.82 -0.33,-0.87 -0.22,-0.90 -0.11,-0.93 0.00,-0.93 0.11,-0.93 0.22,-0.90 0.33,-0.87 0.43,-0.82 0.53,-0.77 0.61,-0.69 0.70,-0.62 0.76,-0.52 0.83,-0.43 0.87,-0.33 0.91,-0.22 0.92,-0.11 0.93,0.00 0.93,0.00 L 0.93,0 Z"></path></g><g transform="translate(61.48590087890625 370.4015197753906) rotate(0 3.28631591796875 6.572662353515625)" stroke="none"><path fill="#000000" d="M 0.84,0 Q 0.84,0 1.36,1.57 1.89,3.15 1.55,4.94 1.22,6.73 1.10,8.25 0.97,9.77 1.17,10.81 1.36,11.86 3.84,10.88 6.31,9.91 6.41,9.87 6.51,9.83 6.62,9.82 6.72,9.81 6.83,9.84 6.93,9.87 7.02,9.93 7.10,9.99 7.17,10.07 7.23,10.16 7.27,10.26 7.30,10.36 7.30,10.46 7.30,10.57 7.27,10.67 7.24,10.77 7.17,10.86 7.11,10.94 7.02,11.00 6.93,11.06 6.83,11.09 6.73,11.12 6.62,11.12 6.52,11.11 6.42,11.07 6.32,11.03 6.24,10.96 6.16,10.90 6.10,10.80 6.05,10.71 6.02,10.61 6.00,10.51 6.01,10.40 6.02,10.30 6.07,10.20 6.11,10.10 6.18,10.02 6.26,9.95 6.35,9.90 6.44,9.85 6.55,9.83 6.65,9.81 6.76,9.83 6.86,9.84 6.96,9.89 7.05,9.94 7.12,10.02 7.20,10.10 7.24,10.19 7.29,10.29 7.30,10.39 7.31,10.50 7.29,10.60 7.27,10.71 7.21,10.80 7.16,10.89 7.08,10.96 7.00,11.03 7.00,11.03 7.00,11.03 4.64,12.84 2.28,14.65 1.05,14.70 -0.17,14.75 -1.14,13.72 -2.12,12.70 -2.44,11.10 -2.77,9.50 -2.62,7.76 -2.48,6.01 -2.18,4.57 -1.89,3.14 -1.36,1.57 -0.84,0 -0.82,-0.10 -0.81,-0.20 -0.78,-0.29 -0.74,-0.39 -0.68,-0.47 -0.63,-0.55 -0.55,-0.62 -0.47,-0.69 -0.38,-0.74 -0.29,-0.78 -0.19,-0.81 -0.10,-0.83 0.00,-0.83 0.10,-0.83 0.20,-0.81 0.29,-0.78 0.38,-0.74 0.47,-0.69 0.55,-0.62 0.63,-0.55 0.68,-0.47 0.74,-0.39 0.78,-0.29 0.81,-0.20 0.82,-0.10 0.84,0.00 0.84,0.00 L 0.84,0 Z"></path></g><g transform="translate(45.05419921875 402.1694030761719) rotate(0 18.074859619140625 -9.8590087890625)" stroke="none"><path fill="#000000" d="M -0.52,-0.78 Q -0.52,-0.78 0.17,-1.78 0.87,-2.78 7.25,-6.62 13.64,-10.46 18.86,-13.62 24.08,-16.77 27.42,-18.09 30.76,-19.40 32.19,-18.38 33.62,-17.36 33.70,-17.38 33.77,-17.40 33.85,-17.41 33.93,-17.41 34.01,-17.39 34.09,-17.38 34.16,-17.34 34.23,-17.31 34.29,-17.26 34.35,-17.21 34.40,-17.14 34.45,-17.08 34.48,-17.01 34.51,-16.94 34.52,-16.86 34.53,-16.78 34.53,-16.70 34.52,-16.62 34.49,-16.55 34.47,-16.47 34.43,-16.40 34.38,-16.34 34.33,-16.28 34.27,-16.23 34.20,-16.19 34.13,-16.15 34.33,-16.42 34.53,-16.69 34.50,-16.59 34.48,-16.49 34.42,-16.40 34.36,-16.31 34.28,-16.24 34.19,-16.18 34.09,-16.14 33.99,-16.11 33.89,-16.11 33.78,-16.10 33.68,-16.14 33.58,-16.17 33.49,-16.23 33.41,-16.29 33.35,-16.38 33.28,-16.47 33.25,-16.57 33.22,-16.67 33.23,-16.78 33.23,-16.88 33.27,-16.98 33.31,-17.08 33.38,-17.17 33.44,-17.25 33.53,-17.30 33.62,-17.36 33.73,-17.38 33.83,-17.41 33.94,-17.40 34.04,-17.39 34.14,-17.35 34.24,-17.30 34.31,-17.23 34.39,-17.16 34.44,-17.07 34.49,-16.97 34.51,-16.87 34.53,-16.76 34.52,-16.66 34.50,-16.55 34.45,-16.46 34.41,-16.37 34.33,-16.29 34.25,-16.22 34.16,-16.17 34.06,-16.12 33.96,-16.11 33.85,-16.10 33.75,-16.12 33.64,-16.14 33.55,-16.19 33.46,-16.25 33.39,-16.33 33.32,-16.41 33.28,-16.50 33.24,-16.60 33.43,-16.98 33.62,-17.36 33.70,-17.38 33.77,-17.40 33.85,-17.41 33.93,-17.41 34.01,-17.39 34.09,-17.38 34.16,-17.34 34.23,-17.31 34.29,-17.26 34.35,-17.21 34.40,-17.14 34.45,-17.08 34.48,-17.01 34.51,-16.94 34.52,-16.86 34.53,-16.78 34.53,-16.70 34.52,-16.62 34.49,-16.55 34.47,-16.47 34.43,-16.40 34.38,-16.34 34.33,-16.28 34.27,-16.23 34.20,-16.19 34.13,-16.15 33.15,-16.10 32.17,-16.05 29.16,-14.68 26.16,-13.31 20.92,-10.14 15.68,-6.97 9.29,-3.35 2.90,0.26 1.71,0.52 0.52,0.78 0.42,0.84 0.32,0.89 0.21,0.91 0.09,0.94 -0.01,0.94 -0.12,0.93 -0.24,0.91 -0.35,0.88 -0.45,0.82 -0.55,0.77 -0.63,0.69 -0.72,0.61 -0.78,0.52 -0.84,0.42 -0.88,0.31 -0.92,0.21 -0.93,0.09 -0.94,-0.01 -0.93,-0.12 -0.91,-0.24 -0.87,-0.34 -0.83,-0.45 -0.76,-0.54 -0.69,-0.64 -0.61,-0.71 -0.52,-0.78 -0.52,-0.78 L -0.52,-0.78 Z"></path></g><g transform="translate(66.963134765625 396.6921691894531) rotate(0 7.6680908203125 7.120391845703125)" stroke="none"><path fill="#000000" d="M 0.90,0 Q 0.90,0 1.30,1.57 1.71,3.15 1.38,5.21 1.06,7.28 0.94,8.67 0.81,10.06 0.35,10.66 -0.10,11.27 0.75,10.50 1.61,9.72 3.38,8.44 5.15,7.16 6.92,6.04 8.69,4.92 10.06,3.91 11.44,2.90 13.37,1.97 15.31,1.04 15.40,1.00 15.50,0.96 15.61,0.95 15.71,0.94 15.82,0.96 15.92,0.98 16.01,1.04 16.10,1.10 16.17,1.18 16.24,1.26 16.27,1.36 16.31,1.46 16.32,1.56 16.32,1.67 16.29,1.77 16.26,1.87 16.20,1.96 16.14,2.05 16.06,2.11 15.97,2.17 15.87,2.21 15.77,2.24 15.66,2.24 15.56,2.24 15.46,2.20 15.36,2.17 15.27,2.10 15.19,2.04 15.13,1.95 15.07,1.86 15.04,1.76 15.02,1.65 15.02,1.55 15.03,1.44 15.07,1.34 15.11,1.25 15.18,1.17 15.25,1.09 15.34,1.03 15.43,0.98 15.54,0.96 15.64,0.93 15.75,0.95 15.85,0.96 15.95,1.01 16.04,1.05 16.12,1.13 16.20,1.20 16.25,1.29 16.29,1.39 16.31,1.49 16.33,1.60 16.31,1.70 16.29,1.81 16.24,1.90 16.19,1.99 16.11,2.07 16.03,2.14 16.03,2.14 16.03,2.14 14.54,3.48 13.04,4.82 11.71,6.08 10.38,7.34 8.76,8.59 7.13,9.84 5.36,11.17 3.59,12.51 1.94,13.43 0.29,14.35 -0.81,13.93 -1.91,13.52 -2.26,11.63 -2.61,9.74 -2.46,8.23 -2.32,6.73 -2.01,4.93 -1.71,3.14 -1.30,1.57 -0.90,0 -0.89,-0.10 -0.87,-0.21 -0.83,-0.31 -0.80,-0.42 -0.73,-0.50 -0.67,-0.59 -0.59,-0.67 -0.51,-0.74 -0.41,-0.79 -0.32,-0.84 -0.21,-0.87 -0.10,-0.89 0.00,-0.89 0.10,-0.89 0.21,-0.87 0.32,-0.84 0.41,-0.79 0.51,-0.74 0.59,-0.67 0.67,-0.59 0.73,-0.50 0.80,-0.41 0.83,-0.31 0.87,-0.21 0.89,-0.10 0.90,0.00 0.90,0.00 L 0.90,0 Z"></path></g><g transform="translate(73.5357666015625 394.5013122558594) rotate(0 1.6431884765625 9.8590087890625)" stroke="none"><path fill="#000000" d="M 0.72,-0.18 Q 0.72,-0.18 1.65,0.92 2.59,2.03 2.75,4.32 2.91,6.61 2.97,8.80 3.03,10.99 2.99,13.18 2.96,15.37 3.31,16.02 3.65,16.68 3.64,16.76 3.64,16.84 3.61,16.91 3.58,16.99 3.54,17.05 3.49,17.12 3.43,17.17 3.38,17.23 3.31,17.26 3.24,17.30 3.16,17.32 3.08,17.34 3.00,17.34 2.92,17.34 2.85,17.32 2.77,17.31 2.70,17.27 2.63,17.23 2.57,17.18 2.51,17.13 2.46,17.07 2.42,17.00 2.39,16.93 2.36,16.85 2.35,16.77 2.34,16.70 2.53,16.39 2.73,16.09 2.83,16.06 2.93,16.04 3.04,16.04 3.15,16.05 3.24,16.09 3.34,16.13 3.42,16.20 3.50,16.27 3.56,16.36 3.61,16.45 3.63,16.56 3.65,16.66 3.64,16.77 3.63,16.87 3.58,16.97 3.54,17.06 3.46,17.14 3.39,17.22 3.29,17.27 3.20,17.31 3.09,17.33 2.99,17.35 2.88,17.33 2.78,17.31 2.69,17.26 2.59,17.21 2.52,17.13 2.45,17.05 2.40,16.95 2.36,16.86 2.35,16.75 2.34,16.64 2.37,16.54 2.39,16.44 2.45,16.35 2.50,16.26 2.58,16.19 2.67,16.12 2.77,16.08 2.86,16.05 2.97,16.04 3.08,16.04 3.18,16.07 3.28,16.10 3.37,16.16 3.45,16.22 3.52,16.30 3.58,16.39 3.61,16.49 3.65,16.59 3.64,16.70 3.64,16.80 3.61,16.90 3.57,17.00 3.51,17.09 3.44,17.17 3.55,16.93 3.65,16.68 3.64,16.76 3.64,16.84 3.61,16.91 3.58,16.99 3.54,17.05 3.49,17.12 3.43,17.17 3.38,17.23 3.31,17.26 3.24,17.30 3.16,17.32 3.08,17.34 3.00,17.34 2.92,17.34 2.85,17.32 2.77,17.31 2.70,17.27 2.63,17.23 2.57,17.18 2.51,17.13 2.46,17.07 2.42,17.00 2.39,16.93 2.36,16.85 2.35,16.77 2.34,16.70 0.74,16.07 -0.84,15.44 -0.92,13.27 -1.00,11.10 -1.06,8.98 -1.11,6.86 -1.22,4.93 -1.33,3.00 -1.02,1.59 -0.72,0.18 -0.73,0.09 -0.74,0.00 -0.73,-0.08 -0.72,-0.17 -0.69,-0.25 -0.65,-0.34 -0.60,-0.41 -0.55,-0.49 -0.49,-0.55 -0.42,-0.61 -0.34,-0.65 -0.26,-0.69 -0.17,-0.71 -0.09,-0.73 -0.00,-0.73 0.08,-0.73 0.17,-0.71 0.26,-0.69 0.34,-0.65 0.42,-0.61 0.48,-0.55 0.55,-0.49 0.60,-0.42 0.65,-0.34 0.68,-0.26 0.72,-0.18 0.72,-0.18 L 0.72,-0.18 Z"></path></g><g transform="translate(235.66168212890625 92.15841674804688) rotate(0 31.220184326171875 16.979415893554688)" stroke="none"><path fill="#000000" d="M 0.93,0 Q 0.93,0 1.30,0.94 1.66,1.88 1.67,2.91 1.67,3.94 1.97,5.49 2.27,7.04 2.71,8.64 3.14,10.24 3.93,12.10 4.71,13.97 5.38,15.77 6.06,17.58 7.18,19.09 8.31,20.60 9.41,21.89 10.51,23.18 11.75,23.91 13.00,24.64 14.21,25.31 15.42,25.98 16.55,26.58 17.69,27.18 19.31,27.70 20.94,28.21 22.37,28.79 23.80,29.37 25.04,29.94 26.29,30.50 27.70,31.03 29.10,31.56 30.92,32.09 32.74,32.61 34.07,32.82 35.40,33.03 36.87,33.12 38.34,33.21 39.60,33.25 40.87,33.29 42.65,33.31 44.44,33.32 45.84,33.33 47.23,33.34 48.14,33.34 49.05,33.34 49.75,33.35 50.45,33.35 51.06,33.35 51.67,33.36 52.56,33.40 53.45,33.43 54.45,33.48 55.45,33.52 56.30,33.25 57.16,32.99 59.47,32.66 61.79,32.34 61.90,32.33 62.00,32.32 62.11,32.35 62.21,32.38 62.30,32.43 62.39,32.49 62.46,32.57 62.52,32.66 62.56,32.76 62.59,32.86 62.60,32.96 62.60,33.07 62.57,33.17 62.54,33.27 62.47,33.36 62.41,33.44 62.33,33.51 62.24,33.57 62.14,33.60 62.04,33.63 61.93,33.63 61.82,33.62 61.72,33.59 61.62,33.55 61.54,33.48 61.46,33.42 61.40,33.33 61.35,33.24 61.32,33.13 61.29,33.03 61.30,32.92 61.31,32.82 61.35,32.72 61.40,32.62 61.47,32.54 61.54,32.47 61.63,32.41 61.72,32.36 61.83,32.34 61.93,32.32 62.04,32.34 62.14,32.35 62.24,32.40 62.33,32.45 62.41,32.52 62.48,32.60 62.53,32.69 62.58,32.79 62.59,32.89 62.61,33.00 62.59,33.10 62.57,33.21 62.51,33.30 62.46,33.39 62.38,33.46 62.30,33.53 62.20,33.57 62.11,33.62 62.11,33.62 62.11,33.62 60.06,34.73 58.01,35.85 56.75,36.22 55.49,36.58 54.47,36.62 53.45,36.66 52.56,36.70 51.67,36.74 51.05,36.74 50.44,36.75 49.74,36.75 49.04,36.75 48.12,36.74 47.21,36.74 45.81,36.73 44.41,36.72 42.58,36.70 40.76,36.68 39.44,36.64 38.12,36.60 36.49,36.49 34.86,36.38 33.33,36.12 31.80,35.86 29.85,35.29 27.91,34.72 26.40,34.15 24.89,33.58 23.70,33.04 22.52,32.50 21.20,31.96 19.88,31.42 18.00,30.79 16.12,30.17 14.95,29.54 13.77,28.92 12.50,28.21 11.23,27.49 9.61,26.44 7.99,25.39 6.79,23.98 5.58,22.56 4.26,20.67 2.93,18.78 2.27,17.02 1.62,15.26 0.76,13.19 -0.09,11.11 -0.55,9.38 -1.01,7.65 -1.34,5.80 -1.67,3.95 -1.67,2.92 -1.66,1.88 -1.30,0.94 -0.93,0 -0.91,-0.11 -0.90,-0.22 -0.86,-0.32 -0.82,-0.43 -0.76,-0.52 -0.69,-0.61 -0.61,-0.69 -0.52,-0.76 -0.42,-0.81 -0.32,-0.86 -0.22,-0.89 -0.11,-0.92 0.00,-0.92 0.11,-0.92 0.22,-0.89 0.32,-0.86 0.42,-0.81 0.52,-0.76 0.61,-0.69 0.69,-0.61 0.76,-0.52 0.82,-0.43 0.86,-0.32 0.90,-0.22 0.91,-0.11 0.93,0.00 0.93,0.00 L 0.93,0 Z"></path></g><g transform="translate(259.761474609375 73.53585815429688) rotate(0 9.311279296875 -6.0249481201171875)" stroke="none"><path fill="#000000" d="M -0.75,-0.37 Q -0.75,-0.37 -0.35,-1.75 0.05,-3.12 1.34,-4.73 2.63,-6.34 3.79,-7.62 4.96,-8.91 6.11,-10.10 7.25,-11.28 8.56,-11.92 9.87,-12.55 11.13,-12.81 12.40,-13.07 13.78,-12.82 15.16,-12.57 16.59,-11.98 18.01,-11.40 18.12,-11.42 18.22,-11.45 18.32,-11.44 18.43,-11.44 18.53,-11.40 18.63,-11.36 18.71,-11.29 18.79,-11.22 18.84,-11.13 18.89,-11.04 18.92,-10.93 18.94,-10.83 18.93,-10.72 18.91,-10.62 18.87,-10.52 18.82,-10.42 18.75,-10.35 18.68,-10.27 18.58,-10.22 18.49,-10.17 18.38,-10.16 18.28,-10.14 18.17,-10.16 18.07,-10.18 17.97,-10.23 17.88,-10.28 17.81,-10.36 17.74,-10.43 17.69,-10.53 17.65,-10.63 17.64,-10.73 17.63,-10.84 17.65,-10.94 17.67,-11.05 17.73,-11.14 17.79,-11.23 17.87,-11.30 17.95,-11.36 18.05,-11.40 18.15,-11.44 18.25,-11.45 18.36,-11.45 18.46,-11.42 18.56,-11.39 18.65,-11.33 18.74,-11.27 18.80,-11.19 18.87,-11.10 18.90,-11.00 18.93,-10.90 18.93,-10.79 18.93,-10.69 18.89,-10.59 18.86,-10.49 18.79,-10.40 18.73,-10.32 18.64,-10.26 18.55,-10.20 18.55,-10.20 18.55,-10.20 16.50,-10.10 14.45,-9.99 13.64,-10.20 12.83,-10.40 11.89,-10.24 10.96,-10.07 10.06,-9.72 9.15,-9.36 8.07,-8.22 6.98,-7.08 5.86,-5.84 4.73,-4.61 3.60,-3.26 2.46,-1.90 1.61,-0.76 0.75,0.37 0.70,0.46 0.64,0.54 0.56,0.61 0.49,0.68 0.40,0.73 0.31,0.78 0.21,0.81 0.11,0.83 0.01,0.84 -0.08,0.84 -0.18,0.82 -0.28,0.79 -0.37,0.75 -0.46,0.70 -0.54,0.64 -0.62,0.57 -0.68,0.49 -0.74,0.40 -0.78,0.31 -0.81,0.21 -0.83,0.11 -0.84,0.01 -0.83,-0.08 -0.82,-0.18 -0.79,-0.28 -0.75,-0.37 -0.75,-0.37 L -0.75,-0.37 Z"></path></g><g transform="translate(268.5250244140625 63.676849365234375) rotate(0 -1.095458984375 6.0249481201171875)" stroke="none"><path fill="#000000" d="M 0.90,0 Q 0.90,0 1.19,0.94 1.49,1.89 1.16,3.41 0.84,4.92 0.38,6.48 -0.07,8.04 -0.00,9.68 0.05,11.33 0.14,11.39 0.22,11.46 0.28,11.55 0.34,11.64 0.36,11.74 0.39,11.84 0.38,11.95 0.37,12.05 0.33,12.15 0.29,12.25 0.22,12.33 0.15,12.41 0.06,12.46 -0.02,12.51 -0.13,12.54 -0.23,12.56 -0.34,12.54 -0.44,12.53 -0.54,12.48 -0.63,12.44 -0.71,12.36 -0.79,12.29 -0.83,12.19 -0.88,12.10 -0.90,11.99 -0.91,11.89 -0.89,11.78 -0.87,11.68 -0.82,11.59 -0.77,11.49 -0.69,11.42 -0.61,11.35 -0.52,11.31 -0.42,11.26 -0.31,11.25 -0.21,11.25 -0.10,11.27 -0.00,11.30 0.08,11.35 0.17,11.41 0.24,11.49 0.30,11.57 0.34,11.67 0.38,11.77 0.38,11.88 0.39,11.98 0.36,12.09 0.33,12.19 0.26,12.27 0.20,12.36 0.12,12.42 0.03,12.49 -0.06,12.52 -0.16,12.55 -0.27,12.55 -0.37,12.55 -0.47,12.51 -0.57,12.47 -0.57,12.47 -0.57,12.47 -1.77,9.83 -2.97,7.18 -2.54,5.71 -2.10,4.23 -1.79,3.05 -1.49,1.88 -1.19,0.94 -0.90,0 -0.89,-0.10 -0.87,-0.21 -0.84,-0.31 -0.80,-0.42 -0.74,-0.51 -0.67,-0.60 -0.59,-0.67 -0.51,-0.74 -0.41,-0.79 -0.32,-0.84 -0.21,-0.87 -0.10,-0.89 0.00,-0.89 0.10,-0.89 0.21,-0.87 0.32,-0.84 0.41,-0.79 0.51,-0.74 0.59,-0.67 0.67,-0.60 0.74,-0.51 0.80,-0.42 0.84,-0.31 0.87,-0.21 0.89,-0.10 0.90,0.00 0.90,0.00 L 0.90,0 Z"></path></g><g transform="translate(277.28857421875 62.5814208984375) rotate(0 2.190887451171875 7.6681060791015625)" stroke="none"><path fill="#000000" d="M 0.93,0 Q 0.93,0 1.28,0.94 1.64,1.89 1.30,3.42 0.97,4.95 0.85,6.65 0.73,8.36 0.63,9.73 0.52,11.11 0.35,11.83 0.19,12.55 2.58,13.04 4.97,13.53 5.07,13.55 5.17,13.58 5.26,13.64 5.35,13.70 5.42,13.78 5.48,13.87 5.52,13.97 5.55,14.07 5.55,14.17 5.55,14.28 5.52,14.38 5.49,14.48 5.43,14.57 5.36,14.65 5.27,14.71 5.19,14.77 5.09,14.80 4.98,14.83 4.88,14.83 4.77,14.82 4.67,14.79 4.57,14.75 4.49,14.68 4.41,14.61 4.35,14.52 4.30,14.43 4.27,14.33 4.25,14.22 4.26,14.12 4.27,14.01 4.31,13.91 4.36,13.82 4.43,13.74 4.50,13.66 4.60,13.61 4.69,13.56 4.79,13.54 4.90,13.52 5.00,13.54 5.11,13.56 5.20,13.60 5.30,13.65 5.37,13.73 5.44,13.81 5.49,13.90 5.54,14.00 5.55,14.10 5.56,14.21 5.54,14.31 5.52,14.42 5.46,14.51 5.41,14.60 5.33,14.67 5.25,14.74 5.15,14.78 5.05,14.82 4.95,14.83 4.84,14.83 4.84,14.83 4.84,14.83 1.89,14.66 -1.04,14.48 -1.80,12.74 -2.55,11.01 -2.54,9.57 -2.53,8.12 -2.38,6.16 -2.23,4.21 -1.93,3.04 -1.64,1.87 -1.28,0.93 -0.93,0 -0.91,-0.11 -0.90,-0.22 -0.86,-0.32 -0.82,-0.43 -0.76,-0.52 -0.69,-0.61 -0.61,-0.69 -0.53,-0.76 -0.43,-0.82 -0.33,-0.87 -0.22,-0.89 -0.11,-0.92 0.00,-0.92 0.11,-0.92 0.22,-0.89 0.33,-0.87 0.43,-0.82 0.53,-0.76 0.61,-0.69 0.69,-0.61 0.76,-0.52 0.82,-0.43 0.86,-0.32 0.90,-0.22 0.91,-0.11 0.93,0.00 0.93,0.00 L 0.93,0 Z"></path></g><g transform="translate(260.85687255859375 87.77664184570312) rotate(0 13.693084716796875 -5.4772186279296875)" stroke="none"><path fill="#000000" d="M -0.51,-0.68 Q -0.51,-0.68 0.53,-1.91 1.58,-3.14 4.09,-4.55 6.60,-5.96 9.26,-7.17 11.93,-8.38 14.76,-9.09 17.58,-9.80 21.55,-10.48 25.52,-11.17 25.63,-11.18 25.73,-11.19 25.83,-11.16 25.94,-11.13 26.03,-11.08 26.12,-11.02 26.18,-10.94 26.25,-10.85 26.28,-10.75 26.32,-10.65 26.32,-10.55 26.33,-10.44 26.29,-10.34 26.26,-10.24 26.20,-10.15 26.14,-10.07 26.05,-10.00 25.97,-9.94 25.86,-9.91 25.76,-9.88 25.66,-9.88 25.55,-9.89 25.45,-9.92 25.35,-9.96 25.27,-10.03 25.19,-10.09 25.13,-10.18 25.07,-10.27 25.05,-10.38 25.02,-10.48 25.03,-10.59 25.04,-10.69 25.08,-10.79 25.12,-10.89 25.19,-10.97 25.27,-11.04 25.36,-11.10 25.45,-11.15 25.56,-11.17 25.66,-11.19 25.77,-11.17 25.87,-11.16 25.97,-11.11 26.06,-11.06 26.14,-10.99 26.21,-10.91 26.26,-10.82 26.30,-10.72 26.32,-10.62 26.33,-10.51 26.31,-10.41 26.29,-10.30 26.24,-10.21 26.19,-10.12 26.11,-10.05 26.03,-9.98 25.93,-9.93 25.83,-9.89 25.83,-9.89 25.83,-9.89 22.07,-8.68 18.30,-7.47 15.76,-6.52 13.22,-5.58 10.68,-4.39 8.13,-3.20 5.79,-1.92 3.45,-0.63 1.98,0.02 0.51,0.68 0.42,0.73 0.33,0.78 0.23,0.81 0.13,0.84 0.03,0.84 -0.06,0.84 -0.16,0.82 -0.27,0.80 -0.36,0.76 -0.45,0.71 -0.53,0.65 -0.61,0.58 -0.67,0.50 -0.73,0.42 -0.77,0.33 -0.81,0.23 -0.83,0.13 -0.85,0.03 -0.84,-0.06 -0.83,-0.17 -0.80,-0.26 -0.76,-0.36 -0.71,-0.45 -0.65,-0.53 -0.58,-0.60 -0.51,-0.68 -0.51,-0.68 L -0.51,-0.68 Z"></path></g><g transform="translate(272.90679931640625 88.87210083007812) rotate(0 4.38177490234375 9.311279296875)" stroke="none"><path fill="#000000" d="M 0.87,0.17 Q 0.87,0.17 0.86,1.81 0.84,3.44 0.41,5.98 -0.01,8.53 -0.53,10.33 -1.05,12.13 -1.24,13.40 -1.43,14.67 -1.88,15.67 -2.34,16.66 -2.84,16.44 -3.33,16.22 -2.15,15.82 -0.97,15.42 1.33,14.49 3.64,13.56 5.97,12.65 8.30,11.74 10.15,10.76 12.00,9.78 12.10,9.74 12.19,9.70 12.30,9.70 12.41,9.69 12.51,9.72 12.61,9.75 12.70,9.80 12.79,9.86 12.85,9.95 12.92,10.03 12.95,10.13 12.99,10.23 12.99,10.34 12.99,10.45 12.95,10.55 12.92,10.65 12.86,10.73 12.79,10.82 12.71,10.88 12.62,10.94 12.52,10.97 12.41,11.00 12.31,10.99 12.20,10.98 12.10,10.95 12.00,10.91 11.92,10.84 11.84,10.77 11.79,10.68 11.73,10.59 11.71,10.49 11.68,10.38 11.69,10.28 11.70,10.17 11.75,10.07 11.79,9.98 11.87,9.90 11.94,9.82 12.03,9.77 12.13,9.72 12.23,9.70 12.33,9.69 12.44,9.70 12.54,9.72 12.64,9.77 12.73,9.82 12.81,9.89 12.88,9.97 12.92,10.07 12.97,10.16 12.98,10.27 12.99,10.37 12.97,10.48 12.95,10.58 12.90,10.67 12.84,10.77 12.76,10.83 12.68,10.90 12.68,10.90 12.68,10.90 10.89,12.14 9.10,13.38 6.91,14.65 4.72,15.92 2.30,17.15 -0.10,18.38 -1.87,18.67 -3.65,18.96 -4.43,17.35 -5.22,15.74 -4.86,14.95 -4.50,14.16 -4.26,12.71 -4.02,11.26 -3.53,9.63 -3.04,7.99 -2.57,5.42 -2.10,2.85 -1.49,1.33 -0.87,-0.17 -0.84,-0.27 -0.81,-0.38 -0.75,-0.47 -0.69,-0.56 -0.61,-0.63 -0.54,-0.71 -0.44,-0.76 -0.35,-0.82 -0.25,-0.85 -0.14,-0.88 -0.03,-0.88 0.06,-0.89 0.17,-0.87 0.28,-0.85 0.37,-0.80 0.47,-0.75 0.56,-0.69 0.64,-0.62 0.70,-0.53 0.77,-0.45 0.81,-0.35 0.85,-0.25 0.87,-0.14 0.89,-0.03 0.88,0.06 0.87,0.17 0.87,0.17 L 0.87,0.17 Z"></path></g><g transform="translate(281.67034912109375 88.87210083007812) rotate(0 -1.643157958984375 10.954452514648438)" stroke="none"><path fill="#000000" d="M 0.91,0.22 Q 0.91,0.22 0.95,1.57 0.99,2.92 0.89,4.88 0.78,6.84 0.41,9.39 0.03,11.93 -0.44,14.28 -0.93,16.62 -1.26,18.73 -1.60,20.85 -1.61,20.95 -1.62,21.06 -1.66,21.15 -1.71,21.25 -1.78,21.33 -1.85,21.41 -1.94,21.46 -2.04,21.51 -2.14,21.53 -2.25,21.55 -2.35,21.53 -2.46,21.52 -2.55,21.47 -2.65,21.42 -2.72,21.34 -2.79,21.27 -2.84,21.17 -2.89,21.08 -2.90,20.97 -2.91,20.87 -2.89,20.76 -2.87,20.66 -2.82,20.57 -2.76,20.47 -2.68,20.40 -2.61,20.33 -2.51,20.29 -2.41,20.25 -2.30,20.24 -2.20,20.24 -2.09,20.26 -1.99,20.29 -1.90,20.35 -1.81,20.41 -1.75,20.49 -1.68,20.57 -1.65,20.67 -1.61,20.77 -1.61,20.88 -1.61,20.99 -1.64,21.09 -1.67,21.19 -1.74,21.28 -1.80,21.36 -1.89,21.42 -1.97,21.48 -2.07,21.51 -2.18,21.54 -2.28,21.54 -2.39,21.53 -2.49,21.50 -2.59,21.46 -2.67,21.39 -2.75,21.32 -2.81,21.23 -2.86,21.14 -2.89,21.04 -2.91,20.94 -2.91,20.94 -2.91,20.94 -3.58,18.46 -4.24,15.98 -3.78,13.70 -3.31,11.43 -2.95,9.03 -2.58,6.63 -2.41,4.37 -2.25,2.11 -1.58,0.94 -0.91,-0.22 -0.87,-0.33 -0.83,-0.43 -0.76,-0.53 -0.70,-0.62 -0.61,-0.69 -0.53,-0.77 -0.43,-0.82 -0.33,-0.87 -0.22,-0.90 -0.11,-0.93 0.00,-0.93 0.11,-0.93 0.22,-0.90 0.33,-0.87 0.43,-0.82 0.53,-0.77 0.62,-0.69 0.70,-0.62 0.76,-0.52 0.83,-0.43 0.87,-0.32 0.91,-0.22 0.92,-0.10 0.93,0.00 0.92,0.11 0.91,0.22 0.91,0.22 L 0.91,0.22 Z"></path></g></svg>