<svg version="1.1" xmlns="http://www.w3.org/2000/svg" viewBox="0 0 465.84619140625 428.60105895996094" width="465.84619140625" height="428.60105895996094" filter="invert(93%) hue-rotate(180deg)" class="excalidraw-svg"><!-- svg-source:excalidraw --><metadata></metadata><defs><style class="style-fonts">
      </style></defs><rect x="0" y="0" width="465.84619140625" height="428.60105895996094" fill="transparent"></rect><g stroke-linecap="round"><g transform="translate(112.9718017578125 12.190902709960938) rotate(0 -3.28631591796875 176.36666870117188)"><path d="M0 0 C-1.1 58.79, -5.48 293.94, -6.57 352.73 M0 0 C-1.1 58.79, -5.48 293.94, -6.57 352.73" stroke="#000000" stroke-width="0.5" fill="none"></path></g></g><mask></mask><g stroke-linecap="round"><g transform="translate(112.9718017578125 10) rotate(0 171.43719482421875 178.55757904052734)"><path d="M0 0 C57.15 59.52, 285.73 297.6, 342.87 357.12 M0 0 C57.15 59.52, 285.73 297.6, 342.87 357.12" stroke="#000000" stroke-width="0.5" fill="none"></path></g></g><mask></mask><g stroke-linecap="round"><g transform="translate(105.3037109375 368.21055603027344) rotate(0 175.271240234375 0.5477294921875)"><path d="M0 0 C58.42 0.18, 292.12 0.91, 350.54 1.1 M0 0 C58.42 0.18, 292.12 0.91, 350.54 1.1" stroke="#000000" stroke-width="0.5" fill="none"></path></g></g><mask></mask><g transform="translate(286.05218505859375 395.5967254638672) rotate(0 1.095428466796875 11.502166748046875)" stroke="none"><path fill="#000000" d="M 1.04,-0.14 Q 1.04,-0.14 1.83,1.98 2.63,4.12 2.77,7.04 2.91,9.96 3.27,12.32 3.63,14.68 3.66,16.75 3.69,18.82 3.24,20.53 2.80,22.23 2.79,22.34 2.78,22.44 2.73,22.54 2.69,22.64 2.62,22.71 2.54,22.79 2.45,22.84 2.36,22.89 2.25,22.91 2.15,22.93 2.04,22.91 1.94,22.89 1.84,22.84 1.75,22.79 1.67,22.72 1.60,22.64 1.56,22.54 1.51,22.45 1.50,22.34 1.49,22.24 1.51,22.13 1.53,22.03 1.59,21.94 1.64,21.85 1.72,21.78 1.80,21.71 1.90,21.67 2.00,21.63 2.11,21.62 2.21,21.62 2.31,21.64 2.42,21.67 2.51,21.73 2.59,21.79 2.66,21.88 2.72,21.96 2.76,22.06 2.79,22.16 2.79,22.27 2.79,22.37 2.76,22.47 2.72,22.58 2.66,22.66 2.60,22.75 2.51,22.81 2.42,22.86 2.32,22.89 2.22,22.92 2.11,22.92 2.00,22.91 1.91,22.87 1.81,22.83 1.73,22.77 1.64,22.70 1.59,22.61 1.53,22.51 1.51,22.41 1.49,22.31 1.49,22.31 1.49,22.31 0.85,20.70 0.22,19.10 -0.06,17.19 -0.35,15.28 -0.73,12.72 -1.12,10.15 -1.24,7.42 -1.37,4.69 -1.20,2.42 -1.04,0.14 -1.05,0.02 -1.05,-0.10 -1.02,-0.22 -0.99,-0.35 -0.94,-0.46 -0.88,-0.58 -0.80,-0.68 -0.71,-0.77 -0.61,-0.85 -0.51,-0.92 -0.39,-0.97 -0.27,-1.02 -0.14,-1.04 -0.02,-1.05 0.10,-1.04 0.23,-1.03 0.35,-0.99 0.47,-0.94 0.57,-0.87 0.68,-0.80 0.77,-0.71 0.85,-0.61 0.92,-0.50 0.98,-0.39 1.01,-0.27 1.04,-0.14 1.04,-0.14 L 1.04,-0.14 Z"></path></g><g transform="translate(325.4881591796875 161.1714324951172) rotate(0 12.049896240234375 12.049911499023438)" stroke="none"><path fill="#000000" d="M -0.14,-0.72 Q -0.14,-0.72 1.34,-1.46 2.83,-2.20 4.87,-2.36 6.91,-2.53 9.55,-1.95 12.18,-1.37 13.82,-0.59 15.46,0.17 16.35,2.34 17.24,4.51 17.20,5.90 17.15,7.29 16.44,9.28 15.72,11.26 13.70,13.51 11.68,15.77 9.88,17.31 8.07,18.86 6.63,19.86 5.19,20.85 4.29,21.19 3.39,21.52 3.19,20.28 2.98,19.04 3.88,19.38 4.77,19.72 6.18,19.82 7.59,19.92 9.80,20.00 12.02,20.08 14.57,20.30 17.12,20.51 20.11,22.25 23.10,24.00 23.19,24.06 23.28,24.12 23.34,24.20 23.41,24.29 23.44,24.39 23.47,24.49 23.47,24.59 23.47,24.70 23.43,24.80 23.40,24.90 23.34,24.99 23.27,25.07 23.18,25.13 23.09,25.19 22.99,25.21 22.89,25.24 22.78,25.24 22.68,25.23 22.58,25.19 22.48,25.15 22.40,25.08 22.32,25.01 22.26,24.92 22.21,24.83 22.19,24.72 22.17,24.62 22.18,24.51 22.19,24.41 22.24,24.31 22.28,24.22 22.36,24.14 22.43,24.06 22.52,24.01 22.62,23.96 22.72,23.95 22.83,23.93 22.93,23.95 23.04,23.97 23.13,24.02 23.22,24.07 23.30,24.15 23.37,24.22 23.41,24.32 23.46,24.42 23.47,24.52 23.48,24.63 23.45,24.73 23.43,24.84 23.37,24.93 23.32,25.02 23.24,25.09 23.16,25.15 23.06,25.19 22.96,25.23 22.85,25.24 22.75,25.24 22.64,25.21 22.54,25.18 22.54,25.18 22.54,25.18 19.76,24.20 16.98,23.21 14.45,23.36 11.91,23.52 9.58,23.46 7.24,23.40 5.35,23.17 3.46,22.94 2.52,22.51 1.58,22.08 1.51,20.49 1.44,18.91 2.33,18.44 3.22,17.98 4.51,17.09 5.81,16.20 7.47,14.80 9.13,13.39 10.83,11.66 12.52,9.93 13.12,8.47 13.73,7.01 13.83,6.23 13.94,5.46 13.70,4.00 13.46,2.55 12.43,2.21 11.40,1.87 9.25,1.30 7.09,0.74 5.28,0.84 3.46,0.94 1.80,0.83 0.14,0.72 0.05,0.73 -0.03,0.73 -0.12,0.72 -0.20,0.71 -0.29,0.67 -0.37,0.63 -0.44,0.58 -0.51,0.53 -0.57,0.46 -0.62,0.39 -0.66,0.31 -0.70,0.23 -0.72,0.14 -0.73,0.05 -0.73,-0.03 -0.73,-0.12 -0.70,-0.20 -0.68,-0.29 -0.63,-0.37 -0.59,-0.44 -0.52,-0.51 -0.46,-0.57 -0.39,-0.62 -0.31,-0.67 -0.22,-0.69 -0.14,-0.72 -0.14,-0.72 L -0.14,-0.72 Z"></path></g><g transform="translate(10 197.3211212158203) rotate(0 28.4815673828125 -5.4772186279296875)" stroke="none"><path fill="#000000" d="M 0.77,-0.77 Q 0.77,-0.77 1.65,-0.39 2.53,-0.01 3.53,1.28 4.53,2.59 5.86,4.35 7.19,6.12 8.76,8.86 10.33,11.60 11.59,13.64 12.84,15.68 13.70,17.19 14.55,18.70 14.64,18.91 14.74,19.11 14.78,19.33 14.82,19.55 14.81,19.77 14.80,19.99 14.73,20.21 14.67,20.42 14.55,20.61 14.44,20.81 14.28,20.97 14.13,21.12 13.94,21.24 13.74,21.36 13.53,21.43 13.32,21.49 13.10,21.51 12.87,21.52 12.65,21.49 12.43,21.45 12.23,21.36 12.02,21.27 11.85,21.13 11.67,20.99 11.53,20.82 11.39,20.64 11.65,18.11 11.92,15.58 11.75,12.16 11.59,8.73 11.52,4.96 11.45,1.19 11.43,-2.29 11.40,-5.79 11.38,-8.84 11.37,-11.90 11.36,-14.47 11.35,-17.03 11.67,-18.63 11.99,-20.23 12.23,-21.36 12.46,-22.50 13.45,-23.34 14.43,-24.19 16.17,-24.75 17.92,-25.32 20.45,-26.15 22.98,-26.97 27.57,-28.28 32.15,-29.59 36.29,-30.78 40.43,-31.96 43.80,-32.79 47.17,-33.61 49.63,-33.95 52.09,-34.28 53.40,-32.53 54.72,-30.78 54.79,-30.78 54.87,-30.78 54.95,-30.76 55.03,-30.75 55.10,-30.71 55.17,-30.68 55.23,-30.62 55.29,-30.57 55.34,-30.51 55.38,-30.45 55.41,-30.37 55.44,-30.30 55.46,-30.22 55.47,-30.14 55.46,-30.06 55.45,-29.99 55.43,-29.91 55.40,-29.84 55.36,-29.77 55.31,-29.70 55.26,-29.65 55.20,-29.60 55.13,-29.56 55.06,-29.52 54.98,-29.50 54.91,-29.48 55.16,-29.67 55.41,-29.87 55.36,-29.78 55.30,-29.69 55.22,-29.62 55.14,-29.56 55.04,-29.52 54.94,-29.48 54.83,-29.48 54.72,-29.48 54.62,-29.51 54.52,-29.54 54.43,-29.60 54.35,-29.66 54.29,-29.75 54.22,-29.83 54.19,-29.93 54.16,-30.04 54.16,-30.14 54.17,-30.25 54.20,-30.35 54.24,-30.45 54.30,-30.53 54.37,-30.61 54.46,-30.67 54.55,-30.73 54.65,-30.75 54.76,-30.78 54.86,-30.77 54.97,-30.76 55.07,-30.72 55.16,-30.68 55.24,-30.61 55.32,-30.54 55.37,-30.45 55.43,-30.35 55.45,-30.25 55.47,-30.15 55.45,-30.04 55.44,-29.93 55.39,-29.84 55.35,-29.74 55.27,-29.67 55.20,-29.59 55.10,-29.55 55.01,-29.50 54.90,-29.48 54.79,-29.47 54.69,-29.49 54.59,-29.51 54.49,-29.56 54.40,-29.61 54.33,-29.69 54.26,-29.77 54.22,-29.87 54.17,-29.97 54.17,-30.07 54.16,-30.18 54.44,-30.48 54.72,-30.78 54.79,-30.78 54.87,-30.78 54.95,-30.76 55.03,-30.75 55.10,-30.71 55.17,-30.68 55.23,-30.62 55.29,-30.57 55.34,-30.51 55.38,-30.45 55.41,-30.37 55.44,-30.30 55.46,-30.22 55.47,-30.14 55.46,-30.06 55.45,-29.99 55.43,-29.91 55.40,-29.84 55.36,-29.77 55.31,-29.70 55.26,-29.65 55.20,-29.60 55.13,-29.56 55.06,-29.52 54.98,-29.50 54.91,-29.48 53.78,-29.94 52.66,-30.41 50.39,-30.05 48.13,-29.69 44.83,-28.88 41.54,-28.07 37.40,-26.89 33.26,-25.71 28.75,-24.42 24.24,-23.13 21.68,-22.29 19.11,-21.46 17.36,-21.13 15.62,-20.81 15.58,-20.12 15.55,-19.43 15.25,-18.23 14.94,-17.02 14.94,-14.47 14.94,-11.92 14.96,-8.87 14.97,-5.82 15.00,-2.34 15.03,1.12 15.10,4.85 15.16,8.57 15.32,12.41 15.48,16.25 15.02,17.48 14.55,18.70 14.64,18.91 14.74,19.11 14.78,19.33 14.82,19.55 14.81,19.77 14.80,19.99 14.73,20.21 14.67,20.42 14.55,20.61 14.44,20.81 14.28,20.97 14.13,21.12 13.94,21.24 13.75,21.36 13.53,21.43 13.32,21.49 13.10,21.51 12.87,21.52 12.65,21.49 12.43,21.45 12.23,21.36 12.02,21.27 11.85,21.13 11.67,20.99 11.53,20.82 11.39,20.64 10.54,19.13 9.68,17.63 8.40,15.53 7.11,13.44 5.66,10.89 4.22,8.34 2.90,6.56 1.57,4.77 0.77,3.65 -0.01,2.53 -0.39,1.65 -0.77,0.77 -0.85,0.66 -0.93,0.56 -0.98,0.44 -1.04,0.32 -1.06,0.19 -1.09,0.06 -1.08,-0.06 -1.07,-0.19 -1.03,-0.32 -0.99,-0.44 -0.92,-0.56 -0.86,-0.67 -0.76,-0.76 -0.67,-0.86 -0.56,-0.92 -0.44,-0.99 -0.32,-1.03 -0.19,-1.07 -0.06,-1.08 0.06,-1.09 0.19,-1.06 0.32,-1.04 0.44,-0.98 0.56,-0.93 0.66,-0.85 0.77,-0.77 0.77,-0.77 L 0.77,-0.77 Z"></path></g><g transform="translate(37.3861083984375 194.03480529785156) rotate(0 6.57269287109375 10.954437255859375)" stroke="none"><path fill="#000000" d="M -0.17,-1.02 Q -0.17,-1.02 1.66,-1.66 3.50,-2.29 5.32,-2.44 7.14,-2.60 8.51,-2.66 9.88,-2.73 10.09,-2.72 10.30,-2.71 10.50,-2.65 10.70,-2.59 10.88,-2.49 11.06,-2.38 11.21,-2.24 11.36,-2.09 11.47,-1.92 11.58,-1.74 11.64,-1.54 11.71,-1.34 11.73,-1.14 11.74,-0.93 11.71,-0.72 11.67,-0.52 11.59,-0.33 11.51,-0.14 11.38,0.02 11.26,0.19 11.09,0.32 10.93,0.45 10.74,0.54 10.56,0.62 10.35,0.66 10.15,0.71 10.94,0.55 11.74,0.40 10.99,1.95 10.23,3.51 9.15,4.55 8.07,5.60 9.39,5.52 10.71,5.44 11.96,5.94 13.20,6.44 14.56,7.38 15.93,8.32 16.68,9.67 17.44,11.02 17.41,12.52 17.39,14.02 16.62,15.73 15.86,17.44 14.08,19.19 12.31,20.94 10.09,21.93 7.87,22.93 5.22,23.05 2.56,23.18 0.12,22.91 -2.30,22.65 -2.41,22.62 -2.51,22.59 -2.60,22.54 -2.69,22.48 -2.75,22.40 -2.82,22.31 -2.86,22.21 -2.89,22.11 -2.90,22.01 -2.90,21.90 -2.87,21.80 -2.83,21.70 -2.77,21.61 -2.71,21.53 -2.62,21.46 -2.54,21.40 -2.44,21.37 -2.33,21.34 -2.23,21.34 -2.12,21.35 -2.02,21.38 -1.92,21.42 -1.84,21.49 -1.76,21.56 -1.70,21.65 -1.64,21.73 -1.62,21.84 -1.59,21.94 -1.60,22.05 -1.61,22.15 -1.65,22.25 -1.70,22.35 -1.77,22.43 -1.84,22.51 -1.93,22.56 -2.02,22.61 -2.13,22.63 -2.23,22.65 -2.34,22.63 -2.44,22.62 -2.54,22.57 -2.63,22.52 -2.71,22.45 -2.78,22.37 -2.83,22.28 -2.88,22.18 -2.89,22.08 -2.90,21.97 -2.88,21.87 -2.86,21.76 -2.81,21.67 -2.76,21.58 -2.68,21.51 -2.60,21.44 -2.50,21.40 -2.40,21.35 -2.30,21.35 -2.19,21.34 -2.19,21.34 -2.19,21.34 0.05,21.47 2.30,21.61 4.43,20.91 6.55,20.21 8.17,19.27 9.79,18.32 11.11,17.01 12.43,15.69 13.02,14.61 13.61,13.54 13.81,12.95 14.01,12.35 13.81,11.74 13.61,11.12 12.73,10.41 11.85,9.69 10.78,9.24 9.72,8.80 8.57,8.46 7.43,8.12 6.35,7.73 5.27,7.33 4.87,6.42 4.47,5.51 5.01,4.21 5.55,2.91 6.28,2.30 7.02,1.69 7.56,0.84 8.10,-0.00 8.99,-1.36 9.88,-2.73 10.09,-2.72 10.30,-2.71 10.50,-2.65 10.70,-2.59 10.88,-2.49 11.06,-2.38 11.21,-2.24 11.36,-2.09 11.47,-1.92 11.58,-1.74 11.64,-1.54 11.71,-1.34 11.73,-1.14 11.74,-0.93 11.71,-0.72 11.67,-0.52 11.59,-0.33 11.51,-0.14 11.38,0.02 11.26,0.19 11.09,0.32 10.93,0.45 10.74,0.54 10.56,0.62 10.35,0.66 10.15,0.71 8.77,0.76 7.40,0.80 5.73,0.92 4.05,1.03 2.11,1.03 0.17,1.02 0.04,1.03 -0.07,1.03 -0.20,1.01 -0.32,0.98 -0.43,0.93 -0.55,0.88 -0.65,0.80 -0.74,0.72 -0.82,0.62 -0.89,0.52 -0.94,0.40 -0.99,0.29 -1.01,0.16 -1.04,0.04 -1.03,-0.07 -1.02,-0.20 -0.98,-0.32 -0.94,-0.44 -0.87,-0.54 -0.80,-0.65 -0.71,-0.74 -0.62,-0.83 -0.52,-0.89 -0.41,-0.95 -0.29,-0.99 -0.17,-1.02 -0.17,-1.02 L -0.17,-1.02 Z"></path></g><g transform="translate(111.87640380859375 97.63560485839844) rotate(0 27.933837890625 -14.240768432617188)" stroke="none"><path fill="#000000" d="M 0.52,-0.78 Q 0.52,-0.78 1.62,-0.39 2.72,0.00 4.07,0.89 5.42,1.79 6.82,2.42 8.23,3.05 9.91,3.29 11.58,3.52 15.85,2.08 20.11,0.63 23.16,-1.16 26.21,-2.96 29.30,-6.15 32.40,-9.35 34.72,-11.70 37.05,-14.06 39.88,-17.53 42.71,-20.99 44.87,-23.73 47.03,-26.48 48.92,-28.63 50.82,-30.78 52.04,-31.55 53.26,-32.32 53.20,-32.42 53.15,-32.51 53.13,-32.62 53.12,-32.72 53.13,-32.82 53.15,-32.93 53.19,-33.02 53.24,-33.12 53.32,-33.19 53.39,-33.27 53.49,-33.31 53.58,-33.36 53.69,-33.37 53.79,-33.39 53.90,-33.37 54.00,-33.35 54.10,-33.29 54.19,-33.24 54.26,-33.16 54.33,-33.08 54.37,-32.98 54.41,-32.89 54.42,-32.78 54.43,-32.67 54.40,-32.57 54.37,-32.47 54.31,-32.38 54.26,-32.29 54.17,-32.22 54.09,-32.16 53.99,-32.12 53.89,-32.09 53.78,-32.08 53.68,-32.08 53.58,-32.11 53.47,-32.15 53.39,-32.21 53.30,-32.27 53.24,-32.36 53.18,-32.45 53.15,-32.55 53.12,-32.65 53.12,-32.76 53.13,-32.86 53.17,-32.96 53.20,-33.06 53.27,-33.14 53.34,-33.22 53.43,-33.28 53.52,-33.34 53.62,-33.36 53.72,-33.39 53.83,-33.38 53.94,-33.37 54.03,-33.33 54.13,-33.28 54.21,-33.21 54.29,-33.14 54.29,-33.14 54.29,-33.14 53.74,-30.91 53.20,-28.68 51.36,-26.60 49.52,-24.52 47.34,-21.75 45.17,-18.98 42.24,-15.41 39.31,-11.83 36.98,-9.48 34.66,-7.13 31.24,-3.69 27.83,-0.25 24.45,1.69 21.08,3.64 16.17,5.09 11.26,6.55 9.12,6.19 6.99,5.83 5.36,5.07 3.74,4.31 2.39,3.41 1.05,2.51 0.26,1.65 -0.52,0.78 -0.61,0.71 -0.69,0.63 -0.76,0.54 -0.83,0.45 -0.87,0.34 -0.91,0.24 -0.93,0.12 -0.94,0.01 -0.93,-0.09 -0.92,-0.21 -0.88,-0.31 -0.84,-0.42 -0.78,-0.52 -0.71,-0.61 -0.63,-0.69 -0.54,-0.76 -0.44,-0.82 -0.34,-0.87 -0.23,-0.90 -0.12,-0.93 -0.01,-0.93 0.09,-0.94 0.21,-0.91 0.32,-0.88 0.42,-0.83 0.52,-0.78 0.52,-0.78 L 0.52,-0.78 Z"></path></g><g transform="translate(121.73541259765625 59.29502868652344) rotate(0 -0.000030517578125 10.40673828125)" stroke="none"><path fill="#000000" d="M 0,-0.89 Q 0,-0.89 0.94,-1.11 1.88,-1.33 2.63,-1.33 3.38,-1.33 4.33,-0.92 5.27,-0.51 5.82,0.16 6.36,0.84 6.63,2.25 6.89,3.67 6.60,5.08 6.30,6.50 5.38,7.61 4.47,8.72 3.41,9.47 2.35,10.21 3.59,10.69 4.83,11.18 5.46,11.89 6.09,12.60 6.39,13.41 6.69,14.22 6.44,15.51 6.18,16.79 5.28,17.80 4.37,18.80 3.31,19.50 2.26,20.20 0.43,20.85 -1.39,21.50 -2.62,21.67 -3.85,21.83 -4.22,21.43 -4.59,21.04 -4.71,21.05 -4.84,21.07 -4.96,21.05 -5.09,21.03 -5.21,20.99 -5.32,20.94 -5.42,20.87 -5.53,20.80 -5.61,20.70 -5.69,20.61 -5.75,20.50 -5.81,20.39 -5.84,20.27 -5.86,20.14 -5.86,20.02 -5.86,19.89 -5.83,19.77 -5.80,19.65 -5.74,19.54 -5.68,19.43 -5.60,19.33 -5.51,19.24 -5.41,19.17 -5.31,19.10 -5.19,19.06 -5.07,19.01 -4.13,17.85 -3.19,16.69 -3.12,16.61 -3.04,16.54 -2.95,16.49 -2.85,16.45 -2.74,16.43 -2.64,16.42 -2.53,16.44 -2.43,16.46 -2.34,16.52 -2.25,16.57 -2.18,16.65 -2.11,16.73 -2.07,16.83 -2.02,16.93 -2.02,17.03 -2.01,17.14 -2.04,17.24 -2.06,17.34 -2.12,17.43 -2.18,17.52 -2.26,17.59 -2.35,17.65 -2.45,17.69 -2.55,17.72 -2.65,17.72 -2.76,17.73 -2.86,17.69 -2.96,17.66 -3.05,17.60 -3.13,17.54 -3.19,17.45 -3.26,17.36 -3.29,17.26 -3.32,17.16 -3.31,17.05 -3.31,16.95 -3.27,16.85 -3.23,16.75 -3.16,16.67 -3.10,16.58 -3.01,16.53 -2.92,16.47 -2.81,16.45 -2.71,16.42 -2.60,16.43 -2.50,16.44 -2.40,16.48 -2.30,16.53 -2.23,16.60 -2.15,16.67 -2.10,16.76 -2.04,16.86 -2.03,16.96 -2.01,17.07 -2.02,17.17 -2.04,17.28 -2.09,17.37 -2.13,17.47 -2.13,17.47 -2.13,17.47 -3.36,19.25 -4.59,21.04 -4.71,21.05 -4.84,21.07 -4.96,21.05 -5.09,21.03 -5.20,20.99 -5.32,20.94 -5.42,20.87 -5.53,20.80 -5.61,20.70 -5.69,20.61 -5.75,20.50 -5.81,20.39 -5.84,20.27 -5.86,20.14 -5.86,20.02 -5.86,19.89 -5.83,19.77 -5.80,19.65 -5.74,19.54 -5.68,19.43 -5.60,19.34 -5.51,19.24 -5.41,19.17 -5.31,19.10 -5.19,19.06 -5.07,19.01 -4.58,19.04 -4.08,19.07 -3.27,18.75 -2.45,18.43 -0.96,17.93 0.51,17.44 1.34,16.93 2.17,16.42 2.97,15.63 3.76,14.85 3.57,14.25 3.38,13.64 2.44,13.15 1.51,12.65 0.59,12.01 -0.32,11.37 -0.54,10.75 -0.76,10.13 -0.16,8.85 0.44,7.57 1.27,7.02 2.10,6.47 2.67,6.00 3.24,5.54 3.48,4.73 3.72,3.92 3.49,2.63 3.25,1.33 2.57,1.33 1.88,1.33 0.94,1.11 0,0.89 -0.10,0.88 -0.21,0.87 -0.31,0.83 -0.41,0.79 -0.50,0.73 -0.59,0.67 -0.66,0.59 -0.74,0.51 -0.79,0.41 -0.84,0.31 -0.86,0.21 -0.89,0.10 -0.89,-0.00 -0.89,-0.10 -0.86,-0.21 -0.84,-0.31 -0.79,-0.41 -0.74,-0.51 -0.66,-0.59 -0.59,-0.67 -0.50,-0.73 -0.41,-0.79 -0.31,-0.83 -0.21,-0.87 -0.10,-0.88 0.00,-0.89 0.00,-0.89 L 0,-0.89 Z"></path></g><g transform="translate(141.453369140625 61.48591613769531) rotate(0 -0.547698974609375 7.1204071044921875)" stroke="none"><path fill="#000000" d="M 0,1.05 Q 0,1.05 -0.87,1.41 -1.75,1.78 -2.35,2.28 -2.95,2.77 -3.78,4.05 -4.60,5.32 -5.28,7.31 -5.95,9.30 -5.96,11.52 -5.97,13.74 -5.69,14.61 -5.42,15.48 -4.52,15.58 -3.62,15.68 -1.82,13.73 -0.01,11.77 1.43,9.46 2.88,7.15 3.82,5.24 4.76,3.33 5.11,1.77 5.47,0.21 5.10,-0.72 4.73,-1.67 4.23,-2.02 3.73,-2.38 2.18,-2.58 0.63,-2.78 0.53,-2.77 0.42,-2.76 0.32,-2.78 0.22,-2.80 0.12,-2.85 0.03,-2.91 -0.03,-2.99 -0.10,-3.07 -0.14,-3.17 -0.18,-3.27 -0.18,-3.37 -0.19,-3.48 -0.16,-3.58 -0.13,-3.68 -0.07,-3.77 -0.02,-3.86 0.06,-3.93 0.14,-3.99 0.24,-4.02 0.34,-4.06 0.45,-4.06 0.56,-4.06 0.66,-4.03 0.76,-3.99 0.84,-3.93 0.93,-3.87 0.99,-3.78 1.05,-3.69 1.08,-3.59 1.11,-3.49 1.10,-3.38 1.10,-3.28 1.06,-3.18 1.02,-3.08 0.95,-3.00 0.88,-2.91 0.79,-2.86 0.70,-2.80 0.60,-2.78 0.49,-2.76 0.39,-2.77 0.28,-2.78 0.19,-2.82 0.09,-2.87 0.01,-2.94 -0.06,-3.01 -0.11,-3.10 -0.16,-3.20 -0.17,-3.30 -0.19,-3.41 -0.18,-3.51 -0.16,-3.62 -0.11,-3.71 -0.06,-3.81 0.01,-3.88 0.08,-3.95 0.18,-4.00 0.27,-4.04 0.27,-4.04 0.27,-4.04 2.77,-4.34 5.26,-4.63 6.41,-3.80 7.55,-2.97 8.09,-1.13 8.62,0.70 8.14,2.72 7.66,4.74 6.63,6.81 5.60,8.89 3.90,11.50 2.20,14.11 -0.43,16.33 -3.07,18.55 -5.22,18.10 -7.37,17.66 -8.35,15.75 -9.32,13.85 -9.31,11.03 -9.29,8.21 -8.43,5.75 -7.57,3.30 -6.26,1.52 -4.94,-0.25 -3.48,-1.02 -2.02,-1.78 -1.01,-1.41 0,-1.05 0.12,-1.03 0.25,-1.02 0.36,-0.97 0.48,-0.93 0.59,-0.85 0.69,-0.78 0.78,-0.69 0.86,-0.59 0.92,-0.48 0.98,-0.37 1.01,-0.24 1.04,-0.12 1.04,0.00 1.04,0.12 1.01,0.24 0.98,0.37 0.92,0.48 0.86,0.59 0.78,0.69 0.69,0.78 0.59,0.85 0.48,0.93 0.36,0.97 0.25,1.02 0.12,1.03 -0.00,1.05 -0.00,1.05 L 0,1.05 Z"></path></g><g transform="translate(389.02398681640625 297.0066375732422) rotate(0 -14.78851318359375 34.50653076171875)" stroke="none"><path fill="#000000" d="M 0,0.96 Q 0,0.96 -1.57,1.41 -3.14,1.86 -4.12,1.88 -5.09,1.89 -5.87,2.19 -6.65,2.50 -7.86,2.69 -9.08,2.89 -9.55,3.17 -10.03,3.46 -10.98,3.93 -11.92,4.39 -12.94,4.89 -13.95,5.39 -14.42,6.02 -14.89,6.66 -15.78,7.88 -16.67,9.11 -18.08,10.69 -19.50,12.26 -20.57,14.29 -21.64,16.31 -22.42,18.12 -23.21,19.93 -23.86,21.63 -24.51,23.32 -24.74,24.82 -24.97,26.32 -25.41,28.63 -25.85,30.94 -26.02,33.07 -26.19,35.20 -26.27,37.05 -26.34,38.91 -26.70,41.10 -27.06,43.29 -27.20,45.02 -27.34,46.76 -27.40,48.43 -27.46,50.09 -27.19,51.22 -26.93,52.34 -26.79,53.65 -26.65,54.97 -26.59,56.49 -26.53,58.02 -26.51,59.60 -26.49,61.19 -26.48,62.49 -26.47,63.79 -26.47,64.66 -26.46,65.53 -26.49,66.16 -26.51,66.80 -26.26,67.45 -26.02,68.11 -26.05,68.33 -26.07,68.55 -26.15,68.75 -26.23,68.96 -26.35,69.14 -26.48,69.32 -26.64,69.47 -26.81,69.62 -27.00,69.72 -27.20,69.82 -27.41,69.87 -27.62,69.93 -27.84,69.93 -28.06,69.93 -28.28,69.88 -28.49,69.82 -28.69,69.72 -28.88,69.62 -29.05,69.47 -29.21,69.33 -29.34,69.15 -29.46,68.97 -29.54,68.76 -29.62,68.56 -29.65,68.34 -29.68,68.12 -27.87,66.44 -26.06,64.77 -25.99,64.69 -25.92,64.61 -25.83,64.56 -25.73,64.50 -25.63,64.48 -25.52,64.47 -25.42,64.48 -25.31,64.49 -25.22,64.54 -25.12,64.59 -25.05,64.66 -24.97,64.74 -24.93,64.83 -24.88,64.93 -24.87,65.04 -24.85,65.14 -24.87,65.24 -24.89,65.35 -24.94,65.44 -25.00,65.53 -25.08,65.60 -25.16,65.68 -25.25,65.72 -25.35,65.76 -25.46,65.77 -25.56,65.78 -25.67,65.75 -25.77,65.72 -25.86,65.67 -25.95,65.61 -26.01,65.53 -26.08,65.44 -26.12,65.34 -26.15,65.24 -26.16,65.14 -26.16,65.03 -26.13,64.93 -26.10,64.83 -26.03,64.74 -25.97,64.66 -25.88,64.59 -25.80,64.53 -25.70,64.50 -25.60,64.47 -25.49,64.47 -25.38,64.48 -25.28,64.51 -25.18,64.55 -25.10,64.62 -25.02,64.68 -24.96,64.77 -24.90,64.86 -24.88,64.97 -24.85,65.07 -24.86,65.18 -24.87,65.28 -24.91,65.38 -24.96,65.48 -24.96,65.48 -24.96,65.48 -25.49,66.79 -26.02,68.11 -26.05,68.33 -26.07,68.55 -26.15,68.75 -26.23,68.96 -26.35,69.14 -26.48,69.32 -26.64,69.47 -26.81,69.62 -27.00,69.72 -27.20,69.82 -27.41,69.87 -27.62,69.93 -27.84,69.93 -28.06,69.93 -28.28,69.88 -28.49,69.82 -28.69,69.72 -28.88,69.62 -29.05,69.47 -29.21,69.33 -29.34,69.15 -29.46,68.97 -29.54,68.76 -29.62,68.56 -29.65,68.34 -29.68,68.12 -30.06,67.56 -30.45,67.01 -30.48,66.28 -30.50,65.55 -30.51,64.68 -30.51,63.82 -30.52,62.53 -30.53,61.25 -30.55,59.70 -30.57,58.16 -30.62,56.77 -30.67,55.38 -30.77,54.27 -30.88,53.17 -31.19,51.57 -31.50,49.98 -31.43,48.20 -31.37,46.43 -31.21,44.52 -31.05,42.62 -30.71,40.68 -30.38,38.74 -30.30,36.80 -30.22,34.87 -30.02,32.53 -29.82,30.19 -29.39,27.92 -28.96,25.65 -28.62,23.77 -28.29,21.90 -27.60,20.10 -26.92,18.31 -26.05,16.34 -25.19,14.38 -23.85,11.98 -22.52,9.58 -21.23,8.16 -19.94,6.73 -18.93,5.35 -17.92,3.97 -16.88,2.90 -15.84,1.84 -14.78,1.30 -13.71,0.77 -12.75,0.29 -11.78,-0.17 -10.71,-0.63 -9.64,-1.09 -8.70,-1.16 -7.77,-1.24 -6.45,-1.56 -5.14,-1.89 -4.14,-1.88 -3.14,-1.86 -1.57,-1.41 0,-0.96 0.11,-0.94 0.22,-0.93 0.33,-0.89 0.44,-0.85 0.54,-0.78 0.63,-0.71 0.71,-0.63 0.79,-0.54 0.84,-0.44 0.89,-0.34 0.92,-0.22 0.95,-0.11 0.95,0.00 0.95,0.11 0.92,0.22 0.89,0.34 0.84,0.44 0.79,0.54 0.71,0.63 0.63,0.71 0.54,0.78 0.44,0.85 0.33,0.89 0.22,0.93 0.11,0.94 -0.00,0.96 -0.00,0.96 L 0,0.96 Z"></path></g><g transform="translate(389.02398681640625 320.01097106933594) rotate(0 -6.024932861328125 19.718017578125)" stroke="none"><path fill="#000000" d="M 0.62,0.62 Q 0.62,0.62 0.26,1.52 -0.09,2.42 -0.97,3.33 -1.85,4.24 -2.78,5.49 -3.72,6.73 -4.69,8.73 -5.66,10.73 -6.37,13.38 -7.07,16.03 -8.04,19.13 -9.00,22.23 -9.38,25.90 -9.76,29.57 -9.63,32.00 -9.50,34.43 -9.40,35.45 -9.29,36.46 -7.92,35.46 -6.55,34.46 -5.74,32.94 -4.93,31.42 -4.24,29.83 -3.54,28.24 -3.59,26.88 -3.65,25.52 -4.58,23.87 -5.51,22.21 -6.21,21.17 -6.90,20.12 -7.67,19.51 -8.43,18.91 -9.40,18.89 -10.36,18.87 -10.42,18.81 -10.47,18.76 -10.51,18.69 -10.55,18.62 -10.57,18.54 -10.59,18.46 -10.59,18.38 -10.59,18.30 -10.57,18.23 -10.55,18.15 -10.52,18.08 -10.48,18.01 -10.43,17.95 -10.38,17.89 -10.31,17.84 -10.25,17.80 -10.18,17.77 -10.10,17.74 -10.02,17.73 -9.94,17.72 -9.87,17.73 -9.79,17.73 -9.71,17.76 -9.64,17.79 -9.57,17.83 -9.51,17.88 -9.39,18.13 -9.28,18.38 -9.30,18.48 -9.31,18.59 -9.36,18.68 -9.41,18.77 -9.49,18.85 -9.57,18.92 -9.66,18.96 -9.76,19.01 -9.87,19.02 -9.97,19.03 -10.08,19.01 -10.18,18.98 -10.27,18.93 -10.36,18.87 -10.43,18.79 -10.50,18.71 -10.54,18.61 -10.58,18.51 -10.58,18.41 -10.59,18.30 -10.56,18.20 -10.53,18.10 -10.47,18.01 -10.41,17.92 -10.33,17.86 -10.24,17.79 -10.14,17.76 -10.04,17.73 -9.93,17.73 -9.83,17.73 -9.73,17.76 -9.63,17.79 -9.54,17.86 -9.46,17.92 -9.40,18.01 -9.34,18.10 -9.31,18.20 -9.28,18.31 -9.29,18.41 -9.29,18.52 -9.33,18.62 -9.37,18.71 -9.44,18.80 -9.51,18.88 -9.60,18.93 -9.69,18.99 -9.80,19.01 -9.90,19.03 -10.01,19.02 -10.11,19.01 -10.21,18.96 -10.31,18.92 -10.38,18.84 -10.46,18.77 -10.51,18.68 -10.56,18.58 -10.46,18.73 -10.36,18.87 -10.42,18.81 -10.47,18.76 -10.51,18.69 -10.55,18.62 -10.57,18.54 -10.59,18.46 -10.59,18.38 -10.59,18.30 -10.57,18.23 -10.55,18.15 -10.52,18.08 -10.48,18.01 -10.43,17.95 -10.38,17.89 -10.31,17.84 -10.25,17.80 -10.18,17.77 -10.10,17.74 -10.02,17.73 -9.94,17.72 -9.87,17.73 -9.79,17.73 -9.71,17.76 -9.64,17.79 -9.57,17.83 -9.51,17.88 -7.92,17.10 -6.33,16.32 -5.22,17.32 -4.11,18.33 -3.38,19.58 -2.64,20.83 -1.68,23.11 -0.72,25.39 -0.77,27.35 -0.82,29.32 -1.60,31.10 -2.37,32.88 -3.55,34.84 -4.73,36.81 -6.73,38.06 -8.74,39.30 -10.13,38.77 -11.52,38.24 -12.17,36.43 -12.82,34.63 -12.98,31.92 -13.13,29.21 -12.70,25.23 -12.26,21.24 -11.32,18.18 -10.37,15.13 -9.55,12.18 -8.73,9.23 -7.58,6.95 -6.43,4.68 -5.34,3.27 -4.25,1.85 -3.33,0.97 -2.42,0.09 -1.52,-0.26 -0.62,-0.62 -0.54,-0.69 -0.45,-0.75 -0.36,-0.80 -0.26,-0.84 -0.15,-0.86 -0.05,-0.88 0.05,-0.87 0.15,-0.87 0.26,-0.83 0.36,-0.80 0.45,-0.75 0.54,-0.69 0.62,-0.62 0.69,-0.54 0.75,-0.45 0.80,-0.36 0.83,-0.26 0.87,-0.15 0.87,-0.05 0.88,0.05 0.86,0.15 0.84,0.26 0.80,0.36 0.75,0.45 0.69,0.54 0.62,0.62 0.62,0.62 L 0.62,0.62 Z"></path></g><g transform="translate(404.3602294921875 334.2517547607422) rotate(0 -3.286346435546875 8.763580322265625)" stroke="none"><path fill="#000000" d="M -0.57,0.57 Q -0.57,0.57 -1.48,0.29 -2.38,0.00 -2.93,-0.00 -3.48,-0.01 -4.02,0.16 -4.56,0.34 -5.23,1.16 -5.90,1.98 -6.85,3.50 -7.80,5.03 -8.48,7.41 -9.17,9.79 -9.49,12.61 -9.81,15.43 -9.44,16.93 -9.07,18.42 -8.39,18.84 -7.71,19.25 -6.75,18.91 -5.78,18.56 -4.20,17.34 -2.61,16.12 -1.33,14.43 -0.05,12.73 1.08,10.21 2.22,7.68 2.68,5.74 3.13,3.80 3.02,2.60 2.92,1.40 2.05,0.52 1.19,-0.35 0.50,-1.17 -0.18,-1.98 -1.37,-1.93 -2.56,-1.88 -2.65,-1.84 -2.75,-1.79 -2.86,-1.78 -2.96,-1.77 -3.07,-1.79 -3.17,-1.82 -3.26,-1.87 -3.35,-1.92 -3.42,-2.01 -3.49,-2.09 -3.53,-2.19 -3.57,-2.28 -3.58,-2.39 -3.58,-2.50 -3.55,-2.60 -3.52,-2.70 -3.47,-2.79 -3.41,-2.88 -3.32,-2.94 -3.24,-3.01 -3.14,-3.04 -3.04,-3.07 -2.93,-3.07 -2.82,-3.07 -2.72,-3.04 -2.62,-3.01 -2.54,-2.94 -2.45,-2.88 -2.39,-2.79 -2.33,-2.70 -2.30,-2.60 -2.28,-2.50 -2.28,-2.39 -2.29,-2.29 -2.33,-2.19 -2.36,-2.09 -2.43,-2.01 -2.50,-1.93 -2.59,-1.87 -2.68,-1.82 -2.79,-1.79 -2.89,-1.77 -3.00,-1.78 -3.10,-1.79 -3.20,-1.84 -3.30,-1.88 -3.37,-1.96 -3.45,-2.03 -3.50,-2.12 -3.55,-2.22 -3.57,-2.32 -3.58,-2.43 -3.57,-2.53 -3.55,-2.63 -3.50,-2.73 -3.45,-2.82 -3.37,-2.90 -3.30,-2.97 -3.30,-2.97 -3.30,-2.97 -1.53,-4.07 0.23,-5.16 1.29,-4.70 2.35,-4.24 3.12,-3.34 3.90,-2.45 5.01,-0.78 6.11,0.88 6.19,2.71 6.26,4.54 5.67,6.76 5.07,8.98 3.74,11.80 2.41,14.62 0.84,16.63 -0.72,18.63 -2.87,20.17 -5.02,21.71 -6.93,21.93 -8.83,22.16 -10.46,20.96 -12.09,19.75 -12.70,17.44 -13.31,15.13 -12.97,11.95 -12.63,8.77 -11.77,5.93 -10.91,3.09 -9.70,1.22 -8.49,-0.64 -7.04,-1.88 -5.58,-3.13 -4.10,-3.35 -2.62,-3.58 -1.37,-3.05 -0.13,-2.52 0.22,-1.55 0.57,-0.57 0.63,-0.49 0.69,-0.42 0.73,-0.33 0.77,-0.24 0.79,-0.14 0.81,-0.04 0.80,0.04 0.80,0.14 0.77,0.24 0.74,0.33 0.69,0.41 0.64,0.50 0.57,0.57 0.50,0.64 0.41,0.69 0.33,0.74 0.24,0.77 0.14,0.80 0.04,0.80 -0.04,0.81 -0.14,0.79 -0.24,0.77 -0.33,0.73 -0.42,0.69 -0.49,0.63 -0.57,0.57 -0.57,0.57 L -0.57,0.57 Z"></path></g></svg>