<svg version="1.1" xmlns="http://www.w3.org/2000/svg" viewBox="0 0 510.759521484375 523.9048004150391" width="510.759521484375" height="523.9048004150391" filter="invert(93%) hue-rotate(180deg)" class="excalidraw-svg"><!-- svg-source:excalidraw --><metadata></metadata><defs><style class="style-fonts">
      </style></defs><rect x="0" y="0" width="510.759521484375" height="523.9048004150391" fill="transparent"></rect><g stroke-linecap="round"><g transform="translate(100.9219970703125 14.381790161132812) rotate(0 -2.190887451171875 218.54129028320312)"><path d="M0 0 C-0.73 72.85, -3.65 364.24, -4.38 437.08 M0 0 C-0.73 72.85, -3.65 364.24, -4.38 437.08" stroke="#000000" stroke-width="0.5" fill="none"></path></g></g><mask></mask><g stroke-linecap="round"><g transform="translate(100.9219970703125 10) rotate(0 199.91876220703125 221.82764434814453)"><path d="M0 0 C66.64 73.94, 333.2 369.71, 399.84 443.66 M0 0 C66.64 73.94, 333.2 369.71, 399.84 443.66" stroke="#000000" stroke-width="0.5" fill="none"></path></g></g><mask></mask><g stroke-linecap="round"><g transform="translate(96.54022216796875 454.75074768066406) rotate(0 201.56192016601562 0)"><path d="M0 0 C67.19 0, 335.94 0, 403.12 0 M0 0 C67.19 0, 335.94 0, 403.12 0" stroke="#000000" stroke-width="0.5" fill="none"></path></g></g><mask></mask><g transform="translate(100.9219970703125 424.07826232910156) rotate(0 10.406707763671875 15.88397216796875)" stroke="none"><path fill="#000000" d="M -0.33,-0.99 Q -0.33,-0.99 1.49,-1.81 3.32,-2.62 5.41,-3.22 7.51,-3.82 9.43,-4.09 11.35,-4.36 13.44,-4.48 15.53,-4.60 16.72,-4.67 17.91,-4.75 18.89,-4.75 19.86,-4.76 20.68,-4.23 21.50,-3.69 21.88,-2.55 22.26,-1.41 22.03,0.74 21.81,2.90 21.39,5.91 20.97,8.93 20.80,12.34 20.63,15.75 20.56,19.41 20.48,23.06 20.75,26.11 21.01,29.16 20.65,31.56 20.29,33.97 20.28,34.07 20.27,34.18 20.23,34.27 20.19,34.37 20.12,34.45 20.04,34.53 19.95,34.58 19.86,34.63 19.75,34.65 19.65,34.67 19.54,34.65 19.44,34.64 19.34,34.59 19.25,34.54 19.18,34.47 19.10,34.39 19.05,34.30 19.01,34.20 18.99,34.09 18.98,33.99 19.00,33.89 19.02,33.78 19.08,33.69 19.13,33.60 19.21,33.53 19.29,33.46 19.39,33.42 19.48,33.37 19.59,33.37 19.70,33.36 19.80,33.39 19.90,33.41 19.99,33.47 20.08,33.53 20.15,33.61 20.21,33.69 20.25,33.79 20.28,33.89 20.29,34.00 20.29,34.11 20.26,34.21 20.22,34.31 20.16,34.40 20.10,34.48 20.01,34.54 19.92,34.60 19.82,34.63 19.72,34.66 19.61,34.66 19.51,34.66 19.41,34.62 19.31,34.58 19.23,34.51 19.14,34.45 19.09,34.36 19.03,34.27 19.01,34.16 18.98,34.06 18.98,34.06 18.98,34.06 18.28,31.76 17.58,29.46 17.28,26.23 16.98,22.99 17.06,19.28 17.13,15.57 17.32,12.01 17.51,8.45 17.94,5.44 18.37,2.44 18.86,0.34 19.34,-1.75 18.69,-1.71 18.03,-1.68 16.86,-1.67 15.69,-1.65 13.71,-1.56 11.74,-1.47 10.02,-1.25 8.29,-1.02 6.26,-0.45 4.23,0.10 2.28,0.55 0.33,0.99 0.20,1.02 0.08,1.04 -0.04,1.04 -0.16,1.03 -0.29,1.00 -0.41,0.96 -0.52,0.90 -0.63,0.84 -0.72,0.75 -0.81,0.66 -0.88,0.55 -0.95,0.45 -0.99,0.33 -1.03,0.20 -1.04,0.08 -1.05,-0.04 -1.03,-0.16 -1.00,-0.29 -0.96,-0.40 -0.91,-0.52 -0.83,-0.62 -0.75,-0.72 -0.65,-0.80 -0.56,-0.88 -0.44,-0.94 -0.33,-0.99 -0.33,-0.99 L -0.33,-0.99 Z"></path></g><g transform="translate(264.143310546875 486.5186309814453) rotate(0 0 13.693084716796875)" stroke="none"><path fill="#000000" d="M 1.03,0.51 Q 1.03,0.51 1.11,1.30 1.19,2.10 1.15,3.89 1.11,5.69 1.37,8.34 1.63,11.00 1.74,13.82 1.85,16.64 2.15,19.30 2.45,21.97 2.05,24.18 1.65,26.38 1.64,26.49 1.63,26.59 1.59,26.69 1.55,26.79 1.49,26.87 1.42,26.95 1.33,27.01 1.23,27.06 1.13,27.08 1.03,27.10 0.92,27.09 0.81,27.08 0.72,27.04 0.62,26.99 0.55,26.92 0.47,26.84 0.42,26.75 0.37,26.66 0.35,26.55 0.34,26.45 0.36,26.34 0.37,26.24 0.42,26.14 0.47,26.05 0.55,25.98 0.63,25.90 0.72,25.86 0.82,25.82 0.93,25.80 1.03,25.79 1.14,25.82 1.24,25.84 1.33,25.90 1.42,25.95 1.49,26.03 1.56,26.11 1.60,26.21 1.64,26.31 1.64,26.42 1.65,26.52 1.62,26.63 1.59,26.73 1.53,26.82 1.47,26.90 1.38,26.97 1.30,27.03 1.20,27.06 1.10,27.10 0.99,27.10 0.88,27.10 0.78,27.06 0.68,27.03 0.60,26.96 0.51,26.90 0.46,26.81 0.40,26.72 0.37,26.62 0.34,26.52 0.34,26.52 0.34,26.52 -0.49,24.49 -1.32,22.47 -1.75,19.63 -2.18,16.80 -2.28,14.08 -2.39,11.37 -2.65,8.41 -2.91,5.45 -2.68,2.93 -2.45,0.41 -1.74,-0.04 -1.03,-0.51 -0.95,-0.63 -0.87,-0.74 -0.77,-0.84 -0.67,-0.93 -0.55,-1.00 -0.42,-1.06 -0.29,-1.10 -0.16,-1.14 -0.02,-1.14 0.11,-1.14 0.25,-1.11 0.38,-1.08 0.51,-1.02 0.63,-0.96 0.74,-0.87 0.84,-0.78 0.92,-0.66 1.00,-0.55 1.06,-0.42 1.11,-0.29 1.13,-0.16 1.15,-0.02 1.13,0.11 1.12,0.25 1.07,0.38 1.03,0.51 1.03,0.51 L 1.03,0.51 Z"></path></g><g transform="translate(335.34722900390625 189.6529998779297) rotate(0 13.693084716796875 19.1702880859375)" stroke="none"><path fill="#000000" d="M 0,-1.13 Q 0,-1.13 0.94,-1.47 1.88,-1.81 3.32,-1.81 4.76,-1.80 7.06,-0.41 9.36,0.97 11.02,3.35 12.68,5.72 13.43,9.15 14.17,12.58 14.13,15.07 14.08,17.56 12.73,21.05 11.39,24.55 9.48,27.35 7.58,30.14 5.44,32.32 3.31,34.51 1.72,35.76 0.14,37.00 -0.51,37.80 -1.17,38.60 -1.37,38.72 -1.56,38.83 -1.77,38.90 -1.99,38.97 -2.22,38.99 -2.44,39.00 -2.67,38.96 -2.89,38.93 -3.10,38.83 -3.31,38.74 -3.49,38.60 -3.67,38.47 -3.81,38.29 -3.95,38.11 -4.04,37.90 -4.14,37.70 -4.18,37.48 -4.22,37.25 -4.21,37.03 -4.20,36.80 -4.13,36.58 -4.07,36.36 -3.95,36.17 -3.83,35.97 -3.68,35.81 -3.52,35.65 -1.65,35.84 0.20,36.02 2.47,35.80 4.75,35.58 7.60,34.90 10.45,34.22 13.66,33.62 16.86,33.01 20.48,32.68 24.10,32.35 26.77,32.36 29.43,32.36 29.54,32.36 29.65,32.37 29.75,32.40 29.85,32.44 29.93,32.51 30.01,32.57 30.07,32.66 30.13,32.75 30.15,32.86 30.18,32.96 30.17,33.07 30.16,33.17 30.12,33.27 30.07,33.37 30.00,33.45 29.93,33.52 29.84,33.58 29.75,33.63 29.64,33.65 29.54,33.67 29.43,33.65 29.33,33.64 29.23,33.59 29.14,33.54 29.06,33.47 28.99,33.39 28.94,33.30 28.89,33.20 28.88,33.10 28.87,32.99 28.89,32.89 28.91,32.78 28.96,32.69 29.01,32.60 29.09,32.53 29.17,32.46 29.27,32.42 29.36,32.37 29.47,32.37 29.58,32.36 29.68,32.38 29.78,32.41 29.87,32.47 29.96,32.52 30.03,32.61 30.09,32.69 30.13,32.79 30.17,32.89 30.17,33.00 30.17,33.10 30.14,33.20 30.11,33.31 30.05,33.39 29.98,33.48 29.90,33.54 29.81,33.60 29.71,33.63 29.61,33.66 29.61,33.66 29.61,33.66 27.08,34.37 24.54,35.07 21.06,35.89 17.58,36.71 14.45,37.33 11.32,37.95 8.16,38.67 5.00,39.40 1.91,39.00 -1.17,38.60 -1.37,38.72 -1.56,38.83 -1.77,38.90 -1.99,38.97 -2.22,38.99 -2.44,39.00 -2.67,38.96 -2.89,38.93 -3.10,38.83 -3.31,38.74 -3.49,38.60 -3.67,38.47 -3.81,38.29 -3.95,38.11 -4.04,37.90 -4.14,37.70 -4.18,37.48 -4.22,37.25 -4.21,37.03 -4.20,36.80 -4.13,36.58 -4.07,36.36 -3.95,36.17 -3.84,35.97 -3.68,35.81 -3.52,35.65 -2.91,34.81 -2.30,33.97 -0.90,32.84 0.48,31.71 2.40,29.79 4.32,27.87 6.03,25.46 7.74,23.04 8.96,20.21 10.19,17.37 10.26,15.33 10.34,13.30 9.88,10.52 9.43,7.75 8.28,5.90 7.12,4.05 5.76,2.93 4.39,1.80 3.14,1.81 1.88,1.81 0.94,1.47 0,1.13 -0.13,1.11 -0.27,1.10 -0.39,1.05 -0.52,1.00 -0.63,0.92 -0.75,0.84 -0.84,0.74 -0.93,0.64 -0.99,0.52 -1.06,0.40 -1.09,0.26 -1.12,0.13 -1.12,-0.00 -1.12,-0.13 -1.09,-0.26 -1.06,-0.40 -0.99,-0.52 -0.93,-0.64 -0.84,-0.74 -0.75,-0.84 -0.63,-0.92 -0.52,-1.00 -0.39,-1.05 -0.27,-1.10 -0.13,-1.11 0.00,-1.13 0.00,-1.13 L 0,-1.13 Z"></path></g><g transform="translate(10 210.4664764404297) rotate(0 29.029296875 2.738616943359375)" stroke="none"><path fill="#000000" d="M 0.57,-0.42 Q 0.57,-0.42 1.98,0.48 3.40,1.38 4.83,3.91 6.26,6.43 7.82,9.72 9.37,13.01 10.67,16.33 11.97,19.66 13.13,22.62 14.29,25.58 15.07,27.17 15.85,28.76 15.91,28.97 15.96,29.19 15.97,29.41 15.97,29.63 15.92,29.85 15.87,30.07 15.77,30.27 15.67,30.47 15.52,30.63 15.38,30.80 15.19,30.93 15.01,31.06 14.81,31.14 14.60,31.23 14.38,31.26 14.16,31.29 13.93,31.26 13.71,31.24 13.50,31.16 13.29,31.09 13.11,30.96 12.92,30.84 12.77,30.67 12.62,30.51 12.52,30.31 12.41,30.12 12.76,28.58 13.10,27.04 12.89,24.80 12.68,22.56 12.31,18.66 11.94,14.75 11.78,10.19 11.61,5.63 11.54,1.17 11.48,-3.27 12.08,-8.12 12.69,-12.96 12.93,-15.88 13.17,-18.79 13.60,-20.82 14.03,-22.84 14.65,-23.94 15.27,-25.04 16.08,-25.67 16.90,-26.30 18.42,-26.59 19.94,-26.88 21.78,-26.95 23.62,-27.02 25.50,-27.35 27.38,-27.68 29.59,-27.83 31.80,-27.99 34.94,-28.05 38.09,-28.10 41.00,-28.09 43.90,-28.08 46.50,-27.71 49.10,-27.35 51.05,-27.04 52.99,-26.74 55.14,-25.85 57.28,-24.96 57.38,-24.92 57.48,-24.88 57.56,-24.81 57.64,-24.74 57.69,-24.65 57.74,-24.55 57.76,-24.45 57.78,-24.34 57.77,-24.24 57.75,-24.13 57.70,-24.04 57.66,-23.94 57.58,-23.87 57.51,-23.79 57.41,-23.75 57.32,-23.70 57.21,-23.68 57.10,-23.67 57.00,-23.69 56.90,-23.71 56.80,-23.76 56.71,-23.82 56.64,-23.89 56.57,-23.97 56.53,-24.07 56.49,-24.17 56.48,-24.28 56.47,-24.38 56.49,-24.48 56.52,-24.59 56.58,-24.68 56.63,-24.77 56.72,-24.83 56.80,-24.90 56.90,-24.94 57.00,-24.97 57.11,-24.97 57.21,-24.98 57.31,-24.95 57.42,-24.92 57.50,-24.85 57.59,-24.79 57.65,-24.70 57.71,-24.62 57.74,-24.52 57.77,-24.42 57.77,-24.31 57.77,-24.20 57.73,-24.10 57.69,-24.00 57.63,-23.92 57.56,-23.84 57.47,-23.78 57.38,-23.72 57.28,-23.70 57.18,-23.67 57.07,-23.68 56.96,-23.69 56.96,-23.69 56.96,-23.69 54.89,-23.85 52.81,-24.02 50.75,-23.98 48.69,-23.93 46.31,-24.17 43.93,-24.41 41.05,-24.35 38.17,-24.29 35.11,-24.22 32.06,-24.15 30.04,-24.02 28.02,-23.88 25.89,-23.53 23.76,-23.18 22.09,-23.13 20.41,-23.08 19.36,-23.03 18.31,-22.98 17.94,-22.47 17.57,-21.97 17.15,-20.23 16.73,-18.48 16.47,-15.50 16.20,-12.51 15.60,-7.92 15.01,-3.32 15.08,1.08 15.15,5.50 15.32,9.95 15.48,14.40 15.88,18.37 16.29,22.33 16.07,25.54 15.85,28.76 15.91,28.97 15.96,29.19 15.97,29.41 15.97,29.63 15.92,29.85 15.87,30.07 15.77,30.27 15.67,30.47 15.52,30.63 15.38,30.80 15.19,30.93 15.01,31.06 14.81,31.14 14.60,31.23 14.38,31.26 14.16,31.29 13.93,31.26 13.71,31.24 13.50,31.16 13.29,31.09 13.11,30.96 12.92,30.84 12.77,30.67 12.62,30.51 12.52,30.31 12.41,30.12 11.56,28.56 10.72,27.00 9.53,24.03 8.35,21.07 7.10,17.87 5.85,14.66 4.37,11.48 2.89,8.30 1.63,5.97 0.37,3.65 -0.09,2.03 -0.57,0.42 -0.61,0.35 -0.65,0.27 -0.67,0.19 -0.70,0.11 -0.70,0.02 -0.71,-0.05 -0.69,-0.14 -0.67,-0.22 -0.63,-0.30 -0.60,-0.38 -0.54,-0.44 -0.49,-0.51 -0.42,-0.56 -0.35,-0.61 -0.27,-0.65 -0.19,-0.68 -0.11,-0.69 -0.02,-0.71 0.05,-0.70 0.14,-0.69 0.22,-0.67 0.30,-0.64 0.37,-0.59 0.45,-0.55 0.51,-0.48 0.57,-0.42 0.57,-0.42 L 0.57,-0.42 Z"></path></g><g transform="translate(35.19525146484375 213.75279235839844) rotate(0 9.859039306640625 12.049911499023438)" stroke="none"><path fill="#000000" d="M -0.21,-0.84 Q -0.21,-0.84 0.95,-1.53 2.11,-2.23 3.91,-2.68 5.70,-3.14 7.72,-3.65 9.74,-4.17 11.53,-4.69 13.32,-5.22 15.40,-4.88 17.48,-4.54 18.11,-3.55 18.73,-2.56 18.57,-1.21 18.42,0.12 17.62,1.69 16.82,3.26 15.41,4.66 14.01,6.06 13.22,6.77 12.43,7.47 12.83,7.09 13.24,6.70 14.53,7.09 15.82,7.48 17.16,8.04 18.50,8.59 19.87,9.57 21.25,10.55 21.99,11.82 22.74,13.09 23.03,14.41 23.33,15.73 22.78,17.84 22.23,19.95 20.90,21.90 19.57,23.84 17.19,25.11 14.81,26.38 11.23,27.35 7.66,28.32 3.63,28.58 -0.38,28.84 -0.48,28.84 -0.59,28.84 -0.69,28.81 -0.79,28.77 -0.88,28.71 -0.96,28.65 -1.02,28.56 -1.08,28.47 -1.11,28.37 -1.14,28.27 -1.13,28.16 -1.13,28.05 -1.09,27.95 -1.05,27.86 -0.98,27.77 -0.91,27.69 -0.82,27.64 -0.73,27.58 -0.63,27.56 -0.52,27.54 -0.42,27.55 -0.31,27.56 -0.22,27.60 -0.12,27.65 -0.04,27.72 0.03,27.79 0.08,27.89 0.13,27.98 0.14,28.09 0.16,28.19 0.14,28.29 0.13,28.40 0.08,28.49 0.03,28.59 -0.04,28.66 -0.12,28.73 -0.21,28.78 -0.31,28.82 -0.41,28.84 -0.52,28.85 -0.62,28.83 -0.73,28.80 -0.82,28.75 -0.91,28.69 -0.98,28.61 -1.05,28.53 -1.09,28.43 -1.13,28.34 -1.13,28.23 -1.14,28.12 -1.11,28.02 -1.08,27.92 -1.02,27.83 -0.96,27.74 -0.88,27.68 -0.80,27.61 -0.70,27.58 -0.59,27.54 -0.59,27.54 -0.59,27.54 3.08,26.51 6.77,25.48 10.00,24.32 13.22,23.16 14.99,22.38 16.76,21.60 17.77,20.21 18.79,18.81 19.32,17.51 19.86,16.21 19.73,15.42 19.60,14.63 19.35,13.92 19.09,13.20 18.13,12.47 17.16,11.73 15.95,11.22 14.73,10.71 12.98,10.08 11.23,9.44 10.44,8.58 9.65,7.72 9.71,6.57 9.78,5.42 10.68,4.48 11.58,3.53 12.67,2.54 13.76,1.56 14.39,0.46 15.01,-0.64 15.32,-1.46 15.62,-2.29 14.91,-2.13 14.20,-1.97 12.38,-1.43 10.56,-0.90 8.53,-0.40 6.51,0.09 4.71,0.53 2.91,0.97 1.56,0.90 0.21,0.84 0.10,0.85 0.00,0.87 -0.10,0.86 -0.20,0.84 -0.30,0.81 -0.40,0.77 -0.48,0.71 -0.57,0.65 -0.64,0.57 -0.71,0.49 -0.76,0.40 -0.81,0.31 -0.84,0.21 -0.86,0.10 -0.86,0.00 -0.86,-0.10 -0.84,-0.20 -0.81,-0.30 -0.76,-0.40 -0.71,-0.49 -0.65,-0.57 -0.58,-0.65 -0.49,-0.71 -0.40,-0.77 -0.30,-0.80 -0.21,-0.84 -0.21,-0.84 L -0.21,-0.84 Z"></path></g><g transform="translate(425.1737060546875 372.5923614501953) rotate(0 -15.336212158203125 42.17462158203125)" stroke="none"><path fill="#000000" d="M 0.50,0.76 Q 0.50,0.76 -0.17,1.81 -0.85,2.87 -2.14,3.30 -3.42,3.74 -3.94,4.07 -4.45,4.40 -5.42,4.91 -6.39,5.41 -7.79,7.00 -9.20,8.59 -11.42,11.48 -13.64,14.37 -15.22,16.55 -16.81,18.73 -17.73,20.50 -18.65,22.26 -19.65,24.84 -20.65,27.42 -21.05,29.64 -21.45,31.87 -21.96,34.18 -22.47,36.50 -22.99,39.32 -23.52,42.15 -24.38,45.92 -25.24,49.70 -25.92,52.85 -26.59,55.99 -26.87,58.50 -27.14,61.00 -27.59,63.44 -28.03,65.88 -28.21,67.74 -28.38,69.60 -28.46,71.63 -28.53,73.66 -28.26,75.30 -27.99,76.95 -27.86,78.75 -27.73,80.56 -27.82,80.91 -27.91,81.26 -27.92,81.34 -27.92,81.42 -27.94,81.49 -27.97,81.57 -28.01,81.64 -28.05,81.71 -28.10,81.76 -28.16,81.82 -28.22,81.86 -28.29,81.90 -28.37,81.93 -28.44,81.95 -28.52,81.96 -28.60,81.96 -28.68,81.95 -28.76,81.93 -28.83,81.90 -28.90,81.87 -28.96,81.82 -29.03,81.77 -29.08,81.71 -29.13,81.65 -29.16,81.58 -29.19,81.51 -29.21,81.43 -29.22,81.35 -29.15,81.12 -29.08,80.90 -29.00,80.82 -28.92,80.75 -28.82,80.71 -28.73,80.67 -28.62,80.66 -28.52,80.65 -28.41,80.68 -28.31,80.70 -28.22,80.76 -28.13,80.81 -28.06,80.90 -28.00,80.98 -27.96,81.08 -27.92,81.18 -27.92,81.29 -27.92,81.39 -27.95,81.49 -27.98,81.59 -28.04,81.68 -28.10,81.77 -28.19,81.83 -28.27,81.89 -28.37,81.92 -28.48,81.96 -28.58,81.95 -28.69,81.95 -28.79,81.91 -28.89,81.88 -28.97,81.81 -29.05,81.75 -29.11,81.66 -29.17,81.57 -29.19,81.46 -29.22,81.36 -29.21,81.25 -29.20,81.15 -29.16,81.05 -29.12,80.95 -29.05,80.87 -28.98,80.79 -28.89,80.74 -28.79,80.69 -28.69,80.67 -28.59,80.65 -28.48,80.66 -28.38,80.68 -28.28,80.72 -28.19,80.77 -28.11,80.85 -28.03,80.92 -27.99,81.02 -27.94,81.11 -27.92,81.22 -27.91,81.32 -27.93,81.43 -27.95,81.53 -27.93,81.39 -27.91,81.26 -27.92,81.34 -27.92,81.42 -27.94,81.49 -27.97,81.57 -28.01,81.64 -28.05,81.71 -28.10,81.76 -28.16,81.82 -28.22,81.86 -28.29,81.90 -28.37,81.93 -28.44,81.95 -28.52,81.96 -28.60,81.96 -28.68,81.95 -28.76,81.93 -28.83,81.90 -28.90,81.87 -28.96,81.82 -29.03,81.77 -29.08,81.71 -29.13,81.65 -29.16,81.58 -29.19,81.51 -29.21,81.43 -29.22,81.35 -30.49,81.10 -31.76,80.84 -31.88,79.20 -31.99,77.56 -32.28,75.54 -32.57,73.52 -32.49,71.37 -32.40,69.22 -32.21,67.18 -32.01,65.14 -31.58,62.85 -31.15,60.55 -30.85,57.85 -30.55,55.15 -29.86,51.97 -29.18,48.80 -28.34,45.10 -27.49,41.41 -26.95,38.52 -26.42,35.62 -25.92,33.37 -25.42,31.13 -24.92,28.54 -24.42,25.96 -23.32,23.17 -22.22,20.37 -21.15,18.37 -20.08,16.37 -18.46,14.14 -16.85,11.91 -14.50,8.87 -12.16,5.84 -10.24,3.86 -8.32,1.87 -7.39,1.38 -6.45,0.89 -5.46,0.37 -4.47,-0.15 -3.69,-0.25 -2.92,-0.35 -1.71,-0.55 -0.50,-0.76 -0.40,-0.81 -0.31,-0.86 -0.20,-0.88 -0.09,-0.90 0.01,-0.90 0.12,-0.90 0.23,-0.87 0.33,-0.85 0.43,-0.79 0.53,-0.74 0.61,-0.66 0.69,-0.59 0.75,-0.50 0.81,-0.41 0.85,-0.30 0.89,-0.20 0.90,-0.09 0.91,0.01 0.89,0.12 0.88,0.23 0.84,0.33 0.80,0.43 0.73,0.52 0.67,0.61 0.59,0.68 0.50,0.76 0.50,0.76 L 0.50,0.76 Z"></path></g><g transform="translate(416.41015625 415.31471252441406) rotate(0 15.88397216796875 -8.215850830078125)" stroke="none"><path fill="#000000" d="M -0.89,-0.35 Q -0.89,-0.35 -0.59,-2.06 -0.28,-3.77 0.65,-5.48 1.59,-7.19 3.00,-8.94 4.41,-10.69 5.63,-12.05 6.85,-13.40 8.10,-14.38 9.35,-15.36 10.96,-16.16 12.57,-16.95 14.15,-17.01 15.74,-17.07 17.11,-16.73 18.48,-16.39 19.69,-15.92 20.90,-15.44 22.82,-14.95 24.74,-14.46 26.28,-14.45 27.82,-14.43 29.39,-15.44 30.95,-16.45 31.03,-16.52 31.11,-16.59 31.20,-16.64 31.30,-16.68 31.41,-16.69 31.51,-16.70 31.62,-16.68 31.72,-16.66 31.81,-16.60 31.90,-16.55 31.97,-16.47 32.04,-16.38 32.08,-16.29 32.11,-16.19 32.12,-16.08 32.13,-15.97 32.10,-15.87 32.07,-15.77 32.01,-15.68 31.95,-15.60 31.86,-15.53 31.78,-15.47 31.68,-15.43 31.58,-15.40 31.47,-15.40 31.36,-15.40 31.26,-15.44 31.16,-15.47 31.08,-15.54 30.99,-15.60 30.93,-15.69 30.88,-15.78 30.85,-15.88 30.82,-15.98 30.83,-16.09 30.83,-16.19 30.87,-16.29 30.91,-16.39 30.98,-16.47 31.05,-16.55 31.14,-16.61 31.23,-16.66 31.34,-16.68 31.44,-16.71 31.55,-16.69 31.65,-16.68 31.75,-16.64 31.84,-16.59 31.92,-16.52 32.00,-16.44 32.05,-16.35 32.10,-16.26 32.11,-16.15 32.13,-16.05 32.11,-15.94 32.09,-15.84 32.04,-15.74 31.99,-15.65 31.99,-15.65 31.99,-15.65 30.07,-13.60 28.15,-11.56 26.05,-11.34 23.96,-11.13 21.77,-11.65 19.59,-12.18 18.56,-12.61 17.53,-13.04 16.59,-13.35 15.65,-13.66 14.76,-13.76 13.87,-13.87 12.62,-13.29 11.38,-12.71 10.35,-11.93 9.33,-11.16 8.16,-9.87 7.00,-8.58 5.75,-7.07 4.51,-5.56 3.66,-4.04 2.80,-2.52 1.85,-1.08 0.89,0.35 0.83,0.45 0.78,0.55 0.70,0.64 0.62,0.73 0.52,0.79 0.43,0.85 0.32,0.89 0.21,0.93 0.09,0.94 -0.01,0.96 -0.13,0.94 -0.24,0.92 -0.35,0.88 -0.46,0.84 -0.55,0.77 -0.65,0.70 -0.72,0.61 -0.80,0.53 -0.85,0.42 -0.90,0.32 -0.93,0.21 -0.95,0.09 -0.95,-0.01 -0.95,-0.13 -0.92,-0.24 -0.89,-0.35 -0.89,-0.35 L -0.89,-0.35 Z"></path></g><g transform="translate(425.1737060546875 406.55116271972656) rotate(0 0.5477294921875 8.2158203125)" stroke="none"><path fill="#000000" d="M 0.79,0 Q 0.79,0 1.21,1.88 1.64,3.77 1.65,5.52 1.67,7.27 1.67,9.27 1.67,11.28 1.51,12.97 1.36,14.67 1.42,14.76 1.48,14.84 1.51,14.94 1.54,15.04 1.54,15.15 1.54,15.26 1.50,15.36 1.46,15.46 1.40,15.54 1.33,15.62 1.24,15.68 1.15,15.74 1.05,15.76 0.95,15.79 0.84,15.78 0.73,15.77 0.64,15.73 0.54,15.69 0.46,15.62 0.38,15.55 0.33,15.45 0.28,15.36 0.26,15.26 0.24,15.15 0.25,15.05 0.26,14.94 0.31,14.85 0.36,14.75 0.43,14.68 0.51,14.60 0.60,14.55 0.70,14.51 0.80,14.49 0.91,14.48 1.01,14.50 1.12,14.52 1.21,14.57 1.30,14.62 1.37,14.70 1.45,14.78 1.49,14.88 1.53,14.97 1.54,15.08 1.55,15.19 1.52,15.29 1.50,15.39 1.44,15.48 1.38,15.57 1.30,15.64 1.22,15.71 1.12,15.74 1.02,15.78 0.91,15.78 0.80,15.78 0.70,15.75 0.60,15.72 0.51,15.66 0.43,15.60 0.43,15.60 0.43,15.60 -0.62,13.44 -1.67,11.28 -1.67,9.27 -1.67,7.27 -1.65,5.52 -1.64,3.77 -1.21,1.88 -0.79,0 -0.78,-0.09 -0.77,-0.19 -0.73,-0.28 -0.70,-0.36 -0.64,-0.44 -0.59,-0.52 -0.52,-0.59 -0.45,-0.65 -0.36,-0.69 -0.28,-0.74 -0.18,-0.76 -0.09,-0.78 0.00,-0.78 0.09,-0.78 0.18,-0.76 0.28,-0.74 0.36,-0.69 0.45,-0.65 0.52,-0.59 0.59,-0.52 0.64,-0.44 0.70,-0.36 0.73,-0.27 0.77,-0.19 0.78,-0.09 0.79,0.00 0.79,0.00 L 0.79,0 Z"></path></g><g transform="translate(440.510009765625 399.9784698486328) rotate(0 1.64312744140625 9.8590087890625)" stroke="none"><path fill="#000000" d="M 0.95,0.31 Q 0.95,0.31 1.03,1.39 1.12,2.47 1.02,3.06 0.92,3.66 0.55,5.84 0.19,8.02 0.04,10.10 -0.10,12.19 0.24,14.38 0.59,16.58 0.55,16.74 0.52,16.91 0.45,17.07 0.38,17.23 0.27,17.36 0.16,17.49 0.02,17.60 -0.10,17.70 -0.26,17.77 -0.42,17.84 -0.59,17.87 -0.76,17.90 -0.93,17.89 -1.10,17.87 -1.26,17.82 -1.43,17.77 -1.57,17.68 -1.72,17.59 -1.84,17.46 -1.96,17.34 -2.05,17.19 -2.13,17.04 -2.18,16.88 -2.23,16.71 -2.24,16.54 -2.25,16.37 0.93,15.20 4.11,14.02 4.22,14.00 4.32,13.98 4.43,14.00 4.53,14.01 4.63,14.06 4.72,14.11 4.80,14.19 4.87,14.26 4.92,14.36 4.96,14.45 4.98,14.56 4.99,14.67 4.97,14.77 4.95,14.87 4.89,14.97 4.84,15.06 4.76,15.13 4.68,15.20 4.58,15.24 4.48,15.28 4.38,15.29 4.27,15.29 4.17,15.27 4.07,15.24 3.98,15.18 3.89,15.12 3.82,15.04 3.76,14.96 3.72,14.86 3.69,14.76 3.68,14.65 3.68,14.54 3.72,14.44 3.75,14.34 3.81,14.26 3.87,14.17 3.96,14.11 4.05,14.05 4.15,14.02 4.25,13.99 4.36,13.99 4.46,14.00 4.56,14.03 4.66,14.07 4.74,14.14 4.83,14.21 4.88,14.30 4.94,14.39 4.96,14.49 4.99,14.59 4.98,14.70 4.97,14.81 4.92,14.90 4.88,15.00 4.81,15.08 4.74,15.16 4.65,15.21 4.55,15.26 4.55,15.26 4.55,15.26 2.57,15.92 0.59,16.58 0.55,16.74 0.52,16.91 0.45,17.07 0.38,17.23 0.27,17.36 0.16,17.49 0.02,17.60 -0.10,17.70 -0.26,17.77 -0.42,17.84 -0.59,17.87 -0.76,17.90 -0.93,17.89 -1.10,17.87 -1.26,17.82 -1.43,17.77 -1.57,17.68 -1.72,17.59 -1.84,17.46 -1.96,17.34 -2.05,17.19 -2.13,17.04 -2.18,16.88 -2.23,16.71 -2.24,16.54 -2.25,16.37 -3.03,14.18 -3.81,11.99 -3.64,9.69 -3.47,7.40 -3.09,5.19 -2.71,2.98 -2.55,2.14 -2.38,1.30 -1.66,0.49 -0.95,-0.31 -0.90,-0.42 -0.84,-0.53 -0.77,-0.62 -0.69,-0.72 -0.59,-0.79 -0.50,-0.86 -0.39,-0.91 -0.27,-0.96 -0.16,-0.98 -0.04,-1.00 0.07,-0.99 0.20,-0.98 0.31,-0.94 0.42,-0.90 0.53,-0.84 0.63,-0.77 0.71,-0.69 0.80,-0.60 0.86,-0.49 0.92,-0.39 0.95,-0.27 0.99,-0.16 0.99,-0.04 1.00,0.08 0.97,0.19 0.95,0.31 0.95,0.31 L 0.95,0.31 Z"></path></g><g transform="translate(418.60107421875 441.6054229736328) rotate(0 22.45660400390625 -13.145355224609375)" stroke="none"><path fill="#000000" d="M -0.32,-0.64 Q -0.32,-0.64 0.76,-1.62 1.85,-2.59 4.59,-3.88 7.33,-5.18 10.58,-7.25 13.83,-9.32 17.78,-11.78 21.72,-14.25 26.25,-17.14 30.77,-20.03 34.00,-22.12 37.22,-24.21 40.30,-25.25 43.38,-26.29 43.49,-26.32 43.59,-26.35 43.69,-26.35 43.80,-26.34 43.90,-26.30 44.00,-26.27 44.08,-26.20 44.16,-26.13 44.22,-26.04 44.27,-25.95 44.30,-25.84 44.32,-25.74 44.31,-25.63 44.30,-25.53 44.25,-25.43 44.21,-25.34 44.14,-25.26 44.06,-25.18 43.97,-25.13 43.88,-25.08 43.77,-25.06 43.67,-25.04 43.56,-25.06 43.46,-25.08 43.36,-25.13 43.27,-25.17 43.20,-25.25 43.12,-25.33 43.08,-25.42 43.03,-25.52 43.02,-25.63 43.01,-25.73 43.03,-25.84 43.05,-25.94 43.11,-26.03 43.16,-26.12 43.24,-26.19 43.32,-26.26 43.42,-26.30 43.52,-26.34 43.62,-26.35 43.73,-26.35 43.83,-26.33 43.94,-26.30 44.02,-26.24 44.11,-26.18 44.18,-26.10 44.24,-26.01 44.28,-25.91 44.31,-25.81 44.31,-25.70 44.31,-25.60 44.28,-25.50 44.25,-25.40 44.18,-25.31 44.12,-25.23 44.03,-25.17 43.94,-25.11 43.94,-25.11 43.94,-25.11 41.38,-23.49 38.82,-21.88 35.68,-19.59 32.55,-17.29 28.05,-14.31 23.55,-11.32 19.59,-8.86 15.64,-6.40 12.15,-4.29 8.66,-2.18 5.92,-1.05 3.18,0.07 1.75,0.36 0.32,0.64 0.24,0.67 0.15,0.70 0.07,0.71 -0.01,0.72 -0.10,0.71 -0.18,0.69 -0.26,0.66 -0.34,0.63 -0.42,0.58 -0.49,0.53 -0.54,0.46 -0.60,0.39 -0.64,0.32 -0.68,0.24 -0.70,0.15 -0.72,0.07 -0.71,-0.01 -0.71,-0.10 -0.69,-0.18 -0.67,-0.27 -0.62,-0.34 -0.58,-0.42 -0.52,-0.48 -0.46,-0.55 -0.39,-0.59 -0.32,-0.64 -0.32,-0.64 L -0.32,-0.64 Z"></path></g><g transform="translate(450.3690185546875 430.6509552001953) rotate(0 2.19085693359375 9.311279296875)" stroke="none"><path fill="#000000" d="M -0.31,-0.95 Q -0.31,-0.95 0.54,-1.53 1.40,-2.11 2.93,-2.30 4.46,-2.49 6.04,-1.78 7.62,-1.06 7.91,-0.04 8.20,0.97 7.89,2.50 7.57,4.03 6.71,5.46 5.85,6.88 5.22,7.56 4.59,8.24 4.30,7.69 4.00,7.14 5.22,7.10 6.43,7.05 7.50,7.11 8.57,7.16 9.43,7.64 10.28,8.12 11.04,9.53 11.80,10.94 11.77,12.43 11.75,13.92 11.30,14.99 10.86,16.07 9.55,17.32 8.23,18.56 6.87,19.11 5.51,19.66 3.29,19.97 1.07,20.27 -2.14,19.35 -5.36,18.43 -5.46,18.39 -5.56,18.36 -5.64,18.29 -5.72,18.22 -5.78,18.13 -5.84,18.04 -5.86,17.94 -5.89,17.84 -5.88,17.73 -5.87,17.62 -5.83,17.53 -5.78,17.43 -5.71,17.35 -5.64,17.27 -5.55,17.22 -5.45,17.17 -5.35,17.15 -5.24,17.13 -5.14,17.15 -5.03,17.16 -4.94,17.21 -4.84,17.26 -4.77,17.33 -4.70,17.41 -4.65,17.50 -4.60,17.60 -4.59,17.70 -4.58,17.81 -4.60,17.91 -4.62,18.02 -4.67,18.11 -4.72,18.20 -4.80,18.27 -4.88,18.34 -4.98,18.38 -5.08,18.43 -5.18,18.43 -5.29,18.44 -5.39,18.42 -5.49,18.39 -5.58,18.33 -5.67,18.27 -5.74,18.19 -5.81,18.11 -5.84,18.01 -5.88,17.91 -5.88,17.80 -5.88,17.69 -5.85,17.59 -5.82,17.49 -5.76,17.41 -5.69,17.32 -5.61,17.26 -5.52,17.20 -5.42,17.17 -5.32,17.14 -5.21,17.14 -5.10,17.14 -5.10,17.14 -5.10,17.14 -2.26,17.43 0.57,17.71 2.43,17.04 4.29,16.36 5.12,16.10 5.95,15.83 6.84,15.16 7.72,14.48 7.99,14.00 8.27,13.52 8.45,12.83 8.63,12.14 8.38,11.21 8.14,10.28 7.17,10.28 6.21,10.28 5.19,10.20 4.16,10.12 3.29,9.74 2.43,9.36 2.04,8.12 1.66,6.88 2.30,5.94 2.94,5.00 3.58,4.10 4.22,3.19 4.46,1.94 4.69,0.70 3.53,0.77 2.37,0.85 1.34,0.90 0.31,0.95 0.19,0.97 0.08,0.99 -0.04,0.99 -0.16,0.98 -0.27,0.95 -0.39,0.92 -0.49,0.86 -0.60,0.80 -0.68,0.71 -0.77,0.63 -0.84,0.53 -0.90,0.42 -0.94,0.31 -0.98,0.20 -0.99,0.07 -1.00,-0.04 -0.98,-0.16 -0.96,-0.27 -0.91,-0.39 -0.86,-0.50 -0.79,-0.59 -0.72,-0.69 -0.62,-0.77 -0.53,-0.84 -0.42,-0.89 -0.31,-0.95 -0.31,-0.95 L -0.31,-0.95 Z"></path></g><g transform="translate(102.01739501953125 109.68550109863281) rotate(0 33.958831787109375 -3.2863311767578125)" stroke="none"><path fill="#000000" d="M 0.73,0 Q 0.73,0 1.24,0.53 1.75,1.07 2.25,1.52 2.75,1.98 3.81,2.82 4.87,3.65 6.27,4.67 7.68,5.69 9.36,6.34 11.05,7.00 12.90,7.27 14.76,7.54 17.64,7.35 20.53,7.17 23.58,6.48 26.63,5.80 29.40,4.60 32.18,3.41 34.66,2.26 37.14,1.12 39.45,0.00 41.76,-1.11 44.00,-2.22 46.23,-3.33 48.07,-4.41 49.91,-5.49 51.63,-6.57 53.36,-7.65 55.03,-8.74 56.71,-9.83 57.98,-10.87 59.24,-11.90 60.11,-12.66 60.97,-13.41 62.09,-14.14 63.21,-14.87 63.89,-15.40 64.58,-15.94 65.60,-15.91 66.62,-15.88 66.69,-15.92 66.76,-15.96 66.84,-15.99 66.91,-16.01 66.99,-16.02 67.07,-16.02 67.15,-16.01 67.22,-16.00 67.30,-15.96 67.37,-15.93 67.43,-15.88 67.49,-15.83 67.54,-15.77 67.59,-15.71 67.63,-15.64 67.66,-15.57 67.67,-15.49 67.69,-15.41 67.68,-15.33 67.68,-15.25 67.66,-15.18 67.63,-15.10 67.59,-15.03 67.55,-14.97 67.50,-14.91 67.44,-14.85 67.19,-14.79 66.93,-14.72 66.83,-14.75 66.73,-14.79 66.64,-14.85 66.56,-14.91 66.50,-15.00 66.44,-15.09 66.41,-15.19 66.38,-15.29 66.39,-15.40 66.39,-15.51 66.43,-15.60 66.47,-15.70 66.54,-15.79 66.61,-15.87 66.70,-15.92 66.79,-15.98 66.89,-16.00 66.99,-16.02 67.10,-16.01 67.21,-16.00 67.30,-15.96 67.40,-15.91 67.48,-15.84 67.55,-15.77 67.60,-15.67 67.65,-15.58 67.67,-15.47 67.69,-15.37 67.67,-15.27 67.66,-15.16 67.61,-15.07 67.56,-14.97 67.48,-14.90 67.40,-14.83 67.31,-14.78 67.21,-14.74 67.11,-14.72 67.00,-14.71 66.90,-14.73 66.79,-14.76 66.70,-14.81 66.61,-14.87 66.54,-14.95 66.47,-15.03 66.43,-15.13 66.39,-15.22 66.39,-15.33 66.38,-15.44 66.41,-15.54 66.44,-15.64 66.50,-15.73 66.55,-15.82 66.64,-15.88 66.72,-15.95 66.82,-15.98 66.92,-16.02 66.77,-15.95 66.62,-15.88 66.69,-15.92 66.76,-15.96 66.84,-15.99 66.91,-16.01 66.99,-16.02 67.07,-16.02 67.15,-16.01 67.22,-16.00 67.30,-15.96 67.37,-15.93 67.43,-15.88 67.49,-15.83 67.54,-15.77 67.59,-15.71 67.63,-15.64 67.66,-15.57 67.67,-15.49 67.69,-15.41 67.68,-15.33 67.68,-15.25 67.66,-15.18 67.63,-15.10 67.59,-15.03 67.55,-14.97 67.50,-14.91 67.44,-14.85 67.15,-13.92 66.86,-12.98 66.06,-12.34 65.25,-11.69 64.36,-11.13 63.47,-10.56 62.55,-9.76 61.64,-8.95 60.21,-7.79 58.78,-6.64 57.08,-5.53 55.38,-4.43 53.60,-3.32 51.81,-2.20 49.85,-1.08 47.89,0.03 45.63,1.13 43.38,2.24 41.04,3.36 38.70,4.49 36.16,5.66 33.63,6.83 30.53,8.13 27.44,9.42 24.09,10.15 20.75,10.87 17.47,11.04 14.20,11.20 11.94,10.82 9.67,10.44 7.60,9.57 5.52,8.70 4.01,7.60 2.49,6.49 1.13,5.31 -0.23,4.12 -0.99,2.78 -1.75,1.44 -1.24,0.72 -0.73,0 -0.72,-0.08 -0.70,-0.17 -0.67,-0.25 -0.64,-0.33 -0.59,-0.41 -0.54,-0.48 -0.48,-0.54 -0.41,-0.60 -0.33,-0.64 -0.25,-0.68 -0.17,-0.70 -0.08,-0.72 0.00,-0.72 0.08,-0.72 0.17,-0.70 0.25,-0.68 0.33,-0.64 0.41,-0.60 0.48,-0.54 0.54,-0.48 0.59,-0.41 0.64,-0.33 0.67,-0.25 0.71,-0.17 0.72,-0.08 0.73,0.00 0.73,0.00 L 0.73,0 Z"></path></g><g transform="translate(104.20831298828125 65.86769104003906) rotate(0 14.24078369140625 -7.120391845703125)" stroke="none"><path fill="#000000" d="M -0.61,-0.40 Q -0.61,-0.40 -0.31,-1.57 -0.02,-2.74 0.87,-4.08 1.77,-5.43 2.78,-6.95 3.79,-8.47 5.21,-10.14 6.64,-11.82 7.95,-12.91 9.25,-14.01 10.30,-14.54 11.36,-15.07 12.73,-15.00 14.11,-14.94 15.31,-14.53 16.51,-14.12 17.64,-13.63 18.76,-13.14 19.94,-12.95 21.13,-12.77 22.46,-12.90 23.80,-13.03 25.73,-13.75 27.65,-14.47 27.75,-14.52 27.85,-14.56 27.95,-14.57 28.06,-14.58 28.16,-14.56 28.26,-14.54 28.36,-14.48 28.45,-14.43 28.51,-14.35 28.58,-14.26 28.62,-14.17 28.66,-14.07 28.67,-13.96 28.67,-13.86 28.64,-13.75 28.62,-13.65 28.56,-13.56 28.50,-13.47 28.41,-13.41 28.33,-13.35 28.23,-13.31 28.12,-13.28 28.02,-13.28 27.91,-13.28 27.81,-13.31 27.71,-13.35 27.63,-13.41 27.54,-13.48 27.48,-13.57 27.42,-13.65 27.39,-13.76 27.37,-13.86 27.37,-13.96 27.38,-14.07 27.42,-14.17 27.46,-14.27 27.53,-14.35 27.60,-14.43 27.69,-14.48 27.78,-14.54 27.88,-14.56 27.99,-14.58 28.09,-14.57 28.20,-14.56 28.29,-14.52 28.39,-14.47 28.47,-14.40 28.54,-14.32 28.59,-14.23 28.64,-14.14 28.66,-14.03 28.68,-13.93 28.66,-13.82 28.64,-13.72 28.59,-13.62 28.54,-13.53 28.46,-13.46 28.39,-13.38 28.39,-13.38 28.39,-13.38 26.30,-11.88 24.22,-10.38 22.47,-10.05 20.73,-9.72 19.11,-9.94 17.49,-10.16 16.46,-10.62 15.43,-11.07 14.54,-11.41 13.65,-11.75 13.06,-11.95 12.47,-12.16 11.86,-11.85 11.25,-11.54 10.13,-10.65 9.01,-9.76 7.68,-8.26 6.35,-6.76 5.34,-5.24 4.33,-3.72 3.43,-2.38 2.54,-1.03 1.57,-0.31 0.61,0.40 0.55,0.47 0.49,0.54 0.42,0.59 0.35,0.64 0.27,0.68 0.18,0.71 0.10,0.72 0.01,0.73 -0.07,0.72 -0.16,0.71 -0.24,0.68 -0.33,0.65 -0.40,0.60 -0.48,0.56 -0.54,0.49 -0.60,0.42 -0.64,0.35 -0.68,0.27 -0.70,0.18 -0.73,0.10 -0.73,0.01 -0.73,-0.07 -0.71,-0.16 -0.69,-0.25 -0.65,-0.33 -0.61,-0.40 -0.61,-0.40 L -0.61,-0.40 Z"></path></g><g transform="translate(114.06732177734375 58.19960021972656) rotate(0 0 9.858993530273438)" stroke="none"><path fill="#000000" d="M 0.98,0 Q 0.98,0 1.34,1.25 1.69,2.51 1.71,4.63 1.74,6.74 1.42,9.32 1.11,11.90 0.89,13.84 0.68,15.77 1.02,16.26 1.37,16.75 1.35,16.83 1.34,16.91 1.30,16.98 1.27,17.05 1.22,17.12 1.17,17.18 1.11,17.23 1.05,17.27 0.97,17.31 0.90,17.34 0.82,17.35 0.75,17.37 0.67,17.36 0.59,17.35 0.51,17.33 0.44,17.31 0.37,17.27 0.30,17.22 0.25,17.17 0.19,17.11 0.15,17.04 0.11,16.98 0.09,16.90 0.06,16.82 0.06,16.74 0.05,16.67 0.28,16.38 0.51,16.09 0.61,16.07 0.72,16.05 0.82,16.07 0.93,16.09 1.02,16.14 1.11,16.19 1.18,16.27 1.26,16.35 1.30,16.44 1.34,16.54 1.35,16.65 1.37,16.75 1.34,16.86 1.32,16.96 1.26,17.05 1.21,17.14 1.12,17.21 1.04,17.28 0.94,17.31 0.84,17.35 0.74,17.36 0.63,17.36 0.53,17.33 0.43,17.30 0.34,17.24 0.25,17.18 0.19,17.10 0.13,17.01 0.09,16.91 0.06,16.81 0.06,16.70 0.06,16.60 0.10,16.50 0.13,16.40 0.20,16.31 0.26,16.23 0.35,16.17 0.44,16.11 0.54,16.08 0.65,16.06 0.75,16.06 0.86,16.07 0.96,16.11 1.05,16.15 1.13,16.22 1.21,16.29 1.27,16.38 1.32,16.47 1.34,16.58 1.37,16.68 1.35,16.79 1.34,16.89 1.30,16.99 1.25,17.08 1.18,17.16 1.10,17.24 1.23,17.00 1.37,16.75 1.35,16.83 1.34,16.91 1.30,16.98 1.27,17.05 1.22,17.12 1.17,17.18 1.11,17.23 1.05,17.27 0.97,17.31 0.90,17.34 0.82,17.35 0.75,17.37 0.67,17.36 0.59,17.35 0.51,17.33 0.44,17.31 0.37,17.27 0.30,17.22 0.25,17.17 0.19,17.11 0.15,17.04 0.11,16.98 0.09,16.90 0.06,16.82 0.06,16.74 0.05,16.67 -1.20,16.11 -2.47,15.56 -2.42,13.51 -2.37,11.46 -2.05,9.09 -1.74,6.73 -1.71,4.62 -1.69,2.51 -1.34,1.25 -0.98,0 -0.97,-0.11 -0.96,-0.23 -0.91,-0.34 -0.87,-0.46 -0.80,-0.55 -0.74,-0.65 -0.65,-0.73 -0.56,-0.81 -0.45,-0.87 -0.35,-0.92 -0.23,-0.95 -0.11,-0.98 0.00,-0.98 0.11,-0.98 0.23,-0.95 0.35,-0.92 0.45,-0.87 0.56,-0.81 0.65,-0.73 0.74,-0.65 0.80,-0.55 0.87,-0.45 0.91,-0.34 0.96,-0.23 0.97,-0.11 0.98,0.00 0.98,0.00 L 0.98,0 Z"></path></g><g transform="translate(122.83087158203125 52.72236633300781) rotate(0 3.83404541015625 12.049896240234375)" stroke="none"><path fill="#000000" d="M 0.85,-0.21 Q 0.85,-0.21 1.49,0.96 2.12,2.14 2.29,3.74 2.45,5.34 2.19,9.55 1.93,13.76 2.08,16.34 2.23,18.92 2.31,20.04 2.39,21.16 3.16,21.41 3.92,21.66 5.31,21.09 6.70,20.53 6.80,20.50 6.90,20.47 7.01,20.48 7.12,20.48 7.21,20.52 7.31,20.56 7.39,20.63 7.47,20.70 7.53,20.79 7.58,20.88 7.60,20.99 7.63,21.09 7.61,21.20 7.60,21.30 7.56,21.40 7.51,21.50 7.44,21.57 7.36,21.65 7.27,21.70 7.17,21.75 7.07,21.76 6.96,21.78 6.86,21.76 6.76,21.74 6.66,21.69 6.57,21.64 6.50,21.57 6.42,21.49 6.38,21.39 6.34,21.29 6.32,21.19 6.31,21.08 6.34,20.98 6.36,20.88 6.42,20.78 6.47,20.69 6.55,20.63 6.64,20.56 6.73,20.52 6.83,20.48 6.94,20.48 7.05,20.47 7.15,20.50 7.25,20.53 7.34,20.59 7.42,20.65 7.49,20.73 7.55,20.82 7.59,20.92 7.62,21.02 7.62,21.13 7.62,21.23 7.58,21.33 7.55,21.44 7.48,21.52 7.42,21.60 7.33,21.66 7.24,21.72 7.24,21.72 7.24,21.72 5.48,22.58 3.72,23.44 2.26,23.08 0.79,22.73 0.07,20.94 -0.65,19.15 -0.91,16.36 -1.17,13.57 -0.91,9.59 -0.66,5.61 -0.76,4.25 -0.86,2.89 -0.86,1.55 -0.85,0.21 -0.87,0.10 -0.88,0.00 -0.87,-0.10 -0.86,-0.20 -0.82,-0.30 -0.78,-0.40 -0.72,-0.49 -0.66,-0.58 -0.58,-0.65 -0.50,-0.72 -0.41,-0.77 -0.31,-0.82 -0.21,-0.85 -0.10,-0.87 -0.00,-0.87 0.10,-0.87 0.20,-0.85 0.31,-0.82 0.40,-0.77 0.50,-0.73 0.58,-0.65 0.66,-0.58 0.72,-0.50 0.78,-0.41 0.82,-0.31 0.85,-0.21 0.85,-0.21 L 0.85,-0.21 Z"></path></g><g transform="translate(112.97186279296875 88.87205505371094) rotate(0 19.1702880859375 -11.502182006835938)" stroke="none"><path fill="#000000" d="M -0.41,-0.62 Q -0.41,-0.62 0.33,-1.53 1.09,-2.45 2.69,-3.69 4.30,-4.92 8.44,-8.00 12.59,-11.07 16.27,-13.61 19.96,-16.16 23.50,-18.15 27.04,-20.14 29.55,-21.23 32.07,-22.32 34.59,-22.82 37.11,-23.31 37.21,-23.33 37.32,-23.34 37.42,-23.32 37.53,-23.30 37.62,-23.25 37.71,-23.20 37.78,-23.12 37.85,-23.04 37.89,-22.94 37.93,-22.84 37.94,-22.73 37.95,-22.63 37.92,-22.53 37.90,-22.42 37.84,-22.33 37.78,-22.24 37.70,-22.18 37.62,-22.11 37.52,-22.08 37.42,-22.04 37.31,-22.04 37.21,-22.03 37.10,-22.07 37.00,-22.10 36.92,-22.16 36.83,-22.22 36.77,-22.31 36.71,-22.40 36.68,-22.50 36.65,-22.60 36.65,-22.71 36.65,-22.81 36.69,-22.91 36.73,-23.01 36.79,-23.09 36.86,-23.18 36.95,-23.23 37.04,-23.29 37.14,-23.31 37.25,-23.34 37.35,-23.33 37.46,-23.32 37.56,-23.28 37.65,-23.24 37.73,-23.17 37.81,-23.09 37.86,-23.00 37.91,-22.91 37.93,-22.80 37.95,-22.70 37.94,-22.59 37.92,-22.49 37.88,-22.39 37.83,-22.30 37.75,-22.22 37.68,-22.15 37.58,-22.10 37.49,-22.06 37.49,-22.06 37.49,-22.06 35.29,-21.13 33.10,-20.19 30.79,-18.93 28.49,-17.67 25.14,-15.61 21.79,-13.54 18.15,-10.98 14.51,-8.43 10.31,-5.43 6.12,-2.44 4.40,-1.25 2.68,-0.06 1.55,0.27 0.41,0.62 0.33,0.66 0.25,0.70 0.16,0.72 0.07,0.74 -0.01,0.74 -0.10,0.74 -0.18,0.71 -0.27,0.69 -0.35,0.65 -0.43,0.60 -0.50,0.54 -0.56,0.48 -0.61,0.41 -0.66,0.33 -0.69,0.25 -0.72,0.16 -0.73,0.07 -0.74,-0.01 -0.73,-0.10 -0.72,-0.19 -0.68,-0.27 -0.65,-0.35 -0.60,-0.43 -0.55,-0.50 -0.48,-0.56 -0.41,-0.62 -0.41,-0.62 L -0.41,-0.62 Z"></path></g><g transform="translate(140.35797119140625 82.29939270019531) rotate(0 -7.120391845703125 12.597610473632812)" stroke="none"><path fill="#000000" d="M 0,0.93 Q 0,0.93 -0.91,1.33 -1.83,1.72 -3.12,2.42 -4.40,3.13 -5.24,3.83 -6.08,4.52 -7.25,6.82 -8.42,9.12 -9.26,11.64 -10.11,14.17 -10.80,16.52 -11.50,18.87 -11.82,20.31 -12.13,21.76 -11.33,22.05 -10.52,22.34 -9.49,21.58 -8.47,20.83 -7.73,19.72 -7.00,18.61 -6.35,17.25 -5.71,15.89 -5.71,15.09 -5.72,14.30 -6.49,13.85 -7.26,13.40 -8.05,13.18 -8.84,12.95 -9.42,12.76 -9.99,12.57 -11.32,12.60 -12.66,12.62 -12.76,12.63 -12.87,12.63 -12.97,12.60 -13.07,12.56 -13.16,12.50 -13.24,12.44 -13.30,12.35 -13.36,12.26 -13.39,12.16 -13.42,12.06 -13.42,11.95 -13.42,11.85 -13.38,11.75 -13.34,11.65 -13.27,11.57 -13.21,11.48 -13.12,11.43 -13.03,11.37 -12.92,11.35 -12.82,11.32 -12.71,11.33 -12.61,11.34 -12.51,11.39 -12.41,11.43 -12.33,11.50 -12.26,11.57 -12.21,11.67 -12.15,11.76 -12.14,11.86 -12.12,11.97 -12.13,12.07 -12.15,12.18 -12.20,12.27 -12.24,12.37 -12.32,12.44 -12.40,12.52 -12.49,12.56 -12.59,12.61 -12.69,12.62 -12.80,12.63 -12.90,12.61 -13.01,12.59 -13.10,12.54 -13.19,12.49 -13.26,12.41 -13.33,12.33 -13.37,12.23 -13.41,12.13 -13.42,12.02 -13.43,11.92 -13.40,11.82 -13.37,11.71 -13.31,11.62 -13.26,11.53 -13.17,11.47 -13.09,11.40 -12.99,11.37 -12.89,11.33 -12.89,11.33 -12.89,11.33 -11.28,10.56 -9.68,9.78 -8.74,9.90 -7.81,10.02 -6.53,10.52 -5.25,11.03 -4.12,12.29 -3.00,13.55 -2.97,15.29 -2.95,17.04 -3.72,18.70 -4.49,20.35 -5.61,21.89 -6.73,23.43 -8.57,24.47 -10.42,25.51 -12.05,25.20 -13.68,24.89 -14.57,23.23 -15.46,21.57 -15.18,19.72 -14.90,17.88 -14.21,15.44 -13.51,13.01 -12.55,10.22 -11.59,7.42 -9.99,4.61 -8.40,1.80 -7.18,0.86 -5.97,-0.07 -5.00,-0.53 -4.03,-0.99 -2.99,-1.36 -1.94,-1.72 -0.97,-1.33 0,-0.93 0.11,-0.92 0.22,-0.90 0.32,-0.86 0.43,-0.82 0.52,-0.76 0.62,-0.70 0.69,-0.61 0.77,-0.53 0.82,-0.43 0.87,-0.33 0.90,-0.22 0.92,-0.11 0.92,0.00 0.92,0.11 0.90,0.22 0.87,0.33 0.82,0.43 0.77,0.53 0.69,0.61 0.62,0.70 0.52,0.76 0.43,0.82 0.32,0.86 0.22,0.90 0.11,0.92 -0.00,0.93 -0.00,0.93 L 0,0.93 Z"></path></g></svg>