<svg version="1.1" xmlns="http://www.w3.org/2000/svg" viewBox="0 0 633.7882797955956 604.3224736912267" width="633.7882797955956" height="604.3224736912267" filter="invert(93%) hue-rotate(180deg)" class="excalidraw-svg"><!-- svg-source:excalidraw --><metadata></metadata><defs><style class="style-fonts">
      </style></defs><rect x="0" y="0" width="633.7882797955956" height="604.3224736912267" fill="transparent"></rect><g stroke-linecap="round"><g transform="translate(316.6846611009096 19.308855907572706) rotate(0 0 287.0247344182616)"><path d="M-0.45 -0.73 C-0.45 94.74, -1.11 478.05, -0.97 573.67 M1.52 1.5 C1.97 97.07, 1.51 479.63, 1.24 575.01" stroke="#1e1e1e" stroke-width="2" fill="none"></path></g></g><mask></mask><g stroke-linecap="round"><g transform="translate(623.0608019907075 306.3335903258342) rotate(0 -306.3761408897979 0)"><path d="M-0.97 -0.38 C-102.95 -0.43, -510.52 -1.23, -612.33 -1.03 M0.73 -1.62 C-101.34 -1.49, -510.92 -0.13, -613.06 -0.04" stroke="#1e1e1e" stroke-width="2" fill="none"></path></g></g><mask></mask><g stroke-linecap="round"><g transform="translate(157.62706869475778 10) rotate(0 110.63995361328125 144.59876251220703)"><path d="M0 0 C19.72 48.2, 81.43 286.64, 118.31 289.2 C155.19 291.75, 204.12 60.98, 221.28 15.34 M0 0 C19.72 48.2, 81.43 286.64, 118.31 289.2 C155.19 291.75, 204.12 60.98, 221.28 15.34" stroke="#000000" stroke-width="0.5" fill="none"></path></g></g><mask></mask><g stroke-linecap="round"><g transform="translate(189.26307182334781 110.3549022061411) rotate(0 83.4668574108525 -0.48177824447546413)"><path d="M0 0 C27.82 -0.16, 139.11 -0.8, 166.93 -0.96" stroke="#1971c2" stroke-width="1" fill="none" stroke-dasharray="8 8.5"></path></g></g><mask></mask><g stroke-linecap="round"><g transform="translate(356.99810140960153 108.59004211425781) rotate(0 0 96.399169921875)"><path d="M0 0 C0 32.13, 0 160.67, 0 192.8" stroke="#1971c2" stroke-width="1" fill="none" stroke-dasharray="8 8.5"></path></g></g><mask></mask><g stroke-linecap="round"><g transform="translate(189.39495199553903 117.35362243652344) rotate(0 0.5477294921875 93.11283874511719)"><path d="M0 0 C0.18 31.04, 0.91 155.19, 1.1 186.23" stroke="#1971c2" stroke-width="1" fill="none" stroke-dasharray="8 8.5"></path></g></g><mask></mask><g transform="translate(186.24391519477953 108.88404755059685) rotate(0 4.8078216175940724 3.205219992537579)" stroke="none"><path fill="#e03131" d="M -0.53,-0.53 Q -0.53,-0.53 0.19,-1.16 0.92,-1.79 1.70,-1.45 2.48,-1.12 3.28,-0.44 4.07,0.24 4.85,0.98 5.63,1.73 6.43,2.50 7.22,3.28 8.75,4.84 10.29,6.41 10.37,6.47 10.46,6.53 10.52,6.62 10.58,6.71 10.61,6.81 10.64,6.91 10.64,7.02 10.64,7.12 10.60,7.22 10.56,7.32 10.50,7.41 10.43,7.49 10.34,7.54 10.25,7.60 10.15,7.63 10.04,7.65 9.94,7.64 9.83,7.63 9.73,7.59 9.64,7.55 9.56,7.48 9.48,7.41 9.43,7.31 9.38,7.22 9.36,7.12 9.34,7.01 9.35,6.91 9.37,6.80 9.41,6.71 9.46,6.61 9.54,6.54 9.61,6.46 9.71,6.41 9.80,6.37 9.91,6.35 10.02,6.34 10.12,6.36 10.22,6.38 10.32,6.43 10.41,6.49 10.48,6.57 10.55,6.65 10.59,6.74 10.63,6.84 10.64,6.95 10.65,7.05 10.62,7.16 10.60,7.26 10.54,7.35 10.48,7.44 10.40,7.50 10.31,7.57 10.21,7.61 10.11,7.64 10.01,7.64 9.90,7.65 9.80,7.61 9.70,7.58 9.70,7.58 9.70,7.58 7.29,6.62 4.88,5.66 4.11,4.90 3.33,4.14 2.60,3.44 1.87,2.74 0.93,1.80 -0.00,0.86 0.26,0.70 0.53,0.53 0.46,0.58 0.39,0.64 0.30,0.68 0.22,0.71 0.13,0.73 0.04,0.75 -0.04,0.74 -0.13,0.74 -0.22,0.71 -0.30,0.68 -0.38,0.64 -0.46,0.59 -0.52,0.52 -0.59,0.46 -0.64,0.38 -0.68,0.30 -0.71,0.22 -0.74,0.13 -0.74,0.04 -0.75,-0.04 -0.73,-0.13 -0.71,-0.22 -0.68,-0.30 -0.64,-0.39 -0.58,-0.46 -0.53,-0.53 -0.53,-0.53 L -0.53,-0.53 Z"></path></g><g transform="translate(185.4426004302308 114.49317277112323) rotate(0 5.208478999868419 -4.8078271984022365)" stroke="none"><path fill="#e03131" d="M -0.62,-0.62 Q -0.62,-0.62 -0.18,-1.56 0.25,-2.50 1.22,-3.50 2.19,-4.51 3.30,-5.61 4.42,-6.71 6.77,-8.05 9.12,-9.38 9.21,-9.44 9.30,-9.49 9.40,-9.51 9.51,-9.54 9.61,-9.52 9.72,-9.51 9.81,-9.47 9.91,-9.42 9.99,-9.35 10.06,-9.27 10.11,-9.18 10.16,-9.08 10.18,-8.98 10.19,-8.87 10.18,-8.77 10.16,-8.67 10.11,-8.57 10.06,-8.48 9.98,-8.41 9.90,-8.33 9.80,-8.29 9.71,-8.25 9.60,-8.24 9.50,-8.22 9.39,-8.25 9.29,-8.27 9.20,-8.33 9.11,-8.38 9.04,-8.46 8.97,-8.55 8.93,-8.65 8.89,-8.74 8.89,-8.85 8.88,-8.96 8.91,-9.06 8.94,-9.16 9.00,-9.25 9.06,-9.34 9.15,-9.40 9.23,-9.46 9.34,-9.50 9.44,-9.53 9.54,-9.53 9.65,-9.53 9.75,-9.49 9.85,-9.46 9.93,-9.39 10.02,-9.33 10.08,-9.24 10.14,-9.15 10.16,-9.05 10.19,-8.95 10.18,-8.84 10.18,-8.73 10.14,-8.63 10.10,-8.54 10.03,-8.46 9.96,-8.38 9.96,-8.38 9.96,-8.38 8.33,-6.40 6.71,-4.42 5.61,-3.30 4.51,-2.19 3.50,-1.22 2.50,-0.25 1.56,0.18 0.62,0.62 0.54,0.69 0.45,0.75 0.35,0.79 0.26,0.84 0.15,0.86 0.05,0.88 -0.05,0.87 -0.15,0.86 -0.26,0.83 -0.36,0.80 -0.45,0.75 -0.54,0.69 -0.61,0.61 -0.69,0.54 -0.75,0.45 -0.80,0.36 -0.83,0.26 -0.86,0.15 -0.87,0.05 -0.88,-0.05 -0.86,-0.15 -0.84,-0.26 -0.79,-0.35 -0.75,-0.45 -0.68,-0.54 -0.62,-0.62 -0.62,-0.62 L -0.62,-0.62 Z"></path></g><g transform="translate(352.1139730724859 108.08274394766451) rotate(0 5.609136382142793 2.4039108087970362)" stroke="none"><path fill="#e03131" d="M 0,-0.97 Q 0,-0.97 0.96,-1.31 1.92,-1.65 3.97,-0.51 6.02,0.62 7.01,1.34 8.00,2.06 9.44,3.33 10.88,4.60 10.95,4.67 11.03,4.74 11.08,4.84 11.13,4.93 11.15,5.03 11.17,5.14 11.16,5.24 11.14,5.35 11.09,5.44 11.05,5.54 10.97,5.61 10.89,5.69 10.80,5.73 10.70,5.78 10.60,5.79 10.49,5.80 10.39,5.78 10.28,5.76 10.19,5.71 10.10,5.66 10.03,5.58 9.96,5.50 9.92,5.40 9.88,5.30 9.87,5.19 9.86,5.09 9.89,4.99 9.92,4.88 9.97,4.79 10.03,4.71 10.12,4.64 10.20,4.57 10.30,4.54 10.40,4.50 10.51,4.50 10.61,4.50 10.71,4.53 10.81,4.56 10.90,4.63 10.99,4.69 11.05,4.78 11.11,4.86 11.14,4.96 11.17,5.07 11.16,5.17 11.16,5.28 11.12,5.38 11.08,5.48 11.02,5.56 10.95,5.64 10.86,5.70 10.77,5.75 10.67,5.78 10.56,5.80 10.46,5.79 10.35,5.78 10.25,5.74 10.16,5.70 10.16,5.70 10.16,5.70 8.43,4.90 6.71,4.10 5.73,3.58 4.75,3.05 3.25,2.35 1.75,1.65 0.87,1.31 0,0.97 -0.11,0.95 -0.23,0.94 -0.34,0.90 -0.45,0.86 -0.54,0.79 -0.64,0.72 -0.72,0.64 -0.80,0.55 -0.85,0.44 -0.90,0.34 -0.93,0.23 -0.96,0.11 -0.96,-0.00 -0.96,-0.11 -0.93,-0.23 -0.90,-0.34 -0.85,-0.44 -0.80,-0.55 -0.72,-0.64 -0.64,-0.72 -0.54,-0.79 -0.45,-0.86 -0.34,-0.90 -0.23,-0.94 -0.11,-0.95 0.00,-0.97 0.00,-0.97 L 0,-0.97 Z"></path></g><g transform="translate(352.91528783703467 112.08926196232622) rotate(0 6.009793764417168 -6.009782602800769)" stroke="none"><path fill="#e03131" d="M -0.72,-0.48 Q -0.72,-0.48 -0.51,-1.34 -0.30,-2.19 0.34,-3.08 0.99,-3.96 1.98,-5.01 2.97,-6.06 4.71,-7.33 6.46,-8.59 8.59,-10.14 10.71,-11.70 10.80,-11.76 10.89,-11.82 10.99,-11.85 11.10,-11.87 11.20,-11.87 11.31,-11.86 11.41,-11.82 11.51,-11.78 11.59,-11.71 11.67,-11.64 11.72,-11.55 11.77,-11.46 11.80,-11.35 11.82,-11.25 11.81,-11.14 11.79,-11.04 11.75,-10.94 11.70,-10.85 11.63,-10.77 11.56,-10.69 11.46,-10.64 11.37,-10.60 11.26,-10.58 11.16,-10.56 11.05,-10.58 10.95,-10.60 10.85,-10.65 10.76,-10.70 10.69,-10.78 10.62,-10.86 10.57,-10.95 10.53,-11.05 10.52,-11.15 10.51,-11.26 10.53,-11.36 10.55,-11.47 10.61,-11.56 10.67,-11.65 10.75,-11.72 10.83,-11.78 10.93,-11.82 11.03,-11.86 11.13,-11.87 11.24,-11.87 11.34,-11.84 11.44,-11.81 11.53,-11.75 11.62,-11.69 11.68,-11.61 11.75,-11.52 11.78,-11.42 11.81,-11.32 11.81,-11.21 11.81,-11.11 11.78,-11.01 11.74,-10.91 11.68,-10.82 11.61,-10.74 11.61,-10.74 11.61,-10.74 9.88,-8.69 8.14,-6.64 6.76,-5.20 5.37,-3.76 4.42,-2.78 3.47,-1.81 2.80,-1.18 2.14,-0.56 1.43,-0.04 0.72,0.48 0.65,0.56 0.58,0.64 0.50,0.70 0.41,0.76 0.32,0.80 0.22,0.84 0.11,0.85 0.01,0.87 -0.09,0.86 -0.19,0.85 -0.29,0.81 -0.39,0.78 -0.48,0.72 -0.56,0.66 -0.63,0.58 -0.71,0.50 -0.76,0.41 -0.81,0.32 -0.83,0.22 -0.86,0.11 -0.86,0.01 -0.86,-0.09 -0.84,-0.19 -0.82,-0.29 -0.77,-0.39 -0.72,-0.48 -0.72,-0.48 L -0.72,-0.48 Z"></path></g></svg>