<svg version="1.1" xmlns="http://www.w3.org/2000/svg" viewBox="0 0 1268.130622518298 601.7795153971945" width="1268.130622518298" height="601.7795153971945" filter="invert(93%) hue-rotate(180deg)" class="excalidraw-svg"><!-- svg-source:excalidraw --><metadata></metadata><defs><style class="style-fonts">
      </style></defs><rect x="0" y="0" width="1268.130622518298" height="601.7795153971945" fill="transparent"></rect><g stroke-linecap="round"><g transform="translate(317.00198211287386 15.940889672916569) rotate(0 0 287.0247344182616)"><path d="M-0.6 1.12 C-0.61 96.64, -0.37 478.01, -0.37 573.3 M1.29 0.66 C1.12 96.31, -1.01 478.97, -1.51 574.45" stroke="#1e1e1e" stroke-width="2" fill="none"></path></g></g><mask></mask><g stroke-linecap="round"><g transform="translate(623.3781230026718 302.96562409117814) rotate(0 -306.3761408897979 0)"><path d="M-0.37 -0.75 C-102.5 -1.13, -511.31 -1.22, -613.38 -1.18 M1.63 1.48 C-100.05 1.71, -508.46 -0.11, -610.99 -0.26" stroke="#1e1e1e" stroke-width="2" fill="none"></path></g></g><mask></mask><g stroke-linecap="round" transform="translate(67.38169063353223 98.73106384277344) rotate(0 251.40464782714844 224.01852416992188)"><path d="M502.81 224.02 C502.81 228.71, 502.64 233.41, 502.31 238.08 C501.98 242.76, 501.49 247.44, 500.83 252.1 C500.17 256.75, 499.34 261.39, 498.36 266 C497.37 270.6, 496.22 275.19, 494.91 279.73 C493.6 284.27, 492.13 288.78, 490.5 293.24 C488.88 297.7, 487.09 302.13, 485.15 306.49 C483.22 310.84, 481.12 315.16, 478.88 319.4 C476.64 323.64, 474.25 327.83, 471.71 331.94 C469.18 336.05, 466.49 340.09, 463.67 344.05 C460.85 348.01, 457.89 351.9, 454.8 355.69 C451.7 359.49, 448.47 363.2, 445.12 366.81 C441.76 370.43, 438.27 373.95, 434.67 377.37 C431.07 380.79, 427.34 384.11, 423.5 387.32 C419.67 390.53, 415.71 393.64, 411.66 396.63 C407.6 399.62, 403.43 402.5, 399.18 405.25 C394.92 408.01, 390.56 410.65, 386.11 413.16 C381.67 415.68, 377.13 418.07, 372.52 420.33 C367.91 422.59, 363.21 424.72, 358.45 426.72 C353.69 428.71, 348.85 430.58, 343.95 432.31 C339.06 434.03, 334.1 435.62, 329.09 437.07 C324.09 438.52, 319.02 439.83, 313.93 441 C308.83 442.17, 303.68 443.19, 298.51 444.07 C293.34 444.95, 288.13 445.68, 282.91 446.27 C277.69 446.86, 272.44 447.3, 267.19 447.59 C261.94 447.89, 256.67 448.04, 251.4 448.04 C246.14 448.04, 240.87 447.89, 235.62 447.59 C230.37 447.3, 225.12 446.86, 219.9 446.27 C214.67 445.68, 209.46 444.95, 204.3 444.07 C199.13 443.19, 193.98 442.17, 188.88 441 C183.79 439.83, 178.72 438.52, 173.72 437.07 C168.71 435.62, 163.75 434.03, 158.86 432.31 C153.96 430.58, 149.12 428.71, 144.36 426.72 C139.6 424.72, 134.9 422.59, 130.29 420.33 C125.68 418.07, 121.14 415.68, 116.7 413.16 C112.25 410.65, 107.89 408.01, 103.63 405.25 C99.38 402.5, 95.21 399.62, 91.15 396.63 C87.1 393.64, 83.14 390.53, 79.31 387.32 C75.47 384.11, 71.74 380.79, 68.14 377.37 C64.54 373.95, 61.05 370.43, 57.69 366.81 C54.34 363.2, 51.11 359.49, 48.01 355.69 C44.92 351.9, 41.96 348.01, 39.14 344.05 C36.32 340.09, 33.63 336.05, 31.1 331.94 C28.56 327.83, 26.17 323.64, 23.93 319.4 C21.69 315.16, 19.59 310.84, 17.65 306.49 C15.72 302.13, 13.93 297.7, 12.3 293.24 C10.68 288.78, 9.21 284.27, 7.9 279.73 C6.59 275.19, 5.44 270.6, 4.45 266 C3.47 261.39, 2.64 256.75, 1.98 252.1 C1.32 247.44, 0.83 242.76, 0.5 238.08 C0.17 233.41, 0 228.71, 0 224.02 C0 219.33, 0.17 214.63, 0.5 209.95 C0.83 205.27, 1.32 200.59, 1.98 195.94 C2.64 191.29, 3.47 186.65, 4.45 182.04 C5.44 177.44, 6.59 172.85, 7.9 168.31 C9.21 163.77, 10.68 159.25, 12.3 154.79 C13.93 150.33, 15.72 145.91, 17.65 141.55 C19.59 137.19, 21.69 132.88, 23.93 128.64 C26.17 124.39, 28.56 120.21, 31.1 116.1 C33.63 111.99, 36.32 107.94, 39.14 103.98 C41.96 100.02, 44.92 96.14, 48.01 92.34 C51.11 88.55, 54.34 84.84, 57.69 81.22 C61.05 77.61, 64.54 74.09, 68.14 70.67 C71.74 67.25, 75.47 63.93, 79.31 60.72 C83.14 57.51, 87.1 54.4, 91.15 51.41 C95.21 48.42, 99.38 45.54, 103.63 42.78 C107.89 40.03, 112.25 37.39, 116.7 34.87 C121.14 32.36, 125.68 29.97, 130.29 27.71 C134.9 25.45, 139.6 23.32, 144.36 21.32 C149.12 19.32, 153.96 17.46, 158.86 15.73 C163.75 14.01, 168.71 12.41, 173.72 10.96 C178.72 9.52, 183.79 8.2, 188.88 7.04 C193.98 5.87, 199.13 4.85, 204.3 3.97 C209.46 3.09, 214.67 2.35, 219.9 1.77 C225.12 1.18, 230.37 0.74, 235.62 0.44 C240.87 0.15, 246.14 0, 251.4 0 C256.67 0, 261.94 0.15, 267.19 0.44 C272.44 0.74, 277.69 1.18, 282.91 1.77 C288.13 2.35, 293.34 3.09, 298.51 3.97 C303.68 4.85, 308.83 5.87, 313.93 7.04 C319.02 8.2, 324.09 9.52, 329.09 10.96 C334.1 12.41, 339.06 14.01, 343.95 15.73 C348.85 17.46, 353.69 19.32, 358.45 21.32 C363.21 23.32, 367.91 25.45, 372.52 27.71 C377.13 29.97, 381.67 32.36, 386.11 34.87 C390.56 37.39, 394.92 40.03, 399.18 42.78 C403.43 45.54, 407.6 48.42, 411.66 51.41 C415.71 54.4, 419.67 57.51, 423.5 60.72 C427.34 63.93, 431.07 67.25, 434.67 70.67 C438.27 74.09, 441.76 77.61, 445.12 81.22 C448.47 84.84, 451.7 88.55, 454.8 92.34 C457.89 96.14, 460.85 100.02, 463.67 103.98 C466.49 107.94, 469.18 111.99, 471.71 116.1 C474.25 120.21, 476.64 124.39, 478.88 128.64 C481.12 132.88, 483.22 137.19, 485.15 141.55 C487.09 145.91, 488.88 150.33, 490.5 154.79 C492.13 159.25, 493.6 163.77, 494.91 168.31 C496.22 172.85, 497.37 177.44, 498.36 182.04 C499.34 186.65, 500.17 191.29, 500.83 195.94 C501.49 200.59, 501.98 205.27, 502.31 209.95 C502.64 214.63, 502.73 221.67, 502.81 224.02 C502.89 226.36, 502.89 221.67, 502.81 224.02" stroke="#000000" stroke-width="0.5" fill="none"></path></g><g stroke-linecap="round"><g transform="translate(417.9241405847041 115.16273498535156) rotate(0 0.5477294921875 209.2300262451172)"><path d="M0 0 C0.18 69.74, 0.91 348.72, 1.1 418.46" stroke="#1971c2" stroke-width="1" fill="none" stroke-dasharray="8 8.5"></path></g></g><mask></mask><g stroke-linecap="round"><g transform="translate(420.11499751829786 119.54454040527344) rotate(0 -99.68548583984375 -1.0954437255859375)"><path d="M0 0 C-33.23 -0.37, -166.14 -1.83, -199.37 -2.19" stroke="#1971c2" stroke-width="1" fill="none" stroke-dasharray="8 8.5"></path></g></g><mask></mask><g stroke-linecap="round"><g transform="translate(420.11499751829786 528.1455535888672) rotate(0 -101.87637329101562 -1.643157958984375)"><path d="M0 0 C-33.96 -0.55, -169.79 -2.74, -203.75 -3.29" stroke="#1971c2" stroke-width="1" fill="none" stroke-dasharray="8 8.5"></path></g></g><mask></mask><g stroke-linecap="round"><g transform="translate(226.2212597253291 116.25819396972656) rotate(0 -7.668121337890625 205.9436798095703)"><path d="M0 0 C-2.56 68.65, -12.78 343.24, -15.34 411.89" stroke="#1971c2" stroke-width="1" fill="none" stroke-dasharray="8 8.5"></path></g></g><mask></mask><g transform="translate(220.74402583861036 112.97184753417969) rotate(0 4.38177490234375 6.0249481201171875)" stroke="none"><path fill="#e03131" d="M 0.78,-0.31 Q 0.78,-0.31 1.77,1.11 2.75,2.54 3.53,4.11 4.31,5.67 5.15,6.98 5.99,8.30 7.34,9.77 8.69,11.25 8.78,11.31 8.86,11.38 8.91,11.47 8.97,11.56 8.99,11.67 9.02,11.77 9.01,11.88 9.00,11.98 8.95,12.08 8.91,12.17 8.84,12.25 8.76,12.33 8.67,12.38 8.58,12.43 8.47,12.45 8.37,12.47 8.26,12.45 8.16,12.44 8.06,12.39 7.97,12.34 7.90,12.26 7.82,12.19 7.78,12.09 7.73,11.99 7.72,11.89 7.71,11.78 7.73,11.68 7.75,11.57 7.80,11.48 7.86,11.39 7.94,11.32 8.02,11.25 8.12,11.21 8.21,11.17 8.32,11.16 8.43,11.16 8.53,11.19 8.63,11.21 8.72,11.27 8.81,11.33 8.87,11.41 8.94,11.50 8.97,11.60 9.01,11.70 9.01,11.81 9.01,11.91 8.98,12.01 8.94,12.11 8.88,12.20 8.82,12.28 8.73,12.34 8.64,12.40 8.54,12.43 8.44,12.46 8.33,12.46 8.23,12.45 8.13,12.42 8.03,12.38 8.03,12.38 8.03,12.38 6.09,11.04 4.15,9.71 2.97,8.39 1.79,7.07 0.78,5.41 -0.23,3.74 -0.51,2.03 -0.78,0.31 -0.81,0.21 -0.84,0.11 -0.84,0.01 -0.84,-0.08 -0.82,-0.18 -0.79,-0.28 -0.75,-0.37 -0.70,-0.46 -0.64,-0.54 -0.57,-0.62 -0.49,-0.68 -0.40,-0.74 -0.31,-0.78 -0.21,-0.82 -0.11,-0.83 -0.01,-0.84 0.08,-0.83 0.18,-0.82 0.28,-0.79 0.38,-0.75 0.46,-0.70 0.55,-0.64 0.62,-0.57 0.69,-0.49 0.73,-0.40 0.78,-0.31 0.78,-0.31 L 0.78,-0.31 Z"></path></g><g transform="translate(218.55310786986036 122.83085632324219) rotate(0 6.02496337890625 -5.4772186279296875)" stroke="none"><path fill="#e03131" d="M -0.77,-0.38 Q -0.77,-0.38 -0.34,-1.74 0.09,-3.10 1.01,-4.63 1.93,-6.17 3.39,-7.54 4.86,-8.91 7.74,-9.96 10.62,-11.01 10.72,-11.04 10.83,-11.07 10.93,-11.06 11.04,-11.06 11.14,-11.02 11.24,-10.98 11.32,-10.91 11.40,-10.84 11.45,-10.75 11.51,-10.66 11.53,-10.56 11.55,-10.45 11.54,-10.35 11.53,-10.24 11.49,-10.14 11.44,-10.05 11.37,-9.97 11.30,-9.89 11.20,-9.84 11.11,-9.79 11.01,-9.78 10.90,-9.76 10.80,-9.78 10.69,-9.79 10.60,-9.84 10.50,-9.89 10.43,-9.97 10.36,-10.05 10.31,-10.14 10.27,-10.24 10.26,-10.34 10.24,-10.45 10.27,-10.55 10.29,-10.66 10.34,-10.75 10.40,-10.84 10.48,-10.91 10.56,-10.98 10.66,-11.02 10.76,-11.06 10.86,-11.06 10.97,-11.07 11.07,-11.04 11.17,-11.01 11.26,-10.95 11.35,-10.89 11.41,-10.81 11.48,-10.72 11.51,-10.62 11.55,-10.52 11.55,-10.42 11.55,-10.31 11.51,-10.21 11.48,-10.11 11.42,-10.02 11.35,-9.94 11.26,-9.88 11.18,-9.82 11.18,-9.82 11.18,-9.82 8.86,-8.45 6.55,-7.07 5.36,-5.93 4.17,-4.78 3.29,-3.36 2.42,-1.93 1.59,-0.77 0.77,0.38 0.72,0.47 0.66,0.56 0.58,0.63 0.50,0.70 0.41,0.75 0.32,0.80 0.22,0.83 0.12,0.86 0.01,0.86 -0.08,0.86 -0.19,0.84 -0.29,0.81 -0.38,0.77 -0.48,0.72 -0.56,0.65 -0.64,0.58 -0.70,0.50 -0.76,0.41 -0.80,0.32 -0.84,0.22 -0.85,0.12 -0.87,0.01 -0.85,-0.08 -0.84,-0.19 -0.81,-0.29 -0.77,-0.38 -0.77,-0.38 L -0.77,-0.38 Z"></path></g><g transform="translate(414.63782466673536 111.87641906738281) rotate(0 3.28631591796875 2.190887451171875)" stroke="none"><path fill="#e03131" d="M 0.54,-0.54 Q 0.54,-0.54 1.34,-0.08 2.15,0.36 2.67,0.99 3.19,1.62 4.64,2.53 6.10,3.43 6.19,3.49 6.27,3.55 6.34,3.64 6.40,3.72 6.43,3.82 6.47,3.92 6.47,4.03 6.47,4.13 6.43,4.23 6.40,4.34 6.33,4.42 6.27,4.50 6.18,4.56 6.09,4.62 5.99,4.65 5.88,4.68 5.78,4.67 5.67,4.66 5.57,4.62 5.48,4.58 5.40,4.51 5.31,4.44 5.26,4.35 5.21,4.26 5.18,4.16 5.16,4.05 5.17,3.95 5.19,3.84 5.23,3.75 5.28,3.65 5.35,3.57 5.43,3.50 5.52,3.45 5.61,3.40 5.72,3.38 5.82,3.37 5.93,3.38 6.03,3.40 6.13,3.45 6.22,3.50 6.29,3.58 6.36,3.66 6.41,3.76 6.45,3.85 6.46,3.96 6.47,4.06 6.45,4.17 6.43,4.27 6.37,4.36 6.32,4.45 6.23,4.52 6.15,4.59 6.05,4.63 5.95,4.67 5.85,4.67 5.74,4.68 5.64,4.65 5.54,4.62 5.54,4.62 5.54,4.62 3.60,3.92 1.65,3.22 1.01,2.68 0.36,2.15 -0.08,1.34 -0.54,0.54 -0.59,0.46 -0.65,0.39 -0.69,0.31 -0.73,0.22 -0.74,0.13 -0.76,0.04 -0.75,-0.04 -0.75,-0.13 -0.72,-0.22 -0.69,-0.31 -0.64,-0.39 -0.60,-0.47 -0.53,-0.53 -0.47,-0.60 -0.39,-0.64 -0.31,-0.69 -0.22,-0.72 -0.13,-0.75 -0.04,-0.75 0.04,-0.76 0.13,-0.74 0.22,-0.73 0.31,-0.69 0.39,-0.65 0.46,-0.59 0.54,-0.54 0.54,-0.54 L 0.54,-0.54 Z"></path></g><g transform="translate(416.8286816003291 119.54454040527344) rotate(0 4.92950439453125 -5.47723388671875)" stroke="none"><path fill="#e03131" d="M -0.78,-0.39 Q -0.78,-0.39 -0.33,-1.74 0.11,-3.09 0.73,-4.02 1.34,-4.96 2.62,-6.56 3.89,-8.15 6.23,-9.51 8.57,-10.86 8.66,-10.90 8.76,-10.95 8.87,-10.96 8.97,-10.97 9.08,-10.95 9.18,-10.93 9.27,-10.88 9.36,-10.82 9.43,-10.74 9.50,-10.66 9.54,-10.56 9.58,-10.47 9.59,-10.36 9.60,-10.25 9.57,-10.15 9.54,-10.05 9.48,-9.96 9.42,-9.87 9.34,-9.81 9.25,-9.74 9.15,-9.71 9.05,-9.67 8.95,-9.67 8.84,-9.67 8.74,-9.70 8.64,-9.74 8.55,-9.80 8.47,-9.86 8.41,-9.95 8.35,-10.04 8.32,-10.14 8.29,-10.24 8.29,-10.35 8.30,-10.45 8.34,-10.55 8.38,-10.65 8.44,-10.73 8.51,-10.82 8.60,-10.87 8.69,-10.93 8.80,-10.95 8.90,-10.97 9.01,-10.96 9.11,-10.95 9.21,-10.91 9.31,-10.87 9.38,-10.79 9.46,-10.72 9.51,-10.63 9.56,-10.53 9.58,-10.43 9.60,-10.32 9.58,-10.22 9.57,-10.11 9.52,-10.02 9.47,-9.93 9.39,-9.85 9.32,-9.78 9.32,-9.78 9.32,-9.78 7.52,-8.27 5.72,-6.76 4.61,-5.12 3.50,-3.47 2.95,-2.71 2.40,-1.94 1.59,-0.77 0.78,0.39 0.72,0.47 0.66,0.56 0.58,0.63 0.51,0.71 0.41,0.76 0.32,0.81 0.22,0.83 0.12,0.86 0.01,0.86 -0.08,0.87 -0.19,0.84 -0.29,0.82 -0.38,0.77 -0.48,0.72 -0.56,0.66 -0.64,0.59 -0.70,0.50 -0.76,0.42 -0.80,0.32 -0.84,0.22 -0.85,0.12 -0.87,0.01 -0.86,-0.08 -0.85,-0.19 -0.81,-0.29 -0.78,-0.39 -0.78,-0.39 L -0.78,-0.39 Z"></path></g><g transform="translate(419.0195995690791 521.5729217529297) rotate(0 2.73858642578125 4.92950439453125)" stroke="none"><path fill="#e03131" d="M 0.74,-0.44 Q 0.74,-0.44 2.02,0.92 3.30,2.29 4.24,3.53 5.18,4.77 5.98,6.91 6.78,9.04 6.83,9.13 6.88,9.23 6.89,9.33 6.91,9.44 6.89,9.54 6.87,9.64 6.82,9.74 6.77,9.83 6.69,9.90 6.61,9.97 6.51,10.02 6.42,10.06 6.31,10.07 6.21,10.08 6.10,10.05 6.00,10.03 5.91,9.97 5.82,9.92 5.75,9.84 5.68,9.75 5.65,9.65 5.61,9.55 5.61,9.45 5.60,9.34 5.63,9.24 5.66,9.14 5.72,9.05 5.78,8.96 5.87,8.90 5.96,8.84 6.06,8.81 6.16,8.77 6.26,8.78 6.37,8.78 6.47,8.81 6.57,8.85 6.65,8.92 6.74,8.98 6.80,9.07 6.85,9.16 6.88,9.26 6.91,9.37 6.90,9.47 6.89,9.58 6.85,9.67 6.81,9.77 6.74,9.85 6.67,9.93 6.58,9.99 6.49,10.04 6.38,10.06 6.28,10.08 6.17,10.07 6.07,10.05 5.97,10.01 5.87,9.96 5.80,9.89 5.72,9.81 5.72,9.81 5.72,9.81 4.22,8.26 2.72,6.71 1.59,5.35 0.46,4.00 -0.13,2.22 -0.74,0.44 -0.78,0.34 -0.82,0.25 -0.84,0.15 -0.86,0.04 -0.85,-0.05 -0.85,-0.15 -0.81,-0.25 -0.78,-0.35 -0.73,-0.44 -0.67,-0.53 -0.60,-0.60 -0.53,-0.68 -0.44,-0.73 -0.35,-0.79 -0.25,-0.82 -0.15,-0.85 -0.04,-0.85 0.05,-0.86 0.15,-0.84 0.26,-0.82 0.35,-0.78 0.45,-0.73 0.53,-0.67 0.61,-0.60 0.67,-0.52 0.74,-0.44 0.74,-0.44 L 0.74,-0.44 Z"></path></g><g transform="translate(420.11499751829786 532.5273284912109) rotate(0 4.381805419921875 -3.83404541015625)" stroke="none"><path fill="#e03131" d="M -0.78,-0.46 Q -0.78,-0.46 -0.00,-2.15 0.77,-3.83 1.95,-4.90 3.14,-5.97 5.36,-6.88 7.58,-7.78 7.68,-7.82 7.78,-7.85 7.89,-7.85 8.00,-7.85 8.10,-7.82 8.20,-7.78 8.28,-7.72 8.37,-7.65 8.43,-7.57 8.49,-7.48 8.51,-7.38 8.54,-7.27 8.54,-7.17 8.53,-7.06 8.49,-6.96 8.45,-6.86 8.38,-6.78 8.31,-6.70 8.22,-6.65 8.13,-6.59 8.03,-6.57 7.93,-6.55 7.82,-6.56 7.71,-6.57 7.62,-6.61 7.52,-6.66 7.44,-6.73 7.37,-6.81 7.32,-6.90 7.27,-6.99 7.25,-7.10 7.23,-7.20 7.25,-7.31 7.27,-7.41 7.32,-7.51 7.37,-7.60 7.44,-7.67 7.52,-7.75 7.62,-7.79 7.71,-7.84 7.82,-7.85 7.93,-7.86 8.03,-7.84 8.13,-7.81 8.22,-7.76 8.31,-7.70 8.38,-7.62 8.45,-7.54 8.49,-7.44 8.53,-7.34 8.54,-7.24 8.54,-7.13 8.51,-7.03 8.49,-6.93 8.43,-6.84 8.37,-6.75 8.28,-6.69 8.20,-6.62 8.20,-6.62 8.20,-6.62 6.48,-5.44 4.75,-4.25 3.88,-3.35 3.00,-2.46 1.89,-0.99 0.78,0.46 0.71,0.55 0.64,0.64 0.56,0.71 0.47,0.77 0.37,0.82 0.27,0.87 0.16,0.89 0.05,0.91 -0.05,0.90 -0.16,0.89 -0.26,0.86 -0.37,0.83 -0.46,0.77 -0.56,0.72 -0.63,0.64 -0.71,0.56 -0.77,0.47 -0.83,0.37 -0.86,0.27 -0.89,0.16 -0.90,0.05 -0.91,-0.05 -0.89,-0.16 -0.87,-0.26 -0.82,-0.36 -0.78,-0.46 -0.78,-0.46 L -0.78,-0.46 Z"></path></g><g transform="translate(201.02600826048536 519.3820037841797) rotate(0 5.477203369140625 6.02496337890625)" stroke="none"><path fill="#e03131" d="M 0.59,-0.79 Q 0.59,-0.79 1.96,0.00 3.34,0.79 4.81,2.23 6.29,3.68 7.47,5.00 8.64,6.32 9.81,8.56 10.98,10.80 11.02,10.90 11.06,11.00 11.06,11.10 11.07,11.21 11.04,11.31 11.01,11.41 10.95,11.50 10.89,11.59 10.80,11.65 10.72,11.71 10.61,11.75 10.51,11.78 10.41,11.78 10.30,11.78 10.20,11.74 10.10,11.71 10.02,11.64 9.93,11.58 9.87,11.49 9.82,11.40 9.79,11.30 9.76,11.19 9.77,11.09 9.78,10.98 9.82,10.88 9.86,10.78 9.93,10.70 10.00,10.62 10.09,10.57 10.18,10.52 10.28,10.50 10.39,10.47 10.49,10.49 10.60,10.50 10.70,10.55 10.79,10.59 10.87,10.67 10.94,10.74 10.99,10.83 11.04,10.93 11.06,11.03 11.07,11.14 11.05,11.24 11.03,11.35 10.98,11.44 10.93,11.53 10.85,11.61 10.78,11.68 10.68,11.72 10.58,11.77 10.48,11.78 10.37,11.79 10.27,11.76 10.16,11.74 10.07,11.68 9.98,11.63 9.92,11.54 9.85,11.46 9.85,11.46 9.85,11.46 8.60,9.55 7.35,7.64 6.00,6.56 4.66,5.48 3.18,4.23 1.69,2.98 0.55,1.88 -0.59,0.79 -0.68,0.70 -0.76,0.62 -0.83,0.52 -0.89,0.42 -0.93,0.31 -0.96,0.19 -0.97,0.07 -0.98,-0.03 -0.97,-0.15 -0.95,-0.27 -0.90,-0.38 -0.85,-0.49 -0.78,-0.58 -0.71,-0.68 -0.62,-0.76 -0.52,-0.83 -0.42,-0.88 -0.31,-0.93 -0.19,-0.96 -0.08,-0.98 0.03,-0.98 0.15,-0.97 0.27,-0.94 0.38,-0.91 0.49,-0.85 0.59,-0.79 0.59,-0.79 L 0.59,-0.79 Z"></path></g><g transform="translate(205.4077831628291 527.0501556396484) rotate(0 6.572662353515625 -6.02496337890625)" stroke="none"><path fill="#e03131" d="M -0.74,-0.49 Q -0.74,-0.49 -0.29,-1.55 0.16,-2.62 0.76,-3.40 1.36,-4.18 3.26,-6.07 5.16,-7.96 6.72,-9.00 8.29,-10.04 10.15,-11.07 12.01,-12.10 12.11,-12.14 12.21,-12.19 12.32,-12.20 12.42,-12.20 12.52,-12.18 12.63,-12.15 12.72,-12.10 12.81,-12.04 12.87,-11.96 12.94,-11.87 12.98,-11.77 13.01,-11.67 13.02,-11.57 13.02,-11.46 12.99,-11.36 12.96,-11.26 12.90,-11.17 12.84,-11.09 12.75,-11.02 12.66,-10.96 12.56,-10.93 12.46,-10.90 12.35,-10.90 12.25,-10.90 12.15,-10.94 12.05,-10.98 11.96,-11.04 11.88,-11.11 11.82,-11.20 11.77,-11.29 11.74,-11.39 11.72,-11.49 11.72,-11.60 11.73,-11.71 11.77,-11.80 11.82,-11.90 11.89,-11.98 11.96,-12.06 12.05,-12.11 12.14,-12.17 12.25,-12.19 12.35,-12.21 12.46,-12.19 12.56,-12.18 12.66,-12.13 12.75,-12.08 12.83,-12.01 12.90,-11.93 12.95,-11.84 13.00,-11.74 13.01,-11.64 13.03,-11.53 13.01,-11.43 12.99,-11.32 12.93,-11.23 12.88,-11.14 12.80,-11.07 12.72,-11.00 12.72,-11.00 12.72,-11.00 11.09,-9.78 9.46,-8.56 8.21,-7.38 6.97,-6.20 5.22,-4.33 3.48,-2.46 2.91,-1.81 2.35,-1.15 1.55,-0.33 0.74,0.49 0.67,0.57 0.60,0.66 0.51,0.72 0.42,0.78 0.32,0.82 0.22,0.86 0.12,0.88 0.01,0.89 -0.09,0.88 -0.20,0.87 -0.30,0.83 -0.40,0.79 -0.49,0.73 -0.58,0.67 -0.65,0.60 -0.72,0.52 -0.78,0.42 -0.83,0.33 -0.85,0.22 -0.88,0.12 -0.88,0.01 -0.89,-0.09 -0.86,-0.19 -0.84,-0.30 -0.79,-0.40 -0.74,-0.49 -0.74,-0.49 L -0.74,-0.49 Z"></path></g><g stroke-linecap="round"><g transform="translate(945.7536084883404 17.91384828930734) rotate(0 0 287.0247344182616)"><path d="M0.85 0.72 C0.95 96.19, -0.2 477.4, -0.31 572.92 M-0.16 0.06 C-0.18 95.62, -1.37 478.04, -1.42 573.87" stroke="#1e1e1e" stroke-width="2" fill="none"></path></g></g><mask></mask><g stroke-linecap="round"><g transform="translate(1252.1297493781385 304.93858270756897) rotate(0 -306.3761408897979 0)"><path d="M-0.31 -1.13 C-102.54 -1.29, -510.4 -0.41, -612.55 -0.22 M1.73 0.89 C-100.72 0.86, -510.73 1.13, -613.39 1.21" stroke="#1e1e1e" stroke-width="2" fill="none"></path></g></g><mask></mask><g stroke-linecap="round"><g transform="translate(703.8353344323604 584.0132598876953) rotate(0 173.6280517578125 -284.8157272338867)"><path d="M0 0 C57.88 -94.94, 289.38 -474.69, 347.26 -569.63 M0 0 C57.88 -94.94, 289.38 -474.69, 347.26 -569.63" stroke="#1971c2" stroke-width="0.5" fill="none"></path></g></g><mask></mask><g stroke-linecap="round"><g stroke-opacity="0.7" fill-opacity="0.7" transform="translate(1053.2823559167355 14.381790161132812) rotate(0 -72.29937744140625 285.91117095947266)" fill-rule="evenodd"><path d="M0 0 L193.89 -4.38 L204.85 576.2 L-349.45 571.82 L0 0" stroke="none" stroke-width="0" fill="#a5d8ff" fill-rule="evenodd"></path><path d="M0 0 C50.28 -1.14, 100.56 -2.27, 193.89 -4.38 M0 0 C40.82 -0.92, 81.64 -1.85, 193.89 -4.38 M193.89 -4.38 C197 160.46, 200.11 325.3, 204.85 576.2 M193.89 -4.38 C197.72 198.32, 201.54 401.02, 204.85 576.2 M204.85 576.2 C88.34 575.28, -28.17 574.36, -349.45 571.82 M204.85 576.2 C-16.07 574.46, -237 572.71, -349.45 571.82 M-349.45 571.82 C-229.5 375.55, -109.56 179.28, 0 0 M-349.45 571.82 C-233.91 382.76, -118.38 193.7, 0 0 M0 0 C0 0, 0 0, 0 0 M0 0 C0 0, 0 0, 0 0" stroke="#1971c2" stroke-width="4" fill="none"></path></g></g><mask></mask></svg>