<svg version="1.1" xmlns="http://www.w3.org/2000/svg" viewBox="0 0 633.883875901052 596.2330582847815" width="633.883875901052" height="596.2330582847815" filter="invert(93%) hue-rotate(180deg)" class="excalidraw-svg"><!-- svg-source:excalidraw --><metadata></metadata><defs><style class="style-fonts">
      </style></defs><rect x="0" y="0" width="633.883875901052" height="596.2330582847815" fill="transparent"></rect><g stroke-linecap="round"><g transform="translate(317.18355507468107 11.693871137350811) rotate(0 0 287.0247344182616)"><path d="M0.77 -0.43 C0.78 95.26, 0.59 478.98, 0.32 574.54 M-0.28 -1.69 C-0.43 93.59, -0.78 476.77, -0.45 572.67" stroke="#1e1e1e" stroke-width="2" fill="none"></path></g></g><mask></mask><g stroke-linecap="round"><g transform="translate(623.559695964479 298.71860555561244) rotate(0 -306.3761408897979 0)"><path d="M0.32 0.49 C-102.06 0.38, -511.2 -0.85, -613.56 -1.09 M-0.96 -0.3 C-103.04 -0.26, -509.51 -0.16, -611.27 -0.13" stroke="#1e1e1e" stroke-width="2" fill="none"></path></g></g><mask></mask><g stroke-linecap="round"><g transform="translate(621.6170265217615 97.00743196049689) rotate(0 -151.1715087890625 187.86883544921875)"><path d="M0 0 C-50.76 33.78, -304.9 140.03, -304.53 202.66 C-304.17 265.28, -48.93 346.89, 2.19 375.74 M0 0 C-50.76 33.78, -304.9 140.03, -304.53 202.66 C-304.17 265.28, -48.93 346.89, 2.19 375.74" stroke="#000000" stroke-width="0.5" fill="none"></path></g></g><mask></mask><g stroke-linecap="round"><g transform="translate(504.4043800373865 296.3784341577625) rotate(0 0.547698974609375 -69.01304626464844)"><path d="M0 0 C0.18 -23, 0.91 -115.02, 1.1 -138.03" stroke="#1971c2" stroke-width="1" fill="none" stroke-dasharray="8 8.5"></path></g></g><mask></mask><g stroke-linecap="round"><g transform="translate(505.49977798660524 301.85566804448126) rotate(0 0 60.24949645996094)"><path d="M0 0 C0 20.08, 0 100.42, 0 120.5" stroke="#1971c2" stroke-width="1" fill="none" stroke-dasharray="8 8.5"></path></g></g><mask></mask><g transform="translate(500.02260513504274 157.25691316166876) rotate(0 4.38177490234375 4.92950439453125)" stroke="none"><path fill="#e03131" d="M 0.62,-0.41 Q 0.62,-0.41 1.51,0.35 2.40,1.12 3.03,2.56 3.66,4.00 6.02,5.97 8.37,7.93 8.47,7.98 8.56,8.03 8.63,8.11 8.70,8.19 8.75,8.28 8.79,8.38 8.80,8.49 8.81,8.59 8.79,8.70 8.77,8.80 8.71,8.89 8.66,8.98 8.57,9.05 8.49,9.12 8.39,9.16 8.29,9.19 8.19,9.20 8.08,9.20 7.98,9.17 7.88,9.15 7.79,9.08 7.70,9.02 7.64,8.94 7.58,8.85 7.54,8.75 7.51,8.65 7.51,8.55 7.51,8.44 7.55,8.34 7.58,8.24 7.65,8.16 7.71,8.07 7.80,8.01 7.89,7.95 7.99,7.93 8.09,7.90 8.20,7.90 8.30,7.91 8.40,7.95 8.50,7.99 8.58,8.06 8.66,8.13 8.72,8.22 8.77,8.31 8.79,8.42 8.81,8.52 8.80,8.63 8.79,8.73 8.74,8.83 8.70,8.92 8.63,9.00 8.55,9.08 8.46,9.13 8.36,9.18 8.26,9.19 8.15,9.21 8.05,9.19 7.94,9.17 7.94,9.17 7.94,9.17 4.56,7.16 1.18,5.15 0.64,3.90 0.11,2.65 -0.25,1.53 -0.62,0.41 -0.66,0.33 -0.70,0.25 -0.72,0.16 -0.74,0.07 -0.74,-0.01 -0.74,-0.10 -0.71,-0.18 -0.69,-0.27 -0.65,-0.35 -0.61,-0.43 -0.54,-0.50 -0.48,-0.56 -0.41,-0.61 -0.33,-0.66 -0.25,-0.70 -0.16,-0.73 -0.07,-0.74 0.01,-0.74 0.10,-0.73 0.19,-0.72 0.27,-0.69 0.35,-0.65 0.43,-0.60 0.50,-0.55 0.56,-0.48 0.62,-0.41 0.62,-0.41 L 0.62,-0.41 Z"></path></g><g transform="translate(500.02260513504274 166.02046296635626) rotate(0 6.572662353515625 -6.0249481201171875)" stroke="none"><path fill="#e03131" d="M -0.65,-0.43 Q -0.65,-0.43 -0.24,-1.52 0.16,-2.62 1.36,-4.32 2.57,-6.02 3.75,-7.40 4.93,-8.78 6.92,-9.94 8.91,-11.09 10.55,-11.70 12.19,-12.32 12.29,-12.35 12.40,-12.38 12.50,-12.37 12.61,-12.37 12.71,-12.33 12.81,-12.29 12.89,-12.23 12.97,-12.16 13.03,-12.07 13.08,-11.98 13.11,-11.87 13.13,-11.77 13.12,-11.66 13.11,-11.56 13.07,-11.46 13.03,-11.36 12.95,-11.29 12.88,-11.21 12.79,-11.16 12.70,-11.11 12.59,-11.09 12.49,-11.07 12.38,-11.08 12.28,-11.10 12.18,-11.15 12.09,-11.20 12.01,-11.27 11.94,-11.35 11.89,-11.44 11.85,-11.54 11.83,-11.65 11.82,-11.75 11.84,-11.85 11.86,-11.96 11.92,-12.05 11.97,-12.14 12.05,-12.21 12.13,-12.28 12.23,-12.32 12.33,-12.36 12.43,-12.37 12.54,-12.38 12.64,-12.35 12.74,-12.33 12.83,-12.27 12.92,-12.21 12.99,-12.13 13.05,-12.04 13.09,-11.94 13.12,-11.84 13.12,-11.73 13.13,-11.63 13.09,-11.53 13.06,-11.43 13.00,-11.34 12.93,-11.26 12.85,-11.19 12.76,-11.13 12.76,-11.13 12.76,-11.13 11.39,-10.30 10.02,-9.46 8.51,-8.22 7.01,-6.97 5.90,-5.69 4.79,-4.40 3.57,-2.77 2.35,-1.15 1.50,-0.35 0.65,0.43 0.59,0.50 0.53,0.58 0.45,0.63 0.37,0.69 0.28,0.72 0.20,0.76 0.10,0.77 0.01,0.78 -0.08,0.77 -0.17,0.76 -0.26,0.73 -0.35,0.70 -0.43,0.65 -0.51,0.59 -0.57,0.52 -0.64,0.45 -0.68,0.37 -0.73,0.29 -0.75,0.19 -0.78,0.10 -0.78,0.01 -0.78,-0.08 -0.76,-0.17 -0.74,-0.26 -0.69,-0.35 -0.65,-0.43 -0.65,-0.43 L -0.65,-0.43 Z"></path></g><g transform="translate(501.1180030842615 417.9728860620594) rotate(0 5.47723388671875 6.572662353515625)" stroke="none"><path fill="#e03131" d="M 0.64,-0.64 Q 0.64,-0.64 1.47,-0.21 2.30,0.21 3.28,1.50 4.26,2.78 5.28,4.27 6.30,5.75 7.31,7.36 8.31,8.97 9.61,10.65 10.91,12.33 10.98,12.40 11.06,12.47 11.11,12.56 11.17,12.66 11.18,12.76 11.20,12.87 11.19,12.97 11.17,13.08 11.13,13.17 11.08,13.27 11.00,13.34 10.93,13.42 10.83,13.46 10.73,13.51 10.63,13.52 10.52,13.53 10.42,13.51 10.32,13.49 10.22,13.44 10.13,13.39 10.06,13.31 9.99,13.23 9.95,13.13 9.91,13.03 9.90,12.93 9.89,12.82 9.92,12.72 9.95,12.61 10.00,12.53 10.06,12.44 10.15,12.37 10.23,12.30 10.33,12.27 10.43,12.23 10.54,12.23 10.64,12.23 10.74,12.26 10.84,12.29 10.93,12.36 11.02,12.42 11.08,12.50 11.14,12.59 11.17,12.69 11.20,12.80 11.19,12.90 11.19,13.01 11.15,13.11 11.12,13.21 11.05,13.29 10.98,13.37 10.89,13.43 10.80,13.48 10.70,13.51 10.60,13.53 10.49,13.52 10.38,13.51 10.29,13.47 10.19,13.43 10.19,13.43 10.19,13.43 8.13,11.96 6.07,10.49 4.96,8.97 3.85,7.45 2.84,6.01 1.84,4.58 1.02,3.44 0.21,2.30 -0.21,1.47 -0.64,0.64 -0.71,0.56 -0.78,0.47 -0.82,0.37 -0.87,0.27 -0.89,0.16 -0.91,0.05 -0.90,-0.05 -0.89,-0.16 -0.86,-0.27 -0.83,-0.37 -0.77,-0.46 -0.72,-0.56 -0.64,-0.64 -0.56,-0.72 -0.46,-0.77 -0.37,-0.83 -0.27,-0.86 -0.16,-0.89 -0.05,-0.90 0.05,-0.91 0.16,-0.89 0.27,-0.87 0.37,-0.82 0.47,-0.78 0.56,-0.71 0.64,-0.64 0.64,-0.64 L 0.64,-0.64 Z"></path></g><g transform="translate(502.2134620686365 428.92729280034064) rotate(0 5.47723388671875 -5.477203369140625)" stroke="none"><path fill="#e03131" d="M -0.73,-0.36 Q -0.73,-0.36 -0.38,-1.76 -0.03,-3.17 0.94,-4.45 1.93,-5.74 3.85,-6.83 5.77,-7.92 7.73,-9.34 9.69,-10.76 9.79,-10.81 9.88,-10.87 9.98,-10.89 10.09,-10.91 10.19,-10.90 10.30,-10.88 10.39,-10.84 10.49,-10.79 10.57,-10.72 10.64,-10.65 10.69,-10.55 10.74,-10.46 10.76,-10.35 10.77,-10.25 10.75,-10.14 10.74,-10.04 10.69,-9.94 10.63,-9.85 10.56,-9.78 10.48,-9.71 10.38,-9.66 10.29,-9.62 10.18,-9.61 10.07,-9.60 9.97,-9.62 9.87,-9.65 9.78,-9.70 9.69,-9.76 9.62,-9.84 9.55,-9.92 9.51,-10.02 9.47,-10.12 9.47,-10.22 9.46,-10.33 9.49,-10.43 9.52,-10.53 9.58,-10.62 9.64,-10.71 9.73,-10.77 9.81,-10.84 9.91,-10.87 10.01,-10.90 10.12,-10.90 10.23,-10.90 10.33,-10.87 10.43,-10.83 10.51,-10.77 10.60,-10.70 10.66,-10.61 10.71,-10.52 10.74,-10.42 10.77,-10.32 10.76,-10.21 10.76,-10.11 10.72,-10.01 10.68,-9.91 10.61,-9.83 10.54,-9.75 10.54,-9.75 10.54,-9.75 8.72,-8.01 6.90,-6.28 5.53,-5.11 4.17,-3.95 3.36,-2.91 2.55,-1.86 1.64,-0.74 0.73,0.36 0.68,0.45 0.62,0.53 0.55,0.60 0.48,0.66 0.39,0.71 0.30,0.76 0.21,0.79 0.11,0.81 0.01,0.81 -0.08,0.81 -0.18,0.79 -0.27,0.77 -0.36,0.73 -0.45,0.68 -0.53,0.62 -0.60,0.55 -0.66,0.47 -0.72,0.39 -0.75,0.30 -0.79,0.21 -0.80,0.11 -0.82,0.01 -0.81,-0.08 -0.80,-0.18 -0.77,-0.27 -0.73,-0.36 -0.73,-0.36 L -0.73,-0.36 Z"></path></g></svg>