<svg version="1.1" xmlns="http://www.w3.org/2000/svg" viewBox="0 0 636.2937478017295 627.9066793720765" width="636.2937478017295" height="627.9066793720765" filter="invert(93%) hue-rotate(180deg)" class="excalidraw-svg"><!-- svg-source:excalidraw --><metadata></metadata><defs><style class="style-fonts">
      </style></defs><rect x="0" y="0" width="636.2937478017295" height="627.9066793720765" fill="transparent"></rect><g stroke-linecap="round"><g transform="translate(318.1811611203407 42.61937545181914) rotate(0 0 287.0247344182616)"><path d="M-0.01 -0.44 C-0.14 95.3, -0.21 478.29, -0.3 573.85 M-1.47 -1.71 C-1.83 94.26, -1.39 479.39, -1.41 575.29" stroke="#1e1e1e" stroke-width="2" fill="none"></path></g></g><mask></mask><g stroke-linecap="round"><g transform="translate(624.5573020101386 329.6441098700807) rotate(0 -306.3761408897979 0)"><path d="M-0.3 -0.2 C-102.52 -0.31, -511.12 -1.09, -613.31 -1.12 M1.74 -1.35 C-100.69 -1.31, -512.44 -0.52, -614.56 -0.17" stroke="#1e1e1e" stroke-width="2" fill="none"></path></g></g><mask></mask><g stroke-linecap="round"><g transform="translate(85.92429767763451 504.0457458496094) rotate(0 264.54998779296875 -247.0228729248047)"><path d="M0 0 C88.18 -82.34, 440.92 -411.7, 529.1 -494.05 M0 0 C88.18 -82.34, 440.92 -411.7, 529.1 -494.05" stroke="#000000" stroke-width="0.5" fill="none"></path></g></g><mask></mask><g stroke-linecap="round"><g transform="translate(497.81168781435326 119.54452514648438) rotate(0 1.643157958984375 101.32867431640625)"><path d="M0 0 C0.55 33.78, 2.74 168.88, 3.29 202.66" stroke="#1971c2" stroke-width="1" fill="none" stroke-dasharray="8 8.5"></path></g></g><mask></mask><g stroke-linecap="round"><g transform="translate(502.193462716697 117.3536376953125) rotate(0 -90.92196655273438 0)"><path d="M0 0 C-30.31 0, -151.54 0, -181.84 0" stroke="#1971c2" stroke-width="1" fill="none" stroke-dasharray="8 8.5"></path></g></g><mask></mask></svg>