<svg version="1.1" xmlns="http://www.w3.org/2000/svg" viewBox="0 0 273.778076171875 157.84349060058594" width="273.778076171875" height="157.84349060058594" filter="invert(93%) hue-rotate(180deg)" class="excalidraw-svg"><!-- svg-source:excalidraw --><metadata></metadata><defs><style class="style-fonts">
      </style></defs><rect x="0" y="0" width="273.778076171875" height="157.84349060058594" fill="transparent"></rect><g transform="translate(24.605926513671875 56.55641174316406) rotate(0 18.713851928710938 -22.82176971435547)" stroke="none"><path fill="#000000" d="M 0.24,-0.74 Q 0.24,-0.74 1.15,-0.86 2.06,-0.97 3.02,-0.91 3.97,-0.84 4.93,-0.80 5.89,-0.76 7.04,-0.74 8.19,-0.71 8.89,-1.15 9.60,-1.60 10.55,-2.07 11.50,-2.55 12.22,-3.38 12.93,-4.21 13.76,-5.56 14.58,-6.91 15.47,-8.55 16.36,-10.18 16.98,-11.61 17.60,-13.04 18.10,-14.88 18.60,-16.73 19.11,-18.14 19.62,-19.56 20.06,-21.36 20.51,-23.17 20.98,-24.79 21.45,-26.41 21.62,-27.75 21.79,-29.09 22.15,-30.59 22.51,-32.08 22.63,-33.36 22.76,-34.64 23.10,-36.12 23.44,-37.60 23.85,-39.02 24.26,-40.44 24.77,-41.45 25.28,-42.47 25.90,-43.04 26.52,-43.62 27.76,-44.60 29.00,-45.59 30.10,-45.85 31.19,-46.10 31.97,-46.41 32.76,-46.72 34.98,-46.92 37.21,-47.13 37.29,-47.15 37.37,-47.17 37.44,-47.17 37.52,-47.17 37.60,-47.15 37.68,-47.13 37.75,-47.09 37.82,-47.05 37.88,-47.00 37.94,-46.95 37.98,-46.88 38.03,-46.82 38.05,-46.74 38.08,-46.67 38.09,-46.59 38.10,-46.51 38.09,-46.44 38.08,-46.36 38.05,-46.28 38.02,-46.21 37.98,-46.14 37.93,-46.08 37.88,-46.03 37.82,-45.97 37.75,-45.94 37.68,-45.90 37.24,-46.14 36.80,-46.39 36.80,-46.49 36.79,-46.60 36.82,-46.70 36.85,-46.80 36.91,-46.89 36.98,-46.98 37.06,-47.04 37.15,-47.10 37.25,-47.13 37.35,-47.16 37.46,-47.16 37.56,-47.16 37.66,-47.12 37.76,-47.09 37.85,-47.02 37.93,-46.96 37.99,-46.87 38.05,-46.78 38.07,-46.68 38.10,-46.57 38.09,-46.47 38.08,-46.36 38.04,-46.26 38.00,-46.17 37.93,-46.09 37.86,-46.01 37.77,-45.95 37.67,-45.90 37.57,-45.88 37.47,-45.86 37.36,-45.87 37.26,-45.89 37.16,-45.93 37.06,-45.98 36.99,-46.05 36.91,-46.13 36.87,-46.22 36.82,-46.32 36.80,-46.42 36.79,-46.53 36.81,-46.63 36.83,-46.74 36.88,-46.83 36.93,-46.92 37.01,-46.99 37.09,-47.07 37.18,-47.11 37.28,-47.15 37.39,-47.16 37.49,-47.17 37.60,-47.14 37.70,-47.12 37.79,-47.06 37.88,-47.01 37.95,-46.92 38.01,-46.84 37.61,-46.99 37.21,-47.13 37.29,-47.15 37.37,-47.17 37.44,-47.17 37.52,-47.17 37.60,-47.15 37.68,-47.13 37.75,-47.09 37.82,-47.05 37.88,-47.00 37.94,-46.95 37.98,-46.88 38.03,-46.82 38.05,-46.74 38.08,-46.67 38.09,-46.59 38.10,-46.51 38.09,-46.44 38.08,-46.36 38.05,-46.28 38.02,-46.21 37.98,-46.14 37.93,-46.08 37.88,-46.03 37.82,-45.97 37.75,-45.94 37.68,-45.90 35.81,-44.72 33.94,-43.55 32.91,-43.17 31.89,-42.80 31.19,-42.68 30.50,-42.57 29.94,-42.44 29.38,-42.32 28.79,-41.58 28.21,-40.83 27.85,-40.16 27.50,-39.48 27.10,-38.15 26.71,-36.83 26.40,-35.55 26.09,-34.28 25.92,-32.79 25.75,-31.29 25.42,-29.97 25.09,-28.65 24.87,-27.06 24.64,-25.48 24.19,-23.92 23.73,-22.36 23.24,-20.39 22.74,-18.42 22.26,-17.13 21.79,-15.84 21.21,-13.78 20.63,-11.73 19.95,-10.16 19.26,-8.59 18.32,-6.88 17.37,-5.16 16.35,-3.57 15.33,-1.97 14.17,-0.82 13.01,0.32 12.03,0.81 11.05,1.30 9.67,1.89 8.30,2.48 7.02,2.46 5.74,2.45 4.70,2.39 3.66,2.34 2.37,2.18 1.08,2.02 0.41,1.38 -0.24,0.74 -0.33,0.70 -0.42,0.66 -0.49,0.60 -0.56,0.54 -0.62,0.47 -0.68,0.39 -0.71,0.30 -0.75,0.21 -0.77,0.12 -0.78,0.03 -0.77,-0.06 -0.77,-0.15 -0.74,-0.24 -0.71,-0.33 -0.66,-0.41 -0.61,-0.49 -0.54,-0.56 -0.47,-0.62 -0.39,-0.67 -0.30,-0.72 -0.21,-0.75 -0.12,-0.77 -0.03,-0.78 0.06,-0.78 0.15,-0.76 0.24,-0.74 0.24,-0.74 L 0.24,-0.74 Z"></path></g><g transform="translate(36.473236083984375 37.38612365722656) rotate(0 9.128707885742188 -0.912872314453125)" stroke="none"><path fill="#000000" d="M -0.27,-0.83 Q -0.27,-0.83 0.40,-1.41 1.09,-1.99 2.37,-2.18 3.65,-2.37 5.10,-2.67 6.54,-2.98 8.61,-3.13 10.68,-3.28 12.33,-3.31 13.98,-3.35 16.29,-1.99 18.60,-0.63 18.65,-0.53 18.70,-0.44 18.71,-0.33 18.73,-0.23 18.71,-0.12 18.70,-0.02 18.65,0.06 18.60,0.16 18.52,0.23 18.45,0.30 18.35,0.35 18.25,0.39 18.15,0.41 18.04,0.42 17.94,0.40 17.83,0.37 17.74,0.32 17.65,0.26 17.58,0.18 17.51,0.10 17.47,0.00 17.43,-0.08 17.43,-0.19 17.42,-0.30 17.45,-0.40 17.48,-0.50 17.54,-0.59 17.60,-0.68 17.68,-0.74 17.76,-0.81 17.87,-0.84 17.97,-0.87 18.07,-0.88 18.18,-0.88 18.28,-0.84 18.38,-0.81 18.46,-0.74 18.55,-0.68 18.61,-0.59 18.67,-0.51 18.70,-0.40 18.73,-0.30 18.72,-0.19 18.72,-0.09 18.68,0.00 18.64,0.10 18.57,0.18 18.50,0.26 18.41,0.32 18.32,0.37 18.22,0.40 18.11,0.42 18.01,0.41 17.90,0.40 17.80,0.35 17.71,0.31 17.63,0.23 17.55,0.16 17.55,0.16 17.55,0.16 15.82,0.01 14.09,-0.13 12.49,-0.05 10.90,0.01 9.05,0.13 7.19,0.25 5.58,0.56 3.98,0.87 3.01,0.91 2.05,0.94 1.16,0.89 0.27,0.83 0.17,0.85 0.07,0.87 -0.03,0.87 -0.14,0.86 -0.24,0.83 -0.34,0.80 -0.43,0.75 -0.52,0.70 -0.60,0.62 -0.68,0.55 -0.73,0.46 -0.79,0.37 -0.82,0.27 -0.86,0.17 -0.87,0.06 -0.87,-0.03 -0.86,-0.14 -0.84,-0.24 -0.80,-0.34 -0.76,-0.44 -0.69,-0.52 -0.63,-0.60 -0.55,-0.67 -0.46,-0.74 -0.37,-0.78 -0.27,-0.83 -0.27,-0.83 L -0.27,-0.83 Z"></path></g><g transform="translate(70.24948120117188 31.908905029296875) rotate(0 -0.0000152587890625 11.410881042480469)" stroke="none"><path fill="#000000" d="M 0.72,0.48 Q 0.72,0.48 0.58,1.52 0.43,2.56 -0.29,3.69 -1.03,4.81 -1.50,6.17 -1.98,7.52 -2.54,8.54 -3.10,9.55 -3.21,10.69 -3.32,11.84 -3.41,13.66 -3.50,15.49 -3.29,16.64 -3.09,17.79 -2.87,18.64 -2.64,19.48 -1.78,19.90 -0.93,20.32 -0.15,20.72 0.62,21.12 2.78,21.20 4.93,21.28 5.04,21.29 5.14,21.30 5.24,21.35 5.34,21.39 5.42,21.46 5.50,21.53 5.55,21.63 5.60,21.72 5.62,21.82 5.64,21.93 5.62,22.03 5.61,22.14 5.56,22.23 5.51,22.33 5.43,22.40 5.36,22.48 5.26,22.52 5.17,22.57 5.06,22.58 4.95,22.60 4.85,22.57 4.75,22.55 4.65,22.50 4.56,22.45 4.49,22.37 4.42,22.29 4.38,22.19 4.34,22.09 4.33,21.98 4.33,21.88 4.35,21.78 4.38,21.67 4.44,21.58 4.50,21.50 4.58,21.43 4.66,21.36 4.76,21.33 4.86,21.29 4.97,21.29 5.08,21.29 5.18,21.32 5.28,21.35 5.36,21.42 5.45,21.48 5.51,21.57 5.57,21.65 5.60,21.76 5.63,21.86 5.63,21.96 5.62,22.07 5.59,22.17 5.55,22.27 5.48,22.35 5.41,22.43 5.32,22.49 5.23,22.54 5.13,22.57 5.03,22.59 5.03,22.59 5.03,22.59 2.49,23.10 -0.03,23.60 -1.32,23.38 -2.62,23.16 -4.16,22.12 -5.71,21.09 -6.20,19.74 -6.69,18.40 -6.93,16.86 -7.17,15.33 -7.08,13.31 -6.98,11.29 -6.66,9.56 -6.34,7.83 -5.88,7.02 -5.42,6.21 -4.74,4.51 -4.05,2.82 -3.29,1.70 -2.53,0.58 -1.63,0.05 -0.72,-0.48 -0.65,-0.56 -0.58,-0.64 -0.50,-0.70 -0.41,-0.76 -0.31,-0.80 -0.22,-0.84 -0.11,-0.85 -0.01,-0.86 0.09,-0.85 0.19,-0.84 0.29,-0.81 0.39,-0.77 0.47,-0.71 0.56,-0.65 0.63,-0.58 0.70,-0.50 0.75,-0.41 0.80,-0.32 0.83,-0.21 0.86,-0.11 0.86,-0.01 0.86,0.09 0.84,0.19 0.81,0.29 0.77,0.38 0.72,0.48 0.72,0.48 L 0.72,0.48 Z"></path></g><g transform="translate(80.29104614257812 41.03761291503906) rotate(0 5.4772186279296875 4.5643463134765625)" stroke="none"><path fill="#000000" d="M -0.44,-0.67 Q -0.44,-0.67 0.15,-1.48 0.75,-2.29 1.98,-2.85 3.21,-3.41 4.09,-3.66 4.96,-3.90 6.13,-3.74 7.30,-3.59 8.15,-3.16 8.99,-2.74 9.76,-1.89 10.52,-1.04 10.86,-0.32 11.21,0.40 11.56,1.19 11.92,1.97 11.87,3.20 11.83,4.43 11.78,5.30 11.73,6.17 11.08,7.41 10.44,8.65 9.91,9.58 9.38,10.52 8.35,11.18 7.33,11.85 6.38,12.25 5.43,12.65 3.41,11.17 1.39,9.69 1.35,9.60 1.32,9.50 1.31,9.39 1.31,9.28 1.34,9.18 1.37,9.08 1.43,8.99 1.49,8.91 1.58,8.84 1.67,8.78 1.77,8.75 1.87,8.72 1.97,8.72 2.08,8.72 2.18,8.76 2.28,8.79 2.36,8.86 2.45,8.93 2.50,9.02 2.56,9.10 2.59,9.21 2.62,9.31 2.61,9.42 2.60,9.52 2.56,9.62 2.52,9.72 2.45,9.80 2.38,9.88 2.28,9.93 2.19,9.98 2.09,10.00 1.98,10.02 1.88,10.01 1.77,10.00 1.68,9.95 1.58,9.90 1.51,9.83 1.43,9.75 1.38,9.66 1.33,9.56 1.32,9.46 1.30,9.35 1.32,9.25 1.34,9.15 1.39,9.05 1.45,8.96 1.53,8.89 1.60,8.82 1.70,8.77 1.80,8.73 1.90,8.72 2.01,8.71 2.11,8.74 2.22,8.76 2.31,8.82 2.40,8.88 2.46,8.96 2.53,9.04 2.53,9.04 2.53,9.04 3.43,9.43 4.34,9.82 5.51,9.26 6.68,8.70 7.14,7.81 7.60,6.93 8.04,6.37 8.48,5.81 8.70,4.45 8.92,3.08 8.46,1.99 8.00,0.89 7.32,0.16 6.64,-0.57 6.13,-0.76 5.62,-0.96 5.02,-0.79 4.42,-0.62 3.40,-0.21 2.39,0.19 1.42,0.43 0.44,0.67 0.36,0.71 0.27,0.76 0.17,0.78 0.08,0.80 -0.01,0.80 -0.11,0.80 -0.20,0.77 -0.29,0.75 -0.38,0.70 -0.47,0.65 -0.54,0.59 -0.61,0.52 -0.66,0.44 -0.72,0.36 -0.75,0.27 -0.78,0.18 -0.79,0.08 -0.80,-0.01 -0.79,-0.10 -0.78,-0.20 -0.74,-0.29 -0.71,-0.38 -0.65,-0.46 -0.59,-0.54 -0.52,-0.61 -0.44,-0.67 -0.44,-0.67 L -0.44,-0.67 Z"></path></g><g transform="translate(100.37420654296875 36.47325134277344) rotate(0 -3.1950531005859375 6.3900909423828125)" stroke="none"><path fill="#000000" d="M 0,0.83 Q 0,0.83 -1.04,1.25 -2.08,1.68 -2.79,1.91 -3.50,2.13 -3.85,2.59 -4.19,3.06 -4.90,3.99 -5.60,4.93 -5.81,5.89 -6.02,6.85 -6.15,7.77 -6.28,8.69 -6.12,9.32 -5.97,9.96 -5.35,10.55 -4.74,11.15 -3.98,11.50 -3.22,11.85 -1.25,11.65 0.70,11.45 0.81,11.44 0.92,11.43 1.02,11.46 1.12,11.49 1.21,11.55 1.30,11.60 1.36,11.69 1.43,11.77 1.46,11.87 1.50,11.97 1.50,12.08 1.50,12.19 1.47,12.29 1.44,12.39 1.37,12.47 1.31,12.56 1.22,12.62 1.13,12.68 1.03,12.71 0.93,12.74 0.82,12.73 0.72,12.73 0.62,12.69 0.52,12.65 0.44,12.58 0.36,12.52 0.30,12.43 0.24,12.33 0.22,12.23 0.20,12.13 0.21,12.02 0.22,11.92 0.26,11.82 0.30,11.72 0.38,11.64 0.45,11.57 0.54,11.52 0.64,11.47 0.74,11.45 0.85,11.43 0.95,11.45 1.06,11.46 1.15,11.51 1.24,11.56 1.32,11.64 1.39,11.71 1.44,11.81 1.48,11.90 1.50,12.01 1.51,12.11 1.49,12.22 1.46,12.32 1.41,12.41 1.36,12.51 1.28,12.58 1.20,12.65 1.10,12.69 1.00,12.73 1.00,12.73 1.00,12.73 -1.42,13.53 -3.85,14.34 -5.40,13.90 -6.96,13.46 -8.09,12.18 -9.22,10.89 -9.46,9.59 -9.71,8.28 -9.55,7.10 -9.38,5.92 -8.90,4.40 -8.42,2.89 -7.50,1.71 -6.58,0.53 -5.58,-0.27 -4.57,-1.08 -3.34,-1.38 -2.11,-1.68 -1.05,-1.25 0,-0.83 0.09,-0.81 0.19,-0.80 0.29,-0.77 0.38,-0.73 0.46,-0.67 0.55,-0.62 0.61,-0.54 0.68,-0.47 0.73,-0.38 0.77,-0.29 0.80,-0.19 0.82,-0.10 0.82,0.00 0.82,0.10 0.80,0.19 0.77,0.29 0.73,0.38 0.68,0.47 0.61,0.54 0.55,0.62 0.46,0.67 0.38,0.73 0.29,0.77 0.19,0.80 0.09,0.81 -0.00,0.83 -0.00,0.83 L 0,0.83 Z"></path></g><g transform="translate(110.415771484375 34.64752197265625) rotate(0 5.47723388671875 10.954444885253906)" stroke="none"><path fill="#000000" d="M 0.44,-0.58 Q 0.44,-0.58 1.72,-0.11 3.00,0.36 3.94,0.89 4.87,1.42 6.19,2.52 7.51,3.61 8.50,4.28 9.50,4.95 10.19,6.03 10.88,7.11 11.35,8.01 11.82,8.90 12.11,10.60 12.40,12.29 12.22,13.66 12.04,15.04 11.67,16.19 11.30,17.33 10.82,18.41 10.35,19.48 9.12,20.47 7.88,21.45 7.04,21.77 6.19,22.10 4.03,21.48 1.87,20.87 1.78,20.80 1.70,20.73 1.65,20.64 1.59,20.55 1.57,20.45 1.55,20.34 1.56,20.24 1.57,20.13 1.61,20.04 1.66,19.94 1.73,19.86 1.80,19.78 1.90,19.73 1.99,19.68 2.09,19.67 2.20,19.65 2.30,19.67 2.41,19.68 2.50,19.73 2.60,19.78 2.67,19.86 2.74,19.94 2.79,20.03 2.83,20.13 2.85,20.23 2.86,20.34 2.84,20.44 2.81,20.55 2.76,20.64 2.70,20.73 2.62,20.80 2.54,20.87 2.44,20.91 2.35,20.95 2.24,20.95 2.13,20.96 2.03,20.93 1.93,20.90 1.84,20.84 1.75,20.78 1.69,20.70 1.62,20.62 1.59,20.51 1.55,20.41 1.55,20.31 1.55,20.20 1.59,20.10 1.62,20.00 1.68,19.92 1.75,19.83 1.84,19.77 1.92,19.71 2.03,19.68 2.13,19.65 2.23,19.66 2.34,19.66 2.44,19.70 2.54,19.74 2.54,19.74 2.54,19.74 3.72,19.40 4.91,19.05 5.40,18.81 5.90,18.56 6.59,18.21 7.27,17.86 7.61,17.03 7.95,16.20 8.26,15.34 8.57,14.48 8.75,13.59 8.93,12.71 8.84,11.56 8.75,10.41 8.32,9.55 7.89,8.70 7.70,8.13 7.51,7.56 6.44,6.82 5.37,6.08 4.29,5.09 3.21,4.11 2.20,3.45 1.19,2.78 0.37,1.68 -0.44,0.58 -0.50,0.52 -0.56,0.46 -0.61,0.39 -0.66,0.31 -0.69,0.23 -0.72,0.14 -0.72,0.05 -0.73,-0.02 -0.72,-0.11 -0.70,-0.20 -0.67,-0.28 -0.63,-0.36 -0.58,-0.43 -0.53,-0.50 -0.46,-0.56 -0.39,-0.62 -0.31,-0.65 -0.23,-0.69 -0.14,-0.71 -0.05,-0.73 0.02,-0.72 0.11,-0.72 0.20,-0.70 0.28,-0.67 0.36,-0.63 0.44,-0.58 0.44,-0.58 L 0.44,-0.58 Z"></path></g><g transform="translate(145.1048583984375 37.38612365722656) rotate(0 5.02081298828125 1.82574462890625)" stroke="none"><path fill="#000000" d="M 0.28,-0.86 Q 0.28,-0.86 1.20,-1.01 2.13,-1.17 3.06,-1.10 3.99,-1.03 4.95,-0.99 5.91,-0.94 8.16,1.03 10.41,3.02 10.45,3.11 10.49,3.21 10.50,3.31 10.51,3.42 10.49,3.52 10.47,3.63 10.41,3.72 10.36,3.81 10.27,3.88 10.19,3.94 10.09,3.98 9.99,4.02 9.89,4.03 9.78,4.03 9.68,4.00 9.58,3.97 9.49,3.91 9.40,3.85 9.34,3.77 9.28,3.68 9.24,3.58 9.21,3.48 9.21,3.37 9.21,3.27 9.25,3.17 9.28,3.07 9.35,2.98 9.41,2.90 9.50,2.84 9.59,2.78 9.69,2.75 9.79,2.73 9.90,2.73 10.01,2.74 10.10,2.78 10.20,2.82 10.28,2.89 10.36,2.96 10.42,3.05 10.47,3.14 10.49,3.25 10.51,3.35 10.50,3.45 10.49,3.56 10.44,3.66 10.40,3.75 10.33,3.83 10.25,3.91 10.16,3.95 10.06,4.00 9.96,4.02 9.85,4.04 9.75,4.02 9.64,4.00 9.55,3.95 9.46,3.90 9.38,3.82 9.31,3.74 9.31,3.74 9.31,3.74 7.52,3.18 5.72,2.62 4.68,2.58 3.64,2.53 2.32,2.37 1.01,2.22 0.36,1.54 -0.28,0.86 -0.38,0.81 -0.48,0.76 -0.57,0.70 -0.65,0.63 -0.72,0.54 -0.78,0.45 -0.83,0.35 -0.87,0.25 -0.89,0.14 -0.90,0.03 -0.90,-0.07 -0.89,-0.18 -0.85,-0.28 -0.82,-0.38 -0.76,-0.48 -0.70,-0.57 -0.62,-0.65 -0.54,-0.72 -0.45,-0.78 -0.35,-0.83 -0.25,-0.86 -0.14,-0.89 -0.03,-0.90 0.07,-0.90 0.18,-0.88 0.28,-0.86 0.28,-0.86 L 0.28,-0.86 Z"></path></g><g transform="translate(143.27914428710938 49.25346374511719) rotate(0 6.3900909423828125 0.4564208984375)" stroke="none"><path fill="#000000" d="M 0,-1.00 Q 0,-1.00 1.31,-1.37 2.62,-1.74 4.23,-1.69 5.84,-1.63 8.72,-0.77 11.61,0.09 11.71,0.12 11.81,0.15 11.90,0.21 11.98,0.28 12.05,0.36 12.11,0.45 12.14,0.55 12.17,0.65 12.17,0.76 12.17,0.86 12.13,0.96 12.09,1.06 12.03,1.15 11.96,1.23 11.87,1.29 11.78,1.34 11.68,1.37 11.58,1.40 11.47,1.39 11.37,1.38 11.27,1.34 11.17,1.30 11.09,1.23 11.01,1.16 10.96,1.06 10.91,0.97 10.89,0.87 10.87,0.76 10.88,0.66 10.89,0.55 10.94,0.46 10.99,0.36 11.06,0.29 11.14,0.21 11.23,0.16 11.33,0.12 11.43,0.10 11.54,0.09 11.64,0.11 11.75,0.13 11.84,0.18 11.93,0.23 12.00,0.31 12.07,0.39 12.12,0.48 12.16,0.58 12.17,0.69 12.18,0.79 12.15,0.90 12.13,1.00 12.07,1.09 12.01,1.18 11.93,1.25 11.85,1.31 11.75,1.35 11.65,1.39 11.54,1.39 11.44,1.39 11.44,1.39 11.44,1.39 8.63,1.51 5.83,1.63 4.23,1.69 2.62,1.74 1.31,1.37 0,1.00 -0.12,0.98 -0.24,0.97 -0.35,0.93 -0.46,0.88 -0.56,0.82 -0.66,0.75 -0.74,0.66 -0.82,0.57 -0.88,0.46 -0.93,0.35 -0.96,0.23 -0.99,0.12 -0.99,-0.00 -0.99,-0.12 -0.96,-0.23 -0.93,-0.35 -0.88,-0.46 -0.82,-0.57 -0.74,-0.66 -0.66,-0.75 -0.56,-0.82 -0.46,-0.88 -0.35,-0.93 -0.24,-0.97 -0.12,-0.98 0.00,-1.00 0.00,-1.00 L 0,-1.00 Z"></path></g><g transform="translate(177.96826171875 26.431671142578125) rotate(0 10.04156494140625 10.041595458984375)" stroke="none"><path fill="#000000" d="M -0.34,-0.85 Q -0.34,-0.85 0.85,-1.65 2.05,-2.46 3.42,-2.97 4.79,-3.48 6.29,-3.73 7.79,-3.98 9.50,-4.08 11.20,-4.19 12.71,-4.23 14.22,-4.28 15.34,-4.02 16.45,-3.75 17.25,-3.69 18.05,-3.62 19.24,-2.87 20.44,-2.13 20.80,-1.37 21.16,-0.61 20.87,0.62 20.58,1.86 19.86,3.26 19.15,4.66 18.10,6.72 17.05,8.79 16.37,10.40 15.69,12.01 14.81,13.60 13.94,15.19 13.08,16.85 12.21,18.52 10.42,20.46 8.64,22.41 8.54,22.45 8.44,22.50 8.34,22.50 8.23,22.51 8.13,22.49 8.02,22.46 7.93,22.40 7.84,22.35 7.78,22.26 7.71,22.18 7.67,22.08 7.64,21.98 7.64,21.88 7.63,21.77 7.66,21.67 7.69,21.57 7.76,21.48 7.82,21.39 7.90,21.33 7.99,21.27 8.09,21.24 8.19,21.21 8.30,21.21 8.41,21.21 8.51,21.25 8.61,21.29 8.69,21.35 8.77,21.42 8.83,21.51 8.89,21.60 8.91,21.70 8.94,21.80 8.93,21.91 8.92,22.02 8.88,22.11 8.84,22.21 8.77,22.29 8.69,22.37 8.60,22.42 8.51,22.47 8.41,22.49 8.30,22.51 8.20,22.50 8.09,22.49 8.00,22.44 7.90,22.39 7.82,22.32 7.75,22.24 7.70,22.15 7.66,22.05 7.64,21.95 7.63,21.84 7.65,21.74 7.67,21.63 7.72,21.54 7.77,21.45 7.85,21.38 7.93,21.30 7.93,21.30 7.93,21.30 8.28,18.98 8.63,16.65 9.51,14.94 10.40,13.24 11.19,11.83 11.97,10.42 12.71,8.69 13.45,6.96 14.51,4.86 15.58,2.76 16.13,1.77 16.69,0.79 17.15,0.22 17.61,-0.33 16.60,-0.48 15.59,-0.62 14.93,-0.85 14.26,-1.08 12.81,-1.05 11.37,-1.02 9.81,-0.95 8.26,-0.88 7.05,-0.72 5.83,-0.55 4.51,-0.09 3.18,0.36 1.76,0.60 0.34,0.85 0.23,0.88 0.12,0.91 0.01,0.91 -0.09,0.91 -0.20,0.88 -0.31,0.86 -0.40,0.81 -0.50,0.76 -0.59,0.69 -0.67,0.62 -0.74,0.53 -0.80,0.44 -0.84,0.33 -0.88,0.23 -0.90,0.12 -0.91,0.01 -0.90,-0.09 -0.89,-0.20 -0.85,-0.30 -0.82,-0.41 -0.76,-0.50 -0.69,-0.59 -0.61,-0.67 -0.53,-0.74 -0.43,-0.80 -0.34,-0.85 -0.34,-0.85 L -0.34,-0.85 Z"></path></g><g transform="translate(215.39593505859375 36.47325134277344) rotate(0 2.282196044921875 5.933662414550781)" stroke="none"><path fill="#000000" d="M -0.49,-0.73 Q -0.49,-0.73 0.11,-1.53 0.72,-2.32 1.69,-2.87 2.66,-3.42 3.93,-3.46 5.20,-3.49 6.12,-3.15 7.03,-2.81 8.03,-2.02 9.04,-1.24 9.60,-0.16 10.16,0.91 10.36,1.96 10.56,3.01 10.64,3.98 10.73,4.95 10.74,5.95 10.76,6.95 10.15,8.26 9.54,9.56 8.37,10.68 7.21,11.80 6.24,12.72 5.28,13.64 3.79,14.20 2.30,14.77 1.32,15.17 0.35,15.57 -0.79,15.72 -1.93,15.87 -2.73,14.33 -3.52,12.80 -3.60,12.81 -3.68,12.81 -3.75,12.80 -3.83,12.79 -3.90,12.75 -3.98,12.72 -4.04,12.67 -4.10,12.63 -4.15,12.56 -4.20,12.50 -4.23,12.43 -4.27,12.36 -4.28,12.28 -4.30,12.20 -4.29,12.12 -4.29,12.04 -4.26,11.97 -4.24,11.89 -4.20,11.82 -4.16,11.76 -4.10,11.70 -4.05,11.64 -3.98,11.60 -3.91,11.56 -3.84,11.54 -3.76,11.51 -4.01,11.74 -4.27,11.96 -4.22,11.87 -4.17,11.77 -4.10,11.70 -4.02,11.62 -3.92,11.58 -3.83,11.53 -3.72,11.52 -3.62,11.50 -3.51,11.52 -3.41,11.54 -3.32,11.60 -3.23,11.65 -3.16,11.73 -3.08,11.81 -3.04,11.91 -3.00,12.00 -2.99,12.11 -2.99,12.22 -3.01,12.32 -3.04,12.42 -3.10,12.51 -3.15,12.60 -3.24,12.67 -3.32,12.73 -3.42,12.77 -3.52,12.80 -3.63,12.81 -3.73,12.81 -3.83,12.78 -3.94,12.75 -4.02,12.68 -4.11,12.62 -4.17,12.53 -4.23,12.45 -4.26,12.34 -4.29,12.24 -4.29,12.14 -4.28,12.03 -4.25,11.93 -4.21,11.83 -4.14,11.75 -4.08,11.67 -3.99,11.61 -3.90,11.55 -3.79,11.53 -3.69,11.50 -3.58,11.51 -3.48,11.52 -3.38,11.57 -3.28,11.61 -3.20,11.68 -3.13,11.75 -3.07,11.84 -3.02,11.94 -3.00,12.04 -2.98,12.15 -3.25,12.47 -3.52,12.80 -3.60,12.81 -3.68,12.81 -3.75,12.80 -3.83,12.79 -3.90,12.75 -3.98,12.72 -4.04,12.67 -4.10,12.63 -4.15,12.56 -4.20,12.50 -4.23,12.43 -4.27,12.36 -4.28,12.28 -4.30,12.20 -4.29,12.12 -4.29,12.04 -4.26,11.97 -4.24,11.89 -4.20,11.82 -4.16,11.76 -4.10,11.70 -4.05,11.64 -3.98,11.60 -3.91,11.56 -3.84,11.54 -3.76,11.51 -3.14,12.16 -2.51,12.80 -1.73,12.59 -0.95,12.37 0.13,11.92 1.22,11.46 2.11,11.25 3.00,11.04 3.94,10.14 4.88,9.23 5.73,8.53 6.58,7.82 6.99,7.31 7.41,6.80 7.37,5.99 7.34,5.18 7.30,4.37 7.26,3.56 7.06,2.35 6.85,1.15 6.26,0.64 5.68,0.14 4.80,-0.23 3.92,-0.61 3.17,-0.19 2.42,0.22 1.45,0.48 0.49,0.73 0.39,0.78 0.30,0.83 0.19,0.85 0.09,0.88 -0.01,0.87 -0.12,0.87 -0.22,0.84 -0.32,0.82 -0.42,0.77 -0.51,0.72 -0.59,0.64 -0.67,0.57 -0.73,0.48 -0.79,0.39 -0.82,0.29 -0.86,0.19 -0.87,0.09 -0.88,-0.01 -0.87,-0.12 -0.85,-0.22 -0.81,-0.32 -0.77,-0.42 -0.71,-0.51 -0.65,-0.59 -0.57,-0.66 -0.49,-0.73 -0.49,-0.73 L -0.49,-0.73 Z"></path></g><g transform="translate(233.65338134765625 34.64752197265625) rotate(0 -2.7386474609375 5.933662414550781)" stroke="none"><path fill="#000000" d="M -0.36,0.72 Q -0.36,0.72 -1.07,0.84 -1.78,0.96 -2.46,0.96 -3.14,0.96 -4.07,1.62 -5.00,2.28 -5.52,2.75 -6.04,3.21 -6.13,4.52 -6.22,5.83 -6.26,6.77 -6.30,7.71 -6.13,8.35 -5.95,9.00 -4.81,9.85 -3.66,10.69 -2.42,11.21 -1.19,11.73 0.43,11.89 2.06,12.06 2.16,12.08 2.27,12.11 2.35,12.17 2.44,12.23 2.51,12.31 2.58,12.39 2.61,12.49 2.65,12.59 2.65,12.70 2.65,12.80 2.62,12.91 2.59,13.01 2.53,13.09 2.47,13.18 2.38,13.24 2.29,13.30 2.19,13.33 2.09,13.36 1.98,13.36 1.88,13.36 1.78,13.32 1.68,13.28 1.60,13.22 1.51,13.15 1.46,13.06 1.40,12.97 1.37,12.87 1.35,12.76 1.36,12.66 1.37,12.55 1.41,12.46 1.45,12.36 1.52,12.28 1.59,12.20 1.69,12.15 1.78,12.10 1.88,12.08 1.99,12.06 2.09,12.07 2.20,12.09 2.29,12.13 2.39,12.18 2.46,12.26 2.54,12.33 2.59,12.43 2.63,12.52 2.65,12.63 2.66,12.73 2.64,12.84 2.62,12.94 2.57,13.03 2.51,13.13 2.43,13.20 2.36,13.27 2.26,13.31 2.16,13.35 2.05,13.36 1.95,13.37 1.95,13.37 1.95,13.37 0.27,13.25 -1.41,13.14 -3.17,13.19 -4.92,13.24 -6.27,12.66 -7.62,12.07 -8.49,11.09 -9.36,10.10 -9.68,8.85 -9.99,7.60 -9.95,6.54 -9.90,5.49 -9.76,4.19 -9.62,2.89 -9.16,1.79 -8.70,0.69 -8.08,0.09 -7.46,-0.50 -6.58,-1.25 -5.70,-1.99 -4.82,-2.34 -3.94,-2.69 -3.36,-2.67 -2.77,-2.64 -2.20,-2.56 -1.62,-2.47 -0.97,-2.24 -0.31,-2.01 0.02,-1.37 0.36,-0.72 0.44,-0.67 0.52,-0.61 0.59,-0.54 0.65,-0.47 0.70,-0.38 0.75,-0.30 0.77,-0.20 0.80,-0.11 0.80,-0.01 0.80,0.08 0.78,0.17 0.76,0.27 0.72,0.36 0.67,0.44 0.61,0.52 0.55,0.59 0.47,0.65 0.39,0.71 0.30,0.74 0.21,0.78 0.11,0.79 0.01,0.81 -0.08,0.80 -0.17,0.79 -0.27,0.76 -0.36,0.72 -0.36,0.72 L -0.36,0.72 Z"></path></g><g transform="translate(245.52069091796875 12.738616943359375) rotate(0 5.020782470703125 7.7593994140625)" stroke="none"><path fill="#000000" d="M 0,-0.80 Q 0,-0.80 0.78,-1.08 1.57,-1.35 2.95,-1.37 4.34,-1.39 5.27,-1.37 6.20,-1.35 7.08,-0.47 7.96,0.39 7.98,1.04 7.99,1.68 7.93,2.33 7.87,2.97 7.16,3.90 6.46,4.82 5.97,5.33 5.48,5.83 6.14,5.73 6.80,5.63 7.83,6.33 8.87,7.03 9.36,7.23 9.85,7.43 10.40,8.04 10.95,8.65 11.18,9.29 11.41,9.94 11.38,10.78 11.35,11.62 10.70,12.48 10.05,13.34 9.32,14.05 8.58,14.76 7.46,15.22 6.35,15.68 5.60,15.74 4.86,15.80 3.14,15.94 1.43,16.07 1.32,16.08 1.22,16.08 1.11,16.05 1.01,16.03 0.92,15.97 0.83,15.91 0.77,15.82 0.70,15.74 0.67,15.64 0.64,15.54 0.64,15.43 0.63,15.33 0.67,15.23 0.70,15.12 0.77,15.04 0.83,14.95 0.92,14.89 1.00,14.83 1.11,14.81 1.21,14.78 1.31,14.78 1.42,14.79 1.52,14.83 1.62,14.86 1.70,14.93 1.78,15.00 1.84,15.09 1.89,15.18 1.92,15.29 1.94,15.39 1.93,15.50 1.92,15.60 1.87,15.70 1.83,15.79 1.76,15.87 1.68,15.95 1.59,16.00 1.50,16.05 1.39,16.07 1.29,16.09 1.18,16.07 1.08,16.05 0.98,16.00 0.89,15.95 0.82,15.88 0.74,15.80 0.70,15.70 0.65,15.61 0.64,15.50 0.63,15.40 0.65,15.29 0.67,15.19 0.73,15.10 0.78,15.01 0.86,14.94 0.94,14.87 1.04,14.83 1.14,14.79 1.14,14.79 1.14,14.79 3.19,13.71 5.25,12.62 5.81,12.47 6.38,12.32 7.42,11.20 8.46,10.08 7.76,9.78 7.06,9.48 6.53,9.00 6.00,8.53 5.29,8.35 4.59,8.18 3.50,7.52 2.41,6.87 2.27,6.14 2.12,5.41 2.70,4.53 3.27,3.64 4.16,2.97 5.04,2.30 5.46,1.83 5.88,1.35 5.11,1.37 4.34,1.39 2.95,1.37 1.57,1.35 0.78,1.08 0,0.80 -0.09,0.79 -0.19,0.78 -0.28,0.74 -0.37,0.71 -0.45,0.65 -0.53,0.60 -0.59,0.53 -0.66,0.45 -0.70,0.37 -0.75,0.28 -0.77,0.19 -0.80,0.09 -0.80,-0.00 -0.80,-0.09 -0.77,-0.19 -0.75,-0.28 -0.70,-0.37 -0.66,-0.45 -0.59,-0.53 -0.53,-0.60 -0.45,-0.65 -0.37,-0.71 -0.28,-0.74 -0.19,-0.78 -0.09,-0.79 0.00,-0.80 0.00,-0.80 L 0,-0.80 Z"></path></g><g transform="translate(10 143.27915954589844) rotate(0 17.800979614257812 -23.734649658203125)" stroke="none"><path fill="#1971c2" d="M 0,-0.87 Q 0,-0.87 1.28,-1.10 2.56,-1.33 3.37,-1.81 4.18,-2.28 5.37,-3.01 6.56,-3.74 8.29,-5.30 10.02,-6.86 11.26,-8.29 12.50,-9.71 13.52,-11.30 14.53,-12.90 15.19,-14.55 15.84,-16.20 16.68,-18.02 17.52,-19.85 17.80,-21.50 18.09,-23.16 18.48,-25.25 18.88,-27.34 19.03,-29.19 19.19,-31.05 19.26,-32.88 19.33,-34.72 19.63,-36.90 19.93,-39.09 20.33,-40.84 20.73,-42.59 21.19,-43.71 21.66,-44.82 21.84,-45.46 22.03,-46.10 22.58,-46.72 23.12,-47.33 23.99,-47.82 24.86,-48.31 26.32,-48.29 27.77,-48.27 28.91,-47.94 30.05,-47.60 31.06,-47.18 32.08,-46.77 33.00,-46.25 33.92,-45.74 34.98,-43.75 36.03,-41.76 36.06,-41.66 36.08,-41.55 36.07,-41.45 36.05,-41.34 36.01,-41.25 35.96,-41.15 35.89,-41.07 35.82,-41.00 35.72,-40.95 35.63,-40.90 35.52,-40.88 35.42,-40.87 35.31,-40.88 35.21,-40.90 35.11,-40.95 35.02,-41.00 34.95,-41.08 34.88,-41.16 34.83,-41.25 34.79,-41.35 34.78,-41.46 34.77,-41.56 34.79,-41.67 34.81,-41.77 34.87,-41.86 34.92,-41.95 35.01,-42.02 35.09,-42.09 35.19,-42.13 35.29,-42.17 35.39,-42.17 35.50,-42.18 35.60,-42.15 35.70,-42.12 35.79,-42.06 35.88,-42.00 35.94,-41.91 36.00,-41.83 36.04,-41.73 36.07,-41.62 36.07,-41.52 36.07,-41.41 36.03,-41.31 36.00,-41.21 35.93,-41.13 35.87,-41.04 35.78,-40.98 35.69,-40.92 35.59,-40.90 35.49,-40.87 35.38,-40.88 35.28,-40.88 35.18,-40.92 35.08,-40.96 35.00,-41.03 34.92,-41.10 34.86,-41.19 34.81,-41.28 34.81,-41.28 34.81,-41.28 33.76,-42.22 32.71,-43.16 31.79,-43.50 30.86,-43.84 29.99,-44.21 29.11,-44.58 28.29,-44.85 27.47,-45.12 26.78,-45.30 26.10,-45.48 25.50,-45.24 24.89,-45.00 24.72,-44.28 24.54,-43.57 24.15,-42.72 23.76,-41.88 23.39,-40.27 23.01,-38.65 22.72,-36.62 22.43,-34.59 22.35,-32.68 22.28,-30.77 22.08,-28.76 21.89,-26.74 21.45,-24.67 21.02,-22.59 20.60,-20.61 20.18,-18.64 19.35,-16.87 18.53,-15.10 17.74,-13.22 16.96,-11.34 15.81,-9.58 14.66,-7.81 13.28,-6.28 11.90,-4.74 9.95,-3.04 8.00,-1.35 6.69,-0.58 5.39,0.18 4.03,0.76 2.68,1.33 1.34,1.10 0,0.87 -0.10,0.86 -0.21,0.85 -0.30,0.81 -0.40,0.77 -0.49,0.71 -0.58,0.65 -0.65,0.57 -0.72,0.49 -0.77,0.40 -0.82,0.31 -0.84,0.20 -0.87,0.10 -0.87,-0.00 -0.87,-0.10 -0.84,-0.20 -0.82,-0.31 -0.77,-0.40 -0.72,-0.49 -0.65,-0.57 -0.58,-0.65 -0.49,-0.71 -0.40,-0.77 -0.30,-0.81 -0.21,-0.85 -0.10,-0.86 0.00,-0.87 0.00,-0.87 L 0,-0.87 Z"></path></g><g transform="translate(21.8673095703125 128.67320251464844) rotate(0 8.215835571289062 -2.28216552734375)" stroke="none"><path fill="#1971c2" d="M -0.13,-0.94 Q -0.13,-0.94 1.64,-1.57 3.43,-2.19 5.41,-2.76 7.39,-3.34 9.42,-3.59 11.46,-3.85 13.41,-4.36 15.36,-4.87 15.46,-4.89 15.56,-4.91 15.67,-4.89 15.77,-4.88 15.87,-4.83 15.96,-4.78 16.04,-4.71 16.11,-4.63 16.16,-4.54 16.21,-4.44 16.22,-4.34 16.24,-4.23 16.21,-4.13 16.19,-4.02 16.14,-3.93 16.09,-3.84 16.01,-3.77 15.93,-3.70 15.83,-3.66 15.73,-3.61 15.63,-3.61 15.52,-3.60 15.42,-3.62 15.32,-3.65 15.23,-3.71 15.14,-3.77 15.07,-3.85 15.01,-3.93 14.97,-4.03 14.93,-4.13 14.93,-4.24 14.93,-4.34 14.96,-4.45 14.99,-4.55 15.05,-4.63 15.12,-4.72 15.20,-4.78 15.29,-4.84 15.39,-4.87 15.49,-4.90 15.60,-4.90 15.71,-4.90 15.81,-4.86 15.90,-4.82 15.99,-4.76 16.07,-4.69 16.13,-4.60 16.18,-4.51 16.21,-4.41 16.23,-4.30 16.22,-4.20 16.22,-4.09 16.17,-3.99 16.13,-3.90 16.06,-3.82 15.99,-3.74 15.90,-3.69 15.80,-3.63 15.80,-3.63 15.80,-3.63 13.90,-2.75 12.01,-1.87 10.16,-1.06 8.32,-0.25 6.12,0.44 3.91,1.14 2.02,1.04 0.13,0.94 0.02,0.95 -0.09,0.95 -0.20,0.92 -0.32,0.90 -0.42,0.85 -0.52,0.80 -0.61,0.72 -0.70,0.65 -0.77,0.55 -0.83,0.46 -0.88,0.35 -0.92,0.24 -0.94,0.13 -0.95,0.02 -0.94,-0.09 -0.93,-0.20 -0.89,-0.31 -0.85,-0.42 -0.79,-0.52 -0.73,-0.62 -0.64,-0.69 -0.56,-0.77 -0.45,-0.83 -0.35,-0.88 -0.24,-0.91 -0.13,-0.94 -0.13,-0.94 L -0.13,-0.94 Z"></path></g><g transform="translate(55.643524169921875 110.41578674316406) rotate(0 -0.912872314453125 5.9336700439453125)" stroke="none"><path fill="#1971c2" d="M 0.89,0.29 Q 0.89,0.29 1.01,1.20 1.14,2.12 1.04,3.05 0.94,3.98 -0.02,7.24 -0.98,10.50 -1.01,10.60 -1.04,10.70 -1.10,10.79 -1.16,10.87 -1.25,10.93 -1.33,11.00 -1.43,11.03 -1.54,11.06 -1.64,11.06 -1.75,11.05 -1.85,11.02 -1.95,10.98 -2.03,10.91 -2.11,10.85 -2.17,10.76 -2.23,10.67 -2.25,10.57 -2.28,10.46 -2.27,10.36 -2.26,10.25 -2.22,10.15 -2.18,10.06 -2.11,9.98 -2.04,9.90 -1.95,9.85 -1.85,9.79 -1.75,9.77 -1.65,9.75 -1.54,9.77 -1.43,9.78 -1.34,9.83 -1.24,9.87 -1.17,9.95 -1.09,10.02 -1.05,10.12 -1.00,10.21 -0.98,10.32 -0.97,10.42 -0.99,10.53 -1.01,10.63 -1.06,10.73 -1.11,10.82 -1.19,10.89 -1.27,10.96 -1.37,11.00 -1.47,11.05 -1.57,11.05 -1.68,11.06 -1.78,11.04 -1.88,11.01 -1.97,10.96 -2.06,10.90 -2.13,10.82 -2.20,10.73 -2.23,10.63 -2.27,10.53 -2.27,10.43 -2.28,10.32 -2.28,10.32 -2.28,10.32 -2.35,6.98 -2.43,3.65 -2.31,2.33 -2.19,1.02 -1.54,0.36 -0.89,-0.29 -0.84,-0.40 -0.79,-0.50 -0.72,-0.59 -0.65,-0.68 -0.56,-0.74 -0.47,-0.81 -0.36,-0.86 -0.26,-0.90 -0.15,-0.92 -0.03,-0.94 0.07,-0.93 0.18,-0.92 0.29,-0.88 0.40,-0.85 0.50,-0.79 0.59,-0.73 0.67,-0.64 0.75,-0.56 0.81,-0.46 0.86,-0.37 0.90,-0.26 0.93,-0.15 0.93,-0.03 0.94,0.07 0.91,0.18 0.89,0.29 0.89,0.29 L 0.89,0.29 Z"></path></g><g transform="translate(67.5108642578125 124.10887145996094) rotate(0 -2.2821807861328125 9.128707885742188)" stroke="none"><path fill="#1971c2" d="M 0.49,0.74 Q 0.49,0.74 -0.04,1.62 -0.57,2.51 -1.25,3.36 -1.92,4.21 -2.44,5.26 -2.96,6.31 -3.43,7.76 -3.91,9.21 -4.39,10.64 -4.87,12.07 -4.79,13.14 -4.70,14.22 -4.33,14.99 -3.96,15.76 -2.55,16.23 -1.14,16.71 0.36,16.34 1.87,15.97 1.98,15.96 2.08,15.95 2.19,15.98 2.29,16.00 2.38,16.06 2.47,16.11 2.54,16.20 2.61,16.28 2.64,16.38 2.68,16.48 2.69,16.58 2.69,16.69 2.66,16.79 2.63,16.89 2.57,16.98 2.51,17.07 2.42,17.13 2.34,17.19 2.23,17.22 2.13,17.26 2.03,17.26 1.92,17.25 1.82,17.22 1.72,17.18 1.64,17.12 1.55,17.05 1.50,16.96 1.44,16.87 1.41,16.77 1.38,16.67 1.39,16.56 1.40,16.46 1.44,16.36 1.48,16.26 1.55,16.18 1.62,16.10 1.71,16.05 1.80,15.99 1.91,15.97 2.01,15.95 2.12,15.96 2.22,15.98 2.32,16.02 2.42,16.07 2.49,16.14 2.57,16.22 2.62,16.31 2.66,16.41 2.68,16.51 2.69,16.62 2.68,16.72 2.66,16.83 2.60,16.92 2.55,17.01 2.48,17.09 2.40,17.16 2.30,17.20 2.20,17.24 2.20,17.24 2.20,17.24 0.56,17.70 -1.08,18.15 -2.77,18.47 -4.46,18.79 -5.62,18.11 -6.78,17.43 -7.51,15.96 -8.23,14.48 -8.26,12.75 -8.29,11.01 -7.79,9.54 -7.30,8.06 -6.71,6.37 -6.13,4.68 -5.39,3.30 -4.66,1.92 -3.61,0.75 -2.57,-0.41 -1.53,-0.57 -0.49,-0.74 -0.39,-0.79 -0.30,-0.83 -0.19,-0.86 -0.09,-0.88 0.01,-0.88 0.12,-0.88 0.22,-0.85 0.32,-0.82 0.42,-0.77 0.51,-0.72 0.59,-0.65 0.67,-0.58 0.73,-0.49 0.79,-0.40 0.83,-0.30 0.86,-0.19 0.88,-0.09 0.89,0.01 0.87,0.12 0.86,0.22 0.82,0.32 0.78,0.42 0.72,0.51 0.65,0.60 0.57,0.67 0.49,0.74 0.49,0.74 L 0.49,0.74 Z"></path></g><g transform="translate(78.46530151367188 126.84748840332031) rotate(0 3.6514892578125 4.5643463134765625)" stroke="none"><path fill="#1971c2" d="M -0.40,-0.81 Q -0.40,-0.81 0.54,-1.53 1.50,-2.26 2.61,-2.55 3.73,-2.84 4.78,-2.96 5.82,-3.08 6.89,-2.71 7.96,-2.35 8.54,-1.47 9.12,-0.59 9.30,0.06 9.48,0.72 9.56,2.16 9.64,3.61 9.08,5.00 8.53,6.38 8.04,7.39 7.56,8.39 6.67,9.29 5.78,10.19 4.50,10.85 3.22,11.51 1.01,11.09 -1.20,10.66 -1.26,10.58 -1.33,10.50 -1.36,10.40 -1.40,10.30 -1.40,10.19 -1.41,10.08 -1.37,9.98 -1.34,9.88 -1.28,9.79 -1.22,9.71 -1.13,9.65 -1.04,9.59 -0.94,9.55 -0.84,9.52 -0.73,9.53 -0.63,9.53 -0.53,9.57 -0.43,9.60 -0.35,9.67 -0.26,9.74 -0.21,9.83 -0.15,9.92 -0.13,10.02 -0.10,10.12 -0.11,10.23 -0.12,10.34 -0.16,10.43 -0.20,10.53 -0.27,10.61 -0.35,10.69 -0.44,10.74 -0.53,10.79 -0.64,10.81 -0.74,10.83 -0.85,10.82 -0.95,10.80 -1.05,10.75 -1.14,10.71 -1.22,10.63 -1.29,10.56 -1.34,10.46 -1.38,10.36 -1.40,10.26 -1.41,10.15 -1.39,10.05 -1.37,9.95 -1.32,9.85 -1.26,9.76 -1.19,9.69 -1.11,9.62 -1.01,9.58 -0.91,9.54 -0.80,9.53 -0.70,9.52 -0.60,9.55 -0.49,9.57 -0.40,9.63 -0.31,9.69 -0.31,9.69 -0.31,9.69 0.76,9.22 1.84,8.76 2.75,8.32 3.66,7.87 4.23,7.42 4.79,6.96 5.26,6.01 5.73,5.06 6.18,4.32 6.63,3.57 6.61,2.47 6.58,1.37 6.29,0.54 6.00,-0.28 5.17,-0.21 4.34,-0.15 3.52,0.00 2.69,0.16 1.55,0.48 0.40,0.81 0.30,0.84 0.19,0.88 0.09,0.89 -0.01,0.90 -0.12,0.89 -0.23,0.87 -0.33,0.83 -0.43,0.79 -0.52,0.73 -0.61,0.66 -0.68,0.58 -0.75,0.50 -0.80,0.40 -0.85,0.30 -0.87,0.19 -0.90,0.09 -0.89,-0.01 -0.89,-0.12 -0.86,-0.23 -0.84,-0.33 -0.78,-0.43 -0.73,-0.52 -0.66,-0.60 -0.58,-0.69 -0.49,-0.75 -0.40,-0.81 -0.40,-0.81 L -0.40,-0.81 Z"></path></g><g transform="translate(94.89697265625 125.93461608886719) rotate(0 -4.5643463134765625 6.846527099609375)" stroke="none"><path fill="#1971c2" d="M 0,0.81 Q 0,0.81 -0.77,1.22 -1.55,1.63 -2.16,1.89 -2.78,2.15 -3.49,2.93 -4.21,3.71 -4.64,4.44 -5.06,5.17 -5.51,6.01 -5.96,6.84 -6.36,8.10 -6.75,9.35 -6.69,10.10 -6.62,10.85 -5.76,11.45 -4.90,12.05 -3.00,11.76 -1.09,11.47 -0.99,11.46 -0.88,11.45 -0.78,11.48 -0.68,11.50 -0.59,11.56 -0.50,11.61 -0.43,11.70 -0.36,11.78 -0.32,11.88 -0.28,11.98 -0.28,12.08 -0.28,12.19 -0.31,12.29 -0.34,12.39 -0.40,12.48 -0.46,12.57 -0.54,12.63 -0.63,12.69 -0.73,12.72 -0.83,12.76 -0.94,12.76 -1.04,12.75 -1.14,12.72 -1.24,12.68 -1.33,12.62 -1.41,12.55 -1.47,12.46 -1.53,12.38 -1.55,12.27 -1.58,12.17 -1.57,12.06 -1.57,11.96 -1.53,11.86 -1.49,11.76 -1.42,11.68 -1.35,11.60 -1.25,11.55 -1.16,11.49 -1.06,11.47 -0.95,11.45 -0.85,11.46 -0.74,11.48 -0.65,11.52 -0.55,11.57 -0.48,11.64 -0.40,11.72 -0.35,11.81 -0.30,11.91 -0.29,12.01 -0.27,12.12 -0.29,12.22 -0.31,12.33 -0.36,12.42 -0.41,12.51 -0.49,12.58 -0.57,12.66 -0.66,12.70 -0.76,12.74 -0.76,12.74 -0.76,12.74 -3.09,13.57 -5.42,14.39 -6.88,14.03 -8.35,13.68 -9.17,12.52 -9.99,11.36 -10.06,9.86 -10.13,8.35 -9.60,6.76 -9.07,5.18 -8.58,4.27 -8.09,3.36 -7.54,2.46 -7.00,1.56 -6.23,0.68 -5.46,-0.18 -4.63,-0.64 -3.80,-1.10 -2.69,-1.36 -1.59,-1.63 -0.79,-1.22 0,-0.81 0.09,-0.80 0.19,-0.79 0.28,-0.75 0.37,-0.72 0.45,-0.66 0.54,-0.60 0.60,-0.53 0.67,-0.46 0.71,-0.37 0.76,-0.28 0.78,-0.19 0.80,-0.09 0.80,0.00 0.80,0.09 0.78,0.19 0.76,0.28 0.71,0.37 0.67,0.46 0.60,0.53 0.53,0.60 0.45,0.66 0.37,0.72 0.28,0.75 0.19,0.79 0.09,0.80 -0.00,0.81 -0.00,0.81 L 0,0.81 Z"></path></g><g transform="translate(98.5484619140625 120.45738220214844) rotate(0 6.3900909423828125 12.780197143554688)" stroke="none"><path fill="#1971c2" d="M 0.29,-0.87 Q 0.29,-0.87 1.14,-0.81 1.99,-0.75 2.99,-0.69 4.00,-0.63 5.27,-0.00 6.54,0.62 7.52,1.10 8.49,1.59 9.67,3.05 10.86,4.50 11.62,6.24 12.39,7.98 12.96,9.49 13.52,11.00 13.57,13.21 13.61,15.42 13.61,16.51 13.60,17.59 13.32,19.02 13.03,20.45 12.30,21.76 11.56,23.07 10.99,24.06 10.41,25.06 9.33,25.72 8.25,26.38 5.64,25.89 3.03,25.40 2.93,25.35 2.84,25.31 2.76,25.24 2.68,25.17 2.63,25.08 2.58,24.98 2.56,24.88 2.54,24.77 2.55,24.67 2.57,24.56 2.62,24.47 2.66,24.37 2.74,24.30 2.81,24.22 2.91,24.18 3.01,24.13 3.11,24.12 3.22,24.10 3.32,24.12 3.42,24.15 3.52,24.20 3.61,24.25 3.68,24.33 3.75,24.41 3.79,24.51 3.83,24.61 3.84,24.71 3.85,24.82 3.82,24.92 3.80,25.02 3.74,25.11 3.68,25.20 3.60,25.27 3.51,25.33 3.41,25.37 3.31,25.41 3.21,25.41 3.10,25.41 3.00,25.38 2.90,25.35 2.81,25.28 2.73,25.22 2.67,25.13 2.60,25.05 2.57,24.95 2.54,24.84 2.55,24.74 2.55,24.63 2.59,24.53 2.62,24.43 2.69,24.35 2.76,24.27 2.85,24.21 2.94,24.16 3.04,24.13 3.15,24.11 3.25,24.11 3.36,24.12 3.36,24.12 3.36,24.12 5.47,23.65 7.59,23.18 8.08,22.22 8.58,21.27 9.12,20.47 9.66,19.67 9.91,18.60 10.16,17.53 10.19,16.45 10.21,15.37 10.32,13.71 10.42,12.06 9.91,10.64 9.39,9.23 8.84,7.79 8.30,6.35 7.62,5.28 6.95,4.21 6.02,3.68 5.09,3.16 4.36,2.64 3.63,2.12 2.39,1.96 1.15,1.80 0.43,1.33 -0.29,0.87 -0.39,0.82 -0.49,0.77 -0.57,0.70 -0.66,0.63 -0.73,0.55 -0.79,0.46 -0.84,0.35 -0.88,0.25 -0.90,0.14 -0.92,0.03 -0.91,-0.07 -0.90,-0.18 -0.86,-0.28 -0.83,-0.39 -0.77,-0.48 -0.71,-0.58 -0.63,-0.65 -0.55,-0.73 -0.45,-0.79 -0.36,-0.84 -0.25,-0.87 -0.14,-0.90 -0.03,-0.91 0.07,-0.91 0.18,-0.89 0.29,-0.87 0.29,-0.87 L 0.29,-0.87 Z"></path></g><g transform="translate(127.76034545898438 131.4118194580078) rotate(0 4.10791015625 0.4564361572265625)" stroke="none"><path fill="#1971c2" d="M 0,-1.01 Q 0,-1.01 1.31,-1.35 2.63,-1.69 3.88,-1.28 5.12,-0.87 6.93,-0.32 8.74,0.22 8.84,0.25 8.95,0.27 9.04,0.33 9.13,0.38 9.20,0.47 9.26,0.55 9.30,0.65 9.34,0.75 9.34,0.85 9.35,0.96 9.32,1.06 9.29,1.16 9.23,1.25 9.17,1.34 9.08,1.40 8.99,1.46 8.89,1.50 8.79,1.53 8.69,1.53 8.58,1.52 8.48,1.49 8.38,1.45 8.30,1.39 8.21,1.32 8.15,1.23 8.10,1.14 8.07,1.04 8.04,0.94 8.05,0.83 8.06,0.73 8.10,0.63 8.14,0.53 8.21,0.45 8.28,0.37 8.37,0.32 8.46,0.26 8.57,0.24 8.67,0.22 8.78,0.24 8.88,0.25 8.98,0.29 9.07,0.34 9.15,0.41 9.22,0.49 9.27,0.58 9.32,0.68 9.34,0.78 9.35,0.89 9.33,0.99 9.31,1.10 9.26,1.19 9.21,1.28 9.13,1.36 9.06,1.43 8.96,1.47 8.86,1.51 8.76,1.52 8.65,1.53 8.65,1.53 8.65,1.53 6.55,1.73 4.45,1.92 3.53,1.81 2.61,1.69 1.30,1.35 0,1.01 -0.12,0.99 -0.24,0.98 -0.35,0.93 -0.46,0.89 -0.56,0.82 -0.67,0.75 -0.75,0.66 -0.83,0.57 -0.88,0.46 -0.94,0.35 -0.97,0.24 -1.00,0.12 -1.00,-0.00 -1.00,-0.12 -0.97,-0.24 -0.94,-0.35 -0.88,-0.46 -0.83,-0.57 -0.75,-0.66 -0.67,-0.75 -0.56,-0.82 -0.46,-0.89 -0.35,-0.93 -0.24,-0.98 -0.12,-0.99 0.00,-1.01 0.00,-1.01 L 0,-1.01 Z"></path></g><g transform="translate(130.49893188476562 143.27915954589844) rotate(0 6.390106201171875 0.4564361572265625)" stroke="none"><path fill="#1971c2" d="M 0,-1.07 Q 0,-1.07 1.31,-1.46 2.62,-1.84 3.97,-1.80 5.32,-1.75 6.81,-1.31 8.29,-0.86 10.13,-0.33 11.97,0.18 12.07,0.21 12.18,0.23 12.27,0.29 12.36,0.35 12.42,0.43 12.49,0.51 12.53,0.61 12.56,0.71 12.57,0.82 12.57,0.93 12.54,1.03 12.51,1.13 12.44,1.22 12.38,1.30 12.30,1.36 12.21,1.43 12.11,1.46 12.01,1.49 11.90,1.49 11.79,1.48 11.69,1.45 11.59,1.41 11.51,1.34 11.43,1.28 11.37,1.19 11.31,1.10 11.29,0.99 11.26,0.89 11.27,0.78 11.28,0.68 11.32,0.58 11.36,0.48 11.44,0.40 11.51,0.33 11.60,0.27 11.69,0.22 11.80,0.20 11.90,0.18 12.01,0.20 12.11,0.21 12.21,0.26 12.30,0.30 12.38,0.38 12.45,0.45 12.50,0.55 12.55,0.65 12.56,0.75 12.57,0.86 12.55,0.96 12.53,1.06 12.48,1.16 12.43,1.25 12.35,1.32 12.27,1.39 12.17,1.43 12.08,1.48 11.97,1.48 11.86,1.49 11.86,1.49 11.86,1.49 9.81,1.70 7.76,1.91 6.53,1.83 5.30,1.75 3.96,1.80 2.62,1.84 1.31,1.46 0,1.07 -0.12,1.05 -0.25,1.04 -0.37,0.99 -0.49,0.95 -0.60,0.87 -0.71,0.80 -0.79,0.70 -0.88,0.61 -0.94,0.49 -1.00,0.38 -1.03,0.25 -1.06,0.12 -1.06,-0.00 -1.06,-0.12 -1.03,-0.25 -1.00,-0.38 -0.94,-0.49 -0.88,-0.61 -0.79,-0.70 -0.71,-0.80 -0.60,-0.87 -0.49,-0.95 -0.37,-0.99 -0.25,-1.04 -0.12,-1.05 0.00,-1.07 0.00,-1.07 L 0,-1.07 Z"></path></g><g transform="translate(159.7108154296875 120.45738220214844) rotate(0 9.12872314453125 13.236618041992188)" stroke="none"><path fill="#1971c2" d="M -0.16,-0.84 Q -0.16,-0.84 1.07,-1.44 2.32,-2.04 3.47,-2.17 4.62,-2.30 5.92,-2.36 7.22,-2.42 8.55,-2.45 9.89,-2.48 11.24,-2.50 12.60,-2.52 13.72,-2.52 14.83,-2.53 15.82,-2.23 16.81,-1.92 17.39,-1.83 17.97,-1.73 18.15,-1.64 18.33,-1.55 18.48,-1.42 18.63,-1.29 18.75,-1.13 18.87,-0.96 18.94,-0.78 19.02,-0.59 19.05,-0.39 19.08,-0.19 19.05,0.00 19.03,0.20 18.97,0.39 18.90,0.58 18.79,0.75 18.68,0.91 18.53,1.05 18.38,1.19 18.20,1.28 18.03,1.38 17.83,1.43 17.64,1.48 17.44,1.49 17.24,1.49 17.04,1.45 16.84,1.40 18.02,1.04 19.19,0.67 18.95,1.43 18.71,2.19 17.70,3.80 16.69,5.41 16.00,6.32 15.31,7.23 14.59,8.53 13.86,9.84 13.27,10.94 12.68,12.05 11.87,13.37 11.06,14.69 10.48,15.71 9.91,16.74 9.41,17.69 8.91,18.65 8.44,19.58 7.97,20.51 7.50,21.44 7.04,22.36 6.51,23.13 5.97,23.90 5.23,24.85 4.48,25.81 3.02,26.30 1.56,26.79 1.52,26.86 1.48,26.93 1.43,26.99 1.38,27.05 1.31,27.09 1.24,27.13 1.17,27.16 1.09,27.18 1.02,27.19 0.94,27.20 0.86,27.19 0.78,27.18 0.71,27.15 0.63,27.12 0.57,27.07 0.51,27.02 0.45,26.96 0.40,26.90 0.37,26.83 0.33,26.76 0.32,26.68 0.30,26.61 0.30,26.53 0.30,26.45 0.32,26.37 0.35,26.29 0.33,26.49 0.31,26.69 0.31,26.58 0.30,26.48 0.33,26.37 0.36,26.27 0.42,26.18 0.47,26.09 0.56,26.03 0.64,25.96 0.74,25.93 0.84,25.90 0.95,25.90 1.06,25.89 1.16,25.93 1.26,25.96 1.34,26.03 1.43,26.09 1.49,26.18 1.55,26.26 1.58,26.37 1.61,26.47 1.60,26.58 1.60,26.68 1.56,26.78 1.52,26.88 1.45,26.96 1.38,27.04 1.29,27.10 1.20,27.15 1.10,27.18 0.99,27.20 0.89,27.19 0.78,27.18 0.68,27.13 0.59,27.09 0.51,27.02 0.43,26.94 0.38,26.85 0.33,26.76 0.31,26.65 0.30,26.55 0.31,26.44 0.33,26.34 0.38,26.24 0.43,26.15 0.51,26.07 0.58,26.00 0.68,25.96 0.77,25.91 0.88,25.90 0.99,25.89 1.09,25.91 1.19,25.93 1.28,25.99 1.38,26.04 1.45,26.12 1.51,26.20 1.54,26.50 1.56,26.79 1.52,26.86 1.48,26.93 1.43,26.99 1.38,27.05 1.31,27.09 1.24,27.13 1.17,27.16 1.09,27.18 1.02,27.19 0.94,27.20 0.86,27.19 0.78,27.18 0.71,27.15 0.63,27.12 0.57,27.07 0.51,27.02 0.45,26.96 0.40,26.90 0.37,26.83 0.33,26.76 0.32,26.68 0.30,26.61 0.30,26.53 0.30,26.45 0.32,26.37 0.35,26.29 0.74,25.28 1.13,24.26 1.67,23.61 2.20,22.97 2.44,22.30 2.68,21.63 3.07,21.08 3.46,20.54 3.93,19.62 4.40,18.69 4.89,17.74 5.39,16.79 5.92,15.80 6.45,14.80 7.06,13.70 7.67,12.60 8.42,11.39 9.17,10.17 9.79,9.03 10.40,7.88 11.27,6.36 12.15,4.84 12.75,4.04 13.35,3.24 14.15,2.07 14.94,0.89 15.25,0.04 15.55,-0.81 16.76,-1.27 17.97,-1.73 18.15,-1.64 18.33,-1.55 18.48,-1.42 18.63,-1.29 18.75,-1.13 18.87,-0.96 18.94,-0.78 19.02,-0.59 19.05,-0.39 19.08,-0.19 19.05,0.00 19.03,0.20 18.97,0.39 18.90,0.58 18.79,0.75 18.68,0.91 18.53,1.05 18.38,1.19 18.20,1.28 18.03,1.38 17.83,1.43 17.64,1.48 17.44,1.49 17.24,1.49 17.04,1.45 16.84,1.40 15.81,1.06 14.78,0.71 13.70,0.71 12.62,0.72 11.28,0.71 9.94,0.71 8.64,0.72 7.34,0.74 6.14,0.77 4.95,0.80 3.93,0.90 2.92,0.99 1.54,0.92 0.16,0.84 0.06,0.85 -0.03,0.86 -0.14,0.84 -0.24,0.82 -0.33,0.78 -0.43,0.74 -0.51,0.68 -0.60,0.62 -0.66,0.53 -0.73,0.45 -0.77,0.36 -0.82,0.27 -0.84,0.16 -0.86,0.06 -0.85,-0.03 -0.85,-0.14 -0.82,-0.24 -0.79,-0.34 -0.74,-0.43 -0.68,-0.52 -0.61,-0.59 -0.54,-0.67 -0.45,-0.72 -0.36,-0.78 -0.26,-0.81 -0.16,-0.84 -0.16,-0.84 L -0.16,-0.84 Z"></path></g><g transform="translate(220.8731689453125 132.32469177246094) rotate(0 5.020782470703125 4.1079254150390625)" stroke="none"><path fill="#1971c2" d="M -0.67,-0.33 Q -0.67,-0.33 -0.63,-1.14 -0.60,-1.95 0.34,-2.45 1.29,-2.95 2.53,-3.09 3.77,-3.24 4.78,-3.29 5.79,-3.34 6.48,-3.36 7.17,-3.38 7.78,-3.39 8.38,-3.39 9.22,-3.06 10.06,-2.72 10.71,-2.20 11.36,-1.67 11.79,-0.65 12.22,0.35 12.33,1.35 12.44,2.35 12.18,3.29 11.91,4.24 11.22,5.43 10.53,6.62 9.84,7.26 9.15,7.91 8.67,8.35 8.19,8.79 6.67,9.40 5.16,10.02 4.14,10.46 3.12,10.89 1.66,9.91 0.20,8.93 0.12,8.95 0.05,8.98 -0.02,8.98 -0.10,8.98 -0.18,8.97 -0.26,8.95 -0.33,8.92 -0.40,8.89 -0.46,8.84 -0.52,8.79 -0.57,8.72 -0.62,8.66 -0.65,8.59 -0.68,8.51 -0.69,8.44 -0.71,8.36 -0.70,8.28 -0.69,8.20 -0.67,8.12 -0.64,8.05 -0.60,7.98 -0.56,7.92 -0.50,7.86 -0.45,7.81 -0.38,7.77 -0.31,7.73 -0.42,7.80 -0.53,7.88 -0.44,7.81 -0.36,7.75 -0.26,7.72 -0.16,7.68 -0.05,7.68 0.05,7.68 0.15,7.71 0.25,7.75 0.33,7.81 0.42,7.88 0.48,7.96 0.54,8.05 0.56,8.15 0.59,8.26 0.59,8.36 0.58,8.47 0.54,8.57 0.50,8.67 0.44,8.75 0.37,8.83 0.28,8.88 0.19,8.94 0.08,8.96 -0.01,8.98 -0.12,8.97 -0.22,8.96 -0.32,8.92 -0.42,8.87 -0.49,8.80 -0.57,8.73 -0.62,8.63 -0.67,8.54 -0.69,8.44 -0.71,8.33 -0.69,8.23 -0.67,8.12 -0.62,8.03 -0.57,7.93 -0.50,7.86 -0.42,7.79 -0.32,7.74 -0.23,7.70 -0.12,7.69 -0.02,7.67 0.08,7.70 0.18,7.72 0.27,7.77 0.36,7.83 0.43,7.91 0.50,7.99 0.54,8.09 0.58,8.19 0.59,8.29 0.59,8.40 0.57,8.50 0.54,8.60 0.37,8.77 0.20,8.93 0.12,8.95 0.05,8.98 -0.02,8.98 -0.10,8.98 -0.18,8.97 -0.25,8.95 -0.33,8.92 -0.40,8.89 -0.46,8.84 -0.52,8.79 -0.57,8.72 -0.62,8.66 -0.65,8.59 -0.68,8.51 -0.69,8.44 -0.71,8.36 -0.70,8.28 -0.69,8.20 -0.67,8.12 -0.64,8.05 -0.60,7.98 -0.56,7.92 -0.50,7.86 -0.45,7.81 -0.38,7.77 -0.31,7.73 0.75,7.78 1.82,7.83 2.92,7.36 4.02,6.88 5.02,6.59 6.02,6.30 6.87,5.59 7.73,4.88 8.46,3.71 9.20,2.54 9.14,1.90 9.08,1.27 8.81,0.70 8.55,0.13 7.90,-0.03 7.25,-0.21 6.59,-0.20 5.92,-0.19 4.99,-0.16 4.05,-0.12 2.85,-0.13 1.65,-0.14 1.16,0.09 0.67,0.33 0.62,0.41 0.57,0.48 0.50,0.54 0.43,0.61 0.35,0.65 0.28,0.69 0.19,0.72 0.10,0.74 0.01,0.74 -0.07,0.74 -0.16,0.72 -0.25,0.70 -0.33,0.66 -0.41,0.62 -0.48,0.56 -0.55,0.50 -0.60,0.43 -0.65,0.36 -0.69,0.27 -0.72,0.19 -0.73,0.10 -0.75,0.01 -0.74,-0.07 -0.73,-0.16 -0.70,-0.25 -0.67,-0.33 -0.67,-0.33 L -0.67,-0.33 Z"></path></g><g transform="translate(242.78204345703125 126.84748840332031) rotate(0 -5.020782470703125 6.846527099609375)" stroke="none"><path fill="#1971c2" d="M 0,0.70 Q 0,0.70 -1.04,1.23 -2.09,1.75 -2.79,1.77 -3.49,1.78 -4.00,1.99 -4.52,2.20 -5.06,2.90 -5.60,3.60 -6.23,4.25 -6.87,4.90 -7.28,5.55 -7.70,6.20 -7.81,6.80 -7.92,7.39 -8.00,8.39 -8.07,9.39 -8.16,10.25 -8.24,11.10 -7.62,11.47 -7.00,11.85 -5.93,11.91 -4.85,11.98 -3.24,12.07 -1.64,12.16 -1.53,12.17 -1.43,12.18 -1.33,12.22 -1.23,12.27 -1.16,12.34 -1.08,12.42 -1.03,12.51 -0.98,12.60 -0.96,12.71 -0.95,12.81 -0.96,12.92 -0.98,13.02 -1.03,13.12 -1.08,13.21 -1.16,13.28 -1.23,13.36 -1.33,13.40 -1.43,13.44 -1.53,13.46 -1.64,13.47 -1.74,13.44 -1.85,13.42 -1.94,13.37 -2.03,13.31 -2.10,13.23 -2.17,13.15 -2.20,13.05 -2.24,12.95 -2.25,12.85 -2.25,12.74 -2.23,12.64 -2.20,12.54 -2.14,12.45 -2.08,12.36 -1.99,12.30 -1.91,12.23 -1.81,12.20 -1.71,12.16 -1.60,12.16 -1.49,12.16 -1.39,12.20 -1.29,12.23 -1.21,12.30 -1.12,12.36 -1.06,12.45 -1.01,12.54 -0.98,12.64 -0.95,12.74 -0.95,12.85 -0.96,12.95 -1.00,13.05 -1.04,13.15 -1.11,13.23 -1.18,13.31 -1.27,13.37 -1.36,13.42 -1.46,13.44 -1.57,13.47 -1.57,13.47 -1.57,13.47 -3.11,13.72 -4.65,13.97 -6.30,14.32 -7.96,14.66 -9.10,14.21 -10.24,13.77 -10.97,12.61 -11.71,11.45 -11.71,10.27 -11.72,9.09 -11.60,7.78 -11.48,6.47 -11.14,5.34 -10.80,4.21 -10.15,3.26 -9.50,2.32 -8.87,1.68 -8.23,1.04 -7.02,-0.05 -5.81,-1.15 -4.67,-1.47 -3.54,-1.78 -2.82,-1.77 -2.09,-1.75 -1.04,-1.23 0,-0.70 0.08,-0.69 0.16,-0.68 0.24,-0.65 0.32,-0.62 0.39,-0.57 0.47,-0.53 0.52,-0.46 0.58,-0.40 0.62,-0.32 0.66,-0.25 0.68,-0.16 0.70,-0.08 0.70,0.00 0.70,0.08 0.68,0.16 0.66,0.25 0.62,0.32 0.58,0.40 0.52,0.46 0.47,0.53 0.39,0.57 0.32,0.62 0.24,0.65 0.16,0.68 0.08,0.69 -0.00,0.70 -0.00,0.70 L 0,0.70 Z"></path></g><g transform="translate(251.9107666015625 104.02571105957031) rotate(0 4.564361572265625 9.58514404296875)" stroke="none"><path fill="#1971c2" d="M -0.47,-0.71 Q -0.47,-0.71 0.16,-1.50 0.79,-2.28 2.16,-2.62 3.52,-2.95 4.36,-3.05 5.19,-3.15 6.09,-2.90 6.98,-2.64 8.09,-1.98 9.19,-1.32 9.42,-0.61 9.64,0.09 9.41,1.15 9.17,2.21 8.79,3.11 8.40,4.01 7.63,5.06 6.86,6.10 6.00,7.05 5.14,8.00 4.55,8.18 3.96,8.37 4.14,7.86 4.32,7.34 4.97,7.77 5.62,8.20 6.83,8.27 8.04,8.35 8.92,8.71 9.80,9.06 10.95,9.59 12.10,10.11 12.58,10.92 13.06,11.72 12.93,12.86 12.80,14.00 12.38,14.78 11.96,15.55 11.24,16.64 10.53,17.72 9.45,18.40 8.38,19.09 7.50,19.55 6.62,20.01 5.72,20.46 4.81,20.92 4.03,21.16 3.24,21.40 2.02,21.46 0.80,21.53 -0.71,21.54 -2.24,21.55 -2.34,21.56 -2.45,21.56 -2.55,21.54 -2.65,21.51 -2.74,21.45 -2.83,21.39 -2.89,21.31 -2.96,21.22 -2.99,21.12 -3.03,21.02 -3.03,20.91 -3.03,20.81 -2.99,20.71 -2.96,20.61 -2.90,20.52 -2.83,20.44 -2.74,20.38 -2.66,20.32 -2.55,20.29 -2.45,20.26 -2.35,20.26 -2.24,20.27 -2.14,20.31 -2.04,20.35 -1.96,20.42 -1.88,20.49 -1.82,20.58 -1.77,20.67 -1.75,20.77 -1.72,20.87 -1.73,20.98 -1.75,21.09 -1.79,21.18 -1.83,21.28 -1.91,21.36 -1.98,21.43 -2.07,21.48 -2.17,21.53 -2.27,21.55 -2.38,21.57 -2.48,21.55 -2.59,21.53 -2.68,21.49 -2.77,21.44 -2.85,21.36 -2.92,21.28 -2.97,21.19 -3.01,21.09 -3.02,20.98 -3.03,20.88 -3.01,20.77 -2.99,20.67 -2.93,20.58 -2.88,20.49 -2.80,20.42 -2.72,20.35 -2.62,20.31 -2.52,20.27 -2.52,20.27 -2.52,20.27 -1.00,19.33 0.50,18.38 1.90,18.14 3.30,17.90 4.18,17.45 5.07,17.00 5.93,16.57 6.79,16.13 7.33,15.94 7.87,15.76 8.49,14.79 9.11,13.83 9.44,13.08 9.78,12.33 8.76,11.93 7.73,11.54 6.82,11.47 5.91,11.40 4.58,10.89 3.24,10.37 2.54,9.94 1.84,9.52 1.66,8.22 1.48,6.93 2.11,6.35 2.73,5.77 3.50,4.93 4.26,4.09 4.84,3.39 5.42,2.69 5.75,1.95 6.08,1.21 6.50,0.74 6.91,0.27 6.15,0.02 5.39,-0.21 4.75,-0.12 4.10,-0.04 3.22,0.07 2.35,0.19 1.41,0.45 0.47,0.71 0.38,0.75 0.28,0.80 0.18,0.82 0.08,0.84 -0.01,0.84 -0.11,0.84 -0.21,0.81 -0.31,0.79 -0.40,0.74 -0.49,0.69 -0.57,0.62 -0.64,0.55 -0.70,0.47 -0.76,0.38 -0.79,0.28 -0.83,0.19 -0.84,0.08 -0.85,-0.01 -0.84,-0.11 -0.82,-0.21 -0.78,-0.31 -0.74,-0.40 -0.68,-0.49 -0.63,-0.57 -0.55,-0.64 -0.47,-0.71 -0.47,-0.71 L -0.47,-0.71 Z"></path></g><g transform="translate(246.43353271484375 97.63560485839844) rotate(0 -19.1702880859375 8.215835571289062)" stroke="none"><path fill="#2f9e44" d="M -0.52,0.52 Q -0.52,0.52 -1.35,0.32 -2.17,0.13 -2.94,-0.56 -3.70,-1.25 -4.71,-1.53 -5.72,-1.82 -6.27,-1.86 -6.82,-1.89 -7.65,-1.91 -8.49,-1.93 -9.38,-1.93 -10.28,-1.93 -11.19,-1.93 -12.10,-1.93 -13.27,-1.57 -14.43,-1.22 -14.97,-1.16 -15.50,-1.11 -15.98,-0.63 -16.46,-0.14 -16.88,0.24 -17.30,0.64 -17.75,1.07 -18.19,1.50 -18.66,1.96 -19.13,2.42 -19.79,2.75 -20.45,3.07 -21.12,4.03 -21.78,4.98 -22.49,5.39 -23.20,5.81 -23.52,6.25 -23.84,6.69 -24.41,7.09 -24.97,7.50 -25.67,8.25 -26.37,9.01 -26.84,9.75 -27.30,10.50 -27.75,10.99 -28.20,11.48 -28.66,11.95 -29.11,12.42 -29.55,12.86 -30.00,13.30 -30.50,14.18 -31.01,15.05 -31.63,15.39 -32.24,15.74 -32.53,16.34 -32.82,16.95 -33.26,17.42 -33.70,17.90 -34.15,18.36 -34.60,18.82 -35.04,19.26 -35.47,19.70 -37.15,20.34 -38.83,20.98 -39.24,20.38 -39.64,19.77 -39.52,18.72 -39.41,17.67 -39.33,16.88 -39.25,16.09 -38.85,14.79 -38.45,13.49 -38.39,12.88 -38.32,12.28 -37.93,11.49 -37.53,10.71 -37.47,10.12 -37.41,9.53 -36.53,8.50 -35.66,7.48 -34.63,7.36 -33.61,7.24 -32.60,7.58 -31.60,7.92 -30.67,8.33 -29.75,8.74 -28.98,9.24 -28.22,9.74 -27.49,10.14 -26.77,10.54 -25.60,11.11 -24.43,11.67 -23.94,11.82 -23.45,11.97 -23.28,12.11 -23.12,12.25 -22.99,12.43 -22.86,12.61 -22.78,12.81 -22.70,13.01 -22.67,13.22 -22.64,13.44 -22.66,13.65 -22.69,13.87 -22.76,14.07 -22.83,14.28 -22.95,14.46 -23.07,14.64 -23.23,14.79 -23.39,14.94 -23.58,15.04 -23.77,15.14 -23.98,15.20 -24.19,15.26 -24.41,15.26 -24.63,15.26 -24.84,15.22 -25.05,15.17 -25.24,15.07 -25.44,14.97 -24.47,14.99 -23.51,15.00 -24.24,15.24 -24.96,15.49 -25.67,15.50 -26.37,15.52 -26.90,15.74 -27.44,15.96 -28.16,16.10 -28.89,16.25 -29.46,16.30 -30.02,16.35 -30.74,16.50 -31.45,16.65 -31.11,16.47 -30.78,16.29 -30.97,16.37 -31.15,16.45 -31.36,16.49 -31.56,16.52 -31.77,16.51 -31.97,16.49 -32.17,16.43 -32.37,16.36 -32.54,16.25 -32.72,16.15 -32.86,16.00 -33.01,15.85 -33.11,15.67 -33.21,15.49 -33.27,15.29 -33.33,15.10 -33.34,14.89 -33.35,14.68 -33.31,14.48 -33.27,14.28 -33.18,14.09 -33.10,13.90 -32.97,13.74 -32.84,13.58 -32.67,13.46 -32.51,13.33 -32.33,13.74 -32.16,14.15 -32.24,14.13 -32.31,14.10 -32.38,14.06 -32.44,14.02 -32.50,13.96 -32.55,13.90 -32.59,13.83 -32.63,13.76 -32.65,13.69 -32.67,13.61 -32.68,13.53 -32.68,13.45 -32.66,13.38 -32.65,13.30 -32.61,13.23 -32.58,13.16 -32.53,13.10 -32.48,13.03 -32.41,12.99 -32.35,12.94 -32.28,12.91 -32.20,12.88 -32.12,12.87 -32.05,12.85 -31.97,12.86 -31.89,12.87 -31.63,13.16 -31.37,13.45 -31.38,13.56 -31.38,13.66 -31.43,13.76 -31.47,13.86 -31.54,13.94 -31.61,14.02 -31.70,14.07 -31.79,14.12 -31.89,14.15 -32.00,14.17 -32.10,14.15 -32.21,14.14 -32.30,14.10 -32.40,14.05 -32.48,13.97 -32.55,13.90 -32.60,13.81 -32.65,13.71 -32.67,13.61 -32.68,13.50 -32.66,13.40 -32.64,13.29 -32.59,13.20 -32.54,13.11 -32.46,13.03 -32.38,12.96 -32.29,12.92 -32.19,12.88 -32.08,12.87 -31.98,12.86 -31.88,12.88 -31.77,12.90 -31.68,12.96 -31.59,13.02 -31.52,13.10 -31.46,13.18 -31.42,13.28 -31.38,13.38 -31.38,13.49 -31.37,13.59 -31.40,13.69 -31.43,13.80 -31.49,13.88 -31.55,13.97 -31.64,14.03 -31.73,14.10 -31.83,14.13 -31.93,14.16 -32.03,14.16 -32.14,14.16 -32.24,14.12 -32.34,14.09 -32.42,14.02 -32.51,13.96 -32.57,13.87 -32.62,13.78 -32.39,13.97 -32.16,14.15 -32.24,14.13 -32.31,14.10 -32.38,14.06 -32.44,14.02 -32.50,13.96 -32.55,13.90 -32.59,13.83 -32.63,13.76 -32.65,13.69 -32.67,13.61 -32.68,13.53 -32.68,13.45 -32.66,13.38 -32.65,13.30 -32.61,13.23 -32.58,13.16 -32.53,13.10 -32.48,13.03 -32.41,12.99 -32.35,12.94 -32.28,12.91 -32.20,12.88 -32.12,12.87 -32.05,12.85 -31.97,12.86 -31.89,12.87 -31.47,11.59 -31.06,10.32 -30.39,10.53 -29.72,10.75 -29.29,11.34 -28.86,11.92 -28.80,12.92 -28.74,13.93 -29.09,14.63 -29.44,15.33 -30.11,15.81 -30.78,16.29 -30.96,16.37 -31.15,16.45 -31.36,16.49 -31.56,16.52 -31.77,16.51 -31.97,16.49 -32.17,16.43 -32.37,16.36 -32.54,16.25 -32.72,16.15 -32.86,16.00 -33.01,15.85 -33.11,15.67 -33.21,15.49 -33.27,15.30 -33.33,15.10 -33.34,14.89 -33.35,14.68 -33.31,14.48 -33.27,14.28 -33.18,14.09 -33.10,13.90 -32.97,13.74 -32.84,13.58 -32.67,13.46 -32.51,13.33 -31.51,13.02 -30.51,12.71 -29.56,12.58 -28.61,12.45 -27.11,12.32 -25.61,12.19 -24.53,12.08 -23.45,11.97 -23.28,12.11 -23.12,12.25 -22.99,12.43 -22.86,12.61 -22.78,12.81 -22.70,13.01 -22.67,13.22 -22.64,13.44 -22.66,13.65 -22.69,13.87 -22.76,14.07 -22.83,14.28 -22.95,14.46 -23.07,14.64 -23.23,14.79 -23.39,14.94 -23.58,15.04 -23.77,15.14 -23.98,15.20 -24.19,15.26 -24.41,15.26 -24.63,15.26 -24.84,15.22 -25.05,15.17 -25.24,15.07 -25.44,14.97 -26.22,14.59 -27.00,14.20 -27.76,13.95 -28.51,13.70 -29.37,13.21 -30.23,12.72 -30.73,12.37 -31.22,12.02 -32.03,11.66 -32.83,11.29 -33.38,10.68 -33.94,10.07 -34.00,10.61 -34.06,11.16 -34.45,11.98 -34.84,12.80 -34.90,13.34 -34.95,13.88 -35.16,14.56 -35.36,15.25 -35.53,15.80 -35.70,16.36 -35.75,16.92 -35.79,17.48 -36.31,18.04 -36.82,18.61 -37.72,18.57 -38.61,18.54 -38.33,17.92 -38.05,17.29 -37.59,16.83 -37.14,16.36 -36.72,15.92 -36.30,15.49 -35.69,14.84 -35.09,14.20 -34.19,13.26 -33.29,12.32 -32.93,11.61 -32.57,10.90 -32.11,10.43 -31.65,9.96 -31.23,9.52 -30.80,9.08 -30.13,8.34 -29.45,7.60 -28.61,6.79 -27.77,5.99 -27.23,5.42 -26.70,4.85 -26.36,4.24 -26.02,3.63 -25.17,3.12 -24.33,2.60 -23.94,2.15 -23.54,1.70 -22.52,0.79 -21.51,-0.11 -21.06,-0.55 -20.62,-0.99 -20.15,-1.44 -19.68,-1.90 -19.19,-2.35 -18.69,-2.80 -18.14,-3.26 -17.58,-3.71 -16.79,-4.10 -16.00,-4.50 -15.39,-4.56 -14.77,-4.63 -13.43,-5.00 -12.10,-5.37 -11.18,-5.36 -10.27,-5.36 -9.34,-5.34 -8.41,-5.33 -7.42,-5.29 -6.43,-5.25 -5.86,-5.17 -5.28,-5.09 -4.46,-4.67 -3.63,-4.25 -3.06,-4.14 -2.49,-4.03 -1.84,-3.44 -1.20,-2.86 -0.56,-2.54 0.08,-2.23 0.30,-1.37 0.52,-0.52 0.58,-0.45 0.63,-0.38 0.67,-0.30 0.71,-0.22 0.72,-0.13 0.74,-0.04 0.73,0.04 0.73,0.13 0.70,0.22 0.68,0.30 0.63,0.38 0.58,0.46 0.52,0.52 0.46,0.58 0.38,0.63 0.30,0.68 0.22,0.70 0.13,0.73 0.04,0.73 -0.04,0.74 -0.13,0.72 -0.22,0.71 -0.30,0.67 -0.38,0.63 -0.45,0.58 -0.52,0.52 -0.52,0.52 L -0.52,0.52 Z"></path></g><g transform="translate(182.5325927734375 132.32469177246094) rotate(0 3.6514892578125 5.9336700439453125)" stroke="none"><path fill="#2f9e44" d="M 0.56,-0.42 Q 0.56,-0.42 1.76,0.32 2.96,1.06 3.64,2.43 4.32,3.81 4.84,4.85 5.35,5.90 6.06,7.06 6.77,8.23 6.88,10.18 6.99,12.13 6.92,12.21 6.85,12.29 6.75,12.34 6.66,12.39 6.56,12.41 6.45,12.43 6.35,12.41 6.24,12.40 6.15,12.35 6.05,12.30 5.98,12.22 5.91,12.15 5.86,12.05 5.81,11.96 5.80,11.85 5.79,11.75 5.81,11.64 5.83,11.54 5.88,11.45 5.94,11.35 6.02,11.28 6.10,11.21 6.20,11.17 6.29,11.13 6.40,11.13 6.51,11.12 6.61,11.15 6.71,11.17 6.80,11.23 6.89,11.29 6.96,11.37 7.02,11.46 7.06,11.56 7.09,11.66 7.09,11.77 7.09,11.87 7.06,11.97 7.03,12.07 6.96,12.16 6.90,12.24 6.81,12.30 6.73,12.37 6.62,12.40 6.52,12.42 6.42,12.42 6.31,12.42 6.21,12.38 6.11,12.34 6.03,12.27 5.95,12.20 5.89,12.11 5.84,12.02 5.81,11.92 5.79,11.82 5.80,11.71 5.81,11.61 5.85,11.51 5.90,11.41 5.90,11.41 5.90,11.41 4.85,10.72 3.80,10.02 3.02,8.72 2.24,7.42 1.72,6.37 1.20,5.32 0.69,4.22 0.18,3.13 -0.18,1.77 -0.56,0.42 -0.60,0.34 -0.64,0.27 -0.66,0.19 -0.69,0.11 -0.69,0.02 -0.69,-0.05 -0.68,-0.13 -0.66,-0.22 -0.62,-0.29 -0.59,-0.37 -0.53,-0.44 -0.48,-0.50 -0.41,-0.55 -0.34,-0.60 -0.27,-0.64 -0.19,-0.67 -0.11,-0.68 -0.02,-0.70 0.05,-0.69 0.14,-0.68 0.22,-0.65 0.30,-0.63 0.37,-0.58 0.44,-0.54 0.50,-0.48 0.56,-0.42 0.56,-0.42 L 0.56,-0.42 Z"></path></g><g transform="translate(182.5325927734375 145.1049041748047) rotate(0 4.564361572265625 -5.9336700439453125)" stroke="none"><path fill="#2f9e44" d="M -0.70,-0.42 Q -0.70,-0.42 -0.21,-1.91 0.27,-3.40 1.17,-4.57 2.08,-5.74 3.22,-7.25 4.36,-8.75 6.38,-10.34 8.40,-11.92 8.47,-12.01 8.54,-12.09 8.63,-12.14 8.72,-12.20 8.82,-12.23 8.92,-12.25 9.03,-12.24 9.13,-12.23 9.23,-12.19 9.33,-12.14 9.41,-12.07 9.48,-12.00 9.54,-11.91 9.59,-11.81 9.61,-11.71 9.62,-11.60 9.61,-11.50 9.59,-11.39 9.55,-11.30 9.50,-11.21 9.42,-11.13 9.34,-11.06 9.25,-11.01 9.15,-10.96 9.05,-10.95 8.94,-10.94 8.84,-10.96 8.73,-10.98 8.64,-11.03 8.55,-11.09 8.48,-11.17 8.41,-11.25 8.37,-11.35 8.33,-11.44 8.32,-11.55 8.31,-11.66 8.34,-11.76 8.37,-11.86 8.43,-11.95 8.48,-12.04 8.57,-12.10 8.65,-12.17 8.75,-12.21 8.85,-12.24 8.96,-12.24 9.06,-12.24 9.17,-12.21 9.27,-12.18 9.35,-12.12 9.44,-12.05 9.50,-11.97 9.56,-11.88 9.59,-11.78 9.62,-11.68 9.62,-11.57 9.61,-11.46 9.57,-11.36 9.54,-11.26 9.54,-11.26 9.54,-11.26 8.18,-9.06 6.83,-6.86 5.66,-5.34 4.50,-3.82 3.69,-2.83 2.87,-1.83 1.79,-0.70 0.70,0.42 0.64,0.49 0.57,0.57 0.50,0.63 0.42,0.69 0.33,0.73 0.24,0.77 0.14,0.79 0.05,0.81 -0.04,0.81 -0.14,0.80 -0.23,0.77 -0.33,0.74 -0.41,0.69 -0.50,0.64 -0.57,0.57 -0.64,0.50 -0.69,0.42 -0.74,0.33 -0.77,0.24 -0.80,0.14 -0.80,0.05 -0.81,-0.04 -0.79,-0.14 -0.78,-0.24 -0.74,-0.33 -0.70,-0.42 -0.70,-0.42 L -0.70,-0.42 Z"></path></g><g transform="translate(200.78997802734375 125.93461608886719) rotate(0 4.107940673828125 7.7593994140625)" stroke="none"><path fill="#2f9e44" d="M -0.36,-0.73 Q -0.36,-0.73 0.53,-1.55 1.44,-2.37 2.57,-2.65 3.71,-2.93 4.49,-3.03 5.28,-3.13 6.16,-2.87 7.04,-2.61 7.67,-2.34 8.30,-2.06 8.84,-1.14 9.37,-0.23 9.17,0.73 8.97,1.70 8.16,2.48 7.35,3.26 6.99,3.83 6.62,4.41 6.09,5.03 5.56,5.66 4.68,6.31 3.80,6.96 3.06,7.26 2.33,7.56 2.04,6.83 1.75,6.10 2.50,5.91 3.26,5.72 4.17,5.73 5.07,5.74 6.18,6.04 7.30,6.34 7.88,6.44 8.46,6.54 9.32,7.03 10.18,7.53 10.67,8.50 11.16,9.48 11.31,10.44 11.46,11.40 11.51,12.09 11.56,12.79 11.22,13.69 10.89,14.59 10.05,15.34 9.21,16.08 8.69,16.54 8.17,16.99 7.13,17.35 6.08,17.70 4.84,17.79 3.60,17.88 3.08,18.09 2.55,18.29 0.53,18.14 -1.49,17.98 -1.59,17.97 -1.70,17.96 -1.80,17.91 -1.89,17.87 -1.97,17.79 -2.05,17.72 -2.10,17.63 -2.14,17.53 -2.16,17.43 -2.18,17.32 -2.16,17.22 -2.14,17.11 -2.09,17.02 -2.04,16.92 -1.96,16.85 -1.89,16.78 -1.79,16.74 -1.69,16.69 -1.59,16.68 -1.48,16.67 -1.38,16.69 -1.27,16.72 -1.18,16.77 -1.09,16.83 -1.02,16.91 -0.96,16.99 -0.92,17.09 -0.88,17.19 -0.87,17.29 -0.87,17.40 -0.90,17.50 -0.93,17.60 -0.99,17.69 -1.05,17.78 -1.13,17.84 -1.22,17.91 -1.32,17.94 -1.42,17.97 -1.52,17.97 -1.63,17.97 -1.73,17.94 -1.83,17.90 -1.92,17.84 -2.00,17.77 -2.06,17.69 -2.12,17.60 -2.15,17.49 -2.17,17.39 -2.17,17.29 -2.16,17.18 -2.12,17.08 -2.08,16.98 -2.01,16.90 -1.94,16.82 -1.85,16.77 -1.76,16.71 -1.66,16.69 -1.55,16.67 -1.55,16.67 -1.55,16.67 -0.06,16.09 1.43,15.51 2.37,15.11 3.31,14.72 4.74,14.60 6.16,14.48 7.12,13.78 8.08,13.08 8.20,12.43 8.32,11.78 8.09,10.66 7.87,9.55 7.15,9.42 6.43,9.29 5.72,9.06 5.00,8.82 4.09,8.81 3.17,8.80 2.12,8.75 1.07,8.71 0.50,8.38 -0.06,8.05 -0.32,7.39 -0.58,6.72 0.71,5.52 2.00,4.32 2.58,3.96 3.15,3.59 3.59,3.08 4.03,2.56 4.69,1.68 5.36,0.80 6.01,0.38 6.66,-0.03 6.07,-0.13 5.49,-0.23 4.93,-0.14 4.37,-0.05 3.56,0.11 2.75,0.27 1.56,0.50 0.36,0.73 0.27,0.77 0.18,0.80 0.08,0.81 -0.01,0.82 -0.11,0.81 -0.21,0.79 -0.30,0.75 -0.39,0.72 -0.47,0.66 -0.55,0.60 -0.62,0.53 -0.68,0.45 -0.73,0.36 -0.77,0.27 -0.79,0.18 -0.82,0.08 -0.81,-0.01 -0.81,-0.11 -0.79,-0.21 -0.76,-0.30 -0.71,-0.39 -0.66,-0.48 -0.60,-0.55 -0.53,-0.62 -0.45,-0.68 -0.36,-0.73 -0.36,-0.73 L -0.36,-0.73 Z"></path></g></svg>