<svg version="1.1" xmlns="http://www.w3.org/2000/svg" viewBox="0 0 274.69097900390625 116.76431274414062" width="274.69097900390625" height="116.76431274414062" filter="invert(93%) hue-rotate(180deg)" class="excalidraw-svg"><!-- svg-source:excalidraw --><metadata></metadata><defs><style class="style-fonts">
      </style></defs><rect x="0" y="0" width="274.69097900390625" height="116.76431274414062" fill="transparent"></rect><g transform="translate(17.302947998046875 88.50689697265625) rotate(0 43.361358642578125 -18.257415771484375)" stroke="none"><path fill="#000000" d="M 0.70,-0.14 Q 0.70,-0.14 1.42,1.07 2.13,2.30 2.48,3.27 2.83,4.25 3.23,5.18 3.63,6.11 4.06,7.02 4.50,7.94 4.97,9.18 5.45,10.43 5.88,11.42 6.32,12.40 6.71,12.99 7.11,13.57 7.52,14.07 7.93,14.57 8.18,15.20 8.43,15.83 8.65,16.07 8.87,16.31 9.03,16.43 9.19,16.56 9.31,16.72 9.43,16.88 9.52,17.06 9.60,17.25 9.63,17.45 9.67,17.64 9.65,17.85 9.64,18.05 9.58,18.24 9.51,18.43 9.41,18.60 9.30,18.77 9.16,18.92 9.01,19.06 8.84,19.16 8.67,19.26 8.47,19.32 8.28,19.38 8.08,19.39 7.88,19.40 7.68,19.36 7.48,19.32 7.30,19.24 7.12,19.16 6.84,17.94 6.57,16.72 6.80,15.64 7.04,14.55 7.12,13.53 7.21,12.52 7.54,11.11 7.87,9.70 8.55,7.76 9.24,5.81 9.76,4.02 10.29,2.22 10.78,0.41 11.26,-1.39 11.73,-3.45 12.19,-5.51 12.66,-7.22 13.14,-8.94 13.60,-10.46 14.06,-11.99 14.51,-13.88 14.95,-15.77 15.42,-17.43 15.88,-19.08 16.35,-20.58 16.81,-22.07 17.26,-23.72 17.71,-25.37 18.19,-26.68 18.66,-27.99 19.12,-29.28 19.57,-30.58 20.04,-31.72 20.52,-32.85 20.94,-34.28 21.37,-35.70 21.82,-37.37 22.26,-39.03 22.44,-40.43 22.61,-41.82 23.00,-42.92 23.39,-44.02 23.49,-44.55 23.60,-45.08 23.73,-45.70 23.86,-46.32 24.35,-47.03 24.84,-47.74 25.64,-48.19 26.44,-48.64 27.81,-48.90 29.19,-49.16 31.32,-49.24 33.45,-49.31 35.38,-49.34 37.31,-49.37 39.18,-49.38 41.05,-49.40 43.16,-49.40 45.26,-49.41 47.21,-49.41 49.15,-49.42 51.55,-49.42 53.96,-49.42 56.03,-49.42 58.09,-49.42 59.89,-49.67 61.69,-49.92 63.50,-50.29 65.31,-50.65 67.89,-51.33 70.47,-52.00 72.47,-52.31 74.48,-52.62 75.99,-52.99 77.51,-53.36 78.93,-53.78 80.35,-54.20 81.62,-54.41 82.88,-54.62 84.79,-54.97 86.70,-55.33 86.78,-55.33 86.86,-55.34 86.94,-55.32 87.01,-55.30 87.09,-55.27 87.16,-55.23 87.22,-55.18 87.28,-55.13 87.33,-55.07 87.37,-55.01 87.40,-54.93 87.44,-54.86 87.45,-54.78 87.46,-54.70 87.45,-54.63 87.45,-54.55 87.42,-54.47 87.40,-54.40 87.35,-54.33 87.31,-54.26 87.25,-54.21 87.20,-54.15 87.13,-54.11 87.06,-54.08 86.98,-54.05 86.91,-54.03 86.56,-54.21 86.22,-54.39 86.18,-54.49 86.15,-54.59 86.16,-54.70 86.16,-54.81 86.20,-54.90 86.23,-55.00 86.30,-55.09 86.37,-55.17 86.46,-55.23 86.55,-55.28 86.65,-55.31 86.75,-55.34 86.86,-55.33 86.96,-55.32 87.06,-55.28 87.16,-55.23 87.24,-55.16 87.32,-55.09 87.37,-55.00 87.42,-54.91 87.44,-54.80 87.46,-54.70 87.45,-54.59 87.43,-54.49 87.38,-54.39 87.34,-54.30 87.26,-54.22 87.19,-54.15 87.09,-54.10 87.00,-54.05 86.89,-54.04 86.79,-54.02 86.68,-54.04 86.58,-54.06 86.48,-54.12 86.39,-54.17 86.32,-54.25 86.25,-54.33 86.21,-54.43 86.17,-54.52 86.16,-54.63 86.15,-54.73 86.18,-54.84 86.20,-54.94 86.26,-55.03 86.32,-55.12 86.40,-55.19 86.48,-55.25 86.58,-55.29 86.68,-55.33 86.79,-55.33 86.89,-55.33 87.00,-55.30 87.10,-55.27 87.18,-55.21 87.27,-55.14 86.99,-55.24 86.70,-55.33 86.78,-55.33 86.86,-55.34 86.94,-55.32 87.01,-55.30 87.09,-55.27 87.16,-55.23 87.22,-55.18 87.28,-55.13 87.33,-55.07 87.37,-55.01 87.40,-54.93 87.44,-54.86 87.45,-54.78 87.46,-54.70 87.45,-54.63 87.45,-54.55 87.42,-54.47 87.40,-54.40 87.35,-54.33 87.31,-54.26 87.25,-54.21 87.20,-54.15 87.13,-54.11 87.06,-54.08 86.98,-54.05 86.91,-54.03 85.21,-52.38 83.51,-50.73 82.48,-50.57 81.45,-50.42 79.94,-49.99 78.43,-49.55 76.75,-49.15 75.07,-48.75 73.26,-48.48 71.45,-48.21 68.77,-47.51 66.08,-46.82 64.15,-46.44 62.22,-46.05 60.16,-45.78 58.10,-45.51 56.03,-45.51 53.96,-45.51 51.56,-45.51 49.16,-45.50 47.21,-45.51 45.27,-45.51 43.17,-45.50 41.07,-45.50 39.22,-45.49 37.36,-45.48 35.47,-45.45 33.58,-45.42 31.66,-45.37 29.74,-45.32 28.99,-45.27 28.23,-45.22 27.66,-44.76 27.08,-44.29 26.89,-43.52 26.70,-42.76 26.40,-42.06 26.10,-41.35 25.89,-39.73 25.67,-38.12 25.21,-36.40 24.74,-34.68 24.25,-33.08 23.77,-31.49 23.33,-30.46 22.89,-29.43 22.43,-28.10 21.97,-26.77 21.53,-25.60 21.10,-24.44 20.64,-22.73 20.17,-21.03 19.72,-19.58 19.27,-18.12 18.82,-16.55 18.38,-14.97 17.90,-12.96 17.43,-10.96 16.98,-9.48 16.52,-8.00 16.07,-6.37 15.62,-4.73 15.14,-2.61 14.66,-0.48 14.16,1.36 13.66,3.21 13.10,5.10 12.54,6.98 11.91,8.75 11.28,10.53 10.99,11.70 10.70,12.87 10.55,14.20 10.40,15.54 10.16,16.29 9.92,17.04 9.79,17.67 9.67,18.29 9.27,17.30 8.87,16.31 9.03,16.43 9.19,16.56 9.31,16.72 9.43,16.88 9.52,17.06 9.60,17.25 9.63,17.45 9.67,17.64 9.65,17.85 9.64,18.05 9.58,18.24 9.51,18.43 9.41,18.60 9.30,18.77 9.16,18.92 9.01,19.06 8.84,19.16 8.67,19.26 8.47,19.32 8.28,19.38 8.08,19.39 7.88,19.40 7.68,19.36 7.48,19.32 7.30,19.24 7.12,19.16 6.91,18.73 6.70,18.30 6.01,17.46 5.32,16.63 4.82,16.01 4.32,15.39 3.80,14.57 3.28,13.75 2.81,12.68 2.34,11.61 1.92,10.48 1.49,9.34 1.04,8.37 0.59,7.40 0.15,6.36 -0.28,5.32 -0.68,4.13 -1.08,2.94 -0.89,1.54 -0.70,0.14 -0.71,0.05 -0.71,-0.03 -0.70,-0.11 -0.68,-0.20 -0.65,-0.28 -0.62,-0.36 -0.56,-0.43 -0.51,-0.50 -0.44,-0.55 -0.38,-0.60 -0.30,-0.64 -0.22,-0.68 -0.13,-0.69 -0.05,-0.71 0.03,-0.71 0.11,-0.70 0.20,-0.68 0.28,-0.66 0.35,-0.61 0.43,-0.57 0.49,-0.51 0.55,-0.45 0.60,-0.37 0.65,-0.30 0.67,-0.22 0.70,-0.14 0.70,-0.14 L 0.70,-0.14 Z"></path></g><g transform="translate(14.5643310546875 63.859375) rotate(0 1.36932373046875 6.846534729003906)" stroke="none"><path fill="#000000" d="M 0.35,0.70 Q 0.35,0.70 0.02,1.34 -0.31,1.99 -0.94,2.75 -1.58,3.51 -1.66,4.30 -1.74,5.09 -2.12,6.19 -2.51,7.29 -2.62,8.32 -2.74,9.35 -2.57,10.43 -2.41,11.52 -2.15,12.13 -1.89,12.74 -1.37,12.85 -0.84,12.96 -0.44,12.41 -0.04,11.86 0.43,10.75 0.90,9.63 1.00,8.73 1.09,7.83 1.15,6.88 1.21,5.94 1.23,5.27 1.26,4.60 1.27,4.06 1.28,3.52 1.28,3.02 1.27,2.53 1.30,2.35 1.32,2.18 1.39,2.02 1.45,1.85 1.56,1.71 1.66,1.57 1.79,1.46 1.93,1.34 2.08,1.27 2.24,1.19 2.41,1.15 2.58,1.11 2.76,1.11 2.93,1.12 3.10,1.16 3.27,1.21 3.42,1.29 3.58,1.38 3.71,1.50 3.83,1.62 3.93,1.76 4.03,1.91 4.09,2.07 4.14,2.24 4.16,2.41 4.18,2.59 4.23,3.17 4.29,3.75 4.29,4.77 4.29,5.79 4.29,7.01 4.29,8.23 4.29,9.00 4.29,9.77 4.48,10.42 4.68,11.06 5.88,12.02 7.08,12.97 7.18,13.01 7.28,13.05 7.36,13.12 7.44,13.18 7.50,13.27 7.56,13.36 7.58,13.47 7.61,13.57 7.60,13.68 7.59,13.78 7.54,13.88 7.50,13.98 7.43,14.06 7.36,14.13 7.26,14.18 7.17,14.24 7.06,14.25 6.96,14.27 6.86,14.26 6.75,14.24 6.66,14.19 6.56,14.15 6.49,14.07 6.41,13.99 6.37,13.90 6.32,13.80 6.31,13.70 6.29,13.59 6.32,13.49 6.34,13.38 6.39,13.29 6.44,13.20 6.52,13.13 6.60,13.06 6.70,13.02 6.80,12.98 6.91,12.97 7.01,12.96 7.11,12.99 7.22,13.02 7.31,13.08 7.40,13.13 7.46,13.22 7.53,13.30 7.56,13.40 7.60,13.50 7.60,13.61 7.60,13.71 7.57,13.81 7.54,13.92 7.47,14.00 7.41,14.09 7.32,14.15 7.23,14.21 7.13,14.24 7.03,14.27 6.92,14.26 6.82,14.26 6.82,14.26 6.82,14.26 4.93,13.89 3.05,13.53 2.44,12.74 1.84,11.95 1.51,10.88 1.18,9.81 1.18,9.02 1.18,8.23 1.18,7.01 1.18,5.79 1.18,4.77 1.17,3.75 1.22,3.14 1.27,2.53 1.30,2.35 1.32,2.18 1.39,2.02 1.45,1.85 1.56,1.71 1.66,1.57 1.79,1.46 1.93,1.34 2.08,1.27 2.24,1.19 2.41,1.15 2.58,1.11 2.76,1.11 2.93,1.12 3.10,1.16 3.27,1.21 3.42,1.29 3.58,1.38 3.71,1.50 3.83,1.62 3.93,1.76 4.03,1.91 4.09,2.07 4.14,2.24 4.16,2.41 4.18,2.59 4.17,3.08 4.15,3.58 4.14,4.15 4.13,4.72 4.10,5.42 4.07,6.12 4.00,7.17 3.93,8.21 3.73,9.52 3.52,10.82 3.18,11.55 2.85,12.27 2.53,12.97 2.21,13.67 1.44,14.48 0.66,15.29 -0.27,15.55 -1.21,15.81 -2.26,15.54 -3.31,15.26 -3.95,14.66 -4.60,14.05 -5.04,13.03 -5.47,12.01 -5.71,10.50 -5.95,8.99 -5.77,7.61 -5.59,6.22 -5.27,5.36 -4.96,4.49 -4.65,3.13 -4.33,1.76 -3.68,0.87 -3.04,-0.01 -2.41,-0.47 -1.78,-0.94 -1.07,-0.82 -0.35,-0.70 -0.26,-0.73 -0.17,-0.76 -0.07,-0.77 0.01,-0.78 0.10,-0.77 0.20,-0.76 0.29,-0.72 0.37,-0.69 0.45,-0.63 0.53,-0.57 0.59,-0.50 0.65,-0.43 0.69,-0.34 0.74,-0.26 0.76,-0.17 0.78,-0.07 0.78,0.01 0.77,0.11 0.75,0.20 0.73,0.29 0.68,0.37 0.63,0.46 0.57,0.53 0.51,0.59 0.43,0.65 0.35,0.70 0.35,0.70 L 0.35,0.70 Z"></path></g><g transform="translate(61.120758056640625 80.29104614257812) rotate(0 6.846527099609375 7.302978515625)" stroke="none"><path fill="#000000" d="M -0.88,0 Q -0.88,0 -1.09,-0.72 -1.30,-1.44 -0.82,-2.07 -0.34,-2.70 0.61,-2.95 1.57,-3.20 2.71,-3.26 3.86,-3.33 5.51,-3.09 7.17,-2.86 8.45,-2.47 9.73,-2.08 10.63,-1.61 11.54,-1.14 12.23,-0.64 12.92,-0.13 13.85,0.97 14.78,2.08 15.22,2.92 15.66,3.76 15.88,5.09 16.11,6.43 15.91,7.69 15.71,8.94 15.31,10.05 14.92,11.15 13.80,12.37 12.68,13.60 11.41,14.58 10.15,15.57 9.05,16.28 7.95,16.98 7.10,17.34 6.25,17.69 5.55,17.85 4.84,18.01 3.95,17.89 3.05,17.78 2.50,17.26 1.95,16.74 2.03,14.61 2.10,12.48 2.11,12.38 2.13,12.27 2.17,12.17 2.22,12.08 2.29,12.00 2.37,11.93 2.46,11.88 2.56,11.83 2.66,11.81 2.77,11.80 2.87,11.82 2.98,11.84 3.07,11.89 3.16,11.94 3.23,12.02 3.31,12.09 3.35,12.19 3.39,12.29 3.40,12.39 3.41,12.50 3.39,12.60 3.36,12.71 3.31,12.80 3.25,12.89 3.17,12.95 3.09,13.02 2.99,13.06 2.89,13.10 2.78,13.10 2.68,13.11 2.58,13.08 2.47,13.05 2.39,12.99 2.30,12.92 2.24,12.84 2.17,12.75 2.14,12.65 2.11,12.55 2.11,12.45 2.11,12.34 2.15,12.24 2.18,12.14 2.25,12.06 2.31,11.97 2.40,11.91 2.49,11.85 2.59,11.83 2.70,11.80 2.80,11.81 2.91,11.82 3.01,11.86 3.10,11.90 3.18,11.97 3.26,12.04 3.32,12.13 3.37,12.22 3.39,12.32 3.41,12.43 3.41,12.43 3.41,12.43 3.66,13.68 3.90,14.93 4.42,14.63 4.93,14.34 5.48,14.14 6.03,13.94 6.99,13.34 7.95,12.74 9.06,11.89 10.16,11.04 10.91,10.42 11.66,9.79 11.96,9.01 12.27,8.23 12.48,7.52 12.68,6.81 12.63,6.00 12.58,5.19 12.35,4.67 12.13,4.16 11.52,3.32 10.91,2.48 10.43,2.10 9.95,1.73 9.34,1.36 8.74,1.00 7.69,0.65 6.65,0.31 5.30,0.05 3.96,-0.19 2.63,-0.42 1.30,-0.65 1.09,-0.32 0.88,0 0.87,0.10 0.85,0.21 0.82,0.31 0.78,0.41 0.72,0.49 0.66,0.58 0.58,0.65 0.50,0.72 0.40,0.77 0.31,0.82 0.21,0.85 0.10,0.87 -0.00,0.87 -0.10,0.87 -0.21,0.85 -0.31,0.82 -0.40,0.77 -0.50,0.72 -0.58,0.65 -0.66,0.58 -0.72,0.49 -0.78,0.41 -0.82,0.31 -0.85,0.21 -0.87,0.10 -0.88,-0.00 -0.88,-0.00 L -0.88,0 Z"></path></g><g transform="translate(83.0296630859375 76.63958740234375) rotate(0 -1.369293212890625 8.672271728515625)" stroke="none"><path fill="#000000" d="M -0.27,0.82 Q -0.27,0.82 -0.88,0.97 -1.50,1.13 -2.27,2.10 -3.03,3.07 -3.95,4.96 -4.86,6.85 -5.30,7.94 -5.74,9.02 -5.89,9.86 -6.04,10.69 -5.86,11.89 -5.68,13.08 -5.42,13.73 -5.16,14.37 -4.51,14.99 -3.86,15.60 -3.06,15.89 -2.27,16.18 -0.75,16.07 0.76,15.96 2.61,15.55 4.46,15.15 4.56,15.13 4.67,15.12 4.77,15.14 4.88,15.16 4.97,15.21 5.06,15.26 5.13,15.34 5.21,15.41 5.25,15.51 5.29,15.61 5.30,15.71 5.31,15.82 5.29,15.92 5.26,16.03 5.21,16.12 5.15,16.21 5.07,16.28 4.99,16.34 4.89,16.38 4.79,16.42 4.68,16.42 4.58,16.43 4.48,16.40 4.37,16.37 4.29,16.31 4.20,16.25 4.14,16.16 4.07,16.07 4.04,15.97 4.01,15.87 4.01,15.77 4.01,15.66 4.05,15.56 4.08,15.46 4.15,15.38 4.21,15.29 4.30,15.23 4.39,15.18 4.49,15.15 4.60,15.12 4.70,15.13 4.81,15.14 4.91,15.18 5.00,15.22 5.08,15.29 5.16,15.36 5.22,15.45 5.27,15.54 5.29,15.65 5.31,15.75 5.30,15.85 5.29,15.96 5.24,16.06 5.20,16.15 5.12,16.23 5.05,16.30 4.95,16.35 4.86,16.40 4.86,16.40 4.86,16.40 3.01,17.18 1.16,17.97 -0.93,18.58 -3.04,19.19 -4.62,18.71 -6.19,18.23 -7.40,17.03 -8.61,15.84 -9.02,14.70 -9.44,13.56 -9.61,11.78 -9.79,10.01 -9.53,8.80 -9.28,7.59 -8.77,6.34 -8.25,5.08 -6.93,2.71 -5.61,0.33 -4.72,-0.44 -3.83,-1.22 -2.73,-1.70 -1.64,-2.17 -0.68,-1.50 0.27,-0.82 0.36,-0.77 0.46,-0.73 0.54,-0.66 0.62,-0.60 0.68,-0.51 0.75,-0.43 0.79,-0.33 0.83,-0.24 0.85,-0.13 0.86,-0.03 0.85,0.06 0.85,0.17 0.81,0.27 0.78,0.37 0.72,0.46 0.67,0.54 0.59,0.62 0.52,0.69 0.43,0.74 0.34,0.79 0.23,0.82 0.13,0.85 0.03,0.86 -0.06,0.86 -0.17,0.84 -0.27,0.82 -0.27,0.82 L -0.27,0.82 Z"></path></g><g transform="translate(91.2454833984375 51.079193115234375) rotate(0 5.47723388671875 9.58514404296875)" stroke="none"><path fill="#000000" d="M 0.85,0 Q 0.85,0 1.21,1.04 1.57,2.08 1.81,2.85 2.05,3.63 2.19,4.96 2.33,6.29 2.62,7.47 2.92,8.66 3.30,9.96 3.69,11.26 3.87,12.16 4.06,13.06 4.14,13.74 4.22,14.42 4.26,14.94 4.29,15.47 4.29,15.66 4.29,15.86 4.24,16.04 4.19,16.23 4.10,16.40 4.01,16.57 3.88,16.72 3.75,16.86 3.59,16.97 3.43,17.08 3.25,17.15 3.07,17.22 2.87,17.24 2.68,17.26 2.49,17.24 2.29,17.21 2.11,17.14 1.93,17.07 1.77,16.96 1.61,16.85 1.49,16.71 1.36,16.56 1.27,16.39 1.18,16.21 1.13,16.03 1.09,15.84 1.14,14.77 1.20,13.71 1.50,12.46 1.80,11.21 2.54,10.02 3.27,8.83 3.86,8.09 4.45,7.35 5.15,6.88 5.85,6.42 6.87,6.21 7.89,6.01 8.85,6.27 9.80,6.54 10.60,7.34 11.39,8.15 11.86,8.65 12.32,9.15 12.66,9.86 13.01,10.56 13.13,11.59 13.25,12.62 12.68,13.86 12.11,15.10 11.21,15.92 10.32,16.73 9.40,17.33 8.47,17.92 7.55,18.43 6.63,18.94 3.94,18.55 1.26,18.16 1.16,18.11 1.07,18.06 1.00,17.98 0.93,17.90 0.88,17.80 0.84,17.71 0.83,17.60 0.82,17.50 0.85,17.39 0.87,17.29 0.93,17.20 0.99,17.11 1.07,17.04 1.15,16.97 1.25,16.94 1.35,16.90 1.46,16.90 1.56,16.89 1.66,16.92 1.77,16.95 1.85,17.02 1.94,17.08 2.00,17.16 2.06,17.25 2.10,17.35 2.13,17.45 2.13,17.56 2.12,17.66 2.09,17.76 2.05,17.86 1.99,17.95 1.92,18.03 1.83,18.09 1.74,18.15 1.64,18.17 1.54,18.20 1.43,18.19 1.32,18.18 1.23,18.14 1.13,18.10 1.05,18.03 0.97,17.96 0.92,17.87 0.86,17.77 0.84,17.67 0.82,17.57 0.84,17.46 0.85,17.36 0.90,17.26 0.94,17.16 1.02,17.09 1.09,17.01 1.19,16.97 1.28,16.92 1.39,16.90 1.49,16.89 1.60,16.91 1.70,16.93 1.70,16.93 1.70,16.93 3.39,16.53 5.09,16.13 5.93,15.67 6.77,15.21 7.52,14.75 8.27,14.29 8.84,13.87 9.41,13.46 9.81,13.03 10.22,12.59 10.10,11.90 9.99,11.20 9.50,10.65 9.01,10.11 8.60,9.53 8.19,8.95 7.47,9.10 6.74,9.25 6.27,9.86 5.79,10.47 5.25,11.23 4.71,12.00 4.49,12.87 4.26,13.74 4.28,14.60 4.29,15.47 4.29,15.66 4.29,15.86 4.24,16.04 4.19,16.23 4.10,16.40 4.01,16.57 3.88,16.72 3.75,16.86 3.59,16.97 3.43,17.08 3.25,17.15 3.07,17.22 2.87,17.24 2.68,17.26 2.49,17.24 2.29,17.21 2.11,17.14 1.93,17.07 1.77,16.96 1.61,16.85 1.49,16.71 1.36,16.56 1.27,16.39 1.18,16.21 1.13,16.03 1.09,15.84 1.06,15.31 1.04,14.79 0.97,14.24 0.91,13.69 0.76,12.93 0.61,12.16 0.21,10.78 -0.18,9.40 -0.51,7.99 -0.83,6.59 -0.92,5.52 -1.00,4.45 -1.28,3.28 -1.57,2.11 -1.21,1.05 -0.85,0 -0.83,-0.10 -0.82,-0.20 -0.79,-0.29 -0.75,-0.39 -0.69,-0.48 -0.63,-0.56 -0.56,-0.63 -0.48,-0.70 -0.39,-0.74 -0.30,-0.79 -0.20,-0.82 -0.10,-0.84 0.00,-0.84 0.10,-0.84 0.20,-0.82 0.30,-0.79 0.39,-0.74 0.48,-0.70 0.56,-0.63 0.63,-0.56 0.69,-0.48 0.75,-0.39 0.79,-0.29 0.82,-0.20 0.83,-0.10 0.85,0.00 0.85,0.00 L 0.85,0 Z"></path></g><g transform="translate(135.9761962890625 80.29104614257812) rotate(0 12.32373046875 -1.8257293701171875)" stroke="none"><path fill="#000000" d="M -0.43,-0.86 Q -0.43,-0.86 -0.10,-1.58 0.21,-2.29 1.81,-2.53 3.41,-2.76 5.06,-2.81 6.71,-2.86 8.45,-2.88 10.20,-2.90 11.55,-3.15 12.91,-3.41 14.44,-3.51 15.98,-3.61 17.68,-3.55 19.39,-3.49 20.49,-3.60 21.58,-3.72 23.29,-3.95 25.01,-4.18 25.11,-4.19 25.22,-4.20 25.32,-4.18 25.43,-4.15 25.52,-4.10 25.61,-4.04 25.68,-3.96 25.74,-3.88 25.78,-3.78 25.82,-3.68 25.83,-3.58 25.83,-3.47 25.80,-3.37 25.78,-3.27 25.72,-3.18 25.66,-3.09 25.57,-3.03 25.49,-2.96 25.38,-2.93 25.28,-2.90 25.18,-2.90 25.07,-2.90 24.97,-2.93 24.87,-2.97 24.79,-3.03 24.70,-3.09 24.64,-3.18 24.58,-3.27 24.56,-3.37 24.53,-3.48 24.53,-3.58 24.54,-3.69 24.58,-3.79 24.62,-3.89 24.69,-3.97 24.76,-4.05 24.85,-4.10 24.94,-4.16 25.04,-4.18 25.15,-4.20 25.25,-4.19 25.36,-4.18 25.46,-4.13 25.55,-4.09 25.63,-4.01 25.71,-3.94 25.75,-3.85 25.80,-3.75 25.82,-3.65 25.84,-3.54 25.82,-3.44 25.80,-3.33 25.75,-3.24 25.70,-3.14 25.62,-3.07 25.55,-3.00 25.45,-2.95 25.35,-2.91 25.35,-2.91 25.35,-2.91 23.80,-1.91 22.24,-0.91 20.88,-0.46 19.51,-0.01 17.90,0.14 16.29,0.30 14.95,0.43 13.62,0.56 11.94,0.85 10.25,1.13 8.54,1.15 6.83,1.17 5.30,1.22 3.77,1.26 2.82,1.25 1.88,1.25 1.15,1.05 0.43,0.86 0.32,0.90 0.21,0.94 0.09,0.95 -0.01,0.96 -0.13,0.94 -0.24,0.93 -0.35,0.88 -0.46,0.84 -0.55,0.77 -0.65,0.70 -0.72,0.62 -0.80,0.53 -0.85,0.42 -0.90,0.32 -0.93,0.21 -0.95,0.09 -0.95,-0.01 -0.95,-0.13 -0.92,-0.24 -0.89,-0.35 -0.83,-0.46 -0.78,-0.56 -0.70,-0.64 -0.62,-0.73 -0.52,-0.79 -0.43,-0.86 -0.43,-0.86 L -0.43,-0.86 Z"></path></g><g transform="translate(134.15045166015625 99.46133422851562) rotate(0 14.60589599609375 0)" stroke="none"><path fill="#000000" d="M 0,-0.91 Q 0,-0.91 1.05,-1.32 2.10,-1.73 3.75,-1.48 5.39,-1.23 7.24,-1.14 9.09,-1.06 11.19,-1.01 13.30,-0.96 15.41,-1.20 17.51,-1.43 20.36,-1.36 23.22,-1.28 26.00,-1.32 28.78,-1.36 28.89,-1.36 28.99,-1.36 29.09,-1.33 29.19,-1.29 29.28,-1.23 29.36,-1.16 29.42,-1.07 29.48,-0.99 29.51,-0.88 29.54,-0.78 29.53,-0.68 29.52,-0.57 29.48,-0.47 29.44,-0.37 29.37,-0.29 29.30,-0.21 29.21,-0.16 29.12,-0.10 29.02,-0.08 28.91,-0.06 28.81,-0.07 28.70,-0.08 28.61,-0.13 28.51,-0.18 28.43,-0.25 28.36,-0.32 28.31,-0.42 28.26,-0.51 28.24,-0.62 28.23,-0.72 28.24,-0.83 28.26,-0.93 28.31,-1.02 28.36,-1.12 28.44,-1.19 28.52,-1.26 28.62,-1.31 28.71,-1.35 28.82,-1.36 28.92,-1.37 29.03,-1.35 29.13,-1.32 29.22,-1.27 29.31,-1.21 29.38,-1.13 29.45,-1.05 29.49,-0.95 29.52,-0.85 29.53,-0.75 29.53,-0.64 29.51,-0.54 29.48,-0.43 29.42,-0.35 29.36,-0.26 29.27,-0.20 29.18,-0.13 29.08,-0.10 28.98,-0.07 28.98,-0.07 28.98,-0.07 26.15,0.75 23.32,1.59 20.61,1.87 17.90,2.15 15.56,2.40 13.22,2.65 11.05,2.60 8.88,2.55 6.83,2.42 4.78,2.28 3.43,2.01 2.09,1.73 1.04,1.32 0,0.91 -0.10,0.90 -0.21,0.89 -0.32,0.85 -0.42,0.81 -0.51,0.74 -0.60,0.68 -0.68,0.60 -0.75,0.52 -0.80,0.42 -0.85,0.32 -0.88,0.21 -0.91,0.11 -0.91,-0.00 -0.91,-0.11 -0.88,-0.21 -0.85,-0.32 -0.80,-0.42 -0.75,-0.52 -0.68,-0.60 -0.60,-0.68 -0.51,-0.74 -0.42,-0.81 -0.32,-0.85 -0.21,-0.89 -0.10,-0.90 0.00,-0.91 0.00,-0.91 L 0,-0.91 Z"></path></g><g transform="translate(190.7484130859375 68.42373657226562) rotate(0 7.7593994140625 12.780197143554688)" stroke="none"><path fill="#000000" d="M -0.65,0.65 Q -0.65,0.65 -1.16,0.63 -1.67,0.62 -1.79,0.47 -1.91,0.31 -1.99,0.13 -2.07,-0.04 -2.11,-0.23 -2.14,-0.42 -2.13,-0.62 -2.12,-0.81 -2.06,-1.00 -2.00,-1.19 -1.90,-1.36 -1.80,-1.52 -1.66,-1.66 -1.52,-1.80 -1.35,-1.90 -1.19,-2.00 -1.00,-2.06 -0.81,-2.12 -0.62,-2.13 -0.42,-2.14 -0.23,-2.11 -0.04,-2.07 0.13,-1.99 0.31,-1.91 0.47,-1.79 0.62,-1.67 2.03,-2.09 3.44,-2.51 4.60,-2.51 5.77,-2.52 8.45,-1.14 11.13,0.24 12.42,1.08 13.72,1.92 14.67,2.93 15.62,3.94 16.22,4.56 16.82,5.19 17.48,6.45 18.15,7.71 18.42,8.55 18.69,9.39 18.82,10.66 18.96,11.94 18.74,13.66 18.52,15.38 17.84,17.03 17.16,18.69 16.01,20.27 14.85,21.84 13.50,23.10 12.15,24.35 9.84,25.50 7.54,26.65 5.99,27.12 4.44,27.59 2.90,27.67 1.37,27.76 1.17,25.46 0.97,23.17 0.90,23.17 0.82,23.17 0.74,23.16 0.66,23.14 0.59,23.11 0.52,23.07 0.46,23.02 0.40,22.97 0.35,22.91 0.30,22.85 0.27,22.77 0.24,22.70 0.23,22.62 0.21,22.54 0.22,22.46 0.23,22.39 0.25,22.31 0.28,22.24 0.32,22.17 0.36,22.10 0.42,22.05 0.48,21.99 0.55,21.95 0.61,21.91 0.69,21.89 0.77,21.87 0.51,22.07 0.26,22.27 0.32,22.18 0.37,22.09 0.45,22.02 0.54,21.95 0.63,21.91 0.73,21.88 0.84,21.87 0.95,21.87 1.05,21.89 1.15,21.92 1.24,21.98 1.33,22.04 1.39,22.13 1.45,22.21 1.49,22.32 1.52,22.42 1.52,22.52 1.52,22.63 1.48,22.73 1.45,22.83 1.38,22.91 1.32,23.00 1.23,23.06 1.14,23.12 1.04,23.14 0.94,23.17 0.83,23.17 0.73,23.16 0.63,23.12 0.53,23.08 0.45,23.01 0.37,22.94 0.31,22.85 0.26,22.76 0.24,22.65 0.22,22.55 0.23,22.44 0.24,22.34 0.28,22.24 0.33,22.15 0.40,22.07 0.48,21.99 0.57,21.94 0.67,21.89 0.77,21.88 0.87,21.86 0.98,21.88 1.08,21.90 1.18,21.95 1.27,22.00 1.34,22.08 1.42,22.15 1.46,22.25 1.50,22.35 1.52,22.45 1.53,22.56 1.25,22.86 0.97,23.17 0.90,23.17 0.82,23.17 0.74,23.16 0.66,23.14 0.59,23.11 0.52,23.07 0.46,23.02 0.40,22.97 0.35,22.91 0.30,22.85 0.27,22.77 0.24,22.70 0.23,22.62 0.21,22.54 0.22,22.46 0.23,22.39 0.25,22.31 0.28,22.24 0.32,22.17 0.36,22.10 0.42,22.05 0.48,21.99 0.55,21.95 0.61,21.91 0.69,21.89 0.77,21.87 1.36,23.26 1.95,24.65 2.67,24.37 3.39,24.09 4.68,23.71 5.96,23.33 7.85,22.48 9.75,21.63 10.86,20.65 11.98,19.66 12.92,18.45 13.87,17.24 14.43,16.03 15.00,14.83 15.22,13.52 15.44,12.22 15.39,11.31 15.34,10.40 15.17,9.82 15.01,9.24 14.64,8.39 14.27,7.53 13.67,6.89 13.07,6.25 12.44,5.52 11.81,4.78 10.63,3.99 9.44,3.20 7.52,1.98 5.59,0.76 4.57,0.79 3.55,0.82 2.32,0.85 1.09,0.87 -0.29,0.75 -1.67,0.62 -1.79,0.47 -1.91,0.31 -1.99,0.13 -2.07,-0.04 -2.11,-0.23 -2.14,-0.42 -2.13,-0.62 -2.12,-0.81 -2.06,-1.00 -2.00,-1.19 -1.90,-1.36 -1.80,-1.52 -1.66,-1.66 -1.52,-1.80 -1.36,-1.90 -1.19,-2.00 -1.00,-2.06 -0.81,-2.12 -0.62,-2.13 -0.42,-2.14 -0.23,-2.11 -0.04,-2.07 0.13,-1.99 0.31,-1.91 0.47,-1.79 0.62,-1.67 0.63,-1.16 0.65,-0.65 0.72,-0.56 0.79,-0.47 0.83,-0.37 0.88,-0.27 0.90,-0.16 0.92,-0.05 0.91,0.05 0.90,0.16 0.87,0.27 0.84,0.37 0.78,0.47 0.72,0.56 0.64,0.64 0.56,0.72 0.47,0.78 0.37,0.84 0.27,0.87 0.16,0.90 0.05,0.91 -0.05,0.92 -0.16,0.90 -0.27,0.88 -0.37,0.83 -0.47,0.78 -0.56,0.72 -0.65,0.65 -0.65,0.65 L -0.65,0.65 Z"></path></g><g transform="translate(220.8731689453125 65.68511962890625) rotate(0 0 13.23663330078125)" stroke="none"><path fill="#000000" d="M 0,0.65 Q 0,0.65 -0.71,1.21 -1.43,1.77 -1.86,2.22 -2.30,2.67 -3.21,3.18 -4.11,3.69 -4.78,4.50 -5.44,5.31 -6.54,6.74 -7.65,8.18 -8.29,9.64 -8.92,11.11 -9.18,12.41 -9.44,13.71 -9.57,15.02 -9.71,16.33 -9.77,17.65 -9.84,18.96 -9.44,19.95 -9.03,20.95 -7.79,22.00 -6.55,23.05 -5.21,23.55 -3.87,24.05 -1.87,23.97 0.11,23.89 4.85,22.87 9.59,21.84 9.70,21.83 9.80,21.82 9.91,21.84 10.01,21.86 10.10,21.92 10.19,21.97 10.26,22.06 10.33,22.14 10.37,22.24 10.41,22.34 10.41,22.44 10.42,22.55 10.39,22.65 10.36,22.75 10.30,22.84 10.24,22.93 10.15,22.99 10.07,23.05 9.97,23.09 9.87,23.12 9.76,23.12 9.65,23.12 9.55,23.09 9.45,23.05 9.37,22.99 9.29,22.92 9.23,22.83 9.17,22.74 9.14,22.64 9.11,22.54 9.12,22.43 9.12,22.33 9.16,22.23 9.20,22.13 9.27,22.05 9.34,21.97 9.43,21.92 9.53,21.86 9.63,21.84 9.73,21.82 9.84,21.83 9.94,21.84 10.04,21.89 10.14,21.93 10.21,22.00 10.29,22.08 10.34,22.17 10.39,22.27 10.41,22.37 10.42,22.48 10.40,22.58 10.39,22.69 10.34,22.78 10.29,22.87 10.21,22.95 10.13,23.02 10.03,23.06 9.94,23.11 9.94,23.11 9.94,23.11 5.17,24.66 0.39,26.21 -2.19,26.69 -4.79,27.17 -6.85,26.50 -8.90,25.83 -10.71,24.13 -12.52,22.44 -13.12,20.67 -13.71,18.91 -13.66,17.43 -13.61,15.96 -13.47,14.42 -13.33,12.88 -12.94,11.18 -12.55,9.49 -11.67,7.60 -10.79,5.72 -9.55,4.21 -8.31,2.70 -7.17,1.52 -6.02,0.34 -5.15,-0.11 -4.28,-0.57 -2.99,-1.17 -1.71,-1.77 -0.85,-1.21 0,-0.65 0.07,-0.64 0.15,-0.63 0.23,-0.61 0.30,-0.58 0.37,-0.53 0.43,-0.49 0.48,-0.43 0.54,-0.37 0.57,-0.30 0.61,-0.23 0.63,-0.15 0.65,-0.07 0.65,0.00 0.65,0.07 0.63,0.15 0.61,0.23 0.57,0.30 0.54,0.37 0.48,0.43 0.43,0.49 0.37,0.53 0.30,0.58 0.23,0.61 0.15,0.63 0.07,0.64 -0.00,0.65 -0.00,0.65 L 0,0.65 Z"></path></g><g transform="translate(244.6077880859375 10) rotate(0 5.93365478515625 8.672271728515625)" stroke="none"><path fill="#000000" d="M 0.80,-0.16 Q 0.80,-0.16 1.39,1.08 1.98,2.33 2.33,3.32 2.68,4.30 2.87,5.70 3.07,7.09 3.14,8.19 3.21,9.29 3.24,10.56 3.27,11.83 3.28,12.89 3.30,13.94 3.30,14.66 3.31,15.37 3.32,15.93 3.32,16.50 3.30,16.68 3.28,16.86 3.22,17.03 3.15,17.20 3.05,17.35 2.95,17.50 2.82,17.62 2.68,17.74 2.52,17.82 2.36,17.91 2.19,17.95 2.01,18.00 1.83,18.00 1.65,18.00 1.47,17.96 1.29,17.92 1.13,17.83 0.97,17.75 0.84,17.63 0.70,17.51 0.59,17.36 0.49,17.22 0.42,17.05 0.36,16.88 0.34,16.70 0.31,16.52 0.32,15.95 0.33,15.39 0.34,14.63 0.35,13.87 0.64,12.81 0.94,11.76 1.34,10.81 1.75,9.86 2.30,9.05 2.85,8.25 3.84,7.75 4.83,7.26 5.81,7.10 6.79,6.95 7.49,6.90 8.20,6.85 9.04,7.15 9.88,7.44 10.50,7.88 11.12,8.32 11.65,8.80 12.18,9.27 12.56,9.95 12.93,10.62 13.07,11.58 13.21,12.55 12.95,13.44 12.69,14.32 11.92,15.76 11.15,17.21 10.46,17.70 9.76,18.19 9.08,18.41 8.41,18.63 6.61,17.51 4.80,16.38 4.72,16.39 4.64,16.40 4.57,16.40 4.49,16.39 4.41,16.36 4.34,16.34 4.27,16.29 4.20,16.25 4.15,16.19 4.10,16.14 4.06,16.07 4.02,16.00 4.00,15.92 3.98,15.85 3.97,15.77 3.97,15.69 3.99,15.61 4.00,15.53 4.04,15.46 4.07,15.39 4.12,15.33 4.17,15.27 4.24,15.22 4.30,15.17 4.37,15.14 4.45,15.11 4.21,15.41 3.97,15.71 3.99,15.61 4.01,15.50 4.07,15.41 4.12,15.32 4.20,15.25 4.28,15.18 4.38,15.14 4.48,15.10 4.59,15.10 4.69,15.09 4.80,15.12 4.90,15.15 4.99,15.21 5.08,15.27 5.14,15.35 5.20,15.44 5.24,15.54 5.27,15.64 5.27,15.75 5.27,15.85 5.24,15.95 5.20,16.05 5.14,16.14 5.08,16.22 4.99,16.28 4.90,16.34 4.80,16.37 4.70,16.40 4.59,16.39 4.48,16.39 4.39,16.35 4.29,16.31 4.21,16.24 4.12,16.17 4.07,16.08 4.01,15.99 3.99,15.89 3.97,15.78 3.98,15.68 3.99,15.57 4.04,15.47 4.08,15.38 4.15,15.30 4.23,15.22 4.32,15.17 4.41,15.12 4.52,15.11 4.62,15.09 4.73,15.11 4.83,15.12 4.93,15.17 5.02,15.22 5.09,15.30 5.17,15.38 5.21,15.47 5.26,15.57 5.03,15.97 4.80,16.38 4.72,16.39 4.64,16.40 4.57,16.40 4.49,16.39 4.41,16.36 4.34,16.34 4.27,16.29 4.20,16.25 4.15,16.19 4.10,16.14 4.06,16.07 4.02,16.00 4.00,15.92 3.98,15.85 3.97,15.77 3.97,15.69 3.99,15.61 4.00,15.53 4.04,15.46 4.07,15.39 4.12,15.33 4.17,15.27 4.24,15.22 4.30,15.17 4.37,15.14 4.45,15.11 6.02,15.38 7.59,15.65 8.18,15.47 8.77,15.29 9.20,14.85 9.63,14.42 9.95,13.57 10.26,12.72 10.21,12.06 10.16,11.39 9.40,10.74 8.64,10.09 7.92,9.95 7.19,9.82 6.11,9.94 5.02,10.06 4.73,10.53 4.44,11.00 4.09,11.82 3.75,12.64 3.52,13.27 3.29,13.91 3.30,14.65 3.31,15.39 3.32,15.94 3.32,16.50 3.30,16.68 3.28,16.86 3.22,17.03 3.15,17.20 3.05,17.35 2.95,17.50 2.82,17.62 2.68,17.74 2.52,17.82 2.36,17.91 2.19,17.95 2.01,18.00 1.83,18.00 1.65,18.00 1.47,17.96 1.29,17.92 1.13,17.83 0.97,17.75 0.84,17.63 0.70,17.51 0.59,17.36 0.49,17.22 0.43,17.05 0.36,16.88 0.34,16.70 0.31,16.52 0.32,15.95 0.32,15.39 0.31,14.68 0.31,13.98 0.30,12.94 0.29,11.90 0.26,10.69 0.23,9.49 0.17,8.48 0.11,7.47 -0.01,6.37 -0.13,5.27 -0.53,4.09 -0.93,2.91 -0.86,1.53 -0.80,0.16 -0.80,0.06 -0.81,-0.03 -0.80,-0.13 -0.78,-0.23 -0.74,-0.32 -0.70,-0.41 -0.64,-0.49 -0.58,-0.56 -0.51,-0.63 -0.43,-0.69 -0.34,-0.73 -0.25,-0.77 -0.15,-0.79 -0.06,-0.81 0.03,-0.81 0.13,-0.80 0.22,-0.77 0.32,-0.75 0.40,-0.70 0.49,-0.65 0.56,-0.58 0.63,-0.51 0.68,-0.43 0.74,-0.34 0.77,-0.25 0.80,-0.16 0.80,-0.16 L 0.80,-0.16 Z"></path></g><g transform="translate(242.78204345703125 32.82177734375) rotate(0 10.498046875 -1.3693084716796875)" stroke="none"><path fill="#000000" d="M 0,-0.89 Q 0,-0.89 0.78,-1.27 1.57,-1.64 2.69,-1.65 3.81,-1.66 5.08,-1.66 6.34,-1.67 7.93,-1.68 9.52,-1.69 11.24,-1.70 12.96,-1.70 14.04,-1.95 15.13,-2.20 16.56,-2.33 17.98,-2.46 19.59,-2.66 21.20,-2.86 21.27,-2.94 21.34,-3.02 21.44,-3.07 21.53,-3.12 21.64,-3.13 21.74,-3.15 21.85,-3.13 21.95,-3.12 22.04,-3.07 22.14,-3.02 22.21,-2.94 22.28,-2.86 22.33,-2.76 22.37,-2.67 22.38,-2.56 22.40,-2.46 22.37,-2.35 22.35,-2.25 22.29,-2.16 22.24,-2.07 22.16,-2.00 22.08,-1.93 21.98,-1.89 21.88,-1.85 21.77,-1.85 21.67,-1.84 21.57,-1.87 21.46,-1.90 21.38,-1.96 21.29,-2.02 21.22,-2.10 21.16,-2.19 21.13,-2.29 21.09,-2.39 21.09,-2.49 21.09,-2.60 21.13,-2.70 21.16,-2.80 21.23,-2.89 21.29,-2.97 21.38,-3.03 21.47,-3.09 21.57,-3.12 21.67,-3.15 21.78,-3.14 21.88,-3.13 21.98,-3.09 22.08,-3.06 22.16,-2.99 22.24,-2.92 22.30,-2.83 22.35,-2.74 22.37,-2.63 22.40,-2.53 22.38,-2.42 22.37,-2.32 22.33,-2.22 22.28,-2.12 22.28,-2.12 22.28,-2.12 20.28,-0.57 18.27,0.97 17.05,1.06 15.83,1.15 14.40,1.42 12.97,1.70 11.24,1.70 9.52,1.69 7.93,1.68 6.34,1.67 5.08,1.66 3.81,1.66 2.69,1.65 1.57,1.64 0.78,1.27 0,0.89 -0.10,0.87 -0.21,0.86 -0.31,0.82 -0.41,0.78 -0.50,0.72 -0.59,0.66 -0.66,0.58 -0.73,0.50 -0.78,0.41 -0.83,0.31 -0.85,0.21 -0.88,0.10 -0.88,-0.00 -0.88,-0.10 -0.85,-0.21 -0.83,-0.31 -0.78,-0.41 -0.73,-0.50 -0.66,-0.58 -0.59,-0.66 -0.50,-0.72 -0.41,-0.78 -0.31,-0.82 -0.21,-0.86 -0.10,-0.87 0.00,-0.89 0.00,-0.89 L 0,-0.89 Z"></path></g><g transform="translate(256.47509765625 42.86335754394531) rotate(0 -2.73858642578125 9.128707885742188)" stroke="none"><path fill="#000000" d="M 0,0.79 Q 0,0.79 -0.76,1.09 -1.52,1.38 -2.23,1.90 -2.94,2.41 -3.26,2.93 -3.59,3.46 -4.27,4.73 -4.96,6.00 -5.22,6.74 -5.49,7.48 -5.59,8.18 -5.69,8.88 -5.27,9.56 -4.85,10.23 -4.26,10.27 -3.67,10.31 -3.21,9.72 -2.76,9.14 -2.27,8.59 -1.77,8.04 -1.42,7.21 -1.07,6.37 -0.91,5.77 -0.75,5.17 -0.33,4.45 0.08,3.72 0.21,3.20 0.34,2.68 0.45,2.54 0.56,2.40 0.70,2.29 0.85,2.18 1.01,2.11 1.18,2.04 1.36,2.01 1.53,1.98 1.71,1.99 1.89,2.01 2.06,2.06 2.23,2.12 2.39,2.21 2.54,2.31 2.66,2.44 2.79,2.57 2.88,2.72 2.97,2.88 3.02,3.05 3.07,3.22 3.08,3.40 3.09,3.58 3.06,3.76 3.02,3.93 2.95,4.10 2.87,4.26 2.91,3.48 2.95,2.70 3.18,3.64 3.41,4.59 3.43,5.64 3.44,6.69 3.45,7.65 3.46,8.61 3.47,9.55 3.47,10.48 3.47,11.67 3.47,12.85 3.47,13.88 3.47,14.91 2.97,15.75 2.48,16.60 2.47,16.68 2.46,16.76 2.43,16.83 2.40,16.90 2.36,16.97 2.31,17.03 2.25,17.09 2.19,17.14 2.12,17.18 2.05,17.21 1.98,17.23 1.90,17.25 1.82,17.25 1.74,17.25 1.66,17.23 1.59,17.21 1.52,17.18 1.45,17.14 1.39,17.09 1.33,17.03 1.28,16.97 1.24,16.90 1.21,16.83 1.18,16.76 1.17,16.68 1.16,16.60 1.18,16.49 1.20,16.39 1.25,16.29 1.30,16.20 1.38,16.13 1.45,16.05 1.55,16.01 1.65,15.97 1.75,15.95 1.86,15.94 1.96,15.97 2.06,15.99 2.15,16.04 2.25,16.10 2.31,16.18 2.38,16.26 2.42,16.36 2.46,16.46 2.47,16.56 2.47,16.67 2.45,16.77 2.42,16.87 2.36,16.96 2.30,17.05 2.21,17.11 2.13,17.18 2.03,17.21 1.93,17.25 1.82,17.25 1.71,17.25 1.61,17.21 1.51,17.18 1.43,17.11 1.34,17.05 1.28,16.96 1.22,16.87 1.20,16.77 1.17,16.67 1.17,16.56 1.18,16.46 1.22,16.36 1.26,16.26 1.33,16.18 1.40,16.10 1.49,16.04 1.58,15.99 1.68,15.97 1.79,15.94 1.89,15.95 2.00,15.97 2.09,16.01 2.19,16.05 2.27,16.13 2.34,16.20 2.39,16.29 2.44,16.39 2.46,16.49 2.48,16.60 2.48,16.60 2.48,16.60 2.47,16.68 2.46,16.75 2.43,16.83 2.40,16.90 2.36,16.97 2.31,17.03 2.25,17.09 2.19,17.14 2.12,17.18 2.05,17.21 1.98,17.23 1.90,17.25 1.82,17.25 1.74,17.25 1.66,17.23 1.59,17.21 1.52,17.18 1.45,17.14 1.39,17.09 1.33,17.03 1.28,16.97 1.24,16.90 1.21,16.83 1.18,16.76 1.17,16.68 1.16,16.60 0.67,15.75 0.17,14.91 0.17,13.88 0.17,12.85 0.17,11.67 0.16,10.49 0.17,9.56 0.17,8.63 0.16,7.68 0.16,6.72 0.33,5.58 0.50,4.44 0.42,3.56 0.34,2.68 0.45,2.54 0.56,2.40 0.70,2.29 0.85,2.18 1.01,2.11 1.18,2.04 1.35,2.01 1.53,1.98 1.71,1.99 1.89,2.01 2.06,2.06 2.23,2.12 2.39,2.21 2.54,2.31 2.66,2.44 2.79,2.57 2.88,2.72 2.97,2.88 3.02,3.05 3.07,3.22 3.08,3.40 3.09,3.58 3.06,3.76 3.02,3.93 2.95,4.10 2.87,4.26 2.43,5.12 1.99,5.99 1.76,6.78 1.52,7.56 0.95,8.75 0.37,9.93 -0.08,10.44 -0.53,10.94 -1.29,11.75 -2.04,12.56 -2.96,12.84 -3.87,13.13 -4.85,12.96 -5.83,12.79 -6.48,12.35 -7.13,11.92 -7.59,11.19 -8.05,10.47 -8.28,9.53 -8.52,8.59 -8.35,7.54 -8.19,6.49 -7.83,5.56 -7.48,4.63 -6.71,3.22 -5.93,1.81 -5.29,0.97 -4.65,0.13 -4.00,-0.32 -3.34,-0.77 -2.48,-1.08 -1.62,-1.38 -0.81,-1.09 0,-0.79 0.09,-0.78 0.19,-0.77 0.27,-0.73 0.36,-0.70 0.44,-0.64 0.52,-0.59 0.59,-0.52 0.65,-0.45 0.69,-0.36 0.74,-0.28 0.76,-0.18 0.78,-0.09 0.78,0.00 0.78,0.09 0.76,0.18 0.74,0.28 0.69,0.36 0.65,0.45 0.59,0.52 0.52,0.59 0.44,0.64 0.36,0.70 0.27,0.73 0.19,0.77 0.09,0.78 -0.00,0.79 -0.00,0.79 L 0,0.79 Z"></path></g></svg>