<svg version="1.1" xmlns="http://www.w3.org/2000/svg" viewBox="0 0 362.87432861328125 371.63787841796875" width="362.87432861328125" height="371.63787841796875" filter="invert(93%) hue-rotate(180deg)" class="excalidraw-svg"><!-- svg-source:excalidraw --><metadata></metadata><defs><style class="style-fonts">
      </style></defs><rect x="0" y="0" width="362.87432861328125" height="371.63787841796875" fill="transparent"></rect><g stroke-linecap="round" transform="translate(10 10) rotate(0 171.43716430664062 175.271240234375)"><path d="M342.87 175.27 C342.87 179.44, 342.73 183.62, 342.44 187.77 C342.15 191.93, 341.71 196.09, 341.13 200.21 C340.55 204.34, 339.82 208.46, 338.96 212.53 C338.09 216.6, 337.08 220.65, 335.93 224.65 C334.78 228.65, 333.49 232.62, 332.07 236.52 C330.64 240.43, 329.08 244.29, 327.38 248.08 C325.69 251.87, 323.86 255.61, 321.9 259.27 C319.95 262.93, 317.86 266.52, 315.66 270.03 C313.46 273.54, 311.12 276.97, 308.68 280.31 C306.24 283.64, 303.67 286.9, 301 290.05 C298.33 293.2, 295.54 296.26, 292.66 299.21 C289.78 302.15, 286.79 305, 283.7 307.73 C280.62 310.46, 277.44 313.09, 274.18 315.58 C270.91 318.08, 267.55 320.47, 264.12 322.72 C260.69 324.97, 257.18 327.11, 253.6 329.1 C250.02 331.1, 246.36 332.97, 242.65 334.7 C238.95 336.43, 235.17 338.04, 231.35 339.49 C227.53 340.95, 223.65 342.27, 219.74 343.44 C215.83 344.62, 211.86 345.65, 207.88 346.54 C203.9 347.42, 199.87 348.17, 195.84 348.76 C191.8 349.35, 187.73 349.8, 183.67 350.1 C179.6 350.39, 175.51 350.54, 171.44 350.54 C167.36 350.54, 163.27 350.39, 159.21 350.1 C155.14 349.8, 151.07 349.35, 147.04 348.76 C143 348.17, 138.98 347.42, 135 346.54 C131.01 345.65, 127.05 344.62, 123.14 343.44 C119.23 342.27, 115.35 340.95, 111.53 339.49 C107.71 338.04, 103.93 336.43, 100.22 334.7 C96.51 332.97, 92.85 331.1, 89.28 329.1 C85.7 327.11, 82.18 324.97, 78.75 322.72 C75.32 320.47, 71.96 318.08, 68.7 315.58 C65.44 313.09, 62.25 310.46, 59.17 307.73 C56.09 305, 53.1 302.15, 50.21 299.21 C47.33 296.26, 44.54 293.2, 41.87 290.05 C39.2 286.9, 36.64 283.64, 34.19 280.31 C31.75 276.97, 29.42 273.54, 27.22 270.03 C25.01 266.52, 22.92 262.93, 20.97 259.27 C19.02 255.61, 17.19 251.87, 15.49 248.08 C13.8 244.29, 12.23 240.43, 10.81 236.52 C9.38 232.62, 8.09 228.65, 6.94 224.65 C5.8 220.65, 4.78 216.6, 3.92 212.53 C3.05 208.46, 2.33 204.34, 1.74 200.21 C1.16 196.09, 0.73 191.93, 0.44 187.77 C0.15 183.62, 0 179.44, 0 175.27 C0 171.1, 0.15 166.92, 0.44 162.77 C0.73 158.61, 1.16 154.45, 1.74 150.33 C2.33 146.2, 3.05 142.09, 3.92 138.01 C4.78 133.94, 5.8 129.89, 6.94 125.89 C8.09 121.89, 9.38 117.93, 10.81 114.02 C12.23 110.12, 13.8 106.25, 15.49 102.46 C17.19 98.67, 19.02 94.93, 20.97 91.27 C22.92 87.61, 25.01 84.02, 27.22 80.51 C29.42 77.01, 31.75 73.57, 34.19 70.24 C36.64 66.9, 39.2 63.64, 41.87 60.49 C44.54 57.34, 47.33 54.28, 50.21 51.34 C53.1 48.39, 56.09 45.54, 59.17 42.81 C62.25 40.08, 65.44 37.46, 68.7 34.96 C71.96 32.46, 75.32 30.08, 78.75 27.82 C82.18 25.57, 85.7 23.44, 89.28 21.44 C92.85 19.44, 96.51 17.57, 100.22 15.84 C103.93 14.11, 107.71 12.51, 111.53 11.05 C115.35 9.59, 119.23 8.27, 123.14 7.1 C127.05 5.93, 131.01 4.89, 135 4.01 C138.98 3.12, 143 2.38, 147.04 1.78 C151.07 1.19, 155.14 0.74, 159.21 0.45 C163.27 0.15, 167.36 0, 171.44 0 C175.51 0, 179.6 0.15, 183.67 0.45 C187.73 0.74, 191.8 1.19, 195.84 1.78 C199.87 2.38, 203.9 3.12, 207.88 4.01 C211.86 4.89, 215.83 5.93, 219.74 7.1 C223.65 8.27, 227.53 9.59, 231.35 11.05 C235.17 12.51, 238.95 14.11, 242.65 15.84 C246.36 17.57, 250.02 19.44, 253.6 21.44 C257.18 23.44, 260.69 25.57, 264.12 27.82 C267.55 30.08, 270.91 32.46, 274.18 34.96 C277.44 37.46, 280.62 40.08, 283.7 42.81 C286.79 45.54, 289.78 48.39, 292.66 51.34 C295.54 54.28, 298.33 57.34, 301 60.49 C303.67 63.64, 306.24 66.9, 308.68 70.24 C311.12 73.57, 313.46 77.01, 315.66 80.51 C317.86 84.02, 319.95 87.61, 321.9 91.27 C323.86 94.93, 325.69 98.67, 327.38 102.46 C329.08 106.25, 330.64 110.12, 332.07 114.02 C333.49 117.93, 334.78 121.89, 335.93 125.89 C337.08 129.89, 338.09 133.94, 338.96 138.01 C339.82 142.09, 340.55 146.2, 341.13 150.33 C341.71 154.45, 342.15 158.61, 342.44 162.77 C342.73 166.92, 342.87 171.1, 342.87 175.27" stroke="#000000" stroke-width="0.5" fill="none"></path></g><g transform="translate(185.27117919921875 174.3167724609375) rotate(0 -1.095428466796875 4.3817901611328125)" stroke="none"><path fill="#000000" d="M 0.28,0.86 Q 0.28,0.86 -0.52,1.43 -1.34,1.99 -1.77,2.55 -2.20,3.12 -2.36,3.81 -2.52,4.51 -2.63,5.39 -2.74,6.28 -2.60,6.98 -2.47,7.68 -1.68,6.78 -0.89,5.88 -0.40,4.71 0.09,3.55 0.28,2.54 0.48,1.53 0.10,1.02 -0.27,0.51 -0.41,1.19 -0.55,1.87 -0.64,2.43 -0.72,2.98 -0.13,3.15 0.45,3.33 0.53,3.47 0.62,3.61 0.66,3.77 0.71,3.93 0.71,4.10 0.72,4.26 0.69,4.42 0.65,4.58 0.58,4.73 0.51,4.88 0.41,5.01 0.30,5.13 0.17,5.23 0.04,5.33 -0.10,5.40 -0.26,5.46 -0.42,5.49 -0.58,5.51 -0.75,5.50 -0.91,5.48 -1.07,5.43 -1.22,5.38 -1.36,5.29 -1.50,5.20 -1.62,5.08 -1.73,4.96 -1.65,3.78 -1.56,2.60 -1.67,2.06 -1.78,1.53 -1.86,2.26 -1.93,2.99 -1.45,3.31 -0.97,3.63 0.26,4.25 1.49,4.86 1.59,4.87 1.70,4.88 1.79,4.92 1.89,4.97 1.97,5.04 2.05,5.11 2.10,5.21 2.15,5.30 2.16,5.40 2.18,5.51 2.17,5.61 2.15,5.72 2.10,5.81 2.05,5.91 1.97,5.98 1.90,6.05 1.80,6.10 1.70,6.14 1.60,6.16 1.49,6.17 1.39,6.15 1.29,6.12 1.19,6.07 1.10,6.01 1.03,5.93 0.96,5.85 0.92,5.75 0.88,5.66 0.88,5.55 0.87,5.44 0.90,5.34 0.93,5.24 0.99,5.15 1.05,5.06 1.13,5.00 1.21,4.93 1.32,4.90 1.42,4.86 1.52,4.86 1.63,4.86 1.73,4.90 1.83,4.93 1.91,4.99 2.00,5.06 2.06,5.15 2.12,5.23 2.15,5.34 2.18,5.44 2.17,5.54 2.17,5.65 2.13,5.75 2.09,5.85 2.02,5.93 1.95,6.01 1.86,6.07 1.77,6.12 1.67,6.14 1.56,6.17 1.56,6.17 1.56,6.17 -0.12,6.44 -1.81,6.72 -2.39,6.05 -2.96,5.37 -3.66,4.38 -4.36,3.39 -4.26,2.20 -4.16,1.00 -3.69,0.34 -3.22,-0.31 -2.29,-0.58 -1.35,-0.85 -0.46,-0.37 0.42,0.09 0.81,1.02 1.20,1.95 0.82,2.64 0.45,3.33 0.53,3.47 0.62,3.61 0.66,3.77 0.71,3.93 0.71,4.09 0.72,4.26 0.69,4.42 0.65,4.58 0.58,4.73 0.51,4.88 0.41,5.01 0.30,5.13 0.17,5.23 0.04,5.33 -0.10,5.40 -0.26,5.46 -0.42,5.49 -0.58,5.51 -0.75,5.50 -0.91,5.48 -1.07,5.43 -1.22,5.38 -1.36,5.29 -1.50,5.20 -1.62,5.08 -1.73,4.96 -2.11,4.85 -2.50,4.73 -2.93,3.97 -3.37,3.21 -3.27,2.03 -3.17,0.86 -2.82,0.09 -2.47,-0.67 -1.63,-1.34 -0.78,-2.00 0.34,-1.84 1.47,-1.67 2.07,-1.02 2.68,-0.36 2.93,0.79 3.19,1.95 2.90,3.29 2.62,4.64 1.99,6.06 1.36,7.48 0.62,8.46 -0.11,9.43 -1.06,9.89 -2.00,10.35 -3.43,9.61 -4.86,8.86 -5.25,7.42 -5.63,5.99 -5.49,4.80 -5.34,3.62 -4.89,2.40 -4.44,1.19 -3.43,0.22 -2.43,-0.73 -1.36,-0.80 -0.28,-0.86 -0.18,-0.88 -0.07,-0.91 0.03,-0.90 0.14,-0.90 0.25,-0.87 0.35,-0.84 0.45,-0.78 0.54,-0.73 0.62,-0.65 0.70,-0.57 0.76,-0.48 0.82,-0.39 0.86,-0.28 0.89,-0.18 0.90,-0.07 0.91,0.03 0.89,0.14 0.87,0.25 0.83,0.35 0.79,0.45 0.72,0.54 0.65,0.63 0.57,0.70 0.48,0.77 0.38,0.81 0.28,0.86 0.28,0.86 L 0.28,0.86 Z"></path></g><g transform="translate(184.17578125 177.60311889648438) rotate(0 -52.033660888671875 77.22889709472656)" stroke="none"><path fill="#000000" d="M 0.43,0.65 Q 0.43,0.65 -0.24,1.66 -0.92,2.67 -1.75,3.75 -2.59,4.84 -3.67,6.02 -4.75,7.21 -5.77,8.58 -6.78,9.94 -7.85,11.48 -8.91,13.01 -10.33,14.94 -11.75,16.88 -13.34,18.71 -14.93,20.53 -16.82,22.84 -18.72,25.14 -20.13,27.04 -21.55,28.94 -23.16,30.76 -24.76,32.59 -26.07,33.99 -27.38,35.39 -28.50,36.85 -29.62,38.32 -31.43,40.29 -33.25,42.26 -34.53,44.22 -35.82,46.18 -37.36,48.35 -38.91,50.52 -40.18,52.36 -41.45,54.20 -42.58,56.19 -43.70,58.17 -45.18,60.37 -46.66,62.56 -47.94,64.16 -49.23,65.76 -49.98,67.20 -50.72,68.64 -51.73,70.32 -52.75,71.99 -54.15,74.00 -55.55,76.00 -56.41,77.41 -57.27,78.82 -58.02,79.82 -58.76,80.83 -59.32,81.79 -59.89,82.75 -60.97,83.72 -62.04,84.70 -62.87,86.07 -63.69,87.44 -64.76,89.06 -65.82,90.69 -67.24,92.67 -68.65,94.65 -69.82,96.67 -70.98,98.68 -72.15,100.54 -73.31,102.40 -74.36,104.66 -75.41,106.92 -76.20,108.56 -76.99,110.20 -77.69,111.31 -78.40,112.43 -78.96,113.44 -79.51,114.44 -80.42,115.88 -81.33,117.32 -82.35,118.87 -83.36,120.42 -84.38,122.27 -85.39,124.12 -86.46,126.17 -87.53,128.22 -88.95,130.71 -90.37,133.20 -91.66,134.97 -92.95,136.74 -93.41,137.65 -93.87,138.57 -94.58,139.21 -95.30,139.85 -95.78,141.16 -96.25,142.48 -96.84,143.69 -97.44,144.90 -97.86,145.68 -98.29,146.46 -98.94,147.80 -99.58,149.13 -99.63,149.70 -99.67,150.26 -100.17,151.24 -100.67,152.21 -101.24,152.92 -101.81,153.63 -102.06,154.19 -102.31,154.75 -102.47,154.90 -102.63,155.06 -102.82,155.17 -103.01,155.29 -103.22,155.35 -103.43,155.42 -103.65,155.43 -103.88,155.45 -104.10,155.41 -104.31,155.36 -104.52,155.27 -104.72,155.18 -104.89,155.04 -105.07,154.91 -105.21,154.73 -105.34,154.56 -105.43,154.35 -105.52,154.15 -105.56,153.93 -105.60,153.71 -105.59,153.49 -105.58,153.27 -105.51,153.06 -105.44,152.84 -105.33,152.65 -105.21,152.46 -103.96,151.37 -102.71,150.27 -102.65,150.18 -102.59,150.10 -102.50,150.04 -102.41,149.98 -102.31,149.95 -102.21,149.92 -102.10,149.92 -101.99,149.93 -101.90,149.97 -101.80,150.00 -101.72,150.07 -101.63,150.14 -101.58,150.23 -101.52,150.32 -101.50,150.42 -101.47,150.53 -101.49,150.63 -101.50,150.74 -101.54,150.84 -101.58,150.93 -101.66,151.01 -101.73,151.09 -101.82,151.14 -101.92,151.19 -102.02,151.21 -102.12,151.23 -102.23,151.21 -102.33,151.19 -102.43,151.14 -102.52,151.10 -102.60,151.02 -102.67,150.94 -102.72,150.85 -102.76,150.75 -102.77,150.65 -102.79,150.54 -102.76,150.44 -102.74,150.33 -102.69,150.24 -102.63,150.15 -102.55,150.08 -102.47,150.01 -102.38,149.97 -102.28,149.93 -102.17,149.92 -102.06,149.92 -101.96,149.94 -101.86,149.97 -101.77,150.03 -101.68,150.09 -101.62,150.17 -101.55,150.26 -101.52,150.36 -101.48,150.46 -101.48,150.56 -101.48,150.67 -101.51,150.77 -101.55,150.87 -101.55,150.87 -101.55,150.87 -101.93,152.81 -102.31,154.75 -102.47,154.90 -102.63,155.06 -102.82,155.17 -103.01,155.29 -103.22,155.35 -103.43,155.42 -103.65,155.43 -103.88,155.45 -104.10,155.41 -104.31,155.37 -104.52,155.27 -104.72,155.18 -104.89,155.04 -105.07,154.91 -105.21,154.73 -105.34,154.56 -105.43,154.35 -105.52,154.15 -105.56,153.93 -105.60,153.71 -105.59,153.49 -105.58,153.27 -105.51,153.06 -105.44,152.84 -105.33,152.65 -105.21,152.46 -105.05,151.87 -104.90,151.28 -104.23,150.36 -103.56,149.45 -102.98,147.86 -102.40,146.27 -102.12,145.40 -101.84,144.53 -101.05,143.27 -100.25,142.02 -99.67,140.78 -99.09,139.54 -98.23,138.08 -97.38,136.63 -96.80,135.49 -96.21,134.36 -95.05,132.78 -93.88,131.20 -92.50,128.78 -91.11,126.36 -90.02,124.26 -88.93,122.17 -87.84,120.19 -86.74,118.21 -85.75,116.69 -84.75,115.16 -83.90,113.81 -83.04,112.47 -82.42,111.35 -81.79,110.24 -81.20,109.34 -80.60,108.44 -79.81,106.82 -79.02,105.20 -77.83,102.76 -76.65,100.31 -75.51,98.50 -74.37,96.70 -73.09,94.54 -71.81,92.39 -70.44,90.47 -69.07,88.56 -68.02,86.95 -66.96,85.35 -65.77,83.56 -64.58,81.77 -63.88,81.24 -63.18,80.71 -62.52,79.62 -61.87,78.52 -61.22,77.66 -60.57,76.79 -59.64,75.29 -58.71,73.78 -57.38,71.88 -56.05,69.99 -55.09,68.41 -54.13,66.84 -53.19,65.09 -52.24,63.34 -51.04,61.87 -49.85,60.40 -48.44,58.33 -47.03,56.26 -45.80,54.15 -44.58,52.04 -43.29,50.17 -42.00,48.31 -40.48,46.20 -38.97,44.09 -37.50,41.90 -36.03,39.71 -34.32,37.86 -32.61,36.02 -31.37,34.42 -30.13,32.82 -28.86,31.46 -27.58,30.10 -26.07,28.39 -24.56,26.69 -23.09,24.72 -21.62,22.75 -19.68,20.41 -17.74,18.07 -16.25,16.37 -14.75,14.68 -13.35,12.77 -11.95,10.87 -10.84,9.30 -9.72,7.72 -8.57,6.23 -7.41,4.73 -6.36,3.63 -5.31,2.52 -4.08,1.18 -2.85,-0.15 -1.64,-0.40 -0.43,-0.65 -0.35,-0.70 -0.26,-0.74 -0.17,-0.76 -0.08,-0.78 0.01,-0.78 0.10,-0.78 0.20,-0.75 0.29,-0.73 0.37,-0.68 0.45,-0.64 0.52,-0.57 0.60,-0.51 0.65,-0.43 0.70,-0.35 0.73,-0.26 0.77,-0.17 0.78,-0.08 0.79,0.01 0.77,0.10 0.76,0.20 0.72,0.29 0.69,0.37 0.63,0.45 0.58,0.53 0.51,0.59 0.43,0.65 0.43,0.65 L 0.43,0.65 Z"></path></g><g transform="translate(187.46209716796875 175.4122314453125) rotate(0 65.72671508789062 53.12908935546875)" stroke="none"><path fill="#000000" d="M 0.48,-0.64 Q 0.48,-0.64 1.98,-0.01 3.47,0.61 5.02,1.99 6.58,3.36 8.11,4.51 9.64,5.65 10.99,6.82 12.34,7.99 13.56,9.11 14.77,10.23 15.92,11.34 17.07,12.44 19.09,14.12 21.11,15.80 22.96,17.50 24.81,19.20 26.48,20.49 28.15,21.78 29.88,23.33 31.60,24.88 33.80,26.39 36.00,27.91 37.92,29.20 39.83,30.49 41.34,31.72 42.85,32.96 44.26,33.67 45.67,34.39 47.42,35.77 49.18,37.16 50.66,37.92 52.15,38.69 53.83,39.71 55.52,40.73 56.82,41.44 58.11,42.16 59.29,42.78 60.46,43.39 61.83,43.93 63.20,44.47 64.26,45.09 65.33,45.72 66.32,46.25 67.31,46.78 68.17,47.40 69.04,48.02 70.07,48.94 71.10,49.87 71.83,50.56 72.56,51.26 73.36,51.75 74.16,52.24 74.96,52.88 75.76,53.51 76.56,54.57 77.36,55.63 77.89,56.25 78.43,56.86 79.26,57.74 80.10,58.62 80.78,59.31 81.46,60.01 82.38,60.93 83.30,61.85 84.32,62.88 85.34,63.90 86.20,65.09 87.06,66.28 87.64,66.98 88.22,67.68 88.94,68.15 89.66,68.62 90.42,69.26 91.19,69.91 91.96,70.96 92.74,72.02 93.43,72.50 94.13,72.99 95.01,74.09 95.89,75.20 96.45,75.85 97.02,76.51 97.57,77.09 98.11,77.68 98.97,78.55 99.82,79.42 100.68,79.99 101.54,80.56 102.36,81.23 103.17,81.90 103.95,82.96 104.74,84.02 105.73,84.70 106.73,85.38 107.31,85.93 107.90,86.48 108.61,86.90 109.32,87.32 110.10,87.93 110.87,88.54 111.68,89.01 112.49,89.48 113.30,90.09 114.11,90.71 114.93,91.19 115.76,91.67 116.56,92.28 117.36,92.89 118.52,93.52 119.68,94.14 120.67,94.92 121.66,95.70 122.43,96.07 123.20,96.44 123.78,96.96 124.36,97.49 124.92,98.03 125.47,98.56 126.04,99.13 126.61,99.70 127.04,100.53 127.47,101.37 129.44,103.39 131.41,105.41 131.49,105.49 131.56,105.57 131.61,105.66 131.66,105.76 131.67,105.86 131.68,105.97 131.66,106.07 131.64,106.18 131.59,106.27 131.54,106.36 131.46,106.43 131.38,106.50 131.28,106.54 131.18,106.58 131.07,106.59 130.97,106.60 130.87,106.57 130.76,106.55 130.67,106.49 130.58,106.43 130.52,106.35 130.45,106.26 130.42,106.16 130.38,106.06 130.38,105.96 130.38,105.85 130.41,105.75 130.44,105.65 130.50,105.56 130.57,105.48 130.65,105.42 130.74,105.35 130.84,105.32 130.94,105.29 131.05,105.30 131.16,105.30 131.26,105.34 131.35,105.38 131.44,105.44 131.52,105.51 131.58,105.60 131.63,105.69 131.66,105.79 131.68,105.90 131.67,106.00 131.66,106.11 131.62,106.21 131.58,106.30 131.51,106.38 131.43,106.46 131.34,106.51 131.25,106.56 131.14,106.58 131.04,106.60 130.93,106.59 130.83,106.57 130.73,106.52 130.64,106.47 130.64,106.47 130.64,106.48 128.66,105.90 126.68,105.33 125.82,104.92 124.96,104.52 124.34,103.49 123.73,102.46 123.21,101.96 122.69,101.46 122.17,100.95 121.65,100.45 120.93,99.78 120.21,99.10 119.50,98.47 118.79,97.83 117.73,97.33 116.67,96.82 115.81,96.45 114.96,96.09 114.34,95.60 113.72,95.12 112.68,94.50 111.65,93.89 111.04,93.41 110.44,92.94 109.41,92.31 108.38,91.69 107.79,91.22 107.20,90.74 106.18,90.09 105.16,89.44 104.64,88.96 104.12,88.47 103.66,88.07 103.20,87.67 102.36,87.05 101.52,86.42 101.05,85.71 100.57,84.99 99.91,84.44 99.24,83.88 98.10,83.07 96.95,82.25 96.06,81.34 95.17,80.43 94.57,79.78 93.97,79.14 93.31,78.38 92.66,77.62 92.15,76.88 91.65,76.14 90.56,75.24 89.48,74.35 89.03,73.65 88.58,72.94 87.96,72.41 87.33,71.88 86.25,71.07 85.16,70.25 84.48,69.42 83.79,68.58 83.15,67.64 82.52,66.70 81.50,65.68 80.48,64.65 79.55,63.71 78.62,62.77 77.93,62.05 77.24,61.34 76.32,60.37 75.41,59.41 74.79,58.65 74.17,57.89 73.73,57.21 73.29,56.52 72.67,56.01 72.05,55.50 70.98,54.79 69.90,54.07 69.20,53.40 68.49,52.73 67.63,51.93 66.76,51.12 66.12,50.64 65.48,50.16 64.42,49.58 63.36,49.00 62.56,48.51 61.76,48.01 60.23,47.38 58.69,46.75 57.48,46.11 56.27,45.47 54.91,44.71 53.56,43.95 51.97,42.98 50.38,42.00 48.61,41.04 46.84,40.08 45.38,38.87 43.92,37.67 42.22,36.75 40.51,35.83 39.13,34.69 37.75,33.56 35.83,32.24 33.91,30.92 31.53,29.25 29.16,27.59 27.54,26.11 25.92,24.63 24.15,23.23 22.38,21.84 20.60,20.18 18.81,18.52 16.72,16.74 14.62,14.96 13.51,13.85 12.40,12.75 11.25,11.65 10.10,10.54 8.85,9.42 7.61,8.31 5.99,7.05 4.37,5.79 2.96,4.47 1.56,3.16 0.53,1.90 -0.48,0.64 -0.55,0.57 -0.62,0.51 -0.67,0.42 -0.72,0.34 -0.76,0.25 -0.79,0.16 -0.79,0.06 -0.80,-0.03 -0.79,-0.12 -0.77,-0.22 -0.73,-0.31 -0.70,-0.40 -0.64,-0.48 -0.58,-0.55 -0.50,-0.62 -0.43,-0.68 -0.34,-0.72 -0.25,-0.76 -0.16,-0.78 -0.06,-0.80 0.03,-0.80 0.12,-0.79 0.22,-0.77 0.31,-0.74 0.40,-0.69 0.48,-0.64 0.48,-0.64 L 0.48,-0.64 Z"></path></g><g transform="translate(163.3623046875 201.70291137695312) rotate(0 24.64752197265625 3.286346435546875)" stroke="none"><path fill="#000000" d="M 0.47,-0.71 Q 0.47,-0.71 1.58,-0.31 2.69,0.08 3.57,1.12 4.44,2.15 5.40,3.51 6.37,4.87 7.35,6.01 8.33,7.14 9.63,8.19 10.92,9.24 12.32,9.96 13.72,10.67 15.13,10.94 16.54,11.21 17.94,11.03 19.35,10.84 20.89,10.47 22.44,10.10 24.63,9.33 26.82,8.55 28.28,7.65 29.74,6.75 31.35,5.71 32.95,4.68 34.58,3.61 36.20,2.53 38.07,0.88 39.94,-0.77 41.01,-2.05 42.08,-3.34 43.29,-4.33 44.51,-5.32 46.05,-5.81 47.59,-6.30 47.58,-6.40 47.56,-6.51 47.58,-6.61 47.60,-6.72 47.65,-6.81 47.71,-6.90 47.79,-6.97 47.87,-7.04 47.96,-7.08 48.06,-7.13 48.17,-7.13 48.27,-7.14 48.38,-7.12 48.48,-7.09 48.57,-7.03 48.66,-6.98 48.72,-6.89 48.79,-6.81 48.83,-6.71 48.86,-6.61 48.87,-6.51 48.87,-6.40 48.84,-6.30 48.81,-6.20 48.74,-6.11 48.68,-6.02 48.60,-5.96 48.51,-5.90 48.41,-5.87 48.31,-5.84 48.20,-5.84 48.09,-5.84 48.00,-5.88 47.90,-5.92 47.81,-5.98 47.73,-6.05 47.67,-6.14 47.62,-6.23 47.59,-6.33 47.56,-6.44 47.57,-6.54 47.58,-6.65 47.62,-6.75 47.67,-6.84 47.74,-6.92 47.81,-7.00 47.90,-7.05 47.99,-7.11 48.10,-7.13 48.20,-7.15 48.31,-7.13 48.41,-7.12 48.51,-7.07 48.60,-7.02 48.68,-6.95 48.75,-6.87 48.80,-6.78 48.85,-6.68 48.85,-6.68 48.85,-6.68 47.62,-4.83 46.38,-2.98 45.37,-2.19 44.35,-1.40 43.13,0.02 41.91,1.46 39.87,3.23 37.83,5.01 36.18,6.08 34.54,7.15 32.90,8.20 31.26,9.25 29.53,10.28 27.80,11.31 25.46,12.13 23.11,12.94 21.39,13.35 19.66,13.75 17.82,13.91 15.98,14.06 14.19,13.66 12.41,13.25 10.75,12.37 9.09,11.49 7.62,10.26 6.15,9.04 5.08,7.79 4.01,6.54 3.10,5.24 2.19,3.95 1.63,3.19 1.08,2.43 0.30,1.57 -0.47,0.71 -0.55,0.64 -0.63,0.58 -0.69,0.49 -0.75,0.41 -0.79,0.31 -0.83,0.21 -0.84,0.11 -0.86,0.01 -0.85,-0.08 -0.83,-0.19 -0.80,-0.29 -0.76,-0.38 -0.71,-0.47 -0.65,-0.56 -0.57,-0.63 -0.50,-0.70 -0.40,-0.75 -0.31,-0.80 -0.21,-0.82 -0.11,-0.85 -0.01,-0.85 0.09,-0.85 0.19,-0.83 0.29,-0.81 0.38,-0.76 0.47,-0.71 0.47,-0.71 L 0.47,-0.71 Z"></path></g><g transform="translate(186.36663818359375 190.74844360351562) rotate(0 -1.643157958984375 10.9544677734375)" stroke="none"><path fill="#000000" d="M -0.36,0.73 Q -0.36,0.73 -0.98,0.69 -1.59,0.64 -2.45,0.95 -3.30,1.26 -3.95,2.10 -4.60,2.95 -5.11,3.84 -5.62,4.73 -5.78,5.59 -5.95,6.44 -6.37,8.15 -6.79,9.86 -6.95,11.74 -7.11,13.61 -6.89,15.25 -6.66,16.89 -6.58,18.26 -6.51,19.64 -5.99,20.22 -5.48,20.81 -4.80,21.01 -4.13,21.21 -3.56,21.34 -3.00,21.48 -2.40,21.26 -1.79,21.05 -1.34,20.47 -0.89,19.89 -0.01,18.70 0.86,17.51 1.51,16.14 2.15,14.76 2.75,13.24 3.35,11.71 3.58,10.52 3.81,9.33 3.91,8.21 4.01,7.10 4.06,6.00 4.10,4.90 4.12,4.15 4.15,3.39 3.54,2.55 2.94,1.70 2.25,1.12 1.55,0.53 1.45,0.55 1.34,0.57 1.24,0.55 1.13,0.53 1.04,0.48 0.95,0.43 0.87,0.35 0.80,0.28 0.76,0.18 0.71,0.08 0.70,-0.01 0.69,-0.12 0.71,-0.22 0.74,-0.32 0.79,-0.42 0.85,-0.51 0.93,-0.58 1.01,-0.64 1.11,-0.68 1.21,-0.72 1.31,-0.73 1.42,-0.73 1.52,-0.70 1.62,-0.68 1.71,-0.62 1.80,-0.56 1.86,-0.47 1.93,-0.39 1.96,-0.29 1.99,-0.18 1.99,-0.08 1.99,0.02 1.96,0.12 1.92,0.22 1.86,0.30 1.80,0.39 1.71,0.45 1.62,0.51 1.52,0.53 1.41,0.56 1.31,0.56 1.20,0.55 1.10,0.51 1.01,0.47 0.92,0.40 0.84,0.33 0.79,0.24 0.73,0.15 0.71,0.05 0.69,-0.05 0.70,-0.15 0.71,-0.26 0.76,-0.35 0.80,-0.45 0.88,-0.53 0.95,-0.60 1.04,-0.65 1.14,-0.70 1.14,-0.70 1.14,-0.70 3.04,-0.33 4.94,0.04 5.48,0.77 6.01,1.49 6.38,2.41 6.74,3.33 6.72,4.17 6.71,5.01 6.65,6.18 6.60,7.34 6.48,8.59 6.36,9.84 6.06,11.25 5.77,12.65 5.13,14.27 4.50,15.89 3.72,17.47 2.95,19.06 1.97,20.38 0.98,21.71 0.01,22.59 -0.95,23.48 -2.20,23.76 -3.45,24.04 -4.30,23.85 -5.15,23.65 -6.30,23.08 -7.46,22.51 -8.29,21.29 -9.12,20.06 -9.25,18.66 -9.38,17.25 -9.63,15.32 -9.88,13.38 -9.69,11.29 -9.51,9.20 -9.10,7.51 -8.69,5.82 -8.39,4.60 -8.08,3.37 -7.49,2.34 -6.90,1.32 -6.17,0.37 -5.43,-0.58 -4.13,-1.09 -2.83,-1.61 -1.88,-1.76 -0.92,-1.90 -0.27,-1.32 0.36,-0.73 0.44,-0.67 0.53,-0.62 0.59,-0.55 0.66,-0.47 0.71,-0.39 0.76,-0.30 0.78,-0.21 0.81,-0.11 0.81,-0.01 0.81,0.08 0.79,0.17 0.77,0.27 0.72,0.36 0.68,0.45 0.61,0.52 0.55,0.60 0.47,0.66 0.39,0.71 0.30,0.75 0.21,0.79 0.11,0.80 0.01,0.81 -0.08,0.80 -0.18,0.79 -0.27,0.76 -0.36,0.73 -0.36,0.73 L -0.36,0.73 Z"></path></g><g transform="translate(180.889404296875 194.0347900390625) rotate(0 4.38177490234375 7.668121337890625)" stroke="none"><path fill="#000000" d="M 0.66,-0.49 Q 0.66,-0.49 1.85,0.57 3.04,1.65 3.81,2.86 4.58,4.07 5.46,5.10 6.34,6.13 7.12,7.32 7.90,8.51 8.29,9.80 8.68,11.10 9.01,12.59 9.34,14.09 9.35,14.16 9.36,14.24 9.36,14.32 9.35,14.40 9.32,14.48 9.30,14.55 9.25,14.62 9.21,14.68 9.15,14.74 9.10,14.79 9.03,14.83 8.96,14.87 8.88,14.89 8.80,14.91 8.73,14.91 8.65,14.91 8.57,14.90 8.49,14.88 8.42,14.85 8.35,14.81 8.29,14.76 8.23,14.71 8.18,14.65 8.14,14.58 8.11,14.51 8.08,14.43 8.35,14.02 8.62,13.61 8.73,13.61 8.83,13.62 8.93,13.65 9.03,13.69 9.11,13.76 9.20,13.82 9.25,13.91 9.31,14.00 9.34,14.10 9.36,14.21 9.35,14.31 9.35,14.42 9.30,14.52 9.26,14.61 9.19,14.69 9.12,14.77 9.03,14.82 8.93,14.88 8.83,14.90 8.73,14.92 8.62,14.90 8.52,14.89 8.42,14.84 8.32,14.79 8.25,14.72 8.17,14.64 8.13,14.55 8.08,14.45 8.07,14.35 8.05,14.24 8.07,14.14 8.09,14.03 8.14,13.94 8.20,13.85 8.28,13.78 8.35,13.71 8.45,13.67 8.55,13.62 8.66,13.61 8.76,13.61 8.86,13.63 8.97,13.66 9.06,13.71 9.15,13.77 9.21,13.86 9.28,13.94 9.32,14.04 9.35,14.14 9.36,14.24 9.36,14.35 9.33,14.45 9.30,14.55 9.23,14.64 9.17,14.73 9.09,14.79 9.00,14.85 9.17,14.47 9.34,14.09 9.35,14.16 9.36,14.24 9.36,14.32 9.35,14.40 9.32,14.48 9.30,14.55 9.25,14.62 9.21,14.68 9.15,14.74 9.10,14.79 9.03,14.83 8.96,14.87 8.88,14.89 8.80,14.91 8.73,14.91 8.65,14.91 8.57,14.90 8.49,14.88 8.42,14.85 8.35,14.81 8.29,14.76 8.23,14.71 8.18,14.65 8.14,14.58 8.11,14.51 8.08,14.43 6.91,13.18 5.75,11.93 5.54,11.02 5.32,10.11 4.68,9.08 4.03,8.06 3.04,6.84 2.06,5.62 1.39,4.50 0.73,3.38 0.03,1.94 -0.66,0.49 -0.71,0.40 -0.76,0.32 -0.78,0.22 -0.81,0.13 -0.81,0.03 -0.82,-0.06 -0.80,-0.16 -0.78,-0.26 -0.74,-0.35 -0.69,-0.44 -0.63,-0.51 -0.57,-0.59 -0.49,-0.65 -0.41,-0.71 -0.32,-0.75 -0.22,-0.79 -0.13,-0.80 -0.03,-0.82 0.06,-0.81 0.16,-0.80 0.26,-0.77 0.35,-0.74 0.43,-0.69 0.52,-0.63 0.59,-0.56 0.66,-0.49 0.66,-0.49 L 0.66,-0.49 Z"></path></g><g stroke-opacity="0.7" fill-opacity="0.7" transform="translate(163.3623046875 215.9437255859375) rotate(0 36.149658203125 69.56072998046875)" stroke="none"><path fill="#1971c2" d="M 2.47,2.19 Q 2.47,2.19 0.84,5.82 -0.78,9.45 -2.96,12.36 -5.15,15.28 -6.92,18.23 -8.70,21.19 -9.67,23.48 -10.65,25.76 -11.73,27.66 -12.82,29.56 -13.20,30.08 -13.58,30.60 -14.07,31.01 -14.56,31.43 -15.14,31.71 -15.72,32.00 -16.35,32.14 -16.98,32.27 -17.62,32.26 -18.27,32.24 -18.89,32.07 -19.51,31.90 -20.08,31.58 -20.64,31.27 -21.11,30.83 -21.58,30.39 -21.93,29.85 -22.29,29.31 -22.50,28.70 -22.71,28.09 -22.77,27.45 -22.83,26.81 -22.74,26.17 -22.64,25.53 -22.40,24.94 -22.16,24.34 -19.07,19.70 -15.99,15.06 -13.52,11.45 -11.06,7.83 -8.44,4.09 -5.82,0.36 -3.91,-1.79 -2.00,-3.94 -1.62,-4.81 -1.24,-5.68 -0.75,-6.09 -0.27,-6.51 0.29,-6.79 0.86,-7.08 1.49,-7.22 2.11,-7.36 2.75,-7.35 3.39,-7.34 4.00,-7.18 4.62,-7.01 5.18,-6.71 5.74,-6.40 6.21,-5.97 6.68,-5.54 7.04,-5.01 7.39,-4.47 7.61,-3.87 7.82,-3.27 7.89,-2.64 7.96,-2.00 7.87,-1.37 7.78,-0.74 7.54,-0.14 7.31,0.44 6.93,0.96 6.56,1.48 4.86,3.54 3.17,5.61 -0.91,11.21 -4.99,16.80 -8.29,21.37 -11.60,25.93 -14.57,30.08 -17.55,34.22 -19.71,37.47 -21.87,40.72 -23.60,42.85 -25.33,44.97 -25.73,45.84 -26.13,46.70 -26.55,47.14 -26.98,47.57 -27.50,47.90 -28.02,48.22 -28.60,48.41 -29.18,48.59 -29.79,48.64 -30.40,48.68 -31.00,48.58 -31.60,48.47 -32.16,48.23 -32.72,47.98 -33.21,47.61 -33.69,47.24 -34.07,46.76 -34.45,46.29 -34.71,45.73 -34.97,45.18 -35.08,44.58 -35.20,43.98 -35.17,43.37 -35.14,42.76 -34.96,42.18 -34.79,41.59 -34.48,41.07 -34.17,40.54 -31.86,37.31 -29.56,34.08 -27.24,30.69 -24.92,27.30 -22.08,23.08 -19.24,18.85 -17.82,16.28 -16.40,13.70 -15.46,12.53 -14.52,11.36 -14.17,10.87 -13.82,10.39 -13.36,10.00 -12.91,9.62 -12.37,9.35 -11.83,9.09 -11.25,8.96 -10.66,8.83 -10.07,8.84 -9.47,8.86 -8.89,9.01 -8.31,9.17 -7.79,9.46 -7.27,9.75 -6.83,10.16 -6.39,10.57 -6.06,11.07 -5.73,11.57 -5.53,12.13 -5.33,12.70 -5.28,13.29 -5.22,13.89 -5.30,14.48 -5.39,15.07 -5.62,15.63 -5.84,16.18 -8.76,20.77 -11.68,25.35 -15.62,31.43 -19.55,37.51 -23.70,44.44 -27.85,51.37 -31.55,57.23 -35.26,63.09 -38.09,67.47 -40.93,71.85 -42.62,75.33 -44.31,78.81 -45.50,80.98 -46.69,83.15 -47.00,83.63 -47.31,84.11 -47.73,84.50 -48.15,84.90 -48.65,85.18 -49.15,85.46 -49.70,85.61 -50.25,85.76 -50.83,85.78 -51.40,85.80 -51.96,85.68 -52.52,85.56 -53.03,85.30 -53.55,85.05 -53.99,84.68 -54.43,84.32 -54.77,83.85 -55.11,83.39 -55.33,82.86 -55.54,82.33 -55.63,81.77 -55.72,81.20 -55.66,80.63 -55.61,80.06 -55.42,79.52 -55.23,78.97 -51.57,73.78 -47.91,68.58 -44.39,62.94 -40.88,57.31 -38.46,53.36 -36.03,49.42 -34.01,46.40 -31.98,43.37 -30.61,40.97 -29.25,38.57 -29.00,37.78 -28.75,36.99 -28.39,36.52 -28.04,36.06 -27.58,35.69 -27.13,35.32 -26.59,35.07 -26.06,34.82 -25.49,34.71 -24.91,34.60 -24.33,34.62 -23.74,34.65 -23.18,34.82 -22.62,34.99 -22.11,35.28 -21.61,35.58 -21.19,35.99 -20.77,36.40 -20.46,36.89 -20.15,37.39 -19.96,37.95 -19.78,38.50 -19.74,39.09 -19.70,39.67 -19.79,40.25 -19.89,40.83 -20.12,41.37 -20.36,41.91 -22.13,45.55 -23.91,49.20 -27.17,54.72 -30.43,60.24 -34.61,67.55 -38.78,74.86 -41.52,79.57 -44.26,84.28 -46.38,87.86 -48.49,91.44 -49.94,94.36 -51.38,97.29 -52.36,99.39 -53.34,101.49 -53.48,101.81 -53.62,102.12 -53.90,102.60 -54.18,103.09 -54.57,103.50 -54.96,103.90 -55.44,104.20 -55.91,104.50 -56.45,104.68 -56.98,104.86 -57.54,104.90 -58.10,104.95 -58.66,104.86 -59.21,104.77 -59.73,104.55 -60.25,104.33 -60.70,103.99 -61.15,103.65 -61.50,103.22 -61.86,102.78 -62.10,102.27 -62.34,101.76 -62.45,101.21 -62.57,100.66 -62.54,100.10 -62.52,99.54 -62.36,99.00 -62.21,98.46 -59.97,93.90 -57.74,89.34 -55.88,85.40 -54.01,81.46 -51.67,76.39 -49.34,71.31 -47.70,67.86 -46.06,64.40 -45.40,62.61 -44.74,60.83 -44.43,60.34 -44.13,59.86 -43.72,59.46 -43.30,59.07 -42.81,58.78 -42.31,58.50 -41.76,58.34 -41.21,58.18 -40.64,58.16 -40.07,58.13 -39.51,58.25 -38.95,58.36 -38.43,58.61 -37.92,58.85 -37.47,59.22 -37.03,59.58 -36.69,60.04 -36.34,60.49 -36.12,61.02 -35.90,61.55 -35.80,62.11 -35.71,62.68 -35.76,63.25 -35.81,63.82 -35.99,64.36 -36.17,64.90 -39.54,70.35 -42.92,75.80 -45.10,79.32 -47.29,82.84 -49.22,85.69 -51.15,88.54 -54.05,93.64 -56.95,98.74 -59.14,102.82 -61.33,106.90 -62.56,109.45 -63.78,111.99 -63.99,112.84 -64.20,113.68 -64.52,114.19 -64.83,114.70 -65.26,115.11 -65.69,115.53 -66.20,115.83 -66.72,116.13 -67.29,116.30 -67.86,116.47 -68.45,116.50 -69.05,116.52 -69.63,116.41 -70.22,116.29 -70.76,116.04 -71.30,115.79 -71.76,115.42 -72.23,115.04 -72.59,114.57 -72.95,114.09 -73.18,113.55 -73.42,113.00 -73.52,112.41 -73.62,111.83 -73.58,111.23 -73.53,110.64 -73.35,110.07 -73.16,109.51 -71.23,107.30 -69.29,105.10 -67.68,102.59 -66.07,100.08 -63.66,96.61 -61.25,93.15 -59.03,89.61 -56.82,86.06 -53.64,81.03 -50.46,76.00 -47.84,71.95 -45.21,67.91 -43.27,64.19 -41.33,60.47 -39.48,57.17 -37.63,53.87 -35.95,50.66 -34.26,47.45 -31.90,43.44 -29.54,39.43 -27.55,36.40 -25.56,33.38 -24.11,31.19 -22.65,29.00 -21.13,26.65 -19.61,24.30 -19.57,23.52 -19.52,22.75 -19.09,22.29 -18.67,21.83 -18.14,21.48 -17.62,21.14 -17.03,20.93 -16.43,20.72 -15.81,20.66 -15.19,20.60 -14.56,20.69 -13.94,20.78 -13.36,21.02 -12.78,21.26 -12.27,21.63 -11.77,21.99 -11.36,22.47 -10.96,22.95 -10.68,23.52 -10.40,24.08 -10.27,24.69 -10.13,25.30 -10.15,25.93 -10.16,26.56 -10.33,27.16 -10.49,27.77 -10.80,28.32 -11.10,28.86 -13.07,30.74 -15.03,32.61 -16.54,34.47 -18.05,36.33 -18.58,36.74 -19.10,37.15 -19.71,37.42 -20.32,37.69 -20.97,37.80 -21.62,37.92 -22.28,37.88 -22.95,37.84 -23.58,37.63 -24.21,37.43 -24.78,37.09 -25.35,36.74 -25.81,36.27 -26.28,35.80 -26.62,35.23 -26.96,34.66 -27.16,34.03 -27.35,33.39 -27.39,32.73 -27.43,32.07 -27.30,31.41 -27.18,30.76 -26.91,30.16 -26.63,29.55 -26.22,29.03 -25.81,28.51 -23.02,25.50 -20.24,22.48 -17.88,20.42 -15.52,18.36 -13.53,16.83 -11.54,15.30 -9.66,13.59 -7.77,11.88 -5.69,9.89 -3.61,7.90 -1.92,5.95 -0.23,3.99 1.91,1.77 4.05,-0.45 6.50,-2.53 8.94,-4.61 11.94,-5.23 14.95,-5.85 16.60,-3.11 18.26,-0.38 17.40,2.86 16.54,6.11 14.54,9.37 12.53,12.62 9.88,16.16 7.23,19.69 4.73,23.55 2.23,27.41 0.82,29.98 -0.57,32.54 -1.90,34.75 -3.24,36.96 -4.44,38.87 -5.64,40.77 -7.40,43.88 -9.15,46.98 -10.07,49.17 -10.99,51.35 -12.07,53.68 -13.15,56.00 -14.23,58.25 -15.31,60.51 -16.39,62.73 -17.46,64.95 -18.86,67.80 -20.25,70.64 -21.09,72.63 -21.93,74.62 -23.67,78.44 -25.40,82.26 -27.12,85.29 -28.84,88.33 -30.37,91.80 -31.90,95.27 -33.00,97.43 -34.10,99.60 -35.12,101.61 -36.13,103.62 -37.52,106.37 -38.90,109.12 -40.15,111.72 -41.39,114.33 -42.65,116.34 -43.90,118.35 -45.14,120.41 -46.38,122.47 -47.77,124.25 -49.17,126.03 -49.33,126.84 -49.50,127.66 -49.88,128.22 -50.27,128.78 -50.78,129.24 -51.29,129.69 -51.89,130.01 -52.50,130.33 -53.16,130.49 -53.82,130.66 -54.51,130.66 -55.19,130.66 -55.85,130.50 -56.52,130.34 -57.12,130.02 -57.73,129.71 -58.24,129.26 -58.76,128.80 -59.14,128.24 -59.53,127.68 -59.78,127.04 -60.02,126.40 -60.11,125.73 -60.19,125.05 -60.11,124.37 -60.03,123.69 -59.79,123.05 -59.55,122.41 -57.95,119.79 -56.36,117.17 -54.98,115.23 -53.61,113.30 -51.56,110.12 -49.51,106.94 -47.26,103.84 -45.01,100.74 -42.87,97.65 -40.73,94.55 -37.88,90.63 -35.02,86.72 -32.52,83.45 -30.03,80.19 -28.13,77.38 -26.24,74.57 -24.06,71.64 -21.88,68.71 -20.13,66.06 -18.38,63.41 -16.25,60.54 -14.13,57.66 -11.20,54.39 -8.27,51.12 -6.24,48.65 -4.20,46.18 -2.40,43.89 -0.60,41.60 0.74,39.74 2.09,37.88 4.00,35.41 5.92,32.94 7.28,31.05 8.64,29.17 10.04,26.37 11.44,23.58 13.53,20.20 15.63,16.83 16.90,14.52 18.18,12.21 19.86,9.82 21.55,7.42 23.03,5.05 24.52,2.68 26.22,0.41 27.91,-1.85 29.53,-3.48 31.14,-5.10 32.95,-7.05 34.76,-9.00 35.42,-9.20 36.07,-9.39 36.75,-9.42 37.43,-9.45 38.10,-9.31 38.77,-9.18 39.39,-8.89 40.01,-8.60 40.54,-8.17 41.06,-7.74 41.48,-7.20 41.89,-6.65 42.16,-6.03 42.43,-5.40 42.54,-4.73 42.65,-4.05 42.60,-3.37 42.54,-2.69 42.33,-2.05 42.12,-1.40 41.75,-0.82 41.39,-0.24 40.90,0.22 40.41,0.69 39.82,1.04 39.23,1.38 40.59,-0.73 41.94,-2.84 41.45,-0.65 40.95,1.54 38.27,5.93 35.60,10.33 34.37,12.51 33.14,14.69 31.53,17.11 29.92,19.54 28.76,21.59 27.59,23.64 26.09,26.18 24.60,28.72 22.68,32.88 20.76,37.04 19.61,40.96 18.46,44.88 17.56,48.18 16.65,51.48 15.56,54.38 14.47,57.28 13.37,59.81 12.26,62.33 11.15,64.67 10.04,67.01 8.58,69.72 7.11,72.42 5.84,74.55 4.56,76.68 3.37,78.54 2.19,80.40 0.58,83.82 -1.02,87.24 -2.16,89.21 -3.30,91.19 -4.57,94.03 -5.84,96.87 -7.44,99.80 -9.04,102.73 -10.25,104.98 -11.45,107.24 -12.56,109.44 -13.67,111.63 -15.59,114.79 -17.52,117.95 -18.77,120.00 -20.02,122.05 -21.40,124.47 -22.78,126.90 -23.73,129.15 -24.68,131.40 -26.66,133.98 -28.65,136.56 -29.02,137.23 -29.39,137.90 -30.02,138.21 -30.65,138.53 -31.34,138.68 -32.03,138.83 -32.74,138.82 -33.44,138.80 -34.12,138.62 -34.80,138.43 -35.42,138.09 -36.04,137.75 -36.56,137.27 -37.07,136.79 -37.46,136.20 -37.85,135.61 -38.08,134.94 -38.32,134.27 -38.39,133.57 -38.46,132.87 -38.36,132.17 -38.25,131.47 -37.99,130.82 -37.72,130.16 -37.31,129.59 -36.89,129.02 -36.35,128.56 -35.81,128.11 -34.37,124.91 -32.93,121.72 -31.04,119.00 -29.16,116.29 -27.56,113.81 -25.96,111.33 -23.33,107.37 -20.71,103.41 -18.34,99.84 -15.97,96.27 -13.63,93.08 -11.29,89.88 -9.46,87.11 -7.63,84.33 -4.87,80.49 -2.10,76.65 0.34,73.42 2.79,70.20 4.67,67.41 6.54,64.62 8.27,61.88 10.01,59.13 11.25,56.61 12.50,54.09 14.46,50.82 16.41,47.56 17.71,44.89 19.01,42.23 20.24,39.74 21.48,37.25 22.63,34.93 23.79,32.61 25.29,29.92 26.79,27.24 28.00,24.96 29.20,22.68 30.43,20.61 31.66,18.54 33.15,15.66 34.64,12.79 35.70,10.79 36.76,8.80 38.28,6.12 39.81,3.44 41.71,0.69 43.61,-2.05 45.17,-4.02 46.73,-5.99 50.90,-8.45 55.07,-10.91 51.53,-9.35 47.99,-7.79 48.34,-8.42 48.69,-9.05 49.18,-9.57 49.67,-10.10 50.27,-10.49 50.88,-10.88 51.55,-11.12 52.23,-11.36 52.95,-11.42 53.66,-11.49 54.37,-11.39 55.08,-11.28 55.75,-11.01 56.41,-10.74 56.99,-10.31 57.57,-9.89 58.04,-9.34 58.50,-8.79 58.82,-8.14 59.13,-7.50 59.29,-6.80 59.44,-6.10 59.42,-5.38 59.40,-4.66 59.21,-3.97 59.02,-3.27 57.88,-0.58 56.74,2.10 55.81,4.19 54.87,6.28 53.86,8.39 52.84,10.51 51.93,13.25 51.01,16.00 49.86,18.76 48.72,21.51 47.59,23.96 46.46,26.41 45.48,29.32 44.50,32.24 43.38,35.25 42.25,38.27 41.09,40.93 39.94,43.58 38.86,46.17 37.79,48.76 36.07,53.22 34.34,57.68 33.50,60.99 32.67,64.30 31.70,67.91 30.74,71.52 29.57,74.91 28.40,78.29 27.31,81.97 26.22,85.66 25.25,87.97 24.28,90.28 23.15,92.35 22.02,94.42 20.75,97.30 19.48,100.18 17.92,103.48 16.37,106.78 15.12,109.19 13.86,111.60 12.26,114.76 10.66,117.93 9.19,119.58 7.72,121.23 6.38,123.20 5.05,125.18 3.71,127.29 2.37,129.40 0.71,132.16 -0.94,134.92 -2.15,136.72 -3.35,138.52 -4.94,140.72 -6.54,142.92 -7.03,143.44 -7.52,143.97 -8.12,144.36 -8.72,144.75 -9.40,144.98 -10.08,145.21 -10.79,145.28 -11.50,145.34 -12.21,145.24 -12.92,145.13 -13.58,144.85 -14.24,144.58 -14.82,144.16 -15.40,143.73 -15.86,143.18 -16.32,142.63 -16.63,141.99 -16.94,141.34 -17.09,140.64 -17.25,139.94 -17.22,139.23 -17.20,138.51 -17.01,137.82 -16.82,137.13 -16.47,136.50 -16.11,135.88 -13.62,132.28 -11.12,128.68 -9.33,126.02 -7.54,123.37 -4.55,119.05 -1.55,114.72 0.95,111.03 3.46,107.34 5.78,103.89 8.11,100.43 10.36,97.08 12.60,93.72 15.58,89.91 18.55,86.10 20.60,83.12 22.65,80.14 24.89,77.15 27.14,74.15 28.91,71.48 30.68,68.81 32.01,66.51 33.34,64.20 35.35,61.36 37.36,58.51 39.12,56.11 40.88,53.70 42.58,51.42 44.27,49.14 46.19,46.36 48.11,43.59 49.93,41.07 51.75,38.55 53.10,36.60 54.46,34.64 55.67,32.88 56.87,31.11 58.80,28.53 60.73,25.96 62.09,24.08 63.45,22.19 65.38,19.67 67.31,17.16 68.63,15.11 69.96,13.07 71.29,11.05 72.62,9.03 73.76,7.84 74.90,6.64 75.45,6.19 75.99,5.74 76.63,5.43 77.26,5.12 77.95,4.97 78.65,4.83 79.35,4.85 80.06,4.87 80.74,5.06 81.42,5.25 82.04,5.60 82.65,5.95 83.17,6.44 83.68,6.92 84.06,7.52 84.45,8.11 84.67,8.78 84.90,9.45 84.97,10.15 85.03,10.86 84.92,11.55 84.81,12.25 84.54,12.91 84.27,13.56 83.85,14.13 83.43,14.70 81.62,18.17 79.81,21.65 78.42,25.48 77.03,29.31 75.74,32.94 74.46,36.57 73.53,38.99 72.60,41.40 71.33,45.01 70.06,48.62 68.95,52.34 67.84,56.06 66.31,60.06 64.78,64.06 63.56,67.38 62.34,70.70 61.15,72.67 59.96,74.63 58.53,77.73 57.10,80.83 55.81,83.88 54.52,86.93 53.45,89.45 52.37,91.98 51.33,93.92 50.29,95.86 48.67,99.12 47.05,102.38 45.58,104.55 44.11,106.72 43.04,108.61 41.97,110.50 40.44,113.29 38.91,116.09 38.02,118.36 37.12,120.63 35.69,123.21 34.26,125.79 33.00,127.71 31.74,129.62 30.83,131.96 29.93,134.31 28.72,136.75 27.52,139.20 25.84,142.02 24.15,144.84 20.73,147.34 17.32,149.83 14.31,146.44 11.31,143.06 12.68,140.49 14.06,137.91 16.15,134.70 18.24,131.49 19.83,129.21 21.43,126.92 23.05,124.69 24.67,122.46 25.83,120.49 26.98,118.52 28.77,115.42 30.57,112.32 32.38,109.59 34.19,106.85 35.38,104.46 36.57,102.07 38.24,99.43 39.90,96.80 41.20,94.81 42.49,92.82 44.31,90.08 46.13,87.33 47.53,85.23 48.93,83.12 50.52,80.89 52.11,78.65 53.37,76.83 54.63,75.01 56.05,72.74 57.47,70.48 58.76,68.50 60.04,66.52 61.22,64.73 62.40,62.93 65.07,59.53 67.75,56.12 70.32,53.26 72.89,50.40 75.06,47.74 77.22,45.08 78.72,43.51 80.21,41.94 81.52,40.14 82.83,38.34 84.24,36.35 85.64,34.37 86.61,32.40 87.58,30.44 88.75,28.67 89.93,26.90 92.20,24.45 94.48,22.01 93.90,22.20 93.31,22.39 93.69,21.73 94.07,21.07 94.59,20.52 95.11,19.97 95.75,19.57 96.38,19.16 97.10,18.92 97.82,18.67 98.57,18.61 99.33,18.54 100.08,18.66 100.82,18.78 101.52,19.07 102.22,19.37 102.83,19.82 103.43,20.27 103.92,20.85 104.40,21.44 104.73,22.12 105.05,22.80 105.21,23.54 105.36,24.28 105.34,25.04 105.31,25.80 105.10,26.53 104.90,27.25 103.92,29.25 102.95,31.25 101.60,33.92 100.25,36.60 99.13,39.56 98.00,42.53 96.86,45.39 95.73,48.24 94.84,50.52 93.95,52.79 92.70,56.30 91.46,59.82 89.83,63.59 88.19,67.36 87.53,69.95 86.86,72.53 85.79,75.21 84.72,77.89 84.11,80.59 83.49,83.29 82.36,86.46 81.23,89.62 80.02,91.39 78.80,93.17 77.85,95.31 76.90,97.44 75.88,99.77 74.86,102.11 74.24,104.44 73.61,106.76 72.44,110.31 71.28,113.85 70.19,116.68 69.11,119.51 67.83,122.79 66.55,126.07 65.38,128.96 64.21,131.85 63.36,133.96 62.50,136.07 61.41,138.78 60.32,141.50 59.30,142.83 58.29,144.17 57.94,144.88 57.59,145.59 57.08,146.19 56.57,146.80 55.93,147.27 55.29,147.73 54.56,148.04 53.83,148.34 53.04,148.45 52.26,148.57 51.47,148.49 50.69,148.42 49.94,148.16 49.19,147.90 48.53,147.47 47.86,147.03 47.32,146.46 46.78,145.88 46.40,145.19 46.01,144.50 45.80,143.73 45.59,142.97 45.57,142.18 45.55,141.39 45.72,140.61 45.89,139.84 47.70,136.35 49.51,132.86 50.70,130.79 51.89,128.73 52.92,126.79 53.95,124.84 55.12,122.87 56.30,120.90 58.55,117.40 60.80,113.90 62.93,110.22 65.06,106.54 67.30,103.08 69.55,99.62 70.91,97.41 72.27,95.20 74.05,92.95 75.83,90.70 78.53,87.04 81.23,83.38 82.69,81.12 84.15,78.86 86.10,75.23 88.06,71.59 89.95,68.98 91.83,66.37 93.15,64.49 94.46,62.61 96.18,60.58 97.90,58.55 100.48,55.51 103.06,52.47 104.49,50.88 105.91,49.29 107.55,47.06 109.19,44.83 111.20,42.63 113.21,40.44 112.83,40.90 112.45,41.37 112.75,40.63 113.04,39.89 113.51,39.24 113.97,38.59 114.58,38.07 115.18,37.56 115.89,37.20 116.61,36.84 117.38,36.66 118.16,36.49 118.96,36.50 119.75,36.51 120.53,36.72 121.30,36.92 121.99,37.31 122.69,37.69 123.28,38.23 123.87,38.77 124.31,39.43 124.75,40.09 125.02,40.84 125.29,41.59 125.37,42.39 125.45,43.18 125.34,43.97 125.23,44.76 124.04,47.34 122.84,49.93 121.77,51.97 120.70,54.02 119.34,57.17 117.98,60.32 116.28,63.93 114.58,67.54 113.46,70.41 112.34,73.29 111.43,75.62 110.52,77.94 108.60,81.88 106.69,85.82 105.77,88.70 104.85,91.59 103.62,94.63 102.39,97.67 101.24,100.66 100.09,103.66 99.16,105.60 98.24,107.55 96.91,110.21 95.58,112.87 94.34,114.83 93.09,116.78 92.33,118.79 91.57,120.80 91.70,121.09 91.84,121.38 91.54,122.11 91.25,122.84 90.78,123.48 90.32,124.11 89.72,124.62 89.12,125.13 88.42,125.48 87.71,125.83 86.94,126.00 86.18,126.17 85.39,126.15 84.60,126.14 83.84,125.93 83.08,125.73 82.39,125.34 81.71,124.96 81.13,124.43 80.55,123.89 80.12,123.24 79.69,122.58 79.42,121.84 79.16,121.09 79.09,120.31 79.01,119.53 79.12,118.75 79.23,117.97 81.08,115.43 82.93,112.88 85.35,109.70 87.78,106.51 89.76,104.02 91.74,101.53 93.49,99.26 95.24,96.98 96.81,94.61 98.38,92.23 100.11,89.80 101.83,87.37 104.20,84.35 106.58,81.32 108.46,78.86 110.35,76.41 112.10,74.10 113.85,71.80 115.87,69.80 117.89,67.81 120.18,65.44 122.46,63.07 124.53,61.07 126.60,59.06 131.09,57.14 135.58,55.22 131.43,56.74 127.29,58.25 127.74,57.56 128.18,56.86 128.79,56.30 129.39,55.73 130.11,55.32 130.83,54.92 131.63,54.70 132.42,54.47 133.25,54.45 134.08,54.43 134.89,54.60 135.69,54.77 136.44,55.14 137.18,55.50 137.82,56.03 138.45,56.56 138.94,57.22 139.43,57.89 139.75,58.65 140.06,59.42 140.19,60.24 140.31,61.05 140.23,61.88 140.16,62.70 139.89,63.48 139.62,64.26 138.39,66.13 137.17,68.00 135.11,71.99 133.06,75.98 131.94,78.50 130.82,81.02 129.25,83.96 127.69,86.90 126.21,90.09 124.74,93.27 123.04,96.45 121.34,99.63 120.03,102.11 118.72,104.60 117.25,106.65 115.78,108.71 114.66,109.92 113.54,111.14 112.99,111.68 112.44,112.23 111.78,112.63 111.12,113.03 110.38,113.26 109.63,113.49 108.86,113.53 108.09,113.58 107.33,113.43 106.56,113.29 105.86,112.97 105.15,112.65 104.54,112.17 103.94,111.69 103.46,111.08 102.98,110.47 102.67,109.76 102.35,109.06 102.21,108.29 102.08,107.53 102.13,106.76 102.17,105.98 102.41,105.24 102.64,104.51 103.04,103.84 103.45,103.18 105.60,100.51 107.75,97.84 110.61,94.06 113.47,90.27 116.19,86.55 118.92,82.83 121.65,79.05 124.38,75.26 126.35,71.98 128.31,68.69 130.24,65.81 132.17,62.93 137.52,60.29 142.87,57.64 144.52,59.83 146.16,62.02 146.50,64.26 146.84,66.51 145.49,70.80 144.13,75.09 142.71,77.81 141.28,80.54 139.76,83.80 138.24,87.06 134.79,88.02 131.33,88.98 130.91,89.04 130.49,89.11 130.07,89.04 129.65,88.96 129.28,88.76 128.91,88.56 128.62,88.25 128.33,87.94 128.15,87.55 127.98,87.16 127.94,86.74 127.89,86.32 127.99,85.90 128.08,85.49 128.31,85.13 128.53,84.76 128.85,84.49 129.18,84.22 129.58,84.07 129.97,83.91 130.40,83.89 130.82,83.87 131.23,83.99 131.64,84.11 131.99,84.35 132.34,84.59 132.59,84.93 132.85,85.27 132.98,85.68 133.11,86.08 133.11,86.51 133.10,86.93 132.96,87.33 132.82,87.73 132.56,88.07 132.30,88.41 131.95,88.64 131.60,88.88 131.19,88.99 130.77,89.10 130.35,89.07 129.93,89.04 129.53,88.88 129.14,88.72 128.82,88.44 128.50,88.16 128.28,87.80 128.07,87.43 127.98,87.02 127.89,86.60 127.94,86.18 127.99,85.76 128.17,85.37 128.35,84.99 128.65,84.68 128.94,84.38 129.32,84.18 129.70,83.99 129.70,83.99 129.70,83.99 128.77,81.41 127.85,78.83 128.82,76.63 129.79,74.43 130.94,72.33 132.08,70.22 133.12,67.16 134.16,64.10 135.96,66.14 137.76,68.17 140.28,69.12 142.81,70.07 141.05,72.69 139.30,75.31 137.04,79.03 134.78,82.76 132.02,86.58 129.26,90.41 126.48,94.21 123.70,98.01 121.01,101.56 118.32,105.10 115.93,108.12 113.54,111.14 112.99,111.68 112.44,112.23 111.78,112.63 111.12,113.03 110.38,113.26 109.64,113.49 108.86,113.53 108.09,113.58 107.33,113.43 106.56,113.29 105.86,112.97 105.15,112.65 104.54,112.17 103.94,111.69 103.46,111.08 102.98,110.47 102.67,109.76 102.35,109.06 102.21,108.29 102.08,107.53 102.13,106.76 102.17,105.98 102.41,105.25 102.64,104.51 103.04,103.84 103.44,103.18 103.34,103.09 103.24,102.99 104.83,100.60 106.43,98.22 107.75,95.63 109.07,93.05 110.59,90.22 112.11,87.39 113.76,83.86 115.41,80.33 116.76,77.83 118.11,75.34 119.39,72.48 120.67,69.62 122.07,66.92 123.48,64.22 125.38,61.24 127.29,58.25 127.73,57.56 128.18,56.86 128.79,56.30 129.39,55.73 130.11,55.32 130.83,54.92 131.63,54.70 132.42,54.47 133.25,54.45 134.08,54.43 134.88,54.60 135.69,54.77 136.44,55.14 137.18,55.50 137.81,56.03 138.45,56.56 138.94,57.22 139.43,57.89 139.75,58.65 140.06,59.42 140.19,60.23 140.31,61.05 140.23,61.88 140.16,62.70 139.89,63.48 139.62,64.26 135.22,65.67 130.82,67.07 134.07,67.01 137.32,66.94 135.61,68.61 133.90,70.28 131.71,72.09 129.52,73.89 126.83,76.77 124.13,79.64 122.36,81.97 120.59,84.30 118.65,86.81 116.70,89.33 114.51,92.08 112.32,94.83 110.71,97.09 109.09,99.36 107.26,102.09 105.43,104.83 103.62,107.18 101.81,109.53 99.85,111.99 97.90,114.45 94.87,117.92 91.84,121.38 91.54,122.11 91.25,122.84 90.79,123.48 90.32,124.11 89.72,124.62 89.12,125.13 88.42,125.48 87.71,125.83 86.94,126.00 86.18,126.17 85.39,126.15 84.60,126.14 83.84,125.93 83.08,125.73 82.39,125.34 81.71,124.96 81.13,124.43 80.55,123.89 80.12,123.24 79.69,122.58 79.42,121.84 79.16,121.09 79.09,120.31 79.01,119.53 79.12,118.75 79.23,117.97 79.76,116.51 80.29,115.06 80.96,112.70 81.63,110.35 83.23,107.44 84.82,104.54 86.29,101.49 87.75,98.43 88.81,95.68 89.86,92.93 90.90,90.47 91.95,88.01 92.74,85.29 93.53,82.57 94.47,80.59 95.40,78.61 96.73,75.83 98.05,73.06 99.59,69.05 101.14,65.03 102.73,61.77 104.33,58.51 105.88,54.92 107.43,51.32 108.72,48.45 110.01,45.59 111.23,43.48 112.45,41.37 112.75,40.63 113.04,39.89 113.51,39.24 113.97,38.59 114.58,38.07 115.18,37.56 115.89,37.20 116.61,36.84 117.38,36.66 118.16,36.49 118.96,36.50 119.75,36.51 120.52,36.72 121.29,36.92 121.99,37.31 122.69,37.69 123.28,38.23 123.87,38.77 124.31,39.43 124.75,40.09 125.02,40.84 125.29,41.59 125.37,42.39 125.45,43.18 125.34,43.97 125.23,44.76 124.46,45.53 123.68,46.30 122.23,48.39 120.77,50.48 119.21,52.84 117.65,55.19 115.46,58.03 113.27,60.87 111.51,63.01 109.74,65.15 107.51,67.66 105.28,70.18 103.88,72.17 102.49,74.16 100.02,77.80 97.55,81.45 96.38,83.75 95.21,86.05 93.51,88.65 91.82,91.24 90.34,93.23 88.86,95.22 86.17,98.68 83.49,102.15 80.95,106.14 78.41,110.14 76.32,113.45 74.24,116.75 71.94,120.56 69.63,124.37 67.56,127.68 65.49,130.99 63.31,134.85 61.14,138.72 59.72,141.44 58.29,144.17 57.94,144.88 57.59,145.59 57.08,146.19 56.57,146.80 55.93,147.27 55.29,147.73 54.56,148.04 53.83,148.34 53.04,148.45 52.26,148.57 51.47,148.49 50.69,148.42 49.94,148.16 49.19,147.90 48.53,147.47 47.86,147.03 47.32,146.46 46.78,145.88 46.40,145.19 46.01,144.50 45.80,143.73 45.59,142.97 45.57,142.18 45.55,141.39 45.72,140.61 45.89,139.84 46.56,139.23 47.23,138.62 48.54,135.80 49.84,132.97 50.97,130.20 52.11,127.42 53.20,124.68 54.29,121.94 55.29,119.81 56.29,117.68 57.36,114.59 58.43,111.49 59.05,109.10 59.68,106.70 60.75,103.84 61.82,100.99 62.89,97.48 63.96,93.97 65.11,91.64 66.26,89.30 68.11,85.96 69.97,82.63 70.57,80.10 71.17,77.56 71.79,75.46 72.40,73.36 73.79,69.79 75.19,66.21 75.85,63.79 76.50,61.36 77.76,58.43 79.02,55.51 80.35,51.75 81.69,48.00 83.15,44.17 84.61,40.35 85.76,37.42 86.91,34.49 88.55,30.88 90.18,27.27 91.75,24.83 93.31,22.39 93.69,21.73 94.06,21.07 94.59,20.52 95.11,19.98 95.75,19.57 96.38,19.16 97.10,18.92 97.82,18.67 98.57,18.61 99.33,18.54 100.07,18.66 100.82,18.78 101.52,19.07 102.22,19.36 102.83,19.82 103.43,20.27 103.92,20.85 104.40,21.44 104.73,22.12 105.05,22.80 105.21,23.54 105.36,24.28 105.34,25.04 105.31,25.80 105.10,26.53 104.90,27.25 103.52,28.61 102.14,29.97 100.75,31.84 99.36,33.70 97.74,36.38 96.11,39.07 94.34,42.21 92.56,45.34 90.62,47.70 88.68,50.05 86.37,52.53 84.05,55.01 82.74,56.70 81.43,58.40 79.22,60.83 77.02,63.26 75.55,65.17 74.07,67.08 71.97,69.98 69.86,72.88 68.62,74.80 67.37,76.72 65.82,79.19 64.26,81.65 62.95,83.55 61.64,85.45 60.15,87.52 58.67,89.59 57.28,91.69 55.89,93.79 54.10,96.50 52.31,99.20 51.05,101.14 49.80,103.08 48.41,105.24 47.03,107.39 45.51,110.36 43.98,113.32 42.36,115.77 40.74,118.21 38.90,121.38 37.07,124.55 35.61,126.95 34.15,129.36 32.60,131.50 31.04,133.63 29.61,135.68 28.17,137.73 26.74,140.00 25.30,142.27 23.73,144.31 22.16,146.36 17.75,143.50 13.35,140.64 14.46,138.46 15.57,136.28 16.88,134.18 18.18,132.08 19.17,129.95 20.15,127.82 21.20,125.34 22.24,122.86 23.69,120.54 25.14,118.21 26.28,115.84 27.42,113.48 28.22,111.38 29.01,109.29 30.34,106.94 31.67,104.59 32.99,102.30 34.32,100.02 36.29,96.95 38.27,93.88 39.78,90.80 41.29,87.72 42.49,84.90 43.69,82.08 45.05,78.86 46.41,75.65 48.21,71.90 50.01,68.14 51.21,65.65 52.42,63.15 53.91,59.52 55.41,55.89 56.49,52.48 57.56,49.07 58.19,46.90 58.81,44.74 60.14,40.94 61.47,37.15 62.95,33.09 64.44,29.04 65.16,27.03 65.89,25.01 66.78,22.70 67.67,20.39 69.26,16.90 70.85,13.40 72.87,10.02 74.90,6.64 75.45,6.19 75.99,5.74 76.63,5.43 77.26,5.12 77.95,4.97 78.65,4.83 79.35,4.85 80.06,4.87 80.74,5.06 81.42,5.25 82.04,5.60 82.65,5.95 83.16,6.44 83.68,6.92 84.06,7.51 84.44,8.11 84.67,8.78 84.90,9.45 84.97,10.15 85.03,10.86 84.92,11.55 84.81,12.25 84.54,12.91 84.27,13.56 83.85,14.13 83.43,14.70 82.13,16.06 80.83,17.42 79.71,19.24 78.59,21.06 76.81,23.85 75.03,26.65 72.78,29.53 70.54,32.41 68.56,35.07 66.58,37.72 65.35,39.54 64.11,41.36 62.69,43.39 61.28,45.43 59.53,47.85 57.77,50.28 55.74,53.21 53.71,56.15 52.04,58.40 50.37,60.65 48.66,62.99 46.94,65.34 45.22,67.72 43.50,70.11 41.98,72.71 40.46,75.32 38.50,78.26 36.53,81.20 34.42,84.01 32.31,86.81 30.05,90.07 27.80,93.34 25.08,96.79 22.36,100.25 20.10,103.62 17.85,106.99 15.51,110.47 13.17,113.95 10.64,117.68 8.10,121.42 5.15,125.68 2.20,129.94 -0.77,134.29 -3.75,138.65 -5.14,140.79 -6.54,142.92 -7.03,143.44 -7.52,143.97 -8.12,144.36 -8.72,144.74 -9.40,144.98 -10.08,145.21 -10.79,145.28 -11.50,145.34 -12.21,145.24 -12.92,145.13 -13.58,144.85 -14.24,144.58 -14.82,144.16 -15.40,143.73 -15.86,143.18 -16.32,142.63 -16.63,141.99 -16.94,141.34 -17.09,140.64 -17.25,139.94 -17.22,139.23 -17.20,138.51 -17.01,137.82 -16.82,137.13 -16.47,136.50 -16.11,135.88 -14.47,133.75 -12.82,131.63 -11.36,129.37 -9.90,127.11 -8.17,124.25 -6.44,121.39 -4.82,118.69 -3.20,116.00 -0.86,112.86 1.46,109.73 2.98,106.73 4.50,103.74 5.92,101.16 7.35,98.58 8.60,95.59 9.86,92.60 11.59,89.09 13.33,85.58 14.62,82.14 15.91,78.70 17.10,74.85 18.30,71.00 19.50,67.89 20.69,64.78 21.43,61.54 22.16,58.29 22.71,55.83 23.26,53.37 24.21,50.94 25.16,48.51 25.97,46.36 26.79,44.20 27.90,41.51 29.02,38.82 30.05,36.46 31.08,34.10 32.14,31.25 33.21,28.39 34.41,24.90 35.62,21.40 36.66,19.15 37.71,16.90 38.71,14.52 39.72,12.14 40.90,8.74 42.08,5.33 43.79,1.73 45.50,-1.87 46.74,-4.83 47.99,-7.79 48.34,-8.42 48.69,-9.05 49.18,-9.57 49.67,-10.10 50.27,-10.49 50.88,-10.88 51.55,-11.12 52.23,-11.36 52.95,-11.42 53.66,-11.49 54.37,-11.39 55.08,-11.28 55.75,-11.01 56.41,-10.74 56.99,-10.31 57.57,-9.89 58.04,-9.34 58.50,-8.79 58.82,-8.15 59.13,-7.50 59.29,-6.80 59.44,-6.10 59.42,-5.38 59.40,-4.66 59.21,-3.97 59.02,-3.28 55.26,-1.80 51.49,-0.32 54.39,-0.55 57.28,-0.78 55.82,1.21 54.36,3.20 52.96,4.85 51.56,6.50 49.84,9.20 48.13,11.90 46.97,14.16 45.80,16.42 44.65,18.38 43.49,20.35 41.45,24.21 39.42,28.07 38.15,30.48 36.87,32.89 35.50,35.33 34.14,37.76 32.99,40.07 31.84,42.38 30.61,44.86 29.38,47.33 27.84,50.43 26.31,53.52 24.57,56.39 22.83,59.26 21.30,62.28 19.77,65.30 17.94,68.19 16.12,71.07 14.05,74.13 11.99,77.18 9.62,80.29 7.26,83.40 4.63,87.05 2.00,90.70 0.01,93.70 -1.97,96.71 -4.16,99.68 -6.34,102.66 -8.70,106.22 -11.06,109.78 -13.62,113.69 -16.19,117.60 -17.91,120.30 -19.64,123.00 -21.13,125.07 -22.61,127.14 -23.67,129.14 -24.72,131.15 -27.05,134.53 -29.39,137.90 -30.02,138.21 -30.65,138.53 -31.34,138.68 -32.03,138.83 -32.74,138.82 -33.44,138.80 -34.12,138.62 -34.80,138.43 -35.42,138.09 -36.04,137.75 -36.56,137.27 -37.07,136.79 -37.46,136.20 -37.85,135.61 -38.08,134.94 -38.32,134.27 -38.39,133.57 -38.46,132.87 -38.36,132.17 -38.25,131.47 -37.99,130.82 -37.72,130.16 -37.31,129.59 -36.89,129.02 -36.35,128.56 -35.82,128.11 -35.81,127.57 -35.81,127.04 -34.71,125.02 -33.62,122.99 -32.11,120.01 -30.59,117.02 -29.60,115.10 -28.62,113.18 -26.92,110.88 -25.22,108.57 -24.09,106.35 -22.97,104.13 -21.74,101.77 -20.52,99.40 -19.01,96.83 -17.51,94.26 -16.32,91.79 -15.14,89.32 -13.28,85.73 -11.43,82.15 -10.48,80.20 -9.52,78.26 -7.42,74.47 -5.31,70.69 -4.14,68.77 -2.96,66.85 -1.62,64.47 -0.28,62.10 0.76,59.89 1.82,57.69 2.83,55.45 3.85,53.21 4.78,50.83 5.72,48.45 6.61,45.25 7.51,42.05 8.22,39.34 8.93,36.62 10.76,32.50 12.58,28.38 13.71,25.68 14.84,22.99 16.31,20.50 17.77,18.01 19.15,15.63 20.52,13.25 21.91,11.18 23.31,9.12 24.70,6.66 26.10,4.21 27.63,1.83 29.17,-0.53 30.75,-2.35 32.33,-4.17 33.55,-6.59 34.76,-9.00 35.42,-9.20 36.07,-9.39 36.75,-9.42 37.43,-9.45 38.10,-9.31 38.77,-9.18 39.39,-8.89 40.01,-8.60 40.53,-8.17 41.06,-7.74 41.48,-7.20 41.89,-6.65 42.16,-6.03 42.43,-5.40 42.54,-4.73 42.65,-4.05 42.60,-3.37 42.54,-2.69 42.33,-2.05 42.12,-1.40 41.75,-0.82 41.39,-0.24 40.90,0.22 40.41,0.69 39.82,1.04 39.23,1.38 38.79,1.91 38.34,2.44 36.95,4.35 35.56,6.26 33.89,8.56 32.22,10.85 30.81,13.50 29.39,16.14 28.09,18.11 26.80,20.08 24.99,23.04 23.18,26.01 21.64,28.76 20.10,31.51 18.96,33.65 17.82,35.79 16.34,37.83 14.86,39.87 13.05,42.21 11.25,44.54 9.77,46.56 8.29,48.59 6.40,50.99 4.51,53.39 2.32,56.04 0.12,58.70 -2.46,61.55 -5.04,64.40 -7.00,67.03 -8.96,69.66 -10.88,72.56 -12.81,75.47 -14.84,78.19 -16.88,80.90 -18.96,83.98 -21.04,87.05 -23.46,90.22 -25.88,93.38 -28.65,97.18 -31.42,100.98 -33.64,104.19 -35.86,107.40 -37.93,110.24 -40.01,113.09 -43.40,118.15 -46.80,123.21 -48.15,125.44 -49.50,127.66 -49.88,128.22 -50.27,128.78 -50.78,129.24 -51.29,129.69 -51.89,130.01 -52.50,130.33 -53.16,130.49 -53.82,130.66 -54.51,130.66 -55.19,130.66 -55.85,130.50 -56.52,130.34 -57.12,130.02 -57.73,129.71 -58.24,129.26 -58.75,128.80 -59.14,128.24 -59.53,127.68 -59.78,127.04 -60.02,126.40 -60.11,125.73 -60.19,125.05 -60.11,124.37 -60.03,123.69 -59.79,123.05 -59.55,122.41 -58.15,120.20 -56.76,117.98 -55.61,115.58 -54.46,113.18 -52.80,110.85 -51.14,108.52 -50.09,106.28 -49.04,104.03 -47.64,101.26 -46.25,98.49 -44.40,94.94 -42.55,91.40 -41.63,88.96 -40.71,86.52 -39.61,84.47 -38.51,82.43 -36.94,79.67 -35.38,76.92 -33.85,73.56 -32.33,70.20 -31.34,67.90 -30.36,65.60 -28.94,62.80 -27.52,59.99 -26.42,57.82 -25.33,55.64 -24.26,53.48 -23.20,51.31 -22.19,49.18 -21.19,47.04 -20.17,44.64 -19.16,42.25 -17.06,38.53 -14.96,34.82 -13.80,33.03 -12.64,31.23 -11.38,29.19 -10.12,27.15 -8.39,24.16 -6.66,21.18 -5.26,19.21 -3.86,17.25 -1.18,13.63 1.49,10.01 3.52,6.93 5.56,3.84 7.39,2.72 9.22,1.60 10.51,4.23 11.80,6.85 9.85,8.96 7.91,11.06 5.90,13.38 3.89,15.69 1.71,17.80 -0.46,19.91 -2.67,21.93 -4.89,23.95 -6.60,25.28 -8.32,26.60 -11.41,29.54 -14.51,32.48 -16.28,34.40 -18.05,36.33 -18.58,36.74 -19.10,37.15 -19.71,37.42 -20.31,37.69 -20.97,37.80 -21.62,37.92 -22.28,37.88 -22.95,37.84 -23.58,37.64 -24.21,37.43 -24.78,37.09 -25.34,36.74 -25.81,36.27 -26.28,35.80 -26.62,35.23 -26.96,34.66 -27.16,34.03 -27.35,33.39 -27.39,32.73 -27.43,32.07 -27.30,31.42 -27.18,30.76 -26.91,30.16 -26.63,29.55 -26.22,29.03 -25.81,28.51 -25.11,27.53 -24.42,26.54 -21.97,24.64 -19.52,22.75 -19.09,22.29 -18.67,21.83 -18.14,21.48 -17.62,21.14 -17.03,20.93 -16.43,20.72 -15.81,20.66 -15.19,20.60 -14.57,20.69 -13.94,20.78 -13.36,21.02 -12.78,21.26 -12.28,21.62 -11.77,21.99 -11.36,22.47 -10.96,22.95 -10.68,23.51 -10.40,24.08 -10.27,24.69 -10.13,25.30 -10.15,25.93 -10.16,26.56 -10.33,27.16 -10.49,27.77 -10.80,28.32 -11.10,28.86 -11.03,28.92 -10.96,28.97 -12.72,31.69 -14.48,34.42 -15.92,36.60 -17.36,38.78 -19.22,41.60 -21.08,44.42 -23.33,48.22 -25.58,52.02 -27.32,55.35 -29.07,58.67 -30.86,61.85 -32.64,65.02 -34.81,69.13 -36.97,73.24 -39.56,77.24 -42.16,81.24 -45.31,86.24 -48.47,91.25 -50.80,95.02 -53.13,98.79 -55.47,102.17 -57.82,105.54 -61.01,109.61 -64.20,113.68 -64.52,114.19 -64.83,114.70 -65.26,115.11 -65.69,115.53 -66.20,115.83 -66.71,116.13 -67.29,116.30 -67.86,116.47 -68.45,116.50 -69.05,116.52 -69.63,116.41 -70.22,116.29 -70.76,116.04 -71.30,115.79 -71.76,115.42 -72.22,115.04 -72.59,114.57 -72.95,114.10 -73.18,113.55 -73.42,113.00 -73.52,112.41 -73.62,111.83 -73.58,111.23 -73.53,110.64 -73.35,110.07 -73.16,109.51 -72.93,108.69 -72.70,107.87 -71.41,105.02 -70.12,102.17 -67.87,97.98 -65.61,93.80 -62.50,88.37 -59.39,82.93 -57.55,80.25 -55.71,77.58 -53.48,74.01 -51.24,70.45 -47.99,65.64 -44.74,60.83 -44.43,60.34 -44.13,59.86 -43.72,59.46 -43.30,59.07 -42.81,58.78 -42.31,58.50 -41.76,58.34 -41.21,58.18 -40.64,58.16 -40.07,58.13 -39.51,58.25 -38.95,58.36 -38.43,58.61 -37.92,58.85 -37.47,59.22 -37.03,59.58 -36.69,60.04 -36.34,60.49 -36.12,61.02 -35.90,61.55 -35.80,62.11 -35.71,62.67 -35.76,63.25 -35.81,63.82 -35.99,64.36 -36.17,64.90 -36.89,66.65 -37.62,68.41 -39.24,71.81 -40.86,75.21 -43.22,80.34 -45.58,85.46 -47.37,89.22 -49.15,92.98 -51.39,97.55 -53.62,102.12 -53.90,102.60 -54.18,103.09 -54.57,103.50 -54.96,103.90 -55.44,104.20 -55.91,104.50 -56.45,104.68 -56.98,104.86 -57.54,104.90 -58.10,104.95 -58.66,104.86 -59.21,104.77 -59.73,104.55 -60.25,104.33 -60.70,103.99 -61.15,103.65 -61.50,103.22 -61.86,102.78 -62.10,102.27 -62.34,101.76 -62.45,101.21 -62.57,100.66 -62.54,100.10 -62.52,99.54 -62.36,99.00 -62.21,98.46 -62.16,98.11 -62.12,97.76 -61.16,95.35 -60.21,92.93 -58.61,89.67 -57.01,86.41 -54.91,82.86 -52.82,79.30 -50.09,74.62 -47.37,69.94 -43.14,62.57 -38.91,55.20 -35.72,49.90 -32.54,44.60 -30.64,40.79 -28.75,36.99 -28.39,36.52 -28.04,36.06 -27.58,35.69 -27.13,35.32 -26.60,35.07 -26.06,34.82 -25.49,34.71 -24.91,34.60 -24.33,34.62 -23.74,34.65 -23.18,34.82 -22.62,34.99 -22.11,35.28 -21.61,35.58 -21.19,35.99 -20.77,36.40 -20.46,36.89 -20.15,37.39 -19.96,37.95 -19.78,38.50 -19.74,39.09 -19.70,39.67 -19.79,40.25 -19.89,40.83 -20.12,41.37 -20.36,41.91 -20.73,42.62 -21.10,43.33 -22.67,45.95 -24.25,48.57 -26.18,51.43 -28.11,54.29 -30.54,58.26 -32.98,62.23 -36.46,67.81 -39.94,73.38 -43.31,78.27 -46.69,83.15 -47.00,83.63 -47.31,84.11 -47.73,84.50 -48.15,84.90 -48.65,85.18 -49.15,85.46 -49.70,85.61 -50.25,85.76 -50.83,85.78 -51.40,85.80 -51.96,85.68 -52.52,85.56 -53.03,85.30 -53.55,85.05 -53.99,84.68 -54.43,84.32 -54.77,83.85 -55.11,83.39 -55.33,82.86 -55.54,82.33 -55.63,81.77 -55.72,81.20 -55.66,80.63 -55.61,80.06 -55.42,79.52 -55.23,78.97 -54.24,76.71 -53.25,74.44 -51.28,70.43 -49.31,66.43 -46.51,62.09 -43.70,57.75 -40.06,51.99 -36.42,46.23 -32.17,39.16 -27.93,32.09 -23.97,25.98 -20.02,19.86 -17.27,15.61 -14.52,11.36 -14.17,10.88 -13.82,10.39 -13.36,10.00 -12.91,9.62 -12.37,9.35 -11.83,9.09 -11.25,8.96 -10.66,8.83 -10.07,8.84 -9.47,8.86 -8.89,9.01 -8.31,9.17 -7.79,9.46 -7.27,9.75 -6.83,10.16 -6.39,10.57 -6.06,11.07 -5.73,11.57 -5.53,12.13 -5.33,12.70 -5.28,13.29 -5.22,13.89 -5.30,14.48 -5.39,15.07 -5.62,15.63 -5.84,16.18 -6.83,17.34 -7.82,18.50 -9.45,21.42 -11.08,24.34 -13.93,28.59 -16.79,32.85 -18.98,36.06 -21.16,39.27 -23.65,42.99 -26.13,46.70 -26.55,47.14 -26.98,47.57 -27.50,47.90 -28.02,48.22 -28.60,48.41 -29.18,48.59 -29.79,48.64 -30.40,48.68 -31.00,48.58 -31.60,48.47 -32.16,48.23 -32.72,47.98 -33.20,47.61 -33.69,47.24 -34.07,46.76 -34.45,46.29 -34.71,45.73 -34.97,45.18 -35.08,44.58 -35.20,43.98 -35.17,43.37 -35.14,42.76 -34.96,42.18 -34.79,41.59 -34.48,41.07 -34.17,40.54 -33.86,39.66 -33.56,38.79 -32.15,36.82 -30.74,34.84 -28.47,31.42 -26.21,27.99 -23.22,23.84 -20.24,19.68 -16.92,15.09 -13.60,10.51 -9.53,4.95 -5.45,-0.60 -3.34,-3.14 -1.24,-5.68 -0.75,-6.09 -0.27,-6.51 0.29,-6.79 0.86,-7.08 1.49,-7.22 2.11,-7.36 2.75,-7.35 3.39,-7.34 4.00,-7.18 4.62,-7.02 5.18,-6.71 5.74,-6.40 6.21,-5.97 6.68,-5.54 7.04,-5.01 7.39,-4.47 7.61,-3.87 7.82,-3.27 7.89,-2.64 7.96,-2.00 7.87,-1.37 7.78,-0.74 7.54,-0.14 7.31,0.44 6.93,0.96 6.56,1.48 6.10,2.22 5.64,2.95 4.07,4.58 2.51,6.22 -0.06,9.89 -2.64,13.57 -5.00,17.03 -7.36,20.49 -10.09,25.02 -12.82,29.56 -13.20,30.08 -13.58,30.60 -14.07,31.01 -14.56,31.43 -15.14,31.71 -15.72,32.00 -16.35,32.14 -16.98,32.27 -17.62,32.26 -18.27,32.24 -18.89,32.07 -19.51,31.90 -20.08,31.58 -20.64,31.27 -21.11,30.83 -21.58,30.39 -21.93,29.85 -22.29,29.31 -22.50,28.70 -22.71,28.09 -22.77,27.45 -22.83,26.81 -22.74,26.17 -22.64,25.53 -22.40,24.94 -22.16,24.34 -21.59,22.80 -21.03,21.25 -19.73,18.29 -18.43,15.33 -16.34,11.88 -14.25,8.43 -11.77,5.16 -9.29,1.88 -5.88,-0.15 -2.47,-2.19 -2.17,-2.46 -1.87,-2.72 -1.52,-2.91 -1.16,-3.09 -0.78,-3.19 -0.39,-3.28 0.00,-3.28 0.40,-3.28 0.79,-3.19 1.17,-3.09 1.53,-2.90 1.88,-2.72 2.18,-2.45 2.48,-2.19 2.70,-1.86 2.93,-1.53 3.07,-1.16 3.21,-0.78 3.26,-0.39 3.31,0.00 3.26,0.40 3.21,0.79 3.07,1.17 2.92,1.54 2.70,1.87 2.47,2.20 2.47,2.19 L 2.47,2.19 Z"></path></g></svg>