<svg version="1.1" xmlns="http://www.w3.org/2000/svg" viewBox="0 0 708.8615031702955 585.7624794753776" width="708.8615031702955" height="585.7624794753776" filter="invert(93%) hue-rotate(180deg)" class="excalidraw-svg"><!-- svg-source:excalidraw --><metadata></metadata><defs><style class="style-fonts">
      </style></defs><rect x="0" y="0" width="708.8615031702955" height="585.7624794753776" fill="transparent"></rect><g stroke-linecap="round"><g transform="translate(322.38176445730073 44.0407202391462) rotate(0 2 260.5)"><path d="M-0.89 1.1 C-0.19 88.04, 2.44 434.14, 3.41 520.85 M0.84 0.63 C2.01 87.83, 5.17 435.87, 5.81 522.31" stroke="#1e1e1e" stroke-width="0.5" fill="none"></path></g></g><mask></mask><g stroke-linecap="round"><g transform="translate(31.381764457300733 303.0407202391462) rotate(0 305.5 -1.5)"><path d="M-0.59 -0.15 C101.55 -0.77, 509.95 -2.15, 611.94 -2.62 M1.3 -1.28 C103.44 -1.76, 509.9 -4.48, 611.49 -4.55" stroke="#1e1e1e" stroke-width="0.5" fill="none"></path></g></g><mask></mask><g stroke-linecap="round"><g transform="translate(327.38176445730073 47.0407202391462) rotate(0 154.5 124.5)"><path d="M0.94 0.38 C3.61 30.23, 3.4 139.19, 15.39 178.99 C27.38 218.79, 23.97 227.64, 72.86 239.18 C121.76 250.72, 269.52 246.62, 308.77 248.21 M-0.02 -0.47 C2.57 29.6, 2.55 140.87, 14.64 180.52 C26.74 220.17, 23.51 226.06, 72.55 237.45 C121.59 248.85, 269.28 246.98, 308.89 248.9" stroke="#1e1e1e" stroke-width="0.5" fill="none"></path></g></g><mask></mask><g stroke-linecap="round"><g transform="translate(10.251422313517423 308.1950976732602) rotate(179.59137157469377 154.5 124.5)"><path d="M0.39 -0.01 C2.88 29.96, 3.97 140.64, 15.86 180.18 C27.76 219.72, 23.02 225.79, 71.77 237.21 C120.52 248.64, 268.92 246.91, 308.37 248.72 M-0.87 -1.06 C1.45 28.57, 3.41 138.81, 15.37 178.67 C27.33 218.54, 22.06 226.28, 70.88 238.12 C119.7 249.95, 268.38 248.03, 308.29 249.68" stroke="#1e1e1e" stroke-width="0.5" fill="none"></path></g></g><mask></mask><g stroke-linecap="round"><g transform="translate(29.381764457300733 299.0407202391462) rotate(0 307 1.5)"><path d="M0.86 1.18 C103.09 1.55, 511.68 1.96, 613.77 2.21" stroke="#e03131" stroke-width="1" fill="none" stroke-dasharray="8 8.5"></path></g></g><mask></mask><g stroke-linecap="round"><g transform="translate(321.38176445730073 38.0407202391462) rotate(0 1.5 269)"><path d="M-0.23 -0.79 C0.02 88.64, 1.92 448.08, 2.37 537.72" stroke="#e03131" stroke-width="1" fill="none" stroke-dasharray="8 8.5"></path></g></g><mask></mask><g transform="translate(656.9245336729596 298.22135399987206) rotate(0 5.684341886080802e-14 9.912374608461192)" stroke="none"><path fill="#e03131" d="M 0.77,0.25 Q 0.77,0.25 0.90,0.98 1.04,1.71 1.22,2.65 1.39,3.60 1.87,2.95 2.35,2.31 2.82,1.91 3.29,1.51 3.46,1.15 3.63,0.78 3.78,0.71 3.93,0.64 4.10,0.60 4.26,0.57 4.43,0.57 4.60,0.58 4.76,0.62 4.92,0.67 5.07,0.75 5.22,0.84 5.34,0.95 5.46,1.07 5.55,1.21 5.65,1.35 5.70,1.51 5.76,1.67 5.77,1.84 5.78,2.01 5.76,2.18 5.73,2.34 5.67,2.50 5.60,2.66 5.50,2.79 5.40,2.93 5.27,3.04 5.14,3.14 5.50,2.29 5.86,1.44 5.98,2.23 6.10,3.03 6.11,3.92 6.12,4.81 6.13,5.83 6.13,6.86 6.14,8.18 6.14,9.49 6.14,11.15 6.14,12.80 6.14,13.95 6.14,15.10 5.89,16.03 5.64,16.96 5.22,17.85 4.81,18.75 3.97,19.36 3.12,19.98 2.42,20.33 1.72,20.69 1.02,20.89 0.32,21.09 -0.69,20.92 -1.70,20.74 -2.64,20.09 -3.58,19.43 -4.22,18.61 -4.86,17.78 -5.15,16.85 -5.45,15.91 -5.48,15.05 -5.51,14.19 -4.29,12.68 -3.06,11.17 -2.96,11.13 -2.87,11.08 -2.76,11.07 -2.66,11.06 -2.55,11.08 -2.45,11.10 -2.36,11.15 -2.27,11.21 -2.20,11.29 -2.13,11.37 -2.09,11.47 -2.05,11.56 -2.04,11.67 -2.03,11.78 -2.06,11.88 -2.09,11.98 -2.14,12.07 -2.20,12.16 -2.29,12.22 -2.37,12.29 -2.47,12.32 -2.57,12.36 -2.68,12.36 -2.78,12.36 -2.88,12.33 -2.99,12.30 -3.07,12.23 -3.16,12.17 -3.22,12.08 -3.28,12.00 -3.31,11.89 -3.34,11.79 -3.33,11.69 -3.33,11.58 -3.29,11.48 -3.25,11.38 -3.18,11.30 -3.12,11.22 -3.03,11.16 -2.94,11.11 -2.83,11.08 -2.73,11.06 -2.62,11.07 -2.52,11.08 -2.42,11.12 -2.32,11.16 -2.25,11.24 -2.17,11.31 -2.12,11.40 -2.07,11.50 -2.05,11.60 -2.03,11.70 -2.04,11.81 -2.06,11.91 -2.11,12.01 -2.16,12.10 -2.23,12.18 -2.31,12.25 -2.31,12.25 -2.31,12.25 -2.83,13.08 -3.35,13.92 -3.04,15.04 -2.73,16.16 -2.32,16.64 -1.92,17.12 -1.42,17.48 -0.93,17.83 -0.32,17.87 0.29,17.90 1.24,17.55 2.20,17.19 2.60,16.12 2.99,15.06 2.99,13.93 2.99,12.80 2.99,11.15 2.99,9.50 2.99,8.19 2.99,6.88 2.99,5.86 2.99,4.84 3.05,3.85 3.12,2.85 3.37,1.82 3.63,0.78 3.78,0.71 3.93,0.64 4.10,0.60 4.26,0.57 4.43,0.57 4.60,0.58 4.76,0.62 4.92,0.67 5.07,0.75 5.22,0.84 5.34,0.95 5.46,1.07 5.55,1.21 5.65,1.35 5.70,1.51 5.76,1.67 5.77,1.84 5.78,2.01 5.76,2.18 5.73,2.34 5.67,2.50 5.60,2.66 5.50,2.79 5.40,2.93 5.27,3.04 5.14,3.14 4.93,3.36 4.72,3.58 4.49,4.14 4.26,4.69 3.61,5.41 2.96,6.13 1.96,6.40 0.97,6.66 0.04,6.03 -0.88,5.39 -1.28,4.20 -1.68,3.01 -1.80,1.96 -1.92,0.91 -1.34,0.32 -0.77,-0.25 -0.73,-0.34 -0.69,-0.43 -0.62,-0.51 -0.56,-0.58 -0.48,-0.64 -0.40,-0.70 -0.31,-0.74 -0.22,-0.78 -0.13,-0.80 -0.03,-0.81 0.06,-0.80 0.16,-0.80 0.25,-0.76 0.34,-0.73 0.43,-0.68 0.51,-0.63 0.58,-0.56 0.65,-0.49 0.70,-0.40 0.75,-0.32 0.77,-0.22 0.80,-0.13 0.80,-0.03 0.81,0.06 0.79,0.16 0.77,0.25 0.77,0.25 L 0.77,0.25 Z"></path></g><g transform="translate(672.1743407628999 298.98384435436907) rotate(0 5.337432481479141 0.38124517724850193)" stroke="none"><path fill="#e03131" d="M 0,-0.89 Q 0,-0.89 0.87,-1.41 1.75,-1.93 2.56,-1.92 3.37,-1.92 4.81,-1.91 6.25,-1.91 8.38,-0.73 10.50,0.44 10.51,0.54 10.52,0.65 10.50,0.75 10.48,0.86 10.43,0.95 10.37,1.04 10.29,1.11 10.21,1.18 10.11,1.22 10.02,1.26 9.91,1.27 9.80,1.27 9.70,1.25 9.60,1.22 9.51,1.16 9.42,1.10 9.36,1.02 9.29,0.93 9.26,0.83 9.22,0.73 9.22,0.63 9.22,0.52 9.25,0.42 9.28,0.32 9.35,0.23 9.41,0.15 9.50,0.09 9.58,0.03 9.69,0.00 9.79,-0.02 9.89,-0.02 10.00,-0.01 10.10,0.01 10.20,0.05 10.28,0.12 10.36,0.19 10.42,0.28 10.47,0.37 10.50,0.47 10.52,0.58 10.51,0.68 10.50,0.79 10.46,0.88 10.42,0.98 10.34,1.06 10.27,1.14 10.18,1.19 10.08,1.24 9.98,1.26 9.88,1.28 9.77,1.26 9.67,1.24 9.57,1.20 9.48,1.15 9.40,1.07 9.33,0.99 9.28,0.90 9.24,0.80 9.24,0.80 9.24,0.80 7.74,1.35 6.25,1.91 4.81,1.91 3.37,1.92 2.56,1.92 1.75,1.93 0.87,1.41 0,0.89 -0.10,0.87 -0.21,0.86 -0.31,0.82 -0.41,0.78 -0.50,0.72 -0.59,0.66 -0.66,0.58 -0.73,0.50 -0.78,0.41 -0.83,0.31 -0.85,0.21 -0.88,0.10 -0.88,-0.00 -0.88,-0.10 -0.85,-0.21 -0.83,-0.31 -0.78,-0.41 -0.73,-0.50 -0.66,-0.58 -0.59,-0.66 -0.50,-0.72 -0.41,-0.78 -0.31,-0.82 -0.21,-0.86 -0.10,-0.87 0.00,-0.89 0.00,-0.89 L 0,-0.89 Z"></path></g><g transform="translate(672.1743407628999 305.8462575448422) rotate(0 5.718677658727643 -0.7624903544970323)" stroke="none"><path fill="#e03131" d="M -0.18,-0.75 Q -0.18,-0.75 0.58,-1.38 1.36,-2.01 2.74,-2.13 4.13,-2.24 4.89,-2.28 5.66,-2.32 6.67,-2.34 7.67,-2.36 9.26,-2.12 10.84,-1.87 10.93,-1.93 11.02,-1.99 11.12,-2.01 11.23,-2.04 11.33,-2.03 11.44,-2.02 11.53,-1.98 11.63,-1.93 11.71,-1.86 11.79,-1.79 11.84,-1.70 11.89,-1.61 11.91,-1.50 11.93,-1.40 11.92,-1.29 11.90,-1.19 11.86,-1.09 11.81,-1.00 11.73,-0.92 11.66,-0.85 11.56,-0.80 11.47,-0.75 11.36,-0.74 11.26,-0.73 11.15,-0.75 11.05,-0.77 10.96,-0.82 10.86,-0.87 10.79,-0.95 10.72,-1.03 10.68,-1.13 10.64,-1.23 10.63,-1.33 10.62,-1.44 10.65,-1.54 10.67,-1.64 10.73,-1.73 10.79,-1.82 10.87,-1.89 10.96,-1.95 11.06,-1.99 11.16,-2.03 11.26,-2.03 11.37,-2.03 11.47,-2.00 11.57,-1.97 11.66,-1.91 11.74,-1.84 11.80,-1.76 11.87,-1.67 11.90,-1.57 11.93,-1.47 11.92,-1.36 11.92,-1.26 11.88,-1.16 11.85,-1.06 11.78,-0.97 11.71,-0.89 11.71,-0.89 11.71,-0.89 9.72,-0.00 7.73,0.89 6.78,0.90 5.83,0.92 5.10,0.95 4.37,0.99 3.25,1.06 2.14,1.13 1.16,0.94 0.18,0.75 0.09,0.76 0.00,0.77 -0.09,0.76 -0.18,0.75 -0.27,0.72 -0.35,0.68 -0.43,0.63 -0.51,0.58 -0.57,0.51 -0.63,0.44 -0.68,0.36 -0.72,0.27 -0.74,0.18 -0.77,0.09 -0.77,0.00 -0.77,-0.09 -0.74,-0.18 -0.72,-0.27 -0.68,-0.35 -0.64,-0.43 -0.57,-0.50 -0.51,-0.58 -0.44,-0.63 -0.36,-0.68 -0.27,-0.72 -0.18,-0.75 -0.18,-0.75 L -0.18,-0.75 Z"></path></g><g transform="translate(674.461811826391 294.408902227387) rotate(0 4.57494212698208 9.149884253964188)" stroke="none"><path fill="#e03131" d="M 0.65,-0.43 Q 0.65,-0.43 1.33,0.06 2.02,0.55 2.49,1.59 2.96,2.62 3.70,3.53 4.45,4.43 5.09,5.65 5.74,6.86 6.20,7.78 6.67,8.69 7.08,9.51 7.50,10.34 7.90,11.14 8.30,11.93 8.52,12.86 8.75,13.79 8.87,15.56 8.99,17.34 9.02,17.41 9.05,17.49 9.06,17.56 9.07,17.64 9.06,17.72 9.05,17.80 9.02,17.87 9.00,17.95 8.95,18.01 8.91,18.08 8.85,18.13 8.79,18.18 8.72,18.22 8.65,18.26 8.57,18.28 8.50,18.30 8.42,18.30 8.34,18.30 8.26,18.28 8.18,18.26 8.11,18.22 8.04,18.19 7.98,18.14 7.92,18.08 7.88,18.02 7.83,17.95 7.80,17.78 7.76,17.61 7.78,17.50 7.80,17.40 7.86,17.31 7.91,17.22 8.00,17.15 8.08,17.08 8.18,17.04 8.27,17.00 8.38,17.00 8.49,16.99 8.59,17.02 8.69,17.05 8.78,17.11 8.87,17.17 8.93,17.26 8.99,17.34 9.03,17.44 9.06,17.54 9.06,17.65 9.06,17.75 9.03,17.85 8.99,17.96 8.93,18.04 8.86,18.12 8.78,18.18 8.69,18.24 8.58,18.27 8.48,18.30 8.38,18.29 8.27,18.29 8.17,18.25 8.07,18.21 7.99,18.14 7.91,18.07 7.86,17.98 7.80,17.89 7.78,17.78 7.76,17.68 7.77,17.57 7.78,17.47 7.83,17.37 7.87,17.28 7.94,17.20 8.02,17.12 8.11,17.07 8.21,17.02 8.31,17.01 8.42,16.99 8.52,17.01 8.63,17.02 8.72,17.07 8.81,17.12 8.89,17.20 8.96,17.28 9.00,17.38 9.05,17.47 9.02,17.40 8.99,17.34 9.02,17.41 9.05,17.49 9.06,17.56 9.07,17.64 9.06,17.72 9.05,17.80 9.02,17.87 9.00,17.95 8.95,18.01 8.91,18.08 8.85,18.13 8.79,18.18 8.72,18.22 8.65,18.26 8.57,18.28 8.50,18.30 8.42,18.30 8.34,18.30 8.26,18.28 8.18,18.26 8.11,18.22 8.04,18.19 7.98,18.14 7.92,18.08 7.88,18.02 7.83,17.95 7.26,16.90 6.70,15.84 6.35,15.13 6.00,14.41 5.88,13.80 5.77,13.18 5.38,12.39 4.98,11.61 4.57,10.79 4.16,9.97 3.70,9.06 3.24,8.16 2.74,7.16 2.23,6.16 1.32,4.96 0.41,3.75 0.07,2.91 -0.26,2.07 -0.45,1.25 -0.65,0.43 -0.69,0.35 -0.73,0.26 -0.75,0.17 -0.77,0.08 -0.77,-0.01 -0.77,-0.10 -0.75,-0.19 -0.72,-0.28 -0.68,-0.37 -0.63,-0.45 -0.57,-0.52 -0.51,-0.59 -0.43,-0.64 -0.35,-0.69 -0.26,-0.73 -0.17,-0.76 -0.08,-0.77 0.01,-0.78 0.10,-0.77 0.19,-0.75 0.28,-0.72 0.37,-0.68 0.45,-0.63 0.52,-0.57 0.59,-0.50 0.65,-0.43 0.65,-0.43 L 0.65,-0.43 Z"></path></g><g transform="translate(693.5240706888163 296.696373290878) rotate(0 0.38124517724850193 7.24365836772165)" stroke="none"><path fill="#e03131" d="M 0.45,0.67 Q 0.45,0.67 -0.03,1.35 -0.51,2.03 -0.86,2.51 -1.21,3.00 -1.59,3.63 -1.98,4.26 -2.37,4.95 -2.76,5.64 -2.87,6.41 -2.98,7.18 -3.05,8.18 -3.12,9.17 -2.96,10.37 -2.79,11.56 -2.56,12.19 -2.33,12.82 -1.75,12.96 -1.18,13.10 -0.48,12.59 0.20,12.07 1.01,11.44 1.82,10.81 2.34,10.19 2.86,9.56 3.28,8.70 3.71,7.84 3.86,7.11 4.02,6.38 3.86,5.55 3.69,4.72 3.25,4.05 2.80,3.38 1.62,2.73 0.43,2.08 0.33,2.09 0.22,2.10 0.12,2.08 0.01,2.06 -0.07,2.00 -0.16,1.94 -0.22,1.86 -0.29,1.78 -0.33,1.68 -0.37,1.58 -0.37,1.47 -0.38,1.37 -0.35,1.27 -0.32,1.16 -0.26,1.08 -0.20,0.99 -0.11,0.93 -0.02,0.86 0.07,0.83 0.17,0.80 0.27,0.80 0.38,0.80 0.48,0.84 0.58,0.87 0.66,0.94 0.75,1.00 0.81,1.09 0.86,1.18 0.89,1.28 0.92,1.39 0.91,1.49 0.90,1.60 0.86,1.70 0.82,1.80 0.75,1.88 0.68,1.96 0.59,2.01 0.50,2.06 0.40,2.08 0.29,2.11 0.19,2.09 0.08,2.08 -0.01,2.03 -0.10,1.99 -0.18,1.91 -0.25,1.84 -0.30,1.74 -0.35,1.65 -0.37,1.54 -0.38,1.44 -0.36,1.34 -0.34,1.23 -0.29,1.14 -0.24,1.04 -0.16,0.97 -0.09,0.90 0.00,0.86 0.10,0.81 0.10,0.81 0.10,0.81 2.43,1.52 4.75,2.23 5.30,3.31 5.85,4.38 5.95,5.59 6.06,6.80 5.82,7.77 5.58,8.74 5.06,9.82 4.55,10.90 3.90,11.74 3.25,12.58 2.33,13.33 1.41,14.09 0.10,14.76 -1.19,15.44 -2.37,15.20 -3.56,14.95 -4.10,14.39 -4.65,13.82 -5.01,12.88 -5.38,11.94 -5.59,10.47 -5.80,9.00 -5.73,7.86 -5.66,6.71 -5.43,5.54 -5.19,4.37 -4.78,3.58 -4.36,2.80 -3.88,2.02 -3.41,1.25 -2.76,0.48 -2.11,-0.28 -1.28,-0.48 -0.45,-0.67 -0.36,-0.72 -0.27,-0.76 -0.18,-0.78 -0.08,-0.81 0.01,-0.80 0.11,-0.80 0.20,-0.78 0.30,-0.75 0.38,-0.71 0.47,-0.66 0.54,-0.59 0.61,-0.53 0.67,-0.44 0.72,-0.36 0.76,-0.27 0.79,-0.18 0.80,-0.08 0.81,0.01 0.80,0.11 0.78,0.20 0.75,0.29 0.71,0.39 0.65,0.47 0.60,0.55 0.52,0.61 0.45,0.67 0.45,0.67 L 0.45,0.67 Z"></path></g><g transform="translate(300.0790477683562 17.624903544970152) rotate(0 1.9062258862425665 5.337432481479112)" stroke="none"><path fill="#e03131" d="M 0.30,-0.90 Q 0.30,-0.90 1.74,-0.82 3.18,-0.74 4.36,-0.03 5.53,0.67 6.24,1.19 6.94,1.72 7.49,2.20 8.04,2.67 8.46,3.51 8.88,4.35 8.74,5.28 8.61,6.21 7.87,6.94 7.14,7.67 6.23,8.30 5.31,8.94 3.89,9.50 2.46,10.07 1.37,10.65 0.27,11.23 -0.56,11.52 -1.40,11.80 -1.48,10.60 -1.56,9.40 -1.64,9.42 -1.72,9.43 -1.80,9.43 -1.88,9.43 -1.95,9.41 -2.03,9.40 -2.10,9.36 -2.17,9.32 -2.23,9.27 -2.29,9.22 -2.33,9.15 -2.38,9.09 -2.40,9.01 -2.43,8.94 -2.44,8.86 -2.45,8.78 -2.44,8.70 -2.43,8.62 -2.40,8.55 -2.37,8.48 -2.33,8.41 -2.28,8.35 -2.23,8.29 -2.17,8.24 -2.10,8.20 -2.03,8.17 -2.11,8.21 -2.19,8.26 -2.09,8.21 -2.00,8.16 -1.90,8.14 -1.79,8.13 -1.69,8.14 -1.58,8.16 -1.49,8.21 -1.39,8.26 -1.32,8.34 -1.25,8.42 -1.20,8.51 -1.16,8.61 -1.15,8.72 -1.14,8.82 -1.16,8.93 -1.19,9.03 -1.24,9.12 -1.30,9.21 -1.38,9.28 -1.46,9.35 -1.56,9.39 -1.66,9.42 -1.76,9.43 -1.87,9.43 -1.97,9.41 -2.07,9.38 -2.16,9.32 -2.25,9.26 -2.31,9.17 -2.38,9.09 -2.41,8.99 -2.44,8.89 -2.44,8.78 -2.44,8.67 -2.41,8.57 -2.37,8.47 -2.31,8.39 -2.24,8.30 -2.16,8.24 -2.07,8.19 -1.96,8.16 -1.86,8.13 -1.76,8.14 -1.65,8.14 -1.55,8.18 -1.45,8.22 -1.37,8.29 -1.29,8.36 -1.24,8.45 -1.18,8.54 -1.16,8.65 -1.14,8.75 -1.15,8.86 -1.16,8.96 -1.21,9.06 -1.25,9.15 -1.41,9.28 -1.56,9.40 -1.64,9.42 -1.72,9.43 -1.80,9.43 -1.88,9.43 -1.95,9.41 -2.03,9.40 -2.10,9.36 -2.17,9.32 -2.23,9.27 -2.29,9.22 -2.33,9.15 -2.38,9.09 -2.40,9.01 -2.43,8.94 -2.44,8.86 -2.45,8.78 -2.44,8.70 -2.43,8.62 -2.40,8.55 -2.37,8.48 -2.33,8.41 -2.28,8.35 -2.23,8.29 -2.17,8.24 -2.10,8.20 -2.03,8.17 -2.29,8.45 -2.55,8.73 -1.94,8.47 -1.34,8.22 -0.06,7.52 1.21,6.81 2.28,6.43 3.34,6.05 4.54,5.63 5.74,5.21 5.31,4.84 4.87,4.46 4.29,4.02 3.71,3.58 2.89,3.04 2.07,2.49 0.88,1.70 -0.30,0.90 -0.40,0.85 -0.51,0.80 -0.59,0.73 -0.68,0.66 -0.75,0.57 -0.82,0.47 -0.87,0.37 -0.91,0.26 -0.93,0.15 -0.95,0.03 -0.94,-0.07 -0.93,-0.19 -0.90,-0.30 -0.86,-0.40 -0.80,-0.50 -0.74,-0.60 -0.65,-0.68 -0.57,-0.76 -0.47,-0.82 -0.37,-0.87 -0.26,-0.91 -0.15,-0.94 -0.03,-0.94 0.07,-0.95 0.18,-0.92 0.30,-0.90 0.30,-0.90 L 0.30,-0.90 Z"></path></g><g transform="translate(314.5663645037995 13.812451772485076) rotate(0 -3.049961417988044 5.718677658727614)" stroke="none"><path fill="#e03131" d="M 0.26,0.80 Q 0.26,0.80 -0.20,1.39 -0.68,1.97 -1.54,2.77 -2.40,3.58 -3.02,4.35 -3.64,5.12 -4.33,6.27 -5.01,7.42 -5.57,8.14 -6.13,8.86 -5.29,9.05 -4.46,9.24 -3.15,8.83 -1.84,8.43 -0.29,7.60 1.24,6.76 1.34,6.72 1.44,6.67 1.54,6.66 1.65,6.65 1.75,6.68 1.86,6.70 1.95,6.75 2.04,6.81 2.11,6.89 2.17,6.97 2.21,7.07 2.25,7.17 2.26,7.28 2.26,7.38 2.23,7.49 2.20,7.59 2.14,7.67 2.08,7.76 2.00,7.83 1.91,7.89 1.81,7.92 1.71,7.96 1.60,7.96 1.50,7.95 1.40,7.92 1.30,7.89 1.21,7.82 1.13,7.76 1.07,7.67 1.01,7.58 0.98,7.48 0.95,7.37 0.96,7.27 0.97,7.16 1.01,7.06 1.05,6.96 1.12,6.88 1.19,6.80 1.28,6.75 1.37,6.70 1.47,6.67 1.58,6.65 1.68,6.66 1.79,6.68 1.88,6.72 1.98,6.77 2.06,6.84 2.13,6.91 2.18,7.01 2.23,7.10 2.25,7.21 2.26,7.31 2.25,7.42 2.23,7.52 2.18,7.62 2.13,7.71 2.05,7.78 1.97,7.85 1.97,7.85 1.97,7.85 0.46,9.06 -1.04,10.26 -2.71,11.17 -4.39,12.07 -5.75,12.02 -7.11,11.97 -8.10,11.00 -9.08,10.02 -9.06,8.61 -9.03,7.20 -8.50,6.41 -7.97,5.62 -7.12,4.25 -6.28,2.88 -5.36,1.85 -4.45,0.82 -3.79,0.37 -3.13,-0.07 -2.54,-0.58 -1.94,-1.10 -1.10,-0.95 -0.26,-0.80 -0.16,-0.82 -0.06,-0.85 0.03,-0.84 0.13,-0.84 0.23,-0.81 0.33,-0.78 0.42,-0.73 0.51,-0.68 0.58,-0.61 0.66,-0.53 0.71,-0.45 0.77,-0.36 0.80,-0.26 0.83,-0.17 0.84,-0.06 0.85,0.03 0.83,0.13 0.81,0.23 0.77,0.33 0.73,0.42 0.67,0.50 0.61,0.59 0.53,0.65 0.45,0.72 0.36,0.76 0.26,0.80 0.26,0.80 L 0.26,0.80 Z"></path></g><g transform="translate(323.7162487577637 14.57494212698208) rotate(0 4.95618730423061 0.7624903544970039)" stroke="none"><path fill="#e03131" d="M 0.19,-0.76 Q 0.19,-0.76 1.20,-1.10 2.22,-1.44 3.10,-1.37 3.98,-1.31 5.03,-1.27 6.07,-1.23 8.25,-0.23 10.44,0.75 10.53,0.80 10.62,0.85 10.70,0.93 10.77,1.00 10.82,1.10 10.86,1.20 10.88,1.30 10.89,1.41 10.87,1.51 10.84,1.61 10.79,1.71 10.74,1.80 10.66,1.87 10.58,1.94 10.48,1.98 10.38,2.02 10.27,2.02 10.17,2.03 10.07,2.00 9.96,1.98 9.87,1.92 9.79,1.86 9.72,1.78 9.66,1.69 9.62,1.59 9.59,1.49 9.58,1.38 9.58,1.28 9.62,1.18 9.65,1.08 9.71,0.99 9.78,0.91 9.86,0.85 9.95,0.78 10.05,0.76 10.15,0.73 10.26,0.73 10.37,0.73 10.47,0.77 10.56,0.81 10.65,0.88 10.73,0.95 10.78,1.04 10.84,1.13 10.86,1.23 10.89,1.34 10.88,1.44 10.87,1.55 10.82,1.64 10.78,1.74 10.71,1.82 10.64,1.90 10.54,1.95 10.45,2.00 10.34,2.02 10.24,2.03 10.13,2.02 10.03,2.00 10.03,2.00 10.03,2.00 7.98,2.32 5.93,2.64 4.78,2.60 3.63,2.56 2.46,2.44 1.28,2.32 0.54,1.54 -0.19,0.76 -0.28,0.73 -0.36,0.69 -0.44,0.64 -0.52,0.58 -0.58,0.51 -0.65,0.44 -0.69,0.36 -0.73,0.27 -0.76,0.18 -0.78,0.09 -0.78,-0.00 -0.78,-0.09 -0.76,-0.19 -0.73,-0.28 -0.69,-0.36 -0.64,-0.45 -0.58,-0.52 -0.52,-0.59 -0.44,-0.64 -0.36,-0.70 -0.27,-0.73 -0.18,-0.76 -0.09,-0.77 0.00,-0.78 0.09,-0.77 0.19,-0.76 0.19,-0.76 L 0.19,-0.76 Z"></path></g><g transform="translate(323.7162487577637 23.724826380946297) rotate(0 8.006148722218654 -1.1437355317455342)" stroke="none"><path fill="#e03131" d="M 0,-0.80 Q 0,-0.80 0.65,-1.20 1.31,-1.60 2.69,-1.60 4.06,-1.60 5.30,-1.60 6.55,-1.60 7.73,-1.60 8.92,-1.60 10.07,-1.60 11.23,-1.60 11.99,-1.76 12.75,-1.92 14.41,-2.27 16.07,-2.62 16.16,-2.66 16.26,-2.70 16.37,-2.71 16.47,-2.71 16.58,-2.69 16.68,-2.66 16.77,-2.60 16.86,-2.54 16.92,-2.46 16.99,-2.37 17.02,-2.27 17.06,-2.17 17.06,-2.07 17.06,-1.96 17.03,-1.86 16.99,-1.76 16.93,-1.67 16.86,-1.59 16.78,-1.53 16.69,-1.47 16.59,-1.44 16.49,-1.41 16.38,-1.41 16.27,-1.42 16.17,-1.46 16.08,-1.50 15.99,-1.56 15.91,-1.63 15.86,-1.72 15.80,-1.81 15.78,-1.92 15.75,-2.02 15.76,-2.13 15.78,-2.23 15.82,-2.33 15.86,-2.43 15.94,-2.50 16.01,-2.58 16.10,-2.63 16.19,-2.68 16.30,-2.70 16.40,-2.72 16.51,-2.70 16.61,-2.69 16.71,-2.64 16.80,-2.59 16.88,-2.51 16.95,-2.43 17.00,-2.34 17.04,-2.24 17.05,-2.14 17.07,-2.03 17.04,-1.93 17.02,-1.82 16.97,-1.73 16.91,-1.64 16.83,-1.57 16.75,-1.50 16.75,-1.50 16.75,-1.50 15.10,-0.22 13.46,1.04 12.35,1.32 11.25,1.60 10.08,1.60 8.92,1.60 7.73,1.60 6.55,1.60 5.30,1.60 4.06,1.60 2.69,1.60 1.31,1.60 0.65,1.20 0,0.80 -0.09,0.79 -0.19,0.78 -0.28,0.74 -0.37,0.71 -0.45,0.65 -0.53,0.60 -0.59,0.52 -0.66,0.45 -0.70,0.37 -0.75,0.28 -0.77,0.19 -0.79,0.09 -0.79,-0.00 -0.79,-0.09 -0.77,-0.19 -0.75,-0.28 -0.70,-0.37 -0.66,-0.45 -0.59,-0.52 -0.53,-0.60 -0.45,-0.65 -0.37,-0.71 -0.28,-0.74 -0.19,-0.78 -0.09,-0.79 0.00,-0.80 0.00,-0.80 L 0,-0.80 Z"></path></g><g transform="translate(324.4787391122607 10) rotate(0 7.24365836772165 10.293619785709694)" stroke="none"><path fill="#e03131" d="M 0.85,-0.17 Q 0.85,-0.17 1.35,0.86 1.84,1.89 2.54,3.29 3.24,4.68 3.97,5.96 4.71,7.23 5.46,8.43 6.21,9.62 6.96,10.79 7.72,11.95 8.64,13.03 9.57,14.12 10.25,15.10 10.92,16.09 11.51,16.57 12.10,17.05 13.33,18.47 14.56,19.90 14.65,19.96 14.74,20.01 14.80,20.10 14.87,20.18 14.90,20.28 14.94,20.38 14.94,20.49 14.94,20.59 14.91,20.69 14.88,20.79 14.82,20.88 14.76,20.97 14.67,21.03 14.58,21.09 14.48,21.12 14.38,21.15 14.27,21.15 14.17,21.14 14.07,21.11 13.97,21.07 13.89,21.00 13.80,20.94 13.75,20.85 13.69,20.76 13.67,20.65 13.64,20.55 13.65,20.45 13.66,20.34 13.70,20.24 13.74,20.14 13.81,20.07 13.89,19.99 13.98,19.94 14.07,19.88 14.18,19.86 14.28,19.84 14.38,19.86 14.49,19.87 14.59,19.92 14.68,19.97 14.75,20.04 14.83,20.12 14.88,20.22 14.92,20.31 14.94,20.42 14.95,20.52 14.93,20.63 14.91,20.73 14.86,20.82 14.80,20.91 14.73,20.98 14.65,21.06 14.55,21.10 14.45,21.14 14.34,21.15 14.24,21.15 14.14,21.13 14.03,21.10 14.03,21.10 14.03,21.10 12.11,20.18 10.19,19.25 9.36,18.50 8.54,17.75 7.94,16.88 7.35,16.00 6.31,14.77 5.27,13.54 4.50,12.35 3.73,11.16 2.96,9.92 2.19,8.68 1.41,7.31 0.63,5.94 -0.16,4.21 -0.96,2.48 -0.91,1.32 -0.85,0.17 -0.86,0.06 -0.87,-0.03 -0.85,-0.14 -0.83,-0.24 -0.79,-0.34 -0.75,-0.44 -0.69,-0.52 -0.62,-0.60 -0.54,-0.67 -0.46,-0.74 -0.36,-0.78 -0.27,-0.83 -0.17,-0.85 -0.06,-0.87 0.03,-0.86 0.14,-0.86 0.24,-0.83 0.34,-0.80 0.43,-0.75 0.52,-0.69 0.60,-0.62 0.68,-0.55 0.73,-0.46 0.79,-0.37 0.82,-0.27 0.85,-0.17 0.85,-0.17 L 0.85,-0.17 Z"></path></g><g transform="translate(346.59095939267416 12.287471063491068) rotate(0 0.7624903544970323 6.099922835976145)" stroke="none"><path fill="#e03131" d="M 0.56,0.56 Q 0.56,0.56 0.14,1.44 -0.28,2.32 -0.65,3.09 -1.03,3.86 -1.43,4.85 -1.84,5.84 -2.23,7.09 -2.62,8.33 -2.57,9.52 -2.53,10.72 -2.19,11.24 -1.86,11.76 -0.95,11.77 -0.03,11.78 0.93,10.98 1.91,10.19 2.53,9.29 3.14,8.39 3.65,7.55 4.16,6.72 4.32,6.12 4.47,5.51 4.13,4.61 3.78,3.70 3.27,2.91 2.76,2.11 2.33,1.54 1.90,0.97 0.85,0.70 -0.18,0.44 -0.28,0.47 -0.38,0.50 -0.49,0.50 -0.60,0.50 -0.70,0.47 -0.80,0.43 -0.88,0.37 -0.97,0.30 -1.03,0.22 -1.09,0.13 -1.11,0.02 -1.14,-0.07 -1.14,-0.17 -1.13,-0.28 -1.09,-0.38 -1.05,-0.48 -0.98,-0.56 -0.91,-0.64 -0.82,-0.69 -0.73,-0.75 -0.63,-0.77 -0.52,-0.79 -0.42,-0.78 -0.31,-0.77 -0.21,-0.72 -0.12,-0.68 -0.04,-0.61 0.03,-0.53 0.07,-0.44 0.12,-0.34 0.14,-0.24 0.16,-0.13 0.14,-0.03 0.12,0.07 0.07,0.16 0.02,0.25 -0.05,0.33 -0.12,0.40 -0.22,0.44 -0.32,0.49 -0.42,0.50 -0.53,0.51 -0.63,0.49 -0.73,0.46 -0.83,0.41 -0.92,0.35 -0.98,0.27 -1.05,0.19 -1.09,0.09 -1.13,-0.00 -1.14,-0.10 -1.14,-0.21 -1.11,-0.31 -1.08,-0.41 -1.02,-0.50 -0.96,-0.59 -0.88,-0.65 -0.79,-0.72 -0.79,-0.72 -0.79,-0.72 1.62,-0.68 4.04,-0.65 4.55,0.03 5.06,0.71 5.71,1.83 6.36,2.95 6.70,4.49 7.04,6.03 6.73,7.05 6.43,8.08 5.85,9.01 5.28,9.94 4.37,11.12 3.47,12.31 1.91,13.32 0.34,14.34 -0.93,14.36 -2.22,14.38 -3.14,13.80 -4.06,13.22 -4.65,12.08 -5.23,10.94 -5.28,9.25 -5.33,7.56 -4.92,6.16 -4.50,4.75 -4.04,3.63 -3.59,2.51 -2.97,1.40 -2.35,0.30 -1.45,-0.13 -0.56,-0.56 -0.49,-0.62 -0.41,-0.68 -0.32,-0.72 -0.23,-0.76 -0.14,-0.78 -0.04,-0.80 0.04,-0.79 0.14,-0.79 0.23,-0.76 0.33,-0.73 0.41,-0.68 0.49,-0.63 0.56,-0.56 0.63,-0.49 0.68,-0.41 0.73,-0.33 0.76,-0.23 0.79,-0.14 0.79,-0.04 0.80,0.04 0.78,0.14 0.76,0.23 0.72,0.32 0.68,0.41 0.62,0.49 0.56,0.56 0.56,0.56 L 0.56,0.56 Z"></path></g></svg>