<svg version="1.1" xmlns="http://www.w3.org/2000/svg" viewBox="0 0 639 336" width="639" height="336" filter="invert(93%) hue-rotate(180deg)" class="excalidraw-svg"><!-- svg-source:excalidraw --><metadata></metadata><defs><style class="style-fonts">
      </style></defs><rect x="0" y="0" width="639" height="336" fill="transparent"></rect><g stroke-linecap="round"><g transform="translate(10 282) rotate(0 111.5 -125)"><path d="M0 0 C37.17 -41.67, 185.83 -208.33, 223 -250 M0 0 C37.17 -41.67, 185.83 -208.33, 223 -250" stroke="#000000" stroke-width="0.5" fill="none"></path></g></g><mask></mask><g stroke-linecap="round"><g transform="translate(236 32) rotate(0 1.5 124)"><path d="M0 0 C0.5 41.33, 2.5 206.67, 3 248 M0 0 C0.5 41.33, 2.5 206.67, 3 248" stroke="#000000" stroke-width="0.5" fill="none"></path></g></g><mask></mask><g stroke-linecap="round"><g transform="translate(10 283) rotate(0 114 -1.5)"><path d="M0 0 C38 -0.5, 190 -2.5, 228 -3 M0 0 C38 -0.5, 190 -2.5, 228 -3" stroke="#000000" stroke-width="0.5" fill="none"></path></g></g><mask></mask><g transform="translate(125 294) rotate(0 -1 15.5)" stroke="none"><path fill="#1971c2" d="M 0.95,0 Q 0.95,0 1.48,0.86 2.02,1.72 2.02,3.81 2.02,5.90 2.02,8.52 2.02,11.13 2.02,13.97 2.02,16.80 2.02,19.16 2.02,21.51 2.29,23.53 2.57,25.55 2.70,27.32 2.82,29.10 2.82,29.34 2.82,29.59 2.77,29.83 2.71,30.06 2.60,30.28 2.49,30.50 2.33,30.68 2.17,30.87 1.97,31.01 1.77,31.15 1.55,31.24 1.32,31.32 1.08,31.36 0.84,31.39 0.60,31.36 0.35,31.34 0.13,31.25 -0.09,31.17 -0.30,31.03 -0.50,30.90 -0.66,30.72 -0.83,30.54 -0.94,30.32 -1.06,30.11 -1.12,29.87 -1.18,29.64 -1.85,29.25 -2.53,28.86 -2.62,28.81 -2.71,28.76 -2.78,28.68 -2.86,28.60 -2.90,28.50 -2.94,28.41 -2.95,28.30 -2.96,28.19 -2.94,28.09 -2.91,27.99 -2.85,27.90 -2.80,27.81 -2.71,27.74 -2.63,27.67 -2.53,27.64 -2.43,27.60 -2.33,27.60 -2.22,27.59 -2.12,27.62 -2.02,27.65 -1.93,27.71 -1.84,27.78 -1.78,27.86 -1.72,27.95 -1.69,28.05 -1.66,28.15 -1.66,28.26 -1.66,28.36 -1.70,28.46 -1.73,28.56 -1.80,28.65 -1.86,28.73 -1.95,28.79 -2.04,28.84 -2.14,28.87 -2.25,28.90 -2.35,28.89 -2.46,28.88 -2.56,28.84 -2.66,28.80 -2.73,28.73 -2.81,28.66 -2.87,28.57 -2.92,28.47 -2.94,28.37 -2.96,28.27 -2.95,28.16 -2.93,28.05 -2.89,27.96 -2.84,27.86 -2.77,27.79 -2.69,27.71 -2.60,27.66 -2.50,27.62 -2.40,27.60 -2.29,27.59 -2.19,27.61 -2.08,27.63 -2.08,27.63 -2.08,27.63 0.36,28.36 2.82,29.10 2.82,29.34 2.82,29.59 2.77,29.83 2.71,30.06 2.60,30.28 2.49,30.50 2.33,30.68 2.17,30.87 1.97,31.01 1.78,31.15 1.55,31.24 1.32,31.32 1.08,31.36 0.84,31.39 0.60,31.36 0.35,31.34 0.13,31.25 -0.09,31.17 -0.30,31.03 -0.50,30.90 -0.66,30.72 -0.82,30.54 -0.94,30.32 -1.06,30.11 -1.12,29.87 -1.18,29.64 -1.30,27.86 -1.42,26.08 -1.72,23.80 -2.02,21.52 -2.02,19.16 -2.02,16.80 -2.02,13.97 -2.02,11.13 -2.02,8.52 -2.02,5.90 -2.02,3.81 -2.02,1.72 -1.48,0.86 -0.95,0 -0.94,-0.11 -0.92,-0.22 -0.88,-0.33 -0.84,-0.44 -0.78,-0.53 -0.71,-0.63 -0.62,-0.71 -0.54,-0.78 -0.44,-0.84 -0.33,-0.89 -0.22,-0.92 -0.11,-0.94 0.00,-0.94 0.11,-0.94 0.22,-0.92 0.33,-0.89 0.44,-0.84 0.54,-0.78 0.62,-0.71 0.71,-0.63 0.78,-0.53 0.84,-0.44 0.88,-0.33 0.92,-0.22 0.94,-0.11 0.95,0.00 0.95,0.00 L 0.95,0 Z"></path></g><g transform="translate(271 150) rotate(0 -2 14)" stroke="none"><path fill="#1971c2" d="M 0.89,0.44 Q 0.89,0.44 0.73,1.78 0.57,3.12 0.42,4.49 0.26,5.86 0.18,7.62 0.09,9.37 -0.24,11.96 -0.57,14.54 -0.69,16.69 -0.81,18.84 -0.87,20.62 -0.92,22.39 -0.95,23.44 -0.98,24.48 -2.07,25.35 -3.16,26.21 -3.17,26.29 -3.18,26.37 -3.21,26.44 -3.24,26.52 -3.29,26.58 -3.33,26.64 -3.39,26.69 -3.45,26.75 -3.52,26.78 -3.60,26.82 -3.67,26.83 -3.75,26.85 -3.83,26.85 -3.91,26.85 -3.98,26.82 -4.06,26.80 -4.13,26.77 -4.20,26.73 -4.26,26.67 -4.32,26.62 -4.36,26.55 -4.40,26.49 -4.43,26.41 -4.45,26.34 -4.46,26.26 -4.47,26.18 -4.44,26.32 -4.42,26.46 -4.44,26.36 -4.47,26.25 -4.46,26.15 -4.45,26.04 -4.41,25.94 -4.37,25.84 -4.30,25.77 -4.23,25.69 -4.13,25.63 -4.04,25.58 -3.94,25.56 -3.83,25.54 -3.73,25.55 -3.62,25.57 -3.53,25.61 -3.43,25.66 -3.36,25.74 -3.28,25.81 -3.23,25.91 -3.19,26.00 -3.17,26.11 -3.16,26.21 -3.18,26.32 -3.20,26.42 -3.25,26.51 -3.30,26.61 -3.38,26.68 -3.46,26.75 -3.55,26.79 -3.65,26.83 -3.76,26.84 -3.86,26.85 -3.97,26.83 -4.07,26.80 -4.16,26.74 -4.25,26.69 -4.32,26.60 -4.38,26.52 -4.42,26.42 -4.46,26.32 -4.46,26.22 -4.46,26.11 -4.43,26.01 -4.40,25.91 -4.34,25.82 -4.28,25.73 -4.19,25.67 -4.11,25.61 -4.01,25.58 -3.90,25.55 -3.80,25.55 -3.69,25.55 -3.59,25.59 -3.49,25.62 -3.41,25.69 -3.33,25.76 -3.24,25.98 -3.16,26.21 -3.17,26.29 -3.18,26.37 -3.21,26.44 -3.24,26.52 -3.29,26.58 -3.33,26.64 -3.39,26.69 -3.45,26.75 -3.52,26.78 -3.60,26.82 -3.67,26.83 -3.75,26.85 -3.83,26.85 -3.91,26.85 -3.98,26.82 -4.06,26.80 -4.13,26.77 -4.20,26.73 -4.26,26.67 -4.32,26.62 -4.36,26.55 -4.40,26.49 -4.43,26.41 -4.45,26.34 -4.46,26.26 -4.47,26.18 -4.70,25.28 -4.94,24.39 -4.91,23.33 -4.89,22.26 -4.83,20.43 -4.77,18.59 -4.60,16.31 -4.44,14.03 -4.11,11.59 -3.78,9.16 -3.66,7.22 -3.54,5.29 -3.20,3.38 -2.87,1.47 -1.88,0.51 -0.89,-0.44 -0.83,-0.55 -0.76,-0.65 -0.67,-0.73 -0.58,-0.81 -0.48,-0.87 -0.37,-0.93 -0.25,-0.96 -0.14,-0.99 -0.01,-0.99 0.10,-0.99 0.21,-0.97 0.33,-0.94 0.44,-0.89 0.55,-0.83 0.64,-0.75 0.73,-0.68 0.80,-0.58 0.88,-0.48 0.92,-0.37 0.97,-0.25 0.98,-0.13 1.00,-0.01 0.99,0.10 0.97,0.22 0.93,0.33 0.89,0.44 0.89,0.44 L 0.89,0.44 Z"></path></g><g transform="translate(59 139) rotate(0 27 -14)" stroke="none"><path fill="#1971c2" d="M 0.55,-0.41 Q 0.55,-0.41 1.75,0.48 2.94,1.38 3.90,2.75 4.86,4.12 5.84,5.57 6.82,7.01 7.76,8.14 8.71,9.26 9.40,10.03 10.09,10.80 10.68,11.42 11.28,12.04 11.38,12.19 11.49,12.35 11.56,12.52 11.63,12.70 11.65,12.88 11.67,13.07 11.65,13.25 11.63,13.44 11.56,13.61 11.50,13.79 11.39,13.94 11.29,14.09 11.15,14.22 11.01,14.34 10.85,14.43 10.68,14.52 10.50,14.56 10.32,14.61 10.13,14.61 9.95,14.61 9.76,14.57 9.58,14.52 9.42,14.44 9.25,14.35 9.11,14.23 8.97,14.10 9.12,12.97 9.27,11.84 8.97,10.98 8.67,10.11 8.59,8.05 8.51,5.99 8.19,3.19 7.87,0.39 7.45,-3.10 7.03,-6.61 6.84,-11.62 6.66,-16.63 6.58,-20.47 6.50,-24.31 6.76,-27.17 7.02,-30.04 7.12,-31.78 7.23,-33.51 7.59,-34.74 7.95,-35.97 8.11,-36.70 8.27,-37.43 8.86,-38.19 9.45,-38.96 10.86,-39.28 12.27,-39.61 14.09,-39.95 15.91,-40.28 18.83,-40.45 21.75,-40.61 26.37,-40.96 30.99,-41.31 34.65,-41.74 38.31,-42.16 41.29,-42.63 44.26,-43.10 46.76,-43.30 49.25,-43.51 50.19,-42.25 51.13,-40.99 51.21,-40.98 51.29,-40.98 51.36,-40.96 51.44,-40.94 51.51,-40.90 51.58,-40.86 51.64,-40.80 51.69,-40.75 51.73,-40.68 51.78,-40.62 51.80,-40.54 51.83,-40.47 51.83,-40.39 51.84,-40.31 51.83,-40.23 51.82,-40.15 51.78,-40.08 51.75,-40.01 51.71,-39.94 51.66,-39.88 51.60,-39.83 51.54,-39.78 51.47,-39.75 51.39,-39.71 51.32,-39.69 51.24,-39.68 51.43,-39.76 51.63,-39.85 51.54,-39.79 51.45,-39.73 51.34,-39.71 51.24,-39.68 51.13,-39.69 51.03,-39.70 50.93,-39.74 50.83,-39.78 50.75,-39.85 50.67,-39.92 50.62,-40.01 50.57,-40.10 50.55,-40.21 50.53,-40.31 50.54,-40.42 50.56,-40.52 50.60,-40.62 50.65,-40.71 50.72,-40.79 50.80,-40.87 50.89,-40.91 50.99,-40.96 51.09,-40.98 51.20,-40.99 51.30,-40.97 51.41,-40.95 51.50,-40.90 51.59,-40.85 51.67,-40.77 51.74,-40.69 51.78,-40.59 51.82,-40.49 51.83,-40.39 51.84,-40.28 51.81,-40.18 51.79,-40.08 51.73,-39.99 51.68,-39.90 51.59,-39.83 51.51,-39.76 51.41,-39.73 51.31,-39.69 51.20,-39.69 51.10,-39.68 51.00,-39.71 50.90,-39.74 50.81,-39.81 50.72,-39.87 50.66,-39.95 50.60,-40.04 50.57,-40.14 50.53,-40.24 50.54,-40.35 50.54,-40.45 50.58,-40.55 50.61,-40.65 50.87,-40.82 51.13,-40.99 51.21,-40.98 51.29,-40.98 51.36,-40.96 51.44,-40.94 51.51,-40.90 51.58,-40.86 51.64,-40.80 51.69,-40.75 51.73,-40.68 51.78,-40.62 51.80,-40.54 51.83,-40.47 51.83,-40.39 51.84,-40.31 51.83,-40.23 51.82,-40.15 51.78,-40.08 51.75,-40.01 51.71,-39.94 51.66,-39.88 51.60,-39.83 51.54,-39.78 51.47,-39.75 51.39,-39.71 51.32,-39.70 51.24,-39.68 50.40,-39.78 49.55,-39.89 47.19,-39.69 44.83,-39.49 41.79,-39.01 38.74,-38.54 35.01,-38.09 31.27,-37.65 26.61,-37.30 21.94,-36.95 19.25,-36.82 16.56,-36.69 14.65,-36.34 12.74,-36.00 12.02,-36.21 11.30,-36.42 11.17,-35.69 11.05,-34.97 10.75,-34.13 10.44,-33.29 10.33,-31.52 10.22,-29.74 9.96,-27.06 9.71,-24.37 9.79,-20.56 9.87,-16.75 10.04,-11.87 10.22,-6.99 10.64,-3.47 11.06,0.04 11.39,2.95 11.71,5.86 11.78,7.76 11.85,9.67 11.92,11.37 11.98,13.07 11.63,12.56 11.28,12.04 11.38,12.19 11.49,12.35 11.56,12.52 11.63,12.70 11.65,12.88 11.67,13.07 11.65,13.25 11.63,13.44 11.56,13.61 11.50,13.78 11.39,13.94 11.29,14.09 11.15,14.22 11.01,14.34 10.85,14.43 10.68,14.52 10.50,14.56 10.32,14.61 10.13,14.61 9.95,14.61 9.76,14.57 9.58,14.52 9.42,14.44 9.25,14.35 9.11,14.23 8.97,14.10 8.39,13.48 7.81,12.85 7.08,12.03 6.36,11.22 5.32,9.98 4.29,8.73 3.32,7.30 2.35,5.87 1.42,4.54 0.50,3.21 -0.02,1.81 -0.55,0.41 -0.59,0.34 -0.64,0.27 -0.66,0.19 -0.68,0.11 -0.69,0.02 -0.69,-0.05 -0.67,-0.13 -0.65,-0.22 -0.62,-0.29 -0.58,-0.37 -0.53,-0.43 -0.48,-0.50 -0.41,-0.55 -0.34,-0.60 -0.27,-0.63 -0.19,-0.66 -0.11,-0.68 -0.02,-0.69 0.05,-0.68 0.13,-0.68 0.21,-0.65 0.29,-0.62 0.36,-0.58 0.44,-0.53 0.49,-0.47 0.55,-0.41 0.55,-0.41 L 0.55,-0.41 Z"></path></g><g transform="translate(79 118) rotate(0 9.5 7)" stroke="none"><path fill="#1971c2" d="M -0.48,-0.64 Q -0.48,-0.64 0.51,-1.72 1.51,-2.80 3.60,-3.58 5.70,-4.37 7.49,-4.68 9.29,-4.99 11.07,-4.83 12.85,-4.67 14.39,-3.91 15.92,-3.16 17.02,-1.50 18.11,0.15 18.56,1.85 19.00,3.54 18.57,5.68 18.14,7.81 16.67,9.72 15.20,11.63 13.68,12.99 12.16,14.35 10.22,15.30 8.28,16.25 7.37,16.81 6.45,17.37 6.38,16.50 6.30,15.63 8.01,15.85 9.72,16.07 11.24,16.14 12.76,16.21 15.59,16.77 18.42,17.33 18.52,17.35 18.62,17.37 18.72,17.42 18.81,17.47 18.88,17.55 18.96,17.63 19.00,17.72 19.04,17.82 19.05,17.93 19.06,18.03 19.04,18.13 19.01,18.24 18.96,18.33 18.90,18.42 18.82,18.49 18.74,18.55 18.64,18.59 18.54,18.63 18.43,18.63 18.33,18.64 18.22,18.61 18.12,18.58 18.04,18.52 17.95,18.46 17.89,18.37 17.82,18.29 17.79,18.18 17.76,18.08 17.76,17.98 17.76,17.87 17.80,17.77 17.83,17.67 17.90,17.59 17.96,17.50 18.05,17.45 18.14,17.39 18.24,17.36 18.34,17.33 18.45,17.34 18.56,17.35 18.65,17.39 18.75,17.43 18.83,17.50 18.91,17.57 18.97,17.66 19.02,17.75 19.04,17.86 19.06,17.96 19.05,18.07 19.04,18.17 18.99,18.27 18.94,18.36 18.87,18.44 18.80,18.52 18.70,18.56 18.61,18.61 18.50,18.63 18.40,18.64 18.40,18.64 18.40,18.64 15.50,19.10 12.60,19.56 10.99,19.49 9.38,19.41 7.36,19.08 5.35,18.76 4.74,18.16 4.14,17.56 4.37,16.15 4.60,14.74 5.75,14.02 6.90,13.30 8.48,12.61 10.05,11.91 11.39,10.74 12.73,9.58 13.92,8.26 15.11,6.94 15.54,5.52 15.96,4.11 15.71,2.87 15.46,1.63 14.93,0.43 14.39,-0.75 13.43,-1.28 12.47,-1.82 11.10,-2.00 9.73,-2.18 8.16,-1.93 6.60,-1.69 4.84,-1.17 3.08,-0.64 1.78,-0.00 0.48,0.64 0.40,0.69 0.31,0.74 0.22,0.77 0.12,0.79 0.03,0.80 -0.06,0.80 -0.16,0.78 -0.25,0.76 -0.34,0.72 -0.43,0.68 -0.50,0.62 -0.58,0.55 -0.64,0.48 -0.70,0.40 -0.73,0.31 -0.77,0.22 -0.79,0.12 -0.80,0.03 -0.80,-0.06 -0.79,-0.16 -0.76,-0.25 -0.73,-0.34 -0.67,-0.42 -0.62,-0.51 -0.55,-0.57 -0.48,-0.64 -0.48,-0.64 L -0.48,-0.64 Z"></path></g><g transform="translate(52 238) rotate(0 8 20)" stroke="none"><path fill="#1971c2" d="M 0.27,-0.82 Q 0.27,-0.82 1.19,-0.71 2.11,-0.60 3.35,-0.20 4.58,0.19 5.72,0.66 6.87,1.14 7.93,1.63 9.00,2.12 9.82,2.65 10.64,3.19 11.61,4.02 12.57,4.85 13.35,5.86 14.12,6.88 14.51,8.03 14.90,9.19 15.31,10.44 15.72,11.69 15.93,12.91 16.13,14.13 16.21,15.83 16.30,17.52 16.60,18.65 16.90,19.78 17.05,20.98 17.20,22.18 17.27,23.27 17.33,24.37 17.36,25.99 17.39,27.61 17.40,28.87 17.41,30.13 17.42,31.24 17.42,32.35 17.43,33.40 17.43,34.45 17.43,35.18 17.43,35.91 16.53,38.10 15.64,40.29 15.55,40.35 15.46,40.41 15.36,40.44 15.26,40.47 15.15,40.47 15.05,40.46 14.95,40.42 14.85,40.39 14.76,40.32 14.68,40.25 14.63,40.16 14.57,40.07 14.55,39.97 14.52,39.86 14.53,39.76 14.54,39.65 14.58,39.56 14.63,39.46 14.70,39.38 14.77,39.30 14.86,39.25 14.95,39.20 15.06,39.18 15.16,39.16 15.27,39.18 15.37,39.19 15.47,39.24 15.56,39.29 15.64,39.36 15.71,39.44 15.76,39.54 15.81,39.63 15.82,39.74 15.83,39.84 15.81,39.95 15.79,40.05 15.74,40.14 15.68,40.23 15.60,40.30 15.52,40.37 15.43,40.42 15.33,40.46 15.22,40.46 15.12,40.47 15.01,40.45 14.91,40.42 14.82,40.36 14.73,40.30 14.67,40.22 14.60,40.14 14.57,40.04 14.53,39.94 14.53,39.83 14.53,39.72 14.56,39.62 14.59,39.52 14.65,39.43 14.72,39.35 14.72,39.35 14.72,39.35 14.64,37.63 14.56,35.91 14.56,35.18 14.55,34.45 14.55,33.41 14.55,32.36 14.55,31.26 14.54,30.15 14.53,28.91 14.52,27.66 14.51,26.09 14.49,24.52 14.44,23.52 14.39,22.52 14.27,21.50 14.15,20.47 13.81,19.07 13.48,17.66 13.41,16.11 13.35,14.56 13.21,13.55 13.06,12.54 12.66,11.25 12.25,9.96 12.08,9.20 11.91,8.43 11.35,7.63 10.80,6.82 10.00,6.08 9.19,5.34 8.55,4.89 7.91,4.44 6.90,3.97 5.88,3.49 4.83,3.04 3.78,2.59 2.55,2.17 1.33,1.75 0.52,1.28 -0.27,0.82 -0.36,0.77 -0.46,0.73 -0.54,0.66 -0.62,0.60 -0.68,0.51 -0.75,0.43 -0.79,0.33 -0.83,0.24 -0.85,0.13 -0.86,0.03 -0.85,-0.06 -0.85,-0.17 -0.81,-0.27 -0.78,-0.37 -0.72,-0.46 -0.67,-0.54 -0.59,-0.62 -0.52,-0.69 -0.43,-0.74 -0.34,-0.79 -0.24,-0.82 -0.13,-0.85 -0.03,-0.86 0.06,-0.86 0.17,-0.84 0.27,-0.82 0.27,-0.82 L 0.27,-0.82 Z"></path></g><g transform="translate(38 260) rotate(0 4.5 8.5)" stroke="none"><path fill="#1971c2" d="M 0.90,0 Q 0.90,0 1.23,1.15 1.56,2.30 1.26,4.07 0.97,5.84 0.85,7.61 0.74,9.37 0.39,11.12 0.03,12.88 -0.10,14.08 -0.24,15.28 -0.34,15.96 -0.43,16.63 -0.14,17.11 0.14,17.59 0.10,17.77 0.07,17.95 -0.00,18.12 -0.08,18.28 -0.20,18.43 -0.31,18.57 -0.46,18.68 -0.61,18.80 -0.78,18.87 -0.95,18.94 -1.13,18.97 -1.31,19.01 -1.49,18.99 -1.68,18.98 -1.85,18.92 -2.03,18.86 -2.19,18.77 -2.34,18.67 -2.47,18.54 -2.60,18.40 -2.69,18.24 -2.79,18.08 -2.84,17.91 -2.89,17.73 -2.90,17.55 -2.91,17.36 -2.31,16.46 -1.70,15.57 -0.56,14.72 0.57,13.88 2.18,12.74 3.79,11.60 5.06,10.62 6.33,9.65 8.22,7.84 10.10,6.02 10.18,5.95 10.27,5.88 10.36,5.85 10.46,5.81 10.57,5.80 10.68,5.80 10.78,5.83 10.88,5.86 10.97,5.92 11.05,5.98 11.12,6.07 11.18,6.15 11.21,6.25 11.25,6.35 11.24,6.46 11.24,6.57 11.21,6.67 11.17,6.77 11.11,6.85 11.04,6.93 10.95,6.99 10.86,7.05 10.76,7.08 10.66,7.11 10.55,7.10 10.45,7.09 10.35,7.05 10.25,7.01 10.17,6.94 10.09,6.87 10.04,6.78 9.98,6.69 9.96,6.58 9.94,6.48 9.95,6.37 9.97,6.27 10.01,6.17 10.06,6.08 10.13,6.00 10.21,5.92 10.30,5.87 10.40,5.83 10.50,5.81 10.61,5.79 10.71,5.81 10.81,5.83 10.91,5.88 11.00,5.93 11.07,6.01 11.14,6.09 11.19,6.19 11.23,6.29 11.24,6.39 11.25,6.50 11.23,6.60 11.20,6.70 11.15,6.79 11.09,6.88 11.09,6.88 11.09,6.88 9.53,9.20 7.96,11.53 6.73,12.71 5.50,13.89 3.94,15.12 2.37,16.35 1.26,16.97 0.14,17.59 0.10,17.77 0.07,17.95 -0.00,18.12 -0.08,18.28 -0.20,18.43 -0.31,18.57 -0.46,18.68 -0.61,18.80 -0.78,18.87 -0.94,18.94 -1.13,18.97 -1.31,19.01 -1.49,18.99 -1.68,18.98 -1.85,18.92 -2.03,18.86 -2.19,18.77 -2.34,18.67 -2.47,18.54 -2.60,18.40 -2.69,18.24 -2.79,18.08 -2.84,17.91 -2.89,17.73 -2.90,17.55 -2.91,17.36 -3.14,17.13 -3.37,16.91 -3.35,15.92 -3.32,14.94 -3.17,13.59 -3.03,12.24 -2.70,10.70 -2.38,9.16 -2.25,7.23 -2.12,5.30 -1.84,3.80 -1.56,2.29 -1.23,1.14 -0.90,0 -0.89,-0.10 -0.88,-0.21 -0.84,-0.31 -0.80,-0.42 -0.74,-0.51 -0.67,-0.60 -0.59,-0.67 -0.51,-0.74 -0.41,-0.79 -0.32,-0.84 -0.21,-0.87 -0.10,-0.90 0.00,-0.90 0.10,-0.90 0.21,-0.87 0.32,-0.84 0.41,-0.79 0.51,-0.74 0.59,-0.67 0.67,-0.60 0.74,-0.51 0.80,-0.42 0.84,-0.31 0.88,-0.21 0.89,-0.10 0.90,0.00 0.90,0.00 L 0.90,0 Z"></path></g><g transform="translate(43 260) rotate(0 0.5 8)" stroke="none"><path fill="#1971c2" d="M 0.86,0 Q 0.86,0 1.19,0.86 1.52,1.72 1.53,2.95 1.54,4.18 1.54,5.85 1.54,7.52 1.82,9.57 2.10,11.61 2.18,12.84 2.25,14.07 2.35,14.17 2.45,14.26 2.45,14.34 2.45,14.42 2.43,14.49 2.41,14.57 2.37,14.64 2.33,14.71 2.28,14.77 2.23,14.82 2.16,14.87 2.09,14.91 2.02,14.94 1.95,14.96 1.87,14.97 1.79,14.98 1.71,14.97 1.63,14.96 1.56,14.93 1.48,14.90 1.42,14.85 1.36,14.81 1.30,14.75 1.25,14.69 1.22,14.62 1.18,14.54 1.16,14.47 1.15,14.39 1.26,14.11 1.37,13.83 1.46,13.77 1.55,13.72 1.66,13.69 1.76,13.67 1.87,13.68 1.97,13.69 2.07,13.73 2.16,13.78 2.24,13.85 2.32,13.92 2.37,14.02 2.42,14.11 2.44,14.21 2.46,14.32 2.44,14.42 2.42,14.53 2.38,14.62 2.33,14.72 2.25,14.79 2.17,14.86 2.08,14.91 1.98,14.96 1.88,14.97 1.77,14.98 1.67,14.96 1.56,14.94 1.47,14.88 1.38,14.83 1.31,14.75 1.24,14.67 1.20,14.57 1.16,14.47 1.15,14.36 1.15,14.26 1.17,14.16 1.20,14.05 1.26,13.96 1.32,13.88 1.40,13.81 1.49,13.75 1.59,13.71 1.69,13.68 1.80,13.68 1.90,13.68 2.00,13.71 2.10,13.74 2.19,13.81 2.27,13.87 2.33,13.96 2.39,14.04 2.42,14.15 2.45,14.25 2.45,14.35 2.44,14.46 2.40,14.56 2.37,14.66 2.41,14.46 2.45,14.26 2.45,14.34 2.45,14.42 2.43,14.49 2.41,14.57 2.37,14.64 2.33,14.71 2.28,14.77 2.23,14.82 2.16,14.87 2.09,14.91 2.02,14.94 1.95,14.96 1.87,14.97 1.79,14.98 1.71,14.97 1.63,14.96 1.56,14.93 1.48,14.90 1.42,14.85 1.36,14.81 1.30,14.75 1.25,14.69 1.22,14.62 1.18,14.54 1.16,14.47 1.15,14.39 0.26,14.38 -0.61,14.37 -0.78,13.20 -0.95,12.02 -1.25,9.77 -1.54,7.52 -1.54,5.85 -1.54,4.18 -1.53,2.95 -1.52,1.72 -1.19,0.86 -0.86,0 -0.85,-0.10 -0.84,-0.20 -0.80,-0.30 -0.76,-0.40 -0.70,-0.48 -0.65,-0.57 -0.57,-0.64 -0.49,-0.71 -0.40,-0.76 -0.30,-0.81 -0.20,-0.83 -0.10,-0.86 0.00,-0.86 0.10,-0.86 0.20,-0.83 0.30,-0.81 0.40,-0.76 0.49,-0.71 0.57,-0.64 0.65,-0.57 0.70,-0.48 0.76,-0.40 0.80,-0.30 0.84,-0.20 0.85,-0.10 0.86,0.00 0.86,0.00 L 0.86,0 Z"></path></g><g transform="translate(58 257) rotate(0 -4 7.5)" stroke="none"><path fill="#1971c2" d="M -0.68,0.45 Q -0.68,0.45 -1.57,-0.19 -2.46,-0.84 -2.91,-1.39 -3.36,-1.93 -3.55,-2.55 -3.74,-3.16 -3.88,-2.42 -4.02,-1.68 -4.42,-0.47 -4.82,0.73 -4.95,2.22 -5.08,3.71 -5.46,5.38 -5.84,7.05 -5.99,8.15 -6.14,9.25 -6.96,8.99 -7.79,8.73 -6.88,8.36 -5.97,7.99 -4.98,7.56 -4.00,7.14 -2.65,7.18 -1.30,7.23 -0.49,7.33 0.31,7.44 1.32,8.27 2.33,9.11 2.76,10.57 3.20,12.04 3.03,13.38 2.86,14.72 2.38,15.98 1.90,17.23 0.90,17.99 -0.09,18.75 -1.42,19.26 -2.75,19.77 -4.14,19.66 -5.53,19.54 -7.70,18.18 -9.87,16.83 -9.95,16.76 -10.03,16.69 -10.09,16.60 -10.15,16.51 -10.17,16.41 -10.19,16.31 -10.18,16.20 -10.17,16.09 -10.13,16.00 -10.09,15.90 -10.01,15.82 -9.94,15.74 -9.85,15.69 -9.76,15.64 -9.65,15.62 -9.55,15.61 -9.44,15.62 -9.34,15.64 -9.24,15.69 -9.15,15.74 -9.07,15.81 -9.00,15.89 -8.95,15.98 -8.91,16.08 -8.90,16.18 -8.88,16.29 -8.90,16.39 -8.93,16.50 -8.98,16.59 -9.03,16.68 -9.11,16.75 -9.19,16.82 -9.29,16.86 -9.39,16.90 -9.50,16.91 -9.60,16.92 -9.71,16.89 -9.81,16.86 -9.90,16.80 -9.99,16.74 -10.05,16.66 -10.12,16.58 -10.15,16.48 -10.19,16.38 -10.19,16.27 -10.19,16.16 -10.16,16.06 -10.12,15.96 -10.06,15.88 -10.00,15.79 -9.91,15.73 -9.82,15.67 -9.72,15.64 -9.62,15.61 -9.51,15.61 -9.41,15.62 -9.31,15.66 -9.21,15.70 -9.21,15.70 -9.21,15.70 -7.25,16.20 -5.29,16.71 -4.53,16.77 -3.78,16.82 -2.30,16.28 -0.82,15.75 -0.57,14.96 -0.32,14.16 -0.13,13.41 0.05,12.65 -0.17,11.54 -0.41,10.42 -1.02,10.44 -1.63,10.46 -2.26,10.30 -2.90,10.14 -3.87,10.59 -4.85,11.04 -5.86,11.37 -6.86,11.70 -8.13,10.39 -9.40,9.07 -9.24,7.69 -9.08,6.30 -8.75,4.83 -8.41,3.36 -8.20,1.53 -7.99,-0.30 -7.58,-1.51 -7.18,-2.72 -6.79,-3.60 -6.39,-4.48 -4.83,-4.81 -3.28,-5.14 -2.17,-4.63 -1.06,-4.12 -0.44,-3.36 0.16,-2.60 0.42,-1.52 0.68,-0.45 0.72,-0.36 0.76,-0.27 0.79,-0.18 0.81,-0.08 0.81,0.01 0.81,0.11 0.78,0.20 0.76,0.30 0.71,0.38 0.66,0.47 0.59,0.54 0.53,0.62 0.45,0.67 0.36,0.73 0.27,0.76 0.18,0.79 0.08,0.80 -0.01,0.81 -0.11,0.80 -0.20,0.79 -0.30,0.75 -0.39,0.71 -0.47,0.66 -0.55,0.60 -0.61,0.52 -0.68,0.45 -0.68,0.45 L -0.68,0.45 Z"></path></g><g transform="translate(203 63) rotate(0 17 10)" stroke="none"><path fill="#1971c2" d="M 0.73,-0.36 Q 0.73,-0.36 1.58,0.64 2.43,1.65 3.22,2.95 4.01,4.25 4.92,5.67 5.84,7.09 6.76,8.21 7.67,9.33 8.55,10.02 9.44,10.70 10.36,11.28 11.29,11.86 12.59,12.70 13.88,13.55 15.19,14.14 16.51,14.73 17.55,14.96 18.59,15.19 19.99,15.60 21.39,16.02 23.10,16.47 24.81,16.93 26.18,17.43 27.55,17.93 28.55,18.10 29.54,18.28 31.50,18.34 33.46,18.40 33.56,18.40 33.67,18.41 33.77,18.44 33.87,18.48 33.95,18.55 34.03,18.62 34.09,18.71 34.14,18.80 34.16,18.90 34.19,19.01 34.18,19.11 34.17,19.22 34.12,19.32 34.08,19.41 34.01,19.49 33.93,19.57 33.84,19.62 33.75,19.67 33.64,19.69 33.54,19.71 33.43,19.69 33.33,19.67 33.23,19.62 33.14,19.57 33.06,19.50 32.99,19.42 32.95,19.32 32.90,19.23 32.89,19.12 32.88,19.02 32.90,18.91 32.92,18.81 32.97,18.72 33.03,18.63 33.11,18.56 33.19,18.49 33.29,18.45 33.39,18.41 33.49,18.40 33.60,18.40 33.70,18.42 33.80,18.45 33.89,18.51 33.98,18.57 34.05,18.65 34.11,18.74 34.15,18.84 34.18,18.94 34.18,19.04 34.18,19.15 34.15,19.25 34.11,19.35 34.05,19.44 33.99,19.52 33.90,19.58 33.81,19.64 33.71,19.67 33.61,19.70 33.61,19.70 33.61,19.70 31.35,20.40 29.10,21.11 27.83,20.87 26.57,20.63 25.32,20.17 24.07,19.71 22.32,19.24 20.57,18.78 19.25,18.38 17.93,17.99 16.63,17.67 15.32,17.35 13.81,16.66 12.31,15.96 11.04,15.12 9.76,14.29 8.70,13.62 7.64,12.95 6.55,12.05 5.46,11.15 4.44,9.90 3.42,8.65 2.49,7.20 1.56,5.74 0.71,4.34 -0.13,2.94 -0.43,1.65 -0.73,0.36 -0.76,0.27 -0.80,0.18 -0.81,0.08 -0.82,-0.01 -0.80,-0.11 -0.79,-0.21 -0.75,-0.30 -0.72,-0.39 -0.66,-0.47 -0.60,-0.55 -0.52,-0.62 -0.45,-0.68 -0.36,-0.73 -0.27,-0.77 -0.17,-0.79 -0.08,-0.81 0.01,-0.81 0.11,-0.81 0.21,-0.78 0.30,-0.76 0.39,-0.71 0.48,-0.66 0.55,-0.60 0.62,-0.53 0.68,-0.45 0.73,-0.36 0.73,-0.36 L 0.73,-0.36 Z"></path></g><g transform="translate(218 55) rotate(0 4.5 7)" stroke="none"><path fill="#1971c2" d="M 0.82,-0.16 Q 0.82,-0.16 1.40,1.21 1.97,2.59 2.11,4.74 2.25,6.88 2.30,8.64 2.35,10.41 2.06,11.54 1.77,12.67 2.72,11.69 3.66,10.72 4.77,10.27 5.89,9.81 6.97,8.94 8.05,8.06 8.13,7.99 8.21,7.93 8.31,7.89 8.41,7.86 8.52,7.86 8.63,7.85 8.73,7.89 8.83,7.92 8.91,7.98 9.00,8.04 9.06,8.13 9.12,8.22 9.15,8.32 9.18,8.42 9.18,8.53 9.18,8.63 9.14,8.73 9.10,8.83 9.03,8.91 8.97,9.00 8.88,9.05 8.79,9.11 8.68,9.13 8.58,9.16 8.47,9.15 8.37,9.14 8.27,9.10 8.17,9.05 8.09,8.98 8.02,8.91 7.96,8.82 7.91,8.72 7.89,8.62 7.88,8.52 7.89,8.41 7.91,8.31 7.95,8.21 8.00,8.12 8.08,8.04 8.15,7.97 8.25,7.92 8.34,7.87 8.45,7.86 8.55,7.85 8.66,7.87 8.76,7.89 8.86,7.94 8.95,7.99 9.02,8.07 9.09,8.15 9.13,8.25 9.17,8.35 9.18,8.46 9.19,8.56 9.16,8.66 9.13,8.77 9.07,8.86 9.02,8.95 9.02,8.95 9.02,8.95 8.00,10.37 6.97,11.80 5.97,12.45 4.96,13.10 3.62,13.83 2.28,14.55 1.45,14.56 0.61,14.57 -0.18,13.43 -0.99,12.29 -0.75,11.38 -0.50,10.46 -0.56,8.76 -0.61,7.05 -0.71,5.10 -0.82,3.15 -0.82,1.65 -0.82,0.16 -0.83,0.06 -0.84,-0.03 -0.82,-0.13 -0.81,-0.23 -0.77,-0.33 -0.73,-0.42 -0.66,-0.50 -0.60,-0.58 -0.52,-0.65 -0.44,-0.71 -0.35,-0.75 -0.26,-0.80 -0.16,-0.82 -0.06,-0.84 0.03,-0.83 0.13,-0.83 0.23,-0.80 0.33,-0.77 0.42,-0.72 0.51,-0.67 0.58,-0.60 0.65,-0.53 0.71,-0.44 0.76,-0.35 0.79,-0.26 0.82,-0.16 0.82,-0.16 L 0.82,-0.16 Z"></path></g><g transform="translate(222 56) rotate(0 1.5 8.5)" stroke="none"><path fill="#1971c2" d="M 0.86,0 Q 0.86,0 1.10,1.14 1.34,2.29 1.63,3.50 1.92,4.71 2.33,6.10 2.73,7.49 2.94,9.67 3.14,11.85 3.35,13.44 3.56,15.03 3.56,15.11 3.56,15.19 3.54,15.27 3.52,15.34 3.48,15.41 3.44,15.48 3.38,15.54 3.33,15.60 3.26,15.64 3.19,15.68 3.12,15.71 3.04,15.73 2.97,15.74 2.89,15.74 2.81,15.73 2.73,15.72 2.66,15.69 2.58,15.66 2.52,15.61 2.46,15.56 2.41,15.50 2.36,15.44 2.32,15.37 2.29,15.30 2.27,15.22 2.26,15.14 2.42,14.83 2.59,14.51 2.69,14.48 2.79,14.44 2.90,14.44 3.00,14.44 3.11,14.47 3.21,14.50 3.29,14.57 3.38,14.63 3.44,14.71 3.50,14.80 3.53,14.90 3.56,15.01 3.56,15.11 3.55,15.22 3.52,15.32 3.48,15.42 3.41,15.50 3.34,15.58 3.25,15.64 3.16,15.69 3.06,15.72 2.96,15.74 2.85,15.73 2.75,15.72 2.65,15.68 2.55,15.64 2.47,15.57 2.39,15.50 2.34,15.40 2.29,15.31 2.27,15.21 2.25,15.10 2.27,15.00 2.28,14.89 2.33,14.80 2.38,14.70 2.46,14.63 2.53,14.55 2.63,14.51 2.72,14.46 2.83,14.45 2.93,14.43 3.04,14.45 3.14,14.47 3.23,14.53 3.33,14.58 3.40,14.66 3.47,14.74 3.51,14.84 3.55,14.94 3.56,15.04 3.56,15.15 3.54,15.25 3.51,15.35 3.45,15.44 3.39,15.53 3.48,15.28 3.56,15.03 3.56,15.11 3.56,15.19 3.54,15.27 3.52,15.34 3.48,15.41 3.44,15.48 3.38,15.54 3.33,15.60 3.26,15.64 3.19,15.68 3.12,15.71 3.04,15.73 2.97,15.74 2.89,15.74 2.81,15.73 2.73,15.72 2.66,15.69 2.58,15.66 2.52,15.61 2.46,15.56 2.41,15.50 2.36,15.44 2.32,15.37 2.29,15.30 2.27,15.22 2.26,15.14 1.30,13.62 0.34,12.09 0.19,10.17 0.04,8.25 -0.36,6.77 -0.77,5.28 -1.06,3.79 -1.34,2.30 -1.10,1.15 -0.86,0 -0.84,-0.10 -0.83,-0.20 -0.79,-0.30 -0.76,-0.40 -0.70,-0.48 -0.64,-0.57 -0.56,-0.63 -0.48,-0.70 -0.39,-0.75 -0.30,-0.80 -0.20,-0.83 -0.10,-0.85 0.00,-0.85 0.10,-0.85 0.20,-0.83 0.30,-0.80 0.39,-0.75 0.48,-0.70 0.56,-0.63 0.64,-0.57 0.70,-0.48 0.76,-0.40 0.79,-0.30 0.83,-0.20 0.84,-0.10 0.86,0.00 0.86,0.00 L 0.86,0 Z"></path></g><g transform="translate(234 55) rotate(0 -5.5 8)" stroke="none"><path fill="#1971c2" d="M -0.44,0.66 Q -0.44,0.66 -1.51,0.41 -2.58,0.15 -2.76,1.91 -2.94,3.67 -3.07,4.39 -3.19,5.11 -2.13,5.63 -1.07,6.15 -0.21,6.64 0.65,7.13 1.28,8.18 1.91,9.23 2.11,10.37 2.32,11.50 2.07,12.52 1.82,13.54 1.03,14.63 0.23,15.72 -0.76,16.52 -1.77,17.32 -3.48,17.99 -5.20,18.66 -6.22,18.88 -7.24,19.11 -9.38,18.87 -11.51,18.62 -11.62,18.61 -11.73,18.60 -11.82,18.56 -11.92,18.51 -12.00,18.44 -12.07,18.37 -12.13,18.28 -12.18,18.18 -12.19,18.08 -12.21,17.97 -12.20,17.87 -12.18,17.76 -12.13,17.67 -12.08,17.57 -12.00,17.50 -11.93,17.43 -11.83,17.38 -11.74,17.34 -11.63,17.32 -11.52,17.31 -11.42,17.33 -11.32,17.36 -11.23,17.41 -11.13,17.46 -11.06,17.54 -11.00,17.62 -10.95,17.72 -10.91,17.82 -10.91,17.93 -10.90,18.03 -10.93,18.14 -10.96,18.24 -11.02,18.33 -11.08,18.42 -11.16,18.48 -11.24,18.55 -11.34,18.58 -11.44,18.61 -11.55,18.62 -11.66,18.62 -11.76,18.58 -11.86,18.55 -11.94,18.49 -12.03,18.42 -12.09,18.34 -12.15,18.25 -12.18,18.15 -12.21,18.04 -12.20,17.94 -12.20,17.83 -12.16,17.73 -12.12,17.63 -12.05,17.55 -11.98,17.47 -11.89,17.41 -11.80,17.36 -11.70,17.34 -11.60,17.31 -11.60,17.31 -11.60,17.31 -9.79,16.74 -7.99,16.17 -7.15,15.92 -6.31,15.66 -4.99,15.20 -3.68,14.74 -2.96,14.24 -2.25,13.73 -1.51,12.79 -0.76,11.84 -0.92,10.71 -1.08,9.59 -2.19,8.97 -3.30,8.36 -4.32,8.07 -5.33,7.79 -5.84,7.08 -6.35,6.38 -6.36,5.46 -6.37,4.53 -6.21,3.66 -6.05,2.79 -5.73,1.70 -5.41,0.60 -5.20,-0.42 -4.98,-1.46 -4.51,-2.01 -4.05,-2.55 -2.45,-2.50 -0.86,-2.45 -0.21,-1.56 0.44,-0.66 0.51,-0.60 0.58,-0.53 0.64,-0.46 0.70,-0.38 0.73,-0.29 0.77,-0.20 0.78,-0.10 0.79,-0.01 0.78,0.08 0.77,0.17 0.74,0.26 0.71,0.35 0.65,0.43 0.60,0.51 0.53,0.58 0.46,0.64 0.37,0.69 0.29,0.74 0.20,0.76 0.10,0.79 0.01,0.79 -0.08,0.79 -0.17,0.77 -0.27,0.75 -0.35,0.70 -0.44,0.66 -0.44,0.66 L -0.44,0.66 Z"></path></g><g transform="translate(207 251) rotate(0 0.5 13)" stroke="none"><path fill="#1e1e1e" d="M 0.72,0 Q 0.72,0 1.18,1.72 1.64,3.44 1.93,6.10 2.21,8.77 2.32,12.00 2.43,15.23 2.04,19.15 1.65,23.06 1.64,23.14 1.63,23.22 1.61,23.29 1.58,23.37 1.54,23.43 1.50,23.50 1.44,23.55 1.38,23.61 1.31,23.65 1.25,23.69 1.17,23.71 1.09,23.73 1.01,23.74 0.94,23.74 0.86,23.72 0.78,23.71 0.71,23.67 0.64,23.64 0.58,23.59 0.51,23.54 0.47,23.47 0.42,23.41 0.39,23.34 0.36,23.27 0.35,23.19 0.33,23.11 0.36,22.97 0.38,22.83 0.44,22.74 0.49,22.65 0.58,22.59 0.66,22.52 0.76,22.48 0.86,22.44 0.96,22.44 1.07,22.43 1.17,22.46 1.27,22.49 1.36,22.55 1.45,22.61 1.51,22.70 1.57,22.78 1.61,22.88 1.64,22.99 1.64,23.09 1.64,23.20 1.60,23.30 1.57,23.40 1.50,23.48 1.43,23.57 1.35,23.62 1.26,23.68 1.15,23.71 1.05,23.74 0.95,23.73 0.84,23.72 0.74,23.68 0.64,23.64 0.56,23.57 0.48,23.50 0.43,23.41 0.38,23.32 0.35,23.22 0.33,23.11 0.35,23.01 0.36,22.90 0.40,22.80 0.45,22.71 0.52,22.63 0.60,22.56 0.69,22.51 0.79,22.46 0.89,22.44 1.00,22.43 1.10,22.45 1.21,22.46 1.30,22.52 1.39,22.57 1.46,22.64 1.54,22.72 1.58,22.82 1.62,22.92 1.63,23.02 1.64,23.13 1.64,23.09 1.65,23.06 1.64,23.14 1.63,23.22 1.61,23.29 1.58,23.37 1.54,23.43 1.50,23.50 1.44,23.55 1.38,23.61 1.31,23.65 1.25,23.69 1.17,23.71 1.09,23.73 1.01,23.74 0.94,23.74 0.86,23.72 0.78,23.71 0.71,23.67 0.64,23.64 0.58,23.59 0.51,23.54 0.47,23.47 0.42,23.41 0.39,23.34 0.36,23.27 0.35,23.19 0.33,23.11 -0.22,19.23 -0.79,15.36 -0.92,12.23 -1.06,9.11 -1.35,6.28 -1.64,3.45 -1.18,1.72 -0.72,0 -0.71,-0.08 -0.70,-0.17 -0.67,-0.25 -0.64,-0.33 -0.59,-0.40 -0.54,-0.47 -0.47,-0.53 -0.41,-0.59 -0.33,-0.63 -0.25,-0.67 -0.17,-0.69 -0.08,-0.71 0.00,-0.71 0.08,-0.71 0.17,-0.69 0.25,-0.67 0.33,-0.63 0.41,-0.59 0.47,-0.53 0.54,-0.47 0.59,-0.40 0.64,-0.33 0.67,-0.25 0.70,-0.17 0.71,-0.08 0.72,0.00 0.72,0.00 L 0.72,0 Z"></path></g><g transform="translate(205 249) rotate(0 16.5 -1.5)" stroke="none"><path fill="#1e1e1e" d="M 0,-0.73 Q 0,-0.73 2.01,-1.05 4.02,-1.38 7.17,-1.40 10.33,-1.42 12.44,-1.71 14.55,-1.99 17.28,-2.07 20.00,-2.16 23.12,-2.30 26.25,-2.44 28.95,-2.90 31.65,-3.36 31.76,-3.37 31.86,-3.38 31.96,-3.35 32.07,-3.32 32.16,-3.26 32.24,-3.20 32.31,-3.12 32.37,-3.03 32.41,-2.93 32.44,-2.83 32.44,-2.73 32.44,-2.62 32.41,-2.52 32.38,-2.42 32.31,-2.33 32.25,-2.25 32.16,-2.19 32.07,-2.13 31.97,-2.10 31.87,-2.07 31.76,-2.08 31.66,-2.08 31.56,-2.12 31.46,-2.16 31.38,-2.23 31.30,-2.30 31.24,-2.39 31.19,-2.48 31.16,-2.58 31.14,-2.68 31.15,-2.79 31.16,-2.90 31.20,-2.99 31.25,-3.09 31.32,-3.17 31.39,-3.24 31.49,-3.29 31.58,-3.34 31.69,-3.36 31.79,-3.38 31.90,-3.36 32.00,-3.35 32.09,-3.30 32.19,-3.25 32.26,-3.17 32.34,-3.10 32.38,-3.00 32.43,-2.90 32.44,-2.80 32.45,-2.69 32.43,-2.59 32.41,-2.48 32.35,-2.39 32.30,-2.30 32.22,-2.23 32.14,-2.16 32.04,-2.12 31.94,-2.08 31.94,-2.08 31.94,-2.08 29.19,-1.32 26.45,-0.55 23.29,-0.01 20.12,0.52 17.52,0.68 14.92,0.84 12.63,1.13 10.33,1.42 7.18,1.40 4.02,1.38 2.01,1.05 0,0.73 -0.08,0.72 -0.17,0.70 -0.25,0.67 -0.33,0.64 -0.41,0.59 -0.48,0.54 -0.54,0.48 -0.60,0.41 -0.64,0.33 -0.68,0.25 -0.70,0.17 -0.72,0.08 -0.72,-0.00 -0.72,-0.08 -0.70,-0.17 -0.68,-0.25 -0.64,-0.33 -0.60,-0.41 -0.54,-0.48 -0.48,-0.54 -0.41,-0.59 -0.33,-0.64 -0.25,-0.67 -0.17,-0.70 -0.08,-0.72 0.00,-0.73 0.00,-0.73 L 0,-0.73 Z"></path></g><g stroke-linecap="round"><g transform="translate(562 10) rotate(0 -95 129)"><path d="M0 0 C-31.67 43, -158.33 215, -190 258 M0 0 C-31.67 43, -158.33 215, -190 258" stroke="#1e1e1e" stroke-width="0.5" fill="none"></path></g></g><mask></mask><g stroke-linecap="round"><g transform="translate(563 10) rotate(0 4 128)"><path d="M0 0 C1.33 42.67, 6.67 213.33, 8 256 M0 0 C1.33 42.67, 6.67 213.33, 8 256" stroke="#1e1e1e" stroke-width="0.5" fill="none"></path></g></g><mask></mask><g stroke-linecap="round"><g transform="translate(374 267) rotate(0 98.5 -1.5)"><path d="M0 0 C32.83 -0.5, 164.17 -2.5, 197 -3 M0 0 C32.83 -0.5, 164.17 -2.5, 197 -3" stroke="#1e1e1e" stroke-width="0.5" fill="none"></path></g></g><mask></mask><g transform="translate(416 221) rotate(0 10 22.5)" stroke="none"><path fill="#2f9e44" d="M 0.34,-0.69 Q 0.34,-0.69 1.57,-0.26 2.79,0.15 3.97,1.01 5.14,1.86 5.99,2.87 6.84,3.88 7.49,4.90 8.14,5.92 8.73,7.28 9.32,8.63 10.10,9.96 10.88,11.30 11.79,12.73 12.70,14.17 13.40,15.39 14.09,16.61 14.70,18.04 15.31,19.48 15.86,20.95 16.40,22.42 16.92,23.91 17.43,25.40 17.95,27.21 18.47,29.02 18.70,30.73 18.94,32.43 19.30,33.60 19.65,34.77 19.84,36.27 20.02,37.78 20.35,38.84 20.69,39.90 20.85,40.75 21.02,41.59 20.31,43.47 19.59,45.35 19.50,45.40 19.41,45.46 19.31,45.48 19.20,45.50 19.10,45.49 18.99,45.48 18.90,45.44 18.80,45.39 18.72,45.32 18.65,45.25 18.60,45.15 18.55,45.06 18.53,44.95 18.51,44.85 18.53,44.74 18.55,44.64 18.60,44.54 18.65,44.45 18.72,44.38 18.80,44.30 18.90,44.26 18.99,44.22 19.10,44.20 19.20,44.19 19.31,44.21 19.41,44.24 19.50,44.29 19.59,44.35 19.66,44.43 19.73,44.51 19.77,44.61 19.81,44.71 19.82,44.81 19.82,44.92 19.79,45.02 19.76,45.12 19.70,45.21 19.64,45.30 19.56,45.36 19.48,45.43 19.38,45.46 19.27,45.50 19.17,45.50 19.06,45.50 18.96,45.46 18.86,45.43 18.78,45.36 18.69,45.30 18.63,45.21 18.57,45.12 18.54,45.02 18.52,44.92 18.52,44.81 18.53,44.71 18.57,44.61 18.61,44.51 18.67,44.43 18.74,44.35 18.74,44.35 18.74,44.35 18.63,43.21 18.52,42.08 18.39,41.36 18.25,40.64 17.87,39.36 17.49,38.08 17.35,36.78 17.22,35.49 16.82,34.13 16.42,32.77 16.22,31.24 16.03,29.71 15.53,27.97 15.04,26.23 14.53,24.76 14.02,23.30 13.50,21.88 12.98,20.46 12.44,19.15 11.90,17.85 11.24,16.68 10.58,15.51 9.65,14.02 8.72,12.54 7.89,11.07 7.06,9.59 6.57,8.40 6.07,7.21 5.52,6.29 4.96,5.38 4.33,4.54 3.70,3.71 2.75,2.92 1.80,2.14 0.72,1.41 -0.34,0.69 -0.42,0.63 -0.50,0.58 -0.56,0.51 -0.62,0.45 -0.67,0.36 -0.71,0.28 -0.74,0.19 -0.76,0.10 -0.76,0.01 -0.76,-0.07 -0.74,-0.16 -0.72,-0.25 -0.68,-0.34 -0.64,-0.42 -0.58,-0.49 -0.52,-0.56 -0.44,-0.62 -0.37,-0.67 -0.28,-0.71 -0.19,-0.74 -0.10,-0.75 -0.01,-0.77 0.07,-0.76 0.17,-0.75 0.25,-0.72 0.34,-0.69 0.34,-0.69 L 0.34,-0.69 Z"></path></g><g transform="translate(407 237) rotate(0 -3.5 12.5)" stroke="none"><path fill="#2f9e44" d="M 0.27,0.83 Q 0.27,0.83 -0.44,1.37 -1.17,1.91 -1.57,2.98 -1.97,4.05 -2.43,5.31 -2.89,6.58 -3.66,8.84 -4.43,11.11 -4.73,12.83 -5.03,14.55 -5.17,16.13 -5.30,17.70 -5.37,19.22 -5.44,20.75 -5.56,21.79 -5.69,22.84 -4.83,22.37 -3.97,21.90 -3.50,20.98 -3.03,20.05 -2.83,18.89 -2.63,17.73 -2.53,16.91 -2.44,16.09 -2.42,15.52 -2.39,14.95 -3.13,14.45 -3.86,13.95 -4.65,13.66 -5.43,13.36 -5.49,13.31 -5.55,13.25 -5.59,13.18 -5.63,13.12 -5.65,13.04 -5.68,12.97 -5.68,12.89 -5.69,12.81 -5.68,12.73 -5.66,12.65 -5.63,12.58 -5.60,12.51 -5.55,12.44 -5.50,12.38 -5.44,12.33 -5.38,12.28 -5.31,12.25 -5.24,12.22 -5.16,12.20 -5.08,12.18 -5.00,12.19 -4.92,12.19 -4.85,12.22 -4.77,12.24 -4.70,12.28 -4.63,12.32 -4.51,12.61 -4.38,12.90 -4.40,13.00 -4.43,13.10 -4.49,13.19 -4.55,13.28 -4.63,13.35 -4.71,13.41 -4.81,13.45 -4.91,13.49 -5.02,13.49 -5.12,13.49 -5.23,13.46 -5.33,13.43 -5.41,13.36 -5.50,13.30 -5.56,13.22 -5.62,13.13 -5.65,13.03 -5.68,12.93 -5.68,12.82 -5.68,12.71 -5.64,12.61 -5.60,12.51 -5.54,12.43 -5.47,12.35 -5.38,12.29 -5.29,12.24 -5.19,12.21 -5.08,12.19 -4.98,12.19 -4.87,12.20 -4.77,12.25 -4.68,12.29 -4.60,12.36 -4.52,12.43 -4.47,12.52 -4.42,12.62 -4.40,12.72 -4.38,12.82 -4.39,12.93 -4.41,13.03 -4.45,13.13 -4.50,13.22 -4.58,13.30 -4.65,13.37 -4.75,13.42 -4.84,13.47 -4.95,13.48 -5.05,13.50 -5.16,13.48 -5.26,13.46 -5.35,13.40 -5.45,13.35 -5.52,13.27 -5.59,13.19 -5.63,13.09 -5.67,13.00 -5.55,13.18 -5.43,13.36 -5.49,13.31 -5.55,13.25 -5.59,13.18 -5.63,13.12 -5.65,13.04 -5.68,12.97 -5.68,12.89 -5.69,12.81 -5.68,12.73 -5.66,12.65 -5.63,12.58 -5.60,12.51 -5.55,12.44 -5.50,12.38 -5.44,12.33 -5.38,12.28 -5.31,12.25 -5.24,12.22 -5.16,12.20 -5.08,12.18 -5.00,12.19 -4.92,12.19 -4.85,12.22 -4.77,12.24 -4.70,12.28 -4.63,12.32 -3.36,11.96 -2.09,11.59 -1.23,12.38 -0.36,13.16 -0.05,14.07 0.25,14.97 0.18,15.70 0.11,16.43 -0.02,17.32 -0.15,18.22 -0.48,19.73 -0.81,21.25 -1.60,22.56 -2.38,23.87 -3.46,24.61 -4.53,25.35 -5.45,25.34 -6.36,25.33 -7.30,24.41 -8.23,23.49 -8.30,22.06 -8.38,20.63 -8.32,19.04 -8.27,17.44 -8.13,15.73 -7.98,14.02 -7.62,12.08 -7.26,10.15 -6.48,7.85 -5.70,5.56 -5.20,4.22 -4.71,2.88 -4.14,1.65 -3.57,0.42 -2.92,-0.17 -2.27,-0.76 -1.27,-0.79 -0.27,-0.83 -0.17,-0.85 -0.07,-0.87 0.03,-0.86 0.14,-0.86 0.24,-0.83 0.34,-0.80 0.43,-0.75 0.52,-0.70 0.60,-0.62 0.67,-0.55 0.73,-0.46 0.79,-0.37 0.82,-0.27 0.85,-0.17 0.86,-0.06 0.87,0.03 0.85,0.13 0.84,0.24 0.79,0.34 0.75,0.43 0.69,0.52 0.63,0.60 0.54,0.67 0.46,0.74 0.37,0.78 0.27,0.83 0.27,0.83 L 0.27,0.83 Z"></path></g><g transform="translate(416 243) rotate(0 -1.5 6)" stroke="none"><path fill="#2f9e44" d="M -0.35,0.71 Q -0.35,0.71 -1.09,0.76 -1.83,0.81 -2.70,0.67 -3.58,0.52 -4.47,2.36 -5.36,4.20 -5.66,6.13 -5.96,8.07 -6.13,10.06 -6.30,12.05 -6.12,13.30 -5.94,14.56 -5.74,15.06 -5.54,15.55 -4.50,15.30 -3.46,15.04 -2.56,13.99 -1.66,12.94 -0.63,11.38 0.39,9.82 1.42,8.01 2.45,6.20 2.83,4.14 3.20,2.07 3.08,0.72 2.96,-0.63 2.37,-1.62 1.78,-2.62 1.27,-3.33 0.76,-4.04 -0.32,-3.99 -1.40,-3.95 -1.44,-4.02 -1.47,-4.09 -1.49,-4.16 -1.51,-4.24 -1.51,-4.32 -1.51,-4.40 -1.49,-4.48 -1.47,-4.55 -1.43,-4.62 -1.40,-4.69 -1.34,-4.75 -1.29,-4.81 -1.23,-4.86 -1.16,-4.90 -1.09,-4.93 -1.01,-4.96 -0.93,-4.96 -0.86,-4.97 -0.78,-4.96 -0.70,-4.95 -0.62,-4.93 -0.55,-4.90 -0.49,-4.85 -0.42,-4.81 -0.37,-4.75 -0.32,-4.69 -0.34,-4.28 -0.37,-3.88 -0.45,-3.82 -0.53,-3.75 -0.63,-3.71 -0.73,-3.67 -0.84,-3.67 -0.94,-3.67 -1.04,-3.70 -1.15,-3.73 -1.23,-3.79 -1.32,-3.85 -1.38,-3.94 -1.45,-4.02 -1.48,-4.12 -1.51,-4.22 -1.51,-4.33 -1.50,-4.44 -1.47,-4.54 -1.43,-4.64 -1.37,-4.72 -1.30,-4.80 -1.21,-4.86 -1.12,-4.92 -1.02,-4.95 -0.92,-4.97 -0.81,-4.96 -0.71,-4.96 -0.61,-4.91 -0.51,-4.87 -0.43,-4.80 -0.35,-4.73 -0.30,-4.64 -0.24,-4.55 -0.22,-4.44 -0.20,-4.34 -0.22,-4.23 -0.23,-4.13 -0.28,-4.03 -0.32,-3.94 -0.40,-3.86 -0.47,-3.79 -0.57,-3.74 -0.66,-3.69 -0.77,-3.68 -0.87,-3.66 -0.98,-3.68 -1.08,-3.70 -1.17,-3.75 -1.27,-3.80 -1.34,-3.88 -1.41,-3.96 -1.45,-4.06 -1.50,-4.15 -1.50,-4.26 -1.51,-4.37 -1.49,-4.47 -1.46,-4.57 -1.43,-4.26 -1.40,-3.95 -1.44,-4.02 -1.47,-4.09 -1.49,-4.16 -1.51,-4.24 -1.51,-4.32 -1.51,-4.40 -1.49,-4.48 -1.47,-4.55 -1.43,-4.62 -1.40,-4.69 -1.34,-4.75 -1.29,-4.81 -1.23,-4.86 -1.16,-4.90 -1.09,-4.93 -1.01,-4.96 -0.93,-4.96 -0.86,-4.97 -0.78,-4.96 -0.70,-4.95 -0.62,-4.93 -0.55,-4.90 -0.49,-4.85 -0.42,-4.81 -0.37,-4.75 -0.32,-4.69 1.27,-5.12 2.86,-5.56 3.45,-4.66 4.04,-3.76 4.68,-2.31 5.33,-0.86 5.41,0.82 5.49,2.50 4.99,4.90 4.49,7.29 3.45,9.21 2.41,11.12 1.29,12.91 0.16,14.69 -1.30,16.10 -2.77,17.51 -4.60,17.64 -6.43,17.76 -7.57,16.45 -8.71,15.14 -8.97,13.49 -9.24,11.85 -9.11,9.71 -8.97,7.57 -8.56,5.21 -8.14,2.84 -7.14,0.94 -6.13,-0.95 -5.09,-1.66 -4.04,-2.37 -2.95,-2.35 -1.86,-2.34 -1.16,-2.15 -0.46,-1.96 -0.05,-1.34 0.35,-0.71 0.44,-0.66 0.52,-0.61 0.58,-0.54 0.65,-0.46 0.69,-0.38 0.74,-0.30 0.77,-0.20 0.79,-0.11 0.79,-0.01 0.80,0.08 0.77,0.17 0.75,0.27 0.71,0.35 0.67,0.44 0.60,0.51 0.54,0.59 0.46,0.64 0.38,0.70 0.29,0.74 0.20,0.77 0.11,0.79 0.01,0.80 -0.08,0.79 -0.17,0.78 -0.26,0.75 -0.35,0.71 -0.35,0.71 L -0.35,0.71 Z"></path></g><g transform="translate(541 39) rotate(0 10 12.5)" stroke="none"><path fill="#2f9e44" d="M 0.72,0.18 Q 0.72,0.18 0.72,1.40 0.72,2.62 0.62,3.87 0.52,5.12 0.48,6.80 0.43,8.49 0.41,10.07 0.39,11.65 0.66,13.67 0.93,15.68 1.58,17.28 2.23,18.87 2.98,19.72 3.73,20.57 4.79,21.15 5.85,21.74 7.94,22.27 10.02,22.80 12.03,23.07 14.04,23.34 15.74,23.62 17.44,23.90 18.82,23.70 20.20,23.51 20.30,23.50 20.41,23.49 20.51,23.52 20.61,23.55 20.70,23.61 20.79,23.66 20.86,23.75 20.92,23.83 20.96,23.93 20.99,24.03 20.99,24.14 20.99,24.24 20.96,24.35 20.93,24.45 20.87,24.53 20.80,24.62 20.72,24.68 20.63,24.74 20.53,24.77 20.42,24.80 20.32,24.79 20.21,24.79 20.11,24.75 20.01,24.71 19.93,24.65 19.85,24.58 19.79,24.49 19.74,24.40 19.71,24.29 19.69,24.19 19.70,24.08 19.71,23.98 19.75,23.88 19.80,23.79 19.87,23.71 19.94,23.63 20.03,23.58 20.13,23.53 20.23,23.51 20.34,23.49 20.44,23.51 20.55,23.52 20.64,23.57 20.74,23.62 20.81,23.70 20.88,23.77 20.93,23.87 20.98,23.96 20.99,24.07 21.00,24.17 20.98,24.28 20.96,24.38 20.90,24.47 20.85,24.57 20.77,24.64 20.69,24.71 20.59,24.75 20.49,24.79 20.49,24.79 20.49,24.79 18.92,25.28 17.35,25.77 15.54,25.84 13.73,25.90 11.53,25.67 9.32,25.43 6.91,24.76 4.49,24.10 3.09,23.23 1.69,22.36 0.70,21.13 -0.28,19.91 -1.02,17.98 -1.76,16.05 -2.04,13.84 -2.32,11.62 -2.30,10.01 -2.28,8.41 -2.22,6.64 -2.16,4.88 -2.01,3.42 -1.87,1.97 -1.29,0.89 -0.72,-0.18 -0.69,-0.26 -0.66,-0.34 -0.60,-0.42 -0.55,-0.49 -0.49,-0.55 -0.42,-0.61 -0.34,-0.65 -0.26,-0.69 -0.17,-0.72 -0.08,-0.74 0.00,-0.74 0.09,-0.74 0.17,-0.71 0.26,-0.69 0.34,-0.65 0.42,-0.61 0.49,-0.55 0.56,-0.49 0.61,-0.41 0.66,-0.34 0.69,-0.26 0.72,-0.17 0.73,-0.08 0.74,0.00 0.73,0.09 0.72,0.18 0.72,0.18 L 0.72,0.18 Z"></path></g><g transform="translate(549 39) rotate(0 1 6.5)" stroke="none"><path fill="#2f9e44" d="M -0.36,-0.72 Q -0.36,-0.72 0.16,-1.13 0.68,-1.54 1.75,-1.70 2.83,-1.85 3.62,-1.21 4.41,-0.56 4.39,0.35 4.38,1.26 3.97,2.02 3.55,2.78 3.07,3.39 2.59,3.99 2.11,4.52 1.62,5.05 2.37,5.82 3.13,6.59 3.47,7.23 3.81,7.88 3.93,8.48 4.06,9.09 4.06,10.07 4.07,11.04 3.40,11.98 2.74,12.91 2.19,13.49 1.65,14.06 0.13,13.83 -1.39,13.60 -1.45,13.65 -1.51,13.70 -1.58,13.74 -1.65,13.77 -1.73,13.79 -1.81,13.80 -1.88,13.80 -1.96,13.80 -2.04,13.78 -2.12,13.75 -2.18,13.71 -2.25,13.68 -2.31,13.62 -2.37,13.57 -2.41,13.50 -2.45,13.43 -2.48,13.36 -2.50,13.28 -2.51,13.20 -2.52,13.12 -2.50,13.05 -2.49,12.97 -2.46,12.90 -2.43,12.82 -2.38,12.76 -2.34,12.70 -2.40,13.05 -2.47,13.40 -2.49,13.30 -2.52,13.19 -2.51,13.09 -2.50,12.98 -2.45,12.89 -2.41,12.79 -2.34,12.71 -2.27,12.63 -2.17,12.58 -2.08,12.53 -1.97,12.51 -1.87,12.49 -1.76,12.51 -1.66,12.52 -1.56,12.57 -1.47,12.62 -1.40,12.70 -1.32,12.77 -1.28,12.87 -1.23,12.96 -1.22,13.07 -1.20,13.18 -1.23,13.28 -1.25,13.38 -1.30,13.48 -1.35,13.57 -1.43,13.64 -1.51,13.71 -1.61,13.75 -1.71,13.79 -1.82,13.80 -1.92,13.80 -2.02,13.78 -2.13,13.75 -2.22,13.69 -2.31,13.63 -2.37,13.55 -2.44,13.46 -2.47,13.36 -2.51,13.26 -2.51,13.16 -2.51,13.05 -2.48,12.95 -2.44,12.85 -2.38,12.76 -2.32,12.68 -2.23,12.62 -2.14,12.56 -2.04,12.53 -1.94,12.50 -1.83,12.50 -1.73,12.51 -1.63,12.54 -1.53,12.58 -1.45,12.65 -1.37,12.72 -1.38,13.16 -1.39,13.60 -1.45,13.65 -1.51,13.70 -1.58,13.74 -1.65,13.77 -1.73,13.79 -1.81,13.80 -1.88,13.80 -1.96,13.80 -2.04,13.78 -2.12,13.75 -2.18,13.71 -2.25,13.68 -2.31,13.62 -2.37,13.57 -2.41,13.50 -2.45,13.43 -2.48,13.36 -2.50,13.28 -2.51,13.20 -2.52,13.12 -2.50,13.05 -2.49,12.97 -2.46,12.90 -2.43,12.82 -2.38,12.76 -2.34,12.70 -1.21,12.50 -0.09,12.30 0.40,11.77 0.91,11.25 1.36,10.95 1.82,10.65 1.72,9.72 1.62,8.79 1.24,8.24 0.86,7.69 0.29,7.25 -0.28,6.82 -0.55,5.93 -0.82,5.05 -0.52,4.24 -0.22,3.42 0.23,2.93 0.68,2.43 1.07,1.97 1.46,1.51 2.10,0.86 2.74,0.22 2.18,0.30 1.61,0.39 0.98,0.55 0.36,0.72 0.27,0.75 0.17,0.78 0.08,0.79 -0.01,0.80 -0.11,0.79 -0.20,0.78 -0.29,0.74 -0.39,0.70 -0.46,0.65 -0.54,0.59 -0.61,0.52 -0.67,0.44 -0.71,0.35 -0.76,0.27 -0.78,0.17 -0.80,0.08 -0.80,-0.01 -0.80,-0.11 -0.77,-0.20 -0.75,-0.30 -0.70,-0.38 -0.65,-0.47 -0.59,-0.54 -0.52,-0.61 -0.44,-0.67 -0.36,-0.72 -0.36,-0.72 L -0.36,-0.72 Z"></path></g><g transform="translate(558 42) rotate(0 0.5 3.5)" stroke="none"><path fill="#2f9e44" d="M 0.26,0.79 Q 0.26,0.79 -0.41,1.32 -1.09,1.85 -1.44,2.59 -1.78,3.32 -1.97,4.36 -2.16,5.41 -2.28,6.72 -2.40,8.03 -2.64,8.85 -2.89,9.66 -1.68,9.22 -0.48,8.79 0.41,7.54 1.30,6.28 1.98,4.92 2.67,3.56 2.92,1.98 3.17,0.39 3.01,-0.71 2.85,-1.82 1.30,-2.33 -0.25,-2.85 -0.28,-2.92 -0.31,-2.99 -0.33,-3.07 -0.34,-3.14 -0.34,-3.22 -0.34,-3.30 -0.31,-3.38 -0.29,-3.45 -0.25,-3.52 -0.21,-3.59 -0.16,-3.65 -0.10,-3.70 -0.03,-3.75 0.02,-3.79 0.10,-3.81 0.17,-3.84 0.25,-3.84 0.33,-3.85 0.41,-3.84 0.49,-3.82 0.56,-3.79 0.63,-3.76 0.70,-3.71 0.76,-3.66 0.81,-3.60 0.86,-3.54 0.66,-3.05 0.46,-2.56 0.36,-2.55 0.25,-2.54 0.15,-2.56 0.04,-2.59 -0.04,-2.65 -0.13,-2.70 -0.19,-2.79 -0.26,-2.87 -0.30,-2.97 -0.33,-3.07 -0.34,-3.17 -0.34,-3.28 -0.31,-3.38 -0.28,-3.48 -0.22,-3.57 -0.15,-3.66 -0.07,-3.72 0.01,-3.78 0.11,-3.81 0.21,-3.84 0.32,-3.84 0.42,-3.84 0.52,-3.80 0.62,-3.77 0.71,-3.70 0.79,-3.63 0.85,-3.54 0.90,-3.45 0.93,-3.35 0.96,-3.25 0.95,-3.14 0.94,-3.04 0.90,-2.94 0.86,-2.84 0.79,-2.76 0.71,-2.68 0.62,-2.63 0.53,-2.58 0.43,-2.56 0.32,-2.54 0.22,-2.55 0.11,-2.56 0.02,-2.61 -0.07,-2.66 -0.14,-2.73 -0.22,-2.81 -0.27,-2.90 -0.32,-3.00 -0.33,-3.10 -0.34,-3.21 -0.32,-3.31 -0.31,-3.42 -0.25,-3.51 -0.20,-3.60 -0.12,-3.67 -0.04,-3.74 -0.14,-3.30 -0.25,-2.85 -0.28,-2.92 -0.31,-2.99 -0.33,-3.07 -0.34,-3.14 -0.34,-3.22 -0.34,-3.30 -0.31,-3.38 -0.29,-3.45 -0.25,-3.52 -0.21,-3.59 -0.16,-3.65 -0.10,-3.70 -0.03,-3.75 0.02,-3.79 0.10,-3.81 0.17,-3.84 0.25,-3.84 0.33,-3.85 0.41,-3.84 0.49,-3.82 0.56,-3.79 0.63,-3.76 0.70,-3.71 0.76,-3.66 0.81,-3.60 0.86,-3.54 2.79,-3.72 4.72,-3.91 5.15,-3.08 5.59,-2.25 5.73,-0.70 5.88,0.84 5.49,2.81 5.10,4.77 4.28,6.35 3.46,7.93 2.16,9.52 0.87,11.12 -0.71,11.78 -2.29,12.45 -3.62,11.66 -4.95,10.87 -5.10,9.33 -5.24,7.80 -5.12,6.30 -5.00,4.79 -4.64,3.28 -4.27,1.76 -3.31,0.52 -2.35,-0.70 -1.31,-0.74 -0.26,-0.79 -0.16,-0.81 -0.06,-0.83 0.03,-0.82 0.13,-0.82 0.23,-0.79 0.32,-0.76 0.41,-0.71 0.50,-0.66 0.57,-0.59 0.64,-0.52 0.70,-0.44 0.75,-0.35 0.78,-0.26 0.81,-0.16 0.82,-0.06 0.83,0.03 0.81,0.13 0.80,0.23 0.76,0.32 0.72,0.41 0.66,0.49 0.60,0.57 0.52,0.64 0.44,0.70 0.35,0.74 0.26,0.79 0.26,0.79 L 0.26,0.79 Z"></path></g><g transform="translate(491 279) rotate(0 0.5 11)" stroke="none"><path fill="#2f9e44" d="M 0.85,0 Q 0.85,0 1.33,1.14 1.81,2.29 2.10,4.09 2.38,5.88 2.52,8.51 2.66,11.15 2.72,13.40 2.77,15.65 1.80,17.87 0.83,20.09 0.82,20.17 0.81,20.25 0.79,20.32 0.76,20.40 0.72,20.46 0.67,20.53 0.62,20.58 0.56,20.64 0.49,20.68 0.42,20.72 0.34,20.74 0.27,20.76 0.19,20.76 0.11,20.76 0.03,20.74 -0.04,20.73 -0.11,20.69 -0.18,20.66 -0.24,20.60 -0.30,20.55 -0.34,20.49 -0.39,20.43 -0.42,20.35 -0.45,20.28 -0.46,20.20 -0.47,20.12 -0.40,20.32 -0.33,20.52 -0.38,20.43 -0.43,20.34 -0.45,20.23 -0.47,20.13 -0.46,20.02 -0.45,19.92 -0.40,19.82 -0.35,19.73 -0.28,19.65 -0.20,19.58 -0.11,19.53 -0.02,19.48 0.08,19.47 0.19,19.45 0.29,19.47 0.39,19.49 0.49,19.54 0.58,19.59 0.65,19.67 0.72,19.75 0.77,19.85 0.81,19.94 0.82,20.05 0.83,20.15 0.80,20.26 0.78,20.36 0.72,20.45 0.67,20.54 0.58,20.61 0.50,20.68 0.40,20.71 0.30,20.75 0.20,20.75 0.09,20.76 -0.00,20.73 -0.10,20.70 -0.19,20.64 -0.28,20.57 -0.34,20.49 -0.40,20.40 -0.43,20.30 -0.47,20.20 -0.46,20.09 -0.46,19.99 -0.43,19.89 -0.39,19.79 -0.33,19.71 -0.26,19.62 -0.17,19.56 -0.08,19.51 0.01,19.48 0.11,19.45 0.22,19.46 0.33,19.47 0.42,19.51 0.52,19.55 0.68,19.82 0.83,20.09 0.82,20.17 0.81,20.25 0.79,20.32 0.76,20.40 0.72,20.46 0.67,20.53 0.62,20.58 0.56,20.64 0.49,20.68 0.42,20.72 0.34,20.74 0.27,20.76 0.19,20.76 0.11,20.76 0.03,20.74 -0.04,20.73 -0.11,20.69 -0.18,20.66 -0.24,20.60 -0.30,20.55 -0.34,20.49 -0.39,20.43 -0.42,20.35 -0.45,20.28 -0.46,20.20 -0.47,20.12 -0.70,17.93 -0.93,15.74 -0.97,13.53 -1.02,11.32 -1.13,8.87 -1.23,6.42 -1.52,4.36 -1.81,2.30 -1.33,1.15 -0.85,0 -0.84,-0.10 -0.83,-0.20 -0.79,-0.30 -0.76,-0.39 -0.70,-0.48 -0.64,-0.56 -0.56,-0.63 -0.48,-0.70 -0.39,-0.75 -0.30,-0.80 -0.20,-0.82 -0.10,-0.85 0.00,-0.85 0.10,-0.85 0.20,-0.82 0.30,-0.80 0.39,-0.75 0.48,-0.70 0.56,-0.63 0.64,-0.56 0.70,-0.48 0.76,-0.39 0.79,-0.30 0.83,-0.20 0.84,-0.10 0.85,0.00 0.85,0.00 L 0.85,0 Z"></path></g><g transform="translate(434 124) rotate(0 9 7.5)" stroke="none"><path fill="#2f9e44" d="M -0.67,-0.67 Q -0.67,-0.67 0.34,-1.95 1.37,-3.22 2.16,-4.02 2.96,-4.81 4.09,-5.28 5.22,-5.75 6.92,-5.93 8.63,-6.11 9.87,-5.82 11.11,-5.52 12.13,-4.29 13.15,-3.07 13.26,-1.72 13.37,-0.37 12.44,1.50 11.50,3.37 9.87,5.05 8.25,6.74 6.74,8.25 5.23,9.77 3.35,11.07 1.47,12.36 0.58,13.59 -0.30,14.83 -1.02,15.38 -1.74,15.94 -1.06,16.64 -0.37,17.33 0.78,17.29 1.93,17.24 4.14,17.02 6.36,16.80 9.37,16.59 12.39,16.37 16.35,16.81 20.32,17.26 20.42,17.28 20.52,17.30 20.62,17.36 20.71,17.41 20.78,17.49 20.85,17.57 20.89,17.67 20.93,17.77 20.93,17.88 20.94,17.98 20.91,18.08 20.88,18.19 20.83,18.28 20.77,18.36 20.68,18.43 20.60,18.49 20.50,18.53 20.40,18.56 20.29,18.56 20.18,18.56 20.08,18.53 19.98,18.50 19.90,18.43 19.81,18.37 19.75,18.28 19.69,18.20 19.66,18.09 19.63,17.99 19.64,17.89 19.64,17.78 19.68,17.68 19.72,17.58 19.79,17.50 19.86,17.42 19.95,17.36 20.04,17.31 20.14,17.28 20.25,17.26 20.35,17.27 20.46,17.28 20.55,17.33 20.65,17.37 20.73,17.44 20.81,17.51 20.86,17.61 20.91,17.70 20.92,17.81 20.94,17.91 20.93,18.02 20.91,18.12 20.86,18.21 20.81,18.31 20.74,18.38 20.66,18.46 20.56,18.50 20.47,18.55 20.36,18.56 20.26,18.57 20.26,18.57 20.26,18.57 16.47,18.66 12.68,18.74 9.66,19.29 6.64,19.83 4.12,20.04 1.61,20.25 -0.24,19.88 -2.10,19.50 -3.09,18.06 -4.08,16.61 -3.33,14.85 -2.59,13.08 -1.38,11.56 -0.17,10.03 1.52,8.89 3.21,7.75 4.72,6.24 6.23,4.73 7.63,3.36 9.03,1.98 9.82,0.72 10.61,-0.53 10.71,-1.14 10.81,-1.76 10.45,-2.45 10.10,-3.15 9.46,-3.30 8.82,-3.46 7.46,-3.36 6.10,-3.26 5.42,-3.07 4.74,-2.89 3.98,-2.13 3.22,-1.37 1.95,-0.34 0.67,0.67 0.58,0.74 0.49,0.81 0.38,0.86 0.28,0.90 0.17,0.93 0.05,0.95 -0.05,0.94 -0.17,0.93 -0.28,0.90 -0.39,0.86 -0.48,0.80 -0.58,0.75 -0.66,0.66 -0.75,0.58 -0.80,0.48 -0.86,0.39 -0.90,0.28 -0.93,0.17 -0.94,0.05 -0.95,-0.05 -0.93,-0.17 -0.90,-0.28 -0.86,-0.38 -0.81,-0.49 -0.74,-0.58 -0.67,-0.67 -0.67,-0.67 L -0.67,-0.67 Z"></path></g><g transform="translate(581 158) rotate(0 24 -13.5)" stroke="none"><path fill="#2f9e44" d="M 0.52,-0.87 Q 0.52,-0.87 2.15,-0.27 3.77,0.32 4.90,1.75 6.03,3.18 7.00,4.59 7.97,5.99 8.69,7.20 9.42,8.41 9.81,9.03 10.21,9.65 10.60,9.78 11.00,9.91 11.10,10.09 11.20,10.27 11.26,10.46 11.31,10.66 11.32,10.87 11.33,11.07 11.29,11.27 11.24,11.48 11.16,11.66 11.07,11.85 10.94,12.01 10.81,12.16 10.64,12.29 10.48,12.41 10.29,12.49 10.10,12.57 9.89,12.60 9.69,12.63 9.49,12.62 9.28,12.60 9.09,12.53 8.89,12.47 8.72,12.36 8.54,12.25 8.40,12.10 8.26,11.95 7.92,10.13 7.59,8.31 7.52,4.45 7.45,0.60 7.42,-3.59 7.39,-7.79 7.67,-12.22 7.94,-16.64 8.35,-19.99 8.76,-23.33 9.53,-26.01 10.30,-28.69 10.60,-30.28 10.89,-31.86 11.37,-33.06 11.84,-34.25 12.53,-34.99 13.23,-35.73 14.34,-36.10 15.45,-36.47 16.91,-36.85 18.38,-37.22 20.59,-37.41 22.80,-37.60 25.35,-37.96 27.90,-38.31 31.01,-38.75 34.13,-39.19 37.46,-39.65 40.80,-40.11 43.37,-39.00 45.93,-37.88 46.01,-37.88 46.09,-37.88 46.17,-37.87 46.25,-37.85 46.32,-37.81 46.39,-37.78 46.45,-37.73 46.51,-37.67 46.56,-37.61 46.60,-37.55 46.63,-37.47 46.66,-37.40 46.67,-37.32 46.68,-37.24 46.67,-37.16 46.67,-37.09 46.64,-37.01 46.61,-36.94 46.57,-36.87 46.53,-36.80 46.47,-36.75 46.41,-36.70 46.34,-36.66 46.27,-36.62 46.19,-36.60 46.12,-36.58 46.37,-36.76 46.62,-36.94 46.55,-36.85 46.49,-36.77 46.41,-36.70 46.32,-36.64 46.22,-36.61 46.12,-36.58 46.01,-36.58 45.90,-36.58 45.80,-36.62 45.70,-36.66 45.62,-36.72 45.54,-36.79 45.48,-36.88 45.42,-36.97 45.40,-37.07 45.37,-37.17 45.38,-37.28 45.39,-37.39 45.43,-37.48 45.47,-37.58 45.54,-37.66 45.61,-37.74 45.71,-37.79 45.80,-37.85 45.90,-37.87 46.01,-37.89 46.11,-37.87 46.22,-37.86 46.31,-37.81 46.41,-37.76 46.48,-37.69 46.56,-37.61 46.61,-37.52 46.65,-37.42 46.67,-37.32 46.68,-37.21 46.66,-37.11 46.64,-37.01 46.59,-36.91 46.54,-36.82 46.46,-36.75 46.38,-36.68 46.28,-36.64 46.19,-36.59 46.08,-36.58 45.97,-36.57 45.87,-36.60 45.77,-36.63 45.68,-36.68 45.59,-36.74 45.52,-36.82 45.46,-36.90 45.42,-37.00 45.38,-37.10 45.38,-37.21 45.38,-37.32 45.65,-37.60 45.93,-37.88 46.01,-37.88 46.09,-37.88 46.17,-37.87 46.25,-37.85 46.32,-37.81 46.39,-37.78 46.45,-37.73 46.51,-37.67 46.56,-37.61 46.60,-37.55 46.63,-37.47 46.66,-37.40 46.67,-37.32 46.68,-37.24 46.67,-37.16 46.67,-37.09 46.64,-37.01 46.61,-36.94 46.57,-36.87 46.53,-36.80 46.47,-36.75 46.41,-36.70 46.34,-36.66 46.27,-36.62 46.19,-36.60 46.12,-36.58 43.72,-36.53 41.32,-36.48 37.98,-35.99 34.64,-35.51 31.52,-35.07 28.40,-34.64 25.74,-34.28 23.08,-33.93 21.16,-33.81 19.24,-33.69 17.75,-33.34 16.25,-32.99 15.58,-32.90 14.90,-32.81 14.53,-32.01 14.16,-31.22 13.82,-29.49 13.48,-27.76 12.76,-25.34 12.04,-22.92 11.64,-19.68 11.24,-16.44 10.97,-12.13 10.69,-7.82 10.73,-3.64 10.77,0.53 10.86,4.20 10.94,7.88 10.97,8.89 11.00,9.91 11.10,10.09 11.20,10.27 11.26,10.46 11.31,10.66 11.32,10.87 11.33,11.07 11.29,11.27 11.24,11.48 11.16,11.66 11.07,11.85 10.94,12.01 10.81,12.16 10.64,12.29 10.48,12.41 10.29,12.49 10.10,12.57 9.89,12.60 9.69,12.63 9.49,12.62 9.28,12.60 9.09,12.53 8.89,12.47 8.72,12.36 8.54,12.25 8.40,12.10 8.26,11.95 8.16,11.99 8.06,12.03 7.29,11.09 6.52,10.14 5.86,9.02 5.19,7.91 4.25,6.54 3.31,5.17 2.64,4.15 1.97,3.12 0.72,2.00 -0.52,0.87 -0.62,0.80 -0.71,0.72 -0.79,0.62 -0.87,0.53 -0.92,0.41 -0.97,0.30 -0.99,0.18 -1.01,0.06 -1.01,-0.05 -1.00,-0.18 -0.96,-0.29 -0.93,-0.41 -0.86,-0.52 -0.80,-0.62 -0.71,-0.71 -0.63,-0.80 -0.52,-0.86 -0.42,-0.93 -0.30,-0.96 -0.18,-1.00 -0.06,-1.01 0.05,-1.01 0.17,-0.99 0.30,-0.97 0.41,-0.92 0.52,-0.87 0.52,-0.87 L 0.52,-0.87 Z"></path></g><g transform="translate(610 134) rotate(0 -1 13.5)" stroke="none"><path fill="#2f9e44" d="M 0,-0.92 Q 0,-0.92 1.15,-1.17 2.31,-1.43 3.55,-1.13 4.80,-0.82 5.47,-0.72 6.14,-0.61 6.84,-0.49 7.53,-0.38 8.22,0.51 8.92,1.41 8.80,2.21 8.68,3.00 8.22,3.63 7.76,4.27 7.06,5.29 6.36,6.31 5.80,7.28 5.24,8.25 5.06,9.04 4.89,9.82 5.07,10.52 5.25,11.22 5.53,11.70 5.81,12.19 6.35,12.55 6.90,12.91 7.83,13.78 8.77,14.64 9.29,15.46 9.81,16.28 10.08,17.39 10.34,18.50 10.13,19.75 9.91,21.00 9.15,22.50 8.39,24.00 6.41,25.39 4.43,26.78 2.29,27.29 0.15,27.80 -2.22,27.76 -4.60,27.71 -7.21,27.65 -9.82,27.60 -9.93,27.59 -10.04,27.57 -10.13,27.53 -10.23,27.48 -10.30,27.41 -10.38,27.34 -10.43,27.24 -10.48,27.15 -10.50,27.04 -10.51,26.94 -10.49,26.83 -10.48,26.73 -10.43,26.63 -10.38,26.54 -10.30,26.47 -10.22,26.40 -10.12,26.35 -10.03,26.31 -9.92,26.30 -9.82,26.29 -9.71,26.31 -9.61,26.33 -9.52,26.39 -9.43,26.44 -9.36,26.53 -9.29,26.61 -9.25,26.71 -9.21,26.80 -9.21,26.91 -9.20,27.02 -9.23,27.12 -9.26,27.22 -9.32,27.31 -9.38,27.40 -9.47,27.46 -9.55,27.52 -9.65,27.56 -9.75,27.59 -9.86,27.59 -9.97,27.59 -10.07,27.55 -10.17,27.52 -10.25,27.45 -10.34,27.39 -10.39,27.30 -10.45,27.21 -10.48,27.11 -10.51,27.01 -10.50,26.90 -10.50,26.80 -10.46,26.70 -10.42,26.60 -10.35,26.52 -10.28,26.44 -10.19,26.38 -10.09,26.33 -9.99,26.31 -9.89,26.29 -9.89,26.29 -9.89,26.29 -7.33,25.99 -4.78,25.69 -2.68,25.24 -0.59,24.79 1.03,24.36 2.65,23.93 4.11,23.10 5.57,22.27 6.15,21.25 6.73,20.22 6.95,19.61 7.17,18.99 6.89,17.94 6.61,16.90 5.77,16.12 4.94,15.33 4.02,14.51 3.11,13.69 2.66,12.75 2.20,11.80 2.03,10.49 1.85,9.18 2.19,7.94 2.52,6.71 3.15,5.62 3.78,4.54 4.72,3.39 5.66,2.25 4.85,2.11 4.04,1.97 3.16,1.70 2.28,1.43 1.14,1.17 0,0.92 -0.11,0.91 -0.22,0.89 -0.32,0.85 -0.42,0.81 -0.52,0.75 -0.61,0.69 -0.68,0.60 -0.76,0.52 -0.81,0.42 -0.86,0.32 -0.89,0.21 -0.91,0.11 -0.91,-0.00 -0.91,-0.11 -0.89,-0.21 -0.86,-0.32 -0.81,-0.42 -0.76,-0.52 -0.68,-0.60 -0.61,-0.69 -0.52,-0.75 -0.42,-0.81 -0.32,-0.85 -0.22,-0.89 -0.11,-0.91 0.00,-0.92 0.00,-0.92 L 0,-0.92 Z"></path></g></svg>