<svg version="1.1" xmlns="http://www.w3.org/2000/svg" viewBox="0 0 664 670" width="664" height="670" filter="invert(93%) hue-rotate(180deg)" class="excalidraw-svg"><!-- svg-source:excalidraw --><metadata></metadata><defs><style class="style-fonts">
      </style></defs><rect x="0" y="0" width="664" height="670" fill="transparent"></rect><g transform="translate(74 146) rotate(0 290 -39)" stroke="none"><path fill="#CECDCC" d="M -2.12,0 Q -2.12,0 -2.12,-0.86 -2.11,-1.72 -2.10,-2.43 -2.08,-3.13 -1.69,-4.12 -1.30,-5.11 -0.54,-6.31 0.20,-7.50 2.11,-9.31 4.01,-11.12 6.23,-12.99 8.45,-14.85 10.90,-16.55 13.34,-18.24 16.23,-19.59 19.11,-20.94 23.24,-22.37 27.38,-23.80 31.44,-24.97 35.51,-26.14 39.31,-26.93 43.10,-27.72 46.96,-28.61 50.83,-29.50 54.77,-30.45 58.71,-31.39 63.29,-32.37 67.88,-33.34 71.56,-34.03 75.24,-34.73 78.61,-35.03 81.98,-35.33 85.15,-35.45 88.31,-35.57 92.25,-35.61 96.19,-35.65 99.87,-35.66 103.55,-35.67 107.20,-35.38 110.84,-35.09 114.85,-35.24 118.86,-35.40 123.21,-35.46 127.56,-35.51 133.11,-35.81 138.66,-36.11 143.89,-36.51 149.12,-36.91 154.54,-37.07 159.97,-37.24 166.31,-37.29 172.64,-37.34 180.79,-37.35 188.95,-37.35 195.86,-37.34 202.77,-37.33 209.16,-37.31 215.55,-37.29 222.29,-37.27 229.03,-37.25 235.63,-37.23 242.24,-37.21 251.38,-36.89 260.53,-36.57 268.74,-36.13 276.94,-35.69 284.75,-34.91 292.57,-34.13 300.77,-33.21 308.98,-32.28 319.63,-31.58 330.27,-30.87 340.27,-30.27 350.26,-29.66 359.95,-29.67 369.63,-29.68 379.50,-29.95 389.37,-30.22 403.03,-31.74 416.70,-33.26 429.11,-35.60 441.53,-37.94 453.42,-40.93 465.31,-43.91 477.27,-47.16 489.24,-50.42 500.94,-53.79 512.65,-57.17 527.12,-61.44 541.59,-65.71 552.63,-69.24 563.68,-72.76 568.37,-74.26 573.06,-75.77 573.06,-75.76 573.06,-75.76 573.07,-75.75 573.07,-75.75 568.38,-74.22 563.70,-72.69 552.68,-69.09 541.66,-65.49 527.22,-61.11 512.77,-56.73 501.09,-53.27 489.41,-49.81 477.46,-46.47 465.51,-43.13 453.61,-40.05 441.72,-36.98 429.27,-34.54 416.83,-32.10 403.12,-30.48 389.41,-28.86 379.53,-28.52 369.64,-28.18 359.90,-28.10 350.17,-28.02 340.17,-28.55 330.16,-29.09 319.47,-29.72 308.77,-30.35 300.57,-31.21 292.37,-32.08 284.60,-32.79 276.83,-33.51 268.65,-33.89 260.46,-34.27 251.35,-34.53 242.24,-34.78 235.63,-34.76 229.03,-34.73 222.29,-34.70 215.55,-34.68 209.17,-34.65 202.78,-34.62 195.87,-34.58 188.96,-34.54 180.82,-34.48 172.68,-34.42 166.37,-34.32 160.07,-34.22 154.72,-34.03 149.36,-33.83 144.10,-33.39 138.84,-32.94 133.23,-32.60 127.62,-32.26 123.30,-32.18 118.99,-32.09 114.79,-31.91 110.58,-31.73 107.08,-31.99 103.57,-32.25 99.90,-32.21 96.23,-32.18 92.35,-32.11 88.46,-32.04 85.38,-31.91 82.31,-31.77 79.12,-31.47 75.93,-31.17 72.29,-30.46 68.65,-29.74 64.13,-28.75 59.60,-27.75 55.65,-26.78 51.69,-25.80 47.79,-24.87 43.90,-23.95 40.25,-23.16 36.61,-22.38 32.65,-21.21 28.68,-20.04 24.75,-18.66 20.81,-17.28 18.24,-16.09 15.66,-14.89 13.39,-13.30 11.11,-11.70 8.98,-9.89 6.85,-8.08 5.29,-6.66 3.73,-5.23 2.90,-4.08 2.08,-2.92 2.10,-2.32 2.11,-1.72 2.12,-0.86 2.12,0 2.09,0.25 2.06,0.50 1.97,0.74 1.88,0.98 1.73,1.19 1.59,1.40 1.39,1.57 1.20,1.74 0.98,1.86 0.75,1.98 0.50,2.04 0.25,2.10 -0.00,2.10 -0.25,2.10 -0.50,2.04 -0.75,1.98 -0.98,1.86 -1.20,1.74 -1.39,1.57 -1.59,1.40 -1.73,1.19 -1.88,0.98 -1.97,0.74 -2.06,0.50 -2.09,0.25 -2.12,-0.00 -2.12,-0.00 L -2.12,0 Z"></path></g><g transform="translate(119 120) rotate(0 -0.5 -0.5)" stroke="none"><path fill="#CECDCC" d="M -0.58,-0.56 Q -0.58,-0.56 -0.57,-0.57 -0.57,-0.57 -0.57,-0.57 -0.56,-0.58 -0.49,-0.64 -0.41,-0.70 -0.32,-0.74 -0.23,-0.77 -0.13,-0.79 -0.03,-0.81 0.05,-0.80 0.15,-0.79 0.24,-0.76 0.34,-0.73 0.42,-0.68 0.50,-0.63 0.57,-0.56 0.64,-0.49 0.69,-0.40 0.74,-0.32 0.77,-0.23 0.80,-0.13 0.80,-0.03 0.81,0.05 0.79,0.15 0.77,0.25 0.73,0.34 0.69,0.42 0.62,0.50 0.56,0.58 -0.00,0.00 L -0.58,-0.56 Z"></path></g><g stroke-linecap="round" transform="translate(95 209) rotate(0 188 180)"><path d="M376 180 C376 184.28, 375.84 188.57, 375.52 192.84 C375.2 197.11, 374.72 201.38, 374.09 205.62 C373.45 209.85, 372.65 214.08, 371.7 218.26 C370.75 222.44, 369.64 226.6, 368.38 230.71 C367.13 234.82, 365.71 238.89, 364.15 242.9 C362.58 246.91, 360.87 250.88, 359.01 254.77 C357.15 258.67, 355.15 262.51, 353 266.26 C350.86 270.02, 348.57 273.71, 346.16 277.32 C343.74 280.92, 341.18 284.44, 338.5 287.87 C335.82 291.3, 333.01 294.64, 330.08 297.87 C327.15 301.11, 324.1 304.25, 320.94 307.28 C317.77 310.31, 314.49 313.23, 311.11 316.03 C307.74 318.84, 304.24 321.53, 300.66 324.1 C297.09 326.66, 293.4 329.11, 289.64 331.43 C285.88 333.74, 282.02 335.93, 278.1 337.98 C274.18 340.03, 270.16 341.96, 266.1 343.73 C262.03 345.51, 257.89 347.16, 253.7 348.65 C249.51 350.15, 245.26 351.5, 240.97 352.71 C236.68 353.91, 232.33 354.98, 227.96 355.89 C223.59 356.8, 219.18 357.56, 214.76 358.17 C210.33 358.78, 205.87 359.24, 201.41 359.54 C196.95 359.85, 192.47 360, 188 360 C183.53 360, 179.05 359.85, 174.59 359.54 C170.13 359.24, 165.67 358.78, 161.24 358.17 C156.82 357.56, 152.41 356.8, 148.04 355.89 C143.67 354.98, 139.32 353.91, 135.03 352.71 C130.74 351.5, 126.49 350.15, 122.3 348.65 C118.11 347.16, 113.97 345.51, 109.9 343.73 C105.84 341.96, 101.82 340.03, 97.9 337.98 C93.98 335.93, 90.12 333.74, 86.36 331.43 C82.6 329.11, 78.91 326.66, 75.34 324.1 C71.76 321.53, 68.26 318.84, 64.89 316.03 C61.51 313.23, 58.23 310.31, 55.06 307.28 C51.9 304.25, 48.85 301.11, 45.92 297.87 C42.99 294.64, 40.18 291.3, 37.5 287.87 C34.82 284.44, 32.26 280.92, 29.84 277.32 C27.43 273.71, 25.14 270.02, 23 266.26 C20.85 262.51, 18.85 258.67, 16.99 254.77 C15.13 250.88, 13.42 246.91, 11.85 242.9 C10.29 238.89, 8.87 234.82, 7.62 230.71 C6.36 226.6, 5.25 222.44, 4.3 218.26 C3.35 214.08, 2.55 209.85, 1.91 205.62 C1.28 201.38, 0.8 197.11, 0.48 192.84 C0.16 188.57, 0 184.28, 0 180 C0 175.72, 0.16 171.43, 0.48 167.16 C0.8 162.89, 1.28 158.62, 1.91 154.38 C2.55 150.15, 3.35 145.92, 4.3 141.74 C5.25 137.56, 6.36 133.4, 7.62 129.29 C8.87 125.18, 10.29 121.11, 11.85 117.1 C13.42 113.09, 15.13 109.12, 16.99 105.23 C18.85 101.33, 20.85 97.49, 23 93.74 C25.14 89.98, 27.43 86.29, 29.84 82.68 C32.26 79.08, 34.82 75.56, 37.5 72.13 C40.18 68.7, 42.99 65.36, 45.92 62.13 C48.85 58.89, 51.9 55.75, 55.06 52.72 C58.23 49.69, 61.51 46.77, 64.89 43.97 C68.26 41.16, 71.76 38.47, 75.34 35.9 C78.91 33.34, 82.6 30.89, 86.36 28.57 C90.12 26.26, 93.98 24.07, 97.9 22.02 C101.82 19.97, 105.84 18.04, 109.9 16.27 C113.97 14.49, 118.11 12.84, 122.3 11.35 C126.49 9.85, 130.74 8.5, 135.03 7.29 C139.32 6.09, 143.67 5.02, 148.04 4.11 C152.41 3.2, 156.82 2.44, 161.24 1.83 C165.67 1.22, 170.13 0.76, 174.59 0.46 C179.05 0.15, 183.53 0, 188 0 C192.47 0, 196.95 0.15, 201.41 0.46 C205.87 0.76, 210.33 1.22, 214.76 1.83 C219.18 2.44, 223.59 3.2, 227.96 4.11 C232.33 5.02, 236.68 6.09, 240.97 7.29 C245.26 8.5, 249.51 9.85, 253.7 11.35 C257.89 12.84, 262.03 14.49, 266.1 16.27 C270.16 18.04, 274.18 19.97, 278.1 22.02 C282.02 24.07, 285.88 26.26, 289.64 28.57 C293.4 30.89, 297.09 33.34, 300.66 35.9 C304.24 38.47, 307.74 41.16, 311.11 43.97 C314.49 46.77, 317.77 49.69, 320.94 52.72 C324.1 55.75, 327.15 58.89, 330.08 62.13 C333.01 65.36, 335.82 68.7, 338.5 72.13 C341.18 75.56, 343.74 79.08, 346.16 82.68 C348.57 86.29, 350.86 89.98, 353 93.74 C355.15 97.49, 357.15 101.33, 359.01 105.23 C360.87 109.12, 362.58 113.09, 364.15 117.1 C365.71 121.11, 367.13 125.18, 368.38 129.29 C369.64 133.4, 370.75 137.56, 371.7 141.74 C372.65 145.92, 373.45 150.15, 374.09 154.38 C374.72 158.62, 375.2 162.89, 375.52 167.16 C375.84 171.43, 376 175.72, 376 180" stroke="#000000" stroke-width="0.5" fill="none"></path></g><g stroke-linecap="round"><g transform="translate(285 160) rotate(0 1.5 250)"><path d="M0 0 C0.5 83.33, 2.5 416.67, 3 500 M0 0 C0.5 83.33, 2.5 416.67, 3 500" stroke="#000000" stroke-width="0.5" fill="none"></path></g></g><mask></mask><g stroke-linecap="round"><g transform="translate(10 390) rotate(0 277 -3)"><path d="M0 0 C92.33 -1, 461.67 -5, 554 -6 M0 0 C92.33 -1, 461.67 -5, 554 -6" stroke="#000000" stroke-width="0.5" fill="none"></path></g></g><mask></mask><g transform="translate(475 375) rotate(0 -1.5 10.5)" stroke="none"><path fill="#000000" d="M 0.97,0 Q 0.97,0 1.33,1.43 1.69,2.87 1.39,4.77 1.10,6.66 0.99,8.76 0.87,10.86 0.49,13.02 0.10,15.18 -1.03,18.00 -2.18,20.81 -2.24,20.90 -2.30,20.98 -2.39,21.05 -2.47,21.11 -2.57,21.14 -2.67,21.18 -2.78,21.18 -2.89,21.18 -2.99,21.14 -3.09,21.11 -3.17,21.04 -3.26,20.98 -3.31,20.89 -3.37,20.80 -3.40,20.70 -3.43,20.60 -3.42,20.49 -3.42,20.38 -3.38,20.29 -3.34,20.19 -3.27,20.11 -3.20,20.03 -3.11,19.97 -3.02,19.92 -2.91,19.90 -2.81,19.87 -2.70,19.89 -2.60,19.90 -2.50,19.94 -2.40,19.99 -2.33,20.06 -2.25,20.13 -2.20,20.23 -2.15,20.32 -2.14,20.43 -2.12,20.53 -2.14,20.64 -2.15,20.74 -2.21,20.84 -2.26,20.93 -2.33,21.00 -2.41,21.07 -2.51,21.12 -2.60,21.16 -2.71,21.17 -2.82,21.18 -2.92,21.16 -3.02,21.14 -3.11,21.08 -3.20,21.03 -3.27,20.95 -3.34,20.86 -3.38,20.76 -3.42,20.67 -3.42,20.56 -3.43,20.45 -3.40,20.35 -3.37,20.25 -3.37,20.25 -3.37,20.25 -3.23,17.45 -3.10,14.66 -2.81,12.66 -2.51,10.67 -2.38,8.39 -2.25,6.12 -1.97,4.49 -1.69,2.87 -1.33,1.43 -0.97,0 -0.96,-0.11 -0.95,-0.23 -0.90,-0.34 -0.86,-0.45 -0.79,-0.55 -0.73,-0.64 -0.64,-0.72 -0.55,-0.80 -0.45,-0.86 -0.34,-0.91 -0.23,-0.94 -0.11,-0.97 0.00,-0.97 0.11,-0.97 0.23,-0.94 0.34,-0.91 0.45,-0.86 0.55,-0.80 0.64,-0.72 0.73,-0.64 0.79,-0.55 0.86,-0.45 0.90,-0.34 0.95,-0.23 0.96,-0.11 0.97,0.00 0.97,0.00 L 0.97,0 Z"></path></g><g transform="translate(482 399) rotate(0 3.5 4)" stroke="none"><path fill="#000000" d="M -0.52,-0.52 Q -0.52,-0.52 0.13,-1.59 0.78,-2.66 1.72,-3.60 2.66,-4.54 4.27,-5.24 5.88,-5.94 6.60,-4.29 7.31,-2.64 7.38,-1.00 7.44,0.62 7.74,2.03 8.04,3.43 8.19,5.62 8.34,7.81 7.99,10.34 7.64,12.87 7.64,12.97 7.63,13.08 7.59,13.18 7.55,13.28 7.48,13.36 7.41,13.44 7.32,13.49 7.23,13.54 7.12,13.57 7.02,13.59 6.91,13.58 6.81,13.56 6.71,13.52 6.62,13.47 6.54,13.40 6.46,13.33 6.41,13.23 6.37,13.14 6.35,13.03 6.33,12.93 6.35,12.82 6.37,12.72 6.42,12.63 6.47,12.53 6.55,12.46 6.62,12.39 6.72,12.34 6.82,12.30 6.92,12.29 7.03,12.28 7.13,12.30 7.24,12.32 7.33,12.38 7.42,12.44 7.49,12.52 7.55,12.60 7.59,12.70 7.63,12.80 7.64,12.90 7.64,13.01 7.61,13.11 7.58,13.21 7.52,13.30 7.46,13.39 7.38,13.45 7.29,13.52 7.19,13.55 7.09,13.58 6.98,13.58 6.88,13.58 6.78,13.55 6.68,13.51 6.59,13.45 6.51,13.38 6.45,13.29 6.39,13.20 6.36,13.10 6.34,13.00 6.34,13.00 6.34,13.00 5.80,10.50 5.26,8.01 5.14,6.02 5.03,4.04 4.71,2.39 4.39,0.73 4.35,-0.76 4.31,-2.26 4.19,-3.14 4.08,-4.01 4.31,-3.34 4.54,-2.66 3.60,-1.72 2.66,-0.78 1.59,-0.13 0.52,0.52 0.45,0.57 0.38,0.62 0.29,0.66 0.21,0.70 0.13,0.71 0.04,0.73 -0.04,0.72 -0.13,0.72 -0.21,0.69 -0.30,0.67 -0.37,0.62 -0.45,0.57 -0.51,0.51 -0.57,0.45 -0.62,0.37 -0.67,0.30 -0.69,0.21 -0.72,0.13 -0.72,0.04 -0.73,-0.04 -0.71,-0.13 -0.70,-0.21 -0.66,-0.29 -0.62,-0.38 -0.57,-0.45 -0.52,-0.52 -0.52,-0.52 L -0.52,-0.52 Z"></path></g><g transform="translate(479 413) rotate(0 8.5 1)" stroke="none"><path fill="#000000" d="M 0.16,-0.84 Q 0.16,-0.84 1.67,-0.91 3.18,-0.98 4.57,-0.88 5.95,-0.79 8.07,-0.41 10.20,-0.04 13.29,0.63 16.39,1.30 16.49,1.32 16.60,1.35 16.69,1.40 16.78,1.46 16.85,1.54 16.91,1.62 16.95,1.72 16.99,1.82 17.00,1.92 17.00,2.03 16.97,2.13 16.94,2.24 16.88,2.32 16.82,2.41 16.74,2.47 16.65,2.54 16.55,2.57 16.45,2.61 16.35,2.60 16.24,2.60 16.14,2.57 16.04,2.53 15.95,2.47 15.87,2.41 15.81,2.32 15.75,2.23 15.72,2.13 15.70,2.02 15.70,1.92 15.71,1.81 15.75,1.71 15.79,1.61 15.86,1.53 15.93,1.45 16.02,1.40 16.11,1.35 16.21,1.32 16.32,1.30 16.42,1.31 16.53,1.32 16.63,1.37 16.72,1.42 16.80,1.49 16.87,1.56 16.92,1.66 16.97,1.75 16.99,1.86 17.01,1.96 16.99,2.06 16.97,2.17 16.92,2.26 16.87,2.36 16.79,2.43 16.72,2.50 16.62,2.55 16.52,2.59 16.42,2.60 16.31,2.61 16.31,2.61 16.31,2.61 13.00,2.82 9.69,3.03 7.69,2.73 5.68,2.43 4.12,2.28 2.56,2.13 1.19,1.48 -0.16,0.84 -0.26,0.80 -0.36,0.77 -0.45,0.72 -0.53,0.66 -0.61,0.59 -0.68,0.51 -0.73,0.42 -0.78,0.33 -0.81,0.23 -0.84,0.14 -0.84,0.03 -0.85,-0.06 -0.83,-0.16 -0.81,-0.26 -0.76,-0.36 -0.72,-0.45 -0.66,-0.53 -0.59,-0.61 -0.51,-0.67 -0.43,-0.74 -0.33,-0.78 -0.24,-0.82 -0.13,-0.83 -0.03,-0.85 0.06,-0.84 0.16,-0.84 0.16,-0.84 L 0.16,-0.84 Z"></path></g><g transform="translate(279 208) rotate(0 5 -1.5)" stroke="none"><path fill="#000000" d="M -0.21,-0.84 Q -0.21,-0.84 0.87,-1.39 1.95,-1.94 3.29,-2.29 4.62,-2.64 6.89,-3.01 9.17,-3.38 9.27,-3.40 9.38,-3.42 9.48,-3.41 9.59,-3.40 9.68,-3.35 9.78,-3.31 9.86,-3.23 9.93,-3.16 9.98,-3.06 10.03,-2.97 10.04,-2.86 10.06,-2.76 10.04,-2.66 10.02,-2.55 9.97,-2.46 9.92,-2.36 9.84,-2.29 9.77,-2.22 9.67,-2.18 9.57,-2.13 9.47,-2.12 9.36,-2.11 9.26,-2.14 9.15,-2.16 9.06,-2.22 8.97,-2.27 8.90,-2.35 8.84,-2.44 8.80,-2.54 8.76,-2.63 8.76,-2.74 8.75,-2.85 8.78,-2.95 8.81,-3.05 8.87,-3.14 8.93,-3.23 9.02,-3.29 9.10,-3.35 9.20,-3.38 9.31,-3.42 9.41,-3.42 9.52,-3.41 9.62,-3.38 9.72,-3.34 9.80,-3.28 9.89,-3.21 9.94,-3.12 10.00,-3.04 10.03,-2.93 10.06,-2.83 10.05,-2.72 10.04,-2.62 10.00,-2.52 9.96,-2.42 9.89,-2.34 9.82,-2.26 9.73,-2.21 9.64,-2.15 9.64,-2.15 9.64,-2.15 7.51,-1.15 5.37,-0.14 4.01,0.32 2.64,0.79 1.42,0.82 0.21,0.84 0.10,0.86 0.00,0.87 -0.10,0.86 -0.20,0.85 -0.30,0.81 -0.40,0.77 -0.49,0.71 -0.57,0.65 -0.64,0.57 -0.71,0.49 -0.76,0.40 -0.81,0.31 -0.84,0.21 -0.86,0.10 -0.86,0.00 -0.86,-0.10 -0.84,-0.20 -0.81,-0.30 -0.77,-0.40 -0.72,-0.49 -0.65,-0.57 -0.58,-0.65 -0.49,-0.71 -0.40,-0.77 -0.31,-0.81 -0.21,-0.84 -0.21,-0.84 L -0.21,-0.84 Z"></path></g><g transform="translate(295 190) rotate(0 4 -1)" stroke="none"><path fill="#000000" d="M -0.63,-0.63 Q -0.63,-0.63 0.34,-1.95 1.32,-3.27 2.38,-4.34 3.44,-5.40 4.14,-6.37 4.84,-7.34 5.06,-7.51 5.27,-7.68 5.40,-7.82 5.52,-7.96 5.68,-8.06 5.84,-8.17 6.01,-8.23 6.19,-8.29 6.37,-8.31 6.56,-8.33 6.75,-8.30 6.93,-8.28 7.11,-8.21 7.28,-8.14 7.43,-8.03 7.58,-7.92 7.71,-7.77 7.83,-7.63 7.91,-7.46 7.99,-7.30 8.04,-7.11 8.08,-6.93 8.07,-6.74 8.07,-6.56 8.02,-6.38 7.97,-6.19 7.88,-6.03 7.79,-5.87 8.08,-5.33 8.37,-4.79 8.43,-3.41 8.50,-2.02 8.52,-0.87 8.54,0.27 8.81,1.13 9.08,2.00 8.85,3.78 8.62,5.56 8.61,5.66 8.60,5.77 8.56,5.87 8.52,5.97 8.45,6.05 8.38,6.13 8.28,6.18 8.19,6.23 8.09,6.25 7.98,6.27 7.88,6.26 7.77,6.25 7.68,6.20 7.58,6.15 7.51,6.08 7.43,6.00 7.38,5.91 7.34,5.82 7.32,5.71 7.30,5.60 7.32,5.50 7.34,5.40 7.39,5.30 7.45,5.21 7.52,5.14 7.60,5.07 7.70,5.02 7.80,4.98 7.90,4.97 8.01,4.96 8.11,4.99 8.22,5.01 8.31,5.07 8.40,5.13 8.46,5.21 8.53,5.29 8.57,5.39 8.61,5.49 8.61,5.59 8.61,5.70 8.58,5.80 8.55,5.90 8.49,5.99 8.43,6.08 8.34,6.14 8.26,6.20 8.16,6.24 8.05,6.27 7.95,6.27 7.84,6.26 7.74,6.23 7.64,6.19 7.56,6.13 7.48,6.06 7.42,5.97 7.36,5.88 7.33,5.78 7.31,5.68 7.31,5.68 7.31,5.68 6.67,4.27 6.03,2.86 5.70,1.61 5.37,0.36 5.35,-0.76 5.32,-1.88 5.28,-3.15 5.23,-4.41 5.25,-6.05 5.27,-7.68 5.40,-7.82 5.52,-7.96 5.68,-8.06 5.84,-8.17 6.01,-8.23 6.19,-8.29 6.37,-8.31 6.56,-8.33 6.75,-8.30 6.93,-8.28 7.11,-8.21 7.28,-8.14 7.43,-8.03 7.58,-7.92 7.71,-7.77 7.83,-7.63 7.91,-7.46 7.99,-7.30 8.04,-7.11 8.08,-6.93 8.07,-6.74 8.07,-6.56 8.02,-6.38 7.97,-6.19 7.88,-6.03 7.79,-5.87 7.38,-5.74 6.96,-5.61 6.18,-4.53 5.40,-3.44 4.34,-2.38 3.27,-1.32 1.95,-0.34 0.63,0.63 0.55,0.70 0.46,0.76 0.36,0.81 0.26,0.85 0.16,0.87 0.05,0.89 -0.05,0.89 -0.16,0.88 -0.26,0.85 -0.36,0.82 -0.46,0.76 -0.55,0.70 -0.63,0.63 -0.70,0.55 -0.76,0.46 -0.82,0.36 -0.85,0.26 -0.88,0.16 -0.89,0.05 -0.89,-0.05 -0.87,-0.16 -0.85,-0.26 -0.81,-0.36 -0.76,-0.46 -0.70,-0.55 -0.63,-0.63 -0.63,-0.63 L -0.63,-0.63 Z"></path></g><g transform="translate(295 198) rotate(0 6.5 1.5)" stroke="none"><path fill="#000000" d="M 0,-0.90 Q 0,-0.90 1.15,-1.22 2.30,-1.54 3.81,-1.24 5.32,-0.94 6.94,-0.83 8.56,-0.72 10.80,0.74 13.05,2.21 13.12,2.28 13.19,2.36 13.24,2.46 13.28,2.55 13.29,2.66 13.30,2.77 13.28,2.87 13.25,2.97 13.20,3.06 13.14,3.15 13.06,3.22 12.98,3.29 12.88,3.33 12.78,3.37 12.67,3.37 12.57,3.38 12.47,3.35 12.36,3.32 12.28,3.26 12.19,3.20 12.13,3.11 12.06,3.03 12.03,2.92 12.00,2.82 12.00,2.72 12.00,2.61 12.03,2.51 12.07,2.41 12.13,2.33 12.20,2.24 12.29,2.18 12.38,2.12 12.48,2.10 12.58,2.07 12.69,2.08 12.79,2.08 12.89,2.12 12.99,2.16 13.07,2.23 13.15,2.30 13.20,2.40 13.26,2.49 13.28,2.59 13.30,2.70 13.29,2.80 13.28,2.91 13.23,3.00 13.19,3.10 13.11,3.17 13.04,3.25 12.94,3.30 12.85,3.35 12.74,3.36 12.64,3.38 12.53,3.36 12.43,3.34 12.34,3.29 12.24,3.24 12.24,3.24 12.24,3.24 10.29,2.80 8.33,2.36 6.50,2.22 4.68,2.09 3.48,1.81 2.29,1.54 1.14,1.22 0,0.90 -0.10,0.89 -0.21,0.87 -0.31,0.83 -0.42,0.80 -0.51,0.73 -0.60,0.67 -0.67,0.59 -0.74,0.51 -0.79,0.41 -0.84,0.32 -0.87,0.21 -0.89,0.10 -0.89,-0.00 -0.89,-0.10 -0.87,-0.21 -0.84,-0.32 -0.79,-0.41 -0.74,-0.51 -0.67,-0.59 -0.60,-0.67 -0.51,-0.73 -0.42,-0.80 -0.31,-0.83 -0.21,-0.87 -0.10,-0.89 0.00,-0.90 0.00,-0.90 L 0,-0.90 Z"></path></g><g transform="translate(96 380) rotate(0 -2 7)" stroke="none"><path fill="#000000" d="M 0.89,0.14 Q 0.89,0.14 1.01,1.94 1.13,3.73 0.70,5.15 0.26,6.58 0.11,7.84 -0.03,9.11 -1.59,11.58 -3.14,14.06 -3.23,14.12 -3.31,14.19 -3.42,14.22 -3.52,14.25 -3.62,14.25 -3.73,14.25 -3.83,14.21 -3.93,14.18 -4.01,14.11 -4.10,14.05 -4.16,13.96 -4.21,13.87 -4.24,13.77 -4.27,13.67 -4.26,13.56 -4.25,13.45 -4.21,13.36 -4.17,13.26 -4.10,13.18 -4.03,13.10 -3.94,13.04 -3.85,12.99 -3.74,12.97 -3.64,12.95 -3.53,12.96 -3.43,12.97 -3.33,13.02 -3.24,13.07 -3.16,13.14 -3.09,13.21 -3.04,13.31 -2.99,13.40 -2.97,13.51 -2.96,13.61 -2.98,13.72 -2.99,13.82 -3.05,13.92 -3.10,14.01 -3.17,14.08 -3.25,14.15 -3.35,14.20 -3.45,14.24 -3.55,14.25 -3.66,14.26 -3.76,14.23 -3.87,14.21 -3.96,14.15 -4.05,14.10 -4.11,14.02 -4.18,13.93 -4.22,13.84 -4.26,13.74 -4.26,13.63 -4.27,13.52 -4.24,13.42 -4.21,13.32 -4.15,13.23 -4.08,13.15 -4.08,13.15 -4.08,13.15 -3.77,10.92 -3.45,8.69 -3.25,7.12 -3.05,5.55 -2.67,4.35 -2.28,3.16 -1.59,1.50 -0.89,-0.14 -0.86,-0.25 -0.83,-0.36 -0.78,-0.45 -0.72,-0.55 -0.64,-0.62 -0.57,-0.70 -0.48,-0.76 -0.38,-0.82 -0.28,-0.85 -0.17,-0.89 -0.06,-0.90 0.04,-0.91 0.14,-0.89 0.25,-0.87 0.35,-0.83 0.45,-0.78 0.54,-0.72 0.63,-0.65 0.70,-0.56 0.77,-0.48 0.81,-0.38 0.86,-0.28 0.88,-0.17 0.90,-0.06 0.90,0.04 0.89,0.14 0.89,0.14 L 0.89,0.14 Z"></path></g><g transform="translate(67 406) rotate(0 5 -1.5)" stroke="none"><path fill="#000000" d="M -0.26,-0.80 Q -0.26,-0.80 0.43,-1.58 1.13,-2.37 2.24,-2.53 3.36,-2.70 4.40,-2.73 5.44,-2.76 7.38,-2.98 9.31,-3.21 9.39,-3.28 9.48,-3.35 9.58,-3.38 9.67,-3.42 9.78,-3.43 9.89,-3.43 9.99,-3.40 10.09,-3.37 10.18,-3.31 10.26,-3.25 10.33,-3.16 10.39,-3.08 10.42,-2.98 10.46,-2.88 10.45,-2.77 10.45,-2.66 10.42,-2.56 10.38,-2.46 10.32,-2.38 10.25,-2.30 10.16,-2.24 10.07,-2.18 9.97,-2.15 9.87,-2.13 9.76,-2.13 9.65,-2.14 9.56,-2.18 9.46,-2.22 9.38,-2.29 9.30,-2.36 9.25,-2.45 9.19,-2.55 9.17,-2.65 9.15,-2.75 9.16,-2.86 9.18,-2.96 9.22,-3.06 9.27,-3.16 9.34,-3.23 9.42,-3.31 9.51,-3.36 9.61,-3.40 9.71,-3.42 9.82,-3.44 9.92,-3.42 10.03,-3.40 10.12,-3.35 10.21,-3.30 10.28,-3.22 10.36,-3.14 10.40,-3.04 10.44,-2.95 10.45,-2.84 10.46,-2.73 10.44,-2.63 10.41,-2.53 10.36,-2.44 10.30,-2.35 10.30,-2.35 10.30,-2.35 7.98,-0.71 5.67,0.91 4.76,0.99 3.85,1.06 3.08,1.14 2.31,1.22 1.29,1.01 0.26,0.80 0.16,0.82 0.06,0.84 -0.03,0.83 -0.13,0.83 -0.23,0.80 -0.33,0.77 -0.41,0.72 -0.50,0.67 -0.58,0.60 -0.65,0.53 -0.70,0.44 -0.76,0.36 -0.79,0.26 -0.82,0.16 -0.83,0.06 -0.84,-0.03 -0.82,-0.13 -0.81,-0.23 -0.77,-0.32 -0.73,-0.42 -0.66,-0.50 -0.60,-0.58 -0.52,-0.64 -0.45,-0.71 -0.35,-0.75 -0.26,-0.80 -0.26,-0.80 L -0.26,-0.80 Z"></path></g><g transform="translate(81 405) rotate(0 2 3)" stroke="none"><path fill="#000000" d="M -0.78,-0.26 Q -0.78,-0.26 -0.74,-1.20 -0.70,-2.15 0.05,-3.51 0.81,-4.86 1.52,-5.54 2.23,-6.23 2.76,-6.75 3.29,-7.27 3.42,-7.36 3.56,-7.46 3.71,-7.52 3.87,-7.58 4.03,-7.60 4.20,-7.62 4.36,-7.60 4.53,-7.58 4.68,-7.52 4.84,-7.46 4.97,-7.37 5.11,-7.28 5.22,-7.15 5.33,-7.03 5.41,-6.88 5.49,-6.74 5.53,-6.58 5.57,-6.41 5.57,-6.25 5.57,-6.08 5.53,-5.92 5.49,-5.76 5.42,-5.61 5.34,-5.47 5.23,-5.34 5.12,-5.22 5.55,-5.75 5.98,-6.27 6.21,-4.96 6.44,-3.65 6.51,-2.30 6.58,-0.96 6.61,0.46 6.64,1.89 6.66,3.64 6.69,5.40 6.70,7.01 6.71,8.62 5.26,10.32 3.81,12.03 3.80,12.11 3.79,12.19 3.76,12.26 3.73,12.34 3.69,12.40 3.64,12.47 3.58,12.52 3.52,12.57 3.45,12.61 3.38,12.65 3.31,12.67 3.23,12.68 3.15,12.68 3.07,12.68 2.99,12.67 2.92,12.65 2.85,12.61 2.78,12.57 2.72,12.52 2.66,12.47 2.61,12.40 2.57,12.34 2.54,12.27 2.51,12.19 2.50,12.11 2.49,12.03 2.64,12.31 2.80,12.59 2.72,12.52 2.64,12.45 2.58,12.35 2.53,12.26 2.51,12.16 2.49,12.05 2.51,11.95 2.52,11.84 2.57,11.75 2.61,11.65 2.69,11.58 2.76,11.50 2.86,11.45 2.95,11.41 3.06,11.39 3.17,11.38 3.27,11.40 3.37,11.42 3.47,11.47 3.56,11.52 3.63,11.60 3.70,11.68 3.74,11.78 3.79,11.87 3.79,11.98 3.80,12.09 3.78,12.19 3.75,12.29 3.69,12.38 3.64,12.47 3.56,12.54 3.47,12.60 3.37,12.64 3.27,12.68 3.17,12.68 3.06,12.68 2.96,12.65 2.86,12.62 2.77,12.56 2.68,12.50 2.62,12.41 2.56,12.33 2.53,12.22 2.50,12.12 2.50,12.02 2.50,11.91 2.54,11.81 2.58,11.71 2.64,11.63 2.71,11.54 2.80,11.49 2.89,11.43 2.99,11.40 3.09,11.38 3.20,11.39 3.31,11.40 3.56,11.71 3.81,12.03 3.80,12.11 3.79,12.19 3.76,12.26 3.73,12.34 3.69,12.40 3.64,12.47 3.58,12.52 3.52,12.57 3.45,12.61 3.38,12.65 3.31,12.67 3.23,12.68 3.15,12.68 3.07,12.68 2.99,12.67 2.92,12.65 2.85,12.61 2.78,12.57 2.72,12.52 2.66,12.47 2.61,12.40 2.57,12.34 2.54,12.27 2.51,12.19 2.50,12.11 2.49,12.03 2.88,10.33 3.28,8.62 3.28,7.02 3.28,5.41 3.29,3.67 3.30,1.93 3.29,0.53 3.29,-0.86 3.28,-2.10 3.26,-3.34 3.30,-4.06 3.34,-4.77 3.31,-6.02 3.29,-7.27 3.42,-7.36 3.56,-7.46 3.71,-7.52 3.87,-7.58 4.03,-7.60 4.20,-7.62 4.36,-7.60 4.53,-7.58 4.68,-7.52 4.84,-7.46 4.97,-7.37 5.11,-7.28 5.22,-7.15 5.33,-7.03 5.41,-6.88 5.49,-6.74 5.53,-6.58 5.57,-6.41 5.57,-6.25 5.57,-6.08 5.53,-5.92 5.49,-5.76 5.42,-5.61 5.34,-5.47 5.23,-5.34 5.12,-5.22 4.58,-4.72 4.03,-4.22 3.58,-3.86 3.12,-3.50 2.48,-2.39 1.85,-1.29 1.31,-0.51 0.78,0.26 0.74,0.35 0.70,0.44 0.63,0.52 0.57,0.59 0.49,0.65 0.41,0.71 0.32,0.75 0.23,0.79 0.13,0.81 0.03,0.82 -0.06,0.82 -0.16,0.81 -0.26,0.78 -0.35,0.74 -0.43,0.69 -0.52,0.64 -0.59,0.57 -0.66,0.49 -0.71,0.41 -0.76,0.32 -0.79,0.22 -0.81,0.13 -0.82,0.03 -0.82,-0.06 -0.80,-0.16 -0.78,-0.26 -0.78,-0.26 L -0.78,-0.26 Z"></path></g><g transform="translate(76 421) rotate(0 6.5 1.5)" stroke="none"><path fill="#000000" d="M 0.25,-0.76 Q 0.25,-0.76 1.23,-0.84 2.22,-0.92 2.77,-0.84 3.32,-0.76 4.36,-0.74 5.39,-0.72 6.88,-0.39 8.37,-0.05 10.50,1.05 12.63,2.16 12.72,2.21 12.81,2.27 12.89,2.35 12.96,2.42 13.00,2.52 13.04,2.62 13.05,2.73 13.06,2.83 13.03,2.93 13.01,3.04 12.95,3.13 12.89,3.22 12.81,3.28 12.73,3.35 12.63,3.39 12.53,3.42 12.42,3.43 12.32,3.43 12.22,3.40 12.11,3.37 12.03,3.31 11.94,3.24 11.88,3.16 11.82,3.07 11.78,2.97 11.75,2.87 11.76,2.76 11.76,2.66 11.80,2.56 11.83,2.46 11.90,2.37 11.96,2.29 12.05,2.23 12.14,2.18 12.25,2.15 12.35,2.12 12.46,2.13 12.56,2.14 12.66,2.18 12.76,2.23 12.84,2.30 12.92,2.37 12.97,2.46 13.02,2.55 13.04,2.66 13.06,2.76 13.05,2.87 13.03,2.97 12.99,3.07 12.94,3.16 12.86,3.24 12.79,3.31 12.69,3.36 12.60,3.41 12.49,3.42 12.39,3.44 12.28,3.42 12.18,3.40 12.18,3.40 12.18,3.40 9.91,3.26 7.64,3.13 6.43,2.85 5.23,2.57 3.98,2.49 2.73,2.40 1.98,2.23 1.22,2.07 0.48,1.41 -0.25,0.76 -0.34,0.72 -0.42,0.67 -0.50,0.61 -0.57,0.55 -0.63,0.47 -0.69,0.40 -0.73,0.31 -0.77,0.22 -0.78,0.12 -0.80,0.03 -0.79,-0.06 -0.78,-0.16 -0.75,-0.25 -0.72,-0.34 -0.67,-0.42 -0.62,-0.50 -0.55,-0.57 -0.48,-0.64 -0.39,-0.69 -0.31,-0.73 -0.22,-0.76 -0.12,-0.79 -0.03,-0.79 0.06,-0.80 0.15,-0.78 0.25,-0.76 0.25,-0.76 L 0.25,-0.76 Z"></path></g><g transform="translate(279 569) rotate(0 7.5 0)" stroke="none"><path fill="#000000" d="M -0.24,-0.72 Q -0.24,-0.72 0.42,-1.60 1.08,-2.49 2.34,-2.90 3.60,-3.31 5.36,-3.25 7.12,-3.18 8.71,-2.82 10.31,-2.46 11.82,-1.02 13.34,0.41 13.41,0.44 13.49,0.46 13.55,0.51 13.62,0.55 13.67,0.61 13.72,0.67 13.76,0.74 13.80,0.81 13.82,0.89 13.84,0.96 13.84,1.04 13.84,1.12 13.82,1.20 13.81,1.27 13.77,1.34 13.73,1.42 13.68,1.48 13.63,1.54 13.57,1.58 13.50,1.63 13.43,1.66 13.35,1.69 13.28,1.70 13.20,1.71 13.12,1.70 13.04,1.69 12.93,1.64 12.82,1.59 12.74,1.52 12.66,1.44 12.61,1.35 12.56,1.26 12.55,1.15 12.53,1.05 12.55,0.94 12.57,0.84 12.62,0.74 12.67,0.65 12.75,0.58 12.82,0.50 12.92,0.46 13.02,0.42 13.12,0.41 13.23,0.39 13.33,0.42 13.44,0.44 13.53,0.50 13.62,0.55 13.69,0.63 13.75,0.72 13.79,0.81 13.83,0.91 13.84,1.02 13.84,1.13 13.81,1.23 13.78,1.33 13.72,1.42 13.66,1.50 13.58,1.57 13.49,1.63 13.39,1.67 13.29,1.70 13.18,1.70 13.08,1.70 12.98,1.66 12.88,1.63 12.79,1.56 12.71,1.50 12.65,1.41 12.59,1.32 12.56,1.22 12.54,1.12 12.54,1.01 12.55,0.90 12.59,0.81 12.63,0.71 12.70,0.63 12.77,0.55 12.86,0.49 12.95,0.44 13.05,0.42 13.16,0.39 13.26,0.41 13.37,0.42 13.35,0.41 13.34,0.41 13.41,0.44 13.49,0.46 13.55,0.51 13.62,0.55 13.67,0.61 13.72,0.67 13.76,0.74 13.80,0.81 13.82,0.88 13.84,0.96 13.84,1.04 13.84,1.12 13.82,1.20 13.81,1.27 13.77,1.34 13.73,1.42 13.68,1.48 13.63,1.54 13.57,1.58 13.50,1.63 13.43,1.66 13.35,1.69 13.28,1.70 13.20,1.71 13.12,1.70 13.04,1.69 11.22,1.58 9.39,1.47 8.09,1.15 6.78,0.84 5.77,0.68 4.75,0.53 3.56,0.93 2.36,1.34 1.30,1.03 0.24,0.72 0.15,0.74 0.06,0.76 -0.03,0.75 -0.12,0.75 -0.21,0.72 -0.29,0.70 -0.37,0.65 -0.45,0.60 -0.52,0.54 -0.59,0.48 -0.64,0.40 -0.68,0.32 -0.71,0.23 -0.74,0.15 -0.75,0.06 -0.76,-0.03 -0.74,-0.12 -0.73,-0.21 -0.69,-0.29 -0.66,-0.38 -0.60,-0.45 -0.55,-0.52 -0.47,-0.58 -0.40,-0.64 -0.32,-0.68 -0.24,-0.72 -0.24,-0.72 L -0.24,-0.72 Z"></path></g><g transform="translate(297 582) rotate(0 2 0)" stroke="none"><path fill="#000000" d="M 0,-0.92 Q 0,-0.92 2.32,-0.79 4.64,-0.65 4.74,-0.63 4.85,-0.62 4.94,-0.57 5.04,-0.52 5.11,-0.44 5.18,-0.36 5.23,-0.27 5.27,-0.17 5.28,-0.07 5.30,0.03 5.27,0.13 5.25,0.24 5.19,0.33 5.14,0.42 5.06,0.49 4.98,0.56 4.88,0.60 4.78,0.64 4.67,0.64 4.57,0.65 4.47,0.62 4.36,0.59 4.28,0.53 4.19,0.47 4.12,0.39 4.06,0.30 4.03,0.20 3.99,0.10 3.99,-0.00 3.99,-0.10 4.03,-0.20 4.06,-0.30 4.12,-0.39 4.19,-0.47 4.28,-0.53 4.36,-0.59 4.47,-0.62 4.57,-0.65 4.67,-0.64 4.78,-0.64 4.88,-0.60 4.98,-0.56 5.06,-0.49 5.14,-0.42 5.20,-0.33 5.25,-0.24 5.27,-0.13 5.30,-0.03 5.28,0.07 5.27,0.17 5.23,0.27 5.18,0.36 5.11,0.44 5.04,0.52 4.94,0.57 4.85,0.62 4.74,0.63 4.64,0.65 4.64,0.65 4.64,0.65 2.32,0.79 0,0.92 -0.11,0.91 -0.22,0.90 -0.32,0.86 -0.43,0.82 -0.52,0.75 -0.61,0.69 -0.69,0.61 -0.76,0.52 -0.81,0.42 -0.86,0.32 -0.89,0.22 -0.92,0.11 -0.92,-0.00 -0.92,-0.11 -0.89,-0.22 -0.86,-0.32 -0.81,-0.42 -0.76,-0.52 -0.69,-0.61 -0.61,-0.69 -0.52,-0.75 -0.43,-0.82 -0.32,-0.86 -0.22,-0.90 -0.11,-0.91 0.00,-0.92 0.00,-0.92 L 0,-0.92 Z"></path></g><g transform="translate(308 581) rotate(0 5 1)" stroke="none"><path fill="#000000" d="M -0.80,-0.40 Q -0.80,-0.40 -0.40,-1.65 -0.00,-2.90 1.48,-4.44 2.98,-5.98 3.85,-6.86 4.72,-7.73 5.53,-8.22 6.33,-8.71 7.76,-8.62 9.19,-8.54 9.63,-7.97 10.07,-7.40 10.27,-6.39 10.47,-5.38 10.78,-4.64 11.08,-3.89 11.29,-0.98 11.50,1.93 11.56,3.67 11.62,5.40 10.62,7.35 9.62,9.30 9.54,9.36 9.45,9.42 9.35,9.45 9.25,9.48 9.14,9.47 9.03,9.47 8.93,9.43 8.84,9.39 8.75,9.32 8.67,9.26 8.62,9.17 8.56,9.08 8.54,8.97 8.51,8.87 8.52,8.76 8.53,8.66 8.58,8.56 8.62,8.46 8.69,8.39 8.77,8.31 8.86,8.26 8.95,8.21 9.06,8.19 9.16,8.17 9.27,8.19 9.37,8.20 9.47,8.25 9.56,8.30 9.64,8.38 9.71,8.45 9.75,8.55 9.80,8.65 9.81,8.75 9.82,8.86 9.80,8.96 9.78,9.06 9.73,9.16 9.67,9.25 9.59,9.32 9.51,9.39 9.41,9.43 9.32,9.47 9.21,9.47 9.10,9.48 9.00,9.45 8.90,9.43 8.81,9.37 8.72,9.31 8.66,9.22 8.59,9.14 8.56,9.04 8.52,8.94 8.52,8.83 8.52,8.73 8.55,8.63 8.59,8.52 8.65,8.44 8.71,8.35 8.71,8.35 8.71,8.35 8.45,6.94 8.19,5.52 8.14,3.81 8.08,2.11 8.00,-0.33 7.93,-2.79 7.57,-3.87 7.21,-4.94 7.46,-5.57 7.70,-6.20 7.18,-5.96 6.66,-5.71 5.78,-4.86 4.89,-4.01 3.60,-2.85 2.30,-1.69 1.55,-0.64 0.80,0.40 0.74,0.49 0.68,0.58 0.60,0.65 0.52,0.73 0.43,0.78 0.33,0.83 0.23,0.86 0.12,0.89 0.01,0.89 -0.09,0.89 -0.19,0.87 -0.30,0.84 -0.40,0.80 -0.49,0.75 -0.58,0.68 -0.66,0.61 -0.72,0.52 -0.79,0.43 -0.83,0.33 -0.87,0.23 -0.88,0.12 -0.90,0.01 -0.89,-0.09 -0.87,-0.19 -0.84,-0.30 -0.80,-0.40 -0.80,-0.40 L -0.80,-0.40 Z"></path></g><g transform="translate(310 594) rotate(0 8.5 -1.5)" stroke="none"><path fill="#000000" d="M 0,-0.93 Q 0,-0.93 0.86,-1.33 1.72,-1.73 3.23,-1.77 4.75,-1.82 6.09,-2.09 7.43,-2.36 8.88,-2.70 10.33,-3.04 13.25,-3.21 16.17,-3.38 16.28,-3.40 16.38,-3.42 16.49,-3.41 16.59,-3.40 16.69,-3.35 16.79,-3.31 16.86,-3.24 16.94,-3.16 16.99,-3.07 17.04,-2.97 17.05,-2.87 17.07,-2.76 17.05,-2.66 17.03,-2.55 16.98,-2.46 16.93,-2.37 16.86,-2.29 16.78,-2.22 16.68,-2.18 16.58,-2.13 16.48,-2.12 16.37,-2.11 16.27,-2.14 16.17,-2.16 16.08,-2.21 15.98,-2.27 15.92,-2.35 15.85,-2.43 15.81,-2.53 15.77,-2.63 15.77,-2.74 15.76,-2.84 15.79,-2.95 15.82,-3.05 15.88,-3.14 15.94,-3.22 16.02,-3.29 16.11,-3.35 16.21,-3.38 16.31,-3.42 16.42,-3.42 16.52,-3.42 16.62,-3.38 16.73,-3.35 16.81,-3.28 16.89,-3.22 16.95,-3.13 17.01,-3.04 17.04,-2.94 17.07,-2.83 17.06,-2.73 17.05,-2.62 17.01,-2.52 16.97,-2.43 16.90,-2.34 16.84,-2.26 16.74,-2.21 16.65,-2.16 16.65,-2.16 16.65,-2.16 13.94,-0.95 11.22,0.25 9.66,0.73 8.11,1.21 6.43,1.52 4.76,1.82 3.24,1.77 1.72,1.73 0.86,1.33 0,0.93 -0.11,0.91 -0.22,0.90 -0.32,0.86 -0.43,0.82 -0.52,0.76 -0.61,0.69 -0.69,0.61 -0.76,0.52 -0.81,0.43 -0.87,0.33 -0.89,0.22 -0.92,0.11 -0.92,-0.00 -0.92,-0.11 -0.89,-0.22 -0.87,-0.33 -0.81,-0.43 -0.76,-0.52 -0.69,-0.61 -0.61,-0.69 -0.52,-0.76 -0.43,-0.82 -0.32,-0.86 -0.22,-0.90 -0.11,-0.91 0.00,-0.93 0.00,-0.93 L 0,-0.93 Z"></path></g><g transform="translate(258 158) rotate(0 2.5 10.5)" stroke="none"><path fill="#000000" d="M 0.89,0 Q 0.89,0 1.21,1.15 1.54,2.3 1.54,3.35 1.54,4.41 1.80,5.23 2.06,6.05 2.32,6.53 2.58,7.02 3.62,6.20 4.66,5.39 5.19,4.29 5.73,3.18 6.26,1.85 6.79,0.51 7.00,-0.29 7.21,-1.09 7.58,-1.75 7.95,-2.41 8.02,-2.58 8.09,-2.75 8.20,-2.90 8.30,-3.05 8.44,-3.17 8.58,-3.29 8.75,-3.37 8.91,-3.45 9.09,-3.49 9.27,-3.53 9.45,-3.53 9.64,-3.52 9.81,-3.47 9.99,-3.43 10.15,-3.34 10.31,-3.25 10.45,-3.12 10.58,-3.00 10.68,-2.85 10.78,-2.69 10.84,-2.52 10.91,-2.35 10.92,-2.17 10.94,-1.98 10.92,-1.80 10.89,-1.62 11.23,-0.91 11.56,-0.20 11.59,1.02 11.63,2.24 11.65,4.47 11.66,6.71 11.67,8.51 11.68,10.32 11.69,12.24 11.69,14.16 11.70,15.55 11.70,16.95 11.40,18.57 11.10,20.19 10.54,21.37 9.99,22.54 8.31,23.53 6.62,24.51 4.84,24.52 3.06,24.54 1.37,23.79 -0.30,23.03 -2.38,21.13 -4.45,19.22 -4.53,19.14 -4.60,19.06 -4.65,18.97 -4.69,18.87 -4.70,18.77 -4.72,18.66 -4.70,18.56 -4.67,18.45 -4.62,18.36 -4.57,18.27 -4.49,18.20 -4.41,18.13 -4.31,18.09 -4.21,18.05 -4.10,18.04 -4.00,18.04 -3.89,18.06 -3.79,18.09 -3.70,18.15 -3.61,18.21 -3.55,18.29 -3.48,18.38 -3.45,18.48 -3.41,18.58 -3.41,18.68 -3.41,18.79 -3.45,18.89 -3.48,18.99 -3.54,19.08 -3.60,19.16 -3.69,19.22 -3.78,19.28 -3.88,19.31 -3.98,19.34 -4.09,19.34 -4.20,19.33 -4.30,19.29 -4.39,19.26 -4.48,19.19 -4.56,19.12 -4.61,19.03 -4.67,18.94 -4.69,18.84 -4.72,18.73 -4.71,18.63 -4.70,18.52 -4.65,18.42 -4.61,18.33 -4.54,18.25 -4.46,18.17 -4.37,18.12 -4.28,18.07 -4.17,18.05 -4.07,18.03 -3.96,18.05 -3.86,18.07 -3.76,18.12 -3.67,18.16 -3.67,18.16 -3.67,18.16 -1.51,19.41 0.64,20.66 1.89,21.06 3.14,21.46 4.21,21.48 5.28,21.50 6.25,21.13 7.21,20.77 7.48,20.14 7.74,19.51 8.01,18.22 8.29,16.94 8.29,15.55 8.29,14.16 8.29,12.25 8.29,10.33 8.29,8.53 8.29,6.73 8.28,4.52 8.27,2.32 8.28,0.82 8.28,-0.67 8.11,-1.54 7.95,-2.41 8.02,-2.58 8.09,-2.75 8.20,-2.90 8.30,-3.05 8.44,-3.17 8.58,-3.29 8.75,-3.37 8.91,-3.45 9.09,-3.49 9.27,-3.53 9.45,-3.53 9.64,-3.52 9.81,-3.47 9.99,-3.43 10.15,-3.34 10.31,-3.25 10.45,-3.12 10.58,-3.00 10.68,-2.85 10.78,-2.69 10.84,-2.52 10.91,-2.35 10.92,-2.17 10.94,-1.98 10.92,-1.80 10.89,-1.62 10.48,-0.96 10.08,-0.29 9.81,0.65 9.54,1.61 8.95,3.07 8.37,4.53 7.62,5.94 6.87,7.35 5.73,8.47 4.60,9.59 3.55,9.78 2.50,9.96 1.35,9.40 0.20,8.83 -0.35,7.87 -0.91,6.90 -1.23,5.67 -1.54,4.44 -1.54,3.37 -1.54,2.3 -1.21,1.15 -0.89,0 -0.87,-0.10 -0.86,-0.21 -0.82,-0.31 -0.79,-0.41 -0.72,-0.50 -0.66,-0.59 -0.58,-0.66 -0.50,-0.73 -0.41,-0.78 -0.31,-0.83 -0.21,-0.86 -0.10,-0.88 0.00,-0.88 0.10,-0.88 0.21,-0.86 0.31,-0.83 0.41,-0.78 0.50,-0.73 0.58,-0.66 0.66,-0.59 0.72,-0.50 0.79,-0.41 0.82,-0.31 0.86,-0.21 0.87,-0.10 0.89,0.00 0.89,0.00 L 0.89,0 Z"></path></g><g transform="translate(539 400) rotate(0 2.5 5)" stroke="none"><path fill="#000000" d="M 0,-0.94 Q 0,-0.94 0.87,-1.23 1.74,-1.53 2.90,-1.21 4.06,-0.89 4.92,-0.41 5.77,0.06 6.46,0.60 7.15,1.14 7.61,1.95 8.08,2.75 7.98,4.23 7.88,5.71 7.42,6.71 6.95,7.70 6.28,8.29 5.61,8.88 4.77,9.35 3.92,9.82 3.00,10.30 2.08,10.78 1.16,10.98 0.24,11.17 -0.29,9.61 -0.84,8.04 -0.91,8.05 -0.99,8.07 -1.07,8.06 -1.15,8.05 -1.23,8.03 -1.30,8.01 -1.37,7.96 -1.44,7.92 -1.49,7.86 -1.55,7.81 -1.59,7.74 -1.63,7.67 -1.65,7.60 -1.67,7.52 -1.67,7.44 -1.68,7.36 -1.66,7.28 -1.65,7.21 -1.61,7.13 -1.58,7.06 -1.53,7.00 -1.48,6.94 -1.42,6.89 -1.35,6.84 -1.28,6.81 -1.21,6.78 -1.42,6.97 -1.63,7.16 -1.57,7.07 -1.52,6.98 -1.44,6.91 -1.35,6.84 -1.25,6.81 -1.16,6.77 -1.05,6.76 -0.94,6.76 -0.84,6.79 -0.74,6.82 -0.65,6.88 -0.57,6.94 -0.50,7.03 -0.44,7.11 -0.41,7.21 -0.37,7.31 -0.37,7.42 -0.38,7.53 -0.41,7.63 -0.45,7.73 -0.51,7.81 -0.58,7.89 -0.67,7.95 -0.75,8.01 -0.86,8.04 -0.96,8.06 -1.07,8.06 -1.17,8.05 -1.27,8.01 -1.37,7.97 -1.45,7.90 -1.53,7.83 -1.58,7.74 -1.64,7.65 -1.66,7.54 -1.68,7.44 -1.67,7.33 -1.65,7.23 -1.61,7.13 -1.56,7.03 -1.49,6.96 -1.41,6.88 -1.32,6.83 -1.22,6.79 -1.12,6.77 -1.01,6.75 -0.91,6.77 -0.81,6.79 -0.71,6.84 -0.62,6.89 -0.55,6.97 -0.47,7.05 -0.43,7.15 -0.39,7.24 -0.38,7.35 -0.37,7.45 -0.60,7.75 -0.84,8.04 -0.91,8.05 -0.99,8.07 -1.07,8.06 -1.15,8.05 -1.23,8.03 -1.30,8.01 -1.37,7.96 -1.44,7.92 -1.49,7.86 -1.55,7.81 -1.59,7.74 -1.63,7.67 -1.65,7.60 -1.67,7.52 -1.67,7.44 -1.68,7.36 -1.66,7.28 -1.65,7.21 -1.61,7.13 -1.58,7.06 -1.53,7.00 -1.48,6.94 -1.42,6.89 -1.35,6.84 -1.28,6.81 -1.21,6.78 -0.32,7.31 0.57,7.83 1.44,7.38 2.32,6.92 3.22,6.51 4.11,6.09 4.38,5.61 4.65,5.12 4.89,4.30 5.13,3.49 4.66,3.10 4.18,2.72 3.66,2.38 3.14,2.04 2.42,1.78 1.70,1.53 0.85,1.23 0,0.94 -0.11,0.92 -0.22,0.91 -0.33,0.87 -0.43,0.83 -0.53,0.76 -0.62,0.70 -0.69,0.61 -0.77,0.53 -0.82,0.43 -0.87,0.33 -0.90,0.22 -0.93,0.11 -0.93,-0.00 -0.93,-0.11 -0.90,-0.22 -0.87,-0.33 -0.82,-0.43 -0.77,-0.53 -0.69,-0.61 -0.62,-0.70 -0.53,-0.76 -0.43,-0.83 -0.33,-0.87 -0.22,-0.91 -0.11,-0.92 0.00,-0.94 0.00,-0.94 L 0,-0.94 Z"></path></g><g transform="translate(551 400) rotate(0 -2 2.5)" stroke="none"><path fill="#000000" d="M -0.61,0.61 Q -0.61,0.61 -1.47,0.34 -2.32,0.07 -2.51,0.60 -2.70,1.13 -3.16,2.20 -3.62,3.26 -3.75,4.01 -3.88,4.76 -3.66,5.28 -3.44,5.79 -1.32,5.67 0.79,5.55 0.90,5.55 1.01,5.55 1.11,5.58 1.21,5.61 1.29,5.67 1.38,5.74 1.44,5.82 1.50,5.91 1.53,6.01 1.57,6.11 1.56,6.22 1.56,6.32 1.52,6.42 1.49,6.52 1.42,6.61 1.35,6.69 1.26,6.75 1.17,6.80 1.07,6.83 0.97,6.85 0.86,6.84 0.75,6.84 0.66,6.79 0.56,6.75 0.48,6.68 0.40,6.61 0.35,6.52 0.30,6.42 0.28,6.32 0.26,6.21 0.27,6.11 0.29,6.00 0.34,5.91 0.38,5.81 0.46,5.74 0.53,5.66 0.63,5.62 0.72,5.57 0.83,5.56 0.93,5.54 1.04,5.56 1.14,5.58 1.24,5.64 1.33,5.69 1.40,5.77 1.47,5.85 1.51,5.94 1.55,6.04 1.56,6.15 1.57,6.25 1.54,6.36 1.52,6.46 1.46,6.55 1.40,6.64 1.32,6.71 1.24,6.77 1.14,6.81 1.04,6.84 1.04,6.84 1.04,6.84 -1.73,7.65 -4.51,8.46 -5.74,7.52 -6.96,6.58 -7.26,5.42 -7.56,4.27 -7.31,3.02 -7.07,1.77 -6.65,0.82 -6.24,-0.11 -5.83,-1.20 -5.42,-2.30 -4.87,-2.96 -4.33,-3.62 -3.54,-3.79 -2.75,-3.97 -2.04,-3.54 -1.33,-3.11 -0.65,-2.74 0.02,-2.37 0.32,-1.49 0.61,-0.61 0.68,-0.53 0.74,-0.45 0.79,-0.35 0.83,-0.26 0.85,-0.15 0.87,-0.05 0.86,0.05 0.86,0.15 0.82,0.25 0.79,0.35 0.74,0.44 0.68,0.53 0.61,0.61 0.53,0.68 0.44,0.74 0.35,0.79 0.25,0.82 0.15,0.86 0.05,0.86 -0.05,0.87 -0.15,0.85 -0.26,0.83 -0.35,0.79 -0.45,0.74 -0.53,0.68 -0.61,0.61 -0.61,0.61 L -0.61,0.61 Z"></path></g><g transform="translate(285 387) rotate(0 3 -0.5)" stroke="none"><path fill="#000000" d="M 0.37,-0.74 Q 0.37,-0.74 0.90,-0.61 1.43,-0.49 2.03,-0.53 2.64,-0.57 2.77,-1.64 2.90,-2.70 2.77,-1.99 2.64,-1.28 2.54,-0.63 2.44,0.01 2.36,0.60 2.29,1.19 2.44,0.50 2.59,-0.17 3.02,-0.80 3.45,-1.43 2.96,-1.87 2.46,-2.31 2.86,-1.93 3.26,-1.55 4.42,-1.13 5.58,-0.70 5.68,-0.67 5.78,-0.64 5.87,-0.58 5.96,-0.52 6.02,-0.44 6.09,-0.36 6.12,-0.26 6.16,-0.15 6.16,-0.05 6.16,0.05 6.12,0.15 6.09,0.25 6.03,0.33 5.96,0.42 5.87,0.48 5.79,0.54 5.68,0.57 5.58,0.60 5.48,0.59 5.37,0.59 5.27,0.55 5.17,0.51 5.09,0.44 5.01,0.37 4.95,0.28 4.90,0.19 4.88,0.08 4.85,-0.01 4.86,-0.11 4.88,-0.22 4.92,-0.32 4.96,-0.41 5.04,-0.49 5.11,-0.57 5.20,-0.62 5.30,-0.67 5.40,-0.69 5.51,-0.70 5.61,-0.69 5.72,-0.67 5.81,-0.62 5.91,-0.57 5.98,-0.49 6.05,-0.42 6.10,-0.32 6.14,-0.22 6.15,-0.12 6.17,-0.01 6.14,0.08 6.12,0.19 6.07,0.28 6.01,0.37 5.93,0.44 5.85,0.51 5.75,0.54 5.65,0.58 5.55,0.59 5.44,0.60 5.44,0.60 5.44,0.60 3.46,0.40 1.49,0.21 1.05,-0.31 0.61,-0.84 0.94,-1.97 1.28,-3.10 1.73,-3.42 2.18,-3.74 3.15,-3.68 4.13,-3.62 4.64,-3.11 5.15,-2.61 5.28,-1.67 5.41,-0.74 5.08,-0.13 4.74,0.46 4.40,1.47 4.05,2.48 3.24,3.05 2.43,3.61 1.39,3.24 0.34,2.87 0.14,1.88 -0.05,0.89 0.03,0.19 0.13,-0.51 0.41,-1.55 0.69,-2.59 1.39,-3.40 2.09,-4.22 2.72,-4.31 3.34,-4.39 4.08,-3.61 4.81,-2.83 4.72,-1.80 4.62,-0.77 4.23,0.00 3.83,0.77 3.18,1.04 2.54,1.30 1.70,1.47 0.86,1.64 0.24,1.19 -0.37,0.74 -0.45,0.69 -0.54,0.63 -0.60,0.56 -0.67,0.48 -0.72,0.39 -0.77,0.31 -0.80,0.21 -0.82,0.11 -0.82,0.01 -0.83,-0.08 -0.80,-0.18 -0.78,-0.28 -0.74,-0.37 -0.69,-0.46 -0.63,-0.53 -0.56,-0.61 -0.48,-0.67 -0.40,-0.73 -0.30,-0.76 -0.21,-0.80 -0.11,-0.82 -0.01,-0.83 0.08,-0.82 0.18,-0.81 0.27,-0.78 0.37,-0.74 0.37,-0.74 L 0.37,-0.74 Z"></path></g><g transform="translate(269 398) rotate(0 0 8)" stroke="none"><path fill="#000000" d="M 0,0.85 Q 0,0.85 -0.86,1.24 -1.72,1.62 -2.34,1.97 -2.97,2.32 -3.47,2.82 -3.97,3.32 -4.30,4.67 -4.63,6.03 -4.81,7.74 -5.00,9.45 -5.09,11.04 -5.18,12.63 -4.98,13.65 -4.77,14.67 -3.78,15.70 -2.79,16.72 -1.77,16.86 -0.76,16.99 -0.19,16.85 0.37,16.71 1.03,16.22 1.70,15.72 2.20,14.81 2.69,13.90 3.23,12.41 3.76,10.92 4.30,9.37 4.83,7.83 5.03,6.44 5.22,5.05 5.04,4.05 4.85,3.04 4.23,1.86 3.62,0.68 3.11,-0.08 2.59,-0.85 1.68,-1.50 0.77,-2.15 0.23,-1.96 -0.29,-1.76 -0.38,-1.70 -0.47,-1.64 -0.57,-1.61 -0.67,-1.58 -0.78,-1.58 -0.88,-1.59 -0.98,-1.62 -1.08,-1.66 -1.17,-1.73 -1.25,-1.79 -1.30,-1.88 -1.36,-1.97 -1.39,-2.08 -1.41,-2.18 -1.40,-2.29 -1.39,-2.39 -1.35,-2.49 -1.31,-2.59 -1.24,-2.67 -1.17,-2.74 -1.07,-2.80 -0.98,-2.85 -0.88,-2.87 -0.77,-2.89 -0.67,-2.87 -0.56,-2.86 -0.47,-2.81 -0.37,-2.76 -0.30,-2.69 -0.22,-2.61 -0.18,-2.52 -0.13,-2.42 -0.11,-2.32 -0.10,-2.21 -0.12,-2.11 -0.14,-2.00 -0.19,-1.91 -0.25,-1.82 -0.33,-1.75 -0.41,-1.68 -0.50,-1.63 -0.60,-1.59 -0.71,-1.58 -0.81,-1.58 -0.92,-1.60 -1.02,-1.63 -1.11,-1.69 -1.20,-1.74 -1.26,-1.83 -1.33,-1.91 -1.37,-2.01 -1.40,-2.11 -1.40,-2.22 -1.41,-2.32 -1.38,-2.42 -1.34,-2.53 -1.28,-2.61 -1.22,-2.70 -1.22,-2.70 -1.22,-2.70 0.75,-3.61 2.74,-4.52 3.20,-4.11 3.66,-3.70 4.37,-3.13 5.07,-2.55 5.69,-1.57 6.31,-0.59 7.01,0.98 7.71,2.56 7.90,4.00 8.09,5.44 7.84,7.10 7.58,8.76 7.04,10.33 6.51,11.90 5.88,13.67 5.25,15.44 4.37,16.80 3.49,18.16 2.25,18.95 1.02,19.74 -0.16,19.91 -1.35,20.08 -3.14,19.60 -4.92,19.11 -6.43,17.33 -7.95,15.54 -8.24,14.01 -8.54,12.47 -8.44,10.76 -8.35,9.05 -8.10,7.05 -7.85,5.05 -7.15,3.07 -6.46,1.10 -5.90,0.54 -5.35,-0.02 -4.37,-0.77 -3.38,-1.51 -2.55,-1.57 -1.72,-1.62 -0.86,-1.24 0,-0.85 0.10,-0.84 0.20,-0.83 0.30,-0.79 0.39,-0.76 0.48,-0.70 0.56,-0.64 0.63,-0.56 0.70,-0.48 0.75,-0.39 0.80,-0.30 0.82,-0.20 0.85,-0.10 0.85,0.00 0.85,0.10 0.82,0.20 0.80,0.30 0.75,0.39 0.70,0.48 0.63,0.56 0.56,0.64 0.48,0.70 0.39,0.76 0.30,0.79 0.20,0.83 0.10,0.84 -0.00,0.85 -0.00,0.85 L 0,0.85 Z"></path></g><g transform="translate(68 51) rotate(0 33 -14.5)" stroke="none"><path fill="#2f9e44" d="M -1.03,-0.34 Q -1.03,-0.34 -1.05,-1.30 -1.07,-2.27 -0.37,-3.89 0.31,-5.51 1.21,-7.10 2.11,-8.69 3.07,-10.22 4.03,-11.76 5.32,-13.59 6.61,-15.42 8.65,-17.71 10.69,-19.99 12.47,-21.59 14.25,-23.18 15.74,-23.97 17.23,-24.76 18.74,-25.37 20.25,-25.99 22.36,-26.04 24.46,-26.09 26.06,-26.07 27.65,-26.05 30.17,-25.74 32.68,-25.44 35.45,-25.02 38.23,-24.61 40.64,-24.71 43.06,-24.81 46.71,-25.03 50.37,-25.25 53.30,-25.76 56.23,-26.26 60.13,-27.56 64.03,-28.86 64.13,-28.89 64.24,-28.92 64.34,-28.91 64.45,-28.90 64.55,-28.86 64.64,-28.81 64.72,-28.74 64.80,-28.67 64.85,-28.58 64.91,-28.49 64.93,-28.38 64.95,-28.28 64.93,-28.17 64.92,-28.07 64.87,-27.97 64.82,-27.88 64.75,-27.80 64.67,-27.73 64.58,-27.68 64.48,-27.63 64.38,-27.62 64.27,-27.61 64.17,-27.63 64.06,-27.65 63.97,-27.70 63.88,-27.75 63.81,-27.83 63.74,-27.91 63.69,-28.01 63.65,-28.10 63.64,-28.21 63.63,-28.32 63.66,-28.42 63.69,-28.52 63.74,-28.61 63.80,-28.70 63.88,-28.77 63.97,-28.83 64.07,-28.87 64.17,-28.91 64.27,-28.91 64.38,-28.91 64.48,-28.88 64.58,-28.85 64.67,-28.79 64.75,-28.73 64.82,-28.64 64.88,-28.55 64.91,-28.45 64.94,-28.35 64.94,-28.24 64.93,-28.14 64.90,-28.04 64.86,-27.94 64.79,-27.86 64.73,-27.77 64.64,-27.72 64.55,-27.66 64.55,-27.66 64.55,-27.66 60.71,-25.63 56.87,-23.61 53.78,-22.68 50.69,-21.75 46.96,-21.30 43.23,-20.85 40.43,-20.73 37.64,-20.61 34.91,-21.02 32.19,-21.43 29.89,-21.72 27.59,-22.01 25.97,-22.03 24.35,-22.05 22.95,-22.20 21.56,-22.34 20.24,-21.84 18.92,-21.34 17.82,-20.84 16.71,-20.35 15.09,-18.92 13.46,-17.50 11.55,-15.39 9.64,-13.28 8.40,-11.53 7.16,-9.79 6.23,-8.32 5.30,-6.85 4.46,-5.42 3.62,-3.99 2.92,-2.58 2.22,-1.17 1.62,-0.41 1.03,0.34 0.97,0.46 0.91,0.58 0.83,0.68 0.75,0.78 0.64,0.86 0.54,0.94 0.42,0.99 0.30,1.04 0.17,1.06 0.04,1.08 -0.08,1.07 -0.21,1.06 -0.34,1.02 -0.46,0.98 -0.57,0.91 -0.68,0.84 -0.77,0.74 -0.86,0.65 -0.93,0.53 -0.99,0.42 -1.03,0.30 -1.07,0.17 -1.07,0.04 -1.08,-0.08 -1.05,-0.21 -1.03,-0.34 -1.03,-0.34 L -1.03,-0.34 Z"></path></g><g transform="translate(104 30) rotate(0 -0.5 32)" stroke="none"><path fill="#2f9e44" d="M 0.87,0 Q 0.87,0 1.30,1.15 1.72,2.30 1.45,4.09 1.17,5.88 0.51,10.03 -0.13,14.17 -0.41,17.59 -0.69,21.00 -1.10,23.70 -1.52,26.40 -1.68,28.59 -1.85,30.79 -1.92,32.86 -2.00,34.93 -1.75,36.53 -1.50,38.12 -1.38,39.80 -1.26,41.49 -1.21,43.65 -1.17,45.82 -1.15,47.01 -1.13,48.21 -1.12,49.00 -1.11,49.80 -1.10,50.43 -1.10,51.06 -1.10,51.62 -1.09,52.17 -1.09,52.72 -1.09,53.26 -1.43,54.36 -1.77,55.46 -1.85,56.18 -1.93,56.90 -1.97,57.52 -2.02,58.14 -2.03,58.68 -2.05,59.22 -2.09,60.17 -2.12,61.12 -1.24,61.51 -0.35,61.90 1.01,62.20 2.37,62.51 2.48,62.49 2.58,62.48 2.69,62.49 2.79,62.51 2.88,62.56 2.98,62.61 3.05,62.69 3.12,62.77 3.17,62.87 3.21,62.96 3.22,63.07 3.23,63.17 3.21,63.28 3.18,63.38 3.13,63.47 3.07,63.56 2.99,63.63 2.91,63.70 2.81,63.74 2.71,63.78 2.61,63.78 2.50,63.78 2.40,63.76 2.30,63.73 2.21,63.67 2.12,63.61 2.06,63.52 1.99,63.44 1.96,63.33 1.93,63.23 1.93,63.13 1.93,63.02 1.96,62.92 2.00,62.82 2.06,62.74 2.13,62.65 2.22,62.59 2.30,62.53 2.41,62.51 2.51,62.48 2.62,62.49 2.72,62.49 2.82,62.53 2.92,62.57 3.00,62.64 3.08,62.71 3.13,62.80 3.19,62.89 3.21,63.00 3.23,63.10 3.22,63.21 3.21,63.31 3.16,63.41 3.12,63.51 3.04,63.58 2.97,63.66 2.87,63.71 2.78,63.76 2.78,63.76 2.78,63.76 0.46,64.36 -1.86,64.97 -2.67,64.66 -3.48,64.35 -4.21,63.83 -4.95,63.30 -5.40,62.33 -5.85,61.35 -5.87,60.76 -5.89,60.18 -5.88,59.62 -5.87,59.07 -5.85,58.46 -5.82,57.85 -5.76,57.12 -5.70,56.39 -5.53,55.29 -5.37,54.18 -5.13,53.18 -4.90,52.18 -4.90,51.63 -4.90,51.08 -4.91,50.46 -4.91,49.84 -4.91,49.06 -4.92,48.27 -4.94,47.08 -4.96,45.90 -5.00,43.82 -5.05,41.74 -5.15,40.20 -5.24,38.66 -5.51,36.74 -5.77,34.81 -5.70,32.65 -5.62,30.50 -5.44,28.15 -5.25,25.81 -4.84,23.25 -4.43,20.68 -4.11,17.12 -3.80,13.56 -3.06,9.41 -2.32,5.27 -2.02,3.78 -1.72,2.29 -1.30,1.14 -0.87,0 -0.86,-0.10 -0.84,-0.20 -0.81,-0.30 -0.77,-0.40 -0.71,-0.49 -0.65,-0.57 -0.57,-0.64 -0.49,-0.71 -0.40,-0.76 -0.30,-0.81 -0.20,-0.84 -0.10,-0.86 0.00,-0.86 0.10,-0.86 0.20,-0.84 0.30,-0.81 0.40,-0.76 0.49,-0.71 0.57,-0.64 0.65,-0.57 0.71,-0.49 0.77,-0.40 0.81,-0.30 0.84,-0.20 0.86,-0.10 0.87,0.00 0.87,0.00 L 0.87,0 Z"></path></g><g transform="translate(130 90) rotate(0 32.5 -40)" stroke="none"><path fill="#2f9e44" d="M -0.83,-0.41 Q -0.83,-0.41 -0.09,-2.20 0.64,-3.99 2.16,-6.50 3.68,-9.02 5.44,-12.34 7.21,-15.66 9.97,-20.83 12.73,-25.99 15.36,-30.51 17.98,-35.02 20.23,-39.21 22.48,-43.40 24.59,-47.48 26.70,-51.56 28.45,-55.29 30.19,-59.01 31.79,-62.88 33.39,-66.75 34.35,-69.51 35.30,-72.28 36.00,-74.34 36.70,-76.39 36.99,-77.51 37.27,-78.63 37.31,-78.85 37.34,-79.07 37.41,-79.24 37.48,-79.41 37.58,-79.56 37.69,-79.70 37.82,-79.82 37.96,-79.94 38.12,-80.03 38.28,-80.11 38.46,-80.15 38.64,-80.19 38.82,-80.19 39.00,-80.19 39.18,-80.15 39.36,-80.10 39.52,-80.01 39.68,-79.93 39.81,-79.81 39.95,-79.68 40.05,-79.53 40.15,-79.38 40.22,-79.21 40.28,-79.04 40.30,-78.86 40.32,-78.68 40.30,-78.50 40.27,-78.31 40.11,-77.14 39.95,-75.96 39.54,-74.89 39.12,-73.83 39.02,-72.48 38.91,-71.13 38.55,-68.97 38.19,-66.82 37.77,-63.37 37.35,-59.93 36.87,-56.43 36.40,-52.93 35.92,-49.15 35.43,-45.37 34.65,-41.40 33.86,-37.43 32.95,-33.17 32.04,-28.91 31.08,-24.24 30.12,-19.56 29.43,-16.14 28.74,-12.71 28.15,-10.09 27.56,-7.47 27.30,-5.83 27.05,-4.20 26.63,-3.50 26.21,-2.81 26.15,-2.62 26.10,-2.43 26.01,-2.25 25.91,-2.08 25.77,-1.94 25.64,-1.79 25.47,-1.68 25.30,-1.57 25.12,-1.51 24.93,-1.44 24.73,-1.42 24.53,-1.40 24.34,-1.43 24.14,-1.46 23.96,-1.54 23.77,-1.61 23.61,-1.73 23.45,-1.85 23.32,-2.00 23.20,-2.15 23.11,-2.33 23.02,-2.51 22.98,-2.70 22.93,-2.90 22.94,-3.09 22.94,-3.29 22.78,-4.38 22.61,-5.48 23.23,-7.56 23.84,-9.65 24.96,-12.51 26.09,-15.36 28.31,-19.50 30.53,-23.65 32.62,-26.88 34.72,-30.11 36.48,-32.39 38.23,-34.67 39.60,-36.01 40.97,-37.35 41.79,-37.90 42.60,-38.45 42.77,-38.57 42.93,-38.68 43.12,-38.76 43.30,-38.84 43.50,-38.87 43.70,-38.89 43.90,-38.88 44.10,-38.86 44.29,-38.79 44.48,-38.72 44.65,-38.61 44.82,-38.50 44.96,-38.35 45.09,-38.21 45.19,-38.03 45.29,-37.86 45.34,-37.66 45.40,-37.47 45.40,-37.27 45.40,-37.06 45.36,-36.87 45.32,-36.67 45.23,-36.49 45.14,-36.31 45.01,-36.16 44.88,-36.00 45.45,-36.38 46.01,-36.76 46.32,-35.34 46.63,-33.92 46.73,-31.91 46.83,-29.90 46.88,-26.76 46.93,-23.62 46.65,-20.75 46.37,-17.88 46.27,-15.60 46.16,-13.33 45.81,-11.36 45.46,-9.39 45.59,-8.02 45.73,-6.65 46.19,-5.74 46.66,-4.84 47.54,-4.75 48.43,-4.66 49.62,-5.39 50.82,-6.13 52.42,-8.29 54.02,-10.45 55.64,-12.85 57.26,-15.25 58.48,-17.65 59.71,-20.05 60.79,-22.76 61.88,-25.47 62.30,-27.67 62.73,-29.87 62.89,-31.91 63.05,-33.96 62.57,-34.43 62.09,-34.89 61.41,-34.27 60.72,-33.64 59.77,-32.78 58.81,-31.91 57.97,-30.55 57.13,-29.19 56.14,-27.66 55.16,-26.13 54.54,-24.52 53.93,-22.90 53.37,-21.10 52.81,-19.29 53.17,-16.85 53.52,-14.41 54.13,-12.23 54.74,-10.05 55.17,-8.74 55.60,-7.43 58.95,-7.88 62.30,-8.34 62.40,-8.34 62.51,-8.34 62.61,-8.31 62.71,-8.28 62.80,-8.22 62.88,-8.16 62.95,-8.07 63.01,-7.98 63.04,-7.88 63.07,-7.78 63.07,-7.68 63.06,-7.57 63.03,-7.47 62.99,-7.37 62.92,-7.29 62.86,-7.20 62.77,-7.15 62.68,-7.09 62.58,-7.06 62.47,-7.04 62.37,-7.05 62.26,-7.06 62.16,-7.10 62.07,-7.14 61.99,-7.21 61.91,-7.28 61.86,-7.37 61.80,-7.47 61.78,-7.57 61.76,-7.68 61.78,-7.78 61.79,-7.89 61.84,-7.98 61.89,-8.08 61.96,-8.15 62.04,-8.23 62.13,-8.27 62.23,-8.32 62.33,-8.33 62.44,-8.35 62.54,-8.33 62.65,-8.31 62.74,-8.26 62.83,-8.20 62.90,-8.13 62.97,-8.05 63.01,-7.95 63.06,-7.85 63.07,-7.75 63.07,-7.64 63.05,-7.54 63.02,-7.43 62.97,-7.34 62.91,-7.25 62.83,-7.19 62.74,-7.12 62.64,-7.08 62.54,-7.05 62.54,-7.05 62.54,-7.05 58.74,-6.13 54.95,-5.22 53.05,-7.05 51.15,-8.89 50.33,-11.41 49.51,-13.94 49.22,-17.14 48.93,-20.35 49.55,-22.37 50.18,-24.40 50.99,-26.37 51.81,-28.34 52.84,-29.84 53.87,-31.35 55.07,-33.06 56.26,-34.78 57.40,-35.73 58.53,-36.69 60.14,-37.54 61.74,-38.39 62.80,-38.17 63.85,-37.96 64.78,-37.17 65.71,-36.38 66.03,-35.04 66.35,-33.70 66.10,-31.47 65.86,-29.23 65.34,-26.77 64.82,-24.30 63.68,-21.45 62.53,-18.61 61.22,-16.05 59.91,-13.49 58.27,-10.98 56.62,-8.48 54.61,-5.86 52.60,-3.24 50.70,-2.20 48.80,-1.17 47.38,-1.17 45.96,-1.18 44.70,-2.05 43.45,-2.93 42.64,-4.57 41.84,-6.21 41.68,-8.14 41.53,-10.07 41.85,-11.80 42.17,-13.53 42.31,-15.90 42.44,-18.27 42.71,-20.93 42.98,-23.58 42.97,-26.68 42.97,-29.77 42.94,-31.60 42.91,-33.42 42.91,-34.27 42.91,-35.12 42.76,-36.79 42.60,-38.45 42.77,-38.57 42.93,-38.68 43.12,-38.76 43.30,-38.84 43.50,-38.87 43.70,-38.89 43.90,-38.88 44.10,-38.86 44.29,-38.79 44.48,-38.72 44.65,-38.61 44.82,-38.50 44.96,-38.35 45.09,-38.21 45.19,-38.03 45.29,-37.86 45.34,-37.66 45.40,-37.47 45.40,-37.27 45.40,-37.06 45.36,-36.87 45.32,-36.67 45.23,-36.49 45.14,-36.31 45.01,-36.16 44.88,-36.00 44.00,-35.51 43.12,-35.02 41.86,-33.91 40.59,-32.79 38.86,-30.66 37.12,-28.53 35.05,-25.43 32.99,-22.32 30.83,-18.34 28.66,-14.35 27.60,-11.60 26.54,-8.86 26.06,-7.24 25.59,-5.62 25.60,-4.98 25.62,-4.34 25.91,-3.58 26.21,-2.81 26.15,-2.62 26.10,-2.43 26.01,-2.26 25.91,-2.08 25.77,-1.94 25.64,-1.79 25.47,-1.68 25.30,-1.57 25.12,-1.51 24.93,-1.44 24.73,-1.42 24.53,-1.40 24.34,-1.43 24.14,-1.46 23.96,-1.54 23.77,-1.61 23.61,-1.73 23.45,-1.85 23.32,-2.00 23.20,-2.15 23.11,-2.33 23.02,-2.51 22.98,-2.70 22.93,-2.90 22.94,-3.09 22.94,-3.29 23.31,-4.03 23.67,-4.77 23.92,-6.50 24.16,-8.23 24.73,-10.82 25.31,-13.41 26.01,-16.84 26.71,-20.26 27.67,-24.95 28.63,-29.64 29.54,-33.88 30.45,-38.11 31.22,-41.96 32.00,-45.81 32.50,-49.60 32.99,-53.39 33.47,-56.87 33.94,-60.36 34.40,-63.87 34.86,-67.39 35.22,-69.44 35.58,-71.49 35.82,-73.27 36.05,-75.05 36.43,-75.94 36.82,-76.83 37.11,-77.42 37.40,-78.00 37.37,-78.53 37.34,-79.07 37.41,-79.24 37.47,-79.41 37.58,-79.56 37.68,-79.70 37.82,-79.82 37.96,-79.94 38.12,-80.03 38.28,-80.11 38.46,-80.15 38.64,-80.19 38.82,-80.19 39.00,-80.19 39.18,-80.15 39.36,-80.10 39.52,-80.01 39.68,-79.93 39.81,-79.81 39.95,-79.68 40.05,-79.53 40.15,-79.38 40.22,-79.21 40.28,-79.04 40.30,-78.86 40.32,-78.68 40.30,-78.50 40.27,-78.31 40.06,-78.12 39.84,-77.93 39.53,-76.73 39.22,-75.53 38.52,-73.47 37.81,-71.41 36.83,-68.57 35.84,-65.73 34.22,-61.81 32.59,-57.89 30.82,-54.12 29.05,-50.34 26.93,-46.24 24.82,-42.15 22.54,-37.92 20.27,-33.69 17.66,-29.22 15.05,-24.74 12.27,-19.59 9.48,-14.44 7.65,-11.07 5.82,-7.70 4.31,-5.30 2.80,-2.90 1.82,-1.24 0.83,0.41 0.77,0.51 0.71,0.60 0.63,0.68 0.54,0.76 0.44,0.81 0.34,0.87 0.24,0.89 0.13,0.92 0.01,0.93 -0.09,0.93 -0.20,0.90 -0.31,0.88 -0.41,0.83 -0.51,0.78 -0.60,0.70 -0.68,0.63 -0.75,0.54 -0.82,0.45 -0.86,0.34 -0.90,0.24 -0.92,0.13 -0.93,0.01 -0.92,-0.09 -0.91,-0.20 -0.87,-0.31 -0.83,-0.41 -0.83,-0.41 L -0.83,-0.41 Z"></path></g><g transform="translate(230 41) rotate(0 64 6)" stroke="none"><path fill="#2f9e44" d="M -0.72,-0.43 Q -0.72,-0.43 -0.13,-2.03 0.45,-3.63 1.37,-5.36 2.29,-7.10 3.54,-9.56 4.78,-12.03 6.53,-14.35 8.28,-16.67 9.29,-17.93 10.30,-19.18 11.02,-20.04 11.73,-20.91 12.51,-21.41 13.29,-21.91 13.74,-22.28 14.19,-22.65 15.09,-22.97 15.98,-23.28 16.92,-23.06 17.85,-22.84 18.70,-22.80 19.54,-22.77 20.53,-22.73 21.53,-22.70 22.77,-22.67 24.01,-22.64 24.80,-23.13 25.58,-23.62 26.51,-24.35 27.44,-25.08 28.13,-25.67 28.82,-26.27 29.38,-27.15 29.95,-28.02 30.06,-28.18 30.18,-28.34 30.33,-28.46 30.48,-28.59 30.66,-28.68 30.84,-28.76 31.03,-28.81 31.22,-28.85 31.42,-28.84 31.62,-28.84 31.81,-28.78 32.00,-28.73 32.17,-28.63 32.34,-28.54 32.48,-28.40 32.63,-28.27 32.73,-28.10 32.84,-27.94 32.91,-27.75 32.97,-27.57 32.99,-27.37 33.01,-27.17 32.98,-26.98 32.95,-26.78 32.87,-26.60 32.80,-26.42 32.92,-25.01 33.04,-23.61 32.72,-22.07 32.41,-20.54 32.00,-18.55 31.59,-16.55 31.43,-14.94 31.27,-13.32 30.89,-11.36 30.51,-9.39 30.38,-7.55 30.24,-5.71 29.87,-3.90 29.50,-2.08 29.36,-0.34 29.23,1.40 28.87,3.44 28.50,5.48 28.37,7.08 28.23,8.68 27.86,10.39 27.49,12.10 27.36,13.51 27.23,14.93 26.85,16.57 26.48,18.21 26.35,19.32 26.22,20.44 26.16,21.47 26.11,22.50 26.08,23.51 26.05,24.53 25.71,25.79 25.38,27.06 25.28,27.91 25.19,28.76 25.14,29.42 25.09,30.09 25.07,30.64 25.05,31.20 25.02,31.96 25.00,32.72 25.36,34.10 25.72,35.47 25.78,36.18 25.84,36.89 25.86,37.49 25.89,38.09 26.25,37.62 26.61,37.15 27.48,36.44 28.34,35.73 29.30,34.85 30.26,33.98 31.15,32.83 32.05,31.68 33.04,30.33 34.02,28.98 34.96,27.31 35.90,25.64 36.92,24.01 37.93,22.38 38.91,20.59 39.88,18.81 40.88,16.90 41.88,15.00 42.87,13.03 43.85,11.06 45.15,8.75 46.45,6.43 47.26,4.68 48.07,2.93 48.37,1.72 48.66,0.51 49.16,-0.52 49.67,-1.57 49.84,-2.49 50.01,-3.42 50.05,-4.36 50.09,-5.29 50.06,-6.28 50.03,-7.26 50.03,-8.26 50.03,-9.26 50.02,-9.82 50.01,-10.39 50.42,-11.31 50.83,-12.23 50.89,-12.85 50.95,-13.46 51.11,-14.20 51.28,-14.93 51.72,-15.45 52.16,-15.97 52.05,-16.65 51.95,-17.34 51.98,-17.87 52.02,-18.40 52.44,-19.28 52.85,-20.17 52.91,-20.76 52.96,-21.35 53.52,-22.08 54.07,-22.80 54.05,-23.64 54.04,-24.49 54.45,-25.37 54.86,-26.26 54.98,-26.77 55.10,-27.29 55.25,-27.48 55.40,-27.66 55.59,-27.81 55.78,-27.96 56.00,-28.06 56.21,-28.16 56.45,-28.20 56.69,-28.24 56.93,-28.23 57.16,-28.22 57.39,-28.14 57.62,-28.07 57.83,-27.95 58.03,-27.83 58.20,-27.66 58.37,-27.49 58.50,-27.28 58.62,-27.08 58.69,-26.85 58.76,-26.62 58.78,-26.38 58.79,-26.14 58.75,-25.90 58.71,-25.67 58.61,-25.45 58.51,-25.23 58.59,-25.78 58.66,-26.32 58.45,-25.22 58.25,-24.11 58.21,-23.28 58.17,-22.45 57.81,-20.96 57.45,-19.48 56.99,-18.23 56.52,-16.98 56.06,-15.66 55.60,-14.34 55.45,-12.55 55.30,-10.76 54.90,-9.18 54.50,-7.60 54.37,-6.27 54.24,-4.95 53.85,-3.57 53.46,-2.20 53.34,-1.00 53.23,0.19 52.85,1.76 52.48,3.33 52.35,4.41 52.22,5.50 51.83,6.76 51.44,8.02 51.33,8.89 51.22,9.75 51.16,10.96 51.11,12.17 51.08,13.28 51.05,14.39 50.72,15.69 50.38,16.98 50.29,17.86 50.19,18.73 50.13,19.44 50.07,20.14 49.66,21.09 49.25,22.04 49.17,22.74 49.09,23.45 48.64,24.85 48.18,26.26 48.13,26.86 48.08,27.47 48.06,28.38 48.03,29.29 48.02,30.28 48.02,31.26 48.64,31.80 49.26,32.33 49.83,32.14 50.40,31.94 51.34,31.96 52.28,31.98 53.20,31.75 54.13,31.53 55.34,30.93 56.55,30.34 57.69,29.61 58.83,28.88 59.59,28.23 60.34,27.58 60.88,26.86 61.42,26.14 62.32,25.10 63.22,24.06 63.78,23.19 64.35,22.33 65.23,21.07 66.12,19.81 66.70,18.54 67.28,17.27 67.85,16.08 68.41,14.89 68.95,13.82 69.48,12.74 69.65,11.92 69.82,11.10 70.28,10.14 70.73,9.18 70.87,8.37 71.02,7.56 71.17,6.84 71.32,6.13 71.46,6.17 71.60,6.21 71.65,5.98 71.69,5.75 71.78,5.53 71.88,5.32 72.02,5.13 72.17,4.95 72.35,4.80 72.54,4.65 72.75,4.56 72.96,4.46 73.20,4.42 73.43,4.37 73.66,4.39 73.90,4.40 74.12,4.47 74.35,4.54 74.55,4.66 74.75,4.78 74.92,4.95 75.08,5.11 75.20,5.31 75.33,5.51 75.40,5.74 75.47,5.96 75.48,6.20 75.50,6.43 75.71,7.14 75.93,7.86 75.96,9.65 75.98,11.43 75.70,13.74 75.41,16.05 75.00,18.45 74.59,20.85 74.13,23.58 73.67,26.30 72.87,29.02 72.07,31.73 71.46,33.41 70.84,35.09 70.74,35.31 70.65,35.54 70.50,35.73 70.35,35.92 70.16,36.08 69.97,36.23 69.75,36.33 69.53,36.43 69.29,36.48 69.05,36.53 68.81,36.52 68.57,36.51 68.33,36.44 68.10,36.37 67.89,36.24 67.68,36.12 67.50,35.95 67.33,35.78 67.20,35.57 67.07,35.37 67.00,35.14 66.92,34.90 66.90,34.66 66.89,34.42 66.93,34.18 66.97,33.94 67.69,31.74 68.42,29.53 69.64,26.88 70.86,24.22 72.25,21.63 73.65,19.04 75.12,16.75 76.59,14.46 78.14,12.80 79.68,11.15 80.70,10.38 81.71,9.61 82.83,9.23 83.95,8.85 84.72,9.03 85.48,9.22 86.11,9.73 86.73,10.24 87.17,11.35 87.60,12.47 88.00,13.57 88.39,14.68 88.59,16.53 88.78,18.38 88.56,20.44 88.33,22.50 87.94,25.04 87.56,27.59 87.10,29.85 86.64,32.12 86.46,33.83 86.29,35.54 85.87,36.29 85.45,37.04 86.17,36.07 86.89,35.10 88.24,33.64 89.58,32.18 90.99,30.16 92.40,28.13 94.15,25.27 95.90,22.40 97.19,19.79 98.49,17.18 99.30,15.22 100.11,13.26 100.78,12.02 101.45,10.78 101.68,9.98 101.92,9.18 102.06,8.99 102.19,8.81 102.37,8.66 102.55,8.51 102.76,8.41 102.97,8.31 103.20,8.27 103.42,8.22 103.66,8.23 103.89,8.24 104.11,8.30 104.33,8.36 104.53,8.48 104.74,8.59 104.90,8.75 105.07,8.91 105.20,9.11 105.32,9.30 105.39,9.52 105.47,9.74 105.49,9.97 105.51,10.20 105.47,10.43 105.44,10.66 105.35,10.88 105.26,11.09 105.18,11.93 105.10,12.76 104.41,14.37 103.72,15.98 102.93,18.41 102.15,20.85 101.21,23.40 100.26,25.96 99.61,28.39 98.95,30.81 98.69,32.63 98.42,34.44 98.23,35.54 98.04,36.64 99.01,35.55 99.99,34.46 101.32,32.90 102.66,31.34 104.34,28.72 106.01,26.10 108.46,21.82 110.91,17.55 112.80,13.49 114.69,9.42 116.06,5.18 117.44,0.94 118.30,-2.85 119.16,-6.64 119.81,-10.54 120.47,-14.43 121.01,-17.02 121.56,-19.61 122.08,-21.10 122.61,-22.60 122.80,-23.47 122.98,-24.34 122.94,-24.36 122.90,-24.38 122.99,-24.61 123.08,-24.83 123.22,-25.03 123.36,-25.23 123.54,-25.39 123.73,-25.55 123.94,-25.66 124.16,-25.77 124.40,-25.83 124.63,-25.88 124.88,-25.88 125.12,-25.88 125.36,-25.82 125.59,-25.76 125.81,-25.64 126.02,-25.52 126.20,-25.36 126.38,-25.20 126.52,-24.99 126.65,-24.79 126.74,-24.56 126.82,-24.34 126.85,-24.09 126.87,-23.85 126.84,-23.61 126.81,-23.37 126.58,-21.75 126.36,-20.12 125.96,-18.26 125.57,-16.39 124.51,-12.91 123.46,-9.43 122.44,-5.98 121.43,-2.53 120.43,1.20 119.43,4.94 118.74,8.77 118.04,12.59 117.45,16.24 116.86,19.89 116.62,23.09 116.38,26.29 116.56,29.57 116.75,32.85 117.02,34.61 117.29,36.37 117.89,36.78 118.48,37.18 119.55,37.24 120.62,37.30 123.49,36.21 126.36,35.12 126.46,35.08 126.56,35.05 126.67,35.05 126.78,35.05 126.88,35.08 126.98,35.12 127.06,35.18 127.15,35.25 127.21,35.33 127.27,35.42 127.29,35.52 127.32,35.63 127.32,35.73 127.31,35.84 127.27,35.94 127.23,36.04 127.16,36.12 127.09,36.20 127.00,36.25 126.91,36.31 126.81,36.33 126.70,36.35 126.60,36.34 126.49,36.33 126.40,36.28 126.30,36.24 126.22,36.17 126.15,36.09 126.10,36.00 126.05,35.91 126.03,35.80 126.01,35.70 126.03,35.59 126.05,35.49 126.10,35.39 126.15,35.30 126.22,35.23 126.30,35.15 126.40,35.11 126.49,35.06 126.60,35.05 126.71,35.04 126.81,35.06 126.91,35.09 127.00,35.14 127.09,35.20 127.16,35.28 127.23,35.36 127.27,35.46 127.31,35.56 127.32,35.66 127.32,35.77 127.29,35.87 127.27,35.97 127.21,36.06 127.15,36.15 127.06,36.21 126.98,36.28 126.98,36.28 126.98,36.28 123.83,38.37 120.69,40.46 118.60,40.36 116.50,40.26 115.06,38.95 113.62,37.63 113.17,35.35 112.71,33.07 112.53,29.53 112.35,25.99 112.61,22.62 112.87,19.25 113.47,15.56 114.06,11.86 114.80,7.88 115.53,3.90 116.54,0.11 117.56,-3.67 118.57,-7.14 119.59,-10.60 120.60,-13.91 121.61,-17.23 122.02,-19.16 122.43,-21.09 122.68,-21.88 122.92,-22.67 122.91,-23.53 122.90,-24.38 122.99,-24.61 123.08,-24.83 123.22,-25.03 123.36,-25.23 123.54,-25.39 123.73,-25.55 123.94,-25.66 124.16,-25.77 124.40,-25.83 124.63,-25.88 124.88,-25.88 125.12,-25.88 125.36,-25.82 125.59,-25.76 125.81,-25.64 126.02,-25.52 126.20,-25.36 126.38,-25.20 126.52,-24.99 126.65,-24.79 126.74,-24.56 126.82,-24.34 126.85,-24.09 126.87,-23.85 126.84,-23.61 126.81,-23.37 126.58,-23.22 126.34,-23.08 126.08,-22.22 125.82,-21.36 125.28,-20.12 124.75,-18.88 124.16,-16.40 123.57,-13.91 122.90,-9.93 122.24,-5.94 121.34,-2.02 120.45,1.90 119.06,6.34 117.66,10.79 115.73,14.99 113.80,19.20 111.32,23.55 108.85,27.91 107.06,30.71 105.27,33.52 103.86,35.25 102.44,36.98 100.83,38.38 99.21,39.78 97.78,39.71 96.35,39.64 95.33,38.43 94.32,37.23 94.37,35.53 94.43,33.84 94.74,31.80 95.05,29.76 95.76,27.16 96.47,24.57 97.39,22.08 98.30,19.59 99.18,16.92 100.06,14.25 100.58,13.31 101.10,12.37 101.51,10.77 101.92,9.18 102.06,8.99 102.19,8.81 102.37,8.66 102.55,8.51 102.76,8.41 102.97,8.31 103.20,8.27 103.42,8.22 103.66,8.23 103.89,8.24 104.11,8.30 104.33,8.36 104.53,8.48 104.73,8.59 104.90,8.75 105.07,8.91 105.20,9.11 105.32,9.30 105.39,9.52 105.47,9.74 105.49,9.97 105.51,10.20 105.47,10.43 105.44,10.66 105.35,10.87 105.26,11.09 104.94,11.83 104.62,12.57 103.99,13.61 103.36,14.65 102.46,16.68 101.57,18.71 100.20,21.45 98.83,24.19 97.02,27.15 95.22,30.10 93.67,32.30 92.13,34.50 90.57,36.22 89.02,37.93 87.24,39.02 85.45,40.11 84.12,39.55 82.78,38.99 82.52,37.05 82.27,35.11 82.47,33.22 82.68,31.32 83.12,29.15 83.56,26.98 83.94,24.50 84.32,22.02 84.54,20.38 84.76,18.74 84.64,17.29 84.53,15.85 84.20,14.61 83.87,13.37 83.73,12.83 83.58,12.29 82.76,12.82 81.94,13.35 80.54,14.74 79.14,16.13 77.72,18.30 76.31,20.47 74.97,22.97 73.63,25.48 72.49,28.04 71.35,30.60 70.61,32.52 69.87,34.45 70.36,34.77 70.84,35.09 70.74,35.31 70.65,35.54 70.50,35.73 70.35,35.92 70.16,36.08 69.97,36.23 69.75,36.33 69.53,36.43 69.29,36.48 69.05,36.53 68.81,36.52 68.57,36.51 68.33,36.44 68.10,36.37 67.89,36.24 67.68,36.12 67.50,35.95 67.33,35.78 67.20,35.57 67.07,35.37 67.00,35.14 66.92,34.91 66.90,34.66 66.89,34.42 66.93,34.18 66.97,33.94 67.58,32.26 68.20,30.58 68.94,28.10 69.68,25.63 70.14,22.90 70.60,20.17 71.00,17.85 71.40,15.53 71.67,13.51 71.94,11.48 72.01,9.59 72.08,7.70 71.84,6.96 71.60,6.21 71.65,5.98 71.69,5.75 71.78,5.53 71.88,5.32 72.02,5.13 72.17,4.95 72.35,4.80 72.54,4.65 72.75,4.56 72.96,4.46 73.20,4.42 73.43,4.37 73.66,4.39 73.90,4.40 74.12,4.47 74.35,4.54 74.55,4.66 74.75,4.78 74.92,4.95 75.08,5.11 75.20,5.31 75.33,5.51 75.40,5.74 75.47,5.96 75.48,6.20 75.50,6.43 75.13,7.23 74.77,8.03 74.69,8.71 74.62,9.38 74.37,10.17 74.13,10.95 73.82,11.45 73.50,11.94 73.23,13.18 72.95,14.42 72.43,15.49 71.91,16.57 71.35,17.73 70.78,18.88 70.07,20.42 69.35,21.96 68.53,23.26 67.71,24.57 66.97,25.66 66.22,26.76 65.40,27.63 64.57,28.51 63.76,29.59 62.95,30.66 61.87,31.54 60.80,32.41 60.09,32.80 59.37,33.19 58.27,33.74 57.17,34.30 56.35,34.80 55.54,35.31 53.89,35.65 52.24,36.00 51.22,35.99 50.19,35.98 49.63,35.94 49.08,35.91 48.41,35.80 47.75,35.68 46.59,35.01 45.43,34.34 44.87,33.63 44.31,32.91 44.14,31.58 43.98,30.24 44.00,29.20 44.01,28.16 44.04,27.60 44.07,27.04 44.14,26.40 44.22,25.76 44.45,25.00 44.69,24.24 44.88,23.63 45.07,23.01 45.15,22.37 45.23,21.72 45.65,20.72 46.08,19.71 46.13,18.97 46.18,18.23 46.33,17.06 46.49,15.89 46.75,15.08 47.02,14.26 47.04,13.12 47.07,11.97 47.14,10.58 47.22,9.18 47.40,7.98 47.59,6.78 47.90,5.88 48.21,4.98 48.38,3.68 48.55,2.38 48.88,1.06 49.21,-0.25 49.39,-1.79 49.58,-3.34 49.90,-4.36 50.22,-5.39 50.41,-7.00 50.59,-8.61 50.93,-9.89 51.28,-11.17 51.53,-13.41 51.78,-15.64 52.26,-17.02 52.74,-18.40 53.13,-19.43 53.53,-20.47 53.84,-21.66 54.15,-22.86 54.66,-24.38 55.17,-25.89 55.14,-26.59 55.10,-27.29 55.25,-27.48 55.40,-27.66 55.59,-27.81 55.78,-27.96 56.00,-28.06 56.21,-28.16 56.45,-28.20 56.69,-28.24 56.93,-28.23 57.16,-28.22 57.39,-28.14 57.62,-28.07 57.83,-27.95 58.03,-27.83 58.20,-27.66 58.37,-27.49 58.50,-27.28 58.62,-27.08 58.69,-26.85 58.76,-26.62 58.78,-26.38 58.79,-26.14 58.75,-25.90 58.71,-25.67 58.61,-25.45 58.51,-25.23 58.38,-24.75 58.25,-24.27 58.05,-23.66 57.84,-23.05 57.74,-22.39 57.65,-21.74 57.15,-21.02 56.65,-20.30 56.46,-19.30 56.26,-18.30 56.07,-17.64 55.88,-16.97 55.80,-16.31 55.72,-15.65 55.30,-14.35 54.89,-13.05 54.82,-12.42 54.76,-11.78 54.53,-11.03 54.31,-10.28 54.13,-9.77 53.96,-9.25 53.95,-8.25 53.95,-7.24 53.90,-6.21 53.85,-5.19 53.84,-4.64 53.82,-4.10 53.78,-3.50 53.74,-2.90 53.64,-2.21 53.53,-1.52 53.28,-0.69 53.03,0.12 52.65,0.80 52.28,1.48 51.87,2.97 51.45,4.47 50.59,6.37 49.73,8.28 48.46,10.52 47.18,12.75 46.17,14.72 45.15,16.69 44.15,18.64 43.15,20.60 42.13,22.47 41.10,24.35 40.12,25.93 39.13,27.50 38.07,29.31 37.01,31.13 35.99,32.57 34.97,34.02 33.87,35.37 32.76,36.72 31.70,37.68 30.64,38.64 29.48,39.53 28.31,40.42 26.79,41.04 25.27,41.65 24.37,41.42 23.48,41.19 22.92,40.50 22.36,39.81 22.18,38.50 22.00,37.19 21.95,36.60 21.91,36.01 21.84,35.42 21.77,34.83 21.39,33.83 21.02,32.83 21.02,31.93 21.01,31.04 21.04,30.41 21.06,29.79 21.12,29.02 21.18,28.25 21.34,27.09 21.50,25.93 21.76,25.16 22.02,24.39 22.04,23.33 22.07,22.26 22.14,21.11 22.21,19.95 22.38,18.62 22.54,17.30 22.87,15.92 23.20,14.53 23.37,12.88 23.54,11.22 23.87,9.77 24.20,8.32 24.36,6.54 24.53,4.76 24.86,2.92 25.20,1.07 25.37,-0.91 25.54,-2.91 25.87,-4.47 26.21,-6.04 26.38,-8.10 26.55,-10.15 26.89,-11.95 27.24,-13.74 27.44,-15.55 27.63,-17.37 28.04,-19.39 28.46,-21.41 28.73,-22.55 29.00,-23.69 29.03,-24.87 29.05,-26.04 29.50,-27.03 29.95,-28.02 30.06,-28.18 30.18,-28.34 30.33,-28.46 30.48,-28.59 30.66,-28.68 30.84,-28.76 31.03,-28.81 31.22,-28.85 31.42,-28.84 31.62,-28.84 31.81,-28.78 32.00,-28.73 32.17,-28.63 32.34,-28.54 32.48,-28.40 32.63,-28.27 32.73,-28.10 32.84,-27.94 32.91,-27.75 32.97,-27.57 32.99,-27.37 33.01,-27.17 32.98,-26.98 32.95,-26.78 32.87,-26.60 32.80,-26.42 32.38,-25.89 31.96,-25.37 31.48,-24.61 31.00,-23.84 30.22,-23.17 29.44,-22.50 28.25,-21.59 27.07,-20.69 25.60,-20.05 24.14,-19.40 22.77,-19.40 21.41,-19.40 20.34,-19.45 19.27,-19.49 17.74,-19.77 16.21,-20.05 15.18,-19.38 14.15,-18.70 13.43,-17.95 12.72,-17.19 11.72,-16.00 10.72,-14.81 9.10,-12.73 7.47,-10.65 6.20,-8.17 4.92,-5.69 3.95,-3.90 2.99,-2.11 1.85,-0.83 0.72,0.43 0.66,0.51 0.59,0.59 0.51,0.65 0.43,0.72 0.34,0.76 0.25,0.80 0.15,0.82 0.05,0.84 -0.04,0.83 -0.14,0.83 -0.24,0.80 -0.34,0.77 -0.43,0.71 -0.51,0.66 -0.59,0.59 -0.66,0.52 -0.71,0.43 -0.76,0.34 -0.79,0.25 -0.82,0.15 -0.83,0.05 -0.84,-0.04 -0.82,-0.14 -0.80,-0.24 -0.76,-0.34 -0.72,-0.43 -0.72,-0.43 L -0.72,-0.43 Z"></path></g><g transform="translate(333 35) rotate(0 1.5 -1)" stroke="none"><path fill="#2f9e44" d="M -0.58,-0.87 Q -0.58,-0.87 0.51,-0.80 1.61,-0.73 1.68,-0.77 1.75,-0.80 1.83,-0.82 1.91,-0.84 1.98,-0.84 2.06,-0.84 2.14,-0.82 2.22,-0.80 2.29,-0.76 2.36,-0.72 2.41,-0.67 2.47,-0.61 2.52,-0.55 2.56,-0.48 2.59,-0.41 2.61,-0.33 2.62,-0.26 2.63,-0.18 2.62,-0.10 2.61,-0.02 2.58,0.04 2.55,0.12 2.50,0.18 2.46,0.25 2.40,0.30 2.34,0.35 2.48,0.15 2.62,-0.05 2.58,0.04 2.54,0.14 2.47,0.22 2.40,0.30 2.31,0.36 2.22,0.41 2.11,0.44 2.01,0.46 1.90,0.45 1.80,0.44 1.70,0.39 1.61,0.35 1.53,0.27 1.45,0.20 1.40,0.11 1.35,0.01 1.33,-0.08 1.32,-0.19 1.33,-0.29 1.35,-0.40 1.40,-0.49 1.45,-0.58 1.53,-0.66 1.60,-0.73 1.70,-0.77 1.80,-0.82 1.90,-0.83 2.01,-0.84 2.11,-0.82 2.22,-0.80 2.31,-0.74 2.40,-0.69 2.47,-0.61 2.54,-0.53 2.58,-0.43 2.62,-0.33 2.62,-0.22 2.63,-0.12 2.60,-0.01 2.57,0.08 2.51,0.17 2.45,0.25 2.37,0.32 2.28,0.38 2.18,0.42 2.08,0.45 1.97,0.45 1.87,0.45 1.77,0.42 1.67,0.38 1.58,0.32 1.50,0.25 1.44,0.17 1.38,0.08 1.35,-0.01 1.32,-0.12 1.47,-0.42 1.61,-0.73 1.68,-0.77 1.75,-0.80 1.83,-0.82 1.91,-0.84 1.98,-0.84 2.06,-0.84 2.14,-0.82 2.22,-0.80 2.29,-0.76 2.36,-0.72 2.41,-0.67 2.47,-0.61 2.52,-0.55 2.56,-0.48 2.59,-0.41 2.61,-0.33 2.62,-0.26 2.63,-0.18 2.62,-0.10 2.61,-0.02 2.58,0.04 2.55,0.12 2.50,0.18 2.46,0.25 2.40,0.30 2.34,0.35 1.46,0.61 0.58,0.87 0.46,0.92 0.35,0.98 0.23,1.01 0.10,1.04 -0.01,1.03 -0.14,1.03 -0.26,1.00 -0.38,0.97 -0.49,0.91 -0.60,0.85 -0.70,0.76 -0.79,0.68 -0.86,0.57 -0.93,0.47 -0.97,0.35 -1.02,0.23 -1.03,0.10 -1.04,-0.01 -1.02,-0.14 -1.01,-0.26 -0.96,-0.38 -0.91,-0.50 -0.84,-0.60 -0.77,-0.70 -0.67,-0.78 -0.58,-0.87 -0.58,-0.87 L -0.58,-0.87 Z"></path></g><g transform="translate(344 42) rotate(0 7 1)" stroke="none"><path fill="#2f9e44" d="M 0,-1.12 Q 0,-1.12 0.86,-1.57 1.72,-2.02 2.66,-2.02 3.60,-2.02 5.16,-1.77 6.72,-1.53 9.78,-0.26 12.85,1.00 12.95,1.04 13.04,1.09 13.12,1.16 13.20,1.23 13.25,1.33 13.30,1.42 13.32,1.53 13.33,1.63 13.32,1.74 13.30,1.84 13.25,1.94 13.20,2.03 13.13,2.10 13.05,2.18 12.95,2.22 12.86,2.27 12.75,2.28 12.64,2.29 12.54,2.27 12.44,2.24 12.35,2.19 12.25,2.14 12.19,2.05 12.12,1.97 12.08,1.88 12.04,1.78 12.03,1.67 12.02,1.56 12.05,1.46 12.08,1.36 12.14,1.27 12.20,1.18 12.28,1.12 12.37,1.05 12.47,1.02 12.57,0.99 12.68,0.99 12.78,0.99 12.88,1.02 12.98,1.05 13.07,1.12 13.15,1.18 13.21,1.27 13.27,1.36 13.30,1.46 13.33,1.56 13.33,1.67 13.32,1.77 13.28,1.87 13.24,1.97 13.17,2.05 13.10,2.13 13.01,2.19 12.92,2.24 12.82,2.27 12.72,2.29 12.61,2.28 12.50,2.27 12.50,2.27 12.50,2.27 9.60,1.90 6.69,1.53 5.15,1.77 3.60,2.02 2.66,2.02 1.72,2.02 0.86,1.57 0,1.12 -0.13,1.10 -0.26,1.08 -0.39,1.04 -0.52,0.99 -0.63,0.91 -0.74,0.83 -0.83,0.73 -0.92,0.63 -0.98,0.51 -1.04,0.39 -1.08,0.26 -1.11,0.13 -1.11,-0.00 -1.11,-0.13 -1.08,-0.26 -1.04,-0.39 -0.98,-0.51 -0.92,-0.63 -0.83,-0.73 -0.74,-0.83 -0.63,-0.91 -0.52,-0.99 -0.39,-1.04 -0.26,-1.08 -0.13,-1.10 0.00,-1.12 0.00,-1.12 L 0,-1.12 Z"></path></g><g transform="translate(338 40) rotate(0 14.5 3)" stroke="none"><path fill="#2f9e44" d="M 0.25,-0.76 Q 0.25,-0.76 1.30,-1.05 2.36,-1.34 4.32,-0.96 6.29,-0.58 8.50,-0.43 10.71,-0.27 13.21,0.09 15.71,0.46 18.09,0.61 20.47,0.75 22.74,1.28 25.02,1.80 26.73,3.60 28.44,5.41 28.47,5.51 28.50,5.61 28.50,5.72 28.49,5.82 28.46,5.92 28.42,6.02 28.35,6.11 28.29,6.19 28.20,6.25 28.11,6.30 28.00,6.33 27.90,6.35 27.79,6.34 27.69,6.33 27.59,6.29 27.49,6.25 27.41,6.18 27.34,6.11 27.28,6.01 27.23,5.92 27.21,5.82 27.19,5.71 27.21,5.61 27.22,5.50 27.27,5.41 27.32,5.31 27.39,5.24 27.47,5.16 27.56,5.12 27.66,5.07 27.77,5.06 27.87,5.04 27.97,5.06 28.08,5.08 28.17,5.14 28.26,5.19 28.33,5.27 28.40,5.35 28.45,5.44 28.49,5.54 28.50,5.65 28.50,5.75 28.48,5.86 28.45,5.96 28.39,6.05 28.34,6.14 28.25,6.20 28.17,6.27 28.07,6.31 27.97,6.34 27.86,6.35 27.76,6.35 27.66,6.32 27.55,6.28 27.47,6.22 27.38,6.16 27.32,6.07 27.26,5.99 27.26,5.99 27.26,5.99 25.86,5.57 24.47,5.15 22.34,4.97 20.22,4.78 17.67,4.62 15.11,4.46 12.76,4.11 10.40,3.75 7.96,3.56 5.52,3.37 3.30,2.93 1.08,2.49 0.41,1.62 -0.25,0.76 -0.34,0.72 -0.42,0.67 -0.50,0.61 -0.57,0.55 -0.63,0.47 -0.69,0.40 -0.73,0.31 -0.77,0.22 -0.78,0.12 -0.80,0.03 -0.79,-0.06 -0.78,-0.16 -0.75,-0.25 -0.72,-0.34 -0.67,-0.42 -0.62,-0.50 -0.55,-0.57 -0.48,-0.64 -0.39,-0.69 -0.31,-0.73 -0.22,-0.76 -0.12,-0.79 -0.03,-0.79 0.06,-0.80 0.15,-0.78 0.25,-0.76 0.25,-0.76 L 0.25,-0.76 Z"></path></g><g transform="translate(335 32) rotate(0 2 1.5)" stroke="none"><path fill="#2f9e44" d="M 0.37,-0.75 Q 0.37,-0.75 1.04,-0.67 1.72,-0.58 1.99,-1.12 2.26,-1.66 2.39,-1.75 2.51,-1.85 2.65,-1.91 2.79,-1.98 2.94,-2.01 3.09,-2.04 3.25,-2.03 3.40,-2.02 3.55,-1.97 3.70,-1.93 3.83,-1.85 3.97,-1.77 4.08,-1.66 4.19,-1.55 4.27,-1.42 4.35,-1.29 4.40,-1.14 4.44,-0.99 4.45,-0.84 4.46,-0.68 4.44,-0.53 4.41,-0.37 4.35,-0.23 4.28,-0.09 4.19,0.02 4.09,0.14 3.45,0.73 2.81,1.32 2.42,1.84 2.03,2.35 2.72,2.46 3.42,2.58 3.37,2.64 3.31,2.70 3.25,2.74 3.18,2.79 3.11,2.81 3.04,2.84 2.96,2.85 2.88,2.86 2.80,2.85 2.72,2.84 2.65,2.81 2.57,2.78 2.51,2.74 2.44,2.69 2.39,2.63 2.34,2.57 2.30,2.50 2.27,2.43 2.25,2.35 2.23,2.28 2.23,2.20 2.23,2.12 2.25,2.04 2.27,1.97 2.31,1.90 2.35,1.83 2.39,1.78 2.43,1.72 2.52,1.67 2.61,1.61 2.71,1.58 2.82,1.55 2.92,1.56 3.03,1.56 3.13,1.60 3.22,1.64 3.31,1.71 3.39,1.78 3.44,1.87 3.49,1.96 3.52,2.07 3.54,2.17 3.53,2.28 3.51,2.38 3.47,2.48 3.42,2.57 3.35,2.65 3.28,2.73 3.18,2.78 3.09,2.83 2.98,2.84 2.88,2.86 2.78,2.84 2.67,2.82 2.58,2.77 2.48,2.72 2.41,2.65 2.34,2.57 2.29,2.47 2.25,2.38 2.24,2.27 2.23,2.16 2.25,2.06 2.27,1.96 2.33,1.87 2.38,1.78 2.47,1.71 2.55,1.64 2.65,1.60 2.75,1.56 2.85,1.56 2.96,1.55 3.06,1.58 3.16,1.61 3.25,1.67 3.34,1.73 3.40,1.81 3.46,1.90 3.50,2.00 3.53,2.10 3.53,2.21 3.53,2.31 3.50,2.41 3.46,2.51 3.44,2.55 3.42,2.58 3.37,2.64 3.31,2.70 3.25,2.74 3.18,2.79 3.11,2.81 3.04,2.84 2.96,2.85 2.88,2.86 2.80,2.85 2.72,2.84 2.65,2.81 2.57,2.78 2.51,2.74 2.44,2.69 2.39,2.63 2.34,2.57 2.30,2.50 2.27,2.43 2.25,2.35 2.23,2.28 2.23,2.20 2.23,2.12 2.25,2.04 2.27,1.97 2.31,1.90 2.35,1.83 0.97,1.57 -0.39,1.31 0.32,0.24 1.04,-0.82 1.65,-1.24 2.26,-1.66 2.39,-1.75 2.51,-1.85 2.65,-1.91 2.79,-1.98 2.94,-2.01 3.09,-2.04 3.25,-2.03 3.40,-2.02 3.55,-1.97 3.70,-1.93 3.83,-1.85 3.97,-1.77 4.08,-1.66 4.19,-1.55 4.27,-1.42 4.35,-1.29 4.40,-1.14 4.44,-0.99 4.45,-0.84 4.47,-0.68 4.44,-0.53 4.41,-0.37 4.35,-0.23 4.28,-0.09 4.19,0.02 4.09,0.14 4.25,-0.40 4.42,-0.94 3.99,0.12 3.56,1.20 3.03,1.53 2.50,1.85 1.54,1.79 0.57,1.73 0.10,1.24 -0.37,0.75 -0.46,0.69 -0.54,0.64 -0.61,0.56 -0.68,0.49 -0.73,0.40 -0.78,0.31 -0.80,0.21 -0.83,0.11 -0.83,0.01 -0.83,-0.08 -0.81,-0.18 -0.79,-0.28 -0.74,-0.37 -0.70,-0.46 -0.63,-0.54 -0.57,-0.61 -0.48,-0.67 -0.40,-0.73 -0.31,-0.77 -0.21,-0.81 -0.11,-0.82 -0.01,-0.84 0.08,-0.83 0.18,-0.82 0.28,-0.78 0.37,-0.75 0.37,-0.75 L 0.37,-0.75 Z"></path></g><g transform="translate(392 55) rotate(0 63 -13)" stroke="none"><path fill="#2f9e44" d="M -0.22,-0.90 Q -0.22,-0.90 0.85,-1.45 1.94,-2.00 3.24,-2.43 4.55,-2.86 6.42,-3.87 8.29,-4.87 11.37,-6.98 14.44,-9.09 16.83,-11.37 19.23,-13.66 21.39,-16.06 23.55,-18.45 25.33,-20.61 27.10,-22.77 28.40,-24.77 29.69,-26.77 30.80,-28.77 31.92,-30.77 32.64,-32.41 33.37,-34.06 33.34,-35.08 33.32,-36.11 33.38,-37.11 33.43,-38.10 32.70,-38.74 31.97,-39.38 31.18,-39.97 30.40,-40.55 29.43,-40.72 28.46,-40.89 27.20,-41.00 25.95,-41.10 24.51,-40.60 23.07,-40.10 21.61,-39.36 20.14,-38.62 19.01,-37.78 17.87,-36.94 16.56,-35.73 15.25,-34.52 14.19,-33.21 13.12,-31.90 12.18,-29.78 11.23,-27.66 10.54,-25.35 9.85,-23.04 9.26,-20.62 8.67,-18.21 8.44,-15.84 8.21,-13.48 7.80,-10.39 7.38,-7.30 7.23,-4.90 7.08,-2.50 7.01,-0.34 6.94,1.81 6.91,3.31 6.88,4.80 7.12,6.10 7.36,7.39 8.22,8.58 9.08,9.76 9.95,10.51 10.81,11.26 11.79,12.24 12.77,13.21 13.50,13.44 14.23,13.66 15.48,14.11 16.72,14.55 17.69,14.70 18.66,14.86 19.88,14.94 21.11,15.02 22.00,14.79 22.89,14.55 24.03,13.95 25.16,13.34 26.89,12.49 28.62,11.63 29.80,10.76 30.98,9.88 32.41,8.90 33.85,7.91 34.96,6.98 36.06,6.04 38.54,3.67 41.02,1.29 42.37,-0.02 43.73,-1.34 44.82,-2.66 45.90,-3.99 46.27,-4.96 46.64,-5.93 47.15,-7.03 47.65,-8.14 47.82,-8.76 47.99,-9.37 47.73,-10.13 47.47,-10.90 47.53,-11.12 47.59,-11.34 47.71,-11.54 47.82,-11.74 47.98,-11.91 48.13,-12.08 48.33,-12.21 48.52,-12.33 48.74,-12.41 48.96,-12.48 49.18,-12.50 49.41,-12.53 49.64,-12.49 49.87,-12.46 50.08,-12.37 50.30,-12.28 50.48,-12.15 50.67,-12.01 50.82,-11.84 50.97,-11.66 51.07,-11.45 51.17,-11.25 51.22,-11.02 51.27,-10.80 51.26,-10.57 51.26,-10.34 51.03,-9.81 50.81,-9.28 50.50,-8.68 50.20,-8.08 49.77,-7.24 49.35,-6.39 48.30,-4.30 47.25,-2.22 46.56,-0.53 45.86,1.15 45.27,2.72 44.68,4.28 44.47,5.66 44.26,7.03 43.83,8.36 43.39,9.69 43.51,10.42 43.63,11.15 44.01,11.63 44.40,12.12 44.98,12.46 45.56,12.81 46.60,12.65 47.64,12.48 48.56,11.97 49.47,11.46 50.80,10.69 52.13,9.93 53.73,8.03 55.32,6.14 56.58,4.18 57.84,2.22 58.99,0.49 60.13,-1.23 60.87,-2.50 61.62,-3.78 61.89,-4.78 62.16,-5.78 62.70,-6.50 63.24,-7.23 63.38,-7.79 63.51,-8.35 63.66,-8.48 63.80,-8.61 63.98,-8.70 64.15,-8.79 64.34,-8.83 64.53,-8.88 64.73,-8.88 64.92,-8.88 65.11,-8.83 65.30,-8.79 65.48,-8.70 65.65,-8.61 65.80,-8.48 65.94,-8.35 66.06,-8.18 66.17,-8.02 66.24,-7.84 66.31,-7.66 66.33,-7.46 66.35,-7.27 66.33,-7.07 66.31,-6.88 66.24,-6.69 66.17,-6.51 66.05,-6.35 65.94,-6.19 66.20,-7.23 66.45,-8.26 66.70,-7.47 66.96,-6.67 66.98,-5.11 67.01,-3.55 67.01,-1.66 67.01,0.22 66.72,2.31 66.42,4.41 66.31,6.58 66.19,8.75 66.14,10.56 66.09,12.37 65.73,13.71 65.37,15.04 65.17,15.16 64.98,15.27 64.90,15.48 64.81,15.69 64.67,15.87 64.54,16.05 64.36,16.19 64.19,16.33 63.98,16.43 63.78,16.53 63.56,16.57 63.34,16.61 63.11,16.61 62.89,16.60 62.67,16.53 62.45,16.47 62.26,16.36 62.06,16.24 61.90,16.09 61.74,15.93 61.62,15.74 61.50,15.55 61.43,15.34 61.36,15.12 61.34,14.90 61.32,14.67 61.36,14.45 61.40,14.23 61.69,13.45 61.98,12.68 62.39,10.97 62.80,9.26 63.26,7.08 63.72,4.90 64.82,2.11 65.92,-0.67 66.66,-2.64 67.40,-4.61 68.09,-5.89 68.79,-7.16 69.98,-7.94 71.17,-8.71 72.22,-8.72 73.26,-8.72 74.51,-8.38 75.76,-8.03 77.13,-7.61 78.50,-7.18 79.53,-7.03 80.55,-6.88 81.82,-6.81 83.08,-6.74 84.33,-6.99 85.57,-7.23 86.26,-7.56 86.95,-7.88 87.23,-8.59 87.50,-9.31 87.68,-9.47 87.86,-9.63 88.08,-9.74 88.30,-9.85 88.54,-9.90 88.77,-9.96 89.02,-9.96 89.26,-9.96 89.50,-9.90 89.73,-9.84 89.95,-9.72 90.16,-9.61 90.34,-9.44 90.52,-9.28 90.66,-9.08 90.80,-8.88 90.88,-8.65 90.97,-8.42 90.99,-8.18 91.02,-7.94 90.99,-7.70 90.96,-7.45 90.87,-7.23 90.78,-7.00 90.64,-6.80 90.50,-6.60 89.24,-6.07 87.99,-5.54 87.42,-4.79 86.85,-4.04 85.95,-2.85 85.04,-1.66 84.12,-0.07 83.20,1.51 82.55,3.00 81.89,4.48 81.30,6.17 80.72,7.86 80.77,9.48 80.82,11.10 80.90,11.78 80.97,12.47 81.58,12.57 82.19,12.67 83.37,12.55 84.56,12.43 86.16,11.88 87.76,11.34 89.21,10.33 90.66,9.32 92.16,8.05 93.66,6.78 95.11,5.13 96.56,3.49 98.89,0.24 101.22,-2.99 103.07,-6.32 104.93,-9.64 106.29,-13.02 107.65,-16.39 108.49,-19.79 109.34,-23.18 109.98,-26.36 110.62,-29.54 111.12,-31.82 111.62,-34.10 111.79,-34.77 111.97,-35.45 112.04,-35.64 112.12,-35.84 112.24,-36.01 112.36,-36.18 112.51,-36.31 112.67,-36.45 112.86,-36.54 113.04,-36.64 113.24,-36.69 113.44,-36.74 113.65,-36.73 113.86,-36.73 114.06,-36.68 114.26,-36.63 114.45,-36.53 114.63,-36.43 114.78,-36.29 114.94,-36.16 115.06,-35.98 115.17,-35.81 115.24,-35.62 115.32,-35.42 115.34,-35.21 115.36,-35.01 115.34,-34.80 115.31,-34.60 115.15,-33.95 114.98,-33.31 114.63,-32.19 114.28,-31.06 113.52,-29.35 112.77,-27.63 112.22,-25.64 111.67,-23.64 110.83,-20.98 109.99,-18.32 109.08,-14.40 108.18,-10.48 107.50,-7.08 106.82,-3.69 106.54,-1.17 106.26,1.35 105.83,4.21 105.41,7.06 105.49,8.66 105.57,10.25 105.83,11.40 106.10,12.55 106.61,13.09 107.12,13.63 107.66,13.81 108.20,14.00 109.07,13.87 109.95,13.74 111.66,12.68 113.37,11.62 114.95,10.05 116.54,8.48 117.78,6.97 119.03,5.45 120.38,3.39 121.74,1.33 122.26,-0.01 122.78,-1.37 123.29,-2.84 123.80,-4.30 123.95,-5.41 124.11,-6.51 124.21,-7.05 124.32,-7.60 123.75,-7.76 123.19,-7.92 122.33,-7.15 121.47,-6.39 120.42,-5.08 119.37,-3.77 118.35,-2.15 117.34,-0.52 116.67,1.21 115.99,2.94 115.41,4.81 114.83,6.67 114.90,8.62 114.97,10.57 115.41,11.75 115.86,12.94 116.62,13.59 117.37,14.24 118.89,14.71 120.41,15.19 122.24,15.30 124.07,15.41 124.17,15.42 124.28,15.43 124.38,15.47 124.48,15.51 124.55,15.59 124.63,15.66 124.69,15.75 124.74,15.84 124.76,15.94 124.78,16.05 124.77,16.15 124.75,16.26 124.71,16.35 124.66,16.45 124.58,16.53 124.51,16.60 124.41,16.65 124.32,16.70 124.21,16.71 124.11,16.73 124.00,16.71 123.90,16.69 123.81,16.63 123.71,16.58 123.64,16.50 123.57,16.42 123.53,16.33 123.49,16.23 123.48,16.12 123.47,16.02 123.49,15.91 123.52,15.81 123.58,15.72 123.63,15.63 123.72,15.56 123.80,15.50 123.90,15.46 124.00,15.42 124.10,15.42 124.21,15.42 124.31,15.45 124.41,15.48 124.50,15.54 124.59,15.60 124.65,15.69 124.71,15.78 124.74,15.88 124.77,15.98 124.77,16.08 124.77,16.19 124.73,16.29 124.70,16.39 124.63,16.47 124.56,16.56 124.47,16.61 124.38,16.67 124.28,16.70 124.18,16.72 124.18,16.72 124.18,16.72 122.06,17.17 119.93,17.62 117.63,17.29 115.33,16.96 113.86,15.73 112.40,14.50 111.67,12.61 110.94,10.71 110.95,8.12 110.96,5.53 111.60,3.49 112.24,1.44 113.08,-0.61 113.92,-2.66 115.12,-4.55 116.32,-6.43 117.77,-7.98 119.21,-9.52 120.46,-10.28 121.71,-11.05 123.02,-11.16 124.32,-11.28 125.22,-10.77 126.11,-10.26 126.75,-9.14 127.38,-8.02 127.29,-6.97 127.20,-5.92 126.90,-4.60 126.59,-3.29 126.01,-1.78 125.44,-0.28 124.76,1.30 124.07,2.88 122.60,5.03 121.13,7.18 119.78,8.80 118.44,10.42 116.63,12.18 114.82,13.94 112.60,15.29 110.39,16.64 108.79,16.78 107.19,16.92 105.97,16.38 104.75,15.84 103.83,14.67 102.90,13.51 102.49,11.99 102.08,10.48 101.94,8.52 101.80,6.56 102.19,3.75 102.59,0.94 102.89,-1.73 103.18,-4.42 103.87,-7.87 104.56,-11.32 105.50,-15.38 106.45,-19.44 107.27,-22.04 108.09,-24.64 108.74,-26.90 109.38,-29.15 110.09,-30.68 110.79,-32.21 111.17,-33.31 111.56,-34.40 111.76,-34.92 111.97,-35.45 112.04,-35.64 112.12,-35.83 112.24,-36.00 112.36,-36.18 112.51,-36.31 112.67,-36.45 112.86,-36.54 113.04,-36.64 113.24,-36.69 113.44,-36.74 113.65,-36.73 113.86,-36.73 114.06,-36.68 114.26,-36.63 114.45,-36.53 114.63,-36.43 114.78,-36.29 114.94,-36.16 115.05,-35.98 115.17,-35.81 115.24,-35.62 115.32,-35.42 115.34,-35.22 115.36,-35.01 115.34,-34.80 115.31,-34.60 115.00,-33.95 114.70,-33.31 114.06,-31.14 113.43,-28.97 112.75,-25.73 112.08,-22.50 111.19,-18.92 110.29,-15.35 108.91,-11.79 107.53,-8.23 105.64,-4.71 103.75,-1.19 101.34,2.19 98.93,5.59 97.33,7.38 95.73,9.17 94.11,10.58 92.50,11.99 90.67,13.23 88.85,14.46 86.82,15.14 84.78,15.82 82.83,15.88 80.87,15.93 79.49,15.09 78.12,14.25 77.59,12.73 77.06,11.20 77.03,8.97 77.01,6.74 77.60,4.79 78.20,2.83 78.95,1.15 79.71,-0.52 80.77,-2.31 81.83,-4.11 82.88,-5.48 83.93,-6.84 85.71,-8.07 87.50,-9.31 87.68,-9.47 87.86,-9.63 88.08,-9.74 88.30,-9.85 88.53,-9.90 88.77,-9.96 89.02,-9.96 89.26,-9.96 89.50,-9.90 89.73,-9.84 89.95,-9.72 90.16,-9.61 90.34,-9.44 90.52,-9.28 90.66,-9.08 90.80,-8.88 90.88,-8.65 90.97,-8.42 90.99,-8.18 91.02,-7.94 90.99,-7.70 90.96,-7.45 90.87,-7.23 90.78,-7.00 90.64,-6.80 90.50,-6.60 90.44,-6.91 90.38,-7.22 89.38,-6.08 88.38,-4.94 87.28,-4.47 86.17,-4.00 84.54,-3.74 82.92,-3.47 81.48,-3.56 80.05,-3.64 78.78,-3.85 77.52,-4.06 76.20,-4.49 74.87,-4.91 73.86,-5.21 72.84,-5.51 72.13,-5.49 71.43,-5.47 70.92,-4.48 70.42,-3.49 69.68,-1.48 68.95,0.52 67.94,3.05 66.94,5.57 66.49,7.77 66.05,9.97 65.69,11.81 65.32,13.65 65.15,14.46 64.98,15.27 64.90,15.48 64.81,15.69 64.67,15.87 64.54,16.05 64.36,16.19 64.19,16.33 63.98,16.43 63.78,16.53 63.56,16.57 63.34,16.61 63.11,16.61 62.89,16.60 62.67,16.53 62.45,16.47 62.26,16.36 62.06,16.24 61.90,16.09 61.74,15.93 61.62,15.74 61.50,15.55 61.43,15.34 61.36,15.12 61.34,14.90 61.32,14.67 61.36,14.45 61.40,14.23 61.47,14.02 61.54,13.81 61.80,13.01 62.05,12.22 62.11,10.38 62.16,8.54 62.29,6.18 62.42,3.82 62.69,2.02 62.97,0.21 62.97,-1.65 62.97,-3.52 63.14,-4.74 63.31,-5.96 63.41,-7.15 63.51,-8.35 63.66,-8.48 63.80,-8.61 63.98,-8.70 64.15,-8.79 64.34,-8.83 64.53,-8.88 64.73,-8.88 64.92,-8.88 65.11,-8.83 65.30,-8.79 65.48,-8.70 65.65,-8.61 65.80,-8.48 65.94,-8.35 66.06,-8.18 66.17,-8.02 66.24,-7.84 66.31,-7.66 66.33,-7.46 66.35,-7.27 66.33,-7.07 66.31,-6.88 66.24,-6.69 66.17,-6.51 66.05,-6.35 65.94,-6.19 65.40,-5.53 64.87,-4.87 64.48,-3.61 64.10,-2.34 63.31,-1.00 62.52,0.33 61.39,2.06 60.27,3.78 58.91,5.89 57.55,8.00 55.67,10.27 53.80,12.54 52.38,13.45 50.97,14.36 49.48,15.09 47.99,15.83 46.09,15.88 44.18,15.93 43.25,15.43 42.32,14.92 41.63,14.31 40.94,13.70 40.47,12.65 40.01,11.60 39.89,10.13 39.77,8.66 40.12,7.53 40.48,6.40 40.78,4.68 41.08,2.96 41.69,1.31 42.29,-0.33 43.06,-2.13 43.83,-3.94 44.87,-6.03 45.91,-8.12 46.34,-8.98 46.78,-9.83 47.13,-10.36 47.47,-10.90 47.53,-11.12 47.59,-11.34 47.71,-11.54 47.82,-11.74 47.98,-11.91 48.13,-12.08 48.33,-12.21 48.52,-12.33 48.74,-12.41 48.95,-12.48 49.18,-12.50 49.41,-12.53 49.64,-12.49 49.87,-12.46 50.08,-12.37 50.30,-12.28 50.48,-12.15 50.67,-12.01 50.82,-11.84 50.97,-11.66 51.07,-11.45 51.17,-11.25 51.22,-11.02 51.27,-10.80 51.26,-10.57 51.26,-10.34 51.35,-10.38 51.44,-10.43 51.41,-9.42 51.38,-8.42 51.13,-7.54 50.87,-6.67 50.39,-5.62 49.91,-4.57 49.29,-3.18 48.68,-1.79 47.47,-0.27 46.26,1.24 44.90,2.57 43.54,3.89 40.99,6.38 38.44,8.87 37.20,9.92 35.95,10.96 34.55,11.93 33.15,12.89 31.71,13.90 30.28,14.92 28.56,15.79 26.84,16.66 25.28,17.42 23.72,18.18 22.32,18.45 20.92,18.72 19.47,18.63 18.01,18.55 16.74,18.31 15.46,18.08 14.14,17.59 12.81,17.11 11.54,16.51 10.28,15.92 9.26,14.95 8.25,13.99 7.13,12.89 6.01,11.79 4.92,9.97 3.82,8.15 3.51,6.44 3.20,4.74 3.23,3.22 3.26,1.69 3.33,-0.52 3.41,-2.75 3.59,-5.26 3.78,-7.76 4.16,-10.81 4.53,-13.86 4.82,-16.47 5.10,-19.08 5.72,-21.60 6.34,-24.11 7.13,-26.65 7.93,-29.18 9.12,-31.70 10.32,-34.21 11.60,-35.69 12.87,-37.17 14.35,-38.46 15.83,-39.75 17.21,-40.74 18.59,-41.73 20.33,-42.58 22.07,-43.43 24.13,-43.96 26.18,-44.49 27.72,-44.33 29.26,-44.17 30.82,-43.72 32.37,-43.26 33.46,-42.38 34.55,-41.49 35.53,-40.01 36.50,-38.54 36.53,-37.27 36.55,-36.01 36.44,-34.42 36.33,-32.83 35.51,-31.02 34.69,-29.21 33.51,-27.14 32.34,-25.07 30.95,-22.91 29.56,-20.75 27.73,-18.54 25.91,-16.32 23.65,-13.84 21.40,-11.36 18.81,-8.93 16.22,-6.50 12.99,-4.28 9.75,-2.05 7.60,-0.99 5.45,0.07 4.05,0.46 2.65,0.85 1.44,0.88 0.22,0.90 0.11,0.92 0.00,0.93 -0.10,0.92 -0.22,0.90 -0.32,0.87 -0.43,0.83 -0.52,0.76 -0.61,0.70 -0.69,0.61 -0.76,0.53 -0.82,0.43 -0.87,0.33 -0.90,0.22 -0.92,0.11 -0.92,0.00 -0.92,-0.10 -0.90,-0.21 -0.87,-0.32 -0.82,-0.42 -0.77,-0.52 -0.69,-0.61 -0.62,-0.69 -0.53,-0.76 -0.43,-0.82 -0.33,-0.86 -0.22,-0.90 -0.22,-0.90 L -0.22,-0.90 Z"></path></g><g transform="translate(446 31) rotate(0 3.5 3.5)" stroke="none"><path fill="#2f9e44" d="M 0,-0.86 Q 0,-0.86 0.57,-1.20 1.15,-1.54 1.68,-1.54 2.21,-1.53 2.39,-1.51 2.58,-1.49 2.75,-1.42 2.92,-1.36 3.08,-1.25 3.23,-1.15 3.35,-1.01 3.47,-0.87 3.56,-0.70 3.65,-0.54 3.69,-0.36 3.73,-0.18 3.73,0.00 3.73,0.18 3.69,0.36 3.65,0.54 3.56,0.70 3.47,0.87 3.35,1.01 3.23,1.15 3.08,1.25 2.92,1.36 2.75,1.42 2.58,1.49 2.39,1.51 2.21,1.53 2.99,1.43 3.77,1.33 3.75,2.05 3.72,2.77 4.16,3.41 4.60,4.05 6.15,5.46 7.71,6.87 7.66,6.97 7.62,7.06 7.55,7.14 7.48,7.22 7.38,7.27 7.29,7.32 7.18,7.34 7.08,7.36 6.98,7.34 6.87,7.32 6.78,7.27 6.68,7.23 6.61,7.15 6.53,7.07 6.49,6.98 6.44,6.88 6.43,6.77 6.42,6.67 6.44,6.57 6.46,6.46 6.52,6.37 6.57,6.28 6.65,6.21 6.73,6.14 6.83,6.10 6.93,6.06 7.03,6.05 7.14,6.05 7.24,6.07 7.34,6.10 7.43,6.16 7.52,6.22 7.59,6.30 7.65,6.39 7.69,6.49 7.72,6.59 7.72,6.69 7.72,6.80 7.69,6.90 7.66,7.00 7.59,7.09 7.53,7.17 7.44,7.23 7.36,7.29 7.25,7.32 7.15,7.35 7.04,7.35 6.94,7.34 6.84,7.30 6.74,7.26 6.66,7.20 6.58,7.13 6.52,7.04 6.47,6.95 6.44,6.84 6.42,6.74 6.43,6.63 6.44,6.53 6.44,6.53 6.44,6.53 5.42,6.86 4.41,7.19 3.30,6.74 2.19,6.29 1.61,5.51 1.03,4.74 0.69,3.77 0.35,2.80 0.37,1.88 0.40,0.96 1.30,-0.28 2.21,-1.53 2.39,-1.51 2.58,-1.49 2.75,-1.42 2.92,-1.36 3.08,-1.25 3.23,-1.15 3.35,-1.01 3.47,-0.87 3.56,-0.70 3.65,-0.54 3.69,-0.36 3.73,-0.18 3.73,-0.00 3.73,0.18 3.69,0.36 3.65,0.54 3.56,0.70 3.47,0.87 3.35,1.01 3.23,1.15 3.08,1.25 2.92,1.36 2.75,1.42 2.58,1.49 2.39,1.51 2.21,1.53 1.68,1.54 1.15,1.54 0.57,1.20 0,0.86 -0.10,0.85 -0.20,0.84 -0.30,0.80 -0.40,0.76 -0.48,0.70 -0.57,0.65 -0.64,0.57 -0.71,0.49 -0.76,0.40 -0.81,0.30 -0.83,0.20 -0.86,0.10 -0.86,-0.00 -0.86,-0.10 -0.83,-0.20 -0.81,-0.30 -0.76,-0.40 -0.71,-0.49 -0.64,-0.57 -0.57,-0.65 -0.48,-0.70 -0.40,-0.76 -0.30,-0.80 -0.20,-0.84 -0.10,-0.85 0.00,-0.86 0.00,-0.86 L 0,-0.86 Z"></path></g></svg>