<svg version="1.1" xmlns="http://www.w3.org/2000/svg" viewBox="0 0 467.72602198129516 334.49880679672583" width="467.72602198129516" height="334.49880679672583" filter="invert(93%) hue-rotate(180deg)" class="excalidraw-svg"><!-- svg-source:excalidraw --><metadata></metadata><defs><style class="style-fonts">
      </style></defs><rect x="0" y="0" width="467.72602198129516" height="334.49880679672583" fill="transparent"></rect><g stroke-linecap="round"><g transform="translate(136 10.49880679672583) rotate(0 -1 135.5)"><path d="M-1.06 0.36 C-1.4 45.42, -2.73 224.87, -2.97 270.14 M0.59 -0.5 C0.7 44.71, -0.08 226.12, -0.76 271.23" stroke="#1e1e1e" stroke-width="2" fill="none"></path></g></g><mask></mask><g stroke-linecap="round"><g transform="translate(457 279.49880679672583) rotate(0 -169 -1.5)"><path d="M-0.97 -0.86 C-57.21 -1.25, -282.17 -1.54, -338.49 -2.01 M0.73 1.31 C-55.62 0.56, -283.5 -2.94, -339.69 -3.61" stroke="#1e1e1e" stroke-width="2" fill="none"></path></g></g><mask></mask><g transform="translate(134 271.49880679672583) rotate(0 161 -115.5)" stroke="none"><path fill="#1e1e1e" d="M -1.09,-1.63 Q -1.09,-1.63 -0.46,-2.57 0.15,-3.50 1.20,-4.42 2.25,-5.33 3.02,-6.08 3.79,-6.83 4.45,-7.88 5.12,-8.93 6.15,-10.04 7.18,-11.15 7.95,-12.83 8.71,-14.50 9.30,-15.47 9.90,-16.43 10.47,-17.55 11.05,-18.66 12.00,-19.81 12.96,-20.96 13.73,-22.77 14.50,-24.59 15.35,-26.21 16.19,-27.84 16.84,-29.12 17.49,-30.39 18.05,-31.50 18.61,-32.60 19.26,-34.42 19.90,-36.23 20.33,-37.73 20.76,-39.22 21.32,-40.26 21.88,-41.29 22.61,-42.70 23.34,-44.11 23.99,-46.46 24.65,-48.80 25.18,-51.27 25.71,-53.73 26.20,-55.02 26.68,-56.30 27.20,-58.57 27.72,-60.83 28.26,-61.92 28.80,-63.02 29.28,-65.15 29.75,-67.28 30.24,-69.54 30.73,-71.81 31.26,-74.07 31.79,-76.33 32.59,-78.06 33.38,-79.78 33.93,-81.47 34.47,-83.15 35.04,-84.59 35.61,-86.03 36.09,-87.64 36.56,-89.25 37.11,-90.66 37.65,-92.07 38.18,-93.26 38.71,-94.45 39.18,-95.72 39.65,-96.98 40.47,-98.80 41.30,-100.61 41.92,-101.93 42.54,-103.25 43.15,-105.35 43.76,-107.44 44.24,-108.54 44.72,-109.64 45.21,-110.69 45.69,-111.74 46.19,-112.76 46.69,-113.78 47.42,-115.57 48.15,-117.37 49.25,-119.91 50.35,-122.44 50.93,-123.56 51.51,-124.67 52.05,-125.72 52.58,-126.76 53.04,-127.95 53.50,-129.13 54.03,-130.33 54.56,-131.52 55.03,-132.78 55.49,-134.04 55.96,-135.66 56.42,-137.27 56.60,-138.42 56.78,-139.56 57.26,-140.76 57.75,-141.96 58.66,-143.71 59.58,-145.46 60.17,-146.42 60.76,-147.39 61.53,-149.64 62.31,-151.90 62.85,-153.35 63.39,-154.80 64.02,-155.94 64.65,-157.07 65.07,-158.16 65.50,-159.25 66.10,-161.00 66.70,-162.75 67.18,-163.77 67.65,-164.80 68.04,-166.40 68.43,-168.00 69.05,-170.24 69.66,-172.48 70.29,-174.05 70.93,-175.63 71.38,-176.93 71.83,-178.24 72.62,-179.87 73.40,-181.50 74.05,-183.16 74.69,-184.83 75.25,-186.10 75.82,-187.38 76.25,-188.53 76.69,-189.68 77.21,-191.25 77.73,-192.83 78.33,-194.24 78.93,-195.65 79.41,-197.06 79.88,-198.47 80.44,-199.65 81.00,-200.83 81.38,-201.91 81.76,-203.00 82.31,-204.68 82.85,-206.36 83.87,-208.05 84.88,-209.73 85.45,-210.83 86.03,-211.92 86.88,-213.11 87.73,-214.31 88.26,-215.87 88.79,-217.44 89.49,-218.69 90.20,-219.94 91.20,-221.05 92.20,-222.16 93.20,-223.23 94.21,-224.29 95.51,-225.60 96.80,-226.91 97.75,-227.49 98.69,-228.07 99.99,-229.25 101.28,-230.43 102.41,-231.12 103.54,-231.81 105.20,-232.30 106.86,-232.79 108.42,-233.30 109.98,-233.82 111.10,-233.85 112.21,-233.89 113.73,-233.89 115.25,-233.90 116.66,-233.91 118.07,-233.93 119.85,-233.47 121.62,-233.01 122.96,-232.99 124.31,-232.97 125.39,-232.94 126.46,-232.91 127.58,-232.46 128.71,-232.01 130.25,-231.50 131.79,-231.00 132.86,-230.16 133.92,-229.32 135.42,-228.65 136.91,-227.98 137.92,-227.49 138.94,-227.00 140.40,-226.51 141.87,-226.01 143.09,-224.95 144.32,-223.90 145.67,-222.61 147.02,-221.32 147.99,-220.82 148.97,-220.31 149.97,-219.82 150.97,-219.32 152.07,-218.26 153.17,-217.20 154.18,-216.20 155.19,-215.19 156.16,-214.17 157.13,-213.16 158.13,-212.16 159.13,-211.16 159.75,-210.03 160.38,-208.90 161.14,-207.53 161.90,-206.17 162.75,-204.96 163.61,-203.75 164.18,-202.70 164.74,-201.65 165.67,-200.20 166.60,-198.75 167.61,-197.28 168.61,-195.80 169.20,-194.17 169.78,-192.54 170.29,-191.04 170.79,-189.53 171.29,-188.11 171.78,-186.68 172.26,-185.67 172.74,-184.67 173.25,-183.64 173.76,-182.62 174.28,-181.07 174.81,-179.53 174.94,-177.89 175.07,-176.25 175.08,-174.81 175.08,-173.36 175.53,-171.78 175.98,-170.21 176.47,-168.71 176.96,-167.21 177.65,-165.80 178.34,-164.40 179.05,-162.53 179.75,-160.67 180.24,-159.67 180.74,-158.67 181.24,-157.64 181.75,-156.62 182.09,-155.46 182.42,-154.31 182.70,-152.78 182.97,-151.25 184.03,-149.45 185.08,-147.66 185.64,-146.28 186.20,-144.90 186.48,-143.53 186.76,-142.16 186.90,-140.35 187.03,-138.53 187.39,-137.27 187.74,-136.02 188.49,-134.87 189.23,-133.72 189.69,-132.58 190.14,-131.44 190.49,-130.12 190.84,-128.79 191.16,-127.57 191.48,-126.34 191.96,-124.89 192.43,-123.44 192.73,-121.87 193.03,-120.29 193.48,-119.03 193.93,-117.76 194.40,-116.69 194.87,-115.62 195.19,-114.48 195.50,-113.34 195.95,-112.08 196.39,-110.82 196.70,-109.11 197.02,-107.40 197.92,-105.66 198.83,-103.92 199.50,-102.82 200.18,-101.71 200.59,-100.04 201.01,-98.37 201.71,-96.91 202.42,-95.44 203.14,-93.54 203.85,-91.64 204.35,-90.68 204.85,-89.73 205.45,-88.67 206.04,-87.61 207.13,-85.75 208.21,-83.88 208.84,-82.56 209.47,-81.25 210.28,-80.43 211.08,-79.61 211.72,-78.14 212.36,-76.66 213.05,-75.81 213.74,-74.96 214.78,-73.39 215.83,-71.81 216.78,-70.88 217.73,-69.94 218.66,-68.95 219.58,-67.96 220.17,-66.97 220.76,-65.98 221.63,-64.64 222.49,-63.30 223.29,-62.51 224.09,-61.72 224.89,-60.88 225.70,-60.05 226.67,-59.07 227.64,-58.09 228.64,-57.11 229.64,-56.12 231.13,-54.67 232.62,-53.22 233.48,-52.34 234.34,-51.46 235.96,-49.87 237.57,-48.28 238.52,-47.68 239.47,-47.07 240.48,-46.11 241.48,-45.15 242.86,-44.22 244.23,-43.29 245.23,-42.79 246.22,-42.29 247.66,-41.36 249.10,-40.43 250.13,-39.89 251.16,-39.34 252.25,-38.75 253.35,-38.15 254.80,-36.84 256.25,-35.53 257.38,-34.87 258.51,-34.20 260.02,-33.21 261.53,-32.21 262.52,-30.82 263.51,-29.42 264.47,-28.40 265.43,-27.37 266.47,-26.38 267.50,-25.39 268.53,-24.80 269.55,-24.21 271.27,-23.80 272.99,-23.39 274.59,-22.52 276.19,-21.65 277.22,-21.11 278.25,-20.56 279.26,-20.06 280.26,-19.56 281.26,-19.06 282.26,-18.56 283.26,-18.06 284.26,-17.56 285.74,-16.95 287.21,-16.34 288.71,-15.49 290.20,-14.64 291.61,-14.52 293.02,-14.40 294.61,-13.53 296.20,-12.65 298.19,-12.01 300.18,-11.36 301.23,-10.48 302.29,-9.59 303.65,-9.49 305.02,-9.40 306.17,-9.42 307.32,-9.45 308.79,-9.44 310.26,-9.44 311.76,-9.44 313.26,-9.44 314.37,-9.41 315.48,-9.38 316.71,-8.90 317.94,-8.42 319.37,-7.51 320.81,-6.60 320.96,-6.75 321.11,-6.89 321.30,-6.99 321.50,-7.08 321.71,-7.10 321.92,-7.13 322.13,-7.08 322.33,-7.04 322.52,-6.93 322.70,-6.83 322.84,-6.66 322.98,-6.50 323.06,-6.31 323.14,-6.11 323.15,-5.90 323.17,-5.69 323.11,-5.48 323.06,-5.28 322.94,-5.10 322.82,-4.92 322.66,-4.79 322.49,-4.66 322.29,-4.59 322.09,-4.52 321.88,-4.52 321.66,-4.52 321.46,-4.58 321.26,-4.65 321.09,-4.78 320.92,-4.90 320.80,-5.08 320.68,-5.25 320.62,-5.46 320.56,-5.66 320.57,-5.87 320.58,-6.08 320.65,-6.28 320.73,-6.48 320.87,-6.64 321.00,-6.81 321.18,-6.92 321.36,-7.03 321.57,-7.08 321.78,-7.13 321.99,-7.11 322.20,-7.08 322.39,-7.00 322.59,-6.91 322.74,-6.77 322.90,-6.62 323.00,-6.43 323.10,-6.25 323.14,-6.04 323.17,-5.83 323.14,-5.62 323.11,-5.41 323.01,-5.22 322.92,-5.03 322.92,-5.03 322.92,-5.03 321.01,-3.31 319.10,-1.58 317.77,-1.70 316.44,-1.83 315.35,-2.19 314.26,-2.54 312.75,-2.55 311.25,-2.55 309.74,-2.55 308.23,-2.56 307.16,-2.57 306.10,-2.59 304.76,-2.72 303.41,-2.84 302.13,-3.26 300.85,-3.67 299.31,-4.49 297.77,-5.30 296.26,-6.01 294.76,-6.71 293.39,-7.44 292.02,-8.17 290.97,-8.41 289.92,-8.65 288.61,-8.80 287.30,-8.94 286.29,-9.43 285.28,-9.92 284.26,-10.43 283.23,-10.95 281.60,-12.12 279.96,-13.29 278.96,-13.79 277.96,-14.29 276.96,-14.79 275.96,-15.29 274.96,-15.78 273.96,-16.28 272.99,-16.73 272.02,-17.18 270.94,-17.43 269.85,-17.68 268.45,-17.87 267.05,-18.07 265.47,-19.15 263.89,-20.22 262.99,-21.15 262.09,-22.09 260.78,-23.37 259.46,-24.65 258.65,-25.48 257.83,-26.31 256.93,-27.20 256.04,-28.09 254.63,-29.06 253.23,-30.03 252.10,-30.62 250.97,-31.20 250.08,-32.10 249.18,-33.00 248.08,-33.55 246.98,-34.11 245.58,-34.89 244.17,-35.67 243.18,-36.34 242.20,-37.01 241.11,-37.56 240.02,-38.12 238.46,-39.19 236.90,-40.27 235.94,-41.23 234.97,-42.19 233.72,-43.38 232.48,-44.57 230.98,-45.68 229.48,-46.79 228.67,-47.63 227.86,-48.48 226.90,-49.39 225.95,-50.30 224.91,-51.33 223.88,-52.36 222.88,-53.37 221.89,-54.38 220.88,-55.41 219.88,-56.44 219.19,-57.60 218.50,-58.76 217.67,-59.66 216.83,-60.56 215.82,-61.99 214.80,-63.42 213.35,-64.94 211.91,-66.47 211.21,-67.63 210.51,-68.79 209.36,-70.41 208.22,-72.03 207.41,-72.83 206.59,-73.64 206.01,-75.30 205.43,-76.97 204.51,-78.17 203.59,-79.36 202.98,-80.32 202.37,-81.29 201.62,-82.57 200.88,-83.86 199.85,-85.45 198.82,-87.05 198.29,-88.59 197.76,-90.14 197.15,-91.52 196.55,-92.90 196.16,-94.02 195.78,-95.14 195.21,-96.60 194.65,-98.06 194.17,-99.19 193.69,-100.32 192.73,-102.26 191.76,-104.21 191.25,-105.33 190.74,-106.44 190.55,-107.58 190.36,-108.72 189.96,-109.86 189.56,-111.00 189.12,-112.71 188.68,-114.41 188.22,-115.81 187.76,-117.22 187.15,-119.14 186.54,-121.06 186.06,-122.61 185.58,-124.15 185.17,-126.23 184.77,-128.30 184.24,-129.28 183.71,-130.25 183.45,-131.35 183.18,-132.46 182.44,-134.09 181.70,-135.72 181.24,-137.74 180.78,-139.75 180.59,-141.19 180.40,-142.64 179.66,-144.31 178.92,-145.99 178.38,-147.10 177.85,-148.20 177.24,-150.11 176.64,-152.01 176.27,-153.51 175.90,-155.00 175.40,-156.01 174.90,-157.03 174.36,-158.10 173.83,-159.18 173.23,-160.55 172.63,-161.92 172.25,-163.03 171.87,-164.13 171.37,-165.65 170.86,-167.17 170.29,-168.93 169.72,-170.68 169.29,-172.77 168.87,-174.86 168.87,-176.49 168.88,-178.12 168.39,-179.57 167.90,-181.03 167.37,-182.10 166.84,-183.18 166.24,-184.55 165.64,-185.93 165.26,-187.03 164.89,-188.13 164.40,-189.61 163.90,-191.10 162.98,-192.92 162.05,-194.75 161.10,-196.03 160.16,-197.32 159.55,-198.20 158.95,-199.08 157.96,-201.05 156.98,-203.02 156.40,-204.94 155.83,-206.86 154.83,-207.86 153.83,-208.86 152.78,-209.89 151.74,-210.92 150.91,-211.74 150.07,-212.56 149.23,-213.45 148.38,-214.35 147.40,-214.84 146.42,-215.33 145.35,-215.88 144.28,-216.43 142.75,-217.46 141.21,-218.50 140.26,-219.40 139.31,-220.30 138.36,-220.81 137.42,-221.32 136.42,-221.82 135.43,-222.32 133.88,-222.89 132.34,-223.45 131.18,-224.56 130.01,-225.67 128.78,-225.98 127.55,-226.29 125.88,-226.67 124.20,-227.05 123.07,-227.10 121.95,-227.14 120.48,-227.62 119.00,-228.10 117.92,-228.09 116.83,-228.07 115.06,-228.08 113.29,-228.08 112.04,-228.37 110.79,-228.66 109.22,-227.83 107.65,-227.00 106.42,-226.56 105.20,-226.12 104.09,-225.09 102.97,-224.06 101.92,-223.41 100.87,-222.76 99.62,-221.50 98.38,-220.25 97.35,-219.20 96.32,-218.15 95.43,-217.24 94.54,-216.33 94.06,-215.15 93.58,-213.97 93.21,-212.66 92.85,-211.34 91.66,-209.74 90.47,-208.14 89.73,-206.76 88.99,-205.38 88.33,-204.25 87.68,-203.13 87.15,-201.27 86.61,-199.41 86.11,-198.38 85.61,-197.36 85.14,-196.28 84.67,-195.21 84.15,-193.76 83.64,-192.31 83.14,-190.81 82.65,-189.31 82.12,-187.69 81.59,-186.06 81.19,-184.73 80.79,-183.40 80.09,-182.12 79.39,-180.83 78.50,-178.92 77.61,-177.01 77.29,-175.72 76.97,-174.42 76.30,-173.33 75.63,-172.24 75.11,-170.55 74.59,-168.85 74.37,-167.69 74.15,-166.52 73.15,-163.51 72.16,-160.51 71.57,-158.77 70.97,-157.02 69.94,-154.87 68.91,-152.71 68.32,-151.13 67.72,-149.56 67.14,-148.27 66.56,-146.99 65.78,-145.08 65.00,-143.17 64.38,-141.77 63.76,-140.37 63.17,-139.47 62.58,-138.56 62.34,-137.10 62.09,-135.63 61.55,-133.80 61.01,-131.98 60.47,-130.55 59.93,-129.12 59.45,-128.05 58.97,-126.98 58.39,-125.54 57.82,-124.10 57.27,-123.03 56.73,-121.96 56.12,-120.80 55.52,-119.64 54.91,-118.58 54.30,-117.52 53.91,-116.32 53.52,-115.11 52.69,-113.18 51.85,-111.24 51.36,-110.26 50.87,-109.27 50.40,-108.29 49.92,-107.32 49.13,-105.50 48.34,-103.68 47.97,-102.28 47.61,-100.87 46.99,-99.58 46.36,-98.29 45.61,-96.66 44.86,-95.04 44.33,-93.61 43.80,-92.19 43.32,-91.12 42.84,-90.05 42.37,-88.85 41.90,-87.64 41.34,-85.80 40.78,-83.96 40.27,-82.70 39.76,-81.43 39.11,-79.46 38.46,-77.48 37.53,-75.21 36.59,-72.94 36.40,-71.63 36.21,-70.33 35.89,-69.18 35.57,-68.03 35.05,-65.89 34.53,-63.75 33.86,-61.51 33.19,-59.27 32.85,-58.10 32.52,-56.93 32.26,-55.60 32.00,-54.28 31.60,-53.27 31.20,-52.25 30.87,-51.05 30.54,-49.84 30.31,-48.48 30.09,-47.13 29.68,-45.80 29.26,-44.48 28.83,-43.00 28.40,-41.52 27.29,-39.49 26.17,-37.46 25.83,-36.41 25.49,-35.35 24.95,-34.07 24.40,-32.78 24.05,-31.43 23.70,-30.07 23.13,-28.94 22.56,-27.80 21.89,-26.51 21.23,-25.22 20.33,-23.50 19.44,-21.79 18.85,-20.81 18.27,-19.83 17.30,-18.35 16.33,-16.87 15.93,-15.64 15.53,-14.41 14.74,-13.36 13.96,-12.31 13.13,-10.73 12.31,-9.15 11.36,-7.73 10.41,-6.32 9.68,-5.50 8.96,-4.69 8.37,-3.75 7.79,-2.82 6.93,-1.98 6.07,-1.14 4.68,0.03 3.29,1.20 2.19,1.42 1.09,1.63 0.87,1.74 0.66,1.85 0.43,1.90 0.20,1.95 -0.03,1.95 -0.26,1.94 -0.49,1.88 -0.72,1.82 -0.93,1.71 -1.14,1.60 -1.31,1.44 -1.49,1.28 -1.62,1.08 -1.75,0.88 -1.83,0.66 -1.91,0.43 -1.94,0.20 -1.96,-0.03 -1.93,-0.26 -1.90,-0.50 -1.81,-0.72 -1.72,-0.94 -1.58,-1.13 -1.45,-1.32 -1.27,-1.48 -1.09,-1.63 -1.09,-1.63 L -1.09,-1.63 Z"></path></g><g transform="translate(236 291.49880679672583) rotate(0 0 16.5)" stroke="none"><path fill="#1e1e1e" d="M 2.07,-0.23 Q 2.07,-0.23 3.00,2.28 3.93,4.80 3.75,10.16 3.57,15.53 3.17,18.98 2.77,22.42 2.54,24.63 2.30,26.84 1.31,29.64 0.33,32.44 0.28,32.65 0.24,32.86 0.14,33.04 0.03,33.23 -0.11,33.37 -0.27,33.51 -0.47,33.59 -0.66,33.68 -0.88,33.69 -1.09,33.71 -1.29,33.66 -1.50,33.61 -1.68,33.49 -1.86,33.38 -1.99,33.21 -2.12,33.05 -2.20,32.85 -2.27,32.65 -2.27,32.43 -2.28,32.22 -2.22,32.02 -2.15,31.82 -2.03,31.64 -1.90,31.47 -1.73,31.35 -1.56,31.22 -1.36,31.16 -1.15,31.10 -0.94,31.11 -0.73,31.11 -0.53,31.19 -0.33,31.26 -0.16,31.39 -0.00,31.53 0.11,31.71 0.22,31.89 0.27,32.09 0.32,32.30 0.30,32.51 0.29,32.72 0.20,32.92 0.12,33.11 -0.02,33.27 -0.16,33.43 -0.34,33.53 -0.53,33.64 -0.74,33.68 -0.95,33.72 -1.16,33.69 -1.37,33.66 -1.56,33.56 -1.75,33.47 -1.90,33.32 -2.05,33.17 -2.14,32.98 -2.23,32.79 -2.26,32.57 -2.29,32.36 -2.29,32.36 -2.29,32.36 -3.07,29.39 -3.86,26.42 -3.78,24.07 -3.71,21.73 -3.40,18.52 -3.08,15.31 -2.93,10.42 -2.78,5.54 -2.42,2.88 -2.07,0.23 -2.07,-0.02 -2.06,-0.27 -2.00,-0.51 -1.94,-0.75 -1.82,-0.98 -1.70,-1.20 -1.53,-1.38 -1.36,-1.57 -1.15,-1.71 -0.95,-1.85 -0.71,-1.94 -0.47,-2.03 -0.22,-2.05 0.02,-2.08 0.27,-2.05 0.51,-2.02 0.75,-1.92 0.98,-1.83 1.19,-1.69 1.39,-1.54 1.56,-1.35 1.72,-1.16 1.84,-0.94 1.95,-0.71 2.01,-0.47 2.07,-0.23 2.07,-0.23 L 2.07,-0.23 Z"></path></g><g transform="translate(256 298.49880679672583) rotate(0 -7 11.5)" stroke="none"><path fill="#1e1e1e" d="M 1.45,1.45 Q 1.45,1.45 0.61,2.91 -0.23,4.37 -1.45,5.30 -2.66,6.24 -3.73,7.52 -4.81,8.80 -5.97,10.04 -7.13,11.27 -7.91,12.08 -8.70,12.89 -9.75,13.17 -10.80,13.44 -9.76,14.11 -8.71,14.78 -7.90,15.64 -7.08,16.50 -5.84,17.24 -4.60,17.97 -3.59,19.39 -2.57,20.80 -2.36,20.77 -2.15,20.74 -1.94,20.78 -1.73,20.82 -1.55,20.92 -1.36,21.02 -1.22,21.18 -1.07,21.34 -0.99,21.53 -0.90,21.73 -0.89,21.94 -0.87,22.15 -0.92,22.36 -0.97,22.56 -1.08,22.74 -1.20,22.92 -1.36,23.06 -1.53,23.19 -1.72,23.27 -1.92,23.34 -2.14,23.35 -2.35,23.35 -2.55,23.29 -2.76,23.23 -2.93,23.11 -3.10,22.99 -3.23,22.81 -3.35,22.64 -3.41,22.44 -3.48,22.24 -3.47,22.02 -3.47,21.81 -3.40,21.61 -3.32,21.41 -3.19,21.25 -3.06,21.08 -2.88,20.96 -2.70,20.85 -2.50,20.80 -2.29,20.74 -2.08,20.76 -1.87,20.78 -1.67,20.86 -1.48,20.94 -1.32,21.08 -1.16,21.22 -1.05,21.41 -0.95,21.59 -0.91,21.80 -0.87,22.01 -0.89,22.22 -0.92,22.43 -1.01,22.62 -1.11,22.81 -1.26,22.96 -1.41,23.12 -1.60,23.21 -1.79,23.31 -1.79,23.31 -1.79,23.31 -4.84,23.23 -7.89,23.16 -9.69,21.95 -11.50,20.75 -12.43,19.77 -13.37,18.78 -14.26,17.69 -15.15,16.60 -15.63,15.46 -16.10,14.32 -15.83,13.04 -15.57,11.77 -14.29,10.25 -13.02,8.73 -12.26,7.94 -11.50,7.16 -10.40,5.99 -9.29,4.82 -7.74,3.14 -6.19,1.45 -5.27,0.84 -4.36,0.22 -2.91,-0.61 -1.45,-1.45 -1.26,-1.61 -1.06,-1.76 -0.84,-1.86 -0.61,-1.96 -0.36,-2.01 -0.12,-2.05 0.12,-2.04 0.37,-2.02 0.60,-1.95 0.84,-1.88 1.05,-1.75 1.27,-1.62 1.44,-1.44 1.62,-1.27 1.75,-1.05 1.88,-0.84 1.95,-0.60 2.02,-0.37 2.04,-0.12 2.05,0.12 2.01,0.36 1.96,0.61 1.86,0.84 1.76,1.06 1.61,1.26 1.45,1.45 1.45,1.45 L 1.45,1.45 Z"></path></g><g transform="translate(265 299.49880679672583) rotate(0 7 0.5)" stroke="none"><path fill="#1e1e1e" d="M 0.24,-2.20 Q 0.24,-2.20 2.87,-2.32 5.51,-2.44 7.12,-2.30 8.74,-2.15 10.90,-1.62 13.07,-1.08 13.28,-1.11 13.49,-1.14 13.70,-1.10 13.91,-1.07 14.10,-0.96 14.28,-0.86 14.43,-0.70 14.57,-0.55 14.66,-0.35 14.74,-0.16 14.76,0.04 14.78,0.26 14.73,0.46 14.68,0.67 14.57,0.85 14.46,1.03 14.29,1.16 14.13,1.30 13.93,1.37 13.73,1.45 13.52,1.46 13.31,1.46 13.10,1.40 12.90,1.34 12.73,1.22 12.55,1.10 12.43,0.93 12.30,0.76 12.24,0.55 12.17,0.35 12.17,0.14 12.18,-0.06 12.25,-0.26 12.32,-0.46 12.45,-0.63 12.58,-0.80 12.76,-0.91 12.94,-1.03 13.15,-1.08 13.35,-1.14 13.56,-1.12 13.78,-1.11 13.97,-1.02 14.17,-0.94 14.33,-0.80 14.49,-0.66 14.59,-0.48 14.70,-0.29 14.74,-0.08 14.78,0.11 14.76,0.32 14.73,0.53 14.64,0.73 14.54,0.92 14.40,1.07 14.25,1.22 14.06,1.32 13.87,1.41 13.87,1.41 13.87,1.41 11.09,2.60 8.30,3.79 6.57,3.69 4.83,3.59 2.29,2.90 -0.24,2.20 -0.50,2.14 -0.76,2.08 -1.00,1.96 -1.24,1.84 -1.44,1.66 -1.64,1.49 -1.80,1.27 -1.95,1.05 -2.05,0.80 -2.15,0.55 -2.18,0.28 -2.22,0.02 -2.19,-0.24 -2.16,-0.50 -2.06,-0.76 -1.97,-1.01 -1.82,-1.23 -1.67,-1.45 -1.47,-1.63 -1.28,-1.81 -1.04,-1.94 -0.80,-2.06 -0.54,-2.13 -0.29,-2.20 -0.02,-2.20 0.24,-2.20 0.24,-2.20 L 0.24,-2.20 Z"></path></g><g transform="translate(265 304.49880679672583) rotate(0 0.5 9)" stroke="none"><path fill="#1e1e1e" d="M 2.26,0 Q 2.26,0 2.51,2.01 2.77,4.02 3.05,5.83 3.34,7.63 3.47,10.05 3.60,12.46 2.94,14.72 2.27,16.98 2.25,17.19 2.22,17.40 2.13,17.59 2.03,17.78 1.88,17.93 1.74,18.08 1.55,18.18 1.36,18.28 1.15,18.31 0.94,18.34 0.73,18.30 0.52,18.26 0.33,18.15 0.15,18.05 0.00,17.89 -0.13,17.74 -0.21,17.54 -0.30,17.35 -0.32,17.14 -0.34,16.92 -0.29,16.72 -0.24,16.51 -0.12,16.33 -0.01,16.15 0.14,16.02 0.31,15.88 0.51,15.81 0.71,15.73 0.92,15.73 1.13,15.72 1.33,15.78 1.54,15.84 1.71,15.97 1.89,16.09 2.01,16.26 2.14,16.43 2.20,16.63 2.26,16.84 2.26,17.05 2.25,17.26 2.18,17.46 2.11,17.66 1.98,17.83 1.85,17.99 1.67,18.11 1.49,18.23 1.28,18.28 1.08,18.33 0.87,18.31 0.65,18.30 0.46,18.22 0.26,18.13 0.10,17.99 -0.05,17.85 -0.15,17.67 -0.26,17.48 -0.30,17.27 -0.34,17.07 -0.34,17.07 -0.34,17.07 -1.15,14.91 -1.96,12.76 -2.08,10.59 -2.19,8.43 -2.48,6.23 -2.77,4.02 -2.51,2.01 -2.26,0 -2.22,-0.27 -2.19,-0.54 -2.09,-0.79 -2.00,-1.05 -1.84,-1.27 -1.69,-1.49 -1.48,-1.68 -1.28,-1.86 -1.04,-1.98 -0.80,-2.11 -0.53,-2.17 -0.27,-2.24 0.00,-2.24 0.27,-2.24 0.53,-2.17 0.80,-2.11 1.04,-1.98 1.28,-1.86 1.48,-1.68 1.69,-1.49 1.84,-1.27 2.00,-1.05 2.09,-0.79 2.19,-0.54 2.22,-0.27 2.26,0.00 2.26,0.00 L 2.26,0 Z"></path></g><g transform="translate(265 320.49880679672583) rotate(0 7 -2)" stroke="none"><path fill="#1e1e1e" d="M 0,-1.79 Q 0,-1.79 1.43,-2.33 2.87,-2.87 4.71,-3.12 6.56,-3.36 8.04,-3.79 9.53,-4.21 11.11,-4.49 12.70,-4.77 12.90,-4.84 13.10,-4.92 13.31,-4.92 13.52,-4.93 13.73,-4.87 13.93,-4.81 14.10,-4.68 14.28,-4.56 14.40,-4.39 14.53,-4.22 14.59,-4.01 14.65,-3.81 14.65,-3.60 14.64,-3.39 14.57,-3.19 14.50,-2.99 14.36,-2.82 14.23,-2.65 14.05,-2.54 13.87,-2.42 13.67,-2.37 13.46,-2.32 13.25,-2.34 13.04,-2.35 12.84,-2.44 12.65,-2.52 12.49,-2.66 12.33,-2.80 12.23,-2.99 12.12,-3.17 12.08,-3.38 12.04,-3.59 12.07,-3.80 12.09,-4.01 12.19,-4.20 12.28,-4.39 12.43,-4.54 12.58,-4.69 12.77,-4.79 12.96,-4.88 13.17,-4.91 13.38,-4.94 13.59,-4.90 13.80,-4.86 13.99,-4.76 14.17,-4.65 14.31,-4.50 14.46,-4.34 14.54,-4.14 14.63,-3.95 14.64,-3.74 14.66,-3.53 14.61,-3.32 14.56,-3.11 14.45,-2.93 14.33,-2.75 14.17,-2.62 14.00,-2.49 14.00,-2.49 14.00,-2.49 12.67,-1.10 11.34,0.27 9.36,1.24 7.38,2.21 5.13,2.54 2.87,2.87 1.43,2.33 0,1.79 -0.21,1.77 -0.43,1.74 -0.63,1.66 -0.83,1.59 -1.01,1.46 -1.19,1.34 -1.33,1.18 -1.48,1.02 -1.58,0.82 -1.68,0.63 -1.73,0.42 -1.78,0.21 -1.78,-0.00 -1.78,-0.21 -1.73,-0.42 -1.68,-0.63 -1.58,-0.83 -1.48,-1.02 -1.33,-1.18 -1.19,-1.34 -1.01,-1.46 -0.83,-1.59 -0.63,-1.66 -0.43,-1.74 -0.21,-1.77 0.00,-1.79 0.00,-1.79 L 0,-1.79 Z"></path></g><g transform="translate(268 308.49880679672583) rotate(0 6.5 -0.5)" stroke="none"><path fill="#1e1e1e" d="M -0.21,-2.41 Q -0.21,-2.41 2.95,-2.60 6.12,-2.79 8.91,-2.51 11.71,-2.23 11.92,-2.21 12.13,-2.19 12.32,-2.10 12.52,-2.01 12.67,-1.87 12.83,-1.72 12.93,-1.54 13.03,-1.35 13.07,-1.14 13.10,-0.93 13.07,-0.72 13.04,-0.51 12.94,-0.32 12.84,-0.13 12.69,0.00 12.54,0.15 12.34,0.24 12.15,0.33 11.94,0.36 11.73,0.38 11.52,0.34 11.31,0.30 11.13,0.19 10.95,0.08 10.81,-0.07 10.67,-0.23 10.59,-0.43 10.51,-0.62 10.50,-0.84 10.48,-1.05 10.54,-1.25 10.59,-1.46 10.71,-1.64 10.83,-1.81 11.00,-1.94 11.16,-2.07 11.36,-2.14 11.56,-2.21 11.78,-2.21 11.99,-2.22 12.19,-2.15 12.39,-2.08 12.56,-1.96 12.73,-1.83 12.86,-1.66 12.98,-1.48 13.03,-1.28 13.09,-1.07 13.08,-0.86 13.07,-0.65 13.00,-0.45 12.92,-0.25 12.78,-0.09 12.65,0.06 12.47,0.18 12.29,0.29 12.08,0.33 11.87,0.38 11.87,0.38 11.87,0.38 9.20,1.01 6.52,1.64 3.37,2.03 0.21,2.41 -0.07,2.41 -0.36,2.40 -0.64,2.32 -0.92,2.24 -1.18,2.10 -1.43,1.95 -1.65,1.75 -1.86,1.55 -2.02,1.30 -2.18,1.06 -2.27,0.78 -2.37,0.50 -2.40,0.21 -2.42,-0.07 -2.38,-0.36 -2.34,-0.65 -2.22,-0.92 -2.11,-1.19 -1.94,-1.42 -1.76,-1.66 -1.54,-1.85 -1.31,-2.04 -1.05,-2.16 -0.79,-2.29 -0.50,-2.35 -0.21,-2.41 -0.21,-2.41 L -0.21,-2.41 Z"></path></g><g transform="translate(55 24.49880679672583) rotate(0 -6.5 12.5)" stroke="none"><path fill="#1e1e1e" d="M 2.04,1.22 Q 2.04,1.22 1.57,2.90 1.11,4.57 -0.67,7.95 -2.47,11.32 -4.19,14.25 -5.92,17.17 -8.46,20.52 -11.01,23.87 -11.13,24.05 -11.25,24.22 -11.42,24.35 -11.59,24.48 -11.80,24.54 -12.00,24.61 -12.21,24.61 -12.42,24.61 -12.62,24.54 -12.82,24.47 -12.99,24.34 -13.16,24.21 -13.28,24.03 -13.40,23.85 -13.45,23.65 -13.51,23.44 -13.49,23.23 -13.48,23.02 -13.40,22.82 -13.32,22.63 -13.18,22.46 -13.04,22.30 -12.86,22.20 -12.67,22.09 -12.47,22.04 -12.26,22.00 -12.05,22.03 -11.84,22.05 -11.64,22.14 -11.45,22.23 -11.30,22.38 -11.15,22.53 -11.05,22.72 -10.95,22.90 -10.92,23.11 -10.89,23.32 -10.92,23.53 -10.96,23.74 -11.06,23.93 -11.16,24.12 -11.32,24.26 -11.47,24.41 -11.67,24.49 -11.86,24.58 -12.07,24.60 -12.28,24.62 -12.49,24.58 -12.70,24.53 -12.88,24.42 -13.06,24.31 -13.19,24.14 -13.33,23.98 -13.41,23.78 -13.48,23.58 -13.49,23.37 -13.50,23.16 -13.44,22.95 -13.39,22.75 -13.39,22.75 -13.39,22.75 -12.32,18.47 -11.26,14.19 -9.72,11.28 -8.19,8.36 -6.38,4.76 -4.56,1.17 -3.30,-0.02 -2.04,-1.22 -1.86,-1.45 -1.68,-1.67 -1.46,-1.85 -1.23,-2.03 -0.97,-2.15 -0.71,-2.27 -0.43,-2.32 -0.15,-2.37 0.13,-2.35 0.42,-2.34 0.69,-2.25 0.96,-2.17 1.21,-2.02 1.46,-1.87 1.66,-1.67 1.86,-1.47 2.01,-1.22 2.16,-0.98 2.25,-0.71 2.33,-0.43 2.35,-0.15 2.37,0.13 2.32,0.41 2.27,0.70 2.15,0.96 2.04,1.22 2.04,1.22 L 2.04,1.22 Z"></path></g><g transform="translate(75 16.49880679672583) rotate(0 -9.5 15)" stroke="none"><path fill="#1e1e1e" d="M 1.91,1.43 Q 1.91,1.43 1.36,2.81 0.80,4.18 0.32,5.29 -0.15,6.39 -1.00,8.13 -1.86,9.87 -3.41,12.67 -4.96,15.48 -6.48,18.32 -8.00,21.16 -9.67,23.60 -11.33,26.03 -14.22,27.97 -17.10,29.90 -17.27,30.03 -17.44,30.16 -17.64,30.23 -17.84,30.29 -18.05,30.29 -18.26,30.29 -18.47,30.23 -18.67,30.16 -18.84,30.03 -19.01,29.90 -19.12,29.73 -19.24,29.55 -19.30,29.35 -19.36,29.14 -19.35,28.93 -19.33,28.72 -19.26,28.52 -19.18,28.32 -19.04,28.16 -18.90,28.00 -18.72,27.89 -18.54,27.78 -18.33,27.73 -18.12,27.69 -17.91,27.71 -17.70,27.73 -17.51,27.82 -17.32,27.91 -17.16,28.06 -17.01,28.20 -16.91,28.39 -16.81,28.58 -16.77,28.79 -16.74,29.00 -16.77,29.21 -16.81,29.42 -16.91,29.61 -17.01,29.79 -17.16,29.94 -17.31,30.09 -17.51,30.17 -17.70,30.26 -17.91,30.29 -18.12,30.31 -18.33,30.26 -18.54,30.22 -18.72,30.11 -18.90,30.00 -19.04,29.84 -19.18,29.68 -19.26,29.48 -19.33,29.28 -19.35,29.07 -19.36,28.86 -19.30,28.65 -19.24,28.45 -19.12,28.27 -19.01,28.10 -19.01,28.10 -19.01,28.10 -17.61,25.51 -16.21,22.92 -14.88,20.60 -13.54,18.28 -12.05,15.33 -10.56,12.39 -9.09,9.71 -7.61,7.02 -6.76,5.31 -5.91,3.60 -5.08,2.01 -4.25,0.41 -3.08,-0.51 -1.91,-1.43 -1.71,-1.64 -1.51,-1.85 -1.27,-2.01 -1.03,-2.16 -0.75,-2.25 -0.48,-2.34 -0.19,-2.37 0.09,-2.39 0.37,-2.35 0.66,-2.30 0.93,-2.19 1.19,-2.07 1.42,-1.90 1.66,-1.73 1.84,-1.50 2.02,-1.28 2.15,-1.02 2.27,-0.76 2.33,-0.47 2.39,-0.19 2.37,0.09 2.36,0.38 2.28,0.66 2.20,0.93 2.06,1.18 1.91,1.43 1.91,1.43 L 1.91,1.43 Z"></path></g><g transform="translate(45 25.49880679672583) rotate(0 16.5 -2)" stroke="none"><path fill="#1e1e1e" d="M 0,-2.22 Q 0,-2.22 2.3,-2.57 4.6,-2.93 7.01,-2.96 9.42,-2.99 12.62,-3.26 15.82,-3.53 18.61,-3.81 21.39,-4.09 24.10,-3.97 26.81,-3.84 29.19,-4.40 31.57,-4.95 31.78,-4.98 31.99,-5.00 32.20,-4.96 32.40,-4.91 32.59,-4.81 32.77,-4.70 32.91,-4.54 33.05,-4.38 33.13,-4.18 33.21,-3.98 33.22,-3.77 33.23,-3.56 33.18,-3.35 33.12,-3.15 33.00,-2.97 32.89,-2.79 32.72,-2.66 32.55,-2.53 32.35,-2.47 32.15,-2.40 31.93,-2.40 31.72,-2.39 31.52,-2.46 31.32,-2.53 31.15,-2.65 30.98,-2.78 30.86,-2.96 30.74,-3.13 30.68,-3.34 30.62,-3.54 30.63,-3.75 30.64,-3.97 30.72,-4.16 30.80,-4.36 30.93,-4.52 31.07,-4.69 31.25,-4.80 31.43,-4.91 31.64,-4.96 31.85,-5.00 32.06,-4.98 32.27,-4.96 32.46,-4.87 32.66,-4.78 32.81,-4.64 32.97,-4.49 33.07,-4.31 33.17,-4.12 33.20,-3.91 33.24,-3.70 33.21,-3.49 33.17,-3.28 33.08,-3.09 32.98,-2.90 32.82,-2.76 32.67,-2.61 32.48,-2.52 32.29,-2.43 32.29,-2.43 32.29,-2.43 29.82,-1.60 27.35,-0.78 24.76,0.26 22.17,1.31 19.25,1.84 16.33,2.38 12.88,2.69 9.43,2.99 7.01,2.96 4.6,2.93 2.3,2.57 0,2.22 -0.26,2.18 -0.53,2.15 -0.78,2.06 -1.03,1.96 -1.25,1.81 -1.47,1.66 -1.65,1.46 -1.82,1.26 -1.95,1.02 -2.07,0.78 -2.14,0.52 -2.20,0.26 -2.20,-0.00 -2.20,-0.26 -2.14,-0.52 -2.07,-0.78 -1.95,-1.02 -1.82,-1.26 -1.65,-1.46 -1.47,-1.66 -1.25,-1.81 -1.03,-1.96 -0.78,-2.06 -0.53,-2.15 -0.26,-2.18 0.00,-2.22 0.00,-2.22 L 0,-2.22 Z"></path></g><g transform="translate(35 36.49880679672583) rotate(0 20 -3)" stroke="none"><path fill="#1e1e1e" d="M 0,-2.35 Q 0,-2.35 2.01,-2.63 4.02,-2.91 6.76,-2.69 9.50,-2.47 13.44,-2.90 17.38,-3.34 21.08,-3.97 24.79,-4.60 29.06,-5.33 33.33,-6.05 35.12,-6.68 36.91,-7.31 37.12,-7.34 37.33,-7.38 37.54,-7.35 37.75,-7.32 37.94,-7.22 38.13,-7.12 38.28,-6.97 38.43,-6.82 38.52,-6.63 38.61,-6.43 38.64,-6.22 38.66,-6.01 38.62,-5.80 38.57,-5.60 38.47,-5.41 38.36,-5.23 38.20,-5.09 38.04,-4.95 37.84,-4.87 37.65,-4.79 37.43,-4.77 37.22,-4.76 37.02,-4.81 36.81,-4.87 36.63,-4.99 36.46,-5.10 36.33,-5.27 36.20,-5.44 36.13,-5.64 36.06,-5.84 36.05,-6.05 36.05,-6.26 36.12,-6.47 36.18,-6.67 36.31,-6.84 36.43,-7.01 36.61,-7.13 36.78,-7.25 36.99,-7.31 37.19,-7.37 37.40,-7.36 37.62,-7.35 37.81,-7.28 38.01,-7.20 38.18,-7.07 38.34,-6.93 38.45,-6.75 38.56,-6.57 38.61,-6.36 38.66,-6.15 38.64,-5.94 38.62,-5.73 38.53,-5.54 38.44,-5.34 38.30,-5.19 38.16,-5.03 37.97,-4.93 37.78,-4.83 37.78,-4.83 37.78,-4.83 35.99,-4.20 34.20,-3.57 30.05,-1.35 25.90,0.87 21.96,1.78 18.02,2.68 13.44,3.15 8.86,3.62 6.44,3.26 4.02,2.91 2.01,2.63 0,2.35 -0.28,2.31 -0.56,2.28 -0.82,2.18 -1.09,2.08 -1.32,1.92 -1.55,1.76 -1.74,1.54 -1.93,1.33 -2.06,1.08 -2.19,0.83 -2.26,0.55 -2.33,0.28 -2.33,-0.00 -2.33,-0.28 -2.26,-0.55 -2.19,-0.83 -2.06,-1.08 -1.93,-1.33 -1.74,-1.54 -1.55,-1.76 -1.32,-1.92 -1.09,-2.08 -0.82,-2.18 -0.56,-2.28 -0.28,-2.31 0.00,-2.35 0.00,-2.35 L 0,-2.35 Z"></path></g><g transform="translate(28 71.49880679672583) rotate(0 -4 4.5)" stroke="none"><path fill="#1e1e1e" d="M -0.21,0.65 Q -0.21,0.65 -1.22,0.80 -2.23,0.95 -3.02,0.87 -3.81,0.78 -4.41,0.72 -5.00,0.67 -5.72,1.82 -6.44,2.97 -6.69,4.14 -6.95,5.30 -7.10,6.92 -7.24,8.53 -7.27,9.40 -7.30,10.27 -6.04,9.59 -4.78,8.92 -3.79,7.63 -2.80,6.35 -2.12,4.19 -1.44,2.04 -1.14,0.54 -0.85,-0.96 -1.53,-2.08 -2.22,-3.20 -2.19,-3.28 -2.16,-3.35 -2.12,-3.42 -2.08,-3.49 -2.02,-3.54 -1.96,-3.60 -1.89,-3.63 -1.83,-3.67 -1.75,-3.69 -1.67,-3.72 -1.59,-3.72 -1.51,-3.72 -1.44,-3.70 -1.36,-3.69 -1.29,-3.65 -1.22,-3.62 -1.16,-3.57 -1.10,-3.52 -1.05,-3.45 -1.00,-3.39 -0.97,-3.32 -0.94,-3.24 -0.93,-3.17 -0.92,-3.09 -0.92,-3.01 -0.93,-2.93 -1.30,-2.67 -1.67,-2.42 -1.78,-2.45 -1.88,-2.48 -1.96,-2.55 -2.05,-2.61 -2.11,-2.70 -2.17,-2.79 -2.20,-2.89 -2.23,-2.99 -2.22,-3.10 -2.22,-3.20 -2.18,-3.30 -2.14,-3.40 -2.07,-3.48 -2.00,-3.56 -1.91,-3.62 -1.82,-3.68 -1.72,-3.70 -1.61,-3.72 -1.51,-3.71 -1.40,-3.70 -1.31,-3.66 -1.21,-3.61 -1.13,-3.54 -1.05,-3.47 -1.00,-3.37 -0.95,-3.28 -0.93,-3.18 -0.92,-3.07 -0.93,-2.97 -0.95,-2.86 -1.00,-2.77 -1.05,-2.67 -1.12,-2.60 -1.20,-2.53 -1.30,-2.48 -1.39,-2.44 -1.50,-2.42 -1.60,-2.41 -1.71,-2.43 -1.81,-2.46 -1.90,-2.51 -1.99,-2.56 -2.06,-2.64 -2.13,-2.72 -2.17,-2.82 -2.21,-2.92 -2.22,-3.03 -2.23,-3.13 -2.20,-3.24 -2.17,-3.34 -2.11,-3.43 -2.05,-3.52 -1.97,-3.58 -1.88,-3.65 -1.78,-3.68 -1.68,-3.71 -1.95,-3.46 -2.22,-3.20 -2.19,-3.28 -2.16,-3.35 -2.12,-3.42 -2.08,-3.49 -2.02,-3.54 -1.96,-3.60 -1.89,-3.63 -1.83,-3.67 -1.75,-3.69 -1.67,-3.72 -1.59,-3.72 -1.51,-3.72 -1.44,-3.70 -1.36,-3.69 -1.29,-3.65 -1.22,-3.62 -1.16,-3.57 -1.10,-3.52 -1.05,-3.45 -1.00,-3.39 -0.97,-3.32 -0.94,-3.24 -0.93,-3.17 -0.92,-3.09 -0.92,-3.01 -0.93,-2.93 0.46,-1.65 1.85,-0.38 1.48,1.25 1.10,2.89 0.20,5.44 -0.69,7.98 -2.07,9.63 -3.45,11.28 -5.28,12.10 -7.10,12.92 -8.23,12.37 -9.36,11.83 -9.83,10.06 -10.31,8.30 -10.16,6.42 -10.01,4.55 -9.57,2.92 -9.12,1.29 -8.02,-0.23 -6.91,-1.76 -5.93,-2.14 -4.96,-2.51 -4.18,-2.47 -3.40,-2.42 -2.30,-2.26 -1.21,-2.10 -0.50,-1.38 0.21,-0.65 0.29,-0.62 0.36,-0.58 0.43,-0.53 0.49,-0.47 0.54,-0.41 0.59,-0.34 0.63,-0.26 0.66,-0.19 0.67,-0.11 0.69,-0.02 0.68,0.05 0.67,0.13 0.65,0.21 0.62,0.29 0.58,0.36 0.53,0.43 0.47,0.49 0.41,0.55 0.34,0.59 0.27,0.63 0.19,0.65 0.11,0.68 0.02,0.68 -0.05,0.68 -0.13,0.67 -0.21,0.65 -0.21,0.65 L -0.21,0.65 Z"></path></g><g transform="translate(38 82.49880679672583) rotate(0 5 -12.5)" stroke="none"><path fill="#1e1e1e" d="M -1.04,0 Q -1.04,0 -1.33,-1.43 -1.62,-2.87 -1.62,-4.92 -1.62,-6.97 -1.62,-9.28 -1.62,-11.58 -1.33,-14.66 -1.04,-17.73 -0.61,-19.67 -0.19,-21.62 0.00,-22.69 0.19,-23.76 1.14,-24.70 2.09,-25.63 2.88,-25.66 3.67,-25.68 4.58,-25.63 5.50,-25.58 7.52,-25.12 9.55,-24.66 9.65,-24.64 9.76,-24.62 9.85,-24.57 9.94,-24.52 10.02,-24.44 10.09,-24.36 10.13,-24.27 10.18,-24.17 10.19,-24.06 10.20,-23.96 10.17,-23.85 10.15,-23.75 10.09,-23.66 10.04,-23.57 9.96,-23.50 9.87,-23.43 9.78,-23.40 9.68,-23.36 9.57,-23.35 9.46,-23.35 9.36,-23.38 9.26,-23.41 9.17,-23.47 9.09,-23.53 9.02,-23.61 8.96,-23.70 8.93,-23.80 8.89,-23.90 8.89,-24.01 8.89,-24.11 8.93,-24.21 8.96,-24.31 9.03,-24.40 9.09,-24.48 9.18,-24.54 9.27,-24.60 9.37,-24.63 9.48,-24.65 9.58,-24.65 9.69,-24.64 9.79,-24.60 9.89,-24.56 9.97,-24.49 10.05,-24.42 10.10,-24.33 10.15,-24.24 10.18,-24.13 10.20,-24.03 10.19,-23.92 10.17,-23.82 10.13,-23.72 10.08,-23.63 10.01,-23.55 9.93,-23.47 9.84,-23.42 9.74,-23.38 9.64,-23.36 9.53,-23.34 9.54,-23.34 9.54,-23.34 7.46,-22.94 5.38,-22.53 4.33,-22.79 3.28,-23.06 3.13,-21.99 2.98,-20.91 2.58,-19.16 2.19,-17.41 1.90,-14.50 1.62,-11.58 1.62,-9.27 1.62,-6.97 1.62,-4.92 1.62,-2.87 1.33,-1.43 1.04,0 1.02,0.12 1.01,0.24 0.96,0.36 0.92,0.48 0.85,0.58 0.77,0.69 0.68,0.77 0.59,0.85 0.48,0.91 0.36,0.97 0.24,1.00 0.12,1.03 -0.00,1.03 -0.12,1.03 -0.24,1.00 -0.36,0.97 -0.48,0.91 -0.59,0.85 -0.68,0.77 -0.77,0.69 -0.85,0.58 -0.92,0.48 -0.96,0.36 -1.01,0.24 -1.02,0.12 -1.04,-0.00 -1.04,-0.00 L -1.04,0 Z"></path></g><g transform="translate(30 71.49880679672583) rotate(0 9 -2.5)" stroke="none"><path fill="#1e1e1e" d="M -0.47,-1.18 Q -0.47,-1.18 0.89,-1.92 2.27,-2.66 4.09,-3.23 5.91,-3.80 8.07,-4.54 10.22,-5.29 12.19,-5.41 14.15,-5.54 15.70,-5.55 17.25,-5.55 17.35,-5.55 17.46,-5.55 17.56,-5.51 17.66,-5.48 17.74,-5.41 17.82,-5.34 17.88,-5.25 17.94,-5.16 17.96,-5.06 17.99,-4.96 17.98,-4.85 17.97,-4.75 17.93,-4.65 17.89,-4.55 17.82,-4.47 17.75,-4.39 17.66,-4.34 17.56,-4.29 17.46,-4.27 17.35,-4.25 17.25,-4.26 17.14,-4.28 17.05,-4.32 16.95,-4.37 16.88,-4.45 16.80,-4.52 16.76,-4.62 16.71,-4.71 16.69,-4.82 16.68,-4.92 16.70,-5.03 16.72,-5.13 16.77,-5.22 16.82,-5.31 16.90,-5.39 16.98,-5.46 17.08,-5.50 17.18,-5.54 17.28,-5.55 17.39,-5.56 17.49,-5.53 17.59,-5.51 17.68,-5.45 17.77,-5.39 17.84,-5.31 17.91,-5.23 17.94,-5.13 17.98,-5.03 17.98,-4.92 17.99,-4.82 17.96,-4.71 17.92,-4.61 17.86,-4.53 17.80,-4.44 17.71,-4.38 17.63,-4.32 17.53,-4.28 17.43,-4.25 17.43,-4.25 17.43,-4.25 15.99,-3.85 14.55,-3.45 12.92,-2.89 11.30,-2.33 9.09,-1.48 6.87,-0.62 5.17,-0.13 3.47,0.36 1.97,0.77 0.47,1.18 0.32,1.22 0.17,1.26 0.02,1.27 -0.13,1.27 -0.28,1.23 -0.43,1.20 -0.57,1.13 -0.70,1.06 -0.82,0.96 -0.94,0.86 -1.03,0.74 -1.12,0.61 -1.18,0.47 -1.23,0.32 -1.25,0.17 -1.28,0.02 -1.26,-0.13 -1.24,-0.28 -1.19,-0.42 -1.14,-0.57 -1.05,-0.70 -0.97,-0.83 -0.85,-0.93 -0.74,-1.04 -0.61,-1.11 -0.47,-1.18 -0.47,-1.18 L -0.47,-1.18 Z"></path></g><g transform="translate(15 93.49880679672583) rotate(0 -2.5 13)" stroke="none"><path fill="#1e1e1e" d="M 1.08,0.36 Q 1.08,0.36 0.94,1.26 0.81,2.17 0.74,3.52 0.68,4.87 0.33,6.75 -0.01,8.62 -0.45,11.65 -0.90,14.67 -1.40,17.43 -1.90,20.19 -3.07,22.66 -4.25,25.13 -4.33,25.20 -4.41,25.27 -4.51,25.31 -4.61,25.35 -4.72,25.36 -4.82,25.37 -4.93,25.34 -5.03,25.31 -5.12,25.25 -5.21,25.19 -5.27,25.11 -5.34,25.03 -5.37,24.93 -5.41,24.83 -5.41,24.72 -5.41,24.61 -5.38,24.51 -5.35,24.41 -5.28,24.33 -5.22,24.24 -5.13,24.18 -5.05,24.12 -4.94,24.09 -4.84,24.06 -4.74,24.06 -4.63,24.07 -4.53,24.11 -4.43,24.14 -4.35,24.21 -4.27,24.28 -4.21,24.37 -4.15,24.46 -4.13,24.56 -4.11,24.67 -4.12,24.77 -4.13,24.88 -4.17,24.97 -4.21,25.07 -4.28,25.15 -4.36,25.23 -4.45,25.28 -4.54,25.33 -4.65,25.35 -4.75,25.37 -4.86,25.35 -4.96,25.34 -5.06,25.29 -5.15,25.24 -5.23,25.16 -5.30,25.09 -5.35,24.99 -5.39,24.90 -5.40,24.79 -5.42,24.68 -5.40,24.58 -5.37,24.48 -5.32,24.39 -5.27,24.29 -5.27,24.29 -5.27,24.29 -4.98,22.00 -4.70,19.70 -4.26,16.98 -3.81,14.26 -3.40,11.16 -2.98,8.06 -2.65,6.35 -2.32,4.63 -2.14,2.95 -1.96,1.27 -1.52,0.45 -1.08,-0.36 -1.02,-0.48 -0.96,-0.61 -0.87,-0.71 -0.79,-0.82 -0.68,-0.90 -0.57,-0.98 -0.44,-1.04 -0.31,-1.09 -0.18,-1.11 -0.04,-1.14 0.09,-1.13 0.22,-1.11 0.35,-1.07 0.48,-1.03 0.60,-0.95 0.72,-0.88 0.81,-0.78 0.91,-0.68 0.98,-0.56 1.05,-0.44 1.08,-0.31 1.12,-0.18 1.13,-0.04 1.13,0.09 1.11,0.22 1.08,0.36 1.08,0.36 L 1.08,0.36 Z"></path></g><g transform="translate(15 98.49880679672583) rotate(0 4 3.5)" stroke="none"><path fill="#1e1e1e" d="M -0.19,-0.98 Q -0.19,-0.98 1.25,-1.50 2.70,-2.02 4.24,-1.53 5.77,-1.04 6.68,-0.50 7.59,0.03 8.40,0.81 9.20,1.60 9.30,2.85 9.40,4.10 8.96,4.79 8.52,5.48 7.41,6.30 6.31,7.12 4.89,7.76 3.47,8.40 1.27,8.06 -0.93,7.72 -1.02,7.67 -1.11,7.62 -1.18,7.54 -1.25,7.46 -1.29,7.36 -1.33,7.26 -1.34,7.15 -1.35,7.05 -1.32,6.95 -1.30,6.84 -1.24,6.75 -1.18,6.66 -1.10,6.60 -1.01,6.53 -0.91,6.50 -0.81,6.46 -0.71,6.46 -0.60,6.46 -0.50,6.49 -0.40,6.52 -0.31,6.59 -0.23,6.65 -0.17,6.74 -0.10,6.82 -0.07,6.92 -0.04,7.03 -0.05,7.13 -0.05,7.24 -0.09,7.34 -0.13,7.44 -0.20,7.52 -0.26,7.60 -0.35,7.66 -0.44,7.71 -0.55,7.74 -0.65,7.76 -0.76,7.75 -0.86,7.74 -0.96,7.70 -1.06,7.66 -1.13,7.59 -1.21,7.51 -1.26,7.42 -1.31,7.33 -1.33,7.22 -1.35,7.12 -1.34,7.01 -1.32,6.91 -1.27,6.81 -1.23,6.72 -1.15,6.65 -1.07,6.57 -0.98,6.52 -0.88,6.48 -0.78,6.47 -0.67,6.45 -0.57,6.47 -0.46,6.49 -0.46,6.49 -0.46,6.49 0.92,6.17 2.31,5.84 3.46,5.30 4.61,4.75 5.63,4.16 6.65,3.58 6.36,3.06 6.06,2.54 5.39,2.12 4.71,1.70 3.87,1.29 3.04,0.87 1.61,0.92 0.19,0.98 0.07,0.99 -0.04,0.99 -0.16,0.98 -0.28,0.96 -0.39,0.91 -0.50,0.86 -0.60,0.79 -0.69,0.71 -0.77,0.62 -0.84,0.53 -0.89,0.42 -0.95,0.31 -0.97,0.19 -0.99,0.07 -0.99,-0.04 -0.98,-0.16 -0.95,-0.28 -0.91,-0.39 -0.85,-0.50 -0.79,-0.60 -0.71,-0.69 -0.62,-0.77 -0.52,-0.84 -0.42,-0.90 -0.31,-0.94 -0.19,-0.98 -0.19,-0.98 L -0.19,-0.98 Z"></path></g><g transform="translate(32 96.49880679672583) rotate(0 -4 4.5)" stroke="none"><path fill="#1e1e1e" d="M 0.37,0.93 Q 0.37,0.93 -0.95,1.73 -2.28,2.53 -3.23,3.48 -4.19,4.43 -4.54,5.27 -4.90,6.10 -5.41,7.06 -5.91,8.02 -6.45,8.22 -6.99,8.42 -6.15,7.69 -5.30,6.96 -4.69,6.23 -4.07,5.49 -3.54,4.39 -3.01,3.29 -2.82,2.31 -2.63,1.33 -2.29,0.56 -1.95,-0.19 -1.89,-0.35 -1.83,-0.51 -1.74,-0.65 -1.65,-0.79 -1.52,-0.90 -1.40,-1.02 -1.25,-1.10 -1.10,-1.18 -0.94,-1.23 -0.77,-1.27 -0.60,-1.27 -0.43,-1.28 -0.27,-1.24 -0.10,-1.20 0.04,-1.12 0.19,-1.05 0.32,-0.94 0.45,-0.83 0.55,-0.69 0.64,-0.55 0.71,-0.40 0.77,-0.24 0.79,-0.07 0.82,0.09 0.80,0.26 0.78,0.42 -0.73,0.07 -2.25,-0.27 -2.19,-0.44 -2.13,-0.60 -2.03,-0.75 -1.93,-0.90 -1.80,-1.02 -1.67,-1.14 -1.52,-1.22 -1.36,-1.31 -1.19,-1.35 -1.02,-1.40 -0.84,-1.40 -0.67,-1.40 -0.49,-1.36 -0.32,-1.33 -0.16,-1.25 -0.01,-1.17 0.12,-1.05 0.25,-0.94 0.36,-0.79 0.46,-0.65 0.52,-0.49 0.59,-0.32 0.61,-0.15 0.64,0.02 0.62,0.19 0.60,0.37 0.57,1.89 0.55,3.40 0.04,5.87 -0.45,8.34 -0.45,8.44 -0.45,8.55 -0.48,8.65 -0.51,8.75 -0.57,8.84 -0.63,8.92 -0.72,8.99 -0.81,9.05 -0.91,9.08 -1.01,9.11 -1.12,9.11 -1.22,9.10 -1.32,9.07 -1.42,9.03 -1.50,8.96 -1.59,8.90 -1.64,8.81 -1.70,8.72 -1.73,8.61 -1.75,8.51 -1.74,8.40 -1.73,8.30 -1.69,8.20 -1.65,8.10 -1.58,8.03 -1.51,7.95 -1.41,7.89 -1.32,7.84 -1.22,7.82 -1.11,7.80 -1.01,7.82 -0.90,7.83 -0.81,7.88 -0.71,7.93 -0.64,8.00 -0.56,8.08 -0.52,8.17 -0.47,8.27 -0.45,8.37 -0.44,8.48 -0.46,8.58 -0.48,8.69 -0.53,8.78 -0.59,8.87 -0.67,8.94 -0.74,9.01 -0.84,9.06 -0.94,9.10 -1.05,9.11 -1.15,9.11 -1.25,9.09 -1.36,9.06 -1.45,9.00 -1.54,8.95 -1.60,8.86 -1.67,8.78 -1.71,8.68 -1.74,8.58 -1.74,8.58 -1.74,8.58 -2.11,5.96 -2.48,3.33 -2.45,2.18 -2.42,1.03 -2.33,0.37 -2.25,-0.27 -2.19,-0.44 -2.13,-0.60 -2.03,-0.75 -1.93,-0.90 -1.80,-1.02 -1.67,-1.14 -1.52,-1.22 -1.36,-1.31 -1.19,-1.35 -1.02,-1.40 -0.84,-1.40 -0.67,-1.40 -0.49,-1.36 -0.32,-1.33 -0.16,-1.25 -0.01,-1.17 0.12,-1.05 0.25,-0.94 0.36,-0.79 0.46,-0.65 0.52,-0.49 0.59,-0.32 0.61,-0.15 0.64,0.02 0.62,0.19 0.60,0.37 -0.67,0.09 -1.95,-0.19 -1.89,-0.35 -1.83,-0.51 -1.74,-0.65 -1.65,-0.79 -1.52,-0.90 -1.40,-1.02 -1.25,-1.10 -1.10,-1.18 -0.94,-1.23 -0.77,-1.27 -0.60,-1.27 -0.43,-1.28 -0.27,-1.24 -0.10,-1.20 0.04,-1.12 0.19,-1.05 0.32,-0.94 0.45,-0.83 0.55,-0.69 0.64,-0.55 0.71,-0.40 0.77,-0.24 0.79,-0.07 0.82,0.09 0.80,0.26 0.78,0.42 0.33,1.17 -0.10,1.92 -0.42,3.14 -0.73,4.36 -1.38,5.74 -2.02,7.12 -2.83,8.15 -3.64,9.19 -4.79,9.93 -5.94,10.67 -7.18,9.98 -8.43,9.29 -8.51,8.12 -8.59,6.96 -8.10,5.88 -7.60,4.80 -6.95,3.54 -6.30,2.28 -4.88,1.02 -3.46,-0.23 -1.92,-0.58 -0.37,-0.93 -0.25,-0.96 -0.13,-0.99 -0.01,-1.00 0.10,-1.00 0.22,-0.97 0.34,-0.94 0.44,-0.89 0.55,-0.83 0.64,-0.76 0.74,-0.68 0.81,-0.58 0.88,-0.48 0.92,-0.37 0.97,-0.25 0.99,-0.13 1.00,-0.01 0.99,0.10 0.98,0.22 0.94,0.33 0.90,0.45 0.83,0.55 0.76,0.65 0.67,0.73 0.58,0.81 0.48,0.87 0.37,0.93 0.37,0.93 L 0.37,0.93 Z"></path></g><g transform="translate(38 95.49880679672583) rotate(0 0.5 3.5)" stroke="none"><path fill="#1e1e1e" d="M 1.09,0 Q 1.09,0 1.29,2.30 1.48,4.60 1.17,6.29 0.86,7.98 -0.45,9.41 -1.78,10.84 -2.51,10.38 -3.24,9.93 -3.64,8.16 -4.04,6.39 -3.86,4.70 -3.67,3.02 -2.99,1.32 -2.30,-0.37 -0.75,-1.90 0.80,-3.43 2.00,-2.04 3.21,-0.65 3.26,-0.71 3.31,-0.76 3.38,-0.81 3.45,-0.85 3.52,-0.88 3.59,-0.91 3.67,-0.92 3.75,-0.92 3.83,-0.91 3.91,-0.90 3.98,-0.88 4.06,-0.85 4.12,-0.80 4.18,-0.76 4.24,-0.70 4.29,-0.64 4.32,-0.57 4.36,-0.49 4.38,-0.42 4.40,-0.34 4.40,-0.26 4.40,-0.18 4.38,-0.11 4.36,-0.03 4.32,0.03 4.28,0.10 4.31,-0.21 4.34,-0.53 4.37,-0.43 4.40,-0.33 4.39,-0.22 4.38,-0.12 4.34,-0.02 4.30,0.07 4.23,0.15 4.16,0.23 4.07,0.28 3.98,0.34 3.87,0.36 3.77,0.38 3.66,0.36 3.56,0.35 3.46,0.31 3.37,0.26 3.29,0.19 3.22,0.11 3.17,0.02 3.12,-0.07 3.10,-0.17 3.09,-0.28 3.11,-0.38 3.13,-0.49 3.18,-0.58 3.23,-0.67 3.31,-0.75 3.38,-0.82 3.48,-0.86 3.58,-0.90 3.68,-0.91 3.79,-0.92 3.89,-0.90 4.00,-0.87 4.09,-0.82 4.18,-0.76 4.24,-0.68 4.31,-0.60 4.35,-0.50 4.39,-0.40 4.39,-0.29 4.40,-0.19 4.37,-0.08 4.34,0.01 4.27,0.09 4.21,0.18 4.13,0.24 4.04,0.31 3.94,0.34 3.84,0.37 3.73,0.37 3.63,0.37 3.53,0.33 3.43,0.30 3.34,0.23 3.26,0.17 3.23,-0.24 3.21,-0.65 3.26,-0.71 3.31,-0.76 3.38,-0.81 3.45,-0.85 3.52,-0.88 3.59,-0.91 3.67,-0.92 3.75,-0.92 3.83,-0.91 3.91,-0.90 3.98,-0.88 4.06,-0.85 4.12,-0.80 4.18,-0.76 4.24,-0.70 4.29,-0.64 4.32,-0.57 4.36,-0.49 4.38,-0.42 4.40,-0.34 4.40,-0.26 4.40,-0.18 4.38,-0.11 4.36,-0.03 4.32,0.03 4.28,0.10 2.47,-0.43 0.66,-0.97 0.50,-0.08 0.34,0.81 -0.28,2.11 -0.92,3.42 -1.14,4.74 -1.37,6.07 -1.18,7.21 -1.00,8.35 -1.50,7.89 -2.01,7.42 -1.75,6.01 -1.48,4.59 -1.29,2.29 -1.09,0 -1.07,-0.13 -1.06,-0.26 -1.01,-0.38 -0.97,-0.50 -0.89,-0.61 -0.82,-0.72 -0.72,-0.81 -0.62,-0.90 -0.50,-0.96 -0.38,-1.02 -0.26,-1.05 -0.13,-1.08 0.00,-1.08 0.13,-1.08 0.26,-1.05 0.38,-1.02 0.50,-0.96 0.62,-0.90 0.72,-0.81 0.82,-0.72 0.89,-0.61 0.97,-0.50 1.01,-0.38 1.06,-0.26 1.07,-0.13 1.09,0.00 1.09,0.00 L 1.09,0 Z"></path></g><g transform="translate(52 79.49880679672583) rotate(0 -2 12)" stroke="none"><path fill="#1e1e1e" d="M 1.20,0.20 Q 1.20,0.20 1.07,1.95 0.94,3.70 0.83,5.23 0.72,6.76 0.37,8.67 0.02,10.58 -0.41,13.90 -0.84,17.22 -2.05,20.04 -3.25,22.86 -3.30,22.95 -3.35,23.05 -3.43,23.12 -3.51,23.19 -3.61,23.23 -3.70,23.28 -3.81,23.29 -3.92,23.30 -4.02,23.27 -4.12,23.25 -4.21,23.19 -4.30,23.13 -4.37,23.05 -4.44,22.97 -4.47,22.87 -4.51,22.77 -4.52,22.67 -4.52,22.56 -4.49,22.46 -4.46,22.36 -4.40,22.27 -4.34,22.18 -4.25,22.12 -4.17,22.06 -4.07,22.02 -3.97,21.99 -3.86,21.99 -3.75,21.99 -3.65,22.03 -3.55,22.07 -3.47,22.13 -3.39,22.20 -3.33,22.29 -3.27,22.37 -3.24,22.48 -3.22,22.58 -3.22,22.69 -3.23,22.79 -3.27,22.89 -3.31,22.99 -3.38,23.07 -3.45,23.15 -3.54,23.20 -3.64,23.25 -3.74,23.28 -3.84,23.30 -3.95,23.28 -4.06,23.27 -4.15,23.22 -4.25,23.18 -4.32,23.10 -4.40,23.03 -4.45,22.93 -4.49,22.84 -4.51,22.73 -4.53,22.63 -4.51,22.53 -4.49,22.42 -4.49,22.42 -4.49,22.42 -4.18,19.62 -3.87,16.83 -3.44,13.42 -3.02,10.01 -2.69,8.26 -2.36,6.52 -2.22,4.85 -2.09,3.19 -1.65,1.49 -1.20,-0.20 -1.16,-0.34 -1.12,-0.48 -1.05,-0.61 -0.97,-0.73 -0.87,-0.84 -0.77,-0.95 -0.64,-1.03 -0.52,-1.10 -0.38,-1.15 -0.24,-1.20 -0.09,-1.21 0.05,-1.22 0.19,-1.19 0.34,-1.17 0.48,-1.11 0.61,-1.05 0.73,-0.96 0.85,-0.87 0.94,-0.76 1.03,-0.65 1.10,-0.51 1.16,-0.38 1.19,-0.23 1.22,-0.09 1.21,0.05 1.20,0.20 1.20,0.20 L 1.20,0.20 Z"></path></g><g transform="translate(42 93.49880679672583) rotate(0 7 -0.5)" stroke="none"><path fill="#1e1e1e" d="M -0.25,-1.25 Q -0.25,-1.25 1.15,-1.70 2.56,-2.15 4.42,-2.28 6.28,-2.41 7.63,-2.43 8.99,-2.46 11.10,-1.63 13.22,-0.81 13.32,-0.77 13.42,-0.74 13.50,-0.67 13.59,-0.60 13.64,-0.51 13.70,-0.42 13.73,-0.32 13.75,-0.22 13.75,-0.11 13.74,-0.01 13.70,0.08 13.65,0.18 13.58,0.26 13.51,0.34 13.42,0.39 13.33,0.44 13.23,0.46 13.12,0.48 13.02,0.47 12.91,0.46 12.81,0.41 12.72,0.36 12.64,0.29 12.57,0.21 12.52,0.12 12.47,0.02 12.46,-0.07 12.44,-0.18 12.46,-0.28 12.48,-0.38 12.53,-0.48 12.59,-0.57 12.66,-0.64 12.74,-0.71 12.84,-0.76 12.94,-0.80 13.04,-0.81 13.15,-0.82 13.25,-0.79 13.36,-0.77 13.45,-0.71 13.54,-0.65 13.60,-0.57 13.67,-0.49 13.71,-0.39 13.74,-0.29 13.75,-0.18 13.75,-0.08 13.72,0.02 13.69,0.12 13.63,0.20 13.57,0.29 13.48,0.35 13.39,0.42 13.29,0.45 13.19,0.48 13.09,0.48 12.98,0.47 12.98,0.47 12.98,0.47 11.04,0.54 9.09,0.61 7.80,0.69 6.50,0.77 4.84,0.88 3.18,1.00 1.71,1.12 0.25,1.25 0.09,1.26 -0.05,1.27 -0.20,1.25 -0.36,1.22 -0.50,1.16 -0.64,1.10 -0.76,1.01 -0.88,0.91 -0.98,0.79 -1.08,0.67 -1.14,0.53 -1.21,0.39 -1.24,0.24 -1.27,0.09 -1.26,-0.05 -1.25,-0.20 -1.21,-0.35 -1.17,-0.50 -1.09,-0.63 -1.01,-0.77 -0.91,-0.88 -0.80,-0.99 -0.67,-1.07 -0.54,-1.15 -0.39,-1.20 -0.25,-1.25 -0.25,-1.25 L -0.25,-1.25 Z"></path></g><g transform="translate(60 96.49880679672583) rotate(0 -0.5 5.5)" stroke="none"><path fill="#1e1e1e" d="M 1.12,0 Q 1.12,0 1.34,1.72 1.57,3.44 1.56,4.76 1.56,6.07 0.69,8.15 -0.17,10.23 -0.21,10.33 -0.25,10.43 -0.31,10.52 -0.38,10.60 -0.47,10.65 -0.56,10.71 -0.66,10.73 -0.77,10.76 -0.87,10.75 -0.98,10.74 -1.08,10.70 -1.17,10.65 -1.25,10.58 -1.33,10.51 -1.38,10.42 -1.43,10.32 -1.45,10.22 -1.47,10.11 -1.46,10.01 -1.44,9.90 -1.39,9.81 -1.34,9.72 -1.27,9.64 -1.19,9.57 -1.10,9.52 -1.00,9.47 -0.90,9.46 -0.79,9.45 -0.69,9.47 -0.58,9.49 -0.49,9.54 -0.40,9.60 -0.33,9.68 -0.26,9.76 -0.22,9.85 -0.18,9.95 -0.17,10.06 -0.16,10.16 -0.19,10.27 -0.21,10.37 -0.27,10.46 -0.33,10.55 -0.41,10.61 -0.50,10.68 -0.60,10.71 -0.70,10.75 -0.80,10.75 -0.91,10.75 -1.01,10.72 -1.11,10.69 -1.20,10.63 -1.28,10.56 -1.34,10.48 -1.41,10.39 -1.44,10.29 -1.47,10.19 -1.46,10.08 -1.46,9.97 -1.46,9.97 -1.46,9.97 -1.51,8.01 -1.56,6.06 -1.56,4.75 -1.57,3.44 -1.34,1.72 -1.12,0 -1.10,-0.13 -1.08,-0.26 -1.04,-0.39 -0.99,-0.52 -0.91,-0.63 -0.83,-0.74 -0.73,-0.83 -0.63,-0.92 -0.51,-0.98 -0.39,-1.04 -0.26,-1.08 -0.13,-1.11 0.00,-1.11 0.13,-1.11 0.26,-1.08 0.39,-1.04 0.51,-0.98 0.63,-0.92 0.73,-0.83 0.83,-0.74 0.91,-0.63 0.99,-0.52 1.04,-0.39 1.08,-0.26 1.10,-0.13 1.12,0.00 1.12,0.00 L 1.12,0 Z"></path></g><g transform="translate(60 85.49880679672583) rotate(0 0 0.5)" stroke="none"><path fill="#1e1e1e" d="M 0.65,0.57 Q 0.65,0.57 0.63,0.67 0.62,0.78 0.57,0.87 0.52,0.97 0.44,1.04 0.36,1.11 0.27,1.16 0.17,1.20 0.07,1.21 -0.03,1.23 -0.13,1.20 -0.24,1.18 -0.33,1.13 -0.42,1.07 -0.49,0.99 -0.56,0.91 -0.60,0.81 -0.64,0.71 -0.64,0.61 -0.65,0.50 -0.62,0.40 -0.59,0.29 -0.53,0.21 -0.47,0.12 -0.39,0.05 -0.30,-0.00 -0.20,-0.03 -0.10,-0.07 0.00,-0.07 0.10,-0.07 0.20,-0.03 0.30,-0.00 0.39,0.05 0.47,0.12 0.53,0.21 0.59,0.29 0.62,0.40 0.65,0.50 0.64,0.61 0.64,0.71 0.60,0.81 0.56,0.91 0.49,0.99 0.42,1.07 0.33,1.13 0.24,1.18 0.13,1.20 0.03,1.23 -0.07,1.21 -0.17,1.20 -0.27,1.16 -0.36,1.11 -0.44,1.04 -0.52,0.97 -0.57,0.87 -0.62,0.78 -0.63,0.67 -0.65,0.57 -0.65,0.57 -0.65,0.57 -0.71,0.48 -0.77,0.40 -0.81,0.30 -0.84,0.20 -0.86,0.09 -0.87,-0.00 -0.85,-0.10 -0.84,-0.21 -0.80,-0.31 -0.77,-0.41 -0.71,-0.49 -0.64,-0.58 -0.57,-0.65 -0.49,-0.72 -0.39,-0.76 -0.30,-0.81 -0.20,-0.84 -0.10,-0.86 0.00,-0.86 0.11,-0.86 0.21,-0.84 0.31,-0.81 0.40,-0.76 0.50,-0.71 0.57,-0.64 0.65,-0.57 0.65,0.00 L 0.65,0.57 Z"></path></g><g transform="translate(69 96.49880679672583) rotate(0 -3.5 5.5)" stroke="none"><path fill="#1e1e1e" d="M -0.36,1.08 Q -0.36,1.08 -1.12,1.00 -1.89,0.92 -2.31,1.25 -2.72,1.58 -3.40,3.48 -4.08,5.38 -4.45,7.02 -4.81,8.67 -4.72,9.73 -4.63,10.79 -4.69,10.97 -4.75,11.15 -4.86,11.31 -4.97,11.47 -5.11,11.59 -5.25,11.72 -5.41,11.81 -5.58,11.90 -5.76,11.95 -5.95,12.00 -6.14,12.00 -6.33,12.01 -6.51,11.96 -6.70,11.92 -6.86,11.83 -7.03,11.75 -7.18,11.63 -7.32,11.50 -7.43,11.35 -7.54,11.19 -7.61,11.02 -7.68,10.84 -7.71,10.65 -7.73,10.46 -7.71,10.27 -7.69,10.09 -5.61,9.33 -3.52,8.57 -2.25,7.77 -0.99,6.96 -0.90,6.91 -0.80,6.85 -0.70,6.83 -0.60,6.81 -0.49,6.82 -0.38,6.84 -0.29,6.88 -0.19,6.93 -0.12,7.01 -0.04,7.08 0.00,7.17 0.04,7.27 0.06,7.37 0.07,7.48 0.06,7.58 0.04,7.69 -0.01,7.78 -0.06,7.87 -0.14,7.95 -0.21,8.02 -0.31,8.06 -0.41,8.10 -0.51,8.11 -0.62,8.12 -0.72,8.10 -0.83,8.07 -0.92,8.02 -1.01,7.96 -1.07,7.88 -1.14,7.80 -1.18,7.70 -1.22,7.60 -1.22,7.49 -1.22,7.38 -1.19,7.28 -1.16,7.18 -1.10,7.09 -1.04,7.01 -0.95,6.94 -0.87,6.88 -0.77,6.85 -0.67,6.82 -0.56,6.82 -0.45,6.82 -0.35,6.86 -0.25,6.89 -0.17,6.96 -0.09,7.02 -0.03,7.11 0.02,7.20 0.05,7.31 0.07,7.41 0.06,7.51 0.06,7.62 0.02,7.72 -0.02,7.82 -0.09,7.90 -0.16,7.98 -0.16,7.98 -0.16,7.98 -1.51,9.31 -2.86,10.65 -3.74,10.72 -4.63,10.79 -4.69,10.97 -4.75,11.15 -4.86,11.31 -4.97,11.47 -5.11,11.59 -5.25,11.72 -5.41,11.81 -5.58,11.90 -5.76,11.95 -5.95,12.00 -6.14,12.00 -6.33,12.01 -6.51,11.96 -6.70,11.92 -6.86,11.83 -7.03,11.75 -7.18,11.63 -7.32,11.50 -7.43,11.35 -7.54,11.19 -7.61,11.02 -7.68,10.84 -7.71,10.65 -7.73,10.46 -7.71,10.27 -7.69,10.09 -7.82,9.04 -7.95,8.00 -7.49,6.05 -7.03,4.09 -5.76,1.58 -4.48,-0.92 -3.02,-1.50 -1.55,-2.07 -0.59,-1.58 0.36,-1.08 0.48,-1.02 0.61,-0.96 0.71,-0.87 0.82,-0.79 0.90,-0.68 0.98,-0.57 1.04,-0.44 1.09,-0.31 1.11,-0.18 1.14,-0.04 1.13,0.09 1.11,0.22 1.07,0.35 1.03,0.48 0.95,0.60 0.88,0.72 0.78,0.81 0.68,0.91 0.56,0.98 0.44,1.05 0.31,1.08 0.18,1.12 0.04,1.13 -0.09,1.13 -0.22,1.11 -0.36,1.08 -0.36,1.08 L -0.36,1.08 Z"></path></g><g transform="translate(78 75.49880679672583) rotate(0 -2 17)" stroke="none"><path fill="#1e1e1e" d="M 1.18,0.59 Q 1.18,0.59 1.07,1.24 0.96,1.89 0.93,2.46 0.89,3.04 0.87,4.16 0.84,5.28 0.82,6.35 0.80,7.42 0.49,9.18 0.18,10.93 0.07,12.39 -0.04,13.85 -0.09,15.33 -0.14,16.81 -0.46,18.73 -0.78,20.64 -1.20,23.40 -1.62,26.16 -1.79,27.87 -1.96,29.58 -2.03,30.86 -2.11,32.14 -2.72,30.91 -3.33,29.68 -3.34,29.76 -3.36,29.84 -3.39,29.91 -3.42,29.98 -3.47,30.04 -3.52,30.11 -3.58,30.16 -3.64,30.21 -3.72,30.24 -3.79,30.27 -3.87,30.29 -3.94,30.30 -4.02,30.30 -4.10,30.29 -4.18,30.27 -4.25,30.24 -4.32,30.20 -4.39,30.16 -4.45,30.11 -4.50,30.05 -4.54,29.98 -4.58,29.92 -4.61,29.84 -4.63,29.76 -4.64,29.69 -4.64,29.61 -4.63,29.52 -4.61,29.44 -4.56,29.35 -4.51,29.25 -4.44,29.18 -4.36,29.11 -4.27,29.06 -4.17,29.01 -4.06,29.00 -3.96,28.99 -3.86,29.01 -3.75,29.03 -3.66,29.08 -3.57,29.14 -3.50,29.22 -3.43,29.30 -3.39,29.40 -3.35,29.49 -3.34,29.60 -3.33,29.71 -3.36,29.81 -3.39,29.91 -3.45,30.00 -3.50,30.09 -3.59,30.16 -3.67,30.22 -3.77,30.26 -3.87,30.29 -3.98,30.29 -4.08,30.29 -4.19,30.26 -4.29,30.23 -4.37,30.17 -4.46,30.10 -4.52,30.02 -4.58,29.93 -4.61,29.83 -4.64,29.72 -4.63,29.62 -4.63,29.51 -4.59,29.41 -4.55,29.31 -4.49,29.23 -4.42,29.15 -4.33,29.09 -4.24,29.04 -4.13,29.01 -4.03,28.99 -3.92,29.00 -3.82,29.01 -3.72,29.05 -3.62,29.10 -3.55,29.17 -3.47,29.24 -3.42,29.33 -3.37,29.43 -3.35,29.53 -3.33,29.64 -3.33,29.66 -3.33,29.68 -3.34,29.76 -3.36,29.84 -3.39,29.91 -3.42,29.98 -3.47,30.04 -3.52,30.11 -3.58,30.16 -3.64,30.21 -3.72,30.24 -3.79,30.27 -3.87,30.29 -3.94,30.30 -4.02,30.30 -4.10,30.29 -4.18,30.27 -4.25,30.24 -4.32,30.20 -4.39,30.16 -4.45,30.11 -4.50,30.05 -4.54,29.98 -4.58,29.92 -4.61,29.84 -4.63,29.76 -4.64,29.69 -4.64,29.61 -5.15,30.77 -5.66,31.94 -5.58,30.58 -5.50,29.22 -5.32,27.42 -5.13,25.63 -4.71,22.83 -4.29,20.04 -3.99,18.36 -3.69,16.68 -3.64,15.12 -3.58,13.56 -3.44,11.93 -3.30,10.29 -3.02,8.82 -2.74,7.34 -2.71,6.24 -2.68,5.13 -2.61,3.83 -2.53,2.53 -2.32,1.47 -2.11,0.40 -1.65,-0.09 -1.18,-0.59 -1.09,-0.72 -1.00,-0.85 -0.89,-0.96 -0.77,-1.07 -0.63,-1.15 -0.49,-1.23 -0.34,-1.27 -0.18,-1.31 -0.02,-1.31 0.13,-1.31 0.28,-1.28 0.44,-1.24 0.58,-1.17 0.73,-1.10 0.85,-1.00 0.97,-0.89 1.06,-0.76 1.16,-0.63 1.22,-0.49 1.28,-0.34 1.30,-0.18 1.32,-0.02 1.31,0.13 1.29,0.29 1.24,0.44 1.18,0.59 1.18,0.59 L 1.18,0.59 Z"></path></g><g transform="translate(79 103.49880679672583) rotate(0 2.5 -2.5)" stroke="none"><path fill="#1e1e1e" d="M 0,-1.10 Q 0,-1.10 0.71,-1.25 1.43,-1.40 2.62,-2.62 3.81,-3.85 4.72,-5.15 5.62,-6.44 5.99,-7.21 6.36,-7.99 5.90,-8.25 5.44,-8.51 4.29,-8.57 3.14,-8.64 2.42,-8.39 1.71,-8.14 0.98,-8.00 0.25,-7.85 -0.47,-7.23 -1.20,-6.62 -1.26,-5.12 -1.31,-3.62 -1.34,-2.61 -1.37,-1.59 -0.86,-0.58 -0.35,0.42 0.01,1.41 0.39,2.40 1.22,2.71 2.05,3.02 4.32,2.02 6.59,1.01 6.69,0.98 6.79,0.94 6.90,0.94 7.00,0.94 7.11,0.97 7.21,1.00 7.29,1.07 7.38,1.13 7.44,1.22 7.50,1.31 7.53,1.41 7.56,1.51 7.55,1.62 7.55,1.72 7.51,1.82 7.47,1.92 7.40,2.00 7.34,2.08 7.25,2.14 7.16,2.20 7.05,2.22 6.95,2.24 6.84,2.23 6.74,2.22 6.64,2.18 6.54,2.14 6.47,2.06 6.39,1.99 6.34,1.90 6.29,1.81 6.27,1.70 6.25,1.60 6.27,1.49 6.28,1.39 6.33,1.29 6.38,1.20 6.45,1.12 6.53,1.05 6.63,1.00 6.72,0.96 6.83,0.95 6.93,0.93 7.04,0.95 7.14,0.98 7.23,1.03 7.33,1.08 7.40,1.16 7.46,1.24 7.51,1.34 7.55,1.44 7.55,1.55 7.56,1.65 7.53,1.75 7.50,1.86 7.45,1.95 7.39,2.03 7.30,2.10 7.22,2.17 7.22,2.17 7.22,2.17 4.55,3.85 1.88,5.54 -0.02,4.89 -1.94,4.23 -2.61,2.95 -3.28,1.66 -3.89,0.03 -4.50,-1.59 -4.45,-2.73 -4.39,-3.87 -4.25,-5.21 -4.12,-6.54 -3.67,-7.59 -3.21,-8.65 -2.54,-9.18 -1.86,-9.71 -1.05,-10.09 -0.24,-10.47 0.37,-10.55 1.00,-10.63 2.12,-10.92 3.25,-11.20 4.16,-11.11 5.08,-11.02 5.74,-10.82 6.40,-10.63 7.19,-10.08 7.98,-9.53 8.22,-8.42 8.45,-7.30 8.03,-6.25 7.61,-5.19 6.65,-3.54 5.69,-1.89 3.85,-0.24 2.01,1.40 1.00,1.25 0,1.10 -0.13,1.08 -0.26,1.07 -0.38,1.02 -0.51,0.97 -0.62,0.90 -0.73,0.82 -0.82,0.72 -0.91,0.62 -0.97,0.51 -1.03,0.39 -1.06,0.26 -1.09,0.13 -1.09,-0.00 -1.09,-0.13 -1.06,-0.26 -1.03,-0.39 -0.97,-0.51 -0.91,-0.62 -0.82,-0.72 -0.73,-0.82 -0.62,-0.90 -0.51,-0.97 -0.38,-1.02 -0.26,-1.07 -0.13,-1.08 0.00,-1.10 0.00,-1.10 L 0,-1.10 Z"></path></g><g transform="translate(98 90.49880679672583) rotate(0 -7.5 9)" stroke="none"><path fill="#1e1e1e" d="M 0.76,0.76 Q 0.76,0.76 0.11,1.83 -0.54,2.90 -1.47,3.86 -2.39,4.81 -3.36,5.79 -4.33,6.77 -4.94,7.65 -5.55,8.53 -6.26,8.18 -6.97,7.82 -6.11,7.99 -5.26,8.16 -3.84,8.55 -2.41,8.94 -1.20,9.97 0.00,11.01 0.26,12.37 0.52,13.73 -0.13,15.11 -0.80,16.49 -2.21,17.46 -3.62,18.43 -5.95,18.39 -8.28,18.34 -11.19,16.31 -14.10,14.28 -14.18,14.21 -14.26,14.15 -14.32,14.06 -14.37,13.97 -14.40,13.86 -14.42,13.76 -14.41,13.65 -14.40,13.55 -14.36,13.45 -14.31,13.35 -14.24,13.28 -14.17,13.20 -14.07,13.15 -13.98,13.10 -13.88,13.08 -13.77,13.06 -13.67,13.08 -13.56,13.09 -13.47,13.14 -13.37,13.19 -13.30,13.26 -13.23,13.34 -13.18,13.44 -13.13,13.53 -13.12,13.64 -13.11,13.74 -13.13,13.85 -13.15,13.95 -13.21,14.04 -13.26,14.14 -13.34,14.20 -13.42,14.27 -13.52,14.32 -13.62,14.36 -13.72,14.36 -13.83,14.37 -13.93,14.34 -14.03,14.31 -14.12,14.26 -14.21,14.20 -14.28,14.11 -14.34,14.03 -14.38,13.93 -14.41,13.83 -14.41,13.72 -14.41,13.62 -14.38,13.52 -14.35,13.41 -14.28,13.33 -14.22,13.24 -14.13,13.18 -14.05,13.12 -13.94,13.09 -13.84,13.06 -13.74,13.07 -13.63,13.07 -13.53,13.11 -13.43,13.15 -13.43,13.15 -13.43,13.15 -10.76,14.39 -8.09,15.63 -6.61,15.57 -5.14,15.52 -4.36,15.10 -3.58,14.69 -3.02,13.77 -2.47,12.85 -2.93,12.45 -3.38,12.04 -4.54,11.74 -5.69,11.45 -7.07,11.16 -8.44,10.86 -8.87,10.47 -9.29,10.07 -8.83,8.30 -8.36,6.53 -7.57,5.44 -6.77,4.34 -5.79,3.37 -4.81,2.39 -3.86,1.47 -2.90,0.54 -1.83,-0.11 -0.76,-0.76 -0.66,-0.84 -0.55,-0.92 -0.44,-0.97 -0.32,-1.03 -0.19,-1.05 -0.06,-1.08 0.06,-1.07 0.19,-1.06 0.31,-1.02 0.44,-0.98 0.55,-0.91 0.66,-0.85 0.75,-0.75 0.85,-0.66 0.91,-0.55 0.98,-0.44 1.02,-0.31 1.06,-0.19 1.07,-0.06 1.08,0.06 1.05,0.19 1.03,0.32 0.97,0.44 0.92,0.56 0.84,0.66 0.76,0.76 0.76,0.76 L 0.76,0.76 Z"></path></g></svg>